<svg xmlns="http://www.w3.org/2000/svg" viewBox="0 0 2000 112.67"><defs><style>.cls-1{fill:#fff;}</style></defs><title>bottom-ridge</title><g id="Layer_2" data-name="Layer 2"><g id="Layer_1-2" data-name="Layer 1"><path class="cls-1" d="M2000,109c-5,4.89-15,4.89-20,0s-15-4.89-20,0-15,4.89-20,0-15-4.89-20,0-15,4.89-20,0-15-4.89-20,0-15,4.89-20,0-15-4.89-20,0-15,4.89-20,0-15-4.89-20,0-15,4.89-20,0-15-4.89-20,0-15,4.89-20,0-15-4.89-20,0-15,4.89-20,0-15-4.89-20,0-15,4.89-20,0-15-4.89-20,0-15,4.89-20,0-15-4.89-20,0-15,4.89-20,0-15-4.89-20,0-15,4.89-20,0-15-4.89-20,0-15,4.89-20,0-15-4.89-20,0-15,4.89-20,0-15-4.89-20,0-15,4.89-20,0-15-4.89-20,0-15,4.89-20,0-15-4.89-20,0-15,4.89-20,0-15-4.89-20,0-15,4.89-20,0-15-4.89-20,0-15,4.89-20,0-15-4.89-20,0-15,4.89-20,0-15-4.89-20,0-15,4.89-20,0-15-4.89-20,0-15,4.89-20,0-15-4.89-20,0-15,4.89-20,0-15-4.89-20,0-15,4.89-20,0-15-4.89-20,0-15,4.89-20,0-15-4.89-20,0-15,4.89-20,0-15-4.89-20,0-15,4.89-20,0-15-4.89-20,0-15,4.89-20,0-15-4.89-20,0-15,4.89-20,0-15-4.89-20,0-15,4.89-20,0-15-4.89-20,0-15,4.89-20,0-15-4.89-20,0-15,4.89-20,0-15-4.89-20,0-15,4.89-20,0-15-4.89-20,0-15,4.89-20,0-15-4.89-20,0-15,4.89-20,0-15-4.89-20,0-15,4.89-20,0-15-4.89-20,0-15,4.89-20,0-15-4.89-20,0-15,4.89-20,0-15-4.89-20,0-15,4.89-20,0-15-4.89-20,0-15,4.89-20,0-15-4.89-20,0-15,4.89-20,0-15-4.89-20,0-15,4.89-20,0-15-4.89-20,0-15,4.89-20,0-15-4.89-20,0-15,4.89-20,0-15-4.89-20,0-15,4.89-20,0-15-4.89-20,0-15,4.89-20,0-15-4.89-20,0-15,4.89-20,0-15-4.89-20,0-15,4.89-20,0-15-4.89-20,0-15,4.89-20,0-15-4.89-20,0-15,4.89-20,0-15-4.89-20,0V0H1999.5Z"/></g></g></svg>