<svg xmlns="http://www.w3.org/2000/svg" viewBox="0 0 1007.96 1554.16"><defs><style>.cls-1{isolation:isolate;}.cls-2{fill:#70c4ba;mix-blend-mode:multiply;}.cls-3{fill:#e1c487;}.cls-4{fill:#fff;}.cls-5{fill:#f79d1d;}.cls-6{fill:#231f20;}.cls-7{fill:#f16f79;}</style></defs><title>cta-noodle</title><g class="cls-1"><g id="Layer_2" data-name="Layer 2"><g id="Layer_1-2" data-name="Layer 1"><path class="cls-2" d="M56.61,305h0a8.2,8.2,0,0,0,9.06,6.39l935.15-128.16a8.2,8.2,0,0,0,7-9.37l-4.6-30.17a8.21,8.21,0,0,0-9.46-6.85L63.27,295.2A8.19,8.19,0,0,0,56.61,305Z"/><path class="cls-3" d="M139.72,1525.31a82.44,82.44,0,0,1-.05-28.16c2.11-11.22,4.41-22.42,7.08-33.53,3.84-15.93,6.21-31.92,4.88-48.35a128.64,128.64,0,0,0-11.11-43.12,177.64,177.64,0,0,1-7.94-20.17c-6-19.24-6.07-38.73-1.27-58,2.34-9.38,6.37-18.4,9.83-27.53,8.63-22.74,16-45.74,18.38-69.94a124.1,124.1,0,0,0-2.81-40.42c-3.57-15.36-7.78-30.61-11.31-46a131.83,131.83,0,0,1-3.13-21.14,87.76,87.76,0,0,1,2.62-26.34c3.05-12.48,5.81-25,11.4-36.87,3.67-7.79,5.67-16.25,8.62-24.34a133.53,133.53,0,0,0,7.68-35.95A165.88,165.88,0,0,0,167,909.38a276.2,276.2,0,0,1-8.26-46,119.91,119.91,0,0,1,3.41-40.73c3.19-12.74,6.71-25.41,10.44-38,3.95-13.37,8.28-26.66,12.52-40,1.24-3.91,3.51-7.67,4-11.63.76-6.79,4.31-12.93,4.36-19.9,0-5.94,1.7-11.85,2-17.81.94-18-3.57-35.14-10.26-51.93-5.35-13.44-11-26.77-16.2-40.26-4.51-11.75-8.28-23.71-9.74-36.13-.55-4.68-.91-9.37-1.26-14.06-1-13.73-.43-27.43,2.84-40.78,2.49-10.18,4.39-20.5,8.47-30.4,4.19-10.19,6.92-20.88,10.3-31.35a124.57,124.57,0,0,0,5.31-24.2,55.67,55.67,0,0,0,.45-10.63,103.27,103.27,0,0,0-2.1-14.4c-2.37-10.78-5.36-21.45-7.49-32.26-2.24-11.38-3.7-22.87-5.63-34.3-2-11.79,1-22.63,6.92-32.95,3-5.27,6.11-10.53,8.93-15.9,7.09-13.49,9-27.34,3.27-41.87-1-2.48-2.05-7.28-4.74-8.73a4.94,4.94,0,0,0-1.84-.46c-10.12-1.1-14.81,3.35-14.1,12.35s2.56,17.85-2.34,26.08c-2.35,3.95-5.8,7.34-8.61,11.07s-5.76,7.17-7.75,11.13c-3.82,7.58-6.94,15.45-10.44,23.16-4.05,8.89-6.16,18-5.13,27.79.64,6.14,1.53,12.14,3.87,18,4.18,10.45,8.28,20.93,12.12,31.49,1.91,5.27,3.23,10.72,4.7,16.11a91,91,0,0,1,2.68,11.25,81.37,81.37,0,0,1-6.24,45.66c-5.68,12.56-11.77,25-17,37.68-5.76,13.94-10.84,28.09-12.61,43.11-1.57,13.26-2.12,26.4,2.43,39.35,2.91,8.29,5.49,16.71,9.06,24.77,4.52,10.2,9.89,20.09,14.9,30.12,4.22,8.44,8.67,16.81,11.08,25.9,1.75,6.64,3.74,13.24,5.16,19.94,2.39,11.26,3.85,22.64,2,34a195.92,195.92,0,0,1-10.58,39.72c-4.68,12-9.79,23.94-14.45,36-5.54,14.33-10.77,28.75-14.7,43.57-4.83,18.24-2.39,35.91,4.1,53.44.2.53.56,1,.76,1.56,2.6,7,5.72,13.94,7.63,21.11,2.25,8.43,3.42,17.09,5.12,25.64a83.45,83.45,0,0,1,.47,28.89c-2.72,18-8.25,35.34-14.44,52.49A450.39,450.39,0,0,0,112.4,1091c-2.46,12.3-2.91,24.66.5,37,1.88,6.78,4.11,13.51,5.57,20.37,1.54,7.27,2.55,14.64,3.43,22,.62,5.22.77,10.49.88,15.74a157,157,0,0,1-.22,15.8c-.51,6.35-1.46,12.67-2.44,19-.3,1.92-1.69,3.7-2,5.62-1.46,9.36-4.81,18.24-8,27.16-3.55,10-7.43,19.91-11.09,29.88-2.68,7.29-5,14.66-5.67,22.4-1.37,15.54,1.95,30.34,8.54,44.7,4.52,9.87,9.11,19.72,11.28,30.33,2.1,10.29,4,20.55,2.66,31-.74,6.08-1.23,12.19-1.9,18.28a15.19,15.19,0,0,1-.88,3.74c-1.39,3.59-3.22,7-4.27,10.72-2.37,8.24-4.45,16.55-6.5,24.87-2.6,10.57-.91,21,2.37,31.22,2.23,7,4.63,13.91,6.79,20.9,1.78,5.73,3.33,11.51,5,17.28l1.87,6.58,25.58,1.32C142.44,1539.7,140.85,1532.53,139.72,1525.31Z"/><path class="cls-3" d="M192.68,1521.23a389.77,389.77,0,0,1,11-38.78c4.43-12.77,8.59-25.53,11.1-38.76a74.22,74.22,0,0,0-2.59-38.5c-3.47-10.06-8-19.8-12-29.74A220,220,0,0,1,188,1327.59c-2.09-13.91.57-27.3,5.38-40.35,4.12-11.17,8.66-22.21,13-33.3a115.44,115.44,0,0,0,6.83-27c2.78-20.11-.17-39.81-6.41-59.23-3.57-11.1-7.31-22.15-9.33-33.63-3.05-17.28-4.07-34.57-2.07-51.95.18-1.56.53-3.09.78-4.64a140.76,140.76,0,0,1,9.65-34.65c6.12-14,12.53-27.86,18.41-41.93a88.94,88.94,0,0,0,6.84-36.44c-.41-19-4.3-37.72-7.06-56.53-1.61-11-3-22.12-3.7-33.22-1-15.72.81-31.36,3.34-46.85,2.63-16.06,6-32,9.16-48,2.23-11.34,4.39-22.69,7-34a322.28,322.28,0,0,0,6.92-41.77c.85-9.09,1.71-18.19,2.08-27.31.5-12.68.89-25.4-1.14-38-1.53-9.45-3.15-18.91-5.21-28.28-2.31-10.48-5.09-20.89-7.79-31.31-3.41-13.19-7.15-26.3-8.06-39.92-.89-13.19-.23-26.24,3-39.09,3.23-12.6,6.69-25.16,9.84-37.78a159.19,159.19,0,0,0,4.35-31.33,152.53,152.53,0,0,0-3.23-40.87c-2.4-10.61-5.69-21.06-8.62-31.58a47.09,47.09,0,0,1,1.78-30.28c2.38-6.16,4.8-12.31,7-18.51,2.51-7,2.71-14.25,2.4-21.57-.51-11.78-3.51-23.17-6.61-34.55-1.85-6.81-1.05-14.48-1-21.41a12.21,12.21,0,0,0-.52-4.38c-1.21-3.28-5.19-5.28-9-5.21A16.28,16.28,0,0,0,216,227c-6.26,5.34-5,16.08-2.49,23,1.11,3.12,2.28,6.22,3.47,9.32A47.64,47.64,0,0,1,218.48,290c-2.93,10.44-8.51,19.78-14.12,29.13-4.08,6.81-7.35,14-6.24,22,1.93,13.83,3.13,27.71,7.61,41.28,3.73,11.28,5.67,23.08,7.8,34.73a64.79,64.79,0,0,1,1,17.83,141.11,141.11,0,0,1-6.63,29.94q-4.81,14.83-9.66,29.68c-1.24,3.8-2.81,7.52-3.75,11.38-2.22,9.12-4.36,18.27-6.12,27.47a75.62,75.62,0,0,0-1.58,15.7c.18,8.82,1,17.63,1.73,26.43.9,10.87,4.19,21.28,8.16,31.51s8.31,20.64,12.4,31c3.24,8.19,6.65,16.34,9.43,24.65a145.58,145.58,0,0,1,5.74,21.58c2.13,12.51,1,24.94-1.26,37.42-3.45,19-9.69,37.34-15,55.89-4.33,15.12-9.64,30-13.7,45.17A246.29,246.29,0,0,0,188.7,853c-1.28,9.35,0,18.72,1.16,28.11a268.89,268.89,0,0,0,5.91,32c3.06,12.51,6.06,25,6.87,37.91.71,11.18-.52,22.15-1.09,33.21a11.81,11.81,0,0,1-.37,2.11c-.79,3.6-1.61,7.2-2.38,10.81a17.32,17.32,0,0,1-.34,2.53c-1.92,5.08-4.36,10-5.8,15.22-2.74,9.86-8,18.95-10.1,29a14,14,0,0,1-.75,2c-.54,1.42-1.08,2.84-1.58,4.26-.38,1.07-.72,2.14-1,3.22a45.75,45.75,0,0,0-1.35,4.47c-.58,2.79-1.06,5.59-1.49,8.4-1.21,8-3.07,16-3.38,24.1-.38,9.79,1.45,19.55,3.65,29.2.8,3.47,1.17,7,2,10.49.57,2.34,1.79,4.55,2.44,6.89,2.49,9,4.95,18,7.27,27a102.4,102.4,0,0,1,3.14,25.86,111.84,111.84,0,0,1-2.24,21.21,394.14,394.14,0,0,1-10.68,41.09c-1.07,3.49-3.11,6.72-4.55,10.13-1.61,3.81-3.09,7.66-4.53,11.53-3.16,8.46-6.54,16.87-9.25,25.45-1.5,4.73-1.77,9.78-2.68,14.67-1.89,10.12-1,20.16,1.24,30.15.33,1.5,1.84,3,1.62,4.34-.8,4.84,2.77,8.56,3.73,13,1.09,5,3.87,9.63,6,14.39,2.78,6.18,6.1,12.19,8.31,18.53a52.33,52.33,0,0,1,2.59,14.72c.38,8.39-.07,16.81,0,25.22s-1.79,16.3-3.95,24.26c-1.18,4.4-2.46,8.77-3.51,13.19-1.44,6.09-2.56,12.26-4.08,18.33-3.74,15-3.4,30-.41,45,.86,4.38,1.62,8.77,2.39,13.16l20,1C190.69,1539.76,190.54,1530.37,192.68,1521.23Z"/><path class="cls-3" d="M290.83,1549.8c-2.56-4.77-3.36-10-4.78-15-1.87-6.6-.24-13.33,1.75-19.82,4.05-13.14,8.2-26.25,12.27-39.39,1.65-5.33,3.17-10.7,4.77-16,.77-2.59,1.78-5.14,2.36-7.76,1.81-8.23,3.18-16.56,5.27-24.73,2.68-10.46,2.08-21,.71-31.46-1.63-12.52-5.93-24.53-9.81-36.57-4.7-14.61-8.63-29.25-7.84-44.59.23-4.41-.18-9,.87-13.21a121,121,0,0,1,10.12-26.92c4.43-8.52,7.17-17.57,9.42-26.7,4-16.18,3.27-32.59.71-48.93-1.89-12-4.34-23.92-6.66-35.86a173.28,173.28,0,0,1-3.12-34.5c.08-10.16.78-20.2,3.38-30.12,3.33-12.73,7-25.32,12.39-37.48,4.68-10.63,9.4-21.26,13.65-32,8.09-20.56,12.6-41.7,10-63.74-1.4-11.77-2.91-23.56-5.14-35.22-1.72-9-4.52-17.81-7.05-26.66a223.38,223.38,0,0,1-7.45-43.53c-1.68-20.68.91-41,6.44-61,2.17-7.84,5.17-15.48,7.65-23.26,3.86-12.11,8.24-24.09,10.31-36.67a151.77,151.77,0,0,0,1.83-36.68,398.64,398.64,0,0,0-6-45.45c-1.21-6.18-2.42-12.38-4.17-18.45q-8.55-29.64-14.09-59.85c-2.3-12.42-2.52-25-3.06-37.54-1-23.92,3.87-46.71,12.89-68.91,3.19-7.87,6.66-15.68,9.11-23.74,3.7-12.25,5-24.9,5.72-37.6a64,64,0,0,0-4.92-28.56c-3.07-7.35-5.9-14.79-8.43-22.3a61.09,61.09,0,0,1-3-13.38,72.65,72.65,0,0,1,8.25-41.53c6.28-11.94,4.87-23.95-.78-35.61-4.12-8.5-8.18-17-10.72-26-2.2-7.75-4-15.63-1.68-23.67,1-3.61,5.17-9.81.27-12.43s-13.86.17-17.94,3.08-7.88,6.86-9,11.52c-1.82,7.59-.19,15.18,1.52,22.77,2.23,9.88,6.8,19,10.89,28.22,8.15,18.41,8.59,36.62.87,55-2.16,5.17-4.16,10.41-5.84,15.73-2,6.24-1.21,12.73-1.23,19.15,0,7.95,1.93,15.52,4.28,23.11,2.5,8.06,6.8,15.7,7.05,24.29a8.16,8.16,0,0,0,.7,2,24.24,24.24,0,0,1,1.48,4.89c.71,7.79,2,15.54,1.46,23.42-.44,6.5.66,13.06-.67,19.56-1.08,5.3-1.18,10.88-3,15.92-4.55,12.35-9.45,24.63-15,36.61a61.34,61.34,0,0,0-5.6,22.26c-.38,5.69-.1,11.42-.59,17.09-.76,8.92,1,17.6,2.45,26.34,1.51,9.26,5.32,17.92,8.82,26.6,5.95,14.77,10.7,29.86,15.2,45,2.85,9.6,4.52,19.49,6.68,29.26A99.88,99.88,0,0,1,337,705.55a113.06,113.06,0,0,1-1.62,15.7c-1.3,6.78-.93,13.75-4.19,20.38-2,4.09-3.18,8.73-4.86,13.1-2.72,7.09-4.86,14.37-7.43,21.52-6.1,17-11.29,34.27-14.37,52-.68,3.93-1.93,7.79-2.4,11.73a151.18,151.18,0,0,0-.65,29.4c.93,12.31,4.42,24.16,7.36,36.11,1.27,5.13,3.1,10.16,4.42,15.28a145.94,145.94,0,0,1,4.19,33.91,102.6,102.6,0,0,1-6,35.2,280.92,280.92,0,0,1-14.2,32.82,150.79,150.79,0,0,0-6.12,15.12c-1.63,4.43-2.47,9.14-4.46,13.41-3.14,6.77-4.64,13.89-5.91,21-1.87,10.52-3.08,21.16-4.4,31.76-1.86,15-.61,30,2.61,44.7,2.53,11.57,6.44,22.91,9.8,34.34,2.56,8.7,5.55,17.3,7.77,26.06,4.13,16.29,5.75,32.69,1.47,49.14-1.23,4.7-2.08,9.54-3.85,14.06-3,7.58-6.44,15-9.88,22.42-4.57,9.83-8.15,19.93-9.78,30.54a44.63,44.63,0,0,0-.68,11.91,101.45,101.45,0,0,0,3.5,15.93c3,10.51,6.86,20.81,8.16,31.68,1.08,9.07,2.91,18.08,3.63,27.17.43,5.5-.38,11.11-1.07,16.61-.9,7.21-2.2,14.36-3.39,21.53-.62,3.76-1.29,7.51-2,11.25-2.16,10.91-4.6,21.77-6.51,32.71-2.05,11.79-3.92,23.59-4.25,35.6a110.24,110.24,0,0,0,2,23.52l18.54,1A18.83,18.83,0,0,0,290.83,1549.8Z"/><path class="cls-3" d="M247.67,1543.82c-2.4-19.81.27-39.3,4-58.71,1.92-10.08,4.6-20,6.3-30.16,1.66-9.83,2.1-19.85,3.79-29.68,2.35-13.6.76-27-1.61-40.43a249.38,249.38,0,0,0-8.55-33.75,63.76,63.76,0,0,1-3.16-14.19c-1.28-14.93,2.35-29.15,8.17-43,3.74-8.86,7.35-17.78,11.43-26.52,3-6.44,4.19-13.28,5.93-20,2-7.7.9-15.59.23-23.39a101.82,101.82,0,0,0-1.69-12.28,260.51,260.51,0,0,0-10.1-34.22c-3.47-9.62-5.74-19.59-8.36-29.45-1-3.73-1.5-7.56-2.17-11.36-1.48-8.45-3-16.94-2.43-25.5.65-10.5,1.58-21,2.73-31.43,1.28-11.62,3.22-23.14,7.23-34.28,2-5.66,3.8-11.4,6-17,3.35-8.53,6.91-17,10.51-25.45,1.46-3.43,3.49-6.66,4.83-10.13,1.81-4.67,2.93-9.57,4.83-14.2a76.19,76.19,0,0,0,5-22.5c1.16-13,.94-26-2.1-38.77-2.14-9-4.85-18-7.1-27-1.9-7.64-4.1-15.27-5.08-23a158.89,158.89,0,0,1-.93-24.29,141.15,141.15,0,0,1,2.27-19.4c.77-4.61,2.32-9.1,3.38-13.68s1.63-9.55,3.07-14.16c4.93-15.7,10.14-31.34,15.25-47,2.84-8.69,6.18-17.26,8.41-26.07a143.85,143.85,0,0,0,3.41-22.34c1.32-14.73-.68-29.31-4.14-43.71a332.39,332.39,0,0,0-10.95-37c-2.34-6.36-4.26-12.84-6.45-19.24-3.5-10.2-7.49-20.27-10.44-30.59a100.82,100.82,0,0,1-3.36-20.69c-.49-7,0-14,.29-20.93.17-4.4.55-8.8,1.06-13.17,1.31-11.1,7.2-20.76,11.42-31,3.3-7.95,6.85-15.86,9.39-24,3.32-10.71,3.92-21.81,4.06-33,.14-11.49-1.79-22.69-4.23-33.86a125.06,125.06,0,0,0-4.52-15.22c-3.64-10.24-6.36-20.61-6.37-31.4,0-9.72.36-19.41,4.39-28.61,1.79-4.08,3.44-8.22,4.86-12.42a64.73,64.73,0,0,0,3.76-18.4c.37-10-2.57-19.46-6.13-28.84-2.65-7-5.15-14.07-7.09-21.24a48.49,48.49,0,0,1-1.81-13.14c0-2.34,2.81-6.41-.17-8a6.08,6.08,0,0,0-2.82-.54,25.56,25.56,0,0,0-16,5.27c-8.53,6.72-8.84,15.87-6.39,25.29,2.76,10.62,4.93,21.54,8.1,32,2.23,7.4,4.93,14.87,4.29,22.63a95.28,95.28,0,0,1-5.44,24.41c-1.94,5.38-4.56,10.54-6.57,15.9-2.72,7.25-3.54,14.76-1.55,22.28,1.84,6.93,4.6,13.68,6.26,20.63,2,8.21,3.44,16.53,4.63,24.86a196.29,196.29,0,0,1,2.23,23.79c.15,6.92-.72,13.88-1.46,20.79-1.49,13.76-5.56,27-9.19,40.39-3.07,11.31-6,22.58-6.85,34.33-1,14.81.86,29.27,4.65,43.63,2.81,10.66,5.87,21.26,8.37,32,2.45,10.46,4.35,21,6.47,31.54A144.23,144.23,0,0,1,275.92,669c-.52,14.81-1.09,29.6-2.77,44.38a398.76,398.76,0,0,1-6.86,39.58c-1.2,5.55-2.62,11.06-3.73,16.62-2,9.93-3.51,19.94-5.76,29.81a450.07,450.07,0,0,0-8.89,53.12c-2,19-.55,37.89,2.83,56.72,1.72,9.54,3.19,19.11,4.58,28.69.85,5.93,1.47,11.88,1.94,17.84.42,5.36,1,10.78.58,16.1a84.09,84.09,0,0,1-3.23,17.49c-2.89,9.57-6.15,19.07-9.93,28.36-3.56,8.77-8.11,17.19-12,25.85-2.12,4.71-3.95,9.55-5.6,14.42a92.11,92.11,0,0,0-2.6,10.38c-.94,4.44-2,8.89-2.48,13.39-.63,5.91-.93,11.86-1.07,17.8-.13,6.12-.66,12.34.34,18.34,1.64,9.82,2.41,19.79,5.81,29.37,2.44,6.88,4.43,13.89,6.49,20.88,1.83,6.18,4.05,12.33,5.09,18.62a153.05,153.05,0,0,1,1.78,22.11,111.08,111.08,0,0,1-7.51,43.61c-3.12,7.82-4.84,16.19-10.3,23.13-3,9.63-8.15,18.58-8.61,29-.5,11.45-.6,22.76,1.83,34.06.65,3.06,1.61,6.2,1.43,9.25-.28,4.67,1.49,9,2.88,13.13,2.47,7.41,6.13,14.52,9.42,21.7,1.48,3.25,3.7,6.26,4.87,9.58,2.42,6.87,4.52,13.84,6.41,20.84.58,2.12,0,4.49,0,6.74q-.09,10.63-.17,21.25a1.56,1.56,0,0,1-.18.83c-3.09,4.63-3.09,10.08-4.7,15.09-2.27,7.08-5,14-7.29,21.09q-3.28,9.93-6.18,20c-2.1,7.28-4,14.61-5.91,21.93-.47,1.79-.17,3.86-1,5.44-1.73,3.19-1.87,6.51-1.87,9.92,0,4.91,0,9.82-.07,14.72l35.2,1.82Z"/><path class="cls-2" d="M24,283.6h0A8.18,8.18,0,0,0,33.7,289L984.09,45.65a8.2,8.2,0,0,0,6-10.09L982.18,6.08A8.2,8.2,0,0,0,972,.31L29.53,273.1A8.2,8.2,0,0,0,24,283.6Z"/><path class="cls-4" d="M227.43,1210.81c-.1-18.33,2.83-35.1,9.52-51,3.2-7.6,8.38-13.69,13.57-19.79,3-3.51,6.25-6.74,10.51-7.37,7.81-1.15,15.46-3.83,23.51-3,7,.69,14,1,20.95,1.83a25.27,25.27,0,0,1,7.31,2.51,65.3,65.3,0,0,1,8.12,4.53,37.11,37.11,0,0,1,4.48,4c1.16,1,2.27,2.15,3.46,3.16q4.11,3.48,8.29,6.89c2.42,2,4.92,3.86,7.29,5.91,3.55,3.09,7.36,5.93,10.43,9.5,7.58,8.81,15,17.78,22.12,27,9.3,12.15,14.79,26,15.19,42.09.16,6.09.81,12.11-.34,18.24a57.69,57.69,0,0,1-11,24.22c-5.36,7.13-11.62,13.51-17.76,19.9-7.26,7.54-16.5,11.35-26,13.89-12.57,3.38-25.35,5.93-38.45,5.08a41.94,41.94,0,0,1-6.34-.67c-9.14-2.06-18.1-4.9-26.26-9.83-6.75-4.08-12.93-8.81-17.82-15.86-8-11.53-12.61-24.41-16-38C228.65,1239.55,226.79,1224.88,227.43,1210.81Z"/><path class="cls-5" d="M309.27,1212.37c-5.58,5-9.48,11.86-12.47,19-3.21,7.68-5.51,16-5.16,24.45s3.64,17,9.89,22c7.93,6.39,19.07,6.06,28.36,2.43,8-3.12,15.46-8.73,19.35-16.9,2.27-4.77,3.21-10.15,3.66-15.49.76-9,.13-18.43-3.7-26.47C341.58,1205.39,322.06,1200.94,309.27,1212.37Z"/><path class="cls-6" d="M227.43,1210.81c-.1-18.33,2.83-35.1,9.52-51,3.2-7.6,8.38-13.69,13.57-19.79,3-3.51,6.25-6.74,10.51-7.37,7.81-1.15,15.46-3.83,23.51-3,7,.69,14,1,20.95,1.83a25.27,25.27,0,0,1,7.31,2.51,65.3,65.3,0,0,1,8.12,4.53,37.11,37.11,0,0,1,4.48,4c1.16,1,2.27,2.15,3.46,3.16q4.11,3.48,8.29,6.89c2.42,2,4.92,3.86,7.29,5.91,3.55,3.09,7.36,5.93,10.43,9.5,7.58,8.81,15,17.78,22.12,27,9.3,12.15,14.79,26,15.19,42.09.16,6.09.81,12.11-.34,18.24a57.69,57.69,0,0,1-11,24.22c-5.36,7.13-11.62,13.51-17.76,19.9-7.26,7.54-16.5,11.35-26,13.89-12.57,3.38-25.35,5.93-38.45,5.08a41.94,41.94,0,0,1-6.34-.67c-9.14-2.06-18.1-4.9-26.26-9.83-6.75-4.08-12.93-8.81-17.82-15.86-8-11.53-12.61-24.41-16-38C228.65,1239.55,226.79,1224.88,227.43,1210.81Zm119.4-19.64c-6.37-11.29-13.09-21.94-22.05-30.55-4.65-4.46-10.11-7.93-15.14-11.93a27.3,27.3,0,0,0-16.7-5.85,86.48,86.48,0,0,1-8.67-.62c-4.66-.61-9,.69-13.53,1.67-7.25,1.59-10.94,7.43-13.11,13.9a69.87,69.87,0,0,0-3.34,26.34c.53,9.21,1.13,18.42,2,27.6q1,11.34,2.69,22.59a23.54,23.54,0,0,0,4.46,11.42c5.47-1.28,10.62-2.71,15.84-3.61,3-.5,4.3-1.91,5.35-5,5.07-14.81,14.94-24.6,28.31-30.43a10.4,10.4,0,0,1,8.41-.2c-2.59,1.36-4.86,1.89-6.24,3.39-5.27,5.71-10.29,11.69-15.34,17.64a14.76,14.76,0,0,0-3.35,10.83c6.75,1.16,13.54-2.45,20.52,0a8.89,8.89,0,0,0,1.71,7.78c2.08,2.93,1.47,5-1.5,7.54-1.91,1.63-3.83,3.26-5.85,4.72-2.45,1.78-5,3.38-8.34,5.59a21,21,0,0,1,.34-4.08,18.59,18.59,0,0,1,1.53-3c-2.45-2.7-4.52-5.3-6.93-7.47a5,5,0,0,0-4.05-1.08c-.65.15-1.26,2.45-1.18,3.72a19,19,0,0,0,1.48,5c.86,2.27,2,4.43,2.74,6.74a20.81,20.81,0,0,0,11.36,12.9c9.39,4,18.47,2.08,25.77-5.72a148.07,148.07,0,0,0,12.38-15.86,16.15,16.15,0,0,0,2.63-7.29,44,44,0,0,0-4.11-23.91c-.42-.87-.72-1.81-1.08-2.72-2.72,2.09-2.6,3.82-1.92,5.34a38,38,0,0,0,3.29,5.8c1.23,1.83,1.36,3.4-.61,4.5-3.23,1.81-6.49,3.58-9.84,5.08-1.48.66-3.36.31-3.47-1.91-.27-5.06-2.62-8.23-7.46-9.86.9-1.76,1.54-3.2,2.33-4.53,1.72-2.92,3.58-5.75,5.28-8.68,2.31-4,2.26-4,.3-7.37,1.89-1.12,4.33-1.77,5.55-3.45C340.63,1201.58,343.5,1196.5,346.83,1191.17Zm-82.65,59.38c.45,2.07.68,3.67,1.15,5.18,1.22,3.9,2.35,7.87,3.89,11.63,3.38,8.27,6.36,16.82,12.22,23.58,1.77,2,3.78,3.83,5.64,5.77a30.58,30.58,0,0,0,17.87,9.13c6.4,1,13.07.3,19.57-.28s11.7-4.37,16.64-8.69c9.79-8.56,18.78-17.89,23.87-30.68a42.7,42.7,0,0,0,3.17-20.3,99.53,99.53,0,0,0-8.83-32.6c-1.58-3.32-3.2-6.63-5.79-9.24-.62.37-1.11.5-1.37.84a19.71,19.71,0,0,0-1.56,2.43c-2.22,4.06-2,3.92.29,7.82a61.61,61.61,0,0,1,4.89,10.54c2,5.52,3.56,11.21,5.31,16.83a12.09,12.09,0,0,1,.06,8.18c-1.3,3.51-2.2,7.19-3.22,10.82-2.44,8.64-6,16.42-13.08,21.86-9.56,7.33-19.87,11.28-31.74,9.46-2.53-.39-5.13-.14-7.68-.42a9.53,9.53,0,0,1-4.32-1.27,41.82,41.82,0,0,1-14.3-15.64,48.22,48.22,0,0,1-5-20.89c0-1.73-.39-3.45-.65-5.61Zm38.88-3.53c3.21,4,5.24,4.31,8.83,2.26,1.3-.74,2.43-1.53,1.76-3.39a2.42,2.42,0,0,0-3.32-1.68C308.06,1245,305.85,1245.93,303.06,1247Zm33.59-17.08c-1.22,1.45-2.28,2.27-2.68,3.38-.16.42,1.47,2.25,1.76,2.12a7.72,7.72,0,0,0,2.88-2.52C338.77,1232.7,337.62,1231.38,336.65,1229.94Z"/><path class="cls-6" d="M326,1261.53c.48-2.58.82-5.2,1.46-7.72.92-3.59,3.39-5.56,6.27-5.34,2.64.21,6.11,3.41,6.42,6.23a4.53,4.53,0,0,1-.87,3c-2.58,3-5.29,5.91-8.06,8.72-.8.8-2.47,1.9-2.89,1.57a7.43,7.43,0,0,1-2-3.5,10,10,0,0,1-.05-3Zm6.46-8.17c-.36,1.64-.66,3.06-1.06,4.91C335.46,1256.32,335.54,1255.94,332.49,1253.36Z"/><path class="cls-4" d="M176,992.8c1.41,5.08,2.85,9.83,4,14.65,1.39,5.59-.66,10.17-4.88,13.74-8.88,7.52-19.05,11-30.77,9.39a44.23,44.23,0,0,0-6.61-.33c-2.57,0-4,1.49-4.49,4-2,11-9.83,17-19.09,21.26-8.6,3.93-17.91,4.11-27.17,2.6a28.66,28.66,0,0,1-14.86-6.9c-4-3.57-8.3-6.77-12.14-10.47a9.65,9.65,0,0,0-8.43-3,46.52,46.52,0,0,1-18.11-1.24c-3.78-1-7.26-2.48-10.05-5.46a14.87,14.87,0,0,0-4.89-3.51,16,16,0,0,1-8.12-7.93c-2.26-4.41-4.87-8.7-6.6-13.31C1,998.67,1.15,991.08,6.12,984.14c2.79-3.91,3-7.48-.09-11.6-2.17-2.88-3.52-6.49-4.74-9.95-2-5.66-1.86-11.45,1.77-16.41,4.27-5.84,9.11-11.22,17.36-11.1a20.55,20.55,0,0,0,3.28-.46c5.62-.83,6.78-2.07,6.82-7.82,0-4.79-.07-9.59-.2-14.38-.19-6.54,2.85-10.59,8.88-13.09,6.44-2.67,12.51-3.25,19.22-.64s13.71,4.23,20.64,6.09c3.57,1,5.1-.15,6.81-3.74,4.5-9.42,9.84-15.5,23.72-12.83,4.84.93,9.93.52,14.77,1.42,13.36,2.48,25.88,6.53,32.13,20.36,1.67,3.7,3.37,7.38,5,11.07,1.86,4.09,2.42,4.15,6.73,3.74a162,162,0,0,1,16.49-.68c1.86,0,3.79,1.06,5.55,1.93,3.46,1.71,6.84,3.62,10.24,5.46,11.08,6,13.11,21.45,3.84,29.92a21.44,21.44,0,0,0-4.28,6.19,44.86,44.86,0,0,1-7.73,10.6C187.32,983.28,181.7,987.79,176,992.8Zm-25.29-7.46-.6,1.42c.29.08.69.31.84.2a1.34,1.34,0,0,0,.48-.91C151.46,985.86,151.06,985.65,150.73,985.34Z"/><path class="cls-6" d="M176,992.8c1.41,5.08,2.85,9.83,4,14.65,1.39,5.59-.66,10.17-4.88,13.74-8.88,7.52-19.05,11-30.77,9.39a44.23,44.23,0,0,0-6.61-.33c-2.57,0-4,1.49-4.49,4-2,11-9.83,17-19.09,21.26-8.6,3.93-17.91,4.11-27.17,2.6a28.66,28.66,0,0,1-14.86-6.9c-4-3.57-8.3-6.77-12.14-10.47a9.65,9.65,0,0,0-8.43-3,46.52,46.52,0,0,1-18.11-1.24c-3.78-1-7.26-2.48-10.05-5.46a14.87,14.87,0,0,0-4.89-3.51,16,16,0,0,1-8.12-7.93c-2.26-4.41-4.87-8.7-6.6-13.31C1,998.67,1.15,991.08,6.12,984.14c2.79-3.91,3-7.48-.09-11.6-2.17-2.88-3.52-6.49-4.74-9.95-2-5.66-1.86-11.45,1.77-16.41,4.27-5.84,9.11-11.22,17.36-11.1a20.55,20.55,0,0,0,3.28-.46c5.62-.83,6.78-2.07,6.82-7.82,0-4.79-.07-9.59-.2-14.38-.19-6.54,2.85-10.59,8.88-13.09,6.44-2.67,12.51-3.25,19.22-.64s13.71,4.23,20.64,6.09c3.57,1,5.1-.15,6.81-3.74,4.5-9.42,9.84-15.5,23.72-12.83,4.84.93,9.93.52,14.77,1.42,13.36,2.48,25.88,6.53,32.13,20.36,1.67,3.7,3.37,7.38,5,11.07,1.86,4.09,2.42,4.15,6.73,3.74a162,162,0,0,1,16.49-.68c1.86,0,3.79,1.06,5.55,1.93,3.46,1.71,6.84,3.62,10.24,5.46,11.08,6,13.11,21.45,3.84,29.92a21.44,21.44,0,0,0-4.28,6.19,44.86,44.86,0,0,1-7.73,10.6C187.32,983.28,181.7,987.79,176,992.8Zm-52.21,20.76.17,1.12c4.34-.72,8.82-1,13-2.26,7.91-2.47,10.62-6.53,10.78-14.68,0-1.11,0-2.22,0-3.32.11-6.76,2.15-12.53,7.56-17.08,4.21-3.56,7.92-7.72,11.87-11.6s5.27-8.79,5.89-14-.28-6-5.31-7.08a79.09,79.09,0,0,1-10.61-2.86,81.41,81.41,0,0,1-9.41-4.43c-4.4-2.28-9.3-4-12-8.54-3-5-5.62-10.23-8.45-15.34-1.5-2.69-2.74-3.2-5.31-1.32a45.1,45.1,0,0,0-6.21,6.15c-1.87,2-3.17,5.06-5.43,6.11-7.12,3.3-14.62,5.13-22.39,1.74-4.39-1.92-8.72-4-13.23-5.6-6.17-2.13-11.63.89-14.17,6.94-1.59,3.78-1.4,7.55-1.09,11.42.26,3.23.12,6.56-2.66,8.6-3.1,2.27-5.8,5.79-10.54,4.58-5.66-1.46-9,1.39-11.44,6.16a52.64,52.64,0,0,1-3.15,4.54c-3.24,4.87-2.94,7.7,1.18,11.68a60.37,60.37,0,0,1,4.41,4.19c1.88,2.23,4,4.44,5.15,7,2.62,6,1,11.83-2.13,17.35a34.19,34.19,0,0,0-3.77,7.92c-1.19,4.47.65,6.91,5.27,7.72,3.82.67,7.69,1,11.5,1.64,10.1,1.76,19.8,4.09,26.55,13,3.24,4.29,5.84,4.26,10.63,1.6,1.61-.89,3.2-2.7,4.74-2.63,3.48.15,4.43-2,5.41-4.42a46.8,46.8,0,0,0,2-5.17c1.14-4.28,4.28-6.47,8.17-7.36C115,1014.45,119.45,1014.15,123.81,1013.56Zm26.92-28.22-.6,1.42c.29.08.69.31.84.2a1.34,1.34,0,0,0,.48-.91C151.46,985.86,151.06,985.65,150.73,985.34Z"/><path class="cls-7" d="M117.71,935.1a31.86,31.86,0,0,1-3,2c-5.18,2.68-10.66,4.89-15.51,8.07-4.05,2.65-7.37,6.4-11,9.67a1.64,1.64,0,0,0-.59.91c-.46,5.33-3.57,9.1-7.16,12.68a6.6,6.6,0,0,0-1.71,3.4c-.9,5.45-2,10.9-2.29,16.39-.36,7.33,4.7,11.7,11.89,10.93a14.58,14.58,0,0,0,4.87-.91c9.19-4.66,18.79-8.68,26.46-15.85a31.09,31.09,0,0,0,8.27-12.93c.3-.86.84-1.85.65-2.63-.38-1.52-.84-3.58-2-4.19-.94-.53-3.23.25-4.23,1.18-3.87,3.62-7.46,7.53-11.15,11.33-2.18,2.25-4.13,4.55-8,3.92-1.48-.24-3.4,1.11-4.86,2.11-2.51,1.73-4.82,3.74-7.57,5.91-.61-1.24-1.3-2-1.15-2.44,1.84-5.74,3.79-11.44,5.74-17.15.17-.52.74-1,.71-1.48-.36-5.48,4-7.25,7.41-10,5.07-4,10-8.14,16.11-10.58,3.12-1.25,6-2.68,9.48-.91,1.09.56,2.84-.07,4.26-.3,5.43-.88,10.71-.57,15.51,2.37,5.7,3.49,7,9.57,5.07,17-3.71,14.14-13.16,23.62-24.53,31.68q-9,6.38-18.26,12.39c-9.42,6.13-19.8,7.54-30.78,6.08-4.6-.62-9.08-1.42-13.2-3.71-3.94-2.19-7.32-4.88-9.44-9-1.25-2.45-2.76-4.77-4.23-7.1-4.49-7.1-3.91-16.48,1.73-23.84,3.13-4.08,6.43-8,9.86-11.87,8.07-9,18.33-14.61,29.19-19.5a56.57,56.57,0,0,1,20.7-5.32,11.38,11.38,0,0,1,2.42.38C117.53,934.27,117.62,934.68,117.71,935.1Z"/><path class="cls-6" d="M99.64,1024.57l-.76,2.1-.58-.23.87-2Z"/></g></g></g></svg>