<svg version="1.1" id="Layer_1" x="0" y="0" viewBox="0 0 4247 2151" xml:space="preserve"><style>.st4{fill:#dbbe7d}</style><switch><g><path class="st4" d="M2318.15 639.28c4.48-8.34 9.31-16.52 13.39-25.06 15.76-33.07 34.75-63.99 61.53-89.3 15.73-14.87 35.27-24.3 56.92-23.52 20.9.76 36.53 12.59 45.83 32.13 9.9 20.8 12.69 43.03 13.94 65.54.8 14.34.41 28.74.66 43.12.1 5.43.09 11.01.59 16.44 4.74-4.66 8.58-11.95 11.85-17.71 23.94-42.2 51.1-82.12 83.96-117.96 19.26-21.01 41.54-37.92 68.25-48.43 14.02-5.52 28.55-7.72 43.55-4.85 25.09 4.8 39.4 23.25 38.14 48.99-.28 5.74-.13 11.52-.78 17.21-1.35 11.9 1.96 21.13 9.34 31.43 14.62 20.42 14.73 44.91 11.23 69.1-7.42 51.27-31.27 95.76-57.22 139.54-14.32 24.16-26.97 49.3-40.39 73.99-.68 1.26-1.32 2.58-2.22 3.68-16.95 20.53-25.71 45.5-37.34 68.9-7.19 14.47-14.23 29.03-21.01 43.7-1.53 3.32-1.73 7.25-2.92 12.6 22.12-4.13 39.69-14.08 55.33-27.53 23.92-20.58 45.64-43.39 65.14-68.18 31.58-40.15 64.71-79.12 92.35-122.3 8.63-13.48 11.88-27.65 13.77-43.09 3.36-27.49 7.19-55 12.5-82.17 5.04-25.79 15.26-50.09 26.47-73.82 8.49-17.95 18.78-35.07 37.34-44.12 8.25-4.02 18.18-6.23 27.34-6.22 6.55.01 10.52-1.84 15.19-5.52 12.64-9.97 25.62-17.4 43.08-10.24 12.73 5.22 19.3 12.55 22.11 26.4 5.55 27.35-.14 53.42-8.57 78.87-9.44 28.49-20.86 56.32-31.16 84.54-10.81 29.62-20.68 59.61-32.19 88.95-8.19 20.87-19.28 40.61-27.42 61.5-5.32 13.68-8.15 28.41-11.17 42.87-1.8 8.61-2.65 17.61-2.37 26.39.2 6.37 2.04 13.13 4.97 18.76 1.38 2.65 7.96 5.23 10.6 4.11 9.5-4.02 20.11-7.89 27.06-14.98 17.34-17.71 33.05-37.04 49.11-55.99 7.08-8.35 14.2-16.86 19.86-26.18 6.15-10.12 11.07-21.07 15.78-31.98 16.87-39.07 32.07-78.93 50.4-117.29 27.29-57.11 58.14-112.37 99.73-160.68 9.64-11.21 20.37-21.79 31.96-30.95 24.25-19.16 58.51-13.18 77.38 12.25 14.8 19.94 25.27 41.72 29.35 66.4.68 4.1 2.15 8.07 4.14 15.32 7.48-11.07 14.31-19.4 19.18-28.76 10.11-19.42 24.75-35.29 39.41-50.92 11.74-12.5 25.6-23.04 38.69-34.24 19.6-16.78 43.74-23.32 68.14-27.97 27.93-5.32 46.45 10.98 62.44 30.94 2.66 3.32 5.01 7.21 6.38 11.21 4.32 12.69 11.76 20.94 24.03 28.08 11.81 6.87 21.06 19.47 29.08 31.16 11.08 16.14 21.02 33.6 23 53.61 2.2 22.3 3.73 44.76 3.82 67.16.21 51.63-14.88 99.51-41.42 143.16-18.15 29.85-40.13 57.34-59.94 86.2-18.11 26.38-35.55 53.21-53.39 79.78-13.8 20.55-28.04 40.82-41.55 61.55-11.01 16.89-21.08 34.75-24 54.81-3.82 26.22 10.11 45.52 40.62 45.11 25.72-.35 45.26-12.42 65.63-25.37 25.86-16.43 47.04-39.3 75.14-52.63 29.87-14.18 59.36-28.68 93.09-31.82 6.59-.61 12.96-5.49 19.06-9.04 14.52-8.47 28.4-18.13 43.3-25.84 18.16-9.4 38.32-10.83 58.35-9.82 22.01 1.1 41.66 9.75 60.34 21.1 4.39 2.67 7.73 5.23 4.56 9.62-1.38 1.9-6.82 2.16-9.91 1.3-16.34-4.54-32.28-10.92-48.84-14.14-10.48-2.04-22.03-.89-32.71.99-16.95 2.98-33.58 7.82-47.73 18.45-1.02.77-1.47 2.3-2.7 4.33 10.15 2.38 19.66 5.18 29.36 6.79 26.24 4.35 51.01 12.01 73.53 26.89 12.33 8.14 26.36 13.68 39.07 21.3 6.45 3.87 12.15 9.33 17.21 14.96 1.87 2.08.92 6.71 1.25 10.17-3.44.24-7.34 1.66-10.22.51-12.38-4.94-24.16-11.46-36.7-15.89-32.67-11.53-66.4-9.7-99.26-2.64-16.79 3.61-33.21 12.34-47.88 21.74-26.93 17.27-52.57 36.59-78.51 55.39-16.51 11.97-32.31 24.92-48.93 36.73-28.14 19.98-58.63 32.79-93.94 35.6-29.92 2.38-58.81.65-85.49-12.25-17.43-8.43-33.71-20.4-48.19-33.37-11.73-10.51-16.86-26.18-17.54-42.45-.54-12.87-.08-25.82-1.3-38.62-1.26-13.26-4.04-26.38-6.07-39.58-.65-4.2-1.68-8.48-1.42-12.66 2.45-38.54 6.34-77.08 20.73-113.17 10.54-26.45 24.18-51.69 36.85-77.27 8.27-16.71 17.3-33.04 25.91-49.59 11.02-21.18 22.93-41.96 32.68-63.71 11.33-25.28 22.02-51.01 30.48-77.35 4.56-14.21 4.62-30.06 5.36-45.24.6-12.37-3.33-23.54-15.08-30.31-13.28-7.65-24.34.02-34.8 6.09-22.4 13.02-38.36 33.14-52.75 53.91-13.57 19.59-24.39 41.06-36.94 61.39-21.07 34.14-37.25 70.27-45.34 109.7-6.69 32.63-20.75 62.67-32.21 93.63-5.99 16.19-11.09 32.76-17.99 48.54-10.7 24.46-20.74 49.52-34.43 72.29-19.18 31.89-47.08 55.4-82.17 68.95-17.32 6.69-34.99 3.99-51.45-3.87-11.86-5.67-17.5-16.33-17.53-29.26-.04-19.26-3.15-37.87-7.16-56.71-2.7-12.67-1.89-27.06 1.18-39.75 4.58-18.95 11.95-37.11 24.9-52.77 22.85-27.65 44.69-56.14 66.93-84.3 17.77-22.51 35.55-45.02 53.19-67.63 1.63-2.09 2.34-4.91 3.47-7.39 4.94-10.86 10.82-21.41 14.58-32.67 5.71-17.1 11.16-34.46 14.47-52.14 3.42-18.21 6.43-36.87 1.45-55.51-1.11-4.15-1.49-8.61-3.24-12.45-4.43-9.71-12.01-10.98-19.11-3.13-9.57 10.59-19.65 20.92-27.74 32.59-6.94 10.02-10.68 22.19-17.08 32.65-15.84 25.9-24.25 55.02-36.7 82.37-14.06 30.91-26.48 62.69-42.33 92.65-12.62 23.86-28.22 46.21-46.94 66.31-11.32 12.15-22.28 24.38-34.55 35.7-8.42 7.76-11.87 20.63-19.05 30.06-19.01 24.95-40.4 47.42-70.24 59.84-18.03 7.5-35.13 7.91-51.22-5.1-6.61-5.34-13.95-9.77-22.7-15.82 0 6.44-.45 11.9.08 17.25 2.18 21.92 5.35 43.76 6.86 65.72 2.14 30.99 3.14 62.07 4.6 93.11.07 1.43-.42 2.95-.11 4.3 5.41 23.33 1.16 46.88.29 70.13-1.27 33.9-5.37 67.77-9.8 101.45-3.3 25.1-10.38 49.72-13.35 74.84-3.68 31.19-13.04 60.66-22.76 90.15-6.45 19.55-16.56 37.3-28.47 53.95-3.77 5.27-8.2 10.19-16.31 10.07-11.92-.18-13.79-2.51-8-13.34 3.13-5.85 6.87-11.37 10.18-17.13 14.42-25.1 21.26-52.93 27.84-80.65 9.05-38.1 18.19-76.27 24.75-114.84 4.94-29.06 6.13-58.78 8.55-88.24 1.48-17.99 3.42-36.08 2.9-54.06-1.26-43.97-3.59-87.91-5.93-131.83-1.78-33.43-3.14-66.94-6.68-100.21-4.88-46.01-3-91.81.31-137.7.19-2.66-.65-5.39-1.37-10.86-4.18 4.64-7.33 7.27-9.41 10.57-31.06 49.42-62.32 98.72-92.69 148.56-7.08 11.62-11.08 25.13-16.43 37.8-5.35 12.68-10.57 25.41-15.93 38.08-7.54 17.83-14.12 35.77-18.79 54.79-6.59 26.81-16.95 52.69-25.57 79.01-1.16 3.55-1.58 7.33-2.35 11.01-5.82 27.65-11.12 55.45-27.5 79.49-7.93 11.64-18.36 20.12-32.27 21.88-16.66 2.11-34.68-14.9-36.75-33.49-3.46-31.08-1.67-62.15.78-93.21 1.82-23.08-4.7-43.57-20.36-60.83-3.19-3.51-6.78-6.8-10.66-9.52-25.75-18.03-34.18-43.56-32.27-73.64 1.97-30.97 9.66-60.28 23.59-88.19 9.6-19.24 16.87-39.64 26.18-59.04 14.24-29.65 29.45-58.84 44.02-88.33 5.57-11.28 10.84-22.73 15.73-34.32 13.4-31.78 24.44-64.78 40.37-95.22 15.31-29.26 23.65-60.55 34.05-91.27 3.39-10.02 3.35-21.65 2.79-32.43-.71-13.75-10.34-18.04-20.42-9.06-13.17 11.73-26.28 23.93-37.26 37.64-16.99 21.2-32.32 43.75-48 65.98-4.67 6.62-7.98 14.19-12.19 21.16-15.52 25.68-29.11 52.39-41.92 79.48-3.45 7.31-5.88 15.22-7.88 23.08-7.77 30.51-15.22 61.1-22.71 91.68-4.43 18.09-7.91 36.45-13.26 54.26-10.45 34.78-30.06 64.66-52.95 92.36-12.33 14.92-29.54 19.92-47.99 16.44-13.94-2.63-24.99-11.5-26.5-26.68-1.07-10.73-.76-22.21 1.92-32.58 6.09-23.57 13.69-46.78 21.3-69.93 7.75-23.54 15.82-46.99 24.55-70.18 8.91-23.66 19.37-46.74 28.13-70.45 15.46-41.85 27.22-84.89 33.85-128.94 2.03-13.49-1.97-28.61-6.11-42.09-3.65-11.92-14.72-14.7-25.74-7.94-7.23 4.43-13.75 10.43-19.59 16.66-18.65 19.89-33.65 42.16-44.36 67.46-7.35 17.36-16.56 33.93-24.73 50.96-17.55 36.55-24.88 75.82-30.84 115.51-3.13 20.84-5.74 41.96-11.31 62.19-7.04 25.54-10.51 52.03-20.33 76.82-6.56 16.56-14.7 32.23-27.22 45.06-2.73 2.79-7.47 4.69-11.43 4.98-7.42.55-9.61 4.71-10.78 11.01-6.02 32.38-11.65 64.85-18.53 97.05-6.19 28.95-13.96 57.56-20.77 86.37-6.25 26.45-12.37 52.93-18.16 79.48-6.12 28.03-10.83 56.41-18 84.17-5.3 20.52-7.87 41.46-12.58 62.04-6.16 26.89-10.9 54.11-16.01 81.24-3.18 16.91-6.41 33.84-8.75 50.87-4.33 31.47-8.42 62.99-11.83 94.58-2.2 20.41-3.68 40.95-4.28 61.47-.57 19.47-.71 39.08.99 58.45 3.13 35.6 5.91 71.29 15.99 105.94 7.87 27.04 14.83 54.35 21.73 81.66.9 3.56.14 8.78-2.03 11.44-1.52 1.86-6.94 1.44-10.32.71-13.12-2.83-16.9-15.02-21.88-24.73-14.54-28.35-23.08-58.68-26.42-90.49-2.4-22.87-7.2-45.59-8.01-68.49-1-28.53.42-57.2 1.9-85.76 1.28-24.75 3.02-49.58 6.53-74.1 3.59-25.02 9.59-49.7 14.54-74.53 6.54-32.82 12.96-65.67 19.71-98.44 2.02-9.84 5.18-19.43 7.41-29.23 6.58-28.91 12.98-57.87 19.4-86.81 8.58-38.65 17.2-77.29 25.64-115.97 4.78-21.89 9.23-43.85 13.84-65.77 2.75-13.08 5.75-26.12 8.25-39.24 6.64-34.79 13.01-69.64 19.68-104.43 1.07-5.58 3.13-10.97 4.61-16.49.23-.85-.03-1.96-.38-2.82-2.68-6.64-5.43-13.24-8.87-21.59-4.61 4.62-8.67 8.4-12.39 12.48-9.15 10.03-20.25 12.28-32.71 8.09-12.75-4.29-16.64-14.55-17.66-26.92-2.05-25.01 6.68-47.03 17.91-68.54 11.91-22.8 22.35-46.47 35.56-68.47 18.45-30.73 29.36-64.29 39.6-98.03 8.6-28.33 14.34-57.53 21.27-86.37.29-1.23-.23-2.65-.67-6.84-5.61 7.95-10.31 13.73-14.03 20.07-14.66 25.01-28.72 50.37-43.59 75.25-10.51 17.58-21.9 34.65-33.05 51.85-16.92 26.09-34.57 51.73-50.85 78.21-23 37.41-51.69 69.82-85.56 97.34-13.22 10.74-28.79 19.06-44.27 26.42-31 14.72-60.51 6.58-86.35-12.19-10.45-7.59-20.56-11.88-32.36-12.88-17.15-1.46-31.4-9.13-43.8-19.78-12.11-10.4-22.63-22.63-34.56-34.77-7.97 12.3-17.11 24.41-24.13 37.65-13.46 25.39-32.41 45.62-58.41 56.76-18.42 7.9-25.06 22.74-31.69 38.44-8.35 19.81-16.89 39.72-22.83 60.32-8.86 30.74-16.2 61.97-22.88 93.26-4.38 20.55-7.44 41.51-9.25 62.45-1.44 16.57.07 33.39.01 50.09-.12 36.1-1.26 71.92-19.08 104.95-6.11 11.33-13.37 20.39-25.06 26.5-16.97 8.88-33.02 3.42-40.92-14.42-8.41-19-8.41-39.04-9.1-59.17-1.3-37.76 7.88-74.26 12.74-111.28 6.11-46.56 12.02-93.05 6.54-140.19-.65-5.58-3.48-6.99-7.24-9.16-8.22-4.74-16.27-9.79-24.34-14.78-2.44-1.51-4.52-3.96-7.14-4.73-24.53-7.2-34.31-25.83-40.21-48.78-6.67-25.97-4.18-51.53 1.81-76.76 3.82-16.11 10.81-31.47 16.3-47.2 1.67-4.8 3.8-10.18 4.58-15.21-3.92 2.09-5.8 6.07-8.42 9.4-3.43 4.37-7.38 8.32-10.81 12.7-17.2 21.9-38.19 39.28-63.77 50.11-25.18 10.66-51.58 13.59-78.55 6.82-.46-.12-.88-.44-1.34-.52-51.42-9.32-69.85-48.67-78.94-92.49-5.6-27.03-5.37-55.93 3.07-83.48 8.96-29.27 16.66-59.01 27.23-87.7 17.26-46.82 44.9-87.07 79.48-123.35 23.41-24.56 48.91-45.28 78.65-61.18 3.33-1.78 6.35-4.39 9.02-7.11 11.02-11.21 21.5-22.98 32.84-33.85 12.54-12.03 26.7-21.8 43.9-26.24 8.57-2.21 16.69.42 19.94 2.08 18.15-8.78 41.91-16.28 61.42-8.79 30.18 11.58 36.3 46.67 38.5 53.45 6.31-8.9 11.43-15.63 16.04-22.7 18.45-28.25 41.93-50.83 72.99-64.77 15.5-6.96 31.26-12.01 48.61-6.22 14.35 4.79 26.91 19.59 27.97 34.6 1.85 26.39-4.61 51.31-13.97 75.65-13.92 36.21-31.11 70.82-52.1 103.45-28.22 43.87-56.99 87.4-85.13 131.32-11.62 18.13-23.69 36.2-32.86 55.58-7.47 15.79-11.65 33.3-15.92 50.39-3.93 15.73-6.62 31.85-8.67 47.95-1 7.88-.67 16.49 1.48 24.08 3.54 12.49 8.52 25.84 23.37 28.33 16.94 2.84 32.41-1.45 43.51-16.1 12.74-16.81 24.87-34.14 38.52-50.17 17.55-20.6 28.79-45.25 44.51-66.74 11.58-15.83 12.67-31.52 13.08-49.52 1.03-45.31 9.91-89.04 30.6-130.01 8.82-17.47 14.25-36.81 24.18-53.54 27.87-46.96 59.99-90.17 112.33-113.29 18.25-8.06 37.64-10.53 56.82-14.42 10.64-2.16 21.29-4.54 31.62-7.82 14.82-4.72 29.23-8.27 44.42-.98 3.27 1.57 8.3.44 12.23-.56 6.92-1.75 13.5-4.8 20.42-6.52 20.65-5.12 38.03 3.58 46 23.19 2.49 6.12 4.8 12.75 5.05 19.24.45 11.44 4.06 21.38 9.61 31.16 20.6 36.29 23.87 74.67 10.4 113.76-4.91 14.24-13.51 27.46-21.89 40.18-7.84 11.92-17.1 23.03-26.64 33.68-24.17 26.98-53.92 46.31-88.34 56.76-14.99 4.55-25.86 14.37-38.45 21.78-27.09 15.94-52.7 18.56-78.73-1.43-7.89-6.06-10.69-5.34-12.27 4.53-3.78 23.65-5.74 47.56 1.25 71.02 3.78 12.67 26.42 25.16 41.15 23.33 42.33-5.27 79.46-22.54 112.75-48.84 10.46-8.26 21.69-15.54 32.42-23.47 16.58-12.24 31.38-26.28 43.92-42.76 19.98-26.26 42.14-51.06 60.08-78.63 24.22-37.23 38.7-78.36 41.71-123.59 2.42-36.29 8.37-72.34 12.59-108.52 1.89-16.19 10.13-29.33 21.84-39.34 22.88-19.56 51.65-6.75 61.88 16.37 5.33 12.06 7.9 25.51 10.5 38.57 7.85 39.53 2.23 79.06-1.72 118.55.93.27 1.89.57 2.84.87zm1115.98 194.48c2.72-.4 4.47-3.01 5.87-5.37 4.9-8.26 49.22-91.81 60.59-114.94 21.18-43.08 38.96-87.16 50.33-133.92 4.87-20.03 4.58-39.65 2.29-59.7-.87-7.58-4.93-11.32-11.87-11.83-9.95-.73-20.23-2.3-29.87-.63-9.34 1.62-20.33 1.95-26.36 9.07 8.16 5.18 17.38 8.07 21.61 14.33 7.84 11.62 11.78 25.43 12.32 39.93 1.09 29.38-1.81 58.07-10.56 86.38-10.6 34.33-22.79 67.97-39.07 99.97-8.55 16.82-17.31 33.73-25.13 50.79-2.2 4.8-4.4 9.59-6.6 14.39-1.67 3.68-3.39 7.48-3.55 11.53zM2222.11 661.87c9.33-9.96 16.18-23.52 22.78-35.38 2.91-5.24 5.15-11.55 5.36-17.46.62-17.55.18-35.14-.1-52.71-.04-2.57-1.48-5.13-2.27-7.69-4.73 5.76-7.27 11.75-8.52 18-3.37 16.8-6.61 33.63-9.77 50.47-1.53 8.16-2.81 16.41-4.59 24.53-1.5 6.88-.93 14.04-3.42 20.81.18-.2.35-.39.53-.57zm395.77-96.41c1.29-1.23 2.55-2.49 3.69-3.87.75-.9 1.51-2.04 1.16-3.16-2.74 1.01-5.07 2.88-7.35 4.71-1.89 1.52-20.5 17.86-23.3 21.07-3.03 3.48-6.05 6.97-9.06 10.48-6.02 7.01-11.99 14.05-17.98 21.08-11.86 13.91-23.78 27.76-36.21 41.16-17.85 19.25-19.53 41.83-19.05 65.88 11.35-17.14 21.14-35.07 32.07-52.28 13.26-20.88 27.13-41.4 41.42-61.59 6.11-8.63 12.57-17 19.09-25.33 3.19-4.08 13.51-16.24 15.52-18.15zm95.38 198.57c18.75-29.07 34.04-59.73 42.72-93.39 5.72-22.18 13.79-44.05 11.46-67.49-1.21-12.13-1.84-24.9-15.33-36.14-2.74 19.69-7.88 36.8-6.75 53.48 1.39 20.63-1.49 40.1-6.54 59.52-6.7 25.78-14.57 51.22-26.46 75.23-1 2.02-.75 4.66-1.08 7.01-.67 1.86-1.35 3.72-2.02 5.58 1.34-1.26 2.67-2.53 4-3.8zm-502.16 135.7c-.13 2.29-.22 4.58-.28 6.86 3-.65 4.45-3.99 5.44-6.89 6.84-20.06 13.49-40.2 20.43-60.19 3.47-10.01 6.61-20.14 9.43-30.36 2.58-9.37 7.5-21.24 7.5-30.98 4.89-23.3 11.08-46.34 15.58-69.72 5.41-28.07 10.73-56.25 14.02-84.62 2.41-20.79 1.53-41.96 2.06-62.96.63-24.85-.82-49.52-6.89-73.73-4.19-16.71-13.06-19.86-26.76-9.57-2.6 1.96-4.74 4.66-6.71 7.31-12.93 17.34-12.82 38.19-15.26 58.58 4.72-5.95 7.52-12.97 11.93-18.78 2.83-3.73 8.69-8.52 11.98-7.73 4.6 1.1 8.44 6.65 11.86 10.89 1.63 2.03 1.95 5.41 2.18 8.24 2.31 28.94 5.7 57.74.7 86.9-10.25 59.8-23.85 118.85-39.09 177.5-8.29 31.82-16.31 66.21-18.12 99.25zm-667.22-243.91c1.22-22.47-3.57-39.44-9.61-56.22-4.59-12.77-14.2-19.77-26.26-24.76-8.07-3.34-13.13-2.23-17.62 5.77-11.7 20.87-24.4 41.18-36.1 62.04-12.39 22.1-24.7 44.29-35.98 66.97-23.6 47.48-32.33 98.74-36.47 150.98-.37 4.61.56 9.68 2.21 14.03 7.38 19.54 19.69 23.01 34.52 8.3 16.6-16.48 32.86-33.59 47.05-52.13 19.09-24.95 36.03-51.54 53.96-77.38 8.85-12.76 15.42-26.51 17.52-41.98 2.69-19.93 4.88-39.94 6.78-55.62zm83.89 443.49c-.6-.29-1.21-.57-1.81-.86-8.78 7.74-17.33 15.78-26.41 23.16-14.6 11.87-30.76 20.82-49.59 24.08-9.2 1.59-9.42 3.14-9.03 12.23 1.19 27.94 2.72 55.95 1.84 83.86-.6 19-5.3 37.84-7.69 56.81-3.58 28.41-6.78 56.88-10.08 85.33-3.12 26.84-2.77 30.52 5.3 56.5 1.24 4.01 1.98 8.46 4.28 11.79 6.3 9.1 9.85 9.57 16.38 1.05 6.04-7.87 11.78-16.46 15.36-25.63 10.42-26.64 12.09-54.85 11.43-83.07-.73-31.21 1.24-62.27 6.56-92.86 7.47-42.92 18.69-84.99 35.32-125.47 3.55-8.62 5.47-17.93 8.14-26.92zm432.18-520.57c0-2.39.01-4.77 0-7.16-.08-16.12-6.84-21.17-21.54-15.59-5.76 2.19-11.98 4.49-16.44 8.48-10.26 9.18-20.57 18.64-29.07 29.4-18.21 23.04-36.45 46.21-48.3 73.52-1.51 3.47-3.72 6.66-5.79 9.86-9.53 14.81-18.88 29.84-22.72 47.2-1.2 5.44-.29 12.76 2.58 17.43 8.15 13.28 30.84 18.75 44.22 11.01 6.86-3.97 13.53-9.1 18.69-15.08 24.05-27.89 45.77-57.4 59.82-91.86 8.83-21.67 18.74-43.03 18.55-67.21zm485.21 575.5c1.74 3.93 3.46 7.84 5.21 11.74 7.69 17.16 12.48 34.43 9.2 53.87-2.68 15.89-3.44 32.33-2.95 48.47.34 11.24 2.79 22.93 6.86 33.42 5.95 15.32 20.51 17.12 29.85 3.51 7.46-10.86 12.82-23.4 17.64-35.76 4.31-11.05 6.44-22.94 9.82-34.38 7.56-25.6 14.7-51.36 23.15-76.67 7.1-21.26 9.81-43.92 21.24-63.88 4.29-7.49 5.88-16.53 8.71-24.87-.95-.58-1.9-1.17-2.86-1.75-7.11 7.48-14.06 15.11-21.35 22.4-19.69 19.67-40.04 38.66-65.94 49.99-12.08 5.29-24.84 9.02-38.58 13.91zm822.02-61.8c1.22-3.21 2.15-4.84 2.44-6.58 4.33-25.47 12.92-49.53 21.44-73.91 13.06-37.36 34.48-69.94 53.07-104.15 11.35-20.88 24.29-40.9 36.53-61.3 2.21-3.69 4.33-7.44 6.74-11 19.34-28.5 39.24-56.65 57.98-85.54 13.69-21.1 6.78-42.26-2.57-63.24-6.61 9.19-11.53 18.76-16.82 28.13-13.82 24.51-27.53 49.09-41.8 73.34-15.67 26.63-32.75 52.46-47.65 79.5-14.71 26.69-27.31 54.53-41.1 81.73-17.87 35.25-30.33 72.15-35.52 111.45-1.43 10.75-1.46 20.9 7.26 31.57zm294.22-18.96c-1.29-1.94-2.58-3.87-3.87-5.81-15.41 7.19-31.34 13.45-46.11 21.78-20.71 11.69-40.58 24.88-60.77 37.49-9.27 5.79-18.07 12.43-27.74 17.42-11.45 5.91-23.34 11.24-35.52 15.41-21.42 7.34-43.13 13.3-65.76 3.67-7.34-3.12-15.17-5.29-22.96-7.05-2.05-.46-6.87 2.16-6.93 3.54-.71 14.7.84 30.04 12.89 39.4 15.38 11.95 33.96 18 53.9 14.75 43.84-7.15 80.3-29.7 113.37-57.72 20.78-17.61 39.43-37.71 59.31-56.4 9.74-9.16 20.1-17.67 30.19-26.48zM1842.82 964.17c-3.59-26.26-6.17-52-3.37-78.2 3.93-36.69 7.35-73.39 20.02-108.44 12.01-33.21 23.95-66.12 41.31-97.4 9.87-17.78 19.55-35.49 30.55-52.32 8.46-12.95 34.96-46.95 39.85-54.66-5.89 1.54-40.7 29.79-55.02 43.74-8 7.79-15.59 16.19-22.27 25.13-8.21 10.98-14.76 23.21-22.98 34.19-11.26 15.04-20.89 30.75-26.46 48.81-6.03 19.57-12.71 38.95-18.35 58.62-4.71 16.41-10.02 32.93-12.07 49.76-4.07 33.47-2.33 67.12 7.97 99.36 3.68 11.53 8.65 24.15 20.82 31.41zM1918 798.79c.12.72 31.15 8.99 54.14 1.82 23-7.17 39.35-28.25 48.25-40.43 32.55-44.55 59.84-92.16 77.46-144.72 4.07-12.15 6.78-24.97 8.39-37.7 2.25-17.7-9.87-30.94-27.85-32.67-5.49-.53-6.95 1.41-5.62 6.54 1.2 4.62 2.41 9.3 2.9 14.03 2.14 20.99-3.72 40.3-10.88 59.89-21.82 59.73-55.23 113.68-106.98 151.56-12.54 9.18-26.63 17.25-39.81 21.68zm1004.33 2.75c.83.27 1.67.54 2.5.81 3.37-7.69 7.14-15.23 10.03-23.09 12.9-35.04 24.6-70.55 38.62-105.12 8.6-21.2 14.53-42.2 14.73-65.24.21-23.74-5.98-45.38-17.04-65.9-5.15-9.56-8.59-9.91-15.66-1.28-10.77 13.14-22.78 25.78-30.84 40.51-12.74 23.29-23.38 47.83-33.57 72.39-14.15 34.1-22.99 69.77-27.74 106.41-.26 1.97.26 4.04.45 6.54 13.39-6.72 15.29-9.57 21.44-27.51 7.6-22.18 14.6-44.64 23.63-66.23 9.41-22.52 21.38-43.88 38.37-61.89 5.59-5.92 12.09-9.77 20.48-6.66 6.95 2.57 10.57 12.01 10.35 21.73-.5 22.52-10.19 42.48-17.31 63.04-11.56 33.38-24.52 66.28-36.66 99.47-1.34 3.73-1.22 8-1.78 12.02zm325.41-90.29c-.77-.06-1.62.48-1.99 1.21-1.31 2.63-2.03 6.27-3.19 9.11-1.51 3.7-3.01 7.4-4.51 11.11-2.94 7.26-5.87 14.53-8.84 21.78-5.71 13.94-11.57 27.82-17.93 41.48-13.25 28.44-27.97 56.24-43.15 83.7-14.78 26.73-30.76 52.81-46.61 78.94-18.07 29.8-31.58 61.28-33.91 96.35-.63 9.56 2.48 19.78 5.68 29.08 3.08 8.93 12.64 13.75 22.11 12.11 8.39-1.45 17.01-3.33 24.65-6.9 23.68-11.07 39.12-29.17 43.71-55.85-4.64 2.38-8.46 5.61-12.18 8.96-9.15 8.24-18.5 15.82-31.1 18.66-16.08 3.63-28.95-5.31-26.66-21.77 2.48-17.86 6.37-36.04 13.14-52.66 9.48-23.26 22.44-45.08 33.45-67.73 18.56-38.19 37.48-76.23 54.89-114.95 6.34-14.1 12.12-28.44 17.69-42.86 5.26-13.59 8.77-27.91 13.05-41.91l2.34-7.65c-.18-.12-.41-.19-.64-.21zM1941.53 527.36c-17.14 4.14-33.07 10.4-46.12 21.81-16.18 14.14-30.65 29.47-42.99 47.66-24.33 35.86-44.26 73.79-57.68 114.61-9.43 28.68-18.25 57.75-22.84 88.02-2.78 18.35-5.65 36.22-5.51 54.99.26 33.72 11.34 63.6 27.47 92.2 1.79 3.17 5.95 5 9.53 7.87.73-2.67 1.34-3.64 1.17-4.44-6.02-27.55-12.45-55.02-18.01-82.66-2.05-10.21-3.64-20.97-2.7-31.23 1.95-21.4 3.86-43.13 9.22-63.83 6.91-26.65 17.52-52.33 25.91-78.62 9.36-29.29 22.67-56.55 40.31-81.67 18.12-25.81 44.5-53.7 56.3-63.45 11.79-9.75 19.55-16.23 25.94-21.26zm710.22 13.21c5.99.98 9.59 1.53 13.17 2.16 7.72 1.36 13.78 5.87 15.91 12.98 2.23 7.45 3.21 15.64 2.89 23.43-1.1 26.6-9.42 51.8-17.92 76.61-14.54 42.48-26.61 85.92-47.07 126.27-5.31 10.47-8.27 22.12-12.31 33.23 3.9-1.33 5.65-3.53 6.98-5.95 12.24-22.2 23.59-44.93 36.77-66.55 23.67-38.84 42.86-79.72 60.98-121.38 12.85-29.54 7.58-54.83-9.8-79.46-2.6-3.69-6.82-7.67-10.93-8.58-12.68-2.79-25.2-1.7-38.67 7.24zm-108.11 418.24c-2.65 3.58-3.71 4.59-4.25 5.82-8.81 20.1-17.8 40.12-26.25 60.37-7.26 17.4-11.91 35.38-6.94 54.35 2.42 9.2 5.9 18.13 8.36 27.32 5.74 21.42 40.64 31.35 57.63 22.56 23.44-12.13 43.85-28.43 62.45-47.05 1.09-1.1 1.11-3.26 1.64-4.93-2.13-.27-5.39-1.55-6.21-.64-8.73 9.75-21.55 9.86-32.56 13.29-17.09 5.33-44.57-1.66-54.79-25.86-8.14-19.28-7.67-39.04-5.2-59.08 1.79-14.52 3.84-29.01 6.12-46.15zm789.88-311.95c-.28 1.43-.43 2.89-.44 4.36 5.21-2.35 10.15-9.94 13.62-14.29 4.57-5.72 8.79-11.71 13.29-17.48 9.2-11.77 18.28-23.62 26.81-35.88 17.75-25.51 39.5-46.92 64.7-64.32 14.2-9.8 30.84-16.64 47.21-22.53 11.35-4.08 24.09-4.45 36.25-6.12 10.04-1.38 11.56-4.01 6.03-12.58-1.78-2.76-4.2-5.28-6.77-7.35-14.14-11.4-30.12-12.8-47.44-9.36-18.18 3.62-31.45 15.5-43.5 27.44-34.71 34.41-65.87 72.04-90.92 114.17-3.09 5.19-5.75 10.63-8.21 16.14-1.5 3.34-2.94 6.56-4.15 9.98-2.12 5.96-5.25 11.56-6.48 17.82zm202.21 160.87c.34-1.46.98-4.51 1.04-4.57-9.11 8.79-15.66 20.51-22.84 30.93-7.6 11.04-15.09 22.16-21.97 33.67-22.02 36.87-43.04 74.35-63.97 111.86-22.1 39.59-38.35 81.14-40.16 127.23-.67 17.08.88 20.01 16.38 25.43 2.55.89 5.48.7 8.24 1.01-.29-3.07.15-6.47-1-9.17-6.28-14.65-7.15-30.08-4.1-45.13 4.55-22.48 12.68-44.01 23.81-64.14 21.51-38.91 43.98-77.3 64.97-116.48 12.32-22.99 22.75-47 33.6-70.75 1.96-4.28 3.13-8.84 4.34-13.37.51-1.93.9-3.92 1.48-5.82.04-.1.1-.35.18-.7zm-705.99-10.68c-3.05 2.4-5.18 3.5-6.49 5.22-11.98 15.61-23.48 31.58-35.75 46.96-30.09 37.73-61.26 74.57-96.8 107.33-9.31 8.59-20.21 15.84-31.33 21.99-11.55 6.39-24.19 10.84-36.47 15.86-10.78 4.4-12.66 9.92-6.31 19.96 5.27 8.34 13.75 10.56 26.75 5.69 19.46-7.29 35.79-19.78 51.77-32.71 22.18-17.94 38.82-40.75 55.69-63.36 11.64-15.59 23.47-31.05 34.61-46.98 12.6-18.01 24.03-36.85 36.99-54.58 5.49-7.52 7.29-14.97 7.34-25.38zm712.39 52.59c-1.26 3.52-2.55 7.41-2.21 7.91.35.53 1.15-.02 1.51-.54 16.61-24.24 31.08-50.67 44.25-76.95 8.04-16.04 14.47-33.18 19.26-50.49 5.48-19.78 8.32-40.29 12.34-60.47 7.88-39.62 3.12-78.22-10.2-115.88-4.56-12.9-13.12-21.6-24.85-28.19-.4 7.19-1.86 15.12-.53 22.22 1.33 7.14 3.58 12.53 7.16 18.81 10.29 15.47 14.66 32.91 16.27 51.13 2.28 25.84-4.01 50.34-12.54 74.34-7.66 21.54-18.52 42.31-23.2 64.43-4.96 23.45-11.2 46.29-18.7 68.93-2.11 6.37-4.3 12.72-6.48 19.07-.21.64-1.14 3.06-2.08 5.68zm285.91 210.4c.17-1.12.34-2.25.52-3.37-4.96-1.94-9.78-4.57-14.92-5.67-13.09-2.81-26.26-5.35-39.51-7.24-27.64-3.96-54.36-1.14-78.3 14.4-7.29 4.73-13.17 11.69-19.46 17.87-16.03 15.73-32.24 31.29-47.79 47.49-17.05 17.76-33.45 36.14-50.13 54.25.76.96 1.52 1.91 2.29 2.87 8.65-6.11 17.58-11.86 25.91-18.38 36.48-28.54 73.78-55.77 113.44-79.9 28.21-17.17 58.36-21.5 90.28-20.36 5.85.19 11.78-1.27 17.67-1.96zm-937.35-164.28c.8-.14 1.59-.28 2.39-.41 2.96-15.9 6.54-31.72 8.75-47.73 5.19-37.68 17.64-73.43 28.92-109.41 7.72-24.62 18.3-48.34 27.01-72.67 2.53-7.06 4.5-14.31 6.23-21.6 1.07-4.51 4.08-12.85-.14-16.63-.41-.37-.9-.69-1.45-.76-.64-.08-1.26.2-1.85.47-14.99 6.91-23.84 27.31-30.04 41.92-18.32 43.17-32.01 87.84-41.32 133.76-5.45 26.85-7.24 54.04-1.93 81.25.79 4.01 2.27 7.88 3.43 11.81zM1388.51 605.52c-1.13-.47-2.26-.94-3.38-1.42-65.82 42.91-135.71 186.22-133.77 269.04 11.41-27.26 23.62-57.84 36.98-87.91 12.6-28.37 25.15-56.85 45.24-81.19 5.35-6.48 9.3-14.24 13.15-21.79 10.85-21.25 19.74-43.54 35.2-62.25 3.26-3.94 4.44-9.61 6.58-14.48zm1846.11 194.76c-2.11 1.79-2.28 3.78-3.33 6.07-1.16 2.53-2.94 4.78-4.16 7.29-16.5 33.88-32.83 67.86-49.42 101.7-9.45 19.27-19.66 38.18-28.82 57.58-7.74 16.37-14.26 33.31-14.78 51.78-.1 3.49.21 8.65 2.33 10.08 2.2 1.49 7.16.14 10.34-1.27 15.89-7.08 24.9-20.73 30.58-36.12 7.77-21.06 14.45-42.55 20.74-64.11 6.63-22.73 13.1-45.51 19.53-68.31 3.18-11.27 6.35-22.55 9.52-33.83 1.59-5.64 3.17-11.28 4.77-16.91.7-2.51 2.72-13.96 2.7-13.95zm84.3-62.73c.2-.55 2.18-2.56 2.67-3.31 1.08-1.64 2.16-3.23 3.13-4.97 2.44-4.33 4.8-8.69 7.13-13.08 4.54-8.57 8.9-17.24 13.23-25.91 14.16-28.32 30.39-55.25 52.93-77.8 8.4-8.41 17.69-15.91 26.35-24.07 17.1-16.11 42.42-17.38 59.91-2.29 4.11 3.54 6.83 8.68 10.36 13.3 5.78-11.51 5.04-27.63 2.56-46.4-2.08-15.74-13.17-24-31.71-16.26-10.76 4.49-21.36 10.71-30.12 18.35-14.29 12.47-27.75 26.1-40.23 40.4-17.52 20.09-34.13 41.01-50.49 62.07-5.79 7.44-11.32 15.82-14.14 24.67-2.91 9.11-4.82 18.5-6.62 27.88-.92 4.77-2.36 9.58-2.81 14.42-.23 2.54-1.46 11.1-2.15 13zM1716.03 600.01c.7-.92 1.34-1.89 1.81-3.09.51-1.32.46-5.44 1.18-6.26-30.16 34.34-56.58 72.31-84.2 108.73-4.05 5.34-8.46 10.56-11.61 16.41-16.31 30.32-33.07 60.44-48.1 91.4-15 30.89-28.33 62.59-41.93 94.14-2.91 6.74-6.96 13.95-4.05 22.02 13.16-26.85 25.27-53.59 39.2-79.36 12.02-22.24 25.83-43.53 39.36-64.92 13.37-21.14 26.78-42.3 41.23-62.7 14.58-20.58 27.3-42.41 39.23-64.62 5.96-11.09 11.72-22.29 17.45-33.5 2.5-4.9 4.69-10.26 7.76-14.81.85-1.27 1.8-2.31 2.67-3.44zm1155.65 183.28c-12.09 8.46-17.48 21.8-18.41 39.55-1.87 35.78-4.5 71.55-4.87 107.35-.2 19.21.81 38.85 12.59 56.15 19.99 29.34 47.18 33.31 76.99 6.83-7.4-.76-13.56-.76-19.38-2.16-7.23-1.74-14.81-3.57-21.1-7.28-11.22-6.62-17.26-17.94-20.75-30.02-7.95-27.54-12.49-55.57-13.27-84.42-.63-23.11.92-45.64 6.64-68.02 1.47-5.75 1.09-11.97 1.56-17.98zm-168.71-64.5l-3.27-.54c-1.21 2.46-2.32 4.98-3.66 7.36-5.98 10.63-12.36 21.05-17.98 31.87-5.91 11.38-10.06 23.78-16.81 34.59-20.28 32.48-39.43 65.54-53.62 101.16-7.96 19.98-15.33 40.31-21.04 61.02-2.38 8.62-.06 18.67.93 27.98.19 1.83 4.1 3.27 6.29 4.88 1.31-2.24 3.03-4.33 3.86-6.73 5.76-16.66 10.29-33.83 17.18-50 14-32.84 29.58-65.01 43.9-97.71 13.2-30.15 25.82-60.55 38.24-91.03 2.95-7.24 4.04-15.22 5.98-22.85zm593.3-196.68c-1.28.4-2.57.81-3.85 1.21 1.23 9.6 2.54 19.19 3.68 28.8 1.01 8.55 2.31 17.09 2.67 25.68 1.28 30.75-2.4 61.09-7.72 91.33-8.78 49.89-17.21 99.85-25.59 149.81-2 11.94-3.78 23.92-5.55 35.9-.87 5.87-1.54 11.82-2.69 17.64-.96 4.84-.45 9.8-.39 14.72 7.67-14.08 10.69-31.2 15.73-46.34 4.59-13.77 9.63-27.76 12.64-41.98 10.08-40.36 17.95-81.23 21.25-122.82 1.74-21.9 3.93-43.81 4.5-65.75.47-18.07-.28-36.29-2.15-54.27-1.25-12.05-5.05-23.94-12.53-33.93zm-27.36 27.11c-.43-16.21-2.98-30.04-8.67-42.98-3.23-7.35-13.45-10.88-20.96-7.99-6.61 2.55-13.96 5.34-18.67 10.25-14.12 14.71-28.93 29.3-40.18 46.14-13.25 19.83-25.46 40.34-36.85 61.28-11.31 20.79-20.88 42.47-31.72 63.4-1.27 2.46-2.4 4.99-3.38 7.58.42.49 1.18-.06 1.56-.58 6.35-8.63 12.98-17.01 18.95-25.92 5.9-8.81 10.41-18.92 16.61-27.44 15.02-27.53 34.85-51.35 55.53-74.54 8.71-9.77 19.19-16.43 33.06-18.35 12.32-1.68 22.25 2.92 34.72 9.15zm-117.09 96.74c-.24 1.01-.41 2.02-.5 3.02-.08.9 3.1-2.72 3.13-2.76 1.53-1.79 3.1-3.56 4.8-5.2 12.42-11.96 24.41-24.43 37.49-35.62 9.35-7.99 20.74-12.77 33.26-7.08 13.16 5.98 18.05 16.2 21.78 31.11 1.77 7.07 2.35 14.32 3.19 21.54.86 7.37 0 14.78.78 22.22-.26-2.51 2.34-7.17 3.06-9.67 1.06-3.72 2.01-7.47 2.85-11.24 1.62-7.31 2.8-14.72 3.53-22.18 1.53-15.45-.04-29.99-2.48-45.26-1.05-6.58-1.78-13.25-3.39-19.69-2.13-8.52-7.99-12.21-16.9-12.6-12.57-.56-21.89 5.98-31.21 12.74-21.88 15.86-36.86 37.44-49.68 60.72-3.29 5.95-8.08 13.07-9.71 19.95zM1397.01 929.67c-6.45.54-11.6 1.39-16.75 1.32-26.36-.35-30.71-7.48-41.58-31.82-9.23-20.66-11.45-43.23-11.4-65.86.02-6.75-.43-13.64-.29-20.34 0-7.31-.03-14.48-.05-21.82-4.35-1.27-3.17 9.42-3.65 11.84-1.29 6.46-2.12 12.92-2.67 19.48-1.76 20.95-3.19 41.93-4.62 62.91-1.4 20.6-1.3 41.13 4.27 61.24 3.94 14.24 10.03 19.12 24.71 18.38 5.53-.28 11.36-2.15 16.3-4.73 13.55-7.05 26.95-14.58 35.73-30.6zm1250.82 112.23c-.38-1.04-.76-2.08-1.14-3.11-5.39 0-10.89-.69-16.15.14-12.2 1.91-20.2-4.26-26.38-13.3-3.18-4.64-5.09-10.27-6.94-15.66-1.68-4.91-3.46-8.67-9.68-8.46-6.73.23-10.17-4.31-12.6-9.95-1.63-3.78-3.55-7.43-5.72-11.94-1.58 2.03-2.89 2.97-3.17 4.16-5.06 21.9-9.48 43.7-5.14 66.52 1.97 10.36 7.11 16.17 16.54 19.01 19.77 5.94 36.41-2.9 52.53-12.16 6.67-3.83 11.94-10.09 17.85-15.25zM1340.9 847.52c-1.12-5.12 2.27-14.24 3.25-19.41 1.28-6.73 2.7-13.42 4.27-20.08 7.77-32.95 19.08-64.99 32.77-95.94 6.87-15.52 14.32-30.77 22.22-45.79 6.63-12.61 14.63-24.36 21.19-37-1.17-.1-2.26.55-3.24 1.19-35.5 23.07-58.13 54.68-71.22 94.63-11.77 35.9-12.03 73.24-11.73 110.51.02 3.98 1.62 7.93 2.49 11.89zm1388.21-300.07c5.89-12.92 4.44-27.48 1.56-38.51-4.13-15.8-15.23-22.93-31.7-23.11-19.22-.21-35.52 8.17-50.68 17.78-25.65 16.25-44.63 39.94-63.7 63.14-4.34 5.28-8.22 10.91-12.05 16.56-3.56 5.26-6.96 10.52-10.6 15.69-1.32 1.89-2.87 3.89-2.77 6.19 2.51-2.25 16.31-17.66 21.22-22.53 12.52-12.42 24.52-25.55 38.22-36.53 17.38-13.93 35.84-26.77 59.14-29.35 16.27-1.8 34.11-.37 43.97 15.19 2.48 3.9 3.81 9.62 7.39 15.48zm-1137.62 481.22c-3.35-1.2-4.98-2.09-6.7-2.35-19.74-2.98-32.07-19.42-32.2-38-.19-25.64 5.69-50.17 13.58-74.33 2.58-7.92 7.15-15.5 2.67-26.27-2.26 1.02-2.4 3.8-3.81 5.58-21.04 26.68-31.61 57.98-37.04 90.66-2.34 14.09 1.31 29.3 3.04 43.9.87 7.35 6.32 11.74 13.64 12.92 16.39 2.63 32.32 2.89 46.82-12.11zm-36.47-245.63c.96.37 1.92.75 2.88 1.12 8.49-18.89 16.6-37.97 25.54-56.64 17.53-36.61 34.88-73.32 53.53-109.36 13.59-26.25 29.19-51.45 43.79-77.18 3.29-5.79 6.85-11.61 8.9-17.87 1.16-3.54.97-9.32-1.22-11.77-4.06-4.54-8.03.28-10.56 3.32-7.02 8.44-15.06 16.55-19.86 26.2-12.86 25.84-24.23 52.42-36.22 78.7-4.35 9.53-8.67 19.08-13.2 28.53-3.88 8.11-8.44 15.9-11.97 24.15-7.91 18.49-15.6 37.09-22.95 55.81-7.06 18.04-16.46 35.34-18.66 54.99zm1616.71-134.91c.2-.31.39-.62.59-.92.54-.85 1.1-1.92.63-2.82-6.43 3.53-11.33 10.25-14.88 16.52-15.97 28.24-31.46 56.76-47.52 84.94-10.15 17.8-22.2 34.6-31.28 52.9-14.25 28.69-26.89 58.19-39.8 87.54-3.18 7.23-4.74 15.16-7.05 22.77l2.55 1.2c16.19-23.59 34.8-45.92 47.96-71.09 17.14-32.8 29.87-67.89 44.65-101.93 4.09-7.16 6.66-15.67 9.91-23.25 3.41-7.95 6.89-15.88 10.66-23.66 7-14.46 15.02-28.68 23.58-42.2zm-1266.06 356.09c13.08 5.88 26.82 10.68 40.86 6.69 18.44-5.24 35.47-14.29 50.19-26.6 14.22-11.88 27.18-25.25 41-37.61 16.82-15.05 29.22-33.68 42.15-51.8 6.69-9.38 11.58-20.06 18.88-33-5.47 4.49-9.47 6.47-11.55 9.7-14.09 21.8-32.81 39.53-51.31 57.18-15.76 15.03-33.36 28.25-50.84 41.33-8.66 6.48-18.5 11.85-28.53 15.95-16.65 6.81-33.87 12.19-50.85 18.16zm311.43 19.51c12.11-7.81 17.93-17.18 20.8-26.58 10.31-33.76 19.59-67.86 28.15-102.11 6.69-26.77 12.02-53.89 17.39-80.97 1.92-9.69 2.2-19.7 3.24-29.57-31.06 76.62-51.89 155.68-69.58 239.23zm-741.99 72.52c-9.29-40.95-3.49-77.94 5.75-114.6 7.42-29.43 15.65-58.66 23.4-88.01.9-3.42.9-6.9 1.56-10.3.39-1.98.96-8.28 1.95-9.6-12.44 16.53-18.97 38.29-26.89 57.43-8.36 20.21-16.14 40.73-21.45 61.98-4.57 18.28-6.33 37.85-5.6 56.69.62 16 2.78 33.5 21.28 46.41zm87.77-420c1.58.17 3.16.34 4.74.52 3.32-13.23 7.8-26.3 9.66-39.73 2.47-17.88 5.82-36.42 3.53-53.99-3.78-29.02-17.61-37.53-44.02-33.53-5.06.77-9.56 5.19-14.32 7.93 2.85 3.55 5.38 7.42 8.61 10.57 6.07 5.91 14.38 10.32 18.54 17.28 13.92 23.28 18.34 48.88 14.41 75.85-.73 4.98-.79 10.07-1.15 15.1zm878.32 109.53c12.95-8.02 20.33-25.08 37.43-86.92 8.34-30.14-1.62-58.79-6.09-87.85-1.14.01-2.28.01-3.41.02-9.26 57.98-18.53 115.97-27.93 174.75zm1125.95-83.25c5.19-5.06 8.43-14.57 11.14-21.2 3.33-8.14 6-16.56 8.08-25.1 3.95-16.19 6.16-33.29 4.5-49.94-.58-5.83-1.65-11.68-3.74-17.17-.88-2.31-1.93-4.57-3.23-6.67-.61-.98-4.21-4.41-4.21-5.27-7.67 23.81-15.03 47.95-23.31 71.78-2.3 6.63-5.98 13.34-6.11 20.5-.13 7.62 5.14 12.4 9.16 18.22.78 1.12 1.37 2.36 1.96 3.6 1.67 3.48 3.1 8.53 5.7 11.3.02-.01.04-.03.06-.05zM2414.12 876.41c-.72 1.14-1.72 2.16-2.07 3.37-6.65 22.85-13.33 45.69-19.7 68.62-.99 3.56-.76 7.55-.63 11.32.19 5.48-1.81 13.54 5.14 14.47 4.2.56 9.36-5.34 13.92-8.59 1.03-.73 1.32-2.49 1.94-3.78 12.03-24.67 24.08-49.34 31.41-75.96.83-3 1.22-6.12 2.03-10.29-20.31 14.79-18.55 11.74-32.04.84zm-294.05-269.88c-12.08 28.24-22.84 57.14-36.61 84.52-13.67 27.19-30.36 52.86-46.23 80.06 41.5-17.33 98.66-115.56 82.84-164.58zm-824.34 368.6c-2.64-14.32-5.5-26.35-6.99-38.54-4.76-38.98-.81-77.22 10.39-114.86 2.31-7.77 3.92-15.73 5.53-23.67 1.36-6.71 4.63-14.27 3.76-21.13-4.47 4.52-4.97 8.86-7.11 14.39-2.38 6.18-5.69 12.11-8.4 18.15-5.5 12.22-10.54 24.69-13.81 37.7-8.12 32.26-10.83 64.68-7.71 97.75 1.36 14.61 6.94 25.32 24.34 30.21zm353.6-322.15c2.65-1.28 3.73-1.48 4.31-2.13 32.1-36.11 57.4-76.46 74.9-121.55 2.05-5.28 3.66-11.06 3.88-16.66.64-16.01-9.05-24.36-24.61-20.06-.52.14-1.1.39-1.27.9-.16.47.08.97.36 1.38.77 1.13 1.85 2.03 2.63 3.15 3.23 4.65 2.16 17.5 1.32 22.91-1.66 10.72-5.02 21.66-9.98 31.31-14.34 27.88-29.97 55.09-44.79 82.72-2.79 5.2-4.21 11.13-6.75 18.03zm210.03 275.32l-4.47 3.03c3.39 12.79 6.19 25.78 10.56 38.23 1.19 3.39 7.02 7.02 10.9 7.24 11.39.63 22.97.42 34.3-.94 24.35-2.92 45.34-14.58 65.6-27.49 4.41-2.81 7.86-7.1 12.41-11.33-2.43-.92-2.96-1.33-3.26-1.2-3.06 1.3-6.07 2.7-9.11 4.04-25.19 11.16-50.81 18.46-79 13.3-12.44-2.27-22.46-7.68-31.38-15.88-2.68-2.45-4.39-5.96-6.55-9zm-242.65-332.16c-.45 3.83-1.08 7.62-2.23 11.3 6.09-7.49 9.52-18.16 13.8-26.77 5.03-10.15 10.08-20.29 15.25-30.37 12.77-24.86 25.42-49.57 50.55-65.2 18.53-11.53 36.15-11.9 48.76 1.61 2.47 2.65 3.34 6.73 5.47 9.79 2.31 3.33 5.36 4.56 7.43-.26 4.03-9.35 2.93-18.81-1.61-27.44-4.84-9.21-14.13-9.91-22.69-7.68-22.16 5.78-42.56 14.61-59.56 31.26-22.39 21.92-36.93 48.59-49.89 76.3-4.1 8.74-4.19 18.22-5.28 27.46zm18.97 447.64c10.42-.3 17.71-2.58 23.05-12.14 10.22-18.29 22.76-35.26 34.08-52.95 17.02-26.6 33.81-53.35 50.69-80.04 4.74-7.5 4.65-14.87-1.38-24.27-11.58 20.47-21.92 39.97-33.45 58.74-11.49 18.71-23.79 36.96-36.43 54.92-12.77 18.14-26.33 35.72-36.56 55.74zm748.71-128.13c-2.91 1.86-4.12 2.19-4.32 2.83-7.94 25.22-20.71 48.96-20.91 76.56-.07 9.12 1 17 5.63 24.39 7.07 11.29 20.17 12.56 28.8 2.41 7.71-9.07 14.54-18.88 21.59-28.49 1.42-1.94 2.11-4.41 4.4-9.36-6.05 3.21-9.22 5.02-12.5 6.61-15.15 7.4-24.84 2.45-28.09-14.02-2.7-13.74-2.87-27.4.37-41.04 1.44-6.07 3.05-12.1 5.03-19.89zM1851.6 663.41c22-25.33 42.54-47.67 61.55-71.26 20.02-24.85 47.42-39.2 73.56-55.58 3.57-2.24 6.25-5.91 9.34-8.92-4.64-1.7-9.18-3.97-13.97-4.87-2.41-.45-21.96 8.95-24.15 10.52-17.8 12.73-19.43 17.41-36.72 30.8-8.2 6.35-16.13 13.56-22.42 21.73-18.81 20.7-41.18 62.39-47.19 77.58zm620.74 100.61c.29-1.57.63-3.14 1.05-4.69.31-1.15.62-2.38.28-3.53-4.2 6.56-7.18 13.18-10.57 20.15-3.68 7.55-4.94 17.1-14.28 20.38-11.33 3.97-16.36 12.05-17.76 23.47-.75 6.13-2.78 12.09-3.83 18.2-1.7 9.85-3.34 19.73-4.36 29.66-.24 2.32 2.13 4.91 3.3 7.38 2.01-1.04 4.61-1.59 5.9-3.2 3.54-4.42 7.56-8.89 9.56-14.05 9.28-23.92 18.15-48.01 26.66-72.21 2.35-7.12 2.71-14.4 4.05-21.56zm682.77 97.91c-.76-.56-1.51-1.12-2.27-1.68-9.91 11.84-20.67 23.07-29.51 35.66-11.72 16.68-20.99 35.1-33.04 51.51-13.27 18.06-20.05 37.77-21.38 59.73-.14 2.31.79 4.69 1.1 6.37 28.5-50.77 56.8-101.18 85.1-151.59zm-695.95-336.17c-15.36-13.24-20.73-13.58-34.38-6.61-29.02 14.82-51.66 35.94-66.4 65.17-1.85 3.66-2.92 7.71-5.33 14.22 34.75-28.61 61.53-61.7 106.11-72.78zm427.19 421.68c1.28 2.83 1.83 4.57 2.77 6.06 16.16 25.53 43.62 29.97 66.08 9.6 10.8-9.79 19.95-21.47 29.27-32.76 2.7-3.27 3.41-8.18 5.03-12.33-1.04-.74-2.08-1.49-3.12-2.23-6.5 5.83-12.77 11.94-19.54 17.44-21.65 17.59-44.48 29.64-72.74 14.35-1.68-.92-4.29-.13-7.75-.13zm-686.79-64.78c.21-.77.44-1.53.69-2.37.32-1.07-.09-5.41.31-5.91-2.34 2.87-3.51 5.91-4.72 9.33-1.24 3.51-3.32 6.78-4.67 10.3-8.13 21.21-16.34 42.4-24.02 63.77-2.92 8.12-5.65 16.31-8.25 24.54-2.5 7.91-5.65 15.54-5.67 23.83 0 .36 0 .73.12 1.08.14.41.44.76.78 1.03 4.5 3.64 8.55-2.79 10.76-5.6 3.82-4.87 7.61-9.83 10.39-15.39 4.42-8.82 8.04-18.25 10.46-27.8 2.44-9.65 2.66-19.83 4.44-29.68 1.82-10.04 3.85-20.04 5.89-30.04 1-4.92 2.18-9.83 2.98-14.79.14-.83.32-1.57.51-2.3zM1354.3 984.01c38.38-1.16 98.83-48.59 111.4-87.79-9.38 6.07-16.7 12.36-25.18 15.84-8.12 3.33-12.75 8.99-18.13 15.23-15.15 17.59-29.16 36.65-51.56 46.4-5.41 2.35-10.14 6.27-16.53 10.32zm398.19-69.88c-11.91 19.57-23.01 38.72-35.01 57.29-12.01 18.59-28.28 34.43-36.15 56.11 9.19-4.69 17.64-10 24.76-16.72 23.55-22.21 34.92-52.06 48.95-80.18 2.74-5.5 2.03-10.97-2.55-16.5zm1183.18-384.68c-16.8 3.58-28.33 13.36-37.29 27.03-17.86 27.23-27.38 57.7-35.45 88.76-1.17 4.52-1.02 9.38-1.48 14.09 12.41-22.27 21.11-45.45 32.97-66.88 12.14-21.9 27.37-42.07 41.25-63zM1509.02 1048.3c5.72 15.02 11.51 30.01 17.14 45.06 2.02 5.4 5.3 5.73 10.14 3.68 15.89-6.73 29.93-16.01 44.95-30.93-27.56 1.3-49.72-5.51-72.23-17.81zm84.12-475.16c3.73-13.4.85-25.42-1.8-37.13-4.34-19.2-11.53-24.2-31.29-24.19-11.87.01-29.71 10.75-34.72 21.95 34.31-7.28 55.37 8.38 67.81 39.37zm1407.71 18.38c9.44-24.79 11.57-48.13 6.94-66.95-2.1-8.51-7.48-12.78-15.7-12.75-5.63.02-17.3 5.5-18.66 13.09-.13.71.73 1.22 1.27 1.7 10.98 9.56 16.06 24.71 19.61 38.4 2.08 8.04 3.99 16.12 6.54 26.51zm-509.03 41.51c6.88-22.52 4.02-44.88-.45-66.65-4.2-20.45-17.99-27.22-38.21-21.04 21.99 25.32 30.08 56.56 38.66 87.69zm-851.72 424.62c-14.52-1.23-23.56 2.21-30.02 9.75-19.03 22.19-40.56 41.17-67.74 52.94-1.93.84-3.57 2.36-5.34 3.56.25.95.49 1.91.74 2.86 5.34-.38 11.3.61 15.92-1.42 12.01-5.28 24.34-10.65 34.88-18.27 13.43-9.71 25.41-21.48 37.63-32.77 4.66-4.32 8.26-9.79 13.93-16.65zm-190.67-175.09a102.73 102.73 0 01-4.4 4.87c2-2.04 8.4-2.97 11.19-4.51 5.48-3.04 9.89-6.69 14.35-11.09 9.57-9.45 20.88-19.42 27.71-31.14 7.7-13.21 11.95-29.41 17.47-43.62 1.1-2.84 1.53-5.9 2.47-8.77.46-1.41 1.92-10.12 2.51-10.59-5 4-8.03 10.9-11.75 16.16-3.89 5.51-7.62 11.13-11.34 16.75-6 9.05-11.74 18.29-17.88 27.25-9.85 14.37-18.89 31.22-30.33 44.69zm1002.38-278.52c2.55-13.38 1.07-24.58-2.81-35.25-3.11-8.57-13.34-11.64-21.55-6.05-15.36 10.47-26.24 25.04-34.69 41.57 3.53-.96 6.35-2.65 9.12-4.42 24.96-15.88 26.55-15.8 49.93 4.15zm-510.23 167.2c-12.98-4.81-35.91-10.79-35.26-28.69.02-.59-.11-1.4-.7-1.41-3.46 7.16-3.76 10.82-6.22 16.23-2.88 6.34-5.61 12.78-7.55 19.48-2.31 8-.23 9.62 8.75 9.75 14.48.2 25.83-7.64 40.98-15.36zm-481.44-204.97c-8.49 2.63-17.31 2.66-21.16 7.05-12.18 13.85-22.5 29.34-33.54 44.2 14.34-7 26.71-15.55 38.84-24.44 8.36-6.14 11.58-15.45 15.86-26.81zm29.86 469.38c-5.34 21.61-2.23 42.31 6.41 62.04 1.08 2.47 7.25 2.7 11.06 3.97.37-3.41 1.85-7.17.92-10.18-5.84-18.71-12.2-37.24-18.39-55.83zm403.01-231.88c7.45 25.69 32.01 33.47 52.56 16.9-26.27.14-41.76-6.94-52.56-16.9zm210.16-274.63c-.24-12.02-6.79-16.67-15.7-18.97-11.69-3.01-19.26-.56-27.57 9.03 14.16 3.25 27.9 6.41 43.27 9.94zm207.63 206.48c12.85-31.71 25.71-63.42 38.56-95.13-11.39 10.89-40.99 82.12-38.56 95.13zm1045.29 396.17c2.19 15.95-2.38 34.4 16.41 44.06-2.45-15.79 2.43-34.1-16.41-44.06zM1503.05 514.73c-19.76 8.26-34.9 21.89-41.95 36.55 7.46-1.86 15.13-1.44 18.45-5.04 8.84-9.58 15.79-20.89 23.5-31.51zm529.77-5.06c-15.35-1.42-15.35-1.42-22.52 4.72 10.84 6.53 10.84 6.53 22.52-4.72zM789.85 973.33c-3.15 5.2-5.9 14.33-6.78 16.94-2.87 8.56-4.44 17.52-4.93 26.53-.52 9.52 1 19.13 1.22 28.7.11 4.74 3.79 10.98-4.01 13.31-6.67 1.99-12.72.44-16.45-5.52-7.77-12.43-11.99-25.47-9.71-40.84 3.51-23.63 14.72-43.67 25.77-64.15 8.59-15.92 14.78-33.13 23.17-49.17 5.23-10 7.72-20.07 8.06-31.19.86-27.79-19.55-49.14-47.62-49.16-4.95 0-21.41-2.86-21.97 4.94 7.05 1.51 14.3 3.23 20.55 6.97 10.53 6.3 18.68 19.17 23.05 30.47 5.32 13.74 3.69 28.68-1.52 42.19-6.52 16.91-34.86 37.38-54.52 32.69-6.27-1.5-12.45-4.73-17.71-8.51-2.36-1.69-3.91-7.25-2.91-9.99.8-2.19 5.92-3.32 9.3-3.88 2.7-.45 5.73.4 8.51 1.09 15.41 3.82 30.98-9.34 32.71-22.35.38-2.85.41-5.76.88-8.59 2.76-16.48-2.02-28.41-18.01-36.34-15.14-7.51-29.02-6.13-41.94 2.84-16.29 11.31-27.78 27.52-39.02 43.54-15.52 22.12-25.37 46.92-31.72 73.09-1.22 5.03-1.92 10.41-1.61 15.56 1.72 28.85 10.56 55.56 28.41 78.24 8.65 10.99 19.66 20.79 31.3 28.59 18.96 12.7 41.84 15.21 63.67 19.93 10.24 2.21 20.76 3.07 31.09 4.88 43.8 7.67 94.5-10.74 122.19-23.86 27.69-13.12 50.18-29.4 63.17-56.68 8.8-18.47 16.37-37.84 21.74-57.56 5.86-21.51 9.96-43.88 8.22-66.38-2.02-26.15-3.58-52.61-8.97-78.18-8.77-41.59-20.08-82.68-31.1-123.76-7.8-29.05-18.39-57.43-24.92-86.73-4.92-22.09-12.31-44.02-10.64-67.5.7-9.82-1.86-20.06-4.05-29.86-8.9-39.89-2.93-77.53 14.11-114.42 8.13-17.59 16.78-34.33 31.29-47.27 8.82-7.87 18.76-14.46 27.76-22.15 4.1-3.51 8.21-7.77 10.42-12.56 6.99-15.15 13.16-30.69 19.52-46.13 8.27-20.09 21.82-35.93 39.25-48.54 16.96-12.27 31.87-26.83 51.77-35.67 25.84-11.49 52.56-13.98 79.75-14.19 17.08-.13 34.46 1.56 51.23 4.86 44.97 8.83 74.18 37.36 95.45 76.84 11.16 20.71 14.4 42.67 15.43 64.79 1.43 30.83-2.83 61.88-22.2 87.12-18.73 24.42-43.06 42.51-75.71 43.66-13.25.46-26.6-1.5-39.89-2.58-12.08-.98-21.33-8.22-30.56-14.95-8.85-6.44-12.43-15.43-14.6-26.63-4.59-23.7 5.15-41.42 18.5-59 16.92-22.27 25.33-47.22 11.63-73.52-8.29-15.91-21.01-30.08-39.27-35.86-16.76-5.31-33.59-1.99-48.23 6.79-16.44 9.86-23.56 27.16-29.22 44.64-6.22 19.22-2.73 38.33 1.06 57.55 4.51 22.93 7.75 46.1 12.16 69.05 2.8 14.54 6.96 28.82 10.1 43.3 8.46 39.02 24.79 75.34 37.8 112.82 8.28 23.85 13.45 48.79 19.56 73.36 9.62 38.68 13.77 78.23 14.83 117.89.98 36.75-.17 73.56-4.4 110.25-3.28 28.4-4.19 57.07-6.92 85.55-3.29 34.44-6.43 68.95-11.51 103.14-2.77 18.62-7.42 37.51-14.75 54.78-13.95 32.84-34.07 59.65-74.34 63.04-10.52-.09-12.28-.24-20.82-3.01-5.53 32.13-10.71 95.97-15.47 126.45-2.61 16.75-4.6 33.54-7.06 50.29-2.5 17-6.32 33.82-10.01 50.62-7.67 34.94-11.87 70.59-24.48 104.51-6.25 16.79-8.46 35.05-13.29 52.42-2.02 7.28-4.98 14.84-9.45 20.81-13.17 17.58-27.15 34.56-41.14 51.51-10.01 12.13-24.43 16.67-38.93 19.89-13.31 2.96-26.2-2.1-36.82-8.9-10.15-6.49-18.04-16.18-24.69-27.26-14.54-24.21-16.86-51.72-23.07-77.96-4.21-17.82-2.67-37.03-3.32-55.64-.9-25.79-2.05-51.6-1.94-77.39.11-25.26 2.38-50.52 2.34-75.78-.03-19.47-.84-39.16-3.94-58.32-1.57-9.72-8.29-18.96-13.96-27.58-5.5-8.35-13.28-15.19-18.89-23.48-5.77-8.52-13.28-13.86-22.97-15.84-13.05-2.67-26.37-4.07-39.38-6.9-14.91-3.24-29.64-7.35-44.41-11.26-9.24-2.44-18.38-5.22-27.59-7.8-4.61-1.29-9.57-1.81-13.85-3.8-28.17-13.08-56.71-25.5-84.07-40.11-16.71-8.92-32.24-20.49-47.04-32.43-25.98-20.98-48.91-45.12-66.02-74.04-4.73-8-6.58-17.67-9.99-26.48-1.84-4.75-4.82-9.12-6.2-13.96-5.38-19.01-9.17-38.11-3.81-57.98 6.04-22.39 12.55-44.28 31.07-60.29 2.54-2.2 3.37-6.73 4.32-10.36 9.06-34.53 25.44-65.14 50.94-90.1 15.98-15.64 34.1-29.05 55.3-37.14 8.85-3.38 17.71-7.76 27.28-8.61 23.32-2.07 48.13-4.47 69.48 7.3 6.32 3.48 12.11 3.83 19.08 3.51 14.03-.65 28.07-.97 42.12-.98 14.09-.01 30.22-1.45 43.89 2.43 3.58 1.02 7.02 2.46 10.4 4.02 12.26 5.66 22.01 13.18 32.08 22.02 1.6 1.4 10.95 8.02 10.95 9.84 4.99 4.31 9.17 9.83 12.84 15.38 7.64 11.59 15.4 23.21 21.83 35.48 9.07 17.32 11.96 35.72 8.21 55.42-5.54 29.1-12.36 58.08-10.7 88.15.76 13.77 5.61 25.11 16.19 33.88 3.35 2.78 7.11 4.77 5.38 10.39-1.83 5.95-6.64 4.38-10.62 5-17.31 2.69-35.37-15.59-37.76-37.46-.67-6.13-.13-12.24-.57-18.36-1.48-.21-2.95 1.33-4.36 3.64zm34.58 552.07c-.85 28.91 7.31 60.98 21.95 91.47 2.14 4.46 5.71 9.21 9.89 11.55 15.7 8.77 39.52 5.72 53.24-6.38 23.65-20.86 38.07-47.85 47.95-77.07 7.91-23.4 13.81-47.51 20.05-71.44 6.86-26.31 14.07-52.59 19.3-79.24 5.58-28.42 9.07-57.26 13.41-85.92 2.57-16.98 6.08-33.91 7.22-51 1.26-18.93 6.79-59.43 9.27-77.25-4.5-3.8-4.5-3.8-15.23-12.4-5.61-4.5-7.73-3.8-9.06 3.3-2.91 15.49-5.87 30.98-8.21 46.56-4.44 29.59-8.38 59.17-17.79 87.85-6.86 20.92-16.99 39.03-34.25 52.88-17.65 14.17-39.16 13.25-56.82.22-12.91-9.52-17.64-22.24-20.14-36.55-3.94-22.56-8.49-44.93-17.6-66.05-6.3-14.6-12.95-29.76-26.88-38.25-7.09-4.32-15.38-4.76-23.46-4.25-4.1.26-8.19.76-12.29 1.05-3.84.27-7.96-.57-11.68.06-.35.06-.71.14-.97.37-1.82 1.62 2.85 6.1 3.88 6.96 5.16 4.33 10.07 9.37 14.09 14.77 6.14 8.26 12.27 16.58 16.88 25.82 10.94 21.96 11.34 46.36 12.11 70.17.99 30.57-.69 61.23.07 91.82.81 31.94 3.14 63.87 5.07 100.95zm246.36-449.48c-.59 1.62-.87 3.13-.64 4.38 5.46-4.25 10.25-8.68 14.82-13.95 14.47-16.75 26.85-34.89 34.54-55.76 7.74-20.98 17.42-41.68 21.64-63.4 6.9-35.48 11.66-71.56 14.29-107.61 1.97-26.93-.47-54.23-1.61-81.34-1.41-33.47-5.53-66.65-13.34-99.29-1.55-6.47-3.26-12.9-4.75-19.38-3.3-14.4-5.8-29.02-9.89-43.19-8.62-29.85-18.5-59.34-27.04-89.21-8.92-31.16-15.37-62.87-19.4-95.1-2.04-16.34-5.8-32.47-8.79-48.7-9.12 25.52-4.8 51.31-5.68 76.8-.45 12.84.42 25.92 2.49 38.6 4.85 29.71 10.77 59.25 16.27 88.86 2.87 15.44 5.97 30.83 8.57 46.31 1.98 11.76 2.64 23.77 5.1 35.42 5.42 25.6 12.5 50.87 17.19 76.59 3.68 20.13 5.11 40.71 6.98 61.13 3.57 38.99 7.92 77.67 2.87 117.25-4.57 35.83-10.62 70.87-23.28 104.67-4.18 11.16-8.2 22.4-13.03 33.27-2.99 6.73-6.28 13.32-9.61 19.89-1.64 3.24-5.98 9-7.7 13.76zm-46.73-194.62c.03.91.04 1.82.05 2.73 0 .73.1 1.61.75 1.94.52.26 1.18 0 1.57-.44.38-.44.55-1.03.7-1.59 2.11-7.7 1.79-15.83 2.33-23.84.59-8.82 1.05-17.66 1.76-26.47.73-11.08.14-23.14-.72-34.21-.88-11.39-1.13-22.85-2.41-34.2-3.3-29.43-7.1-58.8-10.55-88.21-1.95-16.59-3.18-33.28-5.49-49.82-3.77-26.93-8.39-53.73-12.17-80.66-1.65-11.79-1.51-23.84-3.24-35.62-4.21-28.64-11.81-56.8-11.88-86.04-.01-2.45-1.22-6.39-2.84-6.97-2.01-.73-5.63.61-7.52 2.25-28.83 25.06-34.71 58.2-31.06 93.74 2.82 27.47 8.69 54.62 11.51 82.09 2.51 24.49 9.4 47.77 16.31 71.06 8.12 27.37 18.66 54.05 26.09 81.59 8.33 30.88 14.62 62.33 21.27 93.64 2.67 12.64 5.15 26.06 5.54 39.03zM840.6 1208.96c-.86.1-1.71.19-2.56.28-.56.06-1.29.39-1.12.93.07.21.26.34.45.47 22.85 14.94 35.08 38.9 41.59 64.84 4.17 17.13 7.89 34.37 12.12 51.49 4.47 18.1 20.87 24.62 36.55 15 14-8.59 19.86-22.71 26.11-36.82 18.45-41.65 19.9-87.47 32.38-130.59 1.96-6.76-1.89-9.69-8.99-7.56-2.28.68-4.34 2.07-6.6 2.85-28.84 9.92-57.56 20.22-86.61 29.47-13.84 4.4-28.87 7.97-43.32 9.64zM611.93 759.39c-10.32-8.61-20.9-9.46-31.14-8.54-40.62 3.65-70.53 26.24-96.57 55.63-16.97 19.15-23.59 43.47-33.64 66.01-3.13 7.03-2.19 15.84-3.35 23.8-2.5 17.04 2.73 35.14 7.75 51.29 3.52 11.3 8.81 22.93 15.11 33.05 7.83 12.35 16.67 23.44 26.78 34.03 8.96 9.38 19.75 14.41 30.58 21.53 1.77 1.17 4.02 2.36 5.88 1.34-11.22-23.78-24.15-48.39-31.43-73.63-6.31-21.89-11.9-43.71-7.43-66.25 3.12-15.77 8.47-31.24 14.25-46.3 12.95-33.77 36-59.01 68.01-75.78 10.9-5.7 22.37-10.32 35.2-16.18zm77.02 405.27c5.4.22 10.81.34 16.22.36 2.84.01 5.89-.08 8.17-1.76a1182.5 1182.5 0 00-30.52-11.1c-4.74-1.65-8.83-2.81-13.68-3.38-4.69-.55-9.1-3.26-13.47-4.89-4.89-1.82-9.47-4.45-14.26-6.57-14.4-6.38-29.52-11.49-43.1-19.28-28.09-16.1-56.37-31.7-81.3-53.19-23.25-20.04-46.37-39.57-62.69-66-18.31-29.94-30.03-59.66-29.98-95.07.02-.46-.17-.79-.57-.98-2.7.83-5.15 3.13-6.96 5.26-.88 1.03-1.07 2.64-1.61 3.97-16.85 41.92-8.59 81.01 15.37 117.13 21.47 32.37 48.5 59.95 78.83 79.79 16.14 10.55 31.55 23.09 51.05 28.15 13.34 3.46 26.08 9.38 39.51 12.29 11.75 2.55 22.85 6.18 34.69 8.65 6.39 1.33 12.78 2.67 19.24 3.62 3.92.58 7.87 1.02 11.81 1.4 7.74.74 15.49 1.28 23.25 1.6zm381.42-899.63c-2.31.6-5.92 2.84-7.33 4.95-9.75 14.67-21.09 28.69-28.16 44.59-6.85 15.41-8.89 32.92-13.61 49.34-7.88 27.4-4.94 55.63-.49 82.27 5.22 31.24 6.88 62.69 11.49 93.87 2.64 17.91 4.78 35.9 7.7 53.76 3.79 23.13 8.78 46.08 12.02 69.27 2.43 17.43 2.66 35.15 4.33 52.7.99 10.38 6.34 96.98 7.11 117.85 1.16 31.5-.09 62.6-9.24 93.01-.53 1.76-.29 3.74-.68 5.56-2.6 12.04-4.69 24.23-8.09 36.05-3.06 10.63-4.88 21.44-7.93 32.07-.18.64-.37 1.34-.11 1.96.26.61 1.19.95 1.61.42 8.89-12.92 14.84-27.84 19.13-43.01 5.23-18.28 8.64-36.97 11.86-55.81 4.2-24.57 6.52-49.05 6.37-73.73-.19-31.45-1.31-62.94-3.27-94.33-2.25-36.16-5.63-72.25-8.97-108.34-1.84-19.86-2.09-39.88-8.1-59.32-3.07-9.93-3.8-20.68-4.8-31.13-2-20.88-3.82-41.8-5.04-62.74-1.2-20.5-3.05-41.14-1.96-61.57 1.25-23.41 1.25-46.99 5.13-70.18.96-5.75 2.16-11.46 3.66-17.09 1.34-5.01 1.64-9.86 2.87-14.86 2.92-11.88 6.73-23.54 11.41-34.84 1.05-2.52 4.61-8.15 3.09-10.72zM696.42 815.99a.65.65 0 00-.11-.22c-5.36-2.5-11.65-2-17.36-.51s-11.18 3.91-16.95 5.18c-6.78 1.49-10.39 5.39-16.34 8.61-6.64 3.6-13.06 7.6-19.28 11.88-17.98 12.36-37.46 22.02-52.3 39.45-20.56 24.17-33.06 51.23-38.23 81.91-1.11 6.57.81 14.34 3.42 20.71 8.22 20.01 20.46 37.47 34.98 53.64 6.81 7.59 14.12 14.74 22.07 21.14 4.09 3.29 8.34 6.39 12.75 9.25 2.75 1.78 6.87 6.38 9.8 7.06-3.03-5.87-6.91-11.46-10.37-17.1-2.4-3.91-8.01-20.19-9.55-24.9-3.03-9.24-4.6-18.88-6.88-28.31-7.27-30.1 4.7-58.36 16.23-85.17 7.8-18.15 20.75-34.21 32.19-50.65 12.64-18.16 27.62-34.17 47.11-45.4 1.17-.68 9.35-4.69 8.82-6.57zm403.69-578.76c-.92.89-1.81 1.82-2.68 2.79 3.1 1.53 6.77.15 10.01-1.07 33.25-12.48 77.75-3.68 100.04 25.49 3.86 5.05 7.06 10.59 9.67 16.38 3.76 8.33 5.73 18.09 6.01 27.26.8 26.34-4.97 50.99-22.32 72.01-2.61 3.16-3.29 7.88-4.97 11.84-10.75 25.3 3.72 44.95 23.22 50.33 14.23 3.92 30.91 5.19 44.98 1.64 12.57-3.18 24.41-13.22 34.03-22.79 7.75-7.71 12.03-19.07 17.25-29.13 3.05-5.88 6.17-12.2 7.09-18.63 5.61-39.34 1.83-77.5-19.14-112.12-8.87-14.64-19.29-28.67-30.88-41.25-17.87-19.41-42.48-23.12-67.8-24.69 1.73 3.66 4.27 5.94 7.12 7.72 12.9 8.05 27.92 13.9 38.44 24.32 26.6 26.35 49.83 55.3 56.03 94.39 3.73 23.51 5.99 46.21-7 67.97-8.48 14.21-18.88 26.49-32.4 35.84-14.34 9.91-34.36 8.78-47.03-1.86-10.35-8.7-11.52-25.51-3.62-42.3 5.1-10.83 9.67-21.94 13.88-33.15 5.07-13.5 8.89-27.35 5.33-41.99-3.35-13.8-6.37-27.71-10.53-41.27-6.55-21.35-24.08-32.24-43.35-38.27-26.51-8.31-60.06-10.1-81.38 10.54zm46.57 767.81c.32-4 .47-7.99.37-11.92-.88.21-1.4 1.1-1.81 1.91-5.34 10.54-9.16 21.7-12.98 32.8-7.09 20.58-21.98 35.27-37.02 49.6-7.84 7.47-17.81 12.68-26.55 19.26-3.35 2.52-7.71 5.56-8.64 9.14-4.19 16.1-9.25 37.3-12.28 53.66 2.12 1.36 7.99 1.66 14.08 1.65 7.39 0 14.56-1.46 21.17-6.51 18.31-13.99 30.73-31.79 39.65-52.99 7.36-17.51 12.6-35.82 16.56-54.37 2.9-13.57 6.3-28.03 7.45-42.23zm-627.69-94.53c.32 2.26.94 4.45 1.97 6.51 7.59-24.44 22.58-47.81 42.5-64.05 25.17-20.52 52.78-37.7 83.12-50.04 4.5-1.83 12.18-4.99 12.06-7.17-.3-5.23-3.17-11.74-7.21-14.98-5.59-4.48-12.44-9.36-20.89-5.83-7.9 3.3-15.84 6.52-23.72 9.87-47.75 20.31-72.56 59.08-85.67 107.05-1.58 5.8-3.03 12.46-2.16 18.64zm387.52 238.6c11.12 2.78 19.63.72 28.04-2.55 17.35-6.74 34.33-14.84 52.19-19.68 11.23-3.04 21.36-7.73 28.3-15.62 13.47-15.29 25.08-32.26 36.88-48.95 4.34-6.14 7.22-13.37 10.41-20.27 0-3.92 4.91-10.77 6.55-14.42 2.32-5.16 4.62-10.33 6.92-15.5 4.24-9.54 7.78-19.13 11.26-28.99 1.37-3.87 2.75-8.05 1.63-12-5.94 9.61-8.28 21.1-14.23 30.69-3.89 6.27-6.02 13.96-9.45 20.6-3.7 7.15-7.86 14.06-12.45 20.68-8.78 12.66-19.09 24.22-30.52 34.54-17.48 15.77-37.44 29.11-57.51 41.57-17.66 10.96-37 19.21-58.02 29.9zm17.33 17.65c.9-.51 1.73-1.06 2.43-1.66.51-.43.96-1.2.54-1.72-.32-.41-.94-.35-1.45-.26-8.04 1.44-15.33 5.14-23.52 5.24-4.01.05-7.82 1.47-11.8 1.92-4.59.51-9.24.35-13.79 1.27-6.77 1.37-14.21 1.25-21.1 1.68-14.15.89-28.31 1.5-42.42 2.96-29.39 3.03-58.68 7.07-88.01 10.74-.74.09-1.39.92-4.88 3.35 26.12 3.9 52.55 6.2 78.98 5.63 22.16-.47 44.29-3 65.86-8.15 10.86-2.59 21.56-5.84 32.02-9.75 5.33-1.99 10.6-4.15 15.8-6.48 3.26-1.44 7.88-2.82 11.34-4.77zm-6.3-44.75c-12.73 1.74-22.49 3.45-32.32 4.35-20.47 1.88-40.95 3.79-61.47 4.85-11.28.58-22.94 1.79-34.15 1.48-12.12-.34-24.01-3.27-35.73-6.12-1.5 4.54 14.13 10.44 17.31 11.72 7.14 2.88 14.61 4.95 22.15 6.46 16.57 3.31 33.69 4.03 50.53 2.76 14.2-1.07 28.39-3.56 41.91-8.1 6.08-2.04 12.03-4.5 17.67-7.56 2.66-1.44 5.25-3.02 7.73-4.75 1.43-1.01 4.79-4.87 6.37-5.09zM777.3 798.02c-2.19-8.22-8.22-11.9-14.69-14.65-14.53-6.17-29.03-12.55-43.94-17.67-13.68-4.7-28.03-5.36-42.43-2.89-5.79.99-6.05 4.06-3 7.92 3.5 4.43 8 8.13 11.12 12.79 3.29 4.9 6.96 6.82 12.97 6.84 11.3.04 22.63.87 33.88 2.01 15.05 1.52 30.04 3.65 46.09 5.65zm498.26-505.7c0 5.53-.08 8.6.01 11.66.72 23.94.58 47.9-9.08 70.35-7.01 16.28-15.37 31.98-38.09 30.94 1.75 1.33.52 3.34 2.3 4.86 1.06.91 2.46 1.28 3.83 1.54 3.94.74 8.03.72 11.96-.07 3.02-.61 5.94-1.65 8.84-2.7 4.67-1.68 8.87-4.3 12.6-7.66 1.45-1.3 2.74-2.77 4.03-4.24 8.08-9.19 13.92-19.18 16.86-31.28 3.09-12.72 2.09-25.84.38-38.68-1.62-11.45-3.13-23.55-13.64-34.72zm-287.81 60.91c-25.39 17.75-40.81 40.21-48.11 69.45 12.56-8.22 24.19-15.38 35.27-23.31 3.89-2.79 8.36-7.06 9.23-11.33 2.16-10.54 2.38-21.47 3.61-34.81zm263.16-28.55c-5.97 21.56-11.91 43.01-18.06 65.23 21.54-4.68 29.52-38.9 18.06-65.23zm-211.74 800.6c.76-3.5 1.51-6.68 1.77-6.78-3.49 1.33-6.21 6.34-8.97 8.88-3.16 2.91-13.7 9.96-13.1 14.93.47 3.9 10.39 9.97 13.22 12.52 1.73-6.85 3.47-13.69 5.18-20.55.22-.96 1.07-5.17 1.9-9zM3135.07 253.7c0 1.98.14 2.51-.02 2.93-5.75 15.12-3.16 29.93-.86 45.55 3.27 22.19-11.27 41.38-32.85 47.85-6.72 2.02-11.8 4.24-15.56 10.98-6.93 12.45-15.05 15.68-28.95 11.77-5.65-1.59-8.68-.42-12.57 3.15-14.87 13.64-27.8 15.03-46.04 6.19-4.89-2.37-10.4-4.32-15.76-4.74-20.22-1.56-31.9-15.37-28.77-35.82.98-6.36-.46-8.71-6.91-8.9-36.43-1.11-45.27-37.17-36.94-60.47 7.3-20.43 19.13-37.23 38.54-48.29 8.19-4.67 14.5-11.25 20.03-19.71 11.3-17.28 29.64-28.71 49.6-25.86 15.92 2.27 30.58 13.38 48.36 9.59 1.55-.33 4.19 2.26 5.64 4.05 4.54 5.62 10.38 7.56 17.36 8.83 5.32.97 10.55 4.27 15.02 7.61 6.89 5.14 12.94 11.39 19.62 16.84 9.67 7.86 10.21 18.92 11.06 28.45zm-145.73 15.59c4.9-8.07 8.45-13.07 11.14-18.5 7.4-14.93 14.18-30.17 21.74-45.01 2.86-5.62 1.02-9.07-3.16-12.25-9.95-7.58-24.54-4.57-30.91 6.78-12.4 22.07-6.27 43.8 1.19 68.98zm68.67 76.58c2.24 4.72 3.73 7.88 5.23 11.04 2.72-2.25 5.55-4.37 8.09-6.8.96-.92 1.3-2.53 1.85-3.85 8.48-20.23 17.24-40.35 25.3-60.74 3.46-8.77 5.77-18.05 7.89-27.26.44-1.9-2.29-4.52-3.56-6.81-1.84 1.24-4.41 2.07-5.4 3.79-8.53 14.87-17.94 29.4-24.76 45.05-6.39 14.66-9.94 30.56-14.64 45.58zm-18.38-47.52c-1.42-.42-2.83-.85-4.25-1.27-7.71 15.24-15.71 30.34-22.95 45.8-1.94 4.14-1.75 9.36-2.13 14.11-.42 5.17.99 10.48 6.74 10.92 4.72.37 9.92-1.26 14.37-3.22 2.12-.93 3.67-4.54 4.31-7.21 4.66-19.52 6.37-39.24 3.91-59.13zm-36.96 5.78c13.78-10.12 19.09-24.9 24.11-39.79 7.26-21.52 18.33-40.66 34.59-56.68 1.15-1.13 2.6-3.45 2.16-4.36-.68-1.4-3.1-3.1-4.4-2.83-4.52.94-9.96 1.48-13.1 4.32-10.78 9.76-19.41 21.39-21.64 36.23-2.51 16.74-7.43 32.5-15.54 47.38-2.66 4.92-4.15 10.47-6.18 15.73zm88.31-89.77c-14.66-.25-22.67 4.75-28.75 13.3-13.64 19.17-11.64 40.58-8.88 62.29 5.37-27.86 9.79-55.85 37.63-75.59zm-142.96 23.69c-1.03-.51-2.07-1.02-3.1-1.54-4.89 5.24-9.9 10.39-14.66 15.76-9.42 10.64-12.63 23.43-11.62 37.23.82 11.08 6.47 17.69 18.78 22.76-12.44-27.12-6.42-51.41 10.6-74.21zm162.06-2.39c-11.7-10.66-23.79-9.57-30.51 1.45-5.43 8.89-9.69 18.57-13.71 28.22-1.75 4.19-1.6 9.17-2.32 13.78 14.1-16.35 17.54-41.18 46.54-43.45zm-120.55 69.25c-12.78 11.49-19.57 25.73-22.27 41.72-1.43 8.45 5.3 15.68 16.1 18.25-7.07-10.64-5.42-20.84-1.4-31.61 3.39-9.12 5.1-18.88 7.57-28.36zm-27-65.27c-5.49 17.02.86 45.37 11.87 56.71 7.97-22.06-7.11-38.33-11.87-56.71zm156.97 55.46c-1.28-.48-2.56-.95-3.83-1.43-6.69 13.53-13.48 27-19.92 40.65-.75 1.59.5 4.12.83 6.22 2.2-.67 5.26-.64 6.46-2.11 10.3-12.66 19.25-25.97 16.46-43.33zm-170.03-32.76c-14.03 16.95-8.22 37.31 13.64 45.68-4.57-15.3-8.98-30.06-13.64-45.68z"/></g></switch></svg>