<?xml version="1.0" encoding="utf-8"?>
<!-- Generator: Adobe Illustrator 24.0.1, SVG Export Plug-In . SVG Version: 6.00 Build 0)  -->
<svg version="1.1" xmlns="http://www.w3.org/2000/svg" xmlns:xlink="http://www.w3.org/1999/xlink" x="0px" y="0px"
	 viewBox="0 0 1442 966" style="enable-background:new 0 0 1442 966;" xml:space="preserve">
<style type="text/css">
	.st0{fill:#8A9992;}
	.st1{fill:#97A59F;}
	.st2{fill:#EAD53F;}
	.st3{fill:#FDEB51;}
	.st4{fill:#EC008C;}
	.st5{fill:#70C7B2;}
	.st6{fill:#E76152;}
	.st7{fill:#9C9C9E;}
	.st8{fill:#80948F;}
	.st9{fill:#736876;}
	.st10{fill:#5F566B;}
	.st11{fill:#EE7928;}
	.st12{fill:#F26422;}
	.st13{fill:#F7A391;}
	.st14{fill:#F27170;}
	.st15{fill:#EC5554;}
	.st16{fill:#E57164;}
	.st17{fill:#6E8DA0;}
	.st18{fill:#829BAD;}
	.st19{fill:#E9A041;}
	.st20{fill:#171B2B;}
	.st21{fill:#396F91;}
	.st22{fill:#497F9B;}
	.st23{fill:#D7DDDD;}
	.st24{fill:#294666;}
	.st25{fill:#9376B2;}
	.st26{fill:#2A2D3F;}
	.st27{fill:#E83B95;}
	.st28{fill:#9FD7CA;}
	.st29{fill:#62BCA4;}
	.st30{fill:#1D2036;}
	.st31{opacity:0.5;fill:#FFFFFF;}
	.st32{fill:#F68B1F;}
	.st33{fill:#FFCE07;}
	.st34{fill:#753624;}
	.st35{fill:#2F717A;}
	.st36{fill:#FFD683;}
	.st37{fill:#01444F;}
	.st38{fill:#FFE0B6;}
	.st39{fill:#E72527;}
	.st40{display:none;}
	.st41{display:inline;}
	.st42{fill:#F79E1E;}
	.st43{fill:#FFFFFF;}
	.st44{fill:#F6AA8F;}
	.st45{fill:#727579;}
	.st46{fill:#ECE1CC;}
	.st47{fill:#F27171;}
	.st48{fill:#EE7D69;}
	.st49{fill:#F69FA1;}
	.st50{fill:#FFECB6;}
	.st51{fill:#E54033;}
	.st52{fill:#EADBAD;}
	.st53{fill:#71C4BA;}
	.st54{fill:#78B542;}
	.st55{fill:#6B9F41;}
	.st56{fill:#A2BC5B;}
	.st57{fill:#8DB542;}
	.st58{fill:#E12327;}
	.st59{fill:#EDB7B6;}
	.st60{fill:#1C4650;}
	.st61{fill:#EA7750;}
	.st62{opacity:0.3;fill:#E72527;}
	.st63{fill:#653C16;}
	.st64{opacity:0.3;fill:#653C16;}
	.st65{fill:#2A5861;}
	.st66{fill:#F26F79;}
	.st67{fill:#EAB557;}
	.st68{fill:#80C48D;}
	.st69{fill:#89C544;}
	.st70{fill:#264720;}
	.st71{fill:#52AA82;}
	.st72{fill:#122D25;}
	.st73{filter:url(#Adobe_OpacityMaskFilter);}
	.st74{mask:url(#SVGID_1_);}
	.st75{opacity:0.3;fill:#895B24;}
	.st76{fill:#895B24;}
	.st77{fill:#CAAB82;}
	.st78{fill:#E5E5E5;}
	.st79{fill:#A8AFAF;}
	.st80{fill:#363A49;}
	.st81{fill:#AF84A7;}
	.st82{fill:#E8E8B2;}
	.st83{fill:#B8D3C7;}
	.st84{fill:#ABB2B2;}
	.st85{fill:#FAA635;}
	.st86{fill:#4DB5A5;}
	.st87{fill:#00AEEF;}
	.st88{fill:#EFD6B4;}
	.st89{fill:#68C5AB;}
	.st90{fill:#48A597;}
	.st91{fill:#7FC697;}
	.st92{fill:#A05424;}
	.st93{fill:#D35E46;}
	.st94{fill:#CF6946;}
	.st95{clip-path:url(#SVGID_3_);fill:#FCB017;}
	.st96{clip-path:url(#SVGID_5_);fill:#FCB017;}
	.st97{clip-path:url(#SVGID_7_);fill:#FCB017;}
	.st98{clip-path:url(#SVGID_9_);fill:#FCB017;}
	.st99{clip-path:url(#SVGID_11_);}
	.st100{clip-path:url(#SVGID_13_);fill:none;stroke:#F7931F;stroke-width:3;stroke-miterlimit:10;}
	.st101{clip-path:url(#SVGID_13_);fill:#F7931F;}
	.st102{fill:#7790A0;}
	.st103{fill:#40B392;}
	.st104{opacity:0.3;}
	.st105{fill:#EFD695;}
	.st106{fill:#9DA7B1;}
	.st107{fill:#E2A225;}
	.st108{fill:#51426B;}
	.st109{fill:#BBA9A6;}
	.st110{fill:#E8B691;}
	.st111{fill:#A59C95;}
	.st112{fill:#F2D7B9;}
	.st113{fill:#010101;}
	.st114{fill:#FFECDA;}
	.st115{clip-path:url(#SVGID_15_);}
	.st116{clip-path:url(#SVGID_17_);fill:none;stroke:#F7931F;stroke-width:3;stroke-miterlimit:10;}
	.st117{clip-path:url(#SVGID_17_);fill:#F7931F;}
	.st118{clip-path:url(#SVGID_19_);}
	.st119{clip-path:url(#SVGID_21_);fill:none;stroke:#F7931F;stroke-width:3;stroke-miterlimit:10;}
	.st120{clip-path:url(#SVGID_21_);fill:#F7931F;}
	.st121{clip-path:url(#SVGID_23_);}
	.st122{clip-path:url(#SVGID_25_);fill:none;stroke:#F7931F;stroke-width:3;stroke-miterlimit:10;}
	.st123{clip-path:url(#SVGID_25_);fill:#F7931F;}
	.st124{fill:#C3AC80;}
	.st125{fill:#BBBC7D;}
	.st126{fill:#F387A6;}
	.st127{fill:#FFE3B6;}
	.st128{fill:#5DB447;}
	.st129{fill:#D33535;}
	.st130{fill:#97BF49;}
	.st131{fill:#F69DA6;}
	.st132{fill:#C02026;}
	.st133{fill:none;}
	.st134{fill:#73767B;}
	.st135{fill:#7C7E82;}
	.st136{fill:#D9D9D9;}
	.st137{fill:#ADB5B0;}
	.st138{fill:#D7DEDD;}
	.st139{fill:#B8D2C6;}
	.st140{display:inline;fill:#FFE0B6;}
	.st141{display:inline;fill:#E72527;}
	.st142{fill:#FFCD60;}
	.st143{fill:#FEC248;}
	.st144{fill:#DDBF7B;}
	.st145{fill:#BCD266;}
	.st146{fill:#DBDBDB;}
	.st147{clip-path:url(#SVGID_27_);}
	.st148{clip-path:url(#SVGID_29_);fill:none;stroke:#F7931F;stroke-width:3;stroke-miterlimit:10;}
	.st149{clip-path:url(#SVGID_29_);fill:#F7931F;}
	.st150{fill:#FCFCEE;}
	.st151{font-family:'MyriadPro-Semibold';}
	.st152{font-size:32px;}
	.st153{letter-spacing:3;}
</style>
<g id="BG">
	<rect class="st0" width="1442" height="966"/>
	<rect x="0" y="646.6" class="st1" width="1442" height="319.4"/>
</g>
<g id="Bowl-Style">
	<g id="Bowl03">
		<path id="bowl03-fill" class="st45" d="M1000.9,435.7c-2.9-19.2-16.7-37-33.7-47.5c-22.3-13.8-49-17.9-74.8-22.4
			c-26.1-4.6-52.4-9.9-77.6-18.1c-9.2-3-16.5-7.9-26.1-9.3c-13-1.9-25.4-4.3-37.7-9c-23.3-8.9-45.1-20.5-70.7-16.2
			c-26.9,4.5-52.3,15.7-76.6,27.6c-22.8,11.1-45.6,22.9-69.9,30.6c-20.8,6.6-44.3,4.9-62.6,18c-6,4.3-11.3,9.7-17.5,13.8
			c-4.2,2.7-8.7,4.7-13.1,7.1c-9,5-17.6,11.7-24.1,19.7c-7.2,8.8-3.9,15.8-2.8,26.2c1.2,11.3,6,22.4,10,32.5
			c3.1,7.8,6.7,16.1,8.7,24.3c1.7,7-1.5,15.7,0.7,22c0.5,1.4,1.5,2.4,2.5,3.3c5.5,5.2,12.1,10,16.3,16.5c3.7,5.7,5.5,13.4,10.1,18.6
			c6.1,8.9,6.8,18.7,2.7,28.1c-3.2,7.2-1.9,13.4-0.1,20c1.1,4.2,1.7,9,3.8,12.5c4.3,7.1,15.4,13.1,23.9,15.2
			c6.7,1.7,13.6,3.6,19.6,7.1c6,3.5,13,6.3,16,14.7c3.1,8.8,8.2,16.6,9.5,26.4c0.6,4.7,2.4,9.3,4.1,13.7c3.5,9.2,8.5,16.7,18.1,18.2
			c2.5,0.4,5.8-0.3,7.2,1.3c5.9,6.9,13.2,7.5,18.7,7.1c5,4.3,8.5,7.2,11.9,10.2c0.9,0.8,1.4,1.9,2.2,2.8c5.9,6.1,7.2,16.8,15.6,20.5
			c0.3,0.1,0.3,1.1,0.5,1.6c1.1,4.7,2.9,8.5,6.2,10.1c5.3,2.6,4.8,9.6,8.3,13.9c4.6,5.7,12,9.3,18.5,12.2
			c40.5,17.7,86.9,13.9,130.7,7.3c10.2-1.5,20.5-3.2,29.9-7.4c9.4-4.1,18-11,22.2-20.4c3.8-8.7,3.6-18.7,7.8-27.2
			c3.9-7.9,13.5-12.5,20.3-17.9c7-5.5,14.2-11.1,22.5-12.9c6.1-1.3,12.5-0.5,18.4-2.5c12-6,13.2-18.7,14.4-30.7
			c1.6-16,9.8-24.5,19.7-36.8c4.8-6,9.7-12.2,12.2-19.5c5.5-16-1.6-34.7,5.3-50.1c2.9-6.4,7.9-11.6,10.7-17.9
			c6.5-14.3,3.9-29.4,6.9-44.3c3.7-18.3,22.7-32.1,27.4-51.1c1.5-5.9,1.9-12,2.3-18.1C999.6,451.1,1000.9,443.8,1000.9,435.7z"/>
		<path id="bowl03-lines" class="st30" d="M1014.5,432.9c-0.3-3.5-0.9-6.9-1.8-10.2c-3.3-11.3-11.1-20.8-19.5-29.2
			c-8.3-8.4-17.3-16-26.9-22.8c-7.3-5.2-15.1-10-23.7-12.8c-7.6-2.5-15.7-3.2-23.6-4.1c-22.5-2.5-44.9-6.1-67.1-10.7
			c-10.3-2.1-20.2-5.3-30.2-7.9c-9.4-2.4-18.9-0.8-27.9-5.6c-3.6-1.9-6.8-4.4-10.5-5.9c-3.4-1.4-7.2-1.8-10.9-2.3
			c-7.4-0.9-14.8-1.8-22.2-2.6c-2.7-0.3-5.5-0.7-7.9-2.1c-3.9-2.3-6.3-6.3-10.4-8.4c-4.7-2.4-11-3.5-16.2-4.7
			c-11.7-2.8-23.8-4.3-35.9-2.7c-26.8,3.4-51.4,15.9-75.1,28.1c-39.3,20.2-78.8,41.1-121.2,49.8c-6.8,1.4-13.7,2.5-20.2,5.1
			c-6.8,2.8-13,7.2-19.2,11.6c-8.5,6.1-17.1,12.3-23.6,21c-8.9,12-11.7,26.4-7.2,39.6c1.2,11.3,6,22.4,10,32.5
			c3.1,7.8,6.7,16.1,8.7,24.3c1.7,7-1.5,15.7,0.7,22c0.5,1.4,1.5,2.4,2.5,3.3c5.5,5.2,12.1,10,16.3,16.5c3.7,5.7,5.5,13.4,10.1,18.6
			c6.1,8.9,6.8,18.7,2.7,28.1c-3.2,7.2-1.9,13.4-0.1,20c1.1,4.2,1.7,9,3.8,12.5c4.3,7.1,15.4,13.1,23.9,15.2
			c6.7,1.7,13.6,3.6,19.6,7.1c6,3.5,13,6.3,16,14.7c3.1,8.8,8.2,16.6,9.5,26.4c0.6,4.7,2.4,9.3,4.1,13.7c3.5,9.2,8.5,16.7,18.1,18.2
			c2.5,0.4,5.8-0.3,7.2,1.3c5.9,6.9,13.2,7.5,18.7,7.1c5,4.3,8.5,7.2,11.9,10.2c0.9,0.8,1.4,1.9,2.2,2.8c5.9,6.1,7.2,16.8,15.6,20.5
			c0.3,0.1,0.3,1.1,0.5,1.6c1.1,4.7,2.9,8.5,6.2,10.2c5.4,2.7,3.6,14.7,7.6,20.2c3.7,5,8.9,8.7,14.4,11.7
			c19.1,10.4,41.3,12.3,62.7,12.1c20.5-0.2,40.5,0.5,61-1.5c15.3-1.5,31.1-3.6,45.7-9.1c6.5-2.4,13.1-5.7,17.5-11.7
			c8.7-12,5.6-30.4,12.4-43.8c0.8-1.5,1.6-2.9,2.6-4.2c3.8-5.3,8.9-9.4,13.8-13.3c7-5.5,14.2-11.1,22.5-12.9
			c6.1-1.3,12.5-0.5,18.4-2.5c9.8-3.4,14.5-18.5,14.4-29.2c-0.1-9.2,4.1-15.3,10.2-20.7c8.5-7.5,17.1-15.5,24.1-24.4
			c5.4-6.9,12.6-13.5,12.7-22.9c0.1-8.2-4.5-16-4.6-24.2c-0.2-11.6,8.3-21.3,15.9-30.1c7.7-9,13.4-18.4,12.7-30.6
			c-0.8-13.4-0.7-23,6.8-35c6.1-9.6,13.9-18.2,18.2-28.8c4.5-11.1,4.5-23.4,4.5-35.4C1014.9,442,1014.9,437.4,1014.5,432.9z
			 M825.8,786.5c-0.5,1.7-1.1,3.4-2.2,4.6c-0.9,1-2.1,1.5-3.3,2.1c-25.3,11.3-53,13.7-80.4,15.4c-12.7,0.8-26,3.1-38.5,1
			c-14.6-2.3-29.1-5.1-43.6-7.6c-6.9-1.2-16.8,0.1-16.6-8.2c0.1-4.7,3.2-9.4,8.1-8.7c6.4,0.9,12.8,2,19.3,2.6
			c10.6,0.9,21.2,1.4,31.8,2.3c3,0.3,6,2.1,9,2.4c4.4,0.4,8.9-0.7,13.2,0c4,0.6,7.8,3.8,11.8,3.9c7.8,0.1,16.1,3.9,23.3-3.9
			c1.5-1.7,6,0.8,8.7-0.2c5.3-1.8,11.4-1.1,15.7-6.2c0.6-0.8,2.1-0.8,3.3-0.8c11.3,0,12.4-1.8,23.2-8.5c3.7-2.3,14.5-13.4,19.2-11.3
			C832.5,767.4,827.3,781.4,825.8,786.5z M957.7,560.3c-7.6,16.7-25.8,25.9-41.3,33.8c-5.7,2.9-11.3,5.8-16.5,9.5
			c-3.8,2.7-8.1,4.6-12.5,5.7c-2,0.5-4.5,1.4-4.4,3.4c7.2-0.7,14.8,1.4,21.6-1.3c2.4-0.9,4.5-2.4,6.6-3.8
			c7.7-5.2,16.6-11.1,25.6-13.7c1.1,1.5,1.6,3.4,2,5.3c0.9,4.3,0.7,8.4-0.4,13.6c-4.2,20-20.3,30.8-35.7,42.1c-4.1,3-8.3,6-13,8
			c-5.3,2.2-11,2.9-16.6,4.1c-27.3,5.8-51.3,22.7-78.7,28c-16.5,3.2-33.5,2.1-50.2,2.2c-26.3,0.1-53,3.3-78.6-2.7
			c-11.7-2.7-22.9-7.3-34.8-9.4c-9.8-1.8-20-1.8-29.7-4c-8.5-1.9-16.8-5.7-24.9-8.7c-1.8-0.6-3.9-0.8-5.8-0.9
			c10.8,10.4,23.7,21.4,38.6,25.1c4.5,1.1,9.1,1.5,13.6,2.5c4.8,1.1,9.3,2.9,13.9,4.5c3.6,1.3,7.2,2.4,10.8,3.6
			c3.4,1.1,6.8,2.3,10.2,3.2c10.5,2.8,21.5,3.2,32.4,3.4c45.8,1.1,92.2,0.5,136.4-11.5c23-6.3,45.2-15.6,65.7-27.7
			c0.9-0.5,0,16.3-1.2,18.6c-2.9,5.7-8.3,8.6-13.9,11.2c-16.1,7.4-27,20-41.3,30.5c-16.2,11.9-32.6,23.9-51,30.4
			c-8,2.8-16.2,4.6-24.6,5.7c-36.7,4.9-73.8-3-109.8-12.6c-10-2.7-26.8-6.8-33.6-16.3c-13.7-18.9-32-29.8-51.1-39.2
			c-3.3-1.6-6-3.3-7.6-6.9c-1.9-4.4-5.4-7.4-6-13.1c-0.6-5-4.9-9.3-6.8-14.3c-6.6-17.5-19.3-28-32.9-37.3c-4.6-3.1-9.6-5.5-14.5-8
			c-6.4-3.2-6.4-3.1-4.3-13.3c6.5,1.1,13.2,1.6,19.7,3.3c14.6,3.9,28.4,10.2,42,16.8c6.5,3.2,13,6.2,18.7,10.5
			c6.1,4.5,11.4,8.1,19.3,8c4.2,0,8.3-1,12.4-1.6c22.3-2.9,44,7.4,65.9,12.5c28,6.5,57.2,4.3,85.8,2.2c10.4-0.8,20.8-1.6,30.8-4.4
			c6.8-1.9,13.4-4.7,19.8-7.8c11.3-5.3,22.4-11.3,32.3-19c-14.5,1.6-29,3.2-43.6,4.8c-9.5,1-18.9,2.1-28.3,3.5
			c-15.6,2.4-31.1,5.9-46.8,7.5c-40.1,4.3-80.4-3.3-120.1-10.8c-3.5-0.7-7-1.3-10.1-3c-7.1-3.9-13.3-9-20.7-12.6
			c-22-10.9-46.9-14.7-70.9-18c-5.5-0.7-9-3.4-11.4-9.6c-8.1-20.9-19-39.7-31.4-58.2c-0.6-1-1.3-1.9-1.6-3c-0.4-1.2-0.3-2.4-0.3-3.7
			c0.2-9.6-5.8-19.2-0.7-28.2c-1.7,3.1,18.8,23.2,21.4,25.8c7.4,7.3,12.7,15.9,20,23.5c15.1,15.5,34.2,26.5,53.6,35.8
			c15.4,7.4,31.2,14,47.9,17.9c8.4,2,16.8,2.1,25.2,3.6c7.8,1.4,14.9,5.5,23,6.3c9,0.9,18.6,0.8,27.8,1.4c44.3,3.1,90.2,2.5,134.1-7
			c22.2-4.8,43.9-12,64.3-22.2c9.9-5,19.1-12.7,29.2-16.9c9.9-4.1,19.3-7.5,28.9-12.8c9.6-5.3,19-10.9,28.3-16.8
			C961.5,544.9,960.8,553.3,957.7,560.3z M991.5,456.5c-1,2.3-2.5,4.1-5.1,4.4c-2.4,0.3-4.6-1.3-5.8-3.3c-1.2-2-1.6-4.5-1.8-6.8
			c-0.9-7.7-0.9-15.5-3.1-22.9c-1.4-4.7-3.9-9.4-7.6-12.7c-1.8-1.7-3.9-3-6.2-3.9c-0.7-0.3-6.3-0.8-5.9-0.3
			c10.6,12.3,12.9,29.8,11.6,46c-0.7,9.2-2.1,18.1-6.1,26.5c-3.3,7-8.1,13.2-13.1,19.1c-18.5,22.1-39.5,40.5-63.6,56.3
			c-11,7.2-23,12.6-34.5,18.8c-1.4,0.7-3,1.4-4,2.5c-2.9,3.4-6.8,4.6-10.9,5.8c-28.4,8.3-55.8,11.5-85.4,13.9
			c-40.4,3.3-81.8,5.2-121-5c-18.9-4.9-40.7-7.9-58.5-16.1c-4-1.8-8-3.7-11.9-5.5c-7.1-4-13.9-8.5-20.3-13.5
			c-5.9-4.6-11.3-9.6-16-15C516,539,510,533.1,504,527.2c-22.1-21.5-51.5-44.8-41.6-79.2c3.8-13.2,12.1-24.8,22.1-34.4
			c-4.6-1.1-9.6,0.4-13.6,3c-4,2.6-7.2,6.2-10.3,9.8c-5.4,6.3-10.8,13-12.5,21.1c-0.4,2-0.6,4.2-1.8,5.9c-1.2,1.7-3.9,2.6-5.4,1.1
			c-0.6-0.6-0.9-1.4-1.1-2.2c-1.8-6.8,0.5-16.9,2.6-23.5c8.3-25.7,37.8-33.3,58.4-39.2c27.4-7.8,55.8-12,82-24
			c27.8-12.7,53.7-34.1,83.6-35.7c18.1-0.9,35.8,5.6,53.2,11.3c44.1,14.3,89.5,23.2,135.3,26.4c25.1,1.8,50.5,1.8,75,8.1
			c31.2,8,72.5,35.5,63.7,72.8C993,450.9,992.6,454,991.5,456.5z"/>
	</g>
</g>
<g id="Noodles-Personality">
	<g id="Chopsticks02">
		<g id="chopsticks02-fill">
			<g>
				<path class="st82" d="M1338.5,794.1c-1.6-7.3-3.5-12.7-12.2-12.2c-20.3,1.1-40.3,5.2-60.2,9.3c-47.8,9.8-89.8,19.5-137.6,29.3
					c-12.6,2.6-50.6,10.5-63.4,11.6c6.3-4.4,34-9.5,41.4-11.5c21.4-5.7,43.7-12,62.7-16.4c15-3.5,69.8-18.7,80.2-22.1
					c24.2-7.9,39.1-10.1,63.3-18.2c6.8-2.3,11.3-5.7,11.7-13.4c0.2-5.1-1-10.5-3.9-14.8c-2.4-3.5-4.8-7.9-9.4-8.6
					c-3.4-0.5-6.8,0.5-10.1,1.5c-29.6,9-58.7,18.4-88.3,27.2c-27,8-53.9,16.7-81.2,23.7c-14.9,3.8-113.8,35.6-125.6,38.7
					c-10.6,2.7-50.2,15.3-65.4,20.5c-30.4,10.3-85.3,23-115.8,33.1c-4.4,1.5-9,3.1-11.8,6.8c-2.2,2.9-2.5,7.5-0.1,10.4
					c2.4,2.9,6,1.2,5.2,5c-0.7,3.6-3.1,6.8-1,10.4c1.3,2.2,4.1,2.9,6.7,3.2c9.6,1.2,19.8-0.4,29.3-1.5c11-1.2,21.9-3.5,32.6-6.2
					c13.3-3.3,26.5-5.9,40.1-8.6c31.2-6.2,175.6-36.8,213-43.6c30.3-5.5,61-9.5,91.5-14.5c26.6-4.4,70.1-13.1,84.3-14.5
					c5.5-0.6,18.8-2.5,22.7-6.4C1341.8,807.7,1339.8,799.6,1338.5,794.1z"/>
			</g>
		</g>
		<g id="chopsticks02-lines">
			<g>
				<path class="st30" d="M1338.5,794.1c-1.6-7.3-3.5-12.7-12.2-12.2c-20.3,1.1-40.3,5.2-60.2,9.3c-47.8,9.8-89.8,19.5-137.6,29.3
					c-12.6,2.6-50.6,10.5-63.4,11.6c6.3-4.4,34-9.5,41.4-11.5c21.4-5.7,43.7-12,62.7-16.4c15-3.5,69.8-18.7,80.2-22.1
					c24.2-7.9,39.1-10.1,63.3-18.2c6.8-2.3,11.3-5.7,11.7-13.4c0.2-5.1-1-10.5-3.9-14.8c-2.4-3.5-4.8-7.9-9.4-8.6
					c-3.4-0.5-6.8,0.5-10.1,1.5c-29.6,9-58.7,18.4-88.3,27.2c-27,8-53.9,16.7-81.2,23.7c-14.9,3.8-113.8,35.6-125.6,38.7
					c-10.6,2.7-50.2,15.3-65.4,20.5c-30.4,10.3-85.3,23-115.8,33.1c-4.4,1.5-9,3.1-11.8,6.8c-2.2,2.9-2.5,7.5-0.1,10.4
					c2.4,2.9,6,1.2,5.2,5c-0.7,3.6-3.1,6.8-1,10.4c1.3,2.2,4.1,2.9,6.7,3.2c9.6,1.2,19.8-0.4,29.3-1.5c11-1.2,21.9-3.5,32.6-6.2
					c13.3-3.3,26.5-5.9,40.1-8.6c31.2-6.2,175.6-36.8,213-43.6c30.3-5.5,61-9.5,91.5-14.5c26.6-4.4,70.1-13.1,84.3-14.5
					c5.5-0.6,18.8-2.5,22.7-6.4C1341.8,807.7,1339.8,799.6,1338.5,794.1z M823.6,884.8c-1.6-0.6-2-1.6,1-3.4
					c20.7-12.8,45.8-15.5,69.4-21.5c9.7-2.5,98.3-27.6,116.9-34.3c41.9-15,62.3-19.5,93.9-27.6c12.2-3.1,163.3-49,174.4-52.3
					c6.7-2,15.4-5.5,22.5-5c0.5,0,1,0.1,1.4,0.4c0.4,0.3,0.6,0.8,0.7,1.2c0.6,1.4,1.1,2.9,1.7,4.3c0.5,1.3,1,2.6,0.8,4
					c-0.9,5-12.2,6.3-16.4,7.7c-7.1,2.3-14.2,4.6-21.3,6.9c-10.8,3.5-21.5,7.4-32.4,10.5c-4,1.1-8.1,2.1-12,3.3
					c-6.1,1.9-12,4.3-18.1,6.1c-5.4,1.6-11,2.7-16.5,4.2c-6,1.6-11.9,3.4-17.8,5.1c-7.2,2.1-14.5,4.1-21.7,6.2
					c-4.7,1.4-9.4,2.8-14.2,4.1c-8,2.2-16.1,4.3-24.1,6.5c-14.5,4-28.9,8.7-43.5,12.2c-13.6,3.3-59.5,15.8-69,18.4
					c-8,2.2-86.5,23.5-107.9,28.8c-10.6,2.6-21.2,5.2-31.7,7.8c-9.2,2.3-18.9,5.9-28.3,6.7C829.6,885.5,825.7,885.5,823.6,884.8z
					 M1315.9,805c-30.9,6-140.2,23.9-163.8,29c-10.8,2.3-143.9,29.3-156.4,32.5c-11.3,2.9-82.3,15.9-106,22.1
					c-11.9,3.1-23.7,6.1-35.8,8.4c-5.8,1.1-11.8,2.4-17.7,3c-3.8,0.4-8.9-2.5-2.9-4.6c9.6-3.3,19.4-5.4,29.2-8.2
					c7.9-2.3,15.8-5.1,23.8-6.7c8.5-1.7,39.6-8,46.4-10.3c7.9-2.6,16-4.6,24-6.5c14.9-3.5,29.8-6.9,44.7-10.3
					c48.4-11,96.9-20.6,145.7-29.5c23.6-4.3,78.9-15.1,100-18c12.3-1.7,24.5-3.6,36.8-5.6c11.8-2,23.6-5.4,35.4-5.4
					c0.4,0,0.8,0,1.1,0.1c0.4,0.1,0.8,0.3,1,0.6C1324.7,800.4,1320.5,804.1,1315.9,805z"/>
			</g>
		</g>
	</g>
	<g>
		<path d="M538.2,559.8c6.4,5,13.2,9.5,20.3,13.5c3.9,1.8,7.9,3.6,11.9,5.5c17.8,8.2,39.5,11.2,58.5,16.1c39.3,10.2,80.6,8.3,121,5
			c29.6-2.4,57.1-5.6,85.4-13.9c4.1-1.2,8-2.4,10.9-5.8c1-1.1,2.6-1.8,4-2.5c11.6-6.2,23.5-11.6,34.5-18.8
			c15-9.8,29.8-19.8,42.8-32.2c8.7-9.1,15-19,15.7-29.7c1.8-27.9-18.6-51-39.5-67.8c-6.7-5.4-13.7-10.4-20.7-15.5
			c-3.8-2.8-7.8-5.4-11.6-8.1c-1.3-0.9-2.6-1.8-3.9-2.6c-4.5-2.6-9-5.1-14.1-6.3c-1.7-0.4-3.1-1.1-4.6-2c-3.5-2.2-6.9-4.4-10.5-6.4
			c-8.9-4.8-18.7-7.2-28.3-10.3c-4.8-1.6-9.9-2.4-14.8-3.8c-7.6-2.1-15.2-3.9-23.1-4.5c-3.1-0.2-6.2-0.5-9.2-1
			c-11.9-2.2-24-3-36.2-3.2c-5.3-0.1-10.7,0-16,0c0-0.2,0-0.5,0-0.7c-3.7,0-7.5,0-11.2,0c-8.3-0.1-16.6,1-24.8,2
			c-7.2,0.9-14.4,1.5-21.5,2.5c-4,0.5-7.9,1.8-11.8,2.4c-8.4,1.2-16.7,3.3-24.8,5.7c-21.7,6.3-41.6,16.1-59.8,29.1
			c-2.9,2.1-5.8,4.2-8.2,6.8c-0.9,1-2.1,1.7-3.1,2.7c-2.6,2.5-5.4,4.9-7.8,7.7c-2.9,3.4-5.3,7.2-8.1,10.6c-3,3.6-6.5,6.9-9.5,10.6
			c-1.9,2.3-4.1,4.2-5.8,6.8c-4.7,7.2-10,14.1-13.2,22.2c-1.6,4.1-2.9,8.3-2.7,12.8C499.3,516.1,514.4,541.2,538.2,559.8z M733,384
			c-0.7-0.5-1.3-1-1.9-1.4C732.5,382.2,732.5,382.2,733,384z"/>
	</g>
	<g>
		<path class="st30" d="M538.2,559.8c6.4,5,13.2,9.5,20.3,13.5c3.9,1.8,7.9,3.6,11.9,5.5c17.8,8.2,39.5,11.2,58.5,16.1
			c39.3,10.2,80.6,8.3,121,5c29.6-2.4,57.1-5.6,85.4-13.9c4.1-1.2,8-2.4,10.9-5.8c1-1.1,2.6-1.8,4-2.5c11.6-6.2,23.5-11.6,34.5-18.8
			c15-9.8,29.8-19.8,42.8-32.2c8.7-9.1,15-19,15.7-29.7c1.8-27.9-18.6-51-39.5-67.8c-6.7-5.4-13.7-10.4-20.7-15.5
			c-3.8-2.8-7.8-5.4-11.6-8.1c-1.3-0.9-2.6-1.8-3.9-2.6c-4.5-2.6-9-5.1-14.1-6.3c-1.7-0.4-3.1-1.1-4.6-2c-3.5-2.2-6.9-4.4-10.5-6.4
			c-8.9-4.8-18.7-7.2-28.3-10.3c-4.8-1.6-9.9-2.4-14.8-3.8c-7.6-2.1-15.2-3.9-23.1-4.5c-3.1-0.2-6.2-0.5-9.2-1
			c-11.9-2.2-24-3-36.2-3.2c-5.3-0.1-10.7,0-16,0c0-0.2,0-0.5,0-0.7c-3.7,0-7.5,0-11.2,0c-8.3-0.1-16.6,1-24.8,2
			c-7.2,0.9-14.4,1.5-21.5,2.5c-4,0.5-7.9,1.8-11.8,2.4c-8.4,1.2-16.7,3.3-24.8,5.7c-21.7,6.3-41.6,16.1-59.8,29.1
			c-2.9,2.1-5.8,4.2-8.2,6.8c-0.9,1-2.1,1.7-3.1,2.7c-2.6,2.5-5.4,4.9-7.8,7.7c-2.9,3.4-5.3,7.2-8.1,10.6c-3,3.6-6.5,6.9-9.5,10.6
			c-1.9,2.3-4.1,4.2-5.8,6.8c-4.7,7.2-10,14.1-13.2,22.2c-1.6,4.1-2.9,8.3-2.7,12.8C499.3,516.1,514.4,541.2,538.2,559.8z M733,384
			c-0.7-0.5-1.3-1-1.9-1.4C732.5,382.2,732.5,382.2,733,384z"/>
	</g>
	<g>
		<path class="st23" d="M752.5,480.4c-5.7-0.1-10.6,1.4-15.1,4.3c-2.3,1.5-4.6,2.9-6.5,5c-1.2,1.3-2.9,2.2-4.3,3.4
			c-2.7,2.2-6.2,3.2-8.3,6.2c-3.9,2.1-7.9,4-12.2,4.9c-3.5,0.7-6.9,0.6-10.4,0.4c-10.1-0.6-19-4.1-27.1-10c-4.7-3.4-9.3-6.9-14-10.3
			c-0.6-0.5-1.2-0.9-1.8-1.4c-3.2-2.6-6.8-3-10.8-2c-7.1,1.8-13.3,4.9-18.9,9.7c-6.3,5.4-13.4,9.6-22,10.5c-6.4,0.7-12.8,0.3-19.1-1
			c-4.3-0.9-8.5-2.3-12.8-3.5c-6.5-1.9-12.3-5.3-17.7-9.4c-2.1-1.6-4-3.3-5.5-5.5c-0.4-0.6-0.9-1.2-1.4-1.8
			c-2.2-2.3-3.5-2.6-6.5-1.3c-4.4,1.8-7.7,4.9-10.2,8.8c-2.9,4.5-6.8,7.2-12,8.3c-2.6,0.5-7-1.3-8.4-3.6c-0.3-0.5-0.4-1.1-0.5-1.7
			c-0.1-0.9-0.2-1.9,0.1-2.7c2.6-9.3,6.5-17.5,16.4-21.1c0.7-0.3,1.4-0.6,2.2-0.7c5-0.5,10-1,15-1.4c1-0.1,2.1,0.2,3.1,0.5
			c3.2,0.9,6.5,1.7,9.6,2.7c5.5,1.8,10.6,4.7,14.1,9.6c0.3,0.4,0.6,0.7,0.8,1.1c1.5,3.2,4,4.7,7.4,5.4c3.5,0.7,6.7,0.3,9.6-1.7
			c2.5-1.7,5.1-3.4,7.4-5.3c8.8-7.6,19.2-11.8,30.4-13.9c3.1-0.6,6.4,0.1,9.5,0.2c1.4,0.1,2.7,0.5,4.1,0.5c6-0.1,11.8,1.4,17.6,2.8
			c3.1,0.8,6,2.3,8.6,4.1c5,3.5,9.9,7.1,14.9,10.7c5.8,4.3,5.9,4.4,11.9,0.1c3.5-2.5,6.8-5.2,10.2-7.8c4.3-3.4,8.8-6.5,13.7-9.1
			c5.1-2.6,10.6-3.8,16.2-4.3c6.1-0.5,12.2-0.1,18.1,1.8c3,1,6.2,1.7,9.3,2.3c8.9,1.6,16.8,5.5,24.1,10.6c5,3.5,8.5,8.3,10.3,14.2
			c0.4,1.2,0.5,2.4,0.7,3.6c0.8,3.9-1.5,6.3-4.2,8.4c-0.2,0.2-0.5,0.4-0.8,0.4c-4.6,0.6-9.2,2-13.9,0.3c-1.5-0.5-2.8-1.3-3.8-2.3
			c-1.4-1.4-2.5-3.1-3.9-4.5c-1-1.1-1.5-2.3-1.5-3.7c0-1.5-0.1-3.1,0.1-4.6c0.2-2.5-1-3.9-3.3-4.8
			C758.2,480.7,755.2,480.4,752.5,480.4z"/>
		<path class="st23" d="M631.1,500.5c2.1-0.3,4.2-0.6,6.3-0.9c4-0.7,7.9-0.3,11.7,1c2.9,1,5.9,1.6,8.8,2.5c1.3,0.4,2.6,0.9,3.7,1.7
			c3.9,2.9,7.7,6,11.5,9c0.8,0.7,1.7,1.3,2.5,2c6.5,5.5,13.6,5.6,20.9,1.7c4-2.1,7.8-4.8,11.8-7c5.6-3.1,11.1-6.4,16.9-9.1
			c6.4-3,13.1-3.6,20.1-2.3c4.5,0.9,9,1.6,13.5,2.2c5.2,0.7,10.2,2,14.8,4.4c5.1,2.7,9.7,1.9,14.3-0.9c2.6-1.6,5.1-3.4,7.6-5.1
			c3.1-2.2,6.1-4.6,9.2-6.7c5-3.3,10.5-5.3,16.4-6.4c4.2-0.8,8.4-1.2,12.7-1.2c4,0,7.9,0.9,11.6,2.1c4.8,1.6,9.6,3,14.4,4.5
			c0.1,0,0.3,0.1,0.4,0.1c10,3,16.2,9.9,20.1,19.2c0.6,1.4,1,2.9,1.1,4.4c0.3,3.2-1.8,5.8-5,6.5c-2.7,0.5-5.3,1.4-8,1.6
			c-2.6,0.3-5,2.1-7.9,0.7c-2.4-1.1-5.3-1.4-7.9-2.1c-0.4-0.1-0.8-0.4-1.2-0.6c-1.3-0.7-1.6-1.1-1.1-2.5c0.6-1.7,1.4-3.4,2.2-5
			c0.5-1.1,1.3-2.1,1.8-3.2c1.9-3.9,2.1-6.2-3.9-6c-8.1,0.2-15.7,2.5-22.3,7.3c-2.7,2-5.4,4.1-7.6,6.5c-3.1,3.3-6.8,5.2-11,6.2
			c-7.3,1.8-14.7,2.3-22.3,2.1c-3.6-0.1-6.9-1.3-10-2.9c-2.4-1.3-4.8-2.7-7.2-3.9c-2.3-1.2-4.7-2.3-7.1-3.2
			c-3.3-1.3-6.6-1.3-9.8,0.2c-4.4,2.1-8.9,4.1-13.2,6.4c-4.5,2.5-8.9,5.3-13.3,8c-5.5,3.4-11.5,4.6-17.8,5.4c-2,0.2-3.9,0.4-5.9,0.6
			c-4.6,0.6-9.2,0-13.6-0.9c-8.4-1.6-16.5-4.5-24-8.6c-4-2.2-7.7-5-11-8.2c-1.7-1.6-3.4-3.1-4.9-4.8c-1.8-1.9-3.8-2.3-6.2-1.8
			c-4.3,0.8-7.5,3.3-10.1,6.5c-2.5,3.1-4.8,6.3-7.9,8.8c-1.3,1.1-2.5,1.4-4.2,0.8c-2.7-0.9-5.5-1.2-7.9-3.2
			c-3.2-2.6-4.1-5.8-3.2-9.4c2-8,6.6-14,15-16.4c2-0.6,4.2-0.6,6.3-0.8C631.1,500.2,631.1,500.3,631.1,500.5z"/>
		<path class="st23" d="M670.5,413.7c7.5-0.3,13.3-3.9,19.1-7.6c4.8-3,10.1-4.9,15.7-5.8c5-0.8,10-1,15-0.1c1,0.2,2.1,0.1,3.2,0.1
			c4.3-0.1,8.5,0.7,12.7,1.6c6.9,1.5,12.7,5.1,18.1,9.4c1.1,0.9,2.1,1.7,3.1,2.7c2.1,2.1,4.6,2.4,7.2,1.5c2.1-0.8,4.3-1.7,6.1-3.1
			c5.6-4,11.9-6.8,17.9-10c7.4-3.9,15.4-4.6,23.6-3.2c6,1,12,2.1,18,3.2c2.7,0.5,5.3,1.5,7.4,3.4c0.5,0.4,1,0.7,1.5,1
			c3.4,2.1,5.9,5.4,9.9,6.5c3.8,1.1,7.7,1.9,11.5,2.8c4.3,1.1,8.6,2,12.8,3.4c4.4,1.5,8,4.4,10.9,7.9c1.1,1.4,1.8,3.2,2.5,4.8
			c0.3,0.8,0.2,1.7-0.5,2.5c-0.9,1-1.5,2.3-2.2,3.5c-1.3,2.1-2.9,2.9-5.4,2.2c-1.6-0.4-2.9-0.6-4.3,0.6c-0.4,0.3-1.3,0.4-1.6,0.1
			c-1.2-0.9-2.5-0.9-3.9-0.8c-2.6,0.2-4.7-0.9-5.2-3.5c-0.6-3.1-2.6-3.9-5.2-4c-4.9-0.3-9.5-1.9-14.2-3.4c-1-0.3-1.9-0.9-2.8-1.5
			c-2.9-2-5.9-3.9-8.5-6.2c-5.1-4.6-10.6-4.4-16.1-1.7c-4.2,2.1-8.3,4.5-12.1,7.3c-6.6,4.9-13.7,7.9-21.9,8.4
			c-1.7,0.1-3.7-0.1-5.4,1.4c0.8,0.9,1.4,1.7,2.2,2.4c2,1.9,3.4,4.3,4.6,6.8c1.6,3.6,0.5,6.1-2.5,8.8c-2.5,2.3-5.6,2-8.4,2.7
			c-0.4,0.1-1-0.5-1.6-0.8c-1.2-0.7-2.3-1.6-3.5-2.1c-3.2-1.1-6.1-2.9-8.4-5.3c-2.2-2.3-4.6-2.6-7.5-1.4c-3.2,1.4-6.5,2.6-9.3,4.9
			c-2.8,2.3-6,2.8-9.5,1.9c-2.9-0.7-5.9-1.4-8.5-2.9c-2.2-1.2-2.6-2-1.9-4.4c1.4-4.5,4.7-7.5,8.7-9.6c3.8-1.9,7.8-3.4,12.1-4
			c2.7-0.3,5.3-1.3,7.9-2.1c0.2-0.1,0.3-1,0.2-1.5c0-0.2-0.4-0.5-0.7-0.6c-4.4-2.3-7.6-6.1-11.3-9.2c-4.1-3.4-8.4-5.3-13.8-4.5
			c-3.2,0.5-6.4,0.9-9.2,2.6c-2.7,1.5-5.5,2.6-8.4,3.6c-3,1-6,2.3-8.9,3.5c-1,0.4-2,1-3,1.1c-5.8,0.2-11.6,0-16.6-3.6
			c-1.6-1.2-3.2-2.3-4.8-3.5c-0.2-0.2-0.7-0.4-0.6-0.6c0.3-2.6-1.7-2.7-3.3-3.4C670.9,415.8,670.9,414.7,670.5,413.7z"/>
		<path class="st23" d="M592.8,429.8c5.6-1.2,11.2,0.7,17,1.1c3.3,0.2,6.2,1.6,9,3.2c2.7,1.5,5.3,3,8,4.5c2.5,1.5,5.1,1.8,7.8,0.6
			c3.8-1.7,7.6-3.2,11.4-4.8c5.5-2.4,11.4-3.5,17.3-3.6c4.6-0.1,9.1,0,13.6,1c2.3,0.6,4.8,0.5,7.3,0.7c9.4,0.8,17.7,4.2,24.9,10.4
			c2.3,2,2.9,5,3.4,7.8c0.1,0.5,0,1.4-0.4,1.7c-2.3,2.2-3.7,5.7-7.6,5.9c-0.6,0-1.2,0.2-1.8,0.4c-3.7,1.5-7.4,1.4-11.2,0.3
			c-0.6-0.2-1.2-0.3-1.8-0.4c-3.2-0.3-4.8-2.3-5.7-5.2c-0.3-1-0.4-2.1-0.8-3.1c-0.5-1.4-1.3-2.1-2.8-1.8c-2.8,0.6-5.7,1.2-8.4,2.2
			c-3.7,1.4-7.2,3.2-11,4.6c-8.2,3-16.4,4.3-25.1,1.8c-5.7-1.6-11.3-3.7-16.7-6.1c-4.3-1.9-8.6-4-12.7-6.2c-1.6-0.8-3.2-1.2-4.8-0.8
			c-3.5,1-7,2-10.5,3.2c-1.4,0.5-2.6,1.4-3.6,2.7c-1.5,1.9-3.4,3.5-5,5.3c-0.9,1-1.7,2.1-2.4,3.3c-1.9,3.5-5.1,4.9-8.8,4.4
			c-2.5-0.4-5.2-0.2-7.5-1.6c-0.6-0.3-1.5-0.2-2.2-0.3c-3.7-0.7-5.9-3.9-4.7-7.3c1.5-4.5,3.3-8.8,6.3-12.6c2.1-2.7,4.5-4.9,7.6-6.4
			c1.2-0.6,2.5-1.2,3.7-1.8c4.8-2.6,10-3.6,15.5-3.2C590.9,429.6,591.7,429.7,592.8,429.8z"/>
		<path class="st23" d="M897.1,475.3c-3.4,2.1-6.9,4-11,3.8c-7.1-0.3-15.3-7.1-20.3-11.7c-1.9-1.8-3.8-3.4-6.7-3.3
			c-3.6,0.1-7,0.4-9.8,2.9c-1.6,1.4-3.3,2.7-4.8,4.3c-4.8,4.9-10.9,6.5-17.3,7.4c-6.3,0.9-11.7-1.2-16.8-4.5
			c-4.2-2.7-8.2-5.7-11.1-9.9c-0.8-1.2-3.2-2-2.5-3.4c0.9-1.9,3.3-0.6,5-0.7c1.3,0,2.7,0.5,4,0.9c3.6,1.2,6.9,0.8,9.7-1.9
			c2.1-2,4.5-3.7,6.5-5.8c3.8-4,8.6-5.7,13.9-6.1c3.2-0.3,6.4-0.3,9.6-0.2c8.2,0.4,16.4,1.3,24.5,2.9c0.9,0.2,1.7,0.6,2.5,1
			c0.7,0.3,1.2,0.9,1.9,1.3c1.8,1.3,3.5,3.3,5.6,3.8c1.8,0.5,4.1-0.7,6.2-1.1c5.1-1,10.2-1.2,15.4,0.2c3.5,0.9,7.2,1.3,10.8,2
			c2.5,0.5,5,1.1,7.5,1.8c5,1.3,11.9,7.8,12.4,13.3c0.6,7-7.1,7.4-11.3,3.7c-1.8-1.6-3.4-3.4-5.5-4.4c-1.5-0.7-3.2-0.9-4.9-1.1
			c-2-0.2-4.2-0.2-6.1,0.6C901.8,472.2,899.5,473.8,897.1,475.3z"/>
		<path class="st23" d="M681.1,392.4c-0.7,0.1-1.5,0.4-2.2,0.4c-0.9-0.1-1.9-0.2-2.5-0.7c-3.6-2.9-7.5-3.1-11.5-1.4
			c-2.5,1.1-5,2.3-7.2,3.8c-3.1,2-6.1,4.1-8.9,6.5c-2.4,2.1-4.5,4.6-6.7,6.8c-6.2,6.1-13.8,9.5-22.2,11c-2.6,0.5-5.5-0.4-8.1-1
			c-5.4-1.3-10.4-3.6-15.3-6c-0.7-0.3-1.3-0.8-2-1.1c-6.6-3.7-12.6-3.1-17.9,2.2c-3.2,3.2-7,5.3-10.9,7.4c-1.6,0.9-3.3,1.2-5.2,0.6
			c-1.9-0.6-3.9-0.5-5.9-0.8c-1-0.2-2.1-0.5-3.1-0.9c-2-0.8-2.6-1.8-2.1-3.9c1.1-5.8,3.9-10.7,9.1-13.7c5.8-3.4,11.9-6.3,18.9-6
			c0.2,0,0.3,0,0.5,0c9.2-1.9,17.8,0.7,26.4,3.6c5,1.7,5,1.8,8.8-1.9c5.4-5.2,11.1-10,17.1-14.4c4.5-3.3,9.5-5.3,15-6.6
			c6.1-1.4,12.4-1.9,18.6-2.1c3.9-0.1,7.8,1.1,11.7,1.8c1.3,0.2,2.6,0.8,3.9,1.3c0.5,0.2,1.1,0.7,1.2,1.1c0.5,2,2,2,3.5,2.2
			c0.6,0,1.6,0.3,1.6,0.4c0,2.3,2.8,1.9,3.5,3.8c1.1,3-1.2,7.3-4.4,7.8c-1.2,0.2-2.4,0-3.6,0C681.1,392.6,681.1,392.5,681.1,392.4z"
			/>
		<path class="st23" d="M664.9,541.5c3.8-0.4,7.2,0.4,10.6,1.4c4.9,1.6,9.8,3.4,14.2,6.2c1,0.6,2.1,1.2,3.2,1.7
			c2.3,1.1,4.7,1.3,7.1,0.5c4.4-1.3,8.6-3,12.6-5.4c3.9-2.3,8.1-4.3,12.3-6c4.7-1.9,9.6-2.8,14.5-4c1.5-0.3,3-0.2,4.6-0.2
			c1.5-0.1,3.1,0,4.6-0.1c8.7-0.8,17,1,24.8,4.7c4.2,2,6.6,5.8,8,10.1c1.4,4.4-1.2,8.3-5.7,9c-2.5,0.4-5.1,0.5-7.7,0.5
			c-0.8,0-1.7-0.7-2.2-1.4c-0.9-1-1.8-1.4-3.1-1.6c-2.1-0.3-4.1-1.1-5.7-2.7c-1.4-1.5-2.8-1.5-4.6-0.7c-2.1,0.9-4.3,1.5-6.3,2.6
			c-7,4.1-14.5,7.2-22.1,9.9c-7.7,2.7-15.6,4-23.8,2.6c-3.1-0.5-6.3-1-9.4-1.8c-2-0.5-4-1.6-5.9-2.4c-1.9-0.9-3.9-1.7-5.8-2.7
			c-2.8-1.5-5.6-3.1-8.3-4.8c-2.7-1.6-4.4-1.9-6.7,0.1c-3.1,2.6-6.5,4.5-10.4,5.6c-2.5,0.7-5,1.4-7.5,1.8c-1.3,0.2-2.7-0.3-3.9-0.8
			c-1.8-0.7-2.7-2.1-2.7-4.3c0.2-6.4,2.8-11.1,8.5-14.1C653.6,542.4,659.3,541.6,664.9,541.5z"/>
		<path class="st23" d="M814.5,380.6c2.1-0.3,1.9-0.3,2.6,1.1c1.1,2.5,0.1,4.5-1.3,6.3c-1.4,1.8-3.1,3.3-5.8,2.7
			c-1.5-0.3-3,0-4.6,0.1c-1.4,0.1-2.7-0.1-3.9-1c-0.4-0.4-1.1-0.7-1.6-0.8c-3-0.1-5.2-1.3-7-3.7c-0.9-1.2-2.4-1.3-3.8-0.6
			c-2,1-4.1,2.1-6,3.3c-7.3,4.4-15,4.7-22.9,2.2c-5.1-1.6-9.8-4.2-14.5-6.7c-4.4-2.3-8.6-2.6-13,0c-2.4,1.4-4.9,2.4-7.4,3.6
			c-2.4,1.1-4.9,1.6-7.6,0.8c-1-0.3-2.1-0.2-3.2-0.4c-1.6-0.4-3.3-0.7-4.8-1.4c-2-0.8-2.6-2-1.6-4c2.2-4.8,5-9.1,10.5-10.7
			c2-0.6,4-1.4,6.1-2c3.1-1,6.3-1.1,9.5-0.6c1.2,0.2,2.5,0.6,3.6,0.4c2.9-0.6,5.7,0.2,8.5,0.5c2.6,0.3,5,1.1,7.4,2.3
			c0.9,0.5,1.9,0.9,2.9,1.4c1.9,0.9,3.8,0.9,5.7-0.2c3.2-1.9,6.7-2.8,10.2-3.8c3.6-1,7.2-1,10.9-0.6c2,0.2,4,0.5,5.9,0.4
			c6.6-0.4,12.6,2,18.4,4.5c1.1,0.5,2.1,1.3,3.2,1.7c2.1,0.8,3.2,2.2,3.1,4.5C814,380.1,814.3,380.3,814.5,380.6z"/>
		<path class="st23" d="M567,514.6c2.9,0.1,5.8,0.1,8.6,0.3c1.5,0.1,3,0.4,4.5,0.9c7,2.3,13.7,5.2,18.9,10.7
			c0.4,0.4,0.9,0.8,1.3,1.3c2.5,2.9,5.5,4.1,9.3,3.8c1.5-0.2,3.1,0,4.6-0.1c3.9-0.4,7.2,1.1,10.4,2.9c1,0.6,1.9,1.5,2.8,2.3
			c3.2,3,1.7,8.7-2.5,10c-1,0.3-2,0.7-3,1c-1.3,0.4-2.6,0.8-3.4,2.1c-0.4,0.8-1.2,0.6-2,0.6c-1.6,0-3.3,0.4-4.9,0.7
			c-1.2,0.2-2.3,0.6-3.5,0.9c-1.6,0.3-2.7-0.2-3.3-1.8c-0.7-2-2.3-3-4.2-3.9c-3.3-1.5-6.5-3.3-9.8-5c-0.9-0.5-1.8-1.2-2.7-1.8
			c-1.9-1.3-3.8-2.5-5.6-3.9c-2-1.4-3.9-2.9-5.8-4.4c-0.7-0.6-1.3-1.3-2-1.8c-1.7-1.4-3.6-1.8-5.5-0.5c-2,1.4-3.9,2.9-5.5,4.7
			c-1.5,1.6-3.2,2.9-5.2,3.7c-1.8,0.7-3.6,1.6-5.7,0.9c-0.7-0.2-1.5,0.1-2.2,0.1c-1.4,0-2.8,0.1-4-0.3c-2.5-0.7-3.8-2.4-4-5
			c-0.1-0.9,0-1.8,0.1-2.7c0.7-4.2,3.1-7.6,5.6-10.8c0.7-0.9,1.9-1.4,3-2c3.9-1.8,8-3,12.4-2.8c1.1,0.1,2.1,0,3.2,0
			C567,514.7,567,514.6,567,514.6z"/>
		<path class="st23" d="M841.8,530.6c7.9,0.5,14.9,1.6,21.1,5.7c2.9,2,3.3,4.9,3.4,7.9c0,1-0.9,2.3-1.8,3c-2.9,2-6.2,3-9.7,3.4
			c-0.3,0-0.7,0-0.9-0.1c-2-1.9-5-1.4-7-3c-3.8-2.8-7.2-1.4-10.4,0.9c-2.2,1.6-4.3,3.4-6.4,5.1c-2.3,1.8-4.8,3.1-7.9,3.2
			c-0.6,0-1.3,0.2-1.8,0c-3.1-1.4-6.5-1.2-9.8-2.1c-0.7-0.2-1.4-0.5-2.1-0.8c-1-0.4-1.3-1.2-1.1-2.2c0.9-5.9,3.3-10.7,8.8-13.6
			c1.9-1,3.8-2,5.7-2.9c0.8-0.4,1.6-0.9,2.5-1.1C830.2,532.7,836.3,531,841.8,530.6z"/>
	</g>
	<g id="glasses">
		<path id="glasses-arm2" class="st30" d="M216.5,784c28.1-16.1,56.3-32.3,83-50.7c14.8-10.3,29.6-21.5,47-26.3
			c29.8-8.4,61.8,3.3,92.5-0.7c4.9-0.6,10.7-1.4,13.9,2.3c3.6,4.1,0.9,11.1-3.9,13.9c-4.8,2.7-10.6,2.4-16.1,1.9
			c-18.5-1.4-37-2.8-55.5-4.3c-8.7-0.7-17.5-1.3-25.9,0.9c-9.5,2.5-17.6,8.4-25.6,14c-57.3,40.4-119.2,73.7-181,106.8
			c-4.1,2.2-8.5,4.4-13.1,4c-6.3-0.6-10.3-6.8-4.6-10.7c6.9-4.7,14.7-8.4,22-12.6c14.4-8.2,28.8-16.5,43.2-24.7
			C200.5,793.2,208.5,788.6,216.5,784z"/>
		<path id="glasses-arm1" class="st30" d="M340.9,685.5c-37.5,36-78.4,68.4-121.9,96.7c-9,5.8-18.3,11.7-24.8,20.1
			c-5.1,6.5-8.3,14.3-11.3,22c-10.6,27.1-19.6,55-24.1,83.8c-1.1,6.7-0.4,15.8,6.2,17.4c6.6,1.7,11.5-6,13.9-12.4
			c8.5-22.6,15.6-45.7,21.4-69.1c2.4-9.7,4.6-19.5,9.5-28.2c6.5-11.6,17.2-20.1,27.7-28.3c54.1-42.5,108.3-85,162.4-127.5
			c4.9-3.8,11-9.2,8.3-16.1c-2.2-5.7-7.5-5.7-12.5-3.8c-13.3,5.3-25.4,17.5-35.7,27.1C353.4,673.3,347.2,679.4,340.9,685.5z"/>
		<g id="glasses-lenses">
			<path class="st31" d="M415.5,702c-0.6-9.9-1.7-19.7-3-29.5c-0.6-4.8-1.3-9.6-2.1-14.4c-0.6-3.9-0.3-10.5-2.4-13.9
				c-3.2-5.1-12.9-0.3-17.9,0.7c-8.6,1.8-17.2,4-25.5,6.9c-9,3.1-17.7,7.1-25.5,12.6c-7.2,4.9-13.5,11-19.8,16.9
				c-5.4,5.2-10.9,10.3-16.3,15.5c-5.5,5.2-11,10.5-14.7,17c-3.8,6.5-5.6,14.5-3.1,21.6c1.9,5.4,6,9.7,10,13.8
				c7.8,7.9,15.9,15.8,25.7,21c15.1,7.9,33.9,8.6,49.5,1.6c5.8-2.6,11.2-6.2,16.2-10c4.8-3.7,9.4-7.7,13.2-12.5
				c3.7-4.6,6.5-9.7,9.3-14.9c1.9-3.6,3.9-7.3,5.1-11.3C416.1,716.4,415.9,709.1,415.5,702z"/>
			<path class="st31" d="M240.4,764.6c-7.1-2.4-14.8-2.7-22.3-2.8c-9.9-0.1-20,0.1-29.4,3c-14,4.3-25.6,14.1-36.4,24.1
				c-8.1,7.5-16.1,15.4-21,25.3s-6.3,22.1-1,31.8c3.3,6,8.8,10.4,14.1,14.7c5.7,4.5,11.4,8.9,18.1,11.6c9.4,3.9,19.9,4.1,30,4.2
				c11.3,0.2,23,0.2,33.4-4.2c5.5-2.3,10.4-5.8,15.3-9.3c5.6-4,11.4-8.1,15.2-13.9c3.1-4.7,4.6-10.1,6.1-15.5
				c1.8-6.5,3.6-13,4.3-19.6c1-9.4,1.3-26.7-3.8-35.1C259,772.5,247.4,767,240.4,764.6z"/>
		</g>
		<path id="glasses-lines" class="st30" d="M421.1,712c1-15-1.6-30.2-7.6-44.2c-1.9-4.4-1-8.1,2.1-11.5c0.1-0.1,0.1-0.2,0.2-0.2
			c2.7-2.4,4-5.6,5.4-8.7c0.9-2.1,1-4.3-0.2-6.6c-2.1-4.2-5.2-7.1-9.5-9.1c-4.2-1.9-8.2-2.5-12.4-0.1c-0.3,0.2-0.8,0.2-1.2,0.2
			c-2,0-3.7,0.9-5,2.2c-4.5,4.5-14.7,7.3-20.6,9.3c-7.6,2.6-15.5,4-23,6.8c-14,5.1-25.3,14.4-37.3,22.7c-5.2,3.6-9.7,8-14,12.5
			c-6.9,7.2-13.6,14.7-18.6,23.3s-8.5,18.3-8.6,28.3c0,3.5,0.4,7.1-0.7,10.4c-1.5,4.3-8.6,8.2-12.7,9.8c-3.5,1.4-6.9,3.2-10.8,2.5
			c-1.8-0.3-3.7-0.7-5.4-1.4c-7.6-3-15.7-3.9-23.7-3.1c-7.6,0.7-15.1,2.3-22.5,4c-3.7,0.8-7.3,2.6-10.8,4.2
			c-25.4,11-45.7,29.1-59.8,53c-5,8.5-12,15.9-21.1,20.3c-0.4,1.4-0.7,2.9-0.9,4.4c-0.3,1.6,0,3.9,1,5c1.9,2.2,4.2,4.3,6.8,5.4
			c5.9,2.4,12.3,3,18.2,5.4c5.8,2.3,11.2,5.7,16.4,9.2c13.8,9.2,28.4,19.2,45.8,18.8c4.2-0.1,8.5-1.1,12.7-1.8
			c3.7-0.7,7.4-1.3,11-2.5c9.5-3.2,18.6-7.5,27.5-12c4.7-2.4,9.2-4.9,12.6-9.1c0.6-0.7,1.4-1.3,2.1-1.9c6.8-5.4,11.3-12.6,14.9-20.3
			c3-6.4,2.2-13.4,2.3-20.2c0.2-8.9-0.4-17.9-1.8-26.7c-0.7-4-1.6-8.8-0.1-12.8c1.4-3.7,5-5.6,7.6-8.4c7.6-7.9,16.7-6.4,26-1.8
			c6.3,3.2,12.1,7.4,18.5,10.5c15.8,7.6,35,7.3,51,0.9c2.6-1,5.3-2.1,7.7-3.5c8.3-4.6,17.6-9.6,23-17.5
			C414.9,743.8,420,728.1,421.1,712z M258.7,814.1c-0.5,5.3-1.1,10.6-1.7,15.9c-0.9,7-4.6,12.5-9.4,17.3c-3.8,4-7.9,7.7-11.9,11.5
			c-0.5,0.5-1.1,1-1.7,1.4c-7.6,4.4-15.4,8.6-23.8,11.1c-6.9,2.1-14.1,4.5-21.5,3.3c-4.1-0.6-8.1-2-12.1-3
			c-4.5-1.2-8.3-3.9-12.1-6.4c-4.7-3-8.3-6.8-12.8-9.9c-4.9-3.5-9.8-6.8-14.3-10.8c-8.5-7.5-3.8-25.1,0.7-33.4
			c4.4-7.9,11.2-14.1,18.4-19.4c6.9-5.1,13.2-10.5,20.2-15.4c5.8-4,12.4-6,19-8c4.7-1.5,9.4-2.8,14.4-2.6c1,0,2.1-0.3,3.1-0.6
			c5.6-1.8,11.1-1.2,16.6,0.5c2.8,0.8,5.6,1.6,8.5,2.2c4.4,1,7.4,0.6,11.2,3.3c3.8,2.7,6.5,6.6,8,10.9c2,5.7,2.1,11.8,2,17.8
			C259.4,804.5,259.1,809.3,258.7,814.1z M396.4,654.1c1.1,1.9,0.7,6.1,1.2,8.4c0.8,3.5,2,6.9,3,10.3c4.6,15.2,6.9,31.2,6.6,47.1
			c-0.1,7.3-1,14.9-3.9,21.7c-2.8,6.5-6.4,8.7-11.8,12.4c-11.6,7.9-21.7,18.1-36.9,17.8c-18.4-0.4-35.9-7.9-52.1-16.6
			c-3.8-2-7.7-4.2-10.7-7.2c-7.5-7.4-5.6-17-1.9-25.9c6.1-14.7,16.8-27.1,29.1-37.2c12.3-10.1,26.2-18,40.3-25.5
			c7.2-3.8,13.4-5.9,21.5-6.2C384.9,652.9,393.3,649.3,396.4,654.1C396.4,654,396.4,654,396.4,654.1z"/>
	</g>
</g>
<g id="Topping-Mood">
	<g id="Angry-toppings_1_">
		<path id="Gochujang_1_" class="st81" d="M673.9,486.3c-0.7,0.6-1.4,1.1-2,1.7c-3,3.1-3.1,8.1-1.8,12.2c2.3,7.8,9.1,14.1,17,15.9
			c3.9,0.9,8,0.8,11.8,2c2.2,0.7,4.2,1.9,6.4,2.7c4.7,1.7,9.9,1.5,14.9,1.2c9.1-0.5,21.4,1.2,30.2-1.5c4.3-1.3,5.4-4.2,8.9-6.8
			c4.8-3.7,9.2-3.5,14.9-4.6c4.3-0.9,9-4.3,8.2-8.6c-0.2-0.8-0.5-1.5-0.5-2.3c-0.1-1.5,1-2.8,1.8-4.1c2.9-4.8,2.1-11.4-1.8-15.4
			c-1.9-1.9-4.6-3.5-5.1-6.1c-0.4-1.7,0.3-3.5,0.3-5.2c0.1-4-3.1-7.4-6.6-9.4c-3.5-2-7.5-3-11-5.1c-4.9-2.9-8.5-7.5-13.1-10.8
			s-11.2-5.1-15.8-1.8c-1.6,1.2-2.8,2.9-4.7,3.3c-1.5,0.4-3-0.2-4.6-0.5c-8-1.6-15.9,3.1-22.3,8.1c-4.8,3.7-16.4,10.1-19.1,15.5
			c-1.4,2.8-1.3,6-1.4,9.1c-0.1,3.1-0.5,6.4-2.5,8.8C675.2,485.3,674.6,485.8,673.9,486.3z"/>
		<g id="Nori_1_">
			<path id="nori-fill_1_" class="st80" d="M810.2,458c-13.8-0.3-31.8-9.5-42.2-12.9c-17.5-5.7-35-11.9-52.2-18.4
				c-8-3-16-6.1-23.9-9.4c-2.8-1.1-12.7-2-13.2-4.1c-0.8-3.5,27.5-26.7,31.2-30.6c4.7-5,13.4-13.5,18-18.6
				c7.7-8.6,12.2-18.2,19.8-27c10.2-11.8,13.9-24.6,21.8-38c6.4-10.7,12.3-21.7,18.6-32.5c3-5.2,6.2-10.2,9.4-15.3
				c1.7-2.7,4.5-4.2,7.5-3.7c2.9,0.5,5.8,1.9,8.4,3.4c10.5,5.9,18.3,14.9,27.2,22.6c7.7,6.7,15.1,13.7,23,20.1
				c9.4,7.6,19.2,14.8,29.7,20.8c6.2,3.5,12.2,7.3,18.3,11.1c0.8,0.5,1.6,0.9,2.2,1.5c4,3.9,5,7.3,1.5,11.2
				c-2.9,3.2-4.7,7.3-7.3,10.7c-9.9,12.8-19.8,25.5-30.1,38c-6,7.3-12.7,14-18.8,21.1c-4.3,5-8.2,10.3-12.1,15.7
				c-5.9,8.1-11.8,16.3-17.5,24.6c-2.3,3.3-5.4,5.2-8.7,7.2C817.8,457.4,814.2,458.1,810.2,458z"/>
			<path id="nori-lines_1_" class="st30" d="M810.6,436.1c3.4-8,9.5-14.1,14.3-21.2c2.1-3.2,4.4-6.2,6.7-9.3
				c1.2-1.7,2.3-3.4,3.7-4.9c1.3-1.4,3.1-2.4,4.3-3.9c1.8-2.1,3.2-4.4,5.2-7.3c0.6-0.4,2-1.2,3-2.4c3.1-3.6,6.1-7.2,9-10.9
				c4.7-6,9.3-12.1,13.9-18.3c0.9-1.2,1.4-2.6,2.1-4c0.6-1.1,1-2.4,1.7-3.4c2.8-3.9,5.7-7.8,8.6-11.7c1.9-2.6,3.8-5.1,5.4-7.9
				c1.4-2.3,1-3.2-1.3-4.8c-2.7-1.8-5.5-3.2-8.2-5c-7.9-5.2-16.1-9.9-23.4-15.8c-13.1-10.5-25.7-21.8-38.5-32.7
				c-0.9-0.8-2-1.4-3.4-2.4c-2.5,4-4.8,7.6-7,11.3c-5.4,9.1-10.5,18.4-16.1,27.3c-4.7,7.4-9.6,14.8-15.2,21.6
				c-7.8,9.6-16.3,18.5-24.5,27.8c-5.3,6.1-11.8,10.9-17.8,16.2c-6.7,6-13.4,12.2-19.6,18.8c-5.1,5.5-11.2,9.6-17.1,14
				c-1.1,0.9-2.3,1.6-3.4,2.5c-5.1,3.9-10.9,3.7-16.8,2.7c-2.1-0.4-2.3-1.8-0.6-3.2c10.9-9.5,20.2-20.5,30-31.1
				c4.7-5,10.1-9.4,14.7-14.5c7.7-8.6,15-17.7,22.5-26.5c10.2-11.8,18.6-24.9,26.6-38.3c6.4-10.7,12.3-21.7,18.6-32.5
				c3-5.2,6.2-10.2,9.4-15.3c1.7-2.7,4.5-4.2,7.5-3.7c2.9,0.5,5.8,1.9,8.4,3.4c10.5,5.9,18.3,14.9,27.2,22.6
				c7.7,6.7,15.1,13.7,23,20.1c9.4,7.6,19.2,14.8,29.7,20.8c6.2,3.5,12.2,7.3,18.3,11.1c0.8,0.5,1.6,0.9,2.2,1.5
				c4,3.9,5,7.3,1.5,11.2c-2.9,3.2-4.7,7.3-7.3,10.7c-9.9,12.8-19.8,25.5-30.1,38c-6,7.3-12.7,14-18.8,21.1
				c-4.3,5-8.2,10.3-12.1,15.7c-5.9,8.1-11.8,16.3-17.5,24.6c-2.3,3.3-5.4,5.2-8.7,7.2c-5.4,3.2-11,2.4-16.7,1.6
				c-1.4-0.2-2.3-1.2-2.3-2.7c0-1.3,0-2.6,0.6-3.7c2.1-4.5,4.5-8.8,6.7-13.2c0,0.5,0.1,0.9,0.1,1.4c0.2,0,0.5,0.1,0.7,0.1
				C810.1,438.1,810.4,437.1,810.6,436.1z M889.1,351.3c0.1-0.2,0.3-0.3,0.3-0.5c0-0.2-0.2-0.4-0.3-0.5c-0.1,0.2-0.3,0.3-0.3,0.5
				C888.8,351,889,351.2,889.1,351.3z"/>
		</g>
		<g id="Angry-Egg_1_">
			<path id="angry-egg-white_1_" class="st43" d="M535.7,384.8c-0.1-16.4,2.7-31.3,9.2-45.5c3.1-6.8,8.1-12.2,13.1-17.7
				c2.9-3.1,6-6,10.2-6.6c7.5-1,14.9-3.4,22.7-2.7c6.7,0.6,13.5,0.9,20.3,1.6c2.4,0.3,4.8,1.3,7.1,2.2c2.7,1.2,5.3,2.5,7.9,4
				c1.6,1,2.9,2.3,4.3,3.6c1.1,0.9,2.2,1.9,3.3,2.8c2.7,2.1,5.3,4.1,8,6.2c2.3,1.8,4.8,3.4,7,5.3c3.4,2.7,7.1,5.3,10.1,8.5
				c7.3,7.9,14.5,15.9,21.4,24.1c9,10.8,14.3,23.2,14.7,37.5c0.1,5.4,0.8,10.8-0.3,16.3c-1.7,8.2-5.5,15.3-10.6,21.6
				c-5.2,6.4-11.2,12.1-17.2,17.8c-7,6.7-16,10.1-25.1,12.4c-12.1,3-24.5,5.3-37.2,4.5c-2-0.1-4.1-0.2-6.1-0.6
				c-8.8-1.8-17.5-4.4-25.4-8.8c-6.5-3.6-12.5-7.9-17.2-14.1c-7.7-10.3-12.2-21.8-15.5-33.9C536.9,410.5,535.1,397.4,535.7,384.8z"
				/>
			<path id="angry-egg-yolk_1_" class="st82" d="M614.9,386.2c-5.4,4.4-9.2,10.6-12.1,17c-3.1,6.9-5.3,14.3-5,21.8
				c0.3,7.5,3.5,15.2,9.6,19.7c7.7,5.7,18.4,5.4,27.4,2.2c7.7-2.8,14.9-7.8,18.7-15.1c2.2-4.3,3.1-9.1,3.5-13.8
				c0.7-8,0.1-16.4-3.6-23.6C646.1,380,627.2,376,614.9,386.2z"/>
			<g id="angry-egg-lines_1_">
				<path class="st30" d="M695,408.3c-0.4-14.3-5.7-26.7-14.7-37.5c-6.9-8.3-14.1-16.3-21.4-24.1c-3-3.2-6.7-5.7-10.1-8.5
					c-2.3-1.8-4.7-3.5-7-5.3c-2.7-2-5.4-4.1-8-6.2c-1.1-0.9-2.2-1.9-3.3-2.8c-1.4-1.2-2.8-2.6-4.3-3.6c-2.5-1.5-5.2-2.9-7.9-4
					c-2.3-1-4.7-2-7.1-2.2c-6.7-0.7-13.5-1-20.3-1.6c-7.8-0.7-15.2,1.7-22.7,2.7c-4.1,0.6-7.3,3.4-10.2,6.6
					c-5,5.4-10,10.9-13.1,17.7c-6.5,14.2-9.3,29.1-9.2,45.5c-0.6,12.6,1.2,25.6,4.7,38.5c3.3,12.2,7.7,23.7,15.5,33.9
					c4.7,6.3,10.7,10.5,17.2,14.1c7.9,4.4,16.6,6.9,25.4,8.8c2,0.4,4.1,0.5,6.1,0.6c12.7,0.8,25-1.5,37.2-4.5
					c9.1-2.3,18.1-5.7,25.1-12.4c5.9-5.7,12-11.4,17.2-17.8c5.1-6.3,9-13.4,10.6-21.6C695.8,419.1,695.2,413.7,695,408.3z
					 M566.2,405.8c-1.1-6.7-1.9-13.4-2.6-20.2c-0.8-8.2-1.4-16.4-1.9-24.6c-0.5-8,0.5-16,3.2-23.5c2.1-5.8,5.7-11,12.7-12.4
					c4.3-0.9,8.6-2,13.1-1.5c2.8,0.3,5.6,0.5,8.4,0.6c5.9,0.2,11.3,1.7,16.1,5.2c4.9,3.6,10.1,6.7,14.6,10.6
					c8.7,7.7,15.2,17.2,21.3,27.3c-3.2,4.8-6,9.3-9.3,13.4c-1.2,1.5-3.5,2.1-5.4,3.1c1.9,3,1.9,3-0.3,6.6c-1.6,2.6-3.4,5.1-5.1,7.7
					c-0.8,1.2-1.4,2.5-2.2,4c4.7,1.5,6.9,4.3,7.2,8.8c0.1,2,1.9,2.3,3.4,1.7c3.2-1.3,6.4-2.9,9.5-4.5c1.9-1,1.8-2.4,0.6-4
					c-1.2-1.6-2.3-3.4-3.2-5.2c-0.7-1.4-0.8-2.9,1.9-4.8c0.3,0.8,0.6,1.6,1,2.4c3.5,6.7,4.8,13.9,4,21.3c-0.3,2.3-1.2,4.7-2.5,6.5
					c-3.7,4.9-7.6,9.8-12,14.1c-7.1,7-15.8,8.7-24.9,5.1c-5-2-9-6-11-11.5c-0.7-2.1-1.8-4-2.6-6c-0.6-1.5-1.3-3-1.4-4.5
					c-0.1-1.1,0.5-3.2,1.1-3.3c1.2-0.3,2.9,0.2,3.9,1c2.3,1.9,4.3,4.3,6.7,6.7c-0.4,0.7-1.1,1.6-1.5,2.7c-0.3,0.8-0.2,1.8-0.3,3.6
					c3.2-2,5.7-3.4,8.1-5c2-1.3,3.8-2.8,5.7-4.2c2.9-2.2,3.5-4.1,1.4-6.7c-1.6-2.1-2.4-4.2-1.6-6.9c-6.7-2.2-13.3,1-19.8,0
					c-0.2-3.9,0.9-7.1,3.2-9.7c4.9-5.3,9.7-10.7,14.8-15.7c1.3-1.3,3.5-1.8,6-3c-3.2-1.1-5.7-0.8-8.1,0.2
					c-12.9,5.2-22.5,13.9-27.4,27.2c-1,2.7-2.3,4-5.2,4.4c-5,0.8-10,2.1-15.3,3.2C568.1,413.2,566.8,409.6,566.2,405.8z
					 M643.2,404.6c-0.7,0.9-1.7,1.8-2.8,2.2c-0.3,0.1-1.9-1.5-1.7-1.9c0.4-1,1.4-1.7,2.6-3C642.3,403.2,643.4,404.4,643.2,404.6z
					 M608.9,417.1c2.7-1,4.8-1.8,7-2.5c1.4-0.4,2.6,0,3.2,1.5c0.6,1.7-0.4,2.4-1.7,3C613.9,421,612,420.7,608.9,417.1z M668.8,434.2
					c-4.9,11.4-13.6,19.7-23.1,27.4c-4.8,3.9-9.9,7.2-16.1,7.8c-6.3,0.5-12.7,1.1-18.9,0.3c-6.3-0.9-12.4-3.5-17.3-8.1
					c-1.8-1.7-3.7-3.3-5.5-5.2c-5.7-6-8.5-13.7-11.8-21c-1.5-3.4-2.6-6.9-3.8-10.4c-0.5-1.3-0.7-2.8-1.1-4.6
					c5.9-0.5,10.9-0.9,16.5-1.4c0.2,1.9,0.6,3.5,0.6,5c0.2,6.6,1.6,12.8,4.8,18.6c3.3,6,8.1,10.4,13.8,14c1.2,0.7,2.8,1,4.2,1.1
					c2.5,0.2,5,0,7.4,0.4c11.5,1.6,21.4-1.9,30.7-8.4c6.9-4.9,10.3-11.8,12.6-19.5c1-3.2,1.9-6.5,3.1-9.7c1-2.5,0.8-4.9-0.1-7.3
					c-1.7-5-3.2-10.1-5.1-15c-1.3-3.3-2.8-6.5-4.7-9.4c-2.2-3.5-2.4-3.4-0.3-7c0.4-0.8,0.9-1.5,1.5-2.2c0.3-0.3,0.7-0.4,1.3-0.8
					c2.5,2.3,4.1,5.3,5.6,8.2c4.7,9.1,7.4,18.9,8.5,29.1C672.5,422.5,671.2,428.5,668.8,434.2z"/>
				<path class="st30" d="M631.4,432.8c0.4,1.2,1,2.5,1.9,3.1c0.4,0.3,2-0.7,2.8-1.4c2.7-2.5,5.3-5.1,7.8-7.8c0.6-0.6,1-1.8,0.8-2.7
					c-0.3-2.5-3.7-5.4-6.2-5.5c-2.8-0.2-5.2,1.6-6.1,4.8c-0.6,2.3-1,4.6-1.4,6.9c0.1,0,0.2,0,0.3,0.1
					C631.4,431,631.1,432,631.4,432.8z M637.3,422.8c2.9,2.3,2.9,2.6-1,4.4C636.7,425.5,637,424.3,637.3,422.8z"/>
			</g>
		</g>
		<g id="Menma_1_" class="st40">
			<path class="st140" d="M792.1,405.5c-4.7,0.8-10,2-12.4,6.1c-1.8,3-1.4,7.1,0.4,10.1c1,1.7,2.6,3.3,2.9,5.3
				c0.2,1.6-0.4,3.2-0.9,4.7c-2.7,7.5-4.4,15.4-5,23.3c-0.2,3-0.3,6.2,1,9c1.1,2.3,3,4.2,4.9,5.9c17.8,16.3,38.9,31,63,32.8
				c1.9,0.1,3.9,0.2,5.8-0.5c2.1-0.8,3.7-2.3,5.3-3.9c3.1-3,6.1-6,9.2-9c2.2-2.2,4.7-5.3,3.3-8.2c-0.4-0.9-1.1-1.5-1.7-2.3
				c-1.8-2.5-1.6-6.3,0.5-8.7c3.5-3.9,9.7-2.8,14.9-3.1c7.5-0.6,14.6-5.3,17.9-12c1.1-2.2,1.7-5,0.1-6.9c-0.5-0.6-1.3-1.1-2-1.5
				c-6.9-4-13.8-7.9-20.7-11.9c-15.1-8.7-30.2-17.4-46.1-24.6c-1.9-0.8-3.8-1.7-5.9-1.7c-2.4,0-4.7,1.1-7,1.4c-5.9,0.7-7-3.6-11.1-6
				C804.5,401.5,796.5,404.7,792.1,405.5z"/>
			<path class="st141" d="M906.2,439c-1.4-0.2-2.9,0.3-4.3,0.4c-0.9,0.1-2,0.6-2.8,0.3c-4.6-1.5-9.4-2.4-13.6-5
				c-1.6-1-3.4-1.8-5.1-2.7c-6-3.2-12-6.2-17.9-9.6c-3.6-2-6.9-4.5-10.3-6.8c-2.5-1.7-5.1-3.3-7.6-4.9c-3.4-2.1-6.8-4.1-10.2-6.3
				c-5.9-3.9-10.3-3.5-15.2,1.5c-2.4-0.6-3.3-2.7-4.5-4.4c-1.5-2.1-3.4-3-5.9-2.6c-1.5,0.2-3.1,0.6-4.6,1c-3.8,1-7.6,2.4-11.7,2.3
				c-2.3-0.1-4.6,0.3-6.9,0.7c-4.9,0.8-9.2,2.4-9.7,8.4c0,0.2-0.1,0.5-0.2,0.7c-2.2,4.7-1.7,8.8,1.9,12.7c2.2,2.3,2.1,3.6,0.3,6.4
				c-0.5,0.8-0.9,1.7-1.3,2.6c-1.2,2.6-2.3,5.3-3.7,7.8c-3,5.7-4.3,11.5-1.6,17.7c1,2.3,1.6,4.9,2.9,7c1.5,2.4,3.3,4.7,5.4,6.6
				c2.1,1.9,4.7,3.3,7.2,4.8c2.2,1.4,4.4,3.1,6.8,4.1c4.7,2,9,4.6,13.3,7.4c2.6,1.7,5.3,3.4,8.1,4.8c10,5.1,20.1,10.2,30.2,15.2
				c2.9,1.4,6.1,1,8.6-0.9c4.1-3.2,8-6.7,11.8-10.2c3.7-3.3,7.2-6.8,10.7-10.3c1.1-1.1,1.9-2.5,2.6-3.9c1.1-2.3,0.5-4.1-1.7-5.5
				c-1.1-0.7-2.1-1.6-3.2-2.2c-0.9-0.5-1.9-0.8-2.9-1.1c-0.7-0.3-2-0.6-2-1c-0.1-0.8,0.3-1.8,0.9-2.5c2.1-2.6,4.9-2.2,7.7-1.8
				c2.1,0.4,4.2,1.3,6.3,1.5c5.3,0.5,10-0.6,13-5.6c0.3-0.5,1-0.7,1.4-1.1c1.1-1.1,2.4-2.1,3.1-3.4c2.8-5.2,5.3-10.6,8-15.9
				C910.9,442.5,909.2,439.3,906.2,439z M788.9,408.5c1-0.2,2.1-0.4,3.1-0.6c2.8,2.6,4.8,6.2,7.5,9c2.5,2.5,5.2,4.8,7.6,7.4
				c6.6,7.1,13.4,13.9,20.7,20.3c-7.9-9.5-15.9-19-23.8-28.5c-1.5-1.8-2.9-3.7-4.5-5.5c-0.9-1-1.8-1.9-2.8-2.7
				c-0.3-0.3-0.7-0.5-1-0.7c1.2-0.2,2.5-0.5,3.7-0.7c0.8,1.4,2.5,2.7,3.6,3.8c2.4,2.7,4.7,5.4,6.8,8.2c1.7,2.2,3.3,4.5,5.1,6.5
				c1.4,1.5,2.9,2.8,4.4,4.2c2.4,2.1,4.8,4.3,7.1,6.4c-0.3-3.6-3.3-6.3-6-8.7c-6.6-5.8-12.6-12.3-17.8-19.4c-0.4-0.5-0.7-1-1.2-1.4
				c1.4-0.2,2.5,0.1,3.6,1.1c5.1,4.8,10.4,9.4,15.3,14.4c7,6.9,13.1,14.6,18.7,22.6c3.2,4.5,6.6,9,11.3,12.1
				c1.9,1.3,3.9,2.4,5.9,3.5c2.9,1.6,3.2,2.6,1.3,5.4c-0.4,0.6-1,1.1-1.4,1.7c-1.2,1.6-2.7,1.9-4.4,0.9c-1.9-1.2-4-2.3-5.7-3.8
				c-5-4-9.8-8.2-14.7-12.4c-6.4-5.5-13.5-10.2-18.7-17c-1.5-2-2.8-4.2-4.5-6.2c-5.5-6.5-11.6-12.3-18.5-17.2
				c-0.6-0.5-1.2-1-2.2-1.8C788.4,408.9,788.6,408.6,788.9,408.5z M784.2,414.4c2,1,4.2,2,5.8,3.5c6.9,6.2,13.4,12.8,19.3,20.1
				c5.5,6.8,11.8,13.1,18.9,18.5c3.2,2.4,6,5.2,8.9,7.9c0.2,0.2,0.3,0.6,0.6,1.4c-1.3-0.5-2.2-0.7-2.9-1.3
				c-3.7-2.7-7.4-5.3-10.9-8.3c-4.6-3.9-8.9-8.1-13.3-12.3c-1.9-1.8-3.7-3.8-5.4-5.8c-4.4-5-8.9-9.8-14.4-13.7
				c-1-0.7-1.7-1.7-2.6-2.5c-2-1.9-4-3.7-6.6-6C781.8,414.6,782.7,413.7,784.2,414.4z M811.1,486.3c-4.9-2.8-10-5.3-14.9-8.1
				c-7-4-13.4-9.1-17.6-16.4c-0.4-0.6-0.7-1.3-0.9-2c-0.2-0.5-0.3-1.1-0.5-2.2c1.1,0.3,1.9,0.2,2.5,0.7c3.5,2.6,7,5.2,10.4,7.8
				c3.8,3,7.5,6,11.3,9.1c6.8,5.5,14.6,9.5,22,14c4.7,2.8,9.4,5.5,14.1,8.3c1.2,0.7,2.1,1.8,3.1,2.7c-2.1-0.6-4.4-1-6.4-1.9
				C826.5,494.4,818.6,490.6,811.1,486.3z M840.9,500.2c1,0,2-0.1,2.3,1.6C842.4,501.2,841.6,500.7,840.9,500.2z M865.4,483.9
				c-3.7,4.3-8,8-12.7,11.3c-0.7,0.5-2.1,0.5-3,0.2c-1.5-0.5-2.8-1.3-4.2-2.1c-5.4-2.8-10.8-5.7-16.3-8.5c-6.1-3-11.8-6.6-17.6-9.9
				c-7.8-4.5-14.6-10.3-21.5-15.9c-2.9-2.3-6.2-4.1-9.4-6.1c-3-1.9-3.2-2.5-1.6-5.5c1.8-3.6,3.6-7.1,5.4-10.7
				c0.2-0.4,0.6-0.7,1.2-1.4c1.6,1.9,3.1,3.6,4.5,5.3c5.9,7.5,12.1,14.8,18.8,21.6c7.2,7.3,15.7,12.5,25.1,16.3
				c4.5,1.8,8.9,3.7,13.5,5.4c1.8,0.7,3.7,1.1,5.6,1.3c3.8,0.5,6-2.5,8.7-4.4c1.3-1,2.2-1.2,3.5-0.1
				C866.2,481.8,866.4,482.7,865.4,483.9z M864.4,468.4c0.2-0.3,0.6-0.4,1-0.6c0.1,0.1,0.2,0.2,0.3,0.4c-0.4,0.6-0.8,1.2-1.2,1.8
				c-0.2-0.1-0.3-0.1-0.5-0.2C864.1,469.2,864.2,468.7,864.4,468.4z M864.3,461c0.2,0,0.4,0,0.6,0c0.1,0.7,0.3,1.4,0.4,2.1
				c-0.2,0.1-0.3,0.2-0.5,0.2c-0.3-0.4-0.7-0.7-0.8-1.2C863.9,461.8,864.2,461.4,864.3,461z M886.9,463.7c-0.6,0-1.2,0-1.8-0.1
				c-2.8-0.6-5.6-1.1-8.6-0.6c-1.7,0.3-3.7-0.8-5.3-1.8c-1.4-0.8-2.4-2.3-4.2-4c4.3-0.2,7.4,1.9,10.9,2.1c3.5,0.2,6.9,0.8,10.3,1.3
				C888.9,462.7,888.5,463.6,886.9,463.7z M889.3,454.2c-0.4,0.6-2.2,0.7-3.3,0.6c-4.6-0.3-9-1.2-13.5-2.3c-4.1-1-8.4-1.2-12.5-1.9
				c-1.1-0.2-2.4-0.6-3.3-1.2c-4.1-3.2-7.9-6.7-11.3-10.7c1.6,0.9,3.3,1.7,5,2.5c4.7,2.1,9.5,3.8,14.5,5.2c3.4,1,6.8,1.8,10.3,1.8
				c-7.4-2.7-14.7-5.3-22.1-8c-2-0.7-4-1.4-5.9-2.4c-1.6-0.8-3.1-1.8-4.6-2.6c-0.2-0.2-0.3-0.5-0.5-0.7c-3.4-5-7.1-9.7-10.4-14.8
				c-1.2-1.8-3-3.2-4.4-4.8c-0.9-1-1.8-2.1-2.7-3.2c0.2-0.2,0.4-0.4,0.6-0.7c0.4,0.1,1,0.1,1.3,0.4c6.4,4.2,13.6,6.9,19.3,12.2
				c2.1,1.9,4.7,3.4,7.3,4.8c9,5,18,10,27.2,14.6c3.6,1.8,7.8,2.4,12,3.6C892.5,449.1,890.9,451.7,889.3,454.2z M894.4,459.6
				c-0.1-2,4-10.5,6.3-13C900.4,449.2,896.4,457.6,894.4,459.6z"/>
		</g>
		<g id="Mizuna_2_">
			<path id="mizuna-fill_1_" class="st139" d="M788.4,448.9c-4.3-3.5-9.4-5.4-14.6-6.9c-2-0.6-4.1-1-6.2-0.9
				c-2.4,0.2-4.8,0.4-7.3,0.6c-0.7-0.3-1.5-0.5-2.4-0.5c-1.9,0.1-3.8,0.2-5.6,0.3c-4,0.2-8,0.3-12,0.3c-1.3,0-2.6-0.1-3.9,0
				c-0.7,0-1.7-0.3-1.7,0c-0.8-0.9-1.5-2.5-2-4c3-1.3,5.9-2.8,8.6-4.8c0.6-0.5,1.4-0.8,2.2-1c4.6-1.5,9.1-3,13.7-4.4
				c3-0.9,5.8-2.2,8.8-4.4c-2.4,0-4.2,0-5.9,0c-0.5-1.5,0-2.4,0.8-3.2c0.7-0.6,1.4-1.1,2.2-1.5c5-2.7,9.5-5.9,13.3-10.2
				c0.5-0.6,1.2-1.1,0.8-2.3c-0.9,0.3-1.7,0.4-2.3,0.8c-2.5,1.3-4.9,2.7-7.3,4.2c-2.4,1.5-4.8,1.8-7.6,1.4c-0.1-0.8-0.1-1.4-0.2-2.6
				c-1.2,1-2.1,1.7-3,2.5c-5,4.6-10,9.2-14.9,13.9c-2.1,2-4.4,3.5-6.9,4.6c-0.9,0.4-1.9,0.8-2.8,1.1c-0.7,0.2-1.4,0.5-2,0.8
				c-0.8-0.8-1.8-1.2-2.9-1.4c0.6-1.5,1-3.1,1.2-4.6c1.7-2,3.1-4.3,4.6-6.5c-0.8,0-1.3,0.3-1.8,0.6c-1,0.5-2,1-3.1,1.3
				c-0.2-0.5-0.4-1-0.7-1.4l0.1-5c0-0.1,0-0.1,0-0.2c0.1-0.7,0.1-1.3,0-1.9c0-1.1,0-2.2,0-3.3c0-1.9-3-1.9-3,0l0,0.3
				c-0.9-0.3-1.8-0.3-2.6,0c-2.8-3.5-6.4-6.7-10.4-8.1c-3.7-1.4-8.4-0.9-12.3-1c-4.5-0.1-9-0.2-13.3,1.1c-0.4,0.1-0.7,0.3-1,0.4
				c-1.3,0.1-2.6,0.6-3.7,1.2c-2.1,1.2-3.7,3.6-3.5,6.2c0.2,2.8,1.7,3.4,3.4,4.4c-0.5,1.6-1.5,3.3-2.1,4.8c-1.3,3.3-3.8,9,1,10.6
				c1.6,0.6,3.7,0,4.6-1.5c0.6-0.9,0.7-1.9,1.1-2.9c0.5-1.3,1.3-2.4,2.2-3.4c1.8-2.3,3.8-4.7,6.6-5.6c1.1-0.3,2.2-0.4,3.2-0.9
				c0.7-0.3,1.2-0.9,1.8-1.3c1.7-1.1,3.7-1.3,5.6-1.7c2.1-0.4,4.2-1,6.3-0.9c2.1,0.1,4.4,1,5.4,2.9c0.4,0.7,0.5,1.4,0.6,2.2
				c0.5,3.9-0.8,7.7-2.6,11.2c-1.4,2.7-3.1,5.5-5.9,6.9c-2.4,1.3-5.3,1.3-8,1.4c-0.4,0-0.8,0.1-0.9,0.4c-0.1,0.1,0,0.3-0.1,0.5
				c-0.1,0.5-0.6,0.9-1.2,0.9c-0.5,0.1-1.1-0.1-1.6-0.3c-3.2-0.9-6.7-1-10-1c-1,0-1.9,0-2.9-0.3c-0.7-0.2-1.4-0.6-2-1
				c-1.5-0.9-2.9-2-4.2-3.1c-0.7-0.6-2-1.8-2.9-0.8c-0.5,0.6-0.1,2.2,0,2.9c0,0.6,0.1,1.1,0.1,1.5c-2.9,2.8-6.5,0.3-10,1.9
				c1,0.9,1.5,1.6,2.1,1.8c1.3,0.6,2.7,1.1,4.2,1.4c3.2,0.7,6.7,0.3,9.8,1.8c0.3,0.3,0.7,0.6,1.1,0.8c1.9,0.9,3.7,2,5.3,3.3
				c0,0,0.2,0.2,0.3,0.3c-1.6,1-3.4,1.8-5.2,2.4c-1.7,0.6-3.5,0.6-5.2,1.2c-5.9,2-11.7,2.1-17.5-0.2c-0.6-0.2-1.3-0.2-1.9-0.3
				l-0.3,0.6c0.6,0.5,1.2,0.9,1.8,1.4c0.6,0.6,1.6,1.3,1.7,2c0,1.3-1.2,1.9-2.4,2.1c-1.6,0.2-3.3,0.3-5,0.5c-0.5,0.1-1,0.3-2.1,0.7
				c1,0.5,1.4,0.8,1.8,0.9c2.2,0.1,4.4,0.2,6.6,0.3c1.9,0,3.8-0.1,5.6-0.1c1.1,0.3,2.3,0.5,3.4,0.9c0.7,0.2,1.5,0.5,2.2,0.7
				c0.6,0.2,1.3,0.4,1.8,0.7c0.8,0.5,0.7,1.4,0.4,2.2c-0.4,1.3-1.2,2.5-1.6,3.9c0,0.2,0,0.3,0,0.5c-0.4,0.5-0.8,1-1.2,1.6
				c0.8,0,1.4-0.1,2.1-0.3c0.2,0.1,0.4,0.1,0.6,0.1c0.4,0,0.8,0,1.2,0c1.1,0.2,2.1,0.3,3.2,0.3c0.2,0,0.5-0.1,0.7-0.2
				c1,0.2,2,0,3.1-0.5c1.6-0.8,3-1.8,4.3-2.9c2.6-1.5,5.2-3,7.7-4.7c1.8-1.2,3.5-2.4,5.3-3.6c4.4-0.3,1.9,6.4,0.2,10.7
				c-0.2,0.2-0.4,0.5-0.5,0.7c-0.9,1.4-1.3,3.3-1.4,5.1c0,0.5,0,1,0.1,1.6c-0.3,3.4,0.4,6.5,3.1,9.2c1.4,1.4,3,1.7,4.5,1.3
				c0,0,0,0.1,0.1,0.1c2.3,2.2,4.9,4.2,7.7,5.8c2.7,1.5,5.7,1.2,8.5-0.8c-1.4-1.2-2.9-2.2-4.4-2.8c-2.9-1-5-2.9-7.2-4.9
				c-0.3-0.3-0.6-0.6-0.8-0.9c0.6-1.6,0.4-3.4-1.2-4.9c-2-1.9,1.9-9.2,2.9-11.5c0.5-0.3,0.9-0.7,1.4-1c0.5,0,1.1-0.1,1.6-0.3
				c5-1.6,10.1-2.1,15.2-0.7c5,1.4,8.5,3.9,13.8,2.2c4.6-1.5,9-3.8,13.2-6.5c0.7,0,1.4,0.1,2.1,0.1c0.1,0.1,0.2,0.2,0.2,0.3
				c1.5,2.8,5.7,3.3,7.9,1c1.5-1.6,2.3-3.2,2.6-5.4c0.1-1-0.8-5-0.4-5.4c1.9-1.8,1.9-3.9,1-5.6c7.8-1,14.3,1.6,20.3,6.5
				c0.6,0.5,1.3,0.9,1.9,1.3c0.2-0.2,0.4-0.5,0.6-0.7C790.7,451.3,789.7,450,788.4,448.9z"/>
			<g id="mizuna-lines_1_">
				<path class="st30" d="M701.7,430.2c1.2,1.4,2.6,2.6,4,3.5c0.2-0.1,0.4-0.3,0.6-0.4c0.9-1.9,1.7-3.9,2.5-5.9
					c1.3-3.7,2.4-7.4,3.6-11.1c-0.5-0.7-1.2-1.3-2.2-1.8c-2.2-1.1-4.5-0.3-5.4,2c-0.5,1.3-0.6,2.6-0.9,4c-0.4,2.1-1,4-2.7,5.6
					c-0.8,0.8-1.6,1.3-2.4,1.5C699.8,428.3,700.8,429.2,701.7,430.2z"/>
				<path class="st30" d="M696.6,434.9c-0.9-2-1.6-4.2-2.1-6.4c-0.1-0.7,0.2-1.8,0.7-2.2c0.1-0.1,0.2-0.1,0.3-0.1
					c-0.3-0.3-0.5-0.6-0.8-1c-0.8-1.4-1.4-3-2.2-4.8c-0.7,0.8-1.3,1.2-1.6,1.8c-2.1,3.7-3.4,7.5-2.6,11.9c0.8,0.1,1.6,0.2,2.4,0.3
					C692.7,434.4,694.7,434.6,696.6,434.9z"/>
				<path class="st30" d="M797.9,455.5c-0.3-0.5-0.8-1-1.1-1.5c-0.5-0.7-1.1-1.3-1.4-2.1c-1.2-3.1-3.3-5.4-5.8-7.3
					c-8.2-6.1-17.3-9.4-27.6-8.7c-7.5,0.5-14.9,1.4-22.3,2.4c1.1-0.5,2.1-1,3.2-1.5c3.6-1.5,7.3-2.8,11-4c6.1-1.9,11.8-4.5,17.3-7.8
					c1.6-1,2.9-2.2,3.4-4.1c0.5-1.7-0.9-2.6-1.8-3.7c1.9-1.6,3.7-3.2,5.5-4.7c2.3-2,4.7-3.9,7-6c1.4-1.2,2.6-2.5,3.8-3.8
					c1.1-1.2,1-1.8,0-3.1c-1-1.3-2.3-1.5-3.6-1c-2.3,0.8-4.5,1.8-6.8,2.7c-3.2,1.3-6.5,2.6-9.9,4c-0.3-1-0.5-1.7-0.8-2.4
					c-1.2-3-3.5-3.5-5.9-1.2c-1.5,1.4-3,2.9-4.5,4.4c-6.9,6.7-13.5,13.7-21.1,19.6c-1.8,1.4-3.5,3.1-6.1,3.4c0-0.4,0-0.8,0.1-0.9
					c1.6-2,3-4.1,4.8-5.8c2-1.9,2.9-4.1,3.6-6.6c0.5-1.9-0.6-2.9-2.4-2.1c-1.6,0.7-3.1,1.8-4.6,2.7c-0.6,0.3-1.1,0.8-1.9,1.4
					c0.1-0.9,0.1-1.4,0.1-1.8c0.2-5.4,0.5-10.9,0.7-16.3c0-0.6,0-1.3-0.1-1.9c-0.2-1.8-1.5-2.3-2.8-1.2c-1,0.9-1.9,2-2.4,3.2
					c-1.1,2.4-2,4.9-2.7,7.4c-0.1,0.4-0.2,0.7-0.3,1.1c-0.7-0.6-1.4-1.3-2.1-1.9c-5.9-5.9-12.9-8.7-21.4-7.6c-0.8,0.1-1.7-0.1-2.5,0
					c-5.4,0.4-10.8,0.9-15.3,4c-3,2-5.7,4.6-8.3,7.1c-1.1,1.1-1.8,2.8-2.3,4.4c-0.5,1.7,0.7,2.7,2.5,2.4c0.6-0.1,1.2-0.3,2.5-0.6
					c-0.4,1.8-0.6,3-0.9,4.2c-0.4,1.4-0.6,2.7-0.7,4c-1.6-1.7-3-3.6-3.6-6c-0.1-0.5-0.6-0.9-1-1.2c-1.3-1.1-2.1-0.9-3.2,0.3
					c-1.5,1.7-2,3.6-1.4,5.8c0.8,3.1,1.8,6,4.2,8.3c0.8,0.7,1.7,1.5,1.3,3.2c-1.1-0.2-2.1-0.3-3.1-0.4c-1.2-0.2-2.5-0.4-3.7-0.4
					c-1.3,0-2.1,1.1-1.5,2.1c1.8,2.9,3.2,6.2,7.2,6.9c2.5,0.4,4.9,0.9,7.4,1.3c1.9,0.3,3.7,0.6,5.5,2.5c-2.6,0.7-4.8,1.2-7,1.8
					c-4.7,1.1-9.4,0.7-13.8-1.4c-1.7-0.8-3.3-1.8-5-2.6c-1.6-0.8-3.3-0.6-4.4,0.5c-1.3,1.3-0.9,2.6,0,4c0.7,1.1,1.2,2.3,2,3.8
					c-1.2,0.3-2,0.5-2.7,0.6c-2.4,0.3-4.8,0.6-7.2,1c-1.5,0.2-2.9,1-3.1,2.6c-0.3,1.6,1.3,2,2.3,2.6c5.2,2.7,10.6,3.8,16.4,3.2
					c1.5-0.2,2.9-0.5,4.4-0.5c2.5,0,5.1,0.1,7.8,1.5c-0.8,0.9-1.4,1.5-2,2c-1.9,1.6-3.9,3.2-5.7,4.9c-0.6,0.6-1.6,1.8-1.4,2.2
					c0.4,0.8,1.5,1.3,2.3,1.7c0.5,0.3,1.2,0.3,1.8,0.2c2.4-0.4,4.8-1,7-1.9c-0.1,0.4-0.2,0.9-0.2,1.3c-0.2,1.4,0.6,2.4,2,2.2
					c1.3-0.2,2.8-0.5,3.8-1.2c5.2-3.6,10.3-7.3,16-10.2c1.7-0.9,3.3-1.9,4.9-3c-0.9,1.1-1.8,2.3-2.7,3.4c-2.9,3.4-4.2,7.4-4.9,11.7
					c-0.2,1.1-0.1,2.4,0.4,3.4c1.7,3.8,3.9,7.2,7.1,9.9c1.5,1.3,3,2.6,4.2,4.2c2.3,2.9,5.2,5,8.7,5.9c5.3,1.3,7.6-1,11.8-3.5
					c4-2.4,7.1-5.8,7.1-10.9c-1.9-0.5-4-1-5.9-1.7c-2.4-0.9-4.9-1.9-7.1-3.3c-2.3-1.4-4.4-3.2-6.2-5.2c-1.8-2-1.4-5.3,0.6-6.4
					c4.8-2.7,9.9-3.9,15.4-2.8c5.6,1.1,10.5,3.4,15.1,6.7c1,0.7,2.2,1.3,3.3,1.7c0.8,0.2,1.9,0.1,2.7-0.3c1.6-0.9,2.4-3.8,1.9-5.5
					c-0.3-0.9-0.6-1.9-0.9-3.1c2.1-0.2,3.8-0.5,5.4-0.4c5.3,0,10.7,0.1,16,0.2c0.8,0,1.8,0,2.4-0.4c2.4-1.8,2.2-6.3-0.5-7.9
					c-0.5-0.3-1.1-0.6-1.6-1c-0.2-0.4-0.3-0.9-0.4-1.3c-0.4-1.7-0.9-3.4-1.3-5c5.3-1.1,10.1,0,14,3c3,2.3,6,4.5,9.1,6.6
					c1.2,0.8,2.9,1.6,4.4,0.4C799.1,459.8,798.9,457.1,797.9,455.5z M724.7,448.3c-1.3-0.2-2.6-0.4-3.9-0.6c-0.1,0-0.1,0-0.2,0
					c-1.8-0.3-3.5-0.7-5.2-1.3c-0.2-0.1-0.4-0.1-0.6-0.2c-1-0.3-1.9-0.8-2.9-1.2c-0.7-0.4-1.5-0.8-2.2-1.2c-0.4-0.3-0.9-0.6-1.3-0.9
					c-0.2-0.2-0.4-0.3-0.6-0.5c-0.9-0.7-1.8-1.5-2.7-2.2c-0.3-0.3-0.7-0.6-1-0.9c-0.2-0.2-0.4-0.5-0.5-0.8c-0.2-0.5-0.4-1.1-0.4-1.8
					c0.4,0.1,0.8,0.2,1.2,0.3c0.1,0.1,0.3,0.1,0.4,0.2c1.6,1,3.2,1.9,4.8,2.6c0.2,0.1,0.3,0.1,0.5,0.2c0.9,0.4,1.9,0.8,2.9,1.1
					c2.3,0.7,4.7,1.2,7.1,1.6c0.4,0.1,0.8,0.1,1.2,0.1c0.1,0,0.2,0,0.3,0c0.1,0,0.2,0,0.3,0c2.2,0.2,4.4,0.6,6.6,0.9
					c2.1,0.3,4.1,0.5,6.2,0.5c1,0,2,0,3-0.1C733.5,445.5,729.1,447.1,724.7,448.3z M688.4,434.1c-0.8-4.4,0.5-8.2,2.6-11.9
					c0.3-0.6,0.9-1,1.6-1.8c0.8,1.8,1.4,3.4,2.2,4.8c0.2,0.4,0.5,0.7,0.8,1c-0.1,0-0.2,0.1-0.3,0.1c-0.5,0.3-0.8,1.5-0.7,2.2
					c0.5,2.2,1.2,4.4,2.1,6.4c-1.9-0.3-3.9-0.5-5.8-0.6C690,434.3,689.2,434.2,688.4,434.1z M719.1,423.5c0.6,0.6,1.1,0.9,1.4,1.4
					c0.2,0.3,0.3,0.6,0.4,1c0.8,2.1,0.7,4.7-0.2,6.8c-0.5,1.1-1.1,2.1-1.9,2.8c-0.7,0.7-1.4,1.3-2.1,2c-1.1-0.2-2.3-0.5-3.4-0.7
					c-0.5-0.1-1-0.3-1.5-0.4c-0.1,0-0.1,0-0.2-0.1c0.2-0.1,0.3-0.3,0.5-0.4c0.5-0.5,1.1-1,1.6-1.4c0.8-0.8,1.5-1.6,2.1-2.4
					c0.8-1.3,1.4-2.7,2-4.2C718.1,426.4,718.6,425,719.1,423.5z M708.8,427.4c-0.7,2-1.6,4-2.5,5.9c-0.2,0.2-0.4,0.3-0.6,0.4
					c-1.5-0.9-2.8-2.1-4-3.5c-0.9-1-1.9-1.9-2.9-2.8c0.8-0.2,1.6-0.7,2.4-1.5c1.6-1.5,2.2-3.5,2.7-5.6c0.3-1.3,0.4-2.7,0.9-4
					c0.9-2.3,3.2-3.1,5.4-2c1,0.5,1.7,1.1,2.2,1.8C711.2,420,710.1,423.7,708.8,427.4z M741.9,426.1c4.9-4.7,9.9-9.3,14.9-13.9
					c0.8-0.8,1.8-1.5,3-2.5c0.1,1.1,0.2,1.8,0.2,2.6c2.7,0.4,5.2,0.1,7.6-1.4c2.4-1.5,4.8-2.8,7.3-4.2c0.7-0.4,1.5-0.5,2.3-0.8
					c0.4,1.2-0.3,1.7-0.8,2.3c-3.7,4.3-8.3,7.6-13.3,10.2c-0.8,0.4-1.5,1-2.2,1.5c-0.9,0.8-1.3,1.7-0.8,3.2c1.7,0,3.4,0,5.9,0
					c-3,2.3-5.8,3.5-8.8,4.4c-4.6,1.4-9.1,2.9-13.7,4.4c-0.8,0.3-1.6,0.5-2.2,1c-3.5,2.5-7.3,4.4-11.3,5.9c-0.3,0-0.5,0-0.8,0
					c-1.2,0-2.5-0.1-3.7-0.2c1.4-1.4,2.3-3.1,2.7-5.2c1.4-0.6,2.8-1.2,4.2-1.7c1-0.3,1.9-0.7,2.8-1.1
					C737.6,429.6,739.9,428.1,741.9,426.1z M728.1,422c1.1-0.3,2.2-0.8,3.2-1.3c0.5-0.2,1-0.6,1.8-0.6c-1.5,2.2-2.9,4.5-4.6,6.5
					c-0.2,0.2-0.3,0.4-0.5,0.6c-0.2-1.7-0.3-3.4-0.5-5.2C727.7,422.1,727.9,422.1,728.1,422z M725.6,411.7c0.1-0.5,0.2-1,0.4-1.6
					c0.3,0,0.6,0.1,0.8,0.1c-0.1,1.2-0.2,2.3-0.3,3.5c-0.2-0.7-0.5-1.3-0.9-1.9C725.6,411.8,725.6,411.8,725.6,411.7z M685.4,408.4
					c-0.6-0.5-1.7-0.4-2.6-0.4c-0.9,0-1.7,0.4-3.3,0.7c1.4-2.2,3-3,4.6-3.6c8.6-3.3,17.2-3.3,25.7,0.2c1.6,0.7,3.3,1.3,4.8,2.3
					c2.5,1.6,4.5,3.8,5.2,7.1c-0.8-0.4-1.6-0.7-2.3-1.2c-0.1-0.1-0.3-0.2-0.4-0.3c-0.7-0.5-1.4-1.1-2.1-1.7
					c-0.3-0.2-0.6-0.5-0.9-0.7c-1.3-1-2.8-1.3-4.5-1c-1.6,0.3-3.3,0.6-4.9,0.9c-2.8,0.5-5.4,2.4-8.4,1.4c-4.8,1.2-8.6,3.7-11,8.1
					c-1.1,2-2,4.1-3.1,6.2c-0.4,0.8-0.9,1.5-1.4,2.4c-1.4-1.3-1.3-2.7-1.1-4c0.7-4.7,1.8-9.2,4.9-13.1c0.2-0.2,0.4-0.5,0.6-0.7
					C685.5,410.3,686.5,409.3,685.4,408.4z M671.1,469.6c2.7-4.5,8.4-5.3,10.8-10c-1.8-1.4-3.6-1.3-5.3-0.7
					c-2.7,0.9-5.3,0.6-8.1,0.3c-2.7-0.3-5.4,0-8.1,0c-2.2,0-4.4-0.1-6.6-0.3c-0.4,0-0.9-0.4-1.8-0.9c1.1-0.4,1.6-0.6,2.1-0.7
					c1.7-0.2,3.3-0.3,5-0.5c1.2-0.2,2.4-0.8,2.4-2.1c0-0.7-1-1.4-1.7-2c-0.5-0.5-1.2-0.9-1.8-1.4c0.1-0.2,0.2-0.4,0.3-0.6
					c0.7,0.1,1.4,0,1.9,0.3c5.8,2.3,11.6,2.2,17.5,0.2c1.7-0.6,3.5-0.6,5.2-1.2c1.9-0.7,3.9-1.5,5.6-2.7c1.6-1.2,1.1-2.9-0.9-3.4
					c-1.5-0.3-3.1-0.4-4.6-0.6c-0.4-0.1-0.9,0.1-1.2-0.1c-3.2-1.7-6.7-1.2-10.1-1.9c-1.4-0.3-2.8-0.8-4.2-1.4
					c-0.7-0.3-1.2-1-2.1-1.8c3.5-1.5,7.1,1,10-1.9c-0.1-0.8-0.1-1.9-0.2-3.3c0.8,0.3,1.6,0.7,2.4,1.1c1.3,1.6,2.4,3.3,3.7,4.9
					c0.4,0.5,0.8,1,1.3,1.4c2.3,1.9,4.4,1.5,5.4-1.3c0.1-0.2,0.2-0.5,0.2-0.8c3.7,1,7.6,1.4,11.5,1.7c0.4,0.5,0.8,0.9,1.2,1.3
					c0.2,0.2,0.4,0.4,0.6,0.6c-2.2,3.4-4.8,6.6-7.6,9.5c-2.8,1.6-5.2,3.5-6.8,6.4c-3.3,2.9-6.7,5.6-10,8.5c-0.7,0.6-1.3,1.3-1.8,2
					C674.1,469.1,672.7,469.6,671.1,469.6z M693.8,461.4c-3.5,2.3-7.1,4.3-10.7,6.4c-0.8,0.5-1.7,0.8-2.6,1.2
					c-0.1,0-0.2,0.1-0.3,0.1c-1-1.1-0.5-1.8,0.3-2.1c3.8-1.5,6.5-4.6,9.8-6.8c0.4-0.3,0.9-0.6,1.3-0.8c0.9-0.5,1.7-1.1,2.4-1.8
					c0.1-0.1,0.1-0.1,0.2-0.2c4-3.7,7.7-7.6,11.1-11.8c1.4,1.1,2.8,2.1,4.3,3c0.5,0.3,0.9,0.6,1.4,0.8
					C705.4,453.5,699.7,457.5,693.8,461.4z M716.9,488.7c1.6,0.5,3,1.6,4.4,2.8c-2.8,2-5.8,2.3-8.5,0.8c-2.8-1.5-5.4-3.5-7.7-5.8
					c-3-2.9-2.2-8.8,1.4-11.4c0.1,0.7,0.3,1.3,0.2,1.9c-0.3,2.8,0.8,5,2.9,6.9C711.8,485.8,714,487.7,716.9,488.7z M760.5,460.5
					c-4.5-0.3-9-0.5-13.4-1.1c-3.9-0.5-4.7-0.5-6.7,2.8c-0.7,1.1-1.4,1.4-2.6,1.1c-2.1-0.5-4.3-1-6.4-1.4
					c-6.3-1.3-12.6-1.2-17.9,2.5c-4.6,3.3-9.7,6.4-12.1,12c-0.4,1-1.1,2-1.8,3.2c-1.8-1.6-2.4-3.5-2.3-5.4c0.1-1.7,0.5-3.7,1.4-5.1
					c5.3-7.8,12.3-13.2,21.7-15.5c0.3-0.1,0.6-0.2,0.9-0.2c4.7-1.2,9.4-3,14-4.5c0.1,0,0.2-0.1,0.3-0.1c1.6-0.5,3.1-1.2,4.7-1.7
					c0.7-0.2,1.5-0.1,2.2-0.1c0.1,0.2,0.1,0.4,0.2,0.6c-0.1,0.1-0.3,0.2-0.4,0.3c-0.8,0.5-1.5,1-2.3,1.6c-0.7,0.5-1.3,1.1-1.8,1.7
					c-1.2,1.4-1,2.6,0.3,3.1c0.3,0.1,0.7,0.2,1.1,0.3c2.8,0.3,5.6,0.5,8.4,0.8c4.8,0.5,9.3,2.3,13.8,4.3
					C761.5,460.1,761,460.5,760.5,460.5z M791.3,453.1c-0.7-0.4-1.3-0.8-1.9-1.3c-6-4.9-12.7-7.6-20.6-6.5c-0.6,0.1-1.3,0.1-1.9,0.3
					c-1.9,0.5-2.4,1.3-1.8,3.2c0.3,1,0.6,2.1,1.1,3.7c-1.4-0.4-2.2-0.5-2.9-0.8c-4.8-1.7-9.7-3.1-14.7-3.6c0.6-1.2,1.3-2.3,1.8-3.5
					c0.3-0.8,0.5-1.4,0.4-1.8c5.6-0.6,11.2-1.2,16.8-1.6c2-0.1,4.2,0.3,6.2,0.9c5.3,1.5,10.3,3.4,14.6,6.9c1.3,1,2.3,2.3,3.5,3.5
					C791.7,452.7,791.5,452.9,791.3,453.1z"/>
			</g>
		</g>
	</g>
</g>
<g id="Text__x2F__Quiz_Questions" class="st40">
</g>
<g id="NOTES">
	<rect x="57.4" y="48.6" class="st133" width="827.4" height="273.4"/>
	<text transform="matrix(1 0 0 1 57.4478 71.3779)"><tspan x="0" y="0" class="st151 st152 st153">mood: N/A</tspan><tspan x="0" y="38.4" class="st151 st152 st153">Style: HIPSTER</tspan><tspan x="0" y="76.8" class="st151 st152 st153">Personality: INTELLECTUAL </tspan></text>
</g>
<g id="ColorPalette">
</g>
</svg>
