<?xml version="1.0" encoding="utf-8"?>
<!-- Generator: Adobe Illustrator 24.0.1, SVG Export Plug-In . SVG Version: 6.00 Build 0)  -->
<svg version="1.1" xmlns="http://www.w3.org/2000/svg" xmlns:xlink="http://www.w3.org/1999/xlink" x="0px" y="0px"
	 viewBox="0 0 1442 966" style="enable-background:new 0 0 1442 966;" xml:space="preserve">
<style type="text/css">
	.st0{fill:#8A9992;}
	.st1{fill:#97A59F;}
	.st2{fill:#EAD53F;}
	.st3{fill:#FDEB51;}
	.st4{fill:#EC008C;}
	.st5{fill:#70C7B2;}
	.st6{fill:#E76152;}
	.st7{fill:#9C9C9E;}
	.st8{fill:#80948F;}
	.st9{fill:#736876;}
	.st10{fill:#5F566B;}
	.st11{fill:#EE7928;}
	.st12{fill:#F26422;}
	.st13{fill:#F7A391;}
	.st14{fill:#F27170;}
	.st15{fill:#EC5554;}
	.st16{fill:#E57164;}
	.st17{fill:#6E8DA0;}
	.st18{fill:#829BAD;}
	.st19{fill:#E9A041;}
	.st20{fill:#171B2B;}
	.st21{fill:#396F91;}
	.st22{fill:#497F9B;}
	.st23{fill:#D7DDDD;}
	.st24{fill:#294666;}
	.st25{fill:#9376B2;}
	.st26{fill:#2A2D3F;}
	.st27{fill:#E83B95;}
	.st28{fill:#9FD7CA;}
	.st29{fill:#62BCA4;}
	.st30{fill:#1D2036;}
	.st31{opacity:0.5;fill:#FFFFFF;}
	.st32{fill:#F68B1F;}
	.st33{fill:#FFCE07;}
	.st34{fill:#753624;}
	.st35{fill:#2F717A;}
	.st36{fill:#FFD683;}
	.st37{fill:#01444F;}
	.st38{fill:#FFE0B6;}
	.st39{fill:#E72527;}
	.st40{display:none;}
	.st41{display:inline;}
	.st42{fill:#F79E1E;}
	.st43{fill:#FFFFFF;}
	.st44{fill:#F6AA8F;}
	.st45{fill:#727579;}
	.st46{fill:#ECE1CC;}
	.st47{fill:#F27171;}
	.st48{fill:#EE7D69;}
	.st49{fill:#F69FA1;}
	.st50{fill:#FFECB6;}
	.st51{fill:#E54033;}
	.st52{fill:#EADBAD;}
	.st53{fill:#71C4BA;}
	.st54{fill:#78B542;}
	.st55{fill:#6B9F41;}
	.st56{fill:#A2BC5B;}
	.st57{fill:#8DB542;}
	.st58{fill:#E12327;}
	.st59{fill:#EDB7B6;}
	.st60{fill:#1C4650;}
	.st61{fill:#EA7750;}
	.st62{opacity:0.3;fill:#E72527;}
	.st63{fill:#653C16;}
	.st64{opacity:0.3;fill:#653C16;}
	.st65{fill:#2A5861;}
	.st66{fill:#F26F79;}
	.st67{fill:#EAB557;}
	.st68{fill:#80C48D;}
	.st69{fill:#89C544;}
	.st70{fill:#264720;}
	.st71{fill:#52AA82;}
	.st72{fill:#122D25;}
	.st73{filter:url(#Adobe_OpacityMaskFilter);}
	.st74{mask:url(#SVGID_1_);}
	.st75{opacity:0.3;fill:#895B24;}
	.st76{fill:#895B24;}
	.st77{fill:#CAAB82;}
	.st78{fill:#E5E5E5;}
	.st79{fill:#A8AFAF;}
	.st80{fill:#363A49;}
	.st81{fill:#AF84A7;}
	.st82{fill:#E8E8B2;}
	.st83{fill:#B8D3C7;}
	.st84{fill:#ABB2B2;}
	.st85{fill:#FAA635;}
	.st86{fill:#4DB5A5;}
	.st87{fill:#00AEEF;}
	.st88{fill:#EFD6B4;}
	.st89{fill:#68C5AB;}
	.st90{fill:#48A597;}
	.st91{fill:#7FC697;}
	.st92{fill:#A05424;}
	.st93{fill:#D35E46;}
	.st94{fill:#CF6946;}
	.st95{clip-path:url(#SVGID_3_);fill:#FCB017;}
	.st96{clip-path:url(#SVGID_5_);fill:#FCB017;}
	.st97{clip-path:url(#SVGID_7_);fill:#FCB017;}
	.st98{clip-path:url(#SVGID_9_);fill:#FCB017;}
	.st99{clip-path:url(#SVGID_11_);}
	.st100{clip-path:url(#SVGID_13_);fill:none;stroke:#F7931F;stroke-width:3;stroke-miterlimit:10;}
	.st101{clip-path:url(#SVGID_13_);fill:#F7931F;}
	.st102{fill:#7790A0;}
	.st103{fill:#40B392;}
	.st104{opacity:0.3;}
	.st105{fill:#EFD695;}
	.st106{fill:#9DA7B1;}
	.st107{fill:#E2A225;}
	.st108{fill:#51426B;}
	.st109{fill:#BBA9A6;}
	.st110{fill:#E8B691;}
	.st111{fill:#A59C95;}
	.st112{fill:#F2D7B9;}
	.st113{fill:#010101;}
	.st114{fill:#FFECDA;}
	.st115{clip-path:url(#SVGID_15_);}
	.st116{clip-path:url(#SVGID_17_);fill:none;stroke:#F7931F;stroke-width:3;stroke-miterlimit:10;}
	.st117{clip-path:url(#SVGID_17_);fill:#F7931F;}
	.st118{clip-path:url(#SVGID_19_);}
	.st119{clip-path:url(#SVGID_21_);fill:none;stroke:#F7931F;stroke-width:3;stroke-miterlimit:10;}
	.st120{clip-path:url(#SVGID_21_);fill:#F7931F;}
	.st121{clip-path:url(#SVGID_23_);}
	.st122{clip-path:url(#SVGID_25_);fill:none;stroke:#F7931F;stroke-width:3;stroke-miterlimit:10;}
	.st123{clip-path:url(#SVGID_25_);fill:#F7931F;}
	.st124{fill:#C3AC80;}
	.st125{fill:#BBBC7D;}
	.st126{fill:#F387A6;}
	.st127{fill:#FFE3B6;}
	.st128{fill:#5DB447;}
	.st129{fill:#D33535;}
	.st130{fill:#97BF49;}
	.st131{fill:#F69DA6;}
	.st132{fill:#C02026;}
	.st133{fill:none;}
	.st134{fill:#73767B;}
	.st135{fill:#7C7E82;}
	.st136{fill:#D9D9D9;}
	.st137{fill:#ADB5B0;}
	.st138{fill:#D7DEDD;}
	.st139{fill:#B8D2C6;}
	.st140{display:inline;fill:#FFE0B6;}
	.st141{display:inline;fill:#E72527;}
	.st142{fill:#FFCD60;}
	.st143{fill:#FEC248;}
	.st144{fill:#DDBF7B;}
	.st145{fill:#BCD266;}
	.st146{fill:#DBDBDB;}
	.st147{clip-path:url(#SVGID_27_);}
	.st148{clip-path:url(#SVGID_29_);fill:none;stroke:#F7931F;stroke-width:3;stroke-miterlimit:10;}
	.st149{clip-path:url(#SVGID_29_);fill:#F7931F;}
	.st150{fill:#FCFCEE;}
	.st151{font-family:'MyriadPro-Semibold';}
	.st152{font-size:32px;}
	.st153{letter-spacing:3;}
</style>
<g id="BG">
	<rect class="st28" width="1442" height="966"/>
	<rect x="0" y="646.6" class="st29" width="1442" height="319.4"/>
</g>
<g id="Bowl-Style">
	<g id="Bowl02">
		<path id="bowl02-fill" class="st44" d="M992.9,485.6c1.3-11.5,1.8-23.1,1.5-34.6c-0.3-14.2-1.6-22.5-8.9-34.9
			c-18.8-31.9-49.7-54.2-82.8-69.5c-37-17.1-70.3-29.9-111.3-35.4c-51.1-6.8-103.3-9.1-154.3-0.4c-32.2,5.5-65,11.9-94.1,27.3
			c-22.2,11.7-44.6,29.5-63.9,45.6c-13.4,11.2-25.9,23.7-36.5,37.6c-5.4,7-10.3,14.4-14.5,22.2c-3.4,6.3-9.3,15.2-7,22.6
			c4.9,15.5,13.4,29.5,19.4,44.6c5.4,13.5,8.6,27.6,12.7,41.5c3.9,13.2,12.9,24.5,20.8,35.7c16.9,24,35.4,46.9,54.3,69.3
			c20.8,24.8,42.1,49.2,61.3,75.3c9,12.2,17.5,24.8,27.1,36.5c9.4,11.3,20.3,22.9,21.8,37.5c0.5,5.2-0.2,10.5,1.6,15.4
			c4.4,12.7,21.6,9.4,31.6,10c14.9,0.9,29.6,2.8,44.7,0.4c7.9-1.3,16.3-0.1,24.5-0.1c2.1,0,4.3-0.1,6.4-0.2
			c5.4-0.4,10.9-0.9,16.3-1.1c4.1-0.2,8.2,0.1,12.3-0.2c8.9-0.7,17.9-1.6,26.8-2.4c1.3-0.1,2.5-0.8,3.8-1.2
			c2.4-10.4-1.4-20.5-1.1-30.6c-2.5-4,0-6.5,3-9c5.1-4.3,10.2-8.6,14.9-13.3c4-4,7.4-8.6,11.1-12.9c6-6.9,12.3-13.5,18.1-20.5
			c7.2-8.8,14.1-17.7,21.1-26.7c9.1-11.8,18.1-23.5,27-35.4c7.3-9.7,9.8-18.9,15.4-29.1c14.5-26.2,29.9-51.8,44.8-77.7
			c7.7-13.4,15.5-26.8,21.1-41.2C987.7,516.1,991.1,501,992.9,485.6z"/>
		<path id="bowl02-fill-inside" class="st44" d="M989.6,483.6c4.1-6.6,1-11.4,2.1-18.1c7-43.6-31.9-78.7-65.1-99.6
			c-40.9-25.8-88.5-44.6-136.7-50.5c-38.1-4.7-76.8-3.4-115.2-2.1c-17.4,0.6-34.9,1.2-52.1,4.4c-66.7,12.4-119.4,61.8-167.9,109.2
			c-7.6,7.5-15.5,15.2-19.5,25.1c-12,29.1,29.7,55.1,47.5,72.2c19,18.3,38.2,36.8,61.4,49.4c14.5,7.9,30.2,13.2,46,17.9
			c125.8,37,257,27.3,357.6-62.9C960.3,517.4,978.9,501,989.6,483.6z"/>
		<path id="bowl02-lines" class="st37" d="M985.5,416.1c-18.8-31.9-49.7-54.2-82.8-69.5c-37-17.1-70.3-29.9-111.3-35.4
			c-51.1-6.8-103.3-9.1-154.3-0.4c-32.2,5.5-65,11.9-94.1,27.3c-22.2,11.7-44.6,29.5-63.9,45.6c-13.8,11.5-26.6,24.4-37.4,38.8
			c-7.4,9.8-18.4,25.5-20.7,37.5c-2.7,14.2-2.9,26.4,1,40.4c4.8,17.7,11,36.2,19.6,52.3c5.6,10.5,12.4,23.4,19.6,32.8
			c3,4.8,6,9.6,9,14.3c1.1,1.6,21.3,32.7,23.1,35.4c5.2,8,26.5,31.7,31.7,39.7c9.7,14.9,47.6,64.7,64.2,82.7
			c12.8,14,25.6,28.1,38.5,42c5.6,6.1,3.5,13.6,3.1,21.1c-0.1,1.5-0.2,3.1,0.4,4.6c1.5,3.7,6.5,4.7,10.7,5.2
			c10.1,1.1,19.8,0.6,29.9,1.2c14.9,0.9,29.6,2.8,44.7,0.4c7.9-1.3,16.3-0.1,24.5-0.1c2.1,0,4.3-0.1,6.4-0.2
			c5.4-0.4,10.9-0.9,16.3-1.1c4.1-0.2,8.2,0.1,12.3-0.2c8.9-0.7,17.9-1.6,26.8-2.4c1.3-0.1,2.5-0.8,3.8-1.2
			c2.4-10.4-1.4-20.5-1.1-30.6c-2.5-4,0-6.5,3-9c5.1-4.3,10.2-8.6,14.9-13.3c4-4,7.4-8.6,11.1-12.9c6-6.9,12.3-13.5,18.1-20.5
			c7.2-8.8,14.1-17.7,21.1-26.7c11.1-14.4,22.1-28.8,33-43.3c3.5-4.7,6.2-9.8,9.8-14.5C921.6,649.3,982,557,994,527
			c1.4-3.6,12.4-35.4,12.5-39.1C1007.8,462.5,998.5,438.1,985.5,416.1z M486,582c-16-24.2-32.4-51.9-40.8-79.4
			c4.8,15.7,23.1,32.8,34.5,43.9c14,13.6,30,25.2,47.2,34.5c39.8,21.4,83.3,25.2,127.5,30.3c1.8,0.2,3.6,0.4,5.4,0.6
			c-1.1,0.7-2.1,1.4-3.3,2.1c-6.3,3.8-13,6.5-19,11.1c-15.6,12.2-27.1,29-37.3,46c-5.8,9.8-16,28.2-18.9,44.8
			c-18.9-24.1-37-48.9-55.8-73C509.5,622.4,500.4,603.8,486,582z M788.5,802.1c-0.3,1.1-0.7,2.1-0.9,3.2c-0.9,5-3.9,7.3-9.2,8.6
			c-10.4,2.6-21,1.8-31.5,2.6c-10.2,0.8-20.2,0.1-30.4-0.9c-14-1.4-28-2-42.1-2.8c-3.7-0.2-7.4,0.4-11.1,0.4c-1.3,0-2.5-0.9-3.7-1.4
			c0.1-0.5,0.1-1,0.2-1.6c2.6-0.3,5.1-0.9,7.7-1c6.4-0.1,12.9,0.3,19.4,0c3.4-0.1,6.8-1.1,10.2-1.6c1.5-0.2,3.1-0.5,4.6-0.5
			c11.5,0,23.1,0.3,34.6,0.1c5-0.1,10.1-1,15.1-1.6c0.4,0,0.8-0.1,1.1-0.4c7.1-5.5,15.9-3.5,23.9-5c2.7-0.5,5.3-1.1,8-1.6
			c1.2,0.7,2.5,1.5,3.8,2.3C788.3,801.4,788.6,801.8,788.5,802.1z M864.6,695c-21.5,29.6-44.2,58.4-68.2,86.1
			c-2.2,2.6-4.5,5.2-7.6,6.9c-3.8,2.1-8.4,2.5-12.8,2.7c-39.1,2.6-78.3,3.3-117.5,2.1c-4.2-0.1-8.5-0.3-12.3-2.1c0,0,0,0-0.1,0
			c0.8-2.4,1.2-5.3,1.5-7.9c1.2-12,6.5-23.1,11.8-33.9c4.6-9.5,7.5-17.9,14.7-25.7c9.3-10.2,18.5-21.7,28.7-30.7
			c10.7-9.4,24.8-17.4,37.7-23.4c18.5-8.6,38.8-12.5,59.1-15.4c29.7-4.3,60.7-1.9,89.7,5.9C881.7,670.9,873.4,682.8,864.6,695z
			 M955,551c-2.7,4.3-23.1,43.9-57.9,96.8c-0.3-0.1-0.6-0.3-0.9-0.5c-10.6-5.5-22.8-6.9-34.7-7.7c-34-2.4-69.4-0.6-102.5,7.6
			c-21.9,5.4-41.8,16.5-59.8,29.8c-17.1,12.5-36.2,26.6-48.1,44.1c-1.1,1.7-2.3,3.4-3.3,5.1c-9,14.3-16.1,30.9-18,48
			c-8.9-10.3-17.8-20.7-26.6-31.1c-1.1-1.4-2.3-2.7-3.4-4.1c1.9-16.3,2-35.2,10.3-49.2c9.7-16.3,21-32,34.5-45.3
			c13.4-13.2,29.6-24,47.5-29.4c38.4,3.1,78.6,3.5,114.9-4.4c22.6-4.9,43.7-15,64.9-23.7c20.1-8.3,36.3-26.4,54.4-38.7
			c8.1-5.5,16.3-10.7,24.2-16.5c7.2-5.2,13.4-12.9,21-17.2C969.3,515.8,965,535,955,551z M964,495c-1.1,1-2.2,2.1-3.3,3
			c-9.5,8.4-31.8,27.2-33.2,28.6c-13,12.4-27.7,22.4-42.8,32.2c-11,7.2-23,12.6-34.5,18.8c-1.4,0.7-3,1.4-4,2.5
			c-2.9,3.4-6.8,4.6-10.9,5.8c-28.4,8.3-55.8,11.5-85.4,13.9c-40.4,3.3-81.8,5.2-121-5c-18.9-4.9-40.7-7.9-58.5-16.1
			c-4-1.8-8-3.7-11.9-5.5c-7.1-4-13.9-8.5-20.3-13.5c-6.1-4.7-29.9-24.6-35.6-28.4c-5.9-3.9-10.5-9.1-15.3-14.3
			c-10.7-11.5-20.8-23.4-30.4-35.8c0.2,1.7,0.3,3.4,0.5,5.1c-2.8-7.6-9.2-13.8-9.8-21.9c-0.5-6.3,2.7-12.3,6.1-17.6
			c8.4-12.9,18.7-24.5,30.5-34.2c11.9-9.9,22.5-21,34-31.6c11-10.1,23.5-18.5,37.4-24.7c14.9-6.6,29.4-13.9,45.3-18.1
			c10.5-2.8,21.1-5.4,31.9-7.2c18.1-3,36.2-5.7,54.4-7.9c27.5-3.2,54.6,2,81.6,0.4c29.1-1.7,56.9,10.8,82.7,22.7
			c29.7,13.6,60.5,27.9,83.8,51.4c6.9,7,13.3,14.6,20.4,21.6c5.9,5.8,11.7,11.6,16.6,18.2c4.3,5.8,7.8,12.2,9.1,19.3
			C984.2,470.5,973.6,485.8,964,495z"/>
	</g>
</g>
<g id="Noodles-Personality">
	<g>
		<path d="M538.2,559.8c6.4,5,13.2,9.5,20.3,13.5c3.9,1.8,7.9,3.6,11.9,5.5c17.8,8.2,39.5,11.2,58.5,16.1c39.3,10.2,80.6,8.3,121,5
			c29.6-2.4,57.1-5.6,85.4-13.9c4.1-1.2,8-2.4,10.9-5.8c1-1.1,2.6-1.8,4-2.5c11.6-6.2,23.5-11.6,34.5-18.8
			c15-9.8,29.8-19.8,42.8-32.2c8.7-9.1,15-19,15.7-29.7c1.8-27.9-18.6-51-39.5-67.8c-6.7-5.4-13.7-10.4-20.7-15.5
			c-3.8-2.8-7.8-5.4-11.6-8.1c-1.3-0.9-2.6-1.8-3.9-2.6c-4.5-2.6-9-5.1-14.1-6.3c-1.7-0.4-3.1-1.1-4.6-2c-3.5-2.2-6.9-4.4-10.5-6.4
			c-8.9-4.8-18.7-7.2-28.3-10.3c-4.8-1.6-9.9-2.4-14.8-3.8c-7.6-2.1-15.2-3.9-23.1-4.5c-3.1-0.2-6.2-0.5-9.2-1
			c-11.9-2.2-24-3-36.2-3.2c-5.3-0.1-10.7,0-16,0c0-0.2,0-0.5,0-0.7c-3.7,0-7.5,0-11.2,0c-8.3-0.1-16.6,1-24.8,2
			c-7.2,0.9-14.4,1.5-21.5,2.5c-4,0.5-7.9,1.8-11.8,2.4c-8.4,1.2-16.7,3.3-24.8,5.7c-21.7,6.3-41.6,16.1-59.8,29.1
			c-2.9,2.1-5.8,4.2-8.2,6.8c-0.9,1-2.1,1.7-3.1,2.7c-2.6,2.5-5.4,4.9-7.8,7.7c-2.9,3.4-5.3,7.2-8.1,10.6c-3,3.6-6.5,6.9-9.5,10.6
			c-1.9,2.3-4.1,4.2-5.8,6.8c-4.7,7.2-10,14.1-13.2,22.2c-1.6,4.1-2.9,8.3-2.7,12.8C499.3,516.1,514.4,541.2,538.2,559.8z M733,384
			c-0.7-0.5-1.3-1-1.9-1.4C732.5,382.2,732.5,382.2,733,384z"/>
	</g>
	<g>
		<path class="st103" d="M538.2,559.8c6.4,5,13.2,9.5,20.3,13.5c3.9,1.8,7.9,3.6,11.9,5.5c17.8,8.2,39.5,11.2,58.5,16.1
			c39.3,10.2,80.6,8.3,121,5c29.6-2.4,57.1-5.6,85.4-13.9c4.1-1.2,8-2.4,10.9-5.8c1-1.1,2.6-1.8,4-2.5c11.6-6.2,23.5-11.6,34.5-18.8
			c15-9.8,29.8-19.8,42.8-32.2c8.7-9.1,15-19,15.7-29.7c1.8-27.9-18.6-51-39.5-67.8c-6.7-5.4-13.7-10.4-20.7-15.5
			c-3.8-2.8-7.8-5.4-11.6-8.1c-1.3-0.9-2.6-1.8-3.9-2.6c-4.5-2.6-9-5.1-14.1-6.3c-1.7-0.4-3.1-1.1-4.6-2c-3.5-2.2-6.9-4.4-10.5-6.4
			c-8.9-4.8-18.7-7.2-28.3-10.3c-4.8-1.6-9.9-2.4-14.8-3.8c-7.6-2.1-15.2-3.9-23.1-4.5c-3.1-0.2-6.2-0.5-9.2-1
			c-11.9-2.2-24-3-36.2-3.2c-5.3-0.1-10.7,0-16,0c0-0.2,0-0.5,0-0.7c-3.7,0-7.5,0-11.2,0c-8.3-0.1-16.6,1-24.8,2
			c-7.2,0.9-14.4,1.5-21.5,2.5c-4,0.5-7.9,1.8-11.8,2.4c-8.4,1.2-16.7,3.3-24.8,5.7c-21.7,6.3-41.6,16.1-59.8,29.1
			c-2.9,2.1-5.8,4.2-8.2,6.8c-0.9,1-2.1,1.7-3.1,2.7c-2.6,2.5-5.4,4.9-7.8,7.7c-2.9,3.4-5.3,7.2-8.1,10.6c-3,3.6-6.5,6.9-9.5,10.6
			c-1.9,2.3-4.1,4.2-5.8,6.8c-4.7,7.2-10,14.1-13.2,22.2c-1.6,4.1-2.9,8.3-2.7,12.8C499.3,516.1,514.4,541.2,538.2,559.8z M733,384
			c-0.7-0.5-1.3-1-1.9-1.4C732.5,382.2,732.5,382.2,733,384z"/>
	</g>
	<g id="Phone">
		<path id="hand-fill" class="st114" d="M396.2,585.5c-0.2-0.1-0.3-0.2-0.5-0.2c-47.2-24.3-103.1-21.8-156.1-18.7
			c-26,1.5-58.1-1.6-81.1,13.2c-19.9,12.8-32.7,36.9-39.7,59c-6.5,20.5-9.7,41.8-15.8,62.4c-8.4,28.5-22.3,55.2-40.7,78.6
			C44.1,802.9,20.7,817.2,0,837.4c0,0,0,128.5,0,128.5c37,0,75-1.9,111.7,0.1c6.7-13,9.4-27.2,16.5-40.4
			c10.4-19.4,20.9-38.8,31.3-58.2c9.1-17,18.4-34.1,31.2-48.5c17.4-19.5,40.3-32.8,63.3-44.5c9.1-4.6,18.4-7.3,26.6-13.1
			c11.3-7.9,22.2-17.3,32.9-26.1c10.9-9,22.3-18.2,36.1-21.3c2.7-0.6,5.5-1,7.8-2.4c9.7-6,2.7-21.9,8-32
			c5.7-10.9,20.4-16.5,13.7-31.7c-7-15.5-4.3-18.2,12.2-24.4c9.6-3.6,20.6-10.2,20.1-20.5C410.9,594.9,403.4,589.3,396.2,585.5z"/>
		<g id="phone-fill">
			<path class="st48" d="M286.4,402.7c-7.3,11.4-11.7,24.4-16.8,36.8c-12.9,31.6-30.4,61-45,91.9c-6.5,13.8-12.5,27.9-18.3,42
				c-7.9,18.9-15.8,37.7-23.7,56.5c32.5-5.4,65.2-9.8,98-13c3.5-0.4,7.8-0.4,9.8,2.4c2,2.7,0.9,6.5-0.6,9.5
				c-4.5,8.9-12.3,16.1-21.6,20c-5.4,2.3-11.3,3.3-16.7,5.6c-13.8,5.7-23.6,18.1-32.6,30.1c16.5,3.7,33.6,7.7,47,17.9
				c6.2,4.8,11.6,10.8,18.6,14.5c12.6,6.7,28.6,4.1,40.5-3.8c11.8-7.9,20-20.3,25.7-33.4c5.7-13,9.3-26.9,14.2-40.3
				c18.8-51.8,55.5-95.1,80.6-144.2c8-15.7,15-32.8,13.8-50.4c-0.2-2.3-0.5-4.8-1.9-6.7c-1.4-1.8-3.6-2.9-5.7-3.8
				c-25.4-11.2-50.7-22.5-76-33.7c-16.5-7.3-34.9-17.2-52.7-20.8C307.2,377,294.2,390.5,286.4,402.7z"/>
			<g>
				<path class="st113" d="M417.1,428.5l0.1-0.2c0,0-0.1,0-0.1-0.1C417.1,428.3,417.1,428.4,417.1,428.5z"/>
			</g>
		</g>
		<g id="phone-lines">
			<path class="st37" d="M383.9,418.9c-6.4-3-12.9-6.1-19.4-8.9c-2.3-1-4.6-1.8-7-2.3c-2.3-0.5-3.2,0.5-3.2,2.8
				c0.5,2.7,0.2,5.7,2.9,7.3c3.1,1.8,6,3.9,9.2,5.5c3.9,2,7.8,3.7,11.8,5.2c2.2,0.7,4.5,1.1,6.8,1.1c1.1,0,2.6-1.2,3.1-2.3
				C389.1,424.7,386.5,420.1,383.9,418.9z"/>
			<path class="st37" d="M395.7,424.2c-2.3-0.3-4.3,0.7-5.1,2.8c-0.6,1.7,0.5,5.4,2.3,6c3,1,6,2.8,9.1,0
				C402.8,427.6,400.9,424.9,395.7,424.2z"/>
			<path class="st37" d="M470.6,445.8c-0.3-1.9-0.8-3.8-1.5-5.6c-2.7-6.5-9.4-11.6-14.9-15.7c-0.5-0.4-0.9-0.8-1.4-1.1
				c-6.8-3.3-13.5-6.7-20.3-9.8c-8.1-3.6-16.4-6.8-24.6-10.5c-12.6-5.7-25.2-11.6-37.7-17.4c-4-1.8-8-3.3-11.8-5.4
				c-11.8-6.4-24.6-8.8-37.8-8.3c-7.5,0.3-14.8,2.7-20.7,6.6c-5.8,3.9-13.5,7.1-15.1,15.5c0,0.2-0.2,0.4-0.4,0.5
				c-11.2,15.2-18.2,32.4-25.6,49.5c-3,6.9-6.3,13.6-9.7,20.4c-4.6,9.2-9.6,18.2-13.8,27.6c-7.9,17.5-15.5,35.2-23.4,52.7
				c-0.9,1.9-3,3.6-4.9,4.7c-6.8,3.8-13.5,7.4-20.5,10.7c-9.3,4.4-18.8,8.4-28.2,12.6c-5.1,2.3-10.2,4.3-15.2,6.9
				c-3.8,1.9-6.6,5-8.4,8.9c-3.2,7-6.4,14.1-9.6,21.1c-2.9,6.5-5.7,13.1-8.8,19.5c-0.7,1.5-2.3,2.5-3.4,3.6
				c-0.5,2.1-0.8,4.4-1.6,6.5c-5.1,12.2-10.1,24.5-13.8,37.3c-7.2,25.1-14.7,50.2-28.1,73c-2.3,3.9-4.2,8.1-7,11.6
				c-10.7,13.1-22.1,31-36.1,40.7c-7.8,5.5-16.9,15.6-26.3,23.4v36.9c16.3-12.7,35.4-31.4,41.3-37.4c10-10.2,19.2-20.8,28.9-31.3
				c7-9.3,14.6-18.1,19.1-29.2c4.7-11.7,10.1-23.2,14.6-34.9c2.6-6.8,4.1-14,6-21c1.3,0.5,2.1,0.7,2.9,1c1.6-7.3,3.8-14.1,4.4-21
				c0.4-3.4,2.4-4.9,4.2-6.9c-1.9-2.1-1.9-2.1-1.6-5.1c1.1-0.5,2.3-0.7,2.8-1.4c0.8-1.4,1.1-3,1.6-4.4c4.5-12.8,9.6-25.5,13.5-38.5
				c2.4-8.2,7.9-15.2,8.6-24c0.1-1.1,0.7-2.3,1.5-3.2c3.8-3.8,7.3-7.6,12.7-9.5c10.8-3.8,21.4-8,31.2-14.1c1.9-1.2,4-2,6-2.9
				c-0.3,2.7-1.3,4.6-2.2,6.5c-5.2,10.8-12,21-15.5,32.7c-1,3.3-3.6,5.1-6.3,6.8c-3.7,2.3-7.2,4.8-10.7,7.4
				c-8.8,6.4-17.4,12.8-26.1,19.4c-1.1,0.8-1.8,2.3-2.8,3.6c3,2.1,5.1,3.3,8.6,3.2c5.9-0.2,10.3-2.8,14.9-5.7
				c1.4-0.8,2.6-1.8,4.2-2.3c10.2-3.1,20-7.2,28.9-13.2c1.1-0.7,2.5-1.3,3.9-1.5c3.4-0.8,7-1.4,10.5-2.1c7.3-1.4,14.7-2.5,22-3.8
				c6.5-1.2,14.5-1.7,20.7-4.3c5.2-2.3,7.2-3.9,13.5-3.8c7.6,0.1,15.2,0.2,22.8,0.3c1.7,0,4,0.5,4.2,2.2c0.1,0.5-0.1,1.1-0.2,1.5
				c-1.3,4.4-2.5,8.9-5.3,12.6c-5.9,7.8-16.8,10.5-25.9,11.7c-3.3,0.5-6.7,0.5-10.1,0.9c-4.6,0.7-8.7,2.3-12.6,4.7
				c-12.5,7.8-24.2,16.6-33,26.1c-2,7.2-3.3,13-5.2,18.5c-4.4,13-9.8,25.6-19.1,36c-4.3,4.9-8.3,10.1-12.3,15.3c-1,1.3-1.4,3-2,4.2
				c4.8,4.2,9.4,1,13.6,0.8c3.1-0.2,6.1-2.3,9.1-3.9c3.8-2,8.4-3.4,11-6.5c8-9.3,14.6-19.6,16.5-32.2c0.7-4.8,2.1-9.6,3.3-14.9
				c2.1,0.8,4.1,1.5,6,2.3c1.1,0.4,2.3,1.3,3.3,1c5.5-1.2,9.9,1.4,14.4,3.8c3,1.6,6.5,0.5,9.8,1.6c7.1,2.2,13.5,6,19.8,10
				c4.4,2.9,12.3,11.4,17.9,10.1c-0.3,1.2-0.8,2.8-1.9,3.5c-5.1,3.4-8.2,7-12.3,11.4c-3.3,3.5-6.1,7.3-9.8,10.4
				c-10.4,8.6-21.3,16.5-31.5,25.3c-12.2,10.5-26.5,17.4-40.6,24.4c-1.9,0.9-4.4,0.8-6.9,1.2c-0.8,1.2-1.5,3.1-2.9,4.2
				c-15.6,13.6-26.8,30.6-36.5,48.8c-5.7,10.7-10.8,21.7-16.6,32.2c-9.3,17.1-19.3,33.7-28.4,50.9c-4.5,8.7-8.8,17.5-12.8,26.4h35
				c0.7-1.4,1.4-2.8,2.1-4.2c6.7-13.9,13.5-27.8,20.1-41.7c5.1-10.7,10.1-21.4,15.2-32.1c1.3-2.6,2.3-5.4,3.7-7.9
				c5.1-9.1,10.4-18.1,15.8-27.2c2-3.3,4.2-6.6,6.6-9.8c4.2-5.8,8.3-11.4,12.5-17.1c2.5-3.5,4.6-7.6,7.8-10.3
				c3.2-2.7,7.6-5.9,11.4-5.8c7,0.2,12.1-3.4,16.5-7c9-7.2,19.1-12.6,28.6-19.1c7-4.8,14.4-8.8,20.4-15.3
				c6.5-7.1,13.9-13.5,20.8-20.4c5.1-5.1,9.8-10.2,17.9-9.8c1.2,0.1,2.3-0.5,3.5-0.6c7.7-1,11.1-7.4,15.3-12.6
				c1.1-1.4,1.9-2.6,3.6-3.4c2.8-1.4,5.5-2.1,8.6-1.7c1.3,0.2,3.1,0.1,4-0.6c6.5-5.1,13.4-9.6,17.7-17c2.1-3.5,2.5-6.3,0.8-9.8
				c-2-3.8-1.6-6,1.9-7.9c6.9-3.7,10.6-10,14-16.5c2.6-5,3.3-10.3-0.2-15.2c-3.2-4.4-6.7-8.7-10.6-13.5c1-1.6,2.4-3.9,3.6-5.9
				c9.8-2.1,19.5-1.7,28.3-7c7-4.2,11.4-10.1,14-17.5c0.3-0.7,0.5-1.5,0.3-2.3c-2-8.4-5.4-15.8-14.4-19c-1.6-0.5-3.2-1.4-5.1-2.3
				c1.6-4,2.7-7.8,4.5-11.2c4.6-8.7,9.4-17.2,14.4-25.6c6-10,12.5-19.8,18.7-29.7c2.2-3.4,5-6.7,6.6-10.4c2.7-6,4.3-12.4,8.2-18.1
				c4.3-6.5,6.2-14.6,8.5-22.1C469.6,461.1,472,453.9,470.6,445.8z M349.7,705.9c-0.4-0.3-0.7-0.6-1.1-0.9c1.5-4,3-7.9,4.5-11.9
				c0.9-2.3,2.4-2.1,4.7-1.2C358,698.5,354,702.3,349.7,705.9z M377,652.7c-1.6,6.4-5.4,11.6-10.5,15.9c0.5-7.3,5.9-12.5,7.5-19.2
				C376.7,649.6,377.5,650.9,377,652.7z M394.1,613.8c1.8-7.1,5.2-13.4,8-20.9C406.6,602.3,402.9,610.9,394.1,613.8z M450.3,463.7
				c-1.6,7-4.4,13.7-8.7,19.5c-1.6,2.3-2,5.4-3.2,8c-4.7,10-9.6,20-15.2,29.6c-3,5.1-5.9,10.7-7,16.7c-0.2,1.1-1.1,2.2-1.6,3.2
				c-5.2,10-11.2,19.5-17.5,28.9c-6.5,9.7-11.9,20.1-17.8,30.2c-2.8,4.8-5.6,9.6-8.1,14.5c-4.9,9.3-9.8,18.6-14.5,28
				c-4.5,9-8.3,18.4-13.1,27.4c-4.5,8.3-9.8,16.2-15,24.1c-3.6,5.7-7.7,11.1-11.2,16.8c-2.7,4.2-6,6.3-11.2,6
				c-7.1-0.5-13.7-2.5-20-5.5c-13.5-6.5-27-13.2-40.3-20.2c-5.7-3-11-6.8-16.9-10.5c4.2-5.9,8.8-11.8,14.9-16.3
				c0.7-0.5,1.3-0.8,2-1.2c13.6,5.4,27.7,10,41.2,15.8c5.1,2.3,10.4,4.5,15.9,5.3c5.6,0.8,11.6,0,16-3.5
				c9.6-7.8,14.7-18.7,20.2-29.5c13.3-24.7,26.5-49.6,40.1-74.1c3.4-6.2,7.7-12.4,10.5-18.9c2-4.6,3-8.8,5.5-13.3
				c1.3,0,6.3-11.1,7.1-12.6c2.3-4.2,4.5-8.5,6.7-12.8c4.2-8.3,6.8-17.4,10-26.3c2-5.5,6-13.8,4.2-19.8c-1.7-5.5-6.9-9.6-11.6-12.4
				c-6.5-4-13.3-7.4-20.1-10.7c-13.6-6.4-27.6-11.8-41.4-17.7c-3.6-1.5-7.2-3.2-10.8-4.8c-8.1-3.7-16.7-7.9-25.6-6.9
				c-1.9,0.2-3.9,0.7-5.4,1.8c-1.6,1.2-2.6,3.1-3.5,4.8c-9.2,17.2-17.6,34.7-25,52.8c-10.4,25.6-22.8,50.6-36.9,74.4
				c-7.2,12.1-15,24.1-19.9,37.4c-3.1,8.3-5.7,18.1-12.6,23.1c-6.2,0.8-12.3,1.7-18.5,2.9c3.5-5.2,4.6-10.3,9.6-12.9
				c1.3-0.7,2.4-2.1,3.2-3.3c4.1-6.9,8-13.7,11.8-20.6c6.5-11.8,10.4-24.7,14.9-37.3c2.3-6.7,5.8-13,8.9-19.5
				c4.2-8.8,9.8-17.7,13.2-27c4.2-12,9.6-23.2,14.6-34.9c4.8-10.8,9.1-21.9,13.1-33c3.6-10.1,8.5-19.3,15-27.8
				c3.3-4.2,7-8,11.2-11.4c6-4.8,20.6-2.3,27.4-0.9c9.4,2,18.3,5.6,27.3,9.1c19.1,7.4,37.9,15.7,56.7,23.9
				c9.8,4.3,19.8,9.2,27.7,16.5c3.8,3.4,6.2,5.6,6.1,10.8C452.5,454.7,451.4,459.3,450.3,463.7z"/>
		</g>
	</g>
	<g id="Noodle02">
		<g id="noodle02-fill">
			<path class="st36" d="M599.5,519.5c2.5-5.3,2.8-10.6,1.4-15.8c-0.9-0.8-1.8-1.6-2.7-2.4c-3.3-2.9-7.4-4.7-11.8-5.1
				c-5.1-0.4-9.8,1.1-13.5,4.1c0.5-0.1,1.1-0.2,1.6-0.2c3.4-0.5,7.3,2.7,6.9,6c-1.5,12.5-10.1,19.5-22.6,19.5
				c-3.4,0-6.7-1.5-10.1-1.7c-9.4-0.7-15-9.2-13-18.1c0.6-2.8,1.2-5.7,0.9-8.4c-0.5-6.7,2-12.2,5.9-17.3
				c5.5-7.3,12.4-12.3,20.7-16.3c8.4-4.1,17-6.4,26.2-7c3-0.2,6.5-0.5,9,0.8c7.5,3.9,15,8.2,19.6,15.8c2.5,4.2,5.2,8.4,6.9,12.9
				c2.9,7.6,7.3,14.1,13.2,19.5c7.4,6.8,15.1,13.4,22.9,19.9c11.1,9.2,24,15.7,37.9,18.8c9.8,2.2,20.2,2.4,30.3,2.5
				c7,0,14.8,0.8,20-6.2c7.7-1.5,6.5-10.8,12.4-13.9c1.2-6.1,4.1-12.2,1.3-19c-0.9,0.5-1.7,0.8-2.2,1.3c-5,5.4-10.8,9.8-16.8,14
				c-10.8,7.7-22.7,9.5-35.2,6.8c-11-2.3-21.4-6.4-30.7-12.9c-8.8-6.1-17.6-12.5-23.5-21.7c-3.8-5.9-7.1-12.1-10.5-18.2
				c-5.6-9.9-13-18.1-22.3-24.6c-2.8-2-5.7-4.1-8.9-5.2c-12.3-4.3-25.3-4.9-37.8-2.1c-15.7,3.5-29.2,10.6-40.5,21.2
				c-3.7,4.3-7,8.8-8.4,14.4c-1.5,5.8-1.3,12-1.1,17.9c0.1,6.8,1,12.5,4.3,18.5c3.3,6,6.9,11.9,10.4,17.9c0.1,0.1,0.1,0.2,0.2,0.3
				c3.6,2.2,7.4,3.8,11.9,4.3c3.6,0.4,7.4,0.7,10.7,2c4.6,1.8,8.5,0.8,12.9-0.4C587.2,538.3,594.4,530.2,599.5,519.5z"/>
			<path class="st36" d="M868.2,532.4c0.2-0.2,0.5-0.5,0.8-0.7c-0.5,0.3-0.9,0.5-1.4,0.7C867.8,532.4,868,532.4,868.2,532.4z"/>
			<path class="st36" d="M918.2,503c-1.4-5.5-3.1-10.9-4.8-16.4c-0.4-1.3-1.2-2.8-2.3-3.4c-5.7-3.4-11.4-6.9-17.4-9.9
				c-7.6-3.8-16-4.6-24.3-5.2c-8.7-0.6-17.2,1.5-25.7,3.6c-1.4,0.3-2.9,1.6-3.7,2.8c-2.7,4.2-5.1,8.5-7.6,12.7
				c0.9,1.4,1.1,3.1,0.2,5c-5.3,10,5.5,22.2,15,25.3c-1.1-1.5-1.7-3.6-1.8-6.1c-0.4-12.6,5.3-22.6,14-31.2c2.5-2.5,5.4-3.7,8.7-3.4
				c9.1,1,17.4,4,24.9,9.6c4.4,3.3,6.2,7.7,6.5,12.5c0.4,5.4,0.7,11.3-1.1,16.2c-2.5,6.7-6.9,12.9-12.8,17.4
				c-2.4,1.8-5.2,2.9-7.8,4.6c-9.2,5.9-18.9,10.2-30.1,10.2c-3.5,0-6.9,0.3-10.4,0.1c-6-0.5-12.1,0.1-17.8-3
				c-10-5.6-14.8-14-15.5-25.2c-0.7-10.7-3.3-20.8-9.8-29.6c-4.1-5.6-8.4-10.7-14.7-14.3c-7.4-4.2-15.2-6.3-23.5-7.9
				c-0.6-0.1-1.2-0.2-1.8-0.3c-0.2,0-0.5,0-0.7,0c-4.6-0.4-9.3-0.5-13.7,1.4c-2.1,0.9-8.1,4.3-6.6,7.3c1.9,1.1,3.9,2,5.9,2.8
				c0.3,0,0.6-0.1,0.8-0.1c10.2-0.7,26.4-0.2,31.8,10.4c2.6,5.2,5,10.6,6.6,16.2c1.9,6.6,2.6,13.4,4.2,20.1c0.5,2.1,1.6,4.3,3,6
				c6.3,7.2,12.5,14.4,19.3,21.1c2.9,2.9,7.1,4.6,10.7,6.7c7.7,4.5,16.3,4.3,24.7,5c17.7,1.4,34.3-2.3,50.1-10.1
				c2.8-1.3,6.3-1.9,6.4-6.2c0-0.7,1.4-1.3,2.1-2c2.3-2.3,4.8-4.3,6.8-6.8c2.6-3.3,4.5-7.3,7.3-10.4c3.7-4,3.7-7.8,0.1-12.2
				C919.8,513.3,919.5,508.2,918.2,503z"/>
			<path class="st36" d="M548.5,427.2c-0.6,0.2-0.6,0.2,0.1,0.2c0.4,0,0.8,0,1.2-0.1c5.1-0.2,10.4-1.5,15.5-2.3
				c6.1-0.9,12.2-1.8,18.3-2c15-5.2,29.8-3,44.3,1.8c10.6,3.5,17.9,12,24.6,20.3c7.2,9,12.8,19.2,19.2,28.9c2.4,3.7,4.6,7.7,7.6,11
				c12.3,13.7,23,28.6,43.2,28.5c4.4,0,9-0.8,12.7-3.3c0.2-0.1,0.4-0.3,0.6-0.4c3.4-2.5,5.6-6.7,5-10.9c-0.3-2.1-1.9-4.4-4-4.4
				c-3.5,0.1-4.8,5.1-7.6,6.5c-3.2,1.7-7.7,0.8-10.7-1.1c-4.1-2.6-8.8-5-11.6-8.7c-4-5.4-8.7-10.4-12.5-15.9
				c-5.9-8.4-10.7-17.6-16.3-26.3c-6.5-9.9-15.4-17.7-24.5-25.1c-3.3-2.6-7.1-4.9-11-6.4c-15.7-5.9-32-9.3-48.8-8.5
				c-5.4,0.3-10.9,1.2-16.2,2.4c-5.9,1.4-11.2,4.3-16.7,6.9c-4.3,2.1-8.2,4.6-11.7,7.5C548.8,426.7,548.5,427.3,548.5,427.2z"/>
			<path class="st36" d="M729.6,439.3c-5.1,4.5-10.4,9.2-13.6,15.4c-0.5,0.9-0.7,1.9-1,2.8c0.7,0.1,1.6,0.1,2.5,0.1
				c17.9-14.6,49.8-15.9,69.4-4.2c11.3,6.7,17.1,18,23.9,28.7c4,6.4,7.7,4.7,8.8-2.4c0.1-0.4,0.1-0.9,0.2-1.3
				c1.3-9.7-2.2-16.1-8.5-23.5c-5.5-6.5-12.5-11.9-20.1-15.8c-17-8.5-36.8-10-55-4.7c-1.8,0.5-3.5,1.1-5.3,1.7
				C731,437.2,730.6,438.4,729.6,439.3z"/>
			<path class="st36" d="M737.2,392.6c0-0.9,0.1-1.6,0.5-2.3c-1.4-3.7-3.7-7.1-6.8-9.6c-15-12.1-31.2-12.3-48-4.6
				c-6.4,3-10.2,8.5-10.5,15.9c-0.1,3.4,0.2,6.9,0.4,10.3c0.2,2.7,1.7,4,4.3,4.2c2.4,0.1,4.3-0.4,5.1-3.2c0.9-2.8,1.9-5.8,3.6-8.2
				c2.2-3.1,4.6-6.7,7.8-8.2c6.2-2.9,12.8-4.8,20-3.4c6.2,1.2,8.9,3.2,9,9.5c0.1,4.7-1.2,9.6-2.3,14.3c-1.7,7.7-8.4,10-13.5,9.9
				c-1.7,0-4-1.3-5.1-2.6c-3.1-3.8-1.5-9.1,2.9-11.1c2.1-0.9,4.2-1.7,6.5-2.7c-1.7-2.6-2.8-4.5-4-6.4c-6.4-1.3-11.5,2.3-16.9,4.3
				c-2.8,1-5.3,7-4.6,9.2c1.7,5.6,4.3,10.9,7.7,15.7c0.7,0.9,1.7,1.9,2.7,2.3c2.1,0.8,4.2,1.5,6.3,2
				C719.9,423.9,738.3,412.9,737.2,392.6z"/>
			<path class="st36" d="M792.7,566.9c-2-3.5-4.7-6.8-7.9-9.3c-5.5-2-11.6-2.7-17.4-1.9c-24.9,3.5-43,26.9-68.3,30.1
				c-2.2,0.3-4.4,0.4-6.6,0.4c-2.3,1.1-4.6,2.2-6.8,3.5c0,0,0,0,0,0c0.6,1.6,1.4,2.9,2.4,4c10.1,1.6,20.5,1.5,30.5-0.7
				c0.3-0.1,0.6-0.1,0.9-0.2c17.5-4.1,31.9-13.1,47-22.5c5.7-3.6,13.9-5.6,19.7-1.1c6.5,5.1-0.2,17.1-7.1,13.4c-3.1-1.6-2.9-6-3-9.4
				c0-0.5-0.1-1.1-0.4-1.5c-1-1-2.5,0.3-3.2,1.6c-1.9,3.4-3.4,8-0.8,10.9c1,1.1,2.3,1.7,3.7,2.2c2.4,1,4.9,1.8,7.4,2.4
				c3.2-0.8,6.3-2,9.1-3.7C795.2,579.7,795.7,572.8,792.7,566.9z"/>
			<path class="st36" d="M852.6,452.2c-0.7,0.1-1.4,0.2-2,0.2c0.8,0.1,1.6,0.1,2.4,0.2C852.8,452.5,852.7,452.4,852.6,452.2z"/>
			<path class="st36" d="M577.2,377.9c1.3,0.9,0.6,0.7,2.4,1.7c2.2,1.2,5,2,8.5,2.5c7.2,1.1,14.7,0.1,21.5-2.4
				c7.3-2.7,13.8-6.9,20.5-10.9c1.7-2.4,3.7-4.6,6-6.5c5.3-4.2,12.1-6,17.7-9.9c1-0.7,2-1.9,1.4-2.9c-0.4-0.7-1.3-0.8-2.2-0.9
				c-4.4-0.3-8.8-0.7-13.1,0.1c-7.1,1.4-14,6.4-18.4,11.9c-0.1,0.2-0.3,0.3-0.4,0.5c-4.6,5.9-7.8,13.8-15.1,16.7
				c-3.3,1.3-7.3,1.3-10.3-0.7s-4.4-6.3-2.6-9.4s6.8-3.9,9-1.1c0.4,0.5,0.7,1,1.1,1.5c2.1,2,5.9-1.2,5.2-4c-0.7-2.9-3.7-4.5-6.6-5.1
				c-10.2-2.3-21.7,4.4-24.6,14.5c-0.3,0.9-0.5,1.8-0.6,2.7c0.1,0.4,0.2,0.8,0.3,1.3C577.6,378.6,577.7,378.7,577.2,377.9z"/>
			<path class="st36" d="M687.2,567.8c3.9-1.8,6.9-4.8,9.9-7.6c-10.1,0-19-5.8-28.7-12.5c-9.4-6.4-19.8-11.4-30.8-14.6
				c-6.6-2-13.4-3.4-20.2-2.8s-13.7,3.2-18.3,8.3c-2.5,2.7-4.2,6.2-4.8,9.8c1.8,6.8,7.3,10.1,13.6,11.6c-0.2-0.3-0.4-0.7-0.5-1
				c-2.8-7.3,3.6-15.6,11.2-17.2c7.6-1.6,15.5,1.8,21.8,6.4c6.3,4.6,11.6,10.4,18.1,14.8c4.9,3.3,10.4,5.6,16,7.3
				C678.9,570.3,683.2,569.6,687.2,567.8z"/>
			<path class="st36" d="M768.6,366.2c3.1,0.9,6.4,0.5,9.6,0.1c7.4-0.9,15.2-1.4,22.2,1.2c7,2.6,13.1,9.1,12.9,16.6
				c-0.1,3.3-1.6,6.8-4.6,8.2c-1.9,0.9-4.1,0.8-6.1,0.3c-4.6-1.1-8.8-6.2-6.5-10.3c0.7-1.1,1.8-2.1,1.8-3.4c0-1.9-2.3-2.9-4.2-2.9
				c-5.3,0.2-9.5,5.8-9.2,11.1c0.2,4.1,2.6,7.9,5.9,10.4c9.5,1,21.7,2.4,28.9-5.2c4.3-4.5,5.4-11.7,5.3-18.7
				c-3.6-6.2-9.3-11.2-15.8-14.4c-10.3-5-22.2-5.6-33.6-4.9c-3.2,0.2-10,0.2-11.9,3.4C761.3,361.5,765.4,365.2,768.6,366.2z"/>
			<path class="st36" d="M748.8,367.6c-2.3-5.6-5.7-10.6-9.5-15.3c-14.2-8-29.9-9.9-46.3-7c-12.7,2.3-23.8,7.2-33.5,14.1
				c-8.2,5.8-15.4,13.1-22,21.5c-4,5.1-4.4,8.4-1.6,13c0.5,0.8,1,1.6,1.6,2.4c5.2,6.9,12.9,9.5,18.1-1.6c1-2.2,1.8-4.7,3.4-6.4
				c6.2-6.4,12-13.5,19.3-18.4c11-7.3,23.4-11.5,37-11.1c4.5,0.1,8.8,0.1,13,2.5c8.7,5.1,15.6,11.4,17.6,21.8c0.1,0.7,0.7,1.5,1.3,2
				c0.7,0.7,1.4,1.3,2.1,2c1.4-1.9,2-5.2,2.1-7C751.5,375.9,750.5,371.6,748.8,367.6z"/>
			<path class="st36" d="M815.2,419.3c-0.8-0.8-1.2-1.7-1.3-2.6c-5.1-3.5-10.5-6.4-16.3-8.4c-3.3-1.2-6.6-2.1-10.1-2.7
				c-0.6-0.1-1.2-0.2-1.8-0.3c-9.5-1.3-19.4,0-28,4c-2.3,1.1-10.2,4.3-9.2,7.9c0.7,2.5,13.1,1.9,15.9,2.1c6.1,0.4,12.2,0.8,18.1,1.9
				c10.9,2.1,21.3,6.8,30.1,13.5c4.7,3.6,9.4,7.5,14.3,11c0.3-1.2,0.5-2.4,0.6-3.6C827.9,433,820.9,425.5,815.2,419.3z"/>
		</g>
		<g id="noodle02-shade">
			<path class="st125" d="M582.5,394c6.3,6.6,14,5.6,21.8,2c3.2-1.4,6.3-3,9.1-5.1c7.9-5.8,11.3-14.8,16.7-22.2
				c-6.6,4-13.2,8.1-20.5,10.9c-6.8,2.6-14.3,3.5-21.5,2.4c-3.5-0.5-6.3-1.3-8.5-2.5c-1.8-1-1.1-0.8-2.4-1.7
				c0.5,0.9,0.4,0.7-0.4-0.5c-0.1-0.4-0.2-0.9-0.3-1.3C575.7,382.5,578.1,389.3,582.5,394z"/>
			<path class="st125" d="M819.4,392.4c-7.2,7.6-19.4,6.3-28.9,5.2c1,0.8,2,1.4,3.1,2c4.8,2.4,10.3,2.8,15.7,2.4
				c7.6-0.5,16.2-3.4,18.6-10.6c0.6-1.9,0.7-3.9,0.6-5.8c-0.3-4.3-1.6-8.3-3.7-12C824.8,380.7,823.7,387.9,819.4,392.4z"/>
			<path class="st125" d="M827.5,442c-0.1,1.2-0.3,2.4-0.6,3.6c4.1,2.9,8.4,5.6,13,7.6c7.7,3.3,16.3,4.8,24.5,2.9
				c2.9-0.7,5.8-1.8,8.3-3.5c7.9-5.3,10.9-16.1,8.7-25.3c-1.9-7.8-7.2-14.7-14.5-17.9c-7.3-3.2-16.4-2.1-22.5,3.1
				c-2.9,2.5-5.1,6.3-4.1,10s6.2,5.9,8.8,3.2c1.4-1.5,1.6-3.8,2.7-5.5c1.4-2,4-2.8,6.4-2.4c2.4,0.4,4.5,1.9,6.1,3.6
				c4.6,5,5.4,13.7,0.5,18.4c-4.6,4.4-12,3.9-18.3,2.5c-11.7-2.7-14.9-10.7-23.1-18.2c-3-2.7-6.1-5.2-9.5-7.5
				c0.1,0.9,0.5,1.8,1.3,2.6C820.9,425.5,827.9,433,827.5,442z"/>
			<path class="st125" d="M832.6,492.3c1-1.8,0.7-3.6-0.2-5c-0.3,0.5-0.5,0.9-0.8,1.4c-3.9,6.7-4.1,13.9-2.8,21.3
				c1.5,8.3,8,13.4,13.2,19.2c0.4,0.4,1.1,0.6,1.6,0.9c7.7,4,15.8,2.7,23.9,2.4c0.5-0.2,0.9-0.5,1.4-0.7c3.3-3,7.5-5.6,9.3-9.3
				c2.3-5.1,3.4-11.3-1.6-16.3c-5.9-0.6-6-0.7-8.2,4.4c-2,4.6-5.7,7.5-10.1,9.2c-4.8,1.9-8.7,1-10.8-2.1
				C838.1,514.5,827.3,502.3,832.6,492.3z"/>
			<path class="st125" d="M740.3,468.3c4.4-1.8,9.1-1.7,13.7-1.4c0.3,0,0.5,0,0.7,0c-9.7-1.6-19-0.8-27.9,3.5
				c-3.5,1.7-10.4,5.2-10.2,9c0.1,1.4,1.2,2.9,3.9,4.2c0.5,0.2,1,0.4,1.5,0.4c0.7,0,1.3-0.4,1.8-0.8c4.7-3,10.2-4.4,15.7-4.9
				c-2.1-0.7-4-1.6-5.9-2.8C732.2,472.6,738.1,469.2,740.3,468.3z"/>
			<path class="st125" d="M709.6,462.6c2.5,0,4.6-2,6.4-3.7c0.5-0.4,1-0.9,1.5-1.3c-0.9,0-1.8,0-2.5-0.1c0.3-0.9,0.6-1.9,1-2.8
				c3.2-6.1,8.4-10.9,13.6-15.4c1-0.9,1.4-2.1,1.4-3.3c-9,3.1-17.5,7.3-25.1,13.2C701.3,452.8,702.7,462.6,709.6,462.6z"/>
			<path class="st125" d="M751.4,380.3c0,1.8-0.7,5-2.1,7c4,3.6,8.3,6.2,14.3,3.2c1.7-5.2,1.7-10.3-1.1-15.2c-1-1.7-2.9-3-3.5-4.8
				c-2.3-7.5-9-11.1-14.6-14.9c-1.7-1.2-3.5-2.3-5.2-3.3c3.8,4.7,7.2,9.7,9.5,15.3C750.5,371.6,751.5,375.9,751.4,380.3z"/>
			<path class="st125" d="M722.4,427.7c5.2-1.6,9.5-4.4,11.1-10.2c0.6-2.1,1.9-4,2.9-6c3.6-6.6,3.9-14.5,1.3-21.3
				c-0.4,0.7-0.6,1.4-0.5,2.3c1.2,20.3-17.3,31.3-34.8,35.3C708.9,429.5,715.6,429.8,722.4,427.7z"/>
			<path class="st125" d="M543.4,431.4c-2.7,2.9-8,7-6.9,11.5c8.7-2.6,16.2-8.4,24.7-11.8c7.2-2.9,14.7-5.3,22-8
				c0.1-0.1,0.3-0.1,0.4-0.1c-6.1,0.3-12.2,1.1-18.3,2c-5.1,0.8-10.3,2.1-15.5,2.3c-0.4,0-0.8,0.1-1.2,0.1c-0.7,0.1-0.7,0-0.1-0.2
				c0,0.1,0.3-0.6,0.6-1.2C547.1,427.7,545.2,429.5,543.4,431.4z"/>
			<path class="st125" d="M529,517.1c-3.3-6-4.2-11.7-4.3-18.5c-0.1-6-0.4-12.1,1.1-17.9c1.4-5.6,4.8-10.1,8.4-14.4
				c-4.2,3.9-8.1,8.3-11.6,13.2c-3.8,5.2-5.8,11.2-5.3,17.7c0.2,3,1.2,5.9,2.3,8.8c3,8.4,5,17.2,12.4,23.5c2.5,2.1,4.9,4.1,7.6,5.7
				c-0.1-0.1-0.1-0.2-0.2-0.3C535.9,529.1,532.3,523.1,529,517.1z"/>
			<path class="st125" d="M586.4,496.2c4.4,0.4,8.5,2.2,11.8,5.1c1,0.8,1.8,1.6,2.7,2.4c-0.5-2-1.3-4-2.3-6
				c-2.5-5-5.8-9.9-12.5-10.3c-6.6-0.4-13,0.4-19.2,2.4c-5.8,1.9-9.9,5.7-10.5,12.1c-0.1,1.4,0.6,2.8,1,4.4
				c6.3-3.7,10.2-5.3,15.4-6.2C576.6,497.3,581.3,495.7,586.4,496.2z"/>
			<path class="st125" d="M594.3,548.3c-0.6,3.1-0.3,6.3,0.9,9.3c3.6,8.7,14.3,12.3,23.8,12.3c3.5,0,7-0.3,10-2c3-1.7,5.3-5,4.9-8.5
				c-0.4-3.4-4.3-6.2-7.5-4.9c0.2,3.2-2.5,6-5.6,7c-3,1-6.3,0.6-9.5,0.2c-0.8-0.1-1.6-0.2-2.2-0.6c-0.5-0.3-0.8-0.7-1.1-1.2
				C601.6,558.4,596.1,555.1,594.3,548.3z"/>
			<path class="st125" d="M685.7,589.6c2.2-1.3,4.5-2.4,6.8-3.5c-7.6-0.1-15.1-1.6-22.5-3.4c-1.3-0.3-2.6-0.6-3.9-0.3
				s-2.5,1.4-2.3,2.7c0.1,1.5,1.8,2.3,3.1,2.8c6.8,2.6,13.9,4.5,21.2,5.6C687.1,592.5,686.3,591.2,685.7,589.6
				C685.7,589.6,685.7,589.6,685.7,589.6z"/>
			<path class="st125" d="M700.3,572.7c7-1.2,13.6-4.5,18.7-9.5c1.6-1.6,3.2-3.8,2.4-5.9c-0.7-1.9-3-2.8-5-2.6
				c-2,0.2-3.8,1.3-5.7,2.2c-4.9,2.4-9.4,3.4-13.6,3.4c-3.1,2.9-6,5.8-9.9,7.6c-4,1.9-8.3,2.6-12.6,2.3c2.5,0.7,5.1,1.4,7.7,1.9
				C688.2,573.1,694.3,573.7,700.3,572.7z"/>
			<path class="st125" d="M790.4,589.3c5.2-0.5,10.4-3.6,12-8.5c2.1-6.2-1.9-12.9-6.9-17.1c-3.2-2.6-6.8-4.7-10.7-6.1
				c3.1,2.5,5.8,5.7,7.9,9.3c2.9,5.9,2.4,12.9-0.9,18.2c-2.8,1.7-5.9,2.9-9.1,3.7C785.2,589.3,787.8,589.6,790.4,589.3z"/>
		</g>
	</g>
	<g id="SnowPeas">
		<path id="snowpeas-fill" class="st130" d="M821.9,334.4c0.2,0,0.3,0,0.4,0.1c0.2,0.1,0.4,0.3,0.5,0.6c0.7,1.1,1.5,2.6,2.3,3.6
			c1.2,2,1.2,3.9,0.2,5.9c-1.5,3.2-2.9,6.4-5.1,9.1c-3.2,4.1-5,8.9-7.6,13.3c-1.4,2.3-3,4.6-4.4,6.8c-0.7,1.2-1.5,2.3-2.4,3.9
			c4.6-1,9.1-2.3,13.8-2.9c5.1-0.7,10.3-0.9,15.4-0.8c8.5,0.2,17,1.5,25.5,2.3c2.4,0.2,4.8,0.4,7.2,0.2c1.4-0.1,2.8-0.3,4.1,0
			c2.6,0.6,4.7,3.7,4.2,6.4c-0.7,3.4-4.5,6.5-6.9,8.7c-5,4.6-10.5,8.6-16,12.4c-1.9,1.3-3.5,2.9-5.6,3.8c-4.2,1.8-7.3,5.2-10.9,7.9
			c-3.6,2.8-7.1,5.8-10.6,8.7c-0.6,0.5-1.1,1-1.9,1.7c0.7,0.1,1.2,0.2,1.7,0.2c8.3-0.1,16.3,1.8,24.3,3.9c5.4,1.4,10.7,3.1,16,4.9
			c6.3,2.1,12,5.5,17.5,9.2c2.6,1.7,4.9,3.8,7.3,5.7c1.7,1.3,2.4,2.9,1.9,5c-0.3,1.5-1.3,2.7-2.9,3c-4.1,0.6-8.1,1.1-12.2,1.7
			c-2.9,0.4-5.8,0.8-8.8,1.2c-5.5,0.7-10.9,1.4-16.3,2.3c-3.1,0.5-6.2,1.3-9.3,2.2c-5.6,1.6-11.4,2.5-17,3.9
			c-5.3,1.4-10.7,2.6-16.1,3.5c-2.9,0.5-5.8,1.2-8.7,1.7c-5.8,1-11,3.6-16.3,6c-2.9,1.3-5.9,2.2-8.9,3.3c-3.1,1.1-6.5,1.4-9.5,3
			c-0.8,0.4-2.1,0.1-3.2,0.2c-1.3-2.6-2.9-5.1-3.3-8.1c-0.3-2.1-1-4.2-1.6-6.2c-0.1-0.3-0.4-0.7-0.7-0.9c-2.6-1.6-3.3-4.3-4.1-7
			c-0.2-0.8-0.5-1.6-1-2.9c-0.9,1.7-1.6,3-2.2,4.3c-0.6,1.3-1.2,2.7-1.9,4c-0.7,1.4-1.6,2.6-2.6,3.1c-1.2-0.4-2-1-2.9-0.9
			c-1.1,0-1.6-0.4-1.8-1.4c-0.1-0.8-0.4-1.6-0.2-2.3c0.2-1.4-0.3-2.4-1.2-3.4c-3.6-4.4-7.1-8.9-9.7-13.9c-1.9-3.6-3.3-7.5-4.8-11.4
			c-2.5-6.4-3.7-13.1-3.8-20c-0.1-4.9,1.1-9.6,2.7-14.3c1.9-5.4,4.3-10.5,7-15.5c1.6-3,3.5-5.9,5.2-8.8c1.2-2.1,2.3-4.4,3.6-6.5
			c5.4-9,10.7-17.4,19-24c7.4-5.8,16.2-10,25.6-11.5c2.2-0.4,4.5-0.5,6.8-0.6c3.2,0,6.4,0.2,9.6,0.2c6.9-0.2,13.7-2,20.2-4.2
			C821.4,334.5,821.6,334.4,821.9,334.4z"/>
		<g id="snowpeas-lines">
			<path class="st37" d="M821.9,334.4c0.2,0,0.3,0,0.4,0.1c0.2,0.1,0.4,0.3,0.5,0.6c0.7,1.1,1.5,2.6,2.3,3.6c1.2,2,1.2,3.9,0.2,5.9
				c-1.5,3.2-2.9,6.4-5.1,9.1c-3.2,4.1-5,8.9-7.6,13.3c-1.4,2.3-3,4.6-4.4,6.8c-0.7,1.2-1.5,2.3-2.4,3.9c4.6-1,9.1-2.3,13.8-2.9
				c5.1-0.7,10.3-0.9,15.4-0.8c8.5,0.2,17,1.5,25.5,2.3c2.4,0.2,4.8,0.4,7.2,0.2c1.4-0.1,2.8-0.3,4.1,0c2.6,0.6,4.7,3.7,4.2,6.4
				c-0.7,3.4-4.5,6.5-6.9,8.7c-5,4.6-10.5,8.6-16,12.4c-1.9,1.3-3.5,2.9-5.6,3.8c-4.2,1.8-7.3,5.2-10.9,7.9
				c-3.6,2.8-7.1,5.8-10.6,8.7c-0.6,0.5-1.1,1-1.9,1.7c0.7,0.1,1.2,0.2,1.7,0.2c8.3-0.1,16.3,1.8,24.3,3.9c5.4,1.4,10.7,3.1,16,4.9
				c6.3,2.1,12,5.5,17.5,9.2c2.6,1.7,4.9,3.8,7.3,5.7c1.7,1.3,2.4,2.9,1.9,5c-0.3,1.5-1.3,2.7-2.9,3c-4.1,0.6-8.1,1.1-12.2,1.7
				c-2.9,0.4-5.8,0.8-8.8,1.2c-5.5,0.7-10.9,1.4-16.3,2.3c-3.1,0.5-6.2,1.3-9.3,2.2c-5.6,1.6-11.4,2.5-17,3.9
				c-5.3,1.4-10.7,2.6-16.1,3.5c-2.9,0.5-5.8,1.2-8.7,1.7c-5.8,1-11,3.6-16.3,6c-2.9,1.3-5.9,2.2-8.9,3.3c-3.1,1.1-6.5,1.4-9.5,3
				c-0.8,0.4-2.1,0.1-3.2,0.2c-1.3-2.6-2.9-5.1-3.3-8.1c-0.3-2.1-1-4.2-1.6-6.2c-0.1-0.3-0.4-0.7-0.7-0.9c-2.6-1.6-3.3-4.3-4.1-7
				c-0.2-0.8-0.5-1.6-1-2.9c-0.9,1.7-1.6,3-2.2,4.3c-0.6,1.3-1.2,2.7-1.9,4c-0.7,1.4-1.6,2.6-2.6,3.1c-1.2-0.4-2-1-2.9-0.9
				c-1.1,0-1.6-0.4-1.8-1.4c-0.1-0.8-0.4-1.6-0.2-2.3c0.2-1.4-0.3-2.4-1.2-3.4c-3.6-4.4-7.1-8.9-9.7-13.9c-1.9-3.6-3.3-7.5-4.8-11.4
				c-2.5-6.4-3.7-13.1-3.8-20c-0.1-4.9,1.1-9.6,2.7-14.3c1.9-5.4,4.3-10.5,7-15.5c1.6-3,3.5-5.9,5.2-8.8c1.2-2.1,2.3-4.4,3.6-6.5
				c5.4-9,10.7-17.4,19-24c7.4-5.8,16.2-10,25.6-11.5c2.2-0.4,4.5-0.5,6.8-0.6c3.2,0,6.4,0.2,9.6,0.2c6.9-0.2,13.7-2,20.2-4.2
				C821.4,334.5,821.6,334.4,821.9,334.4z M829,431.1c-0.9-0.1-1.8-0.1-2.7-0.1c-2,0-3.9,0.7-5.8,0.6c-2.1,0-4.2-0.1-6.1,1.1
				c-1.6,1-3,2.2-4.7,2.9c-2.8,1.1-4.3,3.8-6.9,5.1c-0.1,0.1-0.2,0.2-0.3,0.4c-1.3,1.8-4.8,4.3-4,6.9c0.2,0.7,0.6,1.3,1,1.9
				c1.5,2.1,3.5,4.6,6,5.4c1.5,0.5,5.7-1.2,6.5,0.5c-2,2.5-5.4,3.7-8.6,3.2c-3.2-0.4-6.1-2.2-8.3-4.6c-0.8-0.9-1.6-1.9-2-3.1
				c-0.3-1,0.1-2-0.3-3c-0.4,0.2-0.8,0.4-1.2,0.6c-4.8,2.8-9.6,5.6-14.5,8.4c-0.5,0.3-1.1,0.7-1.5,1.1c-3.7,3.1,2.3,6,5,6.2
				c1.5,0.1,3-0.3,4.5-0.5c0.3,0,0.6,0,0.8,0.1c0.4,0.4,0.1,1-0.3,1.4c-3.1,3.2-9,4.9-12.3,1.2c-1-1.2-1.9-2.4-2.8-3.6
				c-1.9,1-3.8,2-6,3.1c-0.9,0.5-0.6,4.8-0.6,5.7c0.1,1.8-0.4,6.6,2.1,7c0.9,0.1,1.9-0.3,2.7-0.7c9.9-4.5,20.1-8.2,30.6-11.2
				c10.6-3,21.4-4.8,31.9-7.8c0.8-0.2,1.6-0.4,2.4-0.7c6.9-1.9,13.8-3.8,20.7-5.7c6.7-1.9,13.6-2.7,20.5-3.9
				c0.4-0.1,0.8-0.2,1.5-0.5c-0.9-0.6-1.4-1-2-1.3c-7.1-4.5-15.2-6.5-23.1-9c-4.1-1.3-8.5-2.1-12.2-4.3
				C836.4,432.4,832.5,431.5,829,431.1z M743.9,460.8c1-2.3,1.8-4,2.6-5.8c0.7-1.5,1.4-3.1,2.4-4.5c1.1-1.6,2.5-3,3.6-4.6
				c1.9-2.9,3.5-6.1,5.5-8.9c3.7-5,6.1-10.6,9.2-15.9c2.6-4.5,5-9.1,7.6-13.6c2-3.3,4-6.7,6.3-9.7c2.4-3.1,4-6.5,6.3-9.7
				c3.1-4.2,5.7-8.8,8.6-13.2c1.1-1.8,2.2-3.5,3.4-5.3c1.8-2.6,3.8-5.1,5.4-7.9c2.4-4.1,4.5-8.3,6.7-12.5c1-2,2.1-3.9,3.5-6.5
				c-1.3,0.1-2.1,0.2-3,0.3c-3.5,0.3-7,0.5-10.4,0.9c-3.2,0.4-6.5,0.7-9.7,1.4c-4.9,1-9.5,3-13.9,5.2c-2.5,1.3-4.8,3.1-7.1,4.9
				c-4.7,3.6-9,7.7-12.4,12.5c-2.7,3.9-5.2,7.9-7.7,11.9c-1.1,1.8-2,3.7-2.9,5.5c-1.8,3.5-3.4,7.2-5.5,10.5
				c-4.6,7.5-8.7,15.2-11.4,23.6c-1.1,3.5-1.6,7.1-1.1,10.8c0.7,4.6,1.9,9.1,3.8,13.4c1.6,3.5,2.8,7.1,5.1,10.1
				C740.6,455.9,742,458.2,743.9,460.8z M861.2,382.4c-1-0.5-2.1-0.5-3.2-0.4c-5.5,0.2-10.8-0.9-16.3-1.1c-2-0.1-3.9,0.6-5.9,0.6
				c-2.8,0.1-5.6,0.1-8.4,0.2c-3,0.1-6,0.3-9,0.8c-5.8,0.8-11.2,2.9-16.4,5.7c-2.2,1.2-4.5,2.6-6.3,4.3c-1.9,1.8-3.3,4.2-5.1,6.5
				c4-0.2,8.6-0.9,10.9,3.2c0.1,0.1,0.1,0.3,0,0.4c-0.1,0.1-0.2,0.1-0.3,0.1c-0.7-0.1-1.5-0.1-2.2-0.1c-3.9,0-8,2.4-9.9,5.9
				c-1.4,2.6-2.1,5.5-0.6,8.4c1.4,2.8,4.5,4.1,7.4,4.7c0.8,0.2,1.9,0.3,2.2,1.1c0.2,0.7-0.2,1.3-0.7,1.8c-1.6,1.5-3.2,0.8-5.1,0.9
				c-0.5,0-1.1,0.1-1.5-0.1c-0.8-0.4-1.6-1-2.3-1.6c-3.7-3-5.2-7-5.1-11.7c0-0.9,0-1.8,0-2.7c-2.8,3.8-5.1,7.7-7.5,11.6
				c-2.3,3.9-4.6,7.8-6.9,11.6c1.4,1.9,2.6,3.5,4.6,4.2c2.3,0.8,4.6,1.3,7,0.8c0.3,0.5-0.2,1-0.7,1.3c-1.3,0.8-2.3,1.9-3.8,2
				c-0.9,0.1-4.3-0.1-4.9-0.8c-1.9-0.4-2.7-1.8-4.2-2.9c-0.5,0.5-1,1-1.4,1.6c-3.3,5.2-6.4,10.4-9.8,15.5c-0.8,1.2-1.5,3-0.6,4.4
				c0.3,0.5,1,0.7,1.4,1.1c0.5,0.5,0.6,1.4,1.4,1.7c0.5,0.2,1,0,1.4-0.2c2.7-1.1,4.7-3.2,6.9-5.1c5.7-4.8,12.7-8,18.7-12.4
				c2.7-2,5.1-4.2,7.8-6.3c4.8-3.7,10.3-6.5,14.9-10.4c4.2-3.6,8.4-7.1,13-10.2c4.4-3,8.3-6.6,11.9-10.4c1.9-2,3.9-4,6.1-5.8
				c2.3-1.9,4.9-3.5,7.3-5.4c2.9-2.3,5.7-4.6,8.6-7C856.6,386.9,860.6,385,861.2,382.4z"/>
			<path class="st37" d="M754.4,386.2c2.7-1.3,5.9-1.7,8.6-0.7c0.5,0.2,1,0.4,1.4,0.9c0.3,0.4,0.4,1.1,0,1.5
				c-0.2,0.2-0.6,0.3-0.9,0.4c-2.2,0.6-4.3,1.4-6.1,2.8c-1.8,1.4-3.2,3.3-3.7,5.5c-0.8,3.5,0.8,9,4,11c2.8,1.8,5.7,3.1,9.2,2
				c1.5-0.5,3,0.4,1.5,1.9c-0.4,0.4-0.8,0.6-1.3,0.8c-1.4,0.6-2.8,1.1-4.3,1.4c-4.8,1-9.1-3-11.4-6.8c-2.5-4.1-4.2-11.8-1.7-16.3
				C750.6,388.7,752.4,387.2,754.4,386.2z"/>
			<path class="st37" d="M782,381c0.8,0.1,1.6,0.4,2,1c-0.3,3.3-4.1,5.5-7.4,5c-4.9-0.7-9-6.3-11.3-10.4c-1.7-3-1.7-6.4-1.3-9.8
				c0.2-1.6,1.7-3.9,2.8-5c2.6-2.3,6.1-4.1,9.7-3.8c3.2,0.3,6.1,2.2,8.1,4.7c0.3,0.4,1,1.7,0.2,2c-0.7,0.3-1.5-1-2-1.3
				c-3.6-1.9-9.2-0.7-11.5,2.6c-1.3,1.8-1.7,4.1-1.5,6.3c0.2,2.3,1.2,4.6,2.8,6.3c1.7,1.7,4,2.6,6.4,2.4c0.9-0.1,1.8-0.3,2.7-0.3
				C781.7,381,781.8,381,782,381z"/>
			<path class="st37" d="M756.5,430.9c0.2,0,0.4,0.1,0.6,0.2c0.2,0.3,0,0.7-0.2,1c-2.2,3.7-6.4,8.3-11,5.2c-2.1-1.4-4-3.2-5.9-4.9
				c-1.5-1.4-2.4-3.2-2.9-5.2c-0.3-1.4-0.8-2.7-1-4.1c-0.6-4.3,1.6-11.4,6.9-11.6c0.8,0,1.8,0.4,1.8,1.2c0,0.7-0.6,1.1-1.2,1.5
				c-2.5,2-3,5.8-2.1,8.9c0.8,2.9,2.8,5.5,5.4,7.1c2.6,1.5,5.9,1.9,8.8,0.8C756,431,756.3,430.9,756.5,430.9z"/>
			<path class="st37" d="M822.8,408.1c0.1,0.1,0.1,0.2,0.1,0.4c0,0.5-0.4,1-0.7,1.4c-1.3,1.3-3.1,2.2-5,2.3
				c-5.6,0.4-9.7-6.3-10-11.3c-0.3-4.5,1-8.5,4.5-11.4c1.9-1.6,4.5-3.3,7.1-3.2c0.8,0,1.6,0.2,2.4,0.5c2.5,0.8,5,2,6.3,4.3
				c-0.4,0.7-1.5,0.7-2.3,0.7c-2.1-0.2-4.3-0.4-6.4-0.1c-5,0.7-9.7,7.1-7.1,12.1c1.2,2.4,3,4.3,5.8,4.5
				C818.5,408.3,822.1,407.2,822.8,408.1z"/>
			<path class="st37" d="M826.3,434.5c0.7,0.9,1.4,1.8,2.2,2.8c-0.3,2.7-2.4,3.6-4.7,4.2c-3,0.8-3.9,3.2-2.3,5.8
				c3,4.7,9.1,5.9,12.9,1.6c0.3-0.4,0.7-0.8,1.2-0.8c0.4,0,0.8,0.4,0.9,0.9s0,0.9-0.2,1.3c-2.1,6.2-8.5,6.6-13.5,3.8
				c-2.7-1.5-6.2-4.3-6.9-7.4c-0.7-3,0.1-6,1.8-8.6c1.4-2.2,3.9-3.2,6.5-3.5C825,434.6,825.7,434.6,826.3,434.5
				C826.4,434.5,826.3,434.5,826.3,434.5z"/>
		</g>
	</g>
</g>
<g id="Topping-Mood">
	<g id="Tempura">
		<path id="tempura-tail" class="st48" d="M820.9,490.4c0.2,0,0.5-0.1,0.7-0.1c0.2,0,0.5,0.1,0.7,0c4-0.4,8.1-0.9,12.7-1.4
			c-0.6-1-0.8-1.6-1.2-2c-1.3-0.9-2.5-2-4-2.5c-0.2-0.1-0.3-0.1-0.5-0.1c0.9-2.9,0.2-6.1-1.9-8.4c-0.2-0.2-0.3-0.3-0.5-0.5
			c1.1-1,1.9-2.2,2.2-3.9c0.2-1.4,0.2-2.5-1.1-3.3c-1.3-0.8-2.6-1.8-4-2.3c-6.4-2.2-12.9-3.4-19.8-3c-2,0.1-4,0.3-5.9,0.5
			c-5.4,0-10.9,0.8-15.9,2.6c-4.6,1.7-8.9,4.6-11.5,8.6c-1.3,1.1-2.1,2.6-2.3,4.6c0,0.3,0,0.6,0,0.9c-0.3,1.6-0.4,3.3-0.2,5
			c0.3,2.1,1.1,3.6,2.5,4.5c0,0.1,0,0.1,0,0.2c-0.1,0.4,0.9,1.6,1.2,1.5c3.3-0.9,5.5,1.7,8.2,2.6c3.9,1.3,7.9,2,11.9,2.4
			c0.9,0.1,1.9,0.2,2.8,0.3c1.3,0.5,2.5,1,3.8,1.4c6.2,2.3,14.6,6.4,21.4,5.1c0.4,0.1,0.8,0.1,1.2,0.2c0.7,0.1,1.5-0.5,2.2-0.8
			c-0.1-0.2-0.1-0.4-0.2-0.5c2.8-1.9,2.2-6,0.4-8.3C822.9,492.5,821.9,491.4,820.9,490.4z"/>
		<path id="tempura-fill" class="st142" d="M623.9,340.1c-2.3-2-4.3-4.3-6.1-6.9c-3-4.3-5.2-9.3-8.4-13.5c-1.5-1.9-3.2-3.7-5.2-5
			c-2.6-1.6-6.7-2-9.7-3c-3.7-1.2-7.3-2.2-11.1-2.8c-4.7-0.8-12.5-0.6-12.4,5.8c0,0.4-0.5,0.9-0.9,0.8c-1.5,0.4-3,0.8-4.4,1.2
			c-1.8,0.5-3,1.7-3.5,3.6c-0.5,2-1.2,4-1.6,6c-0.4,2.1-1.4,3.7-2.9,5c-2.3,2.1-3.2,4.7-3.6,7.6c-0.5,4.1-0.1,8.1,0.9,12
			c0.2,0.6,0.3,1.2,0.3,1.8c0,3.4,0.3,6.6,2.4,9.4c0.5,0.7,0.4,1.8,0.6,2.7c0.5,3,0.8,6,1.6,8.9c0.4,1.7,1.5,3.3,2.3,4.9
			c1.4,2.8,2.6,6.4,4.8,8.8c2.2,2.4,5.4,3,8.1,4.6c4.4,2.6,6.2,7.8,8.5,12.1c3.7,6.8,5.9,12.8,13.7,15.7c2.9,1.1,6.1,1.6,8.7,3.2
			c1.7,1.1,3.1,2.6,4.4,4.2c2.6,3.3,3.9,7,6.1,10.5c3,4.8,5.2,11.3,11.8,11.9c1.4,0.1,2.8,0,4.1,0.2c3.6,0.5,3.7,2.7,5.9,4.9
			c2.7,2.8,7.5,4.5,10.9,6.3c7.6,4.1,15.3,7.9,23.1,11.5c6,2.7,12,5.3,18.1,7.7c5.5,2.2,11.2,4.2,16.8,6.2c5,1.7,9.8,4.9,15.2,5.2
			c4.3,0.2,9.2,1.1,13.2-0.9c4.1-2.1,5.3-2.4,10.4-1.5c5.7,1.1,11.5,1.3,17.3,0.7c1.4-0.1,2.9-0.4,3.9-1.3c2-1.7,1.7-4.7,1.7-7.3
			c0-2.8,0.5-5.6,1.5-8.2c0.8-2,1.8-4,1.6-6.1c-0.5-4-6.9-8-10.3-9.4c-4.6-1.8-9.6-2-14.5-2.7c-8.1-1.1-16.1-3.7-23.4-7.5
			c-2.9-1.5-5.7-3.3-7.6-5.9c-1.7-2.4-2.4-5.3-4.1-7.7c-2.4-3.3-6.3-5.1-9.6-7.5c-6-4.3-10.2-10.9-16.6-14.6c-2.7-1.5-5.6-2.5-8.3-4
			c-13.4-7.5-18.8-24.4-31.3-33.2c-1.8-1.3-3.8-2.5-4.8-4.4c-2.9-5.2,0.7-12-1.8-17.6c-2-4.3-6.7-6.3-10.7-8.8
			C627.2,342.8,625.5,341.5,623.9,340.1z"/>
		<g id="tempura-flecks">
			<path class="st143" d="M698,445.6c-1.6,1.5-3,3.2-5.8,3c0.2,1.8,0.4,3.3,0.5,4.4c3.9,1.5,6.6-0.4,9.4-2c2.1-1.2,2.6-3.2,1.4-4.9
				C702.2,444.2,699.8,444,698,445.6z"/>
			<path class="st143" d="M656,439c0.2,0.7,0.6,1.7,1,2.7c-1.6,2.3-1.6,2.3-4.5,1.1c-0.3,2.8,1.5,4.3,3.2,4.7
				c1.6,0.3,3.4-0.8,5.2-1.4c0.2-2.2,0.3-4.1,2-5.6c0.7-0.6,0.6-2,0.9-3.1c-1.2-0.6-2-1-2.7-1.4C659.5,436.9,657.9,437.8,656,439z"
				/>
			<path class="st143" d="M671.6,434.5c0.7-1.6,1.4-3.4,2.3-5c0.9-1.6,3-2.5,2.7-5.1c-0.9-0.7-1.9-1.4-3.1-2.3
				c-0.9,0.8-1.9,1.6-2.9,2.5c-0.9,0.8-1.9,1.5-3,2.4C668,429.8,667.9,433,671.6,434.5z"/>
			<path class="st143" d="M676.2,448.1c-3.6,0.1-4.9,4.5-8.7,4.6c0.4,3.2,2.8,3.6,4.8,4.4c0.3,0.1,1-0.2,1.4-0.5
				c1.1-0.6,2.1-1.4,3.1-2c2.5-1.5,2.7-3.1,0.6-5.3C677,448.9,676.6,448.6,676.2,448.1z"/>
			<path class="st143" d="M632.1,368.1c-2.4,1.2-4.9,2.4-7.6,3.8c-0.1,0.9-0.2,1.9-0.3,2.7c4.4,2.9,7.7-0.1,11.1-1.5
				C636.4,370,633.5,369.7,632.1,368.1z"/>
			<path class="st143" d="M653.5,414c-0.7,0.8,0.1,2.3,1.4,2.5c1.1,0.2,2.2,0.3,3.5,0.5c1.3-1.1,2.5-2.1,3.6-3.2
				c0.9-0.9,1.5-2.1,0.6-3.4c-0.8-1.1-3.3-2-4.2-1.3C656.7,410.7,655,412.3,653.5,414z"/>
			<path class="st143" d="M724.6,460.9c-1.1-0.5-1.8-0.1-2.6,0.4c-0.8,0.6-1.6,1.3-2.4,2c-0.8,0.7-1.5,1.3-2.4,2.1
				c2.4,3.6,4,3.9,7.2,1.5c0.3-0.3,0.6-0.6,1-0.8C728.1,463.7,727.8,462.4,724.6,460.9z"/>
			<path class="st143" d="M690.8,461.1c-0.9,1-1.8,2-2.9,3.3c0.4,0.6,0.9,1.4,1.5,2c2.5,2.6,3.7,2.4,5.7-0.7c0.7-1,1.4-2,2.3-3.1
				c-1.1-0.9-1.9-1.6-2.7-2.2C693.6,459.5,692.1,459.8,690.8,461.1z"/>
			<path class="st143" d="M588.5,344.8c0.4-0.4,0.7-1,1.1-1.6c1.8-2.7,1.9-4-0.2-6c-0.7-0.6-1.8-0.9-2.8-0.9c-0.3,0-0.7,1.2-1,1.9
				c-0.2,0.5-0.3,1.2-0.6,1.7c-1,1.7,0,3.3,0.6,4.7C586,345.6,587.8,345.6,588.5,344.8z"/>
			<path class="st143" d="M619.3,359.5c-0.7-0.5-1.4-1.2-2.2-1.5c-0.8-0.3-1.9-0.5-2.6-0.1c-1.5,0.7-2.8,1.7-4.3,2.6
				c0.2,1.7,1,2.7,2.9,2.9c1,0.1,1.9,0.8,2.8,1.3C617.8,363.1,618.6,361.9,619.3,359.5z"/>
			<path class="st143" d="M606.4,388.4c-1.4-0.4-2.7-0.2-3.6,1.2c-0.4,0.7-1.1,1.2-2,2c2.7,1.7,5,3.2,7.8,5c0.1-2,0.3-3.5,0.3-4.9
				C608.8,390.1,608,388.8,606.4,388.4z"/>
			<path class="st143" d="M730.7,465.4c-0.6,0.6-1.5,0.9-2.3,1.4c0.3,2.3,0.9,3,2.8,3.3c2.3,0.3,4.2-1,5.6-4
				C734.3,462.8,733.5,462.8,730.7,465.4z"/>
			<path class="st143" d="M656.3,406.8c1.2-0.7,1.7-2.5,1.2-5.1c-0.2-0.1-0.3-0.3-0.5-0.4c-0.7-0.3-1.4-0.5-2.3-0.9
				c-1.3,1.4-2.7,2.9-4.2,4.6C652.2,406.9,654.8,407.6,656.3,406.8z"/>
			<path class="st143" d="M619.2,396c3.7,2.2,5.4,1.3,5.8-3.4c-0.8-0.6-1.6-1.2-2.6-1.9C620.5,392,618.7,393.2,619.2,396z"/>
			<path class="st143" d="M596.8,357.4c-0.5-0.3-1-0.7-1.2-0.9c-1.7,0.5-3.1,0.8-4.5,1.2c-0.2,2.5,0,3,2.2,3.3
				c1.2,0.1,2.4,1.2,3.8,0C598.8,359.5,598.8,358.5,596.8,357.4z"/>
			<path class="st143" d="M636.3,396.7c-0.7,0.9-1.5,1.8-2.7,3.1c1.2,0.5,2.3,1.1,3.4,1.5c1.5,0.6,2.4-0.2,3-1.4
				c0.7-1.2,0.7-2.4-0.4-3.4C638.4,395.3,637.4,395.4,636.3,396.7z"/>
			<path class="st143" d="M613.3,402.6c0.9,2,2.8,2.8,4.9,2.9c1.1,0.1,2-1.3,2.5-3.4c-0.9-0.7-1.7-1.2-2.4-1.8
				C616.6,401.2,615,401.9,613.3,402.6z"/>
			<path class="st143" d="M575.5,357.1c1.3,2.3,2.4,3.1,3.6,2.6c2.2-0.9,1.6-2.9,1.8-4.6C578.5,354.1,577.3,356.1,575.5,357.1z"/>
			<path class="st143" d="M604.2,363.1c1.3,0.4,1.8-0.7,2.5-1.5c0.7-0.8,0.9-1.7,0.1-2.5c-0.6-0.6-2.4-0.4-3.1,0.4
				c-0.2,0.3-0.3,0.7-0.5,1.2c-1-0.3-1.6-0.4-2.5-0.6C601.1,362.3,602.7,362.7,604.2,363.1z"/>
			<path class="st143" d="M595.1,390.2c0.2-1,0.3-1.8,0.6-3c-1.5-0.4-2.9-0.7-4.3-1.1C590.3,389.9,591.2,390.8,595.1,390.2z"/>
			<path class="st143" d="M637.5,424.9c-1.2,0.3-2.3,0.9-3.4,1.3c0.3,2.8,2.4,2.4,4.1,3c0.4-1.1,0.8-1.9,1-2.8
				C639.5,425.1,638.9,424.5,637.5,424.9z"/>
			<path class="st143" d="M592.2,373.6c-2.1,0.5-3.8,1-5.7,1.5c0.4,2.4,2.4,2.4,4,3.1C591.8,376.9,592.2,375.5,592.2,373.6z"/>
			<path class="st143" d="M606.6,364.4c-1.5,2-0.1,3.6,0.7,5.7C610.2,366.1,610.2,365.7,606.6,364.4z"/>
		</g>
		<g>
			<path class="st37" d="M844.5,486.1c-2.8-2.2-5.9-4-9.6-4.6c-0.4-0.1-0.8-0.3-1.2-0.5c-0.2-0.1-0.3-0.3-0.6-0.8
				c0.7-0.8,1.3-1.8,2.1-2.5c2.9-2.4,3.3-6,4.4-9.3c0.1-0.4,0-1.1-0.2-1.5c-1.5-2-1.7-5.1-4.7-6c-0.5-0.2-0.8-0.9-1.3-1.3
				c-0.5-0.5-1.1-1.2-1.7-1.3c-2.2-0.3-4.2-1.7-6.2-1.9c-2.5-0.3-4.6-1.7-7.2-1.6c-5.7,0.1-11.4-0.7-17-0.2
				c-7.3,0.7-14.2,3-20.7,6.5c-0.7,0.4-1.3,1-2,1.6c-1.8,1.4-1.8,1.4-3.8,0c-2.6-1.8-5-3.9-7.8-5.2c-2.7-1.2-5.9-1.6-8.8-2.4
				c-1.8-0.5-3.7-0.8-5.5-1.3c-0.7-0.2-1.7-0.5-1.9-1c-1.5-2.9-4.5-2.7-7-3.5c-0.7-0.3-1.6-0.1-2.5-0.1c-1.8,0.1-3.6,0.7-5.3,0.4
				c-1.5-0.3-3.5-1-4.3-2.2c-2.5-4-6.1-5-10.4-4.7c-0.3,0-0.6,0-1.2-0.1c-0.5-1-1-2.2-1.4-3.3c-0.8-2.1-1.7-3.8-4-4.9
				c-1.6-0.8-2.8-2.8-3.6-4.6c-1.5-3.3-3.9-5.7-6.9-7.6c-0.9-0.5-1.9-0.8-2.9-1c-4.3-0.8-5.3-2.4-6.3-6c-0.3-1.2-0.8-2.4-1.5-3.4
				c-2.4-3.2-5.7-5.3-9.7-6c-0.4-0.1-0.8-0.2-1.3-0.2c-2.6-0.2-4.6-1.5-6.1-3.2c2.8-0.7,5.4-1.8,7.5-3c7.6-4.4,11-13.7,11.6-22.5
				c2.9-0.6,6.2-1.5,7.2-4.3c0.7-1.9,0.3-4.2,1.3-6.1c1.3-2.5,5.2-3.5,4.5-6.9c0-0.2-0.1-0.4-0.3-0.5c-0.2-0.2-0.6-0.1-0.8,0
				c-2.4,0.9-4.6,2.1-6.7,3.6c-0.4-1-1.3-1.8-2.3-1.9c-1-0.1-2.1,0.7-2.2,1.7c-0.2-1-1.4-1.5-2.4-1.6c-0.7-0.1-1.5,0-2,0.5
				c-0.6,0.4-0.8,1.3-0.3,1.9c-0.8-0.6-1.7-1.2-2.7-1.2c-1.6-0.1-1.9,1.5-2.7,2.6c-1.2-0.6-2.3-1.4-3.6-2c-1.3-0.6-2.7-0.9-4-0.6
				c-1.4,0.3-3.9,2.4-2,3.6c2.7,1.8,6.2,2.7,8.3,5.2c0.9,1.1,1.4,2.4,2.3,3.5c0.6,0.7,2.3,1.5,2.9,2.3c0.1,0.1,0.1,0.2,0.2,0.3
				c0.5,1.2-0.6,2.8-1.2,3.8c-1.5,2.8-3.6,6.5-6.1,8.6c-4.1,3.5-8.6,4.1-13.2,5.9c-2.9-1.5-4.7-3.7-5.6-7.1c-0.6-2.2-2.3-4-4.4-5.1
				c-1.4-0.8-2.4-1.9-3.1-3.4c-1.6-3.4-4.4-5.9-7.5-7.9c-0.6-0.4-1.4-0.4-2.1-0.6c-2.5-0.5-3.4-1.9-2.4-4.3c1-2.4,2.2-4.8,3.3-7.1
				c1.3-2.6,0.3-7-1.8-8.9c-1.1-1.1-2.1-2.3-3.1-3.5c-4.3-5.1-9.4-8.6-16.3-8.8c-0.3,0-0.6-0.1-0.9-0.2c-0.5-0.1-1-0.3-1.9-0.6
				c1.3-2.4,1.6-4.6,1.1-7c-0.5-2.3-1.6-3.9-3.9-4.5c-3.1-0.8-5.2-2.5-6.1-5.7c-2.2-7.6-8.8-9.6-15-9.4c-1.2,0-2.6-0.1-3.6-0.8
				c-3.3-2.2-6.9-2.3-10.1-1.7c-2.9-1.7-5.5-3.3-8.1-4.8c-1.2-0.7-2.3-0.3-3.2,0.4c-2.6,2.3-5.7,4.2-5.6,8.3c0,0.5-0.5,0.9-0.9,0.8
				c-1.5,0.4-3,0.8-4.5,1.2c-1.9,0.6-3.1,1.8-3.6,3.7c-0.5,2-1.2,4-1.6,6.1c-0.4,2.1-1.5,3.8-2.9,5.1c-2.4,2.1-3.3,4.8-3.7,7.8
				c-0.5,4.1-0.1,8.2,0.9,12.2c0.2,0.6,0.3,1.3,0.3,1.9c0,3.4,0.3,6.7,2.5,9.6c0.5,0.7,0.4,1.8,0.6,2.7c0.3,1.6,0.5,3.2,0.8,4.8
				c-3.8,0.6-7.5,3.4-8.5,7.2c-1.6,6,2.4,12.6,8.1,15.2c-3.3,6.1-5,13-4.9,20c0.1,3.2,0.6,6.5,2.4,9.1c2,2.9,5.4,4.5,8.6,5.9
				c17,7.4,35.2,11.8,53.7,13.1c-0.1,0-0.2-0.2-0.4-0.4c2,2,3.5,4.2,3.3,7.4c0,0.2,0.1,0.4,0.1,0.6c0.5,1.7,6,5.8,7.8,5.6
				c0.9-0.1,1.8-0.5,2.6-0.9c3-2,5.3-1.2,6.7,2.2c0.2,0.6,0.5,1.2,0.7,1.7c1.5,3.8,4.6,5.8,8.4,6.4c2.7,0.5,4.7,1.7,6.8,3.6
				c2.6,2.4,5.5,4.7,9.4,4.7c2,0,3.6,1,5.2,2.1c2.3,1.6,4.6,3.4,6.9,5.1c2.1,1.6,4.5,2.5,7.1,2.5c2.7,0,4.9,1.1,7.2,2.3
				c3.7,1.9,9.6,3.5,13.8,3.4c0.7,2.2,2.3,3,4.7,3.2c2,0.1,3.9,0.9,5.8,1.5c3.7,1.1,7.4,2.9,11.2,3.1c5.1,0.3,10.5,1.3,15.4-2
				c1.6-1.1,3.9-1.4,6.1-0.3c3.5,1.8,7.2,1.9,11.1,1.3c1.6-0.3,3.3,0.3,4.9,0.5c1.8,0.3,3.7,0.6,5.5,1.1c1,0.3,2,0.7,2.8,1.3
				c3.6,2.2,7.2,4.2,10.7,6.6c2.6,1.8,5.7,2.3,8.6,2.9c3.8,0.8,7.7,1.2,11.5,1.9c1.8,0.3,3.6,1.1,5.4,1.6c2.5,0.8,5.1,1.4,7.5,2.3
				c5.1,1.9,10.1,1.5,15.2,0.3c2.6-0.6,4.2-2.7,4.9-5c1.4-4.5,0.8-6.2-2.7-8.7c-0.6-0.4-1-1-1.6-1.6c1.7-1.8,3.9-1.7,5.9-1.7
				c1.7,0,3.2,0.4,4.5-1.3c0.4-0.5,1.8-0.3,2.7-0.5c1-0.3,2.1-0.4,2.9-1C846.5,489.5,846.3,487.6,844.5,486.1z M773.7,476.4
				c0.5-2.6,1.7-4.2,4.6-4.9c1.9-0.5,4.1-0.7,5.6-2.5c1.4-1.8,3.5-2.6,5.6-3.4c4.8-1.9,9.7-2.2,14.8-2.5c6.9-0.4,13.4,0.7,19.8,3
				c1.4,0.5,2.7,1.5,4.1,2.3c1.3,0.8,1.3,1.9,1.1,3.3c-0.6,3.4-3.5,4.9-5.9,6.4c-1.8,1.1-4.3,1.3-6.5,1.7c-2.6,0.5-5.2,0.6-7.7,1
				c-3.5,0.6-6.9,1.4-10.4,2.1c-4.1,0.8-8.3,1.1-12.4,0c-1.1-0.3-2.4-0.1-3.5-0.1c-2.1-3.2-6.2-2.7-9.4-4.6
				C773.5,477.4,773.6,476.9,773.7,476.4z M576.8,426.1c-6.6-2.7-12.8-7.7-14.6-14.6c-1.9-7.4,1.5-14.8,3.6-22.4
				c1.6,2.6,3.8,4.2,7,4.5c2,0.2,3.3,1.1,4.6,2.9c1.8,2.4,3.2,4.9,4.6,7.5c1.2,2.2,2.7,4.2,3.9,6.4c0.4,0.8,0.5,2,0.4,3
				c-0.2,1.4,0.3,2.3,1.2,3.3c4.6,5.2,10.7,6.8,17.4,7.7c0.2,0.8,0.4,1.6,0.7,2.3c0.2,0.6,0.4,1.3,0.7,1.9c-1.9,0.2-3.8,0.6-5.1,0.6
				C593,429.6,584.5,429.2,576.8,426.1z M768.9,468.6c-1.3,1.4-1.6,3.1-2.1,4.8c-0.3,1.1-0.5,2.1-0.7,3.2c-0.3,1-0.6,1.8-0.5,2.8
				c0.1,1,0.3,1.9,0.2,2.9c-0.1,2-0.8,4-2,5.6c-0.8,1.1-2.2,1.4-3.5,1c-1.4-0.4-0.9-1.7-0.9-2.7c0-0.3-0.2-0.6-0.3-0.8
				c-1.8-1.1-3.4-1-5,0.4c-2.2,1.9-4.4,1.4-6.7,0.1c-1-0.6-2.1-0.9-3.2-1.2c-4.1-0.9-7.6,0.8-11.2,2.3c-4,1.6-8,2.1-12.2,0.2
				c-6.2-2.9-14.9-6.2-21.8-7.2c-3.1-0.4-5.8-1.1-8.3-3.4c-1.4-1.3-3.7-2.2-5.7-2.4c-4.8-0.5-9.3-1.3-12.8-5.1
				c-3.1-3.3-7.1-4.8-11.5-5.3c-1.9-0.2-3.6-0.5-4.1-2.7c-0.1-0.3-0.4-0.5-0.6-0.7c-2.8-1.9-5.7-3.6-9.1-4.2
				c-2.8-0.5-2.7-0.6-3.4-3.5c-0.3-1.4-0.6-3.2-1.6-4c-3.7-3.3-8-5.3-13.2-4.1c-0.6,0.1-1.2,0.5-1.9,0.9c-0.3-1.7-0.6-2.6-0.6-3.5
				c0-4-2.2-6.9-5.5-8.3c-3.5-1.5-4.9-3.9-5.5-7.3c-0.2-1.4-0.9-3-1.9-3.8c-1.9-1.4-4.1-2.6-6.3-3.4c-2.4-0.8-4.9-1.1-7.3-1.7
				c-1.4-0.4-2.8-0.8-4.2-1.4c-1.1-0.4-1.7-1.3-1.5-2.5c0.5-3.3-0.6-6-3.3-8c-1.8-1.3-2.5-3.3-3.2-5.3c-0.8-2.4-1.6-4.8-2.6-7.1
				c-0.2-0.6-0.9-1.1-1.5-1.5c-2.5-1.8-5.3-3.1-8.3-3.9c-1.9-0.5-3-1.4-3.3-3.7c-0.2-1.6-1.1-3.2-1.8-4.6c-2.2-4-3.7-8.2-4.2-12.8
				c-0.5-4.9-0.6-9.9-3.8-14.1c-0.3-0.4-0.2-1-0.3-1.5c-0.4-3.5-0.6-7-1.2-10.4c-0.5-3.1,0.2-5.7,2.5-7.8c2.9-2.7,4.4-6.2,5.4-9.9
				c0.7-2.3,0.8-2.5,3.2-2.6c2.7-0.1,3.2-0.4,4.1-3c0.5-1.3,1.1-2.7,1.5-3.8c2.5,0.3,4.6,0.9,6.6,0.7c2.2-0.2,3.9,0.2,5.6,1.6
				c1.1,0.9,2.2,1.4,3.7,1.4c2.3,0,4.6,0.3,6.9,0.6c1.8,0.2,3.3,1,4.3,2.8c1.3,2.2,2.8,4.2,4.3,6.2c1,1.4,2.3,2.4,2.6,4.2
				c0,0,0,0.1,0,0.1c0.2,1.5-1,3.3,0.3,4.6c0.7,0.7,1.7,0.6,2.6,0.7c3.8,0.3,1.9,5.3,5.7,6.3c1.5,0.4,3,0.9,4.5,1.3
				c3.8,0.9,7.3,2.1,9,6.1c0.3,0.7,1,1.4,1.7,1.8c2.4,1.6,3.1,3.9,2.8,6.6c-0.1,1.3-0.4,2.5-0.5,3.8c-0.5,5.5,0.4,10.4,5.5,13.8
				c1.2,0.8,2,2.1,2.8,3.3c1.7,2.3,2.5,5.2,4.7,7c2.7,2.2,4.3,5.2,6.2,7.9c0.8,1.2,1.8,2.3,2.9,3.2c1.3,1.1,2.6,2.1,4,3.2
				c0.1,0.8,0.9,1.6,2.5,2.1c0.6,0.5,1.2,1,1.7,1.6c3.2,3.2,6.9,5.6,11,7.3c4.2,1.7,6.4,4.9,7.7,9c0.3,0.9,0.7,1.8,1.4,2.4
				c1.4,1.1,2.9,2.2,4.5,2.9c3.6,1.6,7.1,3.1,9,6.9c0.8,1.6,1.9,3.2,3.3,4.2c3.1,2.2,5,5.4,7.3,8.2c3.4,4.2,8.2,5,12.9,5.7
				c1.3,0.2,2.2,0.4,3.2,1.3c3.9,3.2,7.9,6.4,13.6,4.7c0.8-0.2,1.9,0,2.7,0.3c2.6,1,5.2,2.1,7.9,3.3c2.5,1.1,4.3,2.7,4.5,5.5
				c0,0.5,0.4,0.9,0.6,1.4c1.7-0.2,2.9-1,3.8-2.3c1.4-2,3.8-1.7,5.7-1.8C768.9,463.4,770.2,467.1,768.9,468.6z M821.3,503.5
				c-2.9-0.4-5.8-0.9-8.6-1.7c-5-1.4-9.8-3-14.8-4.4c-1.9-0.5-3.9-0.8-5.9-1c-4.1-0.4-8-1.1-11.9-2.4c-2.7-0.9-4.9-3.4-8.2-2.6
				c-0.3,0.1-1.3-1.1-1.2-1.5c0.6-1.9,0.8-3.8,0.5-5.8c-0.1-0.4,0.6-1,1.1-1.8c1,0.5,1.8,0.7,2.2,1.1c2.2,2.4,4.9,4,7.9,5.4
				c5.8,3,11.6,4.4,18.2,2.5c3-0.9,6.4-1.4,9.5,0.7c2.3,1.6,5,2.7,7.4,4.2c1.8,1.2,3.5,2.6,5.1,4.1c0.5,0.5,0.6,1.4,0.9,2.1
				C822.8,503,822,503.6,821.3,503.5z M822.3,490.4c-0.6,0.1-1.3-0.1-1.9-0.3c-1-0.5-1.8-0.6-2.8,0.2c-0.8,0.6-1.6,0-1.5-1.1
				c3.3-1.5,6.5-3.2,9.8-4.5c1.2-0.5,2.7-0.5,3.9-0.1c1.4,0.5,2.7,1.6,4,2.5c0.4,0.3,0.6,1,1.2,2C830.4,489.6,826.3,490,822.3,490.4
				z"/>
			<path class="st37" d="M608,384.9c-0.7,0-1.3-0.1-1.9-0.4c-0.6-0.3-1.2-0.9-1.9-0.9c-1,0.1-1.4,1.4-1.4,2.4c0,0.8,0.1,1.5,0.2,2.3
				c1,0,2-0.6,2.5-1.4c2.9,2.3,9.6,2.2,12.7,0.2c1.6-1,5-4.7,3.2-6.6C617.3,382.6,612.9,384.9,608,384.9z"/>
			<path class="st37" d="M591.4,365.7c-1.4-1-2.4-0.3-3.7,0.4c-2.9,1.7-5.5,3.9-6.7,7.2c-0.3,0.9-0.5,2.1,0.1,2.9
				c0.7,0.8,2.1,0.7,3,0c0.9-0.6,1.5-1.6,2.1-2.5c1-1.3,2.2-2.4,3.6-3.3c0.6-0.4,1.3-0.7,1.8-1.2C592.9,368,592.7,366.6,591.4,365.7
				z"/>
			<path class="st37" d="M614.7,356.5c1.7-0.8,3.6-0.5,5.4-0.8c0.4-0.1,0.8-0.2,1.1-0.6c0.1-0.2,0.1-0.4,0.2-0.7
				c0.1-0.7,0.1-1.5-0.4-2c-0.4-0.4-1.1-0.5-1.7-0.6c-4.1-0.3-8.8-0.5-11,3.7C605.5,360.6,612.8,357.4,614.7,356.5z"/>
		</g>
	</g>
	<g id="CoolCucumber">
		<path id="cool-flesh" class="st150" d="M1108.4,583.6c-15.1-1-33,4.2-52.1,21.1c-27.6,24.5-37.4,50.9-40,55.4
			c-2.6,4.5-9,15.4-18.5,38c-2.4,5.6-5.2,13-5.6,14.3c-6.4,26.8-10.4,39.1-8.6,58.2c2.4,25.3,8.4,40.9,27.8,66.1l3.5,2.3
			c1.7-0.5,4.2-1.6,5.6,0.8c7.5-2.6,13.4-4.3,18-8.5c19.8-18,16.6-49.5,18-83c1.5-34.5,7.6-61,45.6-93.2c2.5-2.1,14.8-14.3,21-24.3
			c5-8,13.8-24.2,7.7-35C1126,587.5,1123.5,584.7,1108.4,583.6z"/>
		<path id="cool-fill" class="st130" d="M1115.9,648.3c-12.6,15.1-25.2,23.3-37.3,38.8c-8.9,11.3-12,19.3-16.1,33.1
			c-4.6,15.7-3.7,42.6-4.5,59c-1,19.9-3.7,34.1-13.7,53.5c13.8-8.2,24.8-21.2,30.6-36.2c8.6-22.2,5.9-47.3,11.5-70.5
			c6.8-28.2,25.2-51.9,43-74.8c4.4-5.6,8.8-11.4,11.8-17.8c5.4-11.6,7.5-30.9-0.4-42.1c-4.7-6.6-7,4.3-7.2,8
			c-0.5,7.7,1.8,19.5-1.3,26.5C1128.7,633.6,1121.5,641.5,1115.9,648.3z"/>
		<g id="cool-lines">
			<path class="st37" d="M1048.7,651.3c5.5,2.3,12.6,2.9,14.5,1.7c3.6-1.7-2.4-3.3-8.3-4.5c-5.9-1.2-9.7-3.4-9-4.8
				C1041.6,645,1043.3,649,1048.7,651.3z"/>
			<path class="st37" d="M1146.3,601c-1.1-14.5-24-27-37.2-25.9c-17.8,1.4-39.9,9.4-56.6,20.1c-3.7-2-8-2.9-12.5-2.5
				c-11.9,1.1-20.7,11.7-19.6,23.6c0.3,3.4,1.4,6.5,3,9.2c-8.2,12.6-15.6,27.2-22.8,40.6c-19.8,36.6-39.3,106.3-14.3,148
				c6,10,14.6,18.3,26.4,24.2c-20.4-26-26.6-41.8-29-67.6c-1.8-19.2,2.1-31.4,8.6-58.2c0.3-1.4,3.2-8.7,5.6-14.3
				c9.5-22.6,15.9-33.5,18.5-38c1.6-2.7,5.8-13.5,15-26.9c3.7,2.1,8.1,3.2,12.7,2.7c6.9-0.6,12.7-4.4,16.2-9.8
				c1.6-1.7,2.5-2.8,1.5-1.4c2.8-4,9.4-0.1,6.9,5.4c-0.5,1.1-0.8,2.4-1,3.7c-0.5,2.2-0.6,4.4-0.4,6.7c0.7,7.3,4.8,13.4,10.7,16.8
				c0.5,0.3,1,0.6,1.5,0.8c0,0,0,0,0,0c1.6,0.8,3.3,1.3,5,1.7c1.9,0.4,3.8,0.6,6,0.4c0.1,0,0.2,0,0.3,0c3.1-0.3,6-1.2,8.5-2.6
				c-35.5,31.2-41.3,57.2-42.8,90.8c-1.5,33.5,1.8,64.9-18,83c-4.6,4.2-10.5,5.9-18,8.5c-1.9-3.5-6.1,0.1-7.1-0.8
				c8.3,7.2,13.2,5.4,17.9,4.3c7.5-1.8,17.4-6.5,22.5-9.5c17.2-12.2,16.3-14.3,23.6-22.1c4.5-4.9,12.3-24,11.2-37.6
				c-1-13.4,0.7-26.2,2-39.4c3-31.6,15.3-49.8,34.5-70.2c7-7.4,14.4-19.5,18.3-26.6C1152.2,622.1,1147.1,611.2,1146.3,601z
				 M1082.3,617.9c-1,0.3-2,0.7-2.9,1.1c-2.5,1-4.5,1.7-6,0.7c-1.1-0.7-1.6-1.7-4.4-2.7c-2.1-0.8-3.8-1-5-1.3l0-1
				c0-1,0.1-2.4-0.2-3.7c-0.5-3.5-1.9-6.7-3.8-9.4c17.7-14.5,34.4-19,48.5-18c15.1,1,17.6,3.8,22.4,12.3c5.3,9.3-0.6,22.7-5.5,31.3
				c-6.1,0.2-12.8,1.1-16.8,0.9c-0.3,0-0.6-0.1-0.8-0.1c-2.9-5.1-7.7-8.8-13.3-10.3C1089.6,615.9,1085.6,616.8,1082.3,617.9z
				 M1118.9,637c-3.7,4.7-7.9,9.4-11.3,12.9c3.5-6,3.2-12.1,6-12.4C1115.6,637.3,1117.3,637.1,1118.9,637z M1059.4,754.5l-0.1,0.1
				l0-0.1L1059.4,754.5z M1117.2,662.3c-17.4,21.1-34.3,44.4-37.9,71.5c-2.7,20.1,2.2,41.3-4.6,60.5c-1.8,5.1-4.4,9.9-7.7,14.3
				c-2.4,3.1-7.6,10.2-11.7,10.6c0.6-11,4.9-12.8,6.4-31.4c0.8-10.9-0.9-22-0.4-33c0.4-8.8,0.7-17.7,2.5-26.3
				c5.2-25.1,22.8-45.7,41.2-63.6c6.5-6.3,13.3-12.5,18.7-19.8c2-2.7,3.7-5.4,5.3-8.3c2.3,1-0.5,4.2-2,6.7c-0.5,0.9-0.4,3.7,1.1,5.5
				C1124.5,653.4,1120.8,657.9,1117.2,662.3z M1140,627.1c-0.5,1.4-1,2.7-1.5,4c-0.8-1.3-2-2.3-3.6-2.9c-0.6-0.2-1.3-0.4-2-0.5
				c3.6-9.6,5.2-19.9,4.5-30.1c4.4,1.1,5.8,6.8,5.7,11.3C1143,615.1,1142,621.3,1140,627.1z"/>
		</g>
		<g id="cool-seeds">
			<path class="st142" d="M1027.2,795.9c1.1-1.8,9.6-5.6,11.2-2.7C1041.5,800.6,1018.8,804.1,1027.2,795.9z"/>
			<path class="st142" d="M1013.6,765.8c1.2,8.6-17.2,4.7-8.4-2.9C1007.2,761,1009.1,761.9,1013.6,765.8z"/>
			<path class="st142" d="M1003.4,777.7c-0.5,0.7,11.7-5,12.3,2.3C1016.5,783.2,1007.8,787.5,1003.4,777.7z"/>
			<path class="st142" d="M1008.8,735.4c7.6-3.6,14.6,3.8,1.4,6.3C1006.5,743.1,1002.7,740,1008.8,735.4z"/>
			<path class="st142" d="M1024.9,776.9c-9.2-7.2,25.3-11.5,6.8-1.4C1030,776,1029.8,773.8,1024.9,776.9z"/>
			<path class="st142" d="M1018.8,805.1c-9.5,10.6-19.4-6.6-0.5-3.3C1018.5,802.3,1018.7,802,1018.8,805.1z"/>
			<path class="st142" d="M1018.8,753.7c0-0.5-1.4-5.3,13.2-6.5C1032.6,747.1,1032,756.8,1018.8,753.7z"/>
			<path class="st142" d="M1021.5,708.2c3.7,1,1.6,3.9-1.4,5.8c-3.6,2.3-4.8,4.9-4.8-5.9C1016,707.2,1019.4,709.8,1021.5,708.2z"/>
			<path class="st142" d="M1013.4,721.3c2.6,0.7-4.9,5.3,5.3,6.2c3,3.1-8.4,3.3-10.3-0.5C1012.9,725,1002.4,719.1,1013.4,721.3
				L1013.4,721.3z"/>
			<path class="st142" d="M1006.2,792.7c0.5-2,8.5-6.6,8.9-0.8C1013.8,791.3,1014.3,802,1006.2,792.7z"/>
			<path class="st142" d="M1031,786.1c0,9.9-15.2-8.1,1.9-2.8C1032.8,784.6,1032.4,782.6,1031,786.1z M1028.1,783.4
				C1028.1,782.6,1028.2,782.3,1028.1,783.4C1028.6,784,1029.2,781.4,1028.1,783.4z M1026.5,785.2
				C1026.5,785,1026.6,785,1026.5,785.2C1026.5,785.3,1026.9,785,1026.5,785.2z"/>
			<path class="st142" d="M1021.1,763.2c0.5-6.9,16.4-5.3,2.5,2C1022.3,764.7,1023,765.1,1021.1,763.2z"/>
			<path class="st142" d="M1036.3,717.4c-2.2,0.8-18-5-3.5-4.7C1032.7,714.1,1037.2,709.7,1036.3,717.4z"/>
			<path class="st142" d="M1031.5,808.6c-1.8,3.9-16.5,2.5-1.5-4.1C1030.6,804.8,1031.8,805,1031.5,808.6z"/>
			<path class="st142" d="M1028.4,736.2c3.2,2.6-8.2,11.1-6.1,2.9C1023,739.1,1021,735.9,1028.4,736.2z"/>
			<path class="st142" d="M1030.6,699.7c1.1-0.6-6.3,5-9.3,0.4C1023,697.3,1027.1,695.1,1030.6,699.7z"/>
			<path class="st142" d="M1012.8,748.7c0.6,2-6.3,9.9-6.5,2C1006.9,750.5,1006.1,748.7,1012.8,748.7z"/>
			<path class="st142" d="M1032.6,725.8C1028.6,736.3,1022,720.6,1032.6,725.8L1032.6,725.8z"/>
			<polygon class="st142" points="1035,772 1035.1,772 1035.1,772 			"/>
		</g>
	</g>
	<g id="CucumberSlices">
		<path id="slices-flesh" class="st150" d="M674,504.1c-1.4-5.9-5.9-12.9-13-18.9c46.8-13.3-5.2-57.7-39.9-46.9
			c0.3,0.2,0.5,0.3,0.8,0.5c-1.7,0.4-3.3,0.6-8,1.3c-49.5-26.3-106.3,44.3-23.4,48c-1.2,3.4-0.3,5.7-0.4,9.3
			C560.9,548.5,676.3,558.6,674,504.1z"/>
		<g id="slices-fill">
			<path class="st130" d="M584.9,520.1c-1.3,5.1,0.8,10.5,4,14.8c4.1,5.5,10,9.6,16.5,11.6c3.7,1.1,7.6,1.6,11.5,1.9
				c6.2,0.4,12.5,0.3,18.6-1.1c2.9-0.6,6.1-1.9,7.1-4.6c-9.6-0.3-19.2-1.5-28.6-3.6c-4.5-1-9-2.2-12.9-4.6c-4.3-2.6-7.8-6.4-12.2-9
				C588.9,525.5,586.6,522.2,584.9,520.1z"/>
			<path class="st130" d="M626.7,486c-0.7-0.1-1.8-0.9-2.4-0.5c-0.7,0.4-0.8,1.6-1.5,1.9c-0.3,0.2-0.7,0.4-1,0.6
				c-0.3,0.2-0.5,0.2-0.9,0.3c-0.1,0-0.3,0.1-0.3,0.3c0,0.1,0.1,0.2,0.3,0.3c1.2,0.5,2.4,1,3.7,1.3c0.9,0.2,1.7,0.2,2.6,0.2
				c1.2,0,2.5,0.1,3.7,0.1c0.6,0,1.2,0,1.7-0.3c0.6-0.4,0.8-1.1,0.7-1.8c-0.1-0.6-0.6-1.2-1.2-1.5c-0.7-0.4-1.6-0.5-2.4-0.6
				C628.7,486.1,627.7,486.1,626.7,486z"/>
			<path class="st130" d="M548.2,474.4c1.3,3.1,3.5,5.7,6,7.9c2.5,2.2,5.4,3.9,8.3,5.6c2.7,1.6,5.4,3.1,8.2,4.1
				c4.8,1.7,10.2,2.1,15.1,0.7c-2.3-2.1-5.5-3-8.5-4.1c-3.8-1.4-7.5-3.4-11.1-5.3c-2.9-1.5-5.7-3.1-8.2-5.1c-2.2-1.8-4.1-4-5.9-6.2
				c-0.4-0.5-0.9-1.1-1.3-1.6c-0.4-0.5-0.8-1.1-1.3-1.4c-0.9-0.4-1.8,0.1-2.1,1C547,471.4,547.6,473.1,548.2,474.4z"/>
		</g>
		<g id="slice-lines">
			<path class="st37" d="M653.2,501c3.4-3.7-4.7-3.7-10.9-0.2c-8.2,5.3-5.4,7.7-0.9,6.9C644.3,507.2,650.3,504.1,653.2,501z
				 M647.4,503.3c-3.8,2.5-7.4,2-6.9,1.4c2-2.6,7.7-4.1,9.7-3.9C649.6,500.8,648.8,502.4,647.4,503.3z"/>
			<path class="st37" d="M644.6,509.9c-4.6,4.8,1.1,8.5,1.7,8.2c4.1-1.5,5.4-8,8.7-10.1c0,0,0,0,0,0
				C660,498.4,645.5,508.2,644.6,509.9z M646.1,517.6c0.1-0.1,0.1,0,0.1,0C646.1,517.6,646.2,517.6,646.1,517.6z M647,517.6
				c0.9-0.5,0.6-0.5,1-0.4C647.1,517.8,647.3,517.4,647,517.6z"/>
			<path class="st37" d="M655.1,507.9c0,0-0.1,0.1-0.1,0.1C655.1,508,655.1,508,655.1,507.9z"/>
			<path class="st37" d="M622.1,509.4c2.6-6.7-17.2-11.3-12.2-5.1C615.9,515.1,621.8,511.9,622.1,509.4z M610.1,504.1
				C610.3,504.1,610.1,504.1,610.1,504.1L610.1,504.1z M615.6,506.6c4.4,0.2,3.4,1.6,3.8,1.6C616.5,509,616.5,507.5,615.6,506.6z"/>
			<path class="st37" d="M619.3,501c8,1.4,9.8-1.7,8.7-4.2c-0.7-1.6-2.9-1.9-4-2.4c-1.1-0.5-5.3-0.5-8.7,1.3c-1.8,1-3,2.2-2.3,3.7
				C615.4,500.2,617.5,500.7,619.3,501z M625.3,498c-1.7,1.2-6.6,0.1-7.7,0.1C616.5,496.9,624.5,496.1,625.3,498z"/>
			<path class="st37" d="M622.8,512.4c-3,3.9-17.7,7.4-9.7,13.2C620.9,525.8,624.1,512.7,622.8,512.4z M612.9,519.2L612.9,519.2
				L612.9,519.2L612.9,519.2z M617.7,520.4C617.9,520.3,617.7,520.4,617.7,520.4L617.7,520.4z M616.8,521c0.4,0,0.7-0.4,1.2-0.2
				C609.9,525.7,617.4,518.6,616.8,521z"/>
			<path class="st37" d="M630.2,516.2C630.2,516.2,630.2,516.2,630.2,516.2C630.2,516.2,630.2,516.2,630.2,516.2
				c-2.8-7.8-3.8-5.3-4.1-5.8c0.8,4.2-3.6,7.5-3.8,10.4C624.8,533.2,630.9,520.4,630.2,516.2C630.2,516.2,630.2,516.2,630.2,516.2z
				 M625.9,524.8C625.6,524.8,625.9,524.7,625.9,524.8L625.9,524.8z"/>
			<path class="st37" d="M632.8,534.1C632.9,533.9,632.8,534,632.8,534.1L632.8,534.1z"/>
			<g>
				<polygon class="st37" points="660,507.8 660,507.7 660,507.7 				"/>
			</g>
			<path class="st37" d="M633.2,533.3C633.2,533.3,633.2,533.3,633.2,533.3C633.2,533.3,633.2,533.3,633.2,533.3
				C633.2,533.3,633.2,533.3,633.2,533.3z"/>
			<path class="st37" d="M677.9,510.4c0-5.7-0.7-9.6-2.1-14.5c-0.6-2.3-2.3-5-4.1-7.4c6.8-4,10.1-9.2,10.6-14.7
				c0.9-10.3-6.7-21.4-19.7-29.3c-9.1-5.6-20.5-9.7-33.4-9.1c-6.1,0.3-10.6,1.2-14.4,2.6c-17.2-7-40.5-6.7-56.9,5.4
				c-30.1,23.4-7,48.7,25.2,52.4c-6,12-4.5,27.4,3.7,39.7c3.9,5.8,11.4,13,23,14.3c15.3,1.7,32.3-0.9,47.3-9.3
				c1.5-0.9,5.1-3.1,5.1-2.9C676.2,527.2,677.8,522.2,677.9,510.4z M631.9,439.3c0.7,0,1.5,0,2.2,0.1c2.8,0.2,5.7,0.6,9,1.1
				c1.7,0.3,3.4,0.7,5,1.3c4.1,1.4,8.1,3.5,11.2,5.6c0.6,0.4,1.2,0.8,1.8,1.2c2.8,2,5.2,3.9,7.2,5.7c0.4,0.4,0.8,0.7,1.1,1.1
				c0.7,0.7,1.4,1.4,2,2.1c0.3,0.3,0.6,0.7,0.9,1c0.6,0.7,1.1,1.4,1.5,2c0.4,0.7,0.8,1.3,1.2,2c0.5,1,0.9,2,1.2,3
				c0.7,2.1,0.4,5-0.8,7.7c-0.2,0.4-0.4,0.8-0.6,1.2c-0.4,0.7-0.8,1.4-1.3,2.1c-0.5,0.7-1.1,1.3-1.7,1.9c-0.9,0.9-2,1.7-3.3,2.4
				c-0.6,0.3-1.2,0.6-1.8,0.9c-0.4,0.2-0.8,0.4-1.2,0.6c-1.2,0.6-2.3,1.1-3.5,1.5c-0.5,0.2-1,0.4-1.5,0.6c-0.6,0.2-1.2,0.4-1.7,0.6
				c-0.5,0.2-1,0.3-1.5,0.5c-0.1,0-0.3,0.1-0.4,0.1c-0.7,0.2-1.5,0.4-2.2,0.5c-0.9,0.2-1.9,0.4-2.8,0.5c-1.8,0.3-3.5,0.4-5.1,0.4
				c-0.5,0-1,0-1.5,0c-1,0-1.9-0.1-2.8-0.2c-0.7-0.1-1.5-0.2-2.2-0.3c-1.4-0.2-2.8-0.4-4.2-0.7c-2-0.3-3.9-0.7-5.8-1.1
				c-1-0.2-2-0.5-2.9-0.7c2.1-1.7,3.7-3.4,4.8-4.7c0,0,0,0,0,0c1.6-1.9,2.5-3.4,2.7-3.9c0.1-0.3,0.2-0.5,0.3-0.8
				c1.6,2.1,3.9,3.8,4.4,3.4c0-2.7-0.4-4.6-0.8-5.9c-0.5-1.5-1.2-2.2-1.9-2.6c2.5-12.1-4.9-22.4-16.5-28.9c1.3-0.3,2.8-0.6,4.3-0.9
				c0.1,0,0.3-0.1,0.4-0.1c1.1-0.2,2.2-0.3,3.2-0.4C629.8,439.3,630.8,439.3,631.9,439.3z M621.7,488.5c0.3-0.2,0.5-0.3,0.7-0.5
				c0.9-0.5,1.7-1.1,2.4-1.6c1.5,0.4,3.1,0.9,4.8,1.3c0.6,0.1,1.2,0.3,1.8,0.4c0,0,0,0,0,0c0.1,0,0.2,0.1,0.1,0.1
				c0,0-0.1,0.1-0.2,0.1c-0.1,0-0.2,0.1-0.4,0.1c-0.1,0-0.3,0.1-0.5,0.1c-0.5,0.1-1.2,0.2-2.1,0.3c-0.4,0-0.9,0.1-1.4,0.1
				c-0.1,0-0.2,0-0.2,0c-0.5,0-1,0-1.6,0c-0.8-0.1-1.5-0.2-2-0.3c-0.3,0-0.5-0.1-0.7-0.1C622.1,488.5,621.9,488.5,621.7,488.5
				C621.7,488.5,621.7,488.5,621.7,488.5z M641,495.6c-1.5,0.2-2.6,0.2-3-0.1C638.9,495.6,639.9,495.6,641,495.6z M551.8,477.9
				c-2.6-3.9-2-3.8-1.7-4.9C553.9,477.5,551.6,477.4,551.8,477.9z M554.5,478.5c5.6,4.6,5.1,3.5,3.5,5.1
				C552.4,481.1,554.3,479,554.5,478.5z M559.8,482.9c2.8,1.3,4.3,2.1,4,2.6c-0.3,0.6-0.2,1-0.6,1.7c-0.8-0.3-2.5-1-3.1-2
				C559.6,484.2,559.6,483.1,559.8,482.9z M566.1,486.5c5.8,3,9.8,4.6,10.6,4.9C565.2,489.3,565.4,486.6,566.1,486.5z M588.7,486.6
				c-0.9,0-1.8,0-2.7,0c-0.1,0-0.2,0-0.3,0c-0.9,0-1.9-0.1-2.8-0.2c0,0-0.1,0-0.1,0c-1-0.1-1.9-0.2-2.8-0.3c0,0,0,0,0,0
				c-4.7-0.6-8.7-1.9-11.6-3.6c-5.5-3.2-9.3-6.4-11.8-9.5c-1.4-1.8-2.4-3.5-3.1-5.2c-1-2.7-1.1-5.2-0.6-7.6c0.2-0.9,0.4-1.7,0.8-2.5
				c0.2-0.6,0.5-1.2,0.8-1.8c0.1-0.2,0.2-0.4,0.3-0.6c0.2-0.4,0.4-0.8,0.7-1.1c0.5-0.7,1-1.4,1.5-2.1c0.4-0.5,0.8-1,1.3-1.5
				c1.1-1.3,2.3-2.4,3.5-3.4c0.8-0.7,1.7-1.4,2.4-2c0.2-0.2,0.5-0.4,0.7-0.5c0.1-0.1,0.2-0.2,0.3-0.3c0.8-0.6,2-1.3,3.4-1.9
				c1.8-0.8,4.1-1.6,6.6-2.4c0.5-0.1,1-0.3,1.5-0.4c3.1-0.8,6.4-1.5,9.5-1.9c1.2-0.1,2.4-0.2,3.6-0.3c0.6,0,1.2,0,1.8-0.1
				c3-0.1,5.9,0.1,8.5,0.4c4.1,0.5,7.5,1.3,8.9,2c0.3,0.1,0.6,0.3,0.9,0.4c0.8,0.4,1.7,0.8,2.4,1.2c0.8,0.4,1.5,0.8,2.3,1.2h0l0,0
				c2.5,1.4,4.7,2.9,6.5,4.4c0.8,0.6,1.4,1.3,2.1,1.9c0.5,0.5,1,1,1.5,1.6c0.7,0.8,1.3,1.7,1.9,2.5c0.8,1.2,1.4,2.5,1.9,3.8
				c0.2,0.6,0.4,1.3,0.6,1.9c0.4,1.4,0.5,2.8,0.5,4.1c0,2.3-0.6,4.5-1.6,6.6c-0.1,0.2-0.2,0.4-0.3,0.6c-0.6,1.1-1.3,2.1-2.1,3.1
				c-1.3,1.5-2.8,3-4.5,4.3c-1.4,1-2.8,1.9-4.4,2.8l0,0c-0.8,0.4-1.6,0.8-2.4,1.1c-0.2,0.1-0.3,0.2-0.5,0.2
				c-0.2,0.1-0.3,0.1-0.5,0.2c-0.2,0.1-0.3,0.1-0.5,0.2l0,0c-0.4,0.2-0.8,0.3-1.3,0.5c-1.5,0.5-3,1-4.5,1.5
				c-0.4,0.1-0.8,0.2-1.3,0.3c-0.1,0-0.3,0.1-0.4,0.1c-0.5,0.1-1,0.2-1.5,0.4c-0.4,0.1-0.7,0.2-1.1,0.2c-0.7,0.1-1.4,0.3-2.1,0.4
				c-0.3,0.1-0.6,0.1-1,0.2c-0.8,0.1-1.5,0.2-2.3,0.3c-2.4,0.3-4.8,0.5-7.2,0.6C589.6,486.6,589.1,486.6,588.7,486.6z M637.8,535.4
				C637.8,535.4,637.8,535.4,637.8,535.4C637.9,535.4,637.9,535.4,637.8,535.4C637.8,535.4,637.8,535.4,637.8,535.4z M591.6,535.1
				c-0.6-1.3-1.4-1.7-0.3-1.9c1-0.2,2.5,1,3.4,2.9c0.9,1.9,2.6,3.5,1.9,4C593.2,537.6,592.2,536.4,591.6,535.1z M600.4,538.7
				c2.4,0.9,5.4,4.3,2.6,5.3c-0.1-0.1-4.3-2.4-4.2-2.1C598.4,540.4,598.4,538,600.4,538.7z M614.7,543c5.6,1.5,11.9,3.7,11.9,3.7
				s-3.8,0.7-8-0.2C617,546.1,614.7,543,614.7,543z M614.8,547c-9.7-1.8-8.3-1.9-9.5-2.6c0.5-0.7,1.3-2.5,2.2-2.3
				C609.9,542.7,612.9,545.3,614.8,547z M626.2,544c0,0,2.4-0.3,5.5,0.1c3.9,0.6,3.1,1.1,3.1,1.1s1,0.1-2.7,0.4
				C628.5,545.9,626.2,544,626.2,544z M589,532.7c-0.8-1.1-1.8-1.5-2.5-3.5c-0.7-2-0.3-1.8-0.3-2.3c-0.3-2.3,0.2,1,1.8,3.4
				C589,531.7,589.9,533.1,589,532.7z M670.1,512.2c-0.6,1.6-1.4,3.1-2.3,4.6c-0.5,0.8-1.1,1.5-1.7,2.3c-3.1,3.8-7.4,7.2-12.5,10
				c-1,0.6-2.1,1.1-3.1,1.6c-0.5,0.3-1.1,0.5-1.6,0.8c-1.1,0.5-2.2,1-3.3,1.4c-0.6,0.2-1.1,0.4-1.7,0.6c-1.1,0.4-2.3,0.8-3.5,1.1
				c-1.8,0.5-3.5,1-5.3,1.4c-1.1,0.2-2.1,0.4-3.2,0.6c-2.7,0.4-5.4,0.7-8,0.8c-1.1,0-2.1,0-3.2,0c-1,0-2.1-0.1-3.1-0.2
				c-0.5,0-1-0.1-1.5-0.2c-0.5-0.1-1-0.1-1.5-0.2c-0.5-0.1-1-0.2-1.5-0.3c-1-0.2-1.9-0.4-2.9-0.7c-7.7-1.6-13.3-4.9-17.1-9
				c-1.1-1.2-2.1-2.5-2.9-3.9c-0.5-0.9-1-1.8-1.4-2.8c-0.2-0.5-0.4-1-0.6-1.4c-0.5-1.6-0.9-3.1-1.1-4.8c-0.1-1.2-0.2-2.4-0.2-3.6
				c0-0.4,0-0.8,0.1-1.2c0-0.4,0.1-0.8,0.1-1.2c0.1-0.8,0.2-1.6,0.4-2.4c0.2-0.8,0.4-1.6,0.6-2.4c0.5-1.6,1.2-3.1,2-4.6
				c0.4-0.7,0.8-1.5,1.3-2.2c0.1-0.1,0.2-0.2,0.3-0.4c5-0.1,10.8-0.7,16.3-2.1c-1.2,1.6-0.9,2.8,2.4,2.7c7.9-3.5,8.6-3.4,9.9-3.9
				c0.1-0.1,0.2-0.3,0.3-0.4c4.4,1.4,9.2,2.4,14.4,2.9c0,1.2,0.5,2.3,1.1,2.7c2.5,1.4,11.3-0.6,14.2-2.7c0.3,0,0.6,0,0.9-0.1
				c5-0.8,9.3-1.9,13-3.3c1.7,1.8,3.2,3.6,4.2,5.3c0.5,0.8,0.9,1.6,1.2,2.4c0.5,1.2,0.9,2.4,1.1,3.6c0.2,0.8,0.3,1.6,0.3,2.4
				c0.1,2.1-0.2,4.2-0.9,6.2C670.2,511.9,670.2,512.1,670.1,512.2z"/>
			<path class="st37" d="M647.9,461.5c6,0.1,6,0.4,7.3,0.3C674,454.7,639.8,455.7,647.9,461.5z"/>
			<path class="st37" d="M646.2,450.6c-5.8,0.4-5.6,3.5-6.7,3.7C637.6,463.6,655.2,453.6,646.2,450.6z M645.9,453.2
				c-0.1,1.2-2.2,1.3-2.5,1.8C643.4,453.8,645.5,453.5,645.9,453.2z"/>
			<path class="st37" d="M658.7,469.7c-1.3-4.2-11.5-6.9-10.7-5.9C655.5,475,659.4,470.2,658.7,469.7z"/>
			<path class="st37" d="M646.3,472.7c-1.9-1.9-4.1-3.4-3.9-3.4c-0.5,0.9-0.6,1.9-0.5,3c0.6,3.4,4.2,7,6,6.5
				C650.2,477.5,648.4,474.9,646.3,472.7z"/>
			<path class="st37" d="M601.9,460.9c0.3,0.3,0.8,0.5,1.4,0.8c2.3-0.9,3.8-1.3,4.9-1.5c0.4-0.1,0.7-0.1,1-0.1c0.3,0,0.5,0,0.7,0
				c0.6,0,0.9-0.1,1.2-0.4c2.6-2.2,3.2-3.6,2.7-4.3c-0.1-0.1-0.2-0.2-0.3-0.3c-0.2-0.1-0.5-0.2-0.9-0.3c-1.1-0.2-2.8,0.1-4.5,0.6
				c-0.6,0.2-1.2,0.4-1.7,0.6c-0.6,0.2-1.1,0.4-1.6,0.7c-0.5,0.3-1,0.5-1.4,0.8c-0.2,0.1-0.4,0.3-0.6,0.4c-0.4,0.3-0.7,0.6-0.9,0.9
				c-0.1,0.1-0.2,0.3-0.3,0.4C601.1,459.8,601.2,460.4,601.9,460.9z"/>
			<path class="st37" d="M574.7,455.8c0.2,0.2,0.4,0.4,0.7,0.6c0.6,0.5,1.4,1,2.1,1.5c0.3,0.2,0.6,0.4,0.9,0.6
				c0.9,0.5,1.8,1.1,2.5,1.6c0.2,0.2,0.4,0.3,0.6,0.5c0.3,0.2,0.5,0.5,0.6,0.7c1-1.4,1.4-2.5,1.5-3.4c0,0,0,0,0,0
				c0.1-1-0.2-1.7-0.7-2.3c-0.2-0.3-0.4-0.5-0.7-0.7c-2.7-2.1-8.1-2.2-7.2-3c0,0,0,0,0,0c0,0,0,0,0,0c-0.2,0.1-0.3,0.2-0.4,0.4
				c-0.4,0.4-0.6,0.7-0.8,1.1c-0.2,0.5-0.2,0.9,0,1.4C573.9,454.9,574.3,455.3,574.7,455.8z"/>
			<path class="st37" d="M596.1,462.2c-0.2-0.3-0.6-0.6-1.1-0.7c-0.1,0-0.3-0.1-0.4-0.1c-0.3,0-0.7,0-1.2,0c-0.1,0-0.2,0-0.3,0
				c-0.5,0.1-1.1,0.3-1.7,0.6c-0.4,0.2-0.8,0.4-1.2,0.7c-0.3,0.2-0.6,0.4-0.9,0.7c-0.2,0.2-0.4,0.3-0.6,0.5
				c-0.3,0.3-0.6,0.6-0.9,0.9c-0.3,0.6-0.5,1.1-0.7,1.5c-0.3,0.6-0.4,1.1-0.5,1.4c-0.1,0.3-0.1,0.5,0,0.7c0,0.1,0.1,0.1,0.1,0.2
				c0,0.1,0.1,0.1,0.1,0.1c0,0,0.1,0.1,0.1,0.1c0.1,0.1,0.1,0.1,0.2,0.2c0,0.1,0.1,0.2,0.1,0.3c1.5-0.6,2.9-1.2,4-1.8
				c1-0.5,1.8-1,2.5-1.5c0.3-0.2,0.7-0.5,0.9-0.7c0.4-0.3,0.7-0.7,1-1c0.6-0.8,0.8-1.4,0.7-1.9C596.2,462.4,596.2,462.3,596.1,462.2
				z M588.3,464.7C588.3,464.7,588.3,464.7,588.3,464.7C588.3,464.7,588.3,464.7,588.3,464.7C588.4,464.7,588.4,464.7,588.3,464.7
				C588.4,464.7,588.3,464.7,588.3,464.7z"/>
			<path class="st37" d="M581.9,471.7c0-0.3,0-0.6,0-1c0-0.2,0-0.3,0-0.5c0-0.5-0.1-1-0.2-1.4c-0.2-1.4-0.4-2.5-0.4-2.8
				c-0.4-0.3-0.8-0.5-1.2-0.6c-0.1,0-0.2,0-0.4-0.1c0,0,0,0,0,0c-0.2,0-0.4,0-0.6,0.1c-0.1,0-0.2,0.1-0.3,0.1
				c-0.2,0.1-0.4,0.2-0.5,0.4c-0.1,0.1-0.2,0.2-0.2,0.2c-0.1,0.1-0.2,0.3-0.3,0.4c-0.1,0.2-0.2,0.3-0.3,0.5
				c-0.1,0.1-0.1,0.2-0.2,0.4c-0.1,0.4-0.3,0.8-0.4,1.2c-0.1,0.3-0.1,0.6-0.2,0.8c-0.1,0.6-0.1,1.1-0.1,1.6c0,1.1,0.2,2.1,0.5,2.3
				c0.9,0.7,1.7,1.2,2.3,1.4c0.2,0.1,0.3,0.1,0.4,0.1c0.1,0,0.3,0,0.4,0c0.4,0,0.6-0.1,0.9-0.3c0.2-0.1,0.3-0.3,0.4-0.5
				c0.1-0.1,0.1-0.2,0.1-0.3c0.1-0.2,0.1-0.5,0.2-0.7c0-0.3,0.1-0.6,0.1-0.9C581.9,472,581.9,471.9,581.9,471.7z"/>
			<path class="st37" d="M578.1,461.7c-0.3-0.2-0.7-0.3-1-0.4c-0.9-0.4-1.9-0.6-2.7-0.6c-0.6,0-1.2,0-1.7,0.1
				c-0.3,0-0.5,0.1-0.8,0.1c-0.5,0.1-1,0.3-1.5,0.4c-0.2,0.1-0.5,0.2-0.7,0.3c-0.7,0.3-1.4,0.5-2,0.7c-0.6,0.2-1.1,0.4-1.6,0.5
				c0.2,0.4,0.5,0.7,0.8,0.9c0.3,0.3,0.7,0.5,1.1,0.7c0.1,0.1,0.3,0.1,0.4,0.2c0.4,0.2,0.9,0.3,1.4,0.3c0.2,0,0.3,0,0.5,0.1
				c0.3,0,0.7,0,1.1,0c0.2,0,0.4,0,0.5,0c0.5,0,1.1-0.1,1.6-0.2c0.5-0.1,1-0.2,1.5-0.3C576.9,463.9,578.3,462.9,578.1,461.7z"/>
			<path class="st37" d="M588.7,455c0.2,0,0.3-0.1,0.5-0.2c0.1-0.1,0.2-0.1,0.4-0.2c0.2-0.1,0.4-0.3,0.6-0.5c0,0,0-0.1,0.1-0.1
				c0-0.1,0.1-0.1,0.1-0.2c0,0,0,0,0,0c0.2-0.2,0.3-0.5,0.4-0.8c0,0,0,0,0-0.1c0.1-0.2,0.1-0.3,0.1-0.5c0,0,0-0.1,0-0.1
				c0-0.3,0-0.5-0.1-0.8c0,0,0,0,0-0.1c-0.1-0.2-0.1-0.4-0.2-0.5c0-0.1-0.1-0.1-0.1-0.2c0,0,0-0.1-0.1-0.1c0,0,0-0.1,0-0.1
				c0-0.2,0-0.4,0-0.6c0,0,0-0.1,0-0.1c0-0.2,0-0.4,0-0.5c0,0,0-0.1,0-0.1c0-0.1,0-0.3-0.1-0.4c0,0,0-0.1,0-0.1c0-0.1,0-0.3-0.1-0.4
				c0,0,0-0.1,0-0.1c0-0.1-0.1-0.2-0.1-0.3c0,0,0,0,0,0c0-0.1-0.1-0.2-0.1-0.3c0,0,0,0,0,0c0-0.1-0.1-0.2-0.1-0.2c0,0,0,0,0,0
				c0-0.1-0.1-0.1-0.1-0.2c0,0,0,0,0,0c-0.1-0.1-0.2-0.2-0.3-0.3c0,0,0,0,0,0c-0.4-0.2-0.9,0-1.4,0.4c0,0,0,0,0,0
				c-0.1,0.1-0.3,0.3-0.4,0.4c0,0,0,0,0,0c-0.1,0.1-0.2,0.3-0.4,0.5c0,0,0,0.1-0.1,0.1c0,0.1-0.1,0.1-0.1,0.2c0,0,0,0,0,0
				c-0.1,0.2-0.2,0.4-0.3,0.5c0,0.1-0.1,0.1-0.1,0.2c0,0,0,0.1,0,0.1c0,0,0,0.1,0,0.1c-0.2,0.3-0.3,0.7-0.4,1
				c-0.1,0.2-0.1,0.4-0.1,0.6c0,0,0,0,0,0c0,0.1,0,0.2,0,0.3c0,0.2,0,0.4,0.1,0.7c0,0.3,0.1,0.5,0.2,0.7c0.2,0.8,0.5,1.4,0.9,1.8
				c0,0,0,0,0,0.1C587.3,455,588,455.2,588.7,455C588.6,455,588.6,455,588.7,455z"/>
			<path class="st37" d="M600.1,466.5c0,0.1,0,0.2,0.1,0.3c0,0.1,0.1,0.2,0.1,0.2c0,0.1,0.1,0.1,0.1,0.2c0,0,0.1,0.1,0.1,0.1
				c0.1,0.1,0.4,0.2,0.6,0.4c0,0,0,0,0.1,0l0,0c3.1,1.3,5.1,2,6.4,2.2c0.6,0.1,1.1,0.1,1.4,0c0.2-0.1,0.3-0.2,0.3-0.3s0-0.3,0-0.5
				c-0.1-0.2-0.2-0.4-0.4-0.6c-0.2-0.2-0.4-0.5-0.7-0.7c-0.1-0.1-0.3-0.2-0.4-0.4c-0.6-0.5-1.3-1-2.1-1.5c-1.4-0.8-2.9-1.4-4.3-1.6
				c-0.5,0-1,0-1.4,0.1c-0.1,0-0.1,0-0.2,0c0,0.2,0,0.4,0.1,0.5c0.1,0.5,0.1,0.9,0.1,1.1C600.1,466.3,600.1,466.4,600.1,466.5z"/>
			<path class="st37" d="M597.7,451.7c0-0.2,0-0.4-0.1-0.6c0-0.1-0.1-0.2-0.1-0.3c0-0.1-0.1-0.2-0.1-0.3h0c0-0.1-0.1-0.1-0.1-0.2
				c-0.1-0.2-0.3-0.4-0.5-0.6c-0.1-0.1-0.2-0.2-0.4-0.3c-0.1-0.1-0.2-0.2-0.4-0.2c-0.1,0-0.1-0.1-0.2-0.1c-0.1-0.1-0.2-0.1-0.3-0.1
				c-0.1,0-0.1-0.1-0.2-0.1c0,0-0.1,0-0.1,0c0,0,0,0,0,0l0,0c-0.8,0.4-1.4,0.9-1.7,1.7c-0.2,0.4-0.4,0.9-0.4,1.4
				c-0.3,1.6,0,3.4,0.4,4.6c0.1,0.3,0.2,0.5,0.3,0.7c0.1,0.2,0.2,0.4,0.2,0.5c0.1,0.1,0.1,0.2,0.2,0.2c0,0,0.1,0,0.1-0.1
				c0.2-0.2,0.4-0.4,0.6-0.7c0.4-0.4,0.8-0.8,1.1-1.2c0.3-0.4,0.6-0.8,0.8-1.1c0.2-0.3,0.3-0.6,0.5-0.8c0.1-0.2,0.2-0.4,0.3-0.6
				c0.1-0.3,0.2-0.6,0.2-0.8c0-0.1,0-0.3,0-0.4C597.7,451.9,597.7,451.8,597.7,451.7z"/>
		</g>
	</g>
</g>
<g id="Text__x2F__Quiz_Questions" class="st40">
</g>
<g id="NOTES">
	<rect x="57.4" y="48.6" class="st133" width="827.4" height="273.4"/>
	<text transform="matrix(1 0 0 1 57.4479 71.3779)"><tspan x="0" y="0" class="st151 st152 st153">mood: Easygoing</tspan><tspan x="0" y="38.4" class="st151 st152 st153">Style: GLAMOROUS</tspan><tspan x="0" y="76.8" class="st151 st152 st153">Personality: Socialite </tspan></text>
</g>
<g id="ColorPalette">
</g>
</svg>
