<?xml version="1.0" encoding="utf-8"?>
<!-- Generator: Adobe Illustrator 24.0.1, SVG Export Plug-In . SVG Version: 6.00 Build 0)  -->
<svg version="1.1" xmlns="http://www.w3.org/2000/svg" xmlns:xlink="http://www.w3.org/1999/xlink" x="0px" y="0px"
	 viewBox="0 0 1442 966" style="enable-background:new 0 0 1442 966;" xml:space="preserve">
<style type="text/css">
	.st0{fill:#8A9992;}
	.st1{fill:#97A59F;}
	.st2{fill:#EAD53F;}
	.st3{fill:#FDEB51;}
	.st4{fill:#EC008C;}
	.st5{fill:#70C7B2;}
	.st6{fill:#E76152;}
	.st7{fill:#9C9C9E;}
	.st8{fill:#80948F;}
	.st9{fill:#736876;}
	.st10{fill:#5F566B;}
	.st11{fill:#EE7928;}
	.st12{fill:#F26422;}
	.st13{fill:#F7A391;}
	.st14{fill:#F27170;}
	.st15{fill:#EC5554;}
	.st16{fill:#E57164;}
	.st17{fill:#6E8DA0;}
	.st18{fill:#829BAD;}
	.st19{fill:#E9A041;}
	.st20{fill:#171B2B;}
	.st21{fill:#396F91;}
	.st22{fill:#497F9B;}
	.st23{fill:#D7DDDD;}
	.st24{fill:#294666;}
	.st25{fill:#9376B2;}
	.st26{fill:#2A2D3F;}
	.st27{fill:#E83B95;}
	.st28{fill:#9FD7CA;}
	.st29{fill:#62BCA4;}
	.st30{fill:#1D2036;}
	.st31{opacity:0.5;fill:#FFFFFF;}
	.st32{fill:#F68B1F;}
	.st33{fill:#FFCE07;}
	.st34{fill:#753624;}
	.st35{fill:#2F717A;}
	.st36{fill:#FFD683;}
	.st37{fill:#01444F;}
	.st38{fill:#FFE0B6;}
	.st39{fill:#E72527;}
	.st40{display:none;}
	.st41{display:inline;}
	.st42{fill:#F79E1E;}
	.st43{fill:#FFFFFF;}
	.st44{fill:#F6AA8F;}
	.st45{fill:#727579;}
	.st46{fill:#ECE1CC;}
	.st47{fill:#F27171;}
	.st48{fill:#EE7D69;}
	.st49{fill:#F69FA1;}
	.st50{fill:#FFECB6;}
	.st51{fill:#E54033;}
	.st52{fill:#EADBAD;}
	.st53{fill:#71C4BA;}
	.st54{fill:#78B542;}
	.st55{fill:#6B9F41;}
	.st56{fill:#A2BC5B;}
	.st57{fill:#8DB542;}
	.st58{fill:#E12327;}
	.st59{fill:#EDB7B6;}
	.st60{fill:#1C4650;}
	.st61{fill:#EA7750;}
	.st62{opacity:0.3;fill:#E72527;}
	.st63{fill:#653C16;}
	.st64{opacity:0.3;fill:#653C16;}
	.st65{fill:#2A5861;}
	.st66{fill:#F26F79;}
	.st67{fill:#EAB557;}
	.st68{fill:#80C48D;}
	.st69{fill:#89C544;}
	.st70{fill:#264720;}
	.st71{fill:#52AA82;}
	.st72{fill:#122D25;}
	.st73{filter:url(#Adobe_OpacityMaskFilter);}
	.st74{mask:url(#SVGID_1_);}
	.st75{opacity:0.3;fill:#895B24;}
	.st76{fill:#895B24;}
	.st77{fill:#CAAB82;}
	.st78{fill:#E5E5E5;}
	.st79{fill:#A8AFAF;}
	.st80{fill:#363A49;}
	.st81{fill:#AF84A7;}
	.st82{fill:#E8E8B2;}
	.st83{fill:#B8D3C7;}
	.st84{fill:#ABB2B2;}
	.st85{fill:#FAA635;}
	.st86{fill:#4DB5A5;}
	.st87{fill:#00AEEF;}
	.st88{fill:#EFD6B4;}
	.st89{fill:#68C5AB;}
	.st90{fill:#48A597;}
	.st91{fill:#7FC697;}
	.st92{fill:#A05424;}
	.st93{fill:#D35E46;}
	.st94{fill:#CF6946;}
	.st95{clip-path:url(#SVGID_3_);fill:#FCB017;}
	.st96{clip-path:url(#SVGID_5_);fill:#FCB017;}
	.st97{clip-path:url(#SVGID_7_);fill:#FCB017;}
	.st98{clip-path:url(#SVGID_9_);fill:#FCB017;}
	.st99{clip-path:url(#SVGID_11_);}
	.st100{clip-path:url(#SVGID_13_);fill:none;stroke:#F7931F;stroke-width:3;stroke-miterlimit:10;}
	.st101{clip-path:url(#SVGID_13_);fill:#F7931F;}
	.st102{fill:#7790A0;}
	.st103{fill:#40B392;}
	.st104{opacity:0.3;}
	.st105{fill:#EFD695;}
	.st106{fill:#9DA7B1;}
	.st107{fill:#E2A225;}
	.st108{fill:#51426B;}
	.st109{fill:#BBA9A6;}
	.st110{fill:#E8B691;}
	.st111{fill:#A59C95;}
	.st112{fill:#F2D7B9;}
	.st113{fill:#010101;}
	.st114{fill:#FFECDA;}
	.st115{clip-path:url(#SVGID_15_);}
	.st116{clip-path:url(#SVGID_17_);fill:none;stroke:#F7931F;stroke-width:3;stroke-miterlimit:10;}
	.st117{clip-path:url(#SVGID_17_);fill:#F7931F;}
	.st118{clip-path:url(#SVGID_19_);}
	.st119{clip-path:url(#SVGID_21_);fill:none;stroke:#F7931F;stroke-width:3;stroke-miterlimit:10;}
	.st120{clip-path:url(#SVGID_21_);fill:#F7931F;}
	.st121{clip-path:url(#SVGID_23_);}
	.st122{clip-path:url(#SVGID_25_);fill:none;stroke:#F7931F;stroke-width:3;stroke-miterlimit:10;}
	.st123{clip-path:url(#SVGID_25_);fill:#F7931F;}
	.st124{fill:#C3AC80;}
	.st125{fill:#BBBC7D;}
	.st126{fill:#F387A6;}
	.st127{fill:#FFE3B6;}
	.st128{fill:#5DB447;}
	.st129{fill:#D33535;}
	.st130{fill:#97BF49;}
	.st131{fill:#F69DA6;}
	.st132{fill:#C02026;}
	.st133{fill:none;}
	.st134{fill:#73767B;}
	.st135{fill:#7C7E82;}
	.st136{fill:#D9D9D9;}
	.st137{fill:#ADB5B0;}
	.st138{fill:#D7DEDD;}
	.st139{fill:#B8D2C6;}
	.st140{display:inline;fill:#FFE0B6;}
	.st141{display:inline;fill:#E72527;}
	.st142{fill:#FFCD60;}
	.st143{fill:#FEC248;}
	.st144{fill:#DDBF7B;}
	.st145{fill:#BCD266;}
	.st146{fill:#DBDBDB;}
	.st147{clip-path:url(#SVGID_27_);}
	.st148{clip-path:url(#SVGID_29_);fill:none;stroke:#F7931F;stroke-width:3;stroke-miterlimit:10;}
	.st149{clip-path:url(#SVGID_29_);fill:#F7931F;}
	.st150{fill:#FCFCEE;}
	.st151{font-family:'MyriadPro-Semibold';}
	.st152{font-size:32px;}
	.st153{letter-spacing:3;}
</style>
<g id="BG">
	<rect class="st17" width="1442" height="966"/>
	<rect x="0" y="646.6" class="st18" width="1442" height="319.4"/>
</g>
<g id="Bowl-Style">
	<g id="Bowl05">
		<path id="bowl05-fill" class="st24" d="M987.1,470.8c1.7-7.2,1.5-14.4-2-20.8c-2.4-4.4-4.2-9-5.9-13.6c-4.7-12.5-9.4-25-16.4-36.5
			c-6.7-11.2-14.3-21.6-22.8-31.5c-2.5-2.9-4.7-5.9-7.5-8.5c-6-5.7-12.2-11.1-18.3-16.7c-6.5-6-13.7-11-21.7-14.8
			c-3.9-1.9-7.8-3.7-11.6-5.8c-8.4-4.7-17-8.8-25.9-12.3c-12.4-4.9-24.8-10.1-38-12.7c-12.9-2.6-25.7-4.9-38.9-5
			c-6.2-0.1-12.5,0.1-18.7-0.4c-19.8-1.6-39.7-3.1-59.6-3c-6.9,0-13.8,0.3-20.7,1.2c-17.7,2.3-35.2,5.7-52.5,10.2
			c-10.6,2.8-21,6.1-31.3,9.8c-17.7,6.3-35.1,13.4-51,23.5c-10.2,6.4-20.2,13.1-29.1,21.3c-9.7,8.9-18.1,19-25.3,30
			c-3.3,5.1-7.1,9.9-10.2,15.1c-4.5,7.6-8.2,15.5-11.3,23.8c-3.3,9-6.7,18-8.2,27.5c-0.6,4.3-1.6,8.6-1.5,12.8
			c0.1,5.2,1,10.4,1.8,15.6c1.6,10.4,3.2,20.8,5,31.2c1.1,6.3,2.6,12.4,3.8,18.7c1.2,6,1.9,12,3.3,17.9c3.1,12.9,6.4,25.7,9.8,38.5
			c3.1,11.7,5.2,23.7,9.9,34.9c4.1,9.8,8.1,19.8,13.4,29c9.6,16.8,20.7,32.7,33.1,47.5c11.9,14.2,26,26,40.7,37.1
			c19.5,14.8,40.4,27.1,64.2,33.8c4.4,1.3,8.8,2.5,13.3,3.5c5.2,1.2,10.5,2.2,15.5,3.2c0.2,0.7,0.3,1,0.3,1.2
			c-0.9,11.9,0.2,23.8,0.9,35.7c0.2,4.1,1,8,5.8,9.7c2.8,1,5.3,2.9,8,4.2c1.4,0.7,3.3,1.5,4.4,1c1.5-0.6,2.5-0.3,3.8,0
			c7.8,1.8,15.5,3.9,23.4,5.1c8.8,1.4,17.7,2.5,26.6,2.9c7.8,0.4,15.7,0,23.5-0.8c6.7-0.6,13.3-2.1,19.9-3.3
			c1.1-0.2,2.1-0.5,3.1-0.9c3.7-1.5,7.3-3.1,11-4.6c2.3-0.9,3.4-2.7,3.3-5.2c-0.1-2.6-0.2-5.1-0.1-7.7c0.1-2.9,0.4-5.9,0.6-8.8
			c0.2-3.1,0.1-6.2,0.6-9.2c0.8-4.2,1-8.2,0.5-12.4c-0.3-2.4-0.3-4.8-0.5-7.2c2.7-0.6,5.2-0.9,7.4-1.7c8.5-3.2,17-6.2,25.3-9.9
			c9.8-4.3,19.3-9.2,28.9-13.9c11.3-5.5,21.1-13,29.7-22.1c4.6-4.9,9-10.1,13.4-15.1c0.5-0.6,1.1-1.2,1.5-1.9
			c3.7-6.3,7.4-12.5,11.1-18.8c3.3-5.6,6.5-11.2,9.7-16.8c0.9-1.6,1.6-3.4,2.3-5.2c3.4-9.4,7-18.7,10.2-28.2
			c3.1-9,8.1-17.3,10.7-26.5c0.5-1.8,1.5-3.5,1.8-5.4c1.1-7,3.1-13.9,3.4-21.1c0.2-4.1,1.6-8.2,2.9-12.1c2-6,4.8-11.7,6.6-17.8
			c2.4-7.9,4.2-15.9,6.4-23.8c3.2-11.6,4.3-23.6,6.7-35.4c1.2-6,1.6-12,1.7-18.1c0.1-2.7,0.6-5.3-0.4-8
			C986.7,472.4,986.9,471.5,987.1,470.8z"/>
		<path id="bowl05-decor" class="st20" d="M535.8,669.2c7.7,13.8,16.8,24.7,34.2,23.2c2.1-0.2,4.3-0.5,6.2,0.3
			c2.3,0.9,3.6,3.2,5.2,5c5.8,6.3,15.3,6.7,23.8,6.3c10.8-0.6,21.6-1.9,32.3-3.9c6.7-1.3,13.5-2.9,20.3-2.7
			c9.1,0.3,17.7,3.7,26.5,6.1c17.9,4.9,36.9,5.4,55,1.6c3.9-0.8,8-1.9,11.9-1c2.6,0.6,4.9,1.9,7.4,2.8c17.3,6.6,35.3-7.1,53.7-10
			c9.1-1.5,18.6-0.2,27.6-2.4c10.7-2.6,19.7-9.8,29.9-14c10.1-4.1,21.1-5.2,31.2-9.2c15.5-6.1,26.2-17.4,30.7-33
			c2.4-8.4,14.6-34.2-1.4-37.1c-2-0.3-3.9,0.3-5.8,0.9c-12.7,4.1-25.5,8.2-37.2,14.5c-9.5,5.2-18.3,11.8-27.7,17
			c-13.6,7.5-28.5,12.3-43.2,17c-5.7,1.8-11.4,3.6-17.1,5.4c-7.8,2.5-15.6,4.9-23.6,6.5c-31.1,6.2-64.2-1.1-94.6,8
			c-11.7,3.5-23,9.4-35.2,9.7c-17.8,0.4-33.3-11.1-47.3-22c-2.8,5.5-10.9,5.5-16.4,2.7c-5.5-2.7-10.3-7.3-16.4-8.4
			c-3.2-0.6-7-0.4-9.3-2.7c-1.2-1.3-1.7-3.1-2.8-4.5c-4.3-5.6-13.7-1.8-19.9-5.2c-3.8-2.1-5.5-6.5-8.2-10s-7.8-6.1-11.1-3.3
			C517.5,641.9,528.4,655.9,535.8,669.2z"/>
		<path id="bowl05-lines" class="st20" d="M954.6,472.5c-1.1,9.5-5,18.6-9.4,27c-1.6,3.1-3.3,6.1-5.2,9.1
			c-2.7,7.1-7.5,13.8-13.6,20.1c-2.8,2.7-5.8,5.3-8.8,7.8c-1.2,1.1-2.4,2.2-3.6,3.3c-8.6,7.6-18.1,13.8-28,19.6
			c-0.8,0.5-1.6,1-2.4,1.6c-11,7.2-23,12.6-34.5,18.8c-1.4,0.7-3,1.4-4,2.5c-2.9,3.4-6.8,4.6-10.9,5.8
			c-28.4,8.3-55.8,11.5-85.4,13.9c-19.5,1.6-39.2,2.8-58.9,2.6c-1.9,0.1-3.8,0.1-5.7,0.2c-1.4,0-2.9,0.1-4.3,0.1
			c1,2.3,3.9,3.2,6.4,3.7c33.6,6.8,65.3,5.3,98.8,1.8c28.6-3,58.1-4.7,84.3-17.5c11.9-5.8,24.5-9.1,36.2-15.8
			c12.7-7.3,24.4-16.3,36-25.2c5.5,4.6-1,18.3-2.4,23.9c-2.9,11.2-5.1,22.7-9.5,33.5c-2.1,5.2-4.5,10.4-6.6,15.7
			c-2,4.9-3.8,9.8-5.6,14.8c-2.5,6.8-4.9,13.7-7.4,20.6c-1.9,5.2-4.6,10-7.3,14.8c-4.2,7.3-7.6,14.9-11.4,22.4c-0.5,1-1.1,2.3-2,2.9
			c-7,4.3-12.3,10.5-17.6,16.6c-9.8,11.4-21.4,20.1-35.4,25.7c-6,2.4-11.6,5.9-17.5,8.5c-10,4.4-20.1,8.9-30.9,11
			c-6.1,1.2-12.3,1.8-18.5,2.2c-12.5,0.8-25.1,1.3-37.7,1.9c-4.7,0.2-9.4,0.6-14.2,0.7c-9.2,0.2-18.3-0.9-27.4-2.3
			c-9.9-1.5-19.6-3.6-29.2-6.3c-16.5-4.8-32.3-11.1-46.5-21.3c-12.7-9.1-24.7-18.9-35.7-29.9c-7.6-7.5-14.3-15.8-20.5-24.5
			c-6.3-8.9-12.5-17.9-18.4-27.1c-7.5-11.6-12.9-24.3-18.1-37.1c-3.7-8.9-6-18.1-8.3-27.4c-1.4-5.9-2.6-11.8-4-17.6
			c-1-3.9-2.2-7.7-3.3-11.5c0.2-0.1,0.5-0.2,0.7-0.4c0.5,0.5,1.1,0.9,1.6,1.5c12,13.6,27.6,22,44.9,27.3c8.4,2.6,17.1,4.3,25.9,5
			c8.9,0,17.7,0.7,26.7,1.5c2.7,0.3,6.5-0.2,6.8-2.9c-0.9-0.3-1.9-0.6-2.8-0.9c-13.9-3.1-28.2-6.2-40.5-11.9c-4-1.8-8-3.7-11.9-5.5
			c-7.1-4-13.9-8.5-20.3-13.5c-21.3-16.7-35.6-38.5-39-64.1c-5.7-14.7-8.8-30-7.3-44c0.1-1.2-0.7-2.4-0.8-3.7
			c-0.1-1.2-0.2-2.8,0.5-3.7c1.9-2.6,2.4-5.7,3.6-8.5c1.8-4.3,3.5-8.7,5.7-12.9c1.8-3.4,4.2-6.5,6.3-9.8c1.8-2.9,3.4-5.8,5.2-8.7
			c1.7-2.9,3.5-5.7,5.3-8.6c7.5-12,16.5-22.7,27.4-31.8c7.3-6,15.2-11.2,23.3-16.1c4.7-2.8,9-6.3,13.9-8.8
			c7.1-3.6,14.3-6.9,21.8-9.5c12.4-4.3,24.9-8.2,37.5-11.7c7.7-2.1,15.6-3.2,23.4-4.8c8.6-1.8,17.1-3.8,25.7-5.5
			c2.5-0.5,5.1-0.7,7.6-0.8c15.3-1.1,30.5-1.2,45.7,0.8c9.6,1.3,19.3,2.3,28.9,3.4c1.2,0.1,2.4,0.2,3.6,0.1c9-0.5,18,0.4,27,1.2
			c9.5,0.9,19,2.5,28.2,5.4c9.4,3,18.6,6.5,27.8,10c5.5,2.1,11,4.5,16.4,7c9.1,4.1,17.6,9.4,25.8,15.2c5.6,3.9,10,9,13.7,14.8
			c4.2,6.6,8.7,13,12.8,19.6c3.9,6.3,7.5,12.8,11,19.3c3.9,7.3,7.6,14.8,11.2,22.3c1,2.2,1.4,4.6,2,7c1.3,4.4,2.6,8.8,4,13.2
			C957.4,455.1,955.4,465.2,954.6,472.5z M987.1,470.8c1.7-7.2,1.5-14.4-2-20.8c-2.4-4.4-4.2-9-5.9-13.6c-4.7-12.5-9.4-25-16.4-36.5
			c-6.7-11.2-14.3-21.6-22.8-31.5c-2.5-2.9-4.7-5.9-7.5-8.5c-6-5.7-12.2-11.1-18.3-16.7c-6.5-6-13.7-11-21.7-14.8
			c-3.9-1.9-7.8-3.7-11.6-5.8c-8.4-4.7-17-8.8-25.9-12.3c-12.4-4.9-24.8-10.1-38-12.7c-12.9-2.6-25.7-4.9-38.9-5
			c-6.2-0.1-12.5,0.1-18.7-0.4c-19.8-1.6-39.7-3.1-59.6-3c-6.9,0-13.8,0.3-20.7,1.2c-17.7,2.3-35.2,5.7-52.5,10.2
			c-10.6,2.8-21,6.1-31.3,9.8c-17.7,6.3-35.1,13.4-51,23.5c-10.2,6.4-20.2,13.1-29.1,21.3c-9.7,8.9-18.1,19-25.3,30
			c-3.3,5.1-7.1,9.9-10.2,15.1c-4.5,7.6-8.2,15.5-11.3,23.8c-3.3,9-6.7,18-8.2,27.5c-0.6,4.3-1.6,8.6-1.5,12.8
			c0.1,5.2,1,10.4,1.8,15.6c1.6,10.4,3.2,20.8,5,31.2c1.1,6.3,2.6,12.4,3.8,18.7c1.2,6,1.9,12,3.3,17.9c3.1,12.9,6.4,25.7,9.8,38.5
			c3.1,11.7,5.2,23.7,9.9,34.9c4.1,9.8,8.1,19.8,13.4,29c9.6,16.8,20.7,32.7,33.1,47.5c11.9,14.2,26,26,40.7,37.1
			c19.5,14.8,40.4,27.1,64.2,33.8c4.4,1.3,8.8,2.5,13.3,3.5c5.2,1.2,10.5,2.2,15.5,3.2c0.2,0.7,0.3,1,0.3,1.2
			c-0.9,11.9,0.2,23.8,0.9,35.7c0.2,4.1,1,8,5.8,9.7c2.8,1,5.3,2.9,8,4.2c1.4,0.7,3.3,1.5,4.4,1c1.5-0.6,2.5-0.3,3.8,0
			c7.8,1.8,15.5,3.9,23.4,5.1c8.8,1.4,17.7,2.5,26.6,2.9c7.8,0.4,15.7,0,23.5-0.8c6.7-0.6,13.3-2.1,19.9-3.3
			c1.1-0.2,2.1-0.5,3.1-0.9c3.7-1.5,7.3-3.1,11-4.6c2.3-0.9,3.4-2.7,3.3-5.2c-0.1-2.6-0.2-5.1-0.1-7.7c0.1-2.9,0.4-5.9,0.6-8.8
			c0.2-3.1,0.1-6.2,0.6-9.2c0.8-4.2,1-8.2,0.5-12.4c-0.3-2.4-0.3-4.8-0.5-7.2c2.7-0.6,5.2-0.9,7.4-1.7c8.5-3.2,17-6.2,25.3-9.9
			c9.8-4.3,19.3-9.2,28.9-13.9c11.3-5.5,21.1-13,29.7-22.1c4.6-4.9,9-10.1,13.4-15.1c0.5-0.6,1.1-1.2,1.5-1.9
			c3.7-6.3,7.4-12.5,11.1-18.8c3.3-5.6,6.5-11.2,9.7-16.8c0.9-1.6,1.6-3.4,2.3-5.2c3.4-9.4,7-18.7,10.2-28.2
			c3.1-9,8.1-17.3,10.7-26.5c0.5-1.8,1.5-3.5,1.8-5.4c1.1-7,3.1-13.9,3.4-21.1c0.2-4.1,1.6-8.2,2.9-12.1c2-6,4.8-11.7,6.6-17.8
			c2.4-7.9,4.2-15.9,6.4-23.8c3.2-11.6,4.3-23.6,6.7-35.4c1.2-6,1.6-12,1.7-18.1c0.1-2.7,0.6-5.3-0.4-8
			C986.7,472.4,986.9,471.5,987.1,470.8z M761.7,815.3c-7.1,1-14.2,1.9-21.3,2.2c-8.8,0.4-17.6,0.5-26.3,0.3
			c-3.4-0.1-6.8-1.4-10.3-2.1c-1.6-0.3-2.2-1.1-2.4-2.7c-0.6-4.2-1.4-8.4-1.2-12.8c0.3-5.4-0.2-10.8-0.2-16.1c0-1.6,0.2-3.1,0.4-5
			c25.9,2.2,51.3-0.8,77-1.2c0.3,11.3,0.5,22.5,0.8,34.3C772.8,813.2,767.3,814.5,761.7,815.3z"/>
	</g>
</g>
<g id="Noodles-Personality">
	<g id="Shoyu">
		<path id="shoyu-fill" class="st21" d="M1144.1,569.2c10.7,1.3,19.2,4.5,27.8,11.9c9.9,8.6,12.9,18.8,18.2,30.5
			c3.3,7.3,7.8,14,9.8,21.8c1.9,7.7,1.1,15.8,2.4,23.7c0.9,5.8,3,11.4,3.8,17.2c0.8,5.8,0.3,12.2-3.4,16.8c-1.8,2.2-4.2,3.8-6.7,5.2
			c-18.6,10.7-41.3,11.6-62.5,8.5c-21.2-3.1-41.7-9.7-62.9-13.1c-3.1-0.5-6.6-1.1-8.5-3.6c-0.8-1.1-1.3-2.4-1.6-3.7
			c-3.8-15.6,2.7-35.6,7.2-50.5c4.2-14,9.5-27.6,16-40.6c2.6-5.3,4.6-11.7,9.3-15.4c5.4-4.3,12.6-6.7,19.3-8
			c8.7-1.7,17.7-1.6,26.5-1.1C1140.7,568.8,1142.5,569,1144.1,569.2z"/>
		<path id="shoyu-fill-level" class="st22" d="M1144.1,569.2c4.6,0.3,31.4,5.9,26.8,13.8c-0.8,1.4-2.2,2.2-3.6,2.9
			c-10.5,5.2-22.7,5.7-34.5,5.5c-7.4-0.1-14.9-0.4-22.2-1.6c-5.7-0.9-13.8-1.9-18.3-5.9c-7.6-6.8,16.1-13.3,20.1-14.1
			c8.7-1.7,17.7-1.6,26.5-1.1C1140.7,568.8,1142.4,569.1,1144.1,569.2z"/>
		<path id="shoyu-lines" class="st20" d="M1214.8,645.6c-4.4-16.4-14.3-30.7-22.3-45.7c-10.6-19.9-17.9-41.4-21.7-63.6
			c-1.8-10.1-3.7-18.6-2.5-28.8c1.4-11.9,3.3-23.8,5.7-35.5c0.1-0.8,0.3-1.6,0.4-2.4c2.4-5.4,4.5-11,6.3-16.6c0.6-2,1.2-4,1.1-6.1
			c-0.7-10.2-25-14.4-32.7-15.6c-12.8-2-25.8-1.9-38.7-1.8c-5.9,0-12.4,0.4-16.8,4.4c-2.2,2-3.7,4.6-5.9,6.6
			c-6.5,5.7-16.7,2.3-23,7.2c-5.8,4.5,0.3,16.3,0.6,22.7c0,0.6,0,1.1,0.3,1.6c0.3,0.4,0.7,0.7,1.1,1c7.2,4.5,17.3,1.7,25.4,1.7
			c1.6,0,3.1,0.1,4.6,0.4c0.8,0.2,1.6,0.5,2.4,0.8c0.5,12.8,0.6,25.7-0.8,38.4c-1.2,10.3-3.4,20.5-7.4,30.3
			c-8.9,22.2-19.9,43.6-28.1,66.1c-8.2,22.5-13.6,46.6-10.8,70.4c0.4,3,0.9,6,2.3,8.7c1.1,2.1,2.7,3.8,4.4,5.5
			c9.6,9.2,22.3,14.6,35.3,17.4c13,2.8,26.4,3,39.7,3c25.9-0.1,52.9-1.5,75.8-13.7c2.6-1.4,5.3-3.1,6.7-5.7c1.3-2.4,1.5-5.3,1.5-8.1
			C1218.2,673.8,1218.5,659.3,1214.8,645.6z M1203.7,682.7c-0.3,0.5-0.7,0.9-1.1,1.2c-13,11-28.9,14.9-45.5,15.6
			c-31.7,1.4-65,0.8-92.8-14.4c3.9-13.9,16.2-24.2,29.6-29.5c13.4-5.3,28.1-6.3,42.5-7.3c1.1-2.8-2.6-4.9-5.6-5.5
			c-19.4-3.7-39.9-1.8-58.2,5.6c-1.4-13.4,2.9-26.8,8.7-39s13.2-23.6,18.5-36c7.8-18.4,10.7-38.3,11.7-58.1
			c0.5-10.4,0.6-20.8,0.5-31.2c0-1.2-0.1-2.2-0.2-3.2c7.2,2.3,14.7,3.5,22.2,4.1c5.2,0.4,11.2,1.2,16.4,0.5c2.6-0.4,5-1.1,7.5-1.7
			c-1,9.5-1.6,19-1.8,28.5c-0.3,14.7-0.1,29.4,2.3,43.9c2.3,14.1,10.3,26.5,17.7,38.5c1.9,3.1,3.9,6.3,5.8,9.4
			c3.3,5.4,6.7,10.8,9,16.6c4,10,7,19.9,9.3,30.5c2.3,10.2,4,18.5,4,29.1C1204.1,681.2,1204.1,682,1203.7,682.7z"/>
	</g>
	<g id="Bowl05_1_">
		<g>
			<path class="st21" d="M538.4,561.8c6.4,5,13.2,9.5,20.3,13.5c3.9,1.8,7.9,3.6,11.9,5.5c17.8,8.2,39.5,11.2,58.5,16.1
				c39.3,10.2,80.6,8.3,121,5c29.6-2.4,57.1-5.6,85.4-13.9c4.1-1.2,8-2.4,10.9-5.8c1-1.1,2.6-1.8,4-2.5
				c11.6-6.2,23.5-11.6,34.5-18.8c15-9.8,29.8-19.8,42.8-32.2c8.7-9.1,15-19,15.7-29.7c1.8-27.9-18.6-51-39.5-67.8
				c-6.7-5.4-13.7-10.4-20.7-15.5c-3.8-2.8-7.8-5.4-11.6-8.1c-1.3-0.9-2.6-1.8-3.9-2.6c-4.5-2.6-9-5.1-14.1-6.3
				c-1.7-0.4-3.1-1.1-4.6-2c-3.5-2.2-6.9-4.4-10.5-6.4c-8.9-4.8-18.7-7.2-28.3-10.3c-4.8-1.6-9.9-2.4-14.8-3.8
				c-7.6-2.1-15.2-3.9-23.1-4.5c-3.1-0.2-6.2-0.5-9.2-1c-11.9-2.2-24-3-36.2-3.2c-5.3-0.1-10.7,0-16,0c0-0.2,0-0.5,0-0.7
				c-3.7,0-7.5,0-11.2,0c-8.3-0.1-16.6,1-24.8,2c-7.2,0.9-14.4,1.5-21.5,2.5c-4,0.5-7.9,1.8-11.8,2.4c-8.4,1.2-16.7,3.3-24.8,5.7
				c-21.7,6.3-41.6,16.1-59.8,29.1c-2.9,2.1-5.8,4.2-8.2,6.8c-0.9,1-2.1,1.7-3.1,2.7c-2.6,2.5-5.4,4.9-7.8,7.7
				c-2.9,3.4-5.3,7.2-8.1,10.6c-3,3.6-6.5,6.9-9.5,10.6c-1.9,2.3-4.1,4.2-5.8,6.8c-4.7,7.2-10,14.1-13.2,22.2
				c-1.6,4.1-2.9,8.3-2.7,12.8C499.5,518.1,514.6,543.2,538.4,561.8z M733.2,386c-0.7-0.5-1.3-1-1.9-1.4
				C732.7,384.2,732.7,384.2,733.2,386z"/>
		</g>
	</g>
	<g id="Noodles05">
		<path class="st23" d="M889.6,483.6c-1-1.7-2-3.3-3.2-5.4c-1.1,0.8-2.2,1.4-2.9,2.2c-4.7,5.8-10.2,10.7-16.1,15.3
			c-1.1,0.9-2.4,1.8-1.4,4.1c1.1-0.8,2.1-1.4,2.9-2.2c3.7-3.6,8.4-5.5,13.4-6.3c4.9-0.8,9.5,0.2,13.6,3.7c5.3,4.5,11.5,7.3,18.6,7.6
			c0.9,0,1.7,0,2.5,0.2c1.8,0.4,2.6,1.9,2,3.6c-0.8,2.1-4.1,4.6-6.4,4.5c-3.8-0.1-11.1-2.1-14.7-0.6c-0.9,0.3-1.6,1-2.3,1.6
			c-3.6,2.8-8.6,3.1-13.2,3.2c-18.8,0.5-34.8-5.5-48.5-18.6c-4.8-4.6-8.8-10-12.9-15.3c-3-4-5.7-8.2-8.2-12.5
			c-3.6-6.1-9.1-8.1-15.8-7.9c-2.5,0.1-5.1,0.5-7.6,0.9c-4.9,0.6-9.1,2.8-12.9,5.7c-3.7,2.8-7.1,5.9-10.5,9
			c-4.2,3.7-8.4,7.4-12.5,11.1c-0.5,0.5-1,1-1.9,1.7c2.9,2.9,6.6,4.1,9.8,6.3c0.9-1,1.6-1.6,2.1-2.4c5.6-8.2,13.2-13.2,23-14.8
			c2.5-0.4,5-1.1,7.5-0.9c2.2,0.1,4.6,0.9,6.5,2c6,3.4,11.2,7.5,14.9,13.6c3.9,6.4,10,10.6,16,14.7c5.8,4,12,7.4,17.9,11.1
			c6.3,3.9,12.8,4.1,19.9,5.7c0.4,0.1,0.8,0.2,1.1,0.5c0.6,0.6,0.3,1.8-0.4,2.3c-0.7,0.5-1.6,0.6-2.5,0.6
			c-6.2,0.3-12.4,0.4-18.6,0.2c-13.1-0.3-25.5-10.9-35.5-18.6c-3.9-3-7.7-6-11.2-9.4c-2.7-2.7-4.9-6-7.3-9.1
			c-0.5-0.7-0.9-1.4-1.4-2.1c-0.9-1.3-2.1-1.6-3.5-0.9c-3.9,2-7.9,3.8-10.8,7.3c-2.4,3-5.2,5.7-8.1,8.9c1.6,1.7,3.2,3.5,4.8,5.2
			c0.9,1,1.9,0.6,3,0.3c9.6-2.5,18.5-1,26.8,4.4c1.6,1.1,3.2,2.2,4.7,3.4c4.6,3.6,9.8,5.9,15.3,7.4c9.6,2.7,4.8,7.2-2.8,7
			c-7.6-0.2-15.2-2.5-21.6-6.6c-3.6-2.4-7-5.3-11.2-6.4c-1.5-0.4-3-0.5-4.4,0c-9.3,3.5,6.8,12.3,9.8,13.5c15.2,6.3,31.6,9.5,48,9.3
			c0.8,0,1.7,0,2.3,0.4c1,0.7,1.1,2.3,0.5,3.3c-0.6,1.1-1.7,1.8-2.8,2.4c-20.7,11.7-51.8,8.3-68.4-9.2c-4.8-5-9.4-10.2-13.7-15.7
			c-3.7-4.7-6.5-10-10-14.8c-1.8-2.4-4-4.6-6.5-6.3c-3.4-2.4-7.1-2.4-11.1-0.7c-8.5,3.7-15,9.8-20.5,17.1
			c-5.2,7-10.2,14.2-15.5,21.1c-2.9,3.7-6,7.5-9.8,10.3c-3.4,2.6-7.6,4.3-11.6,5.9c-4.4,1.8-9,3.1-13.5,4.4
			c-6.1,1.8-12,1.2-17.7-1.6c-2.1-1-4.6-1.6-6.4-4c2.8-1.9,6.2-1.2,8.9-2.8c2.7-1.6,5.5-3,8.3-4.5c-3.1-4.2-9.9-6.1-14.1-3.6
			c-2.7,1.6-5.1,3.7-7.5,5.7c-2.1,1.8-3.7,4.3-6,5.8c-5.8,3.7-12.1,7-18.9,6.8c-5.3-0.2-10.5-2.6-15.2-5.6c-0.2-0.1-0.2-0.4-0.3-1
			c0.7-0.3,1.4-0.7,2.1-0.9c5.8-1.8,10.9-4.5,14.9-9.4c2.4-2.9,5.3-5.4,7.9-8c3.4-3.4,7.7-4.6,12.3-4.9c7.1-0.5,14.2-0.3,21,1.6
			c3.6,1,7,2.8,10.4,4.5c3.1,1.5,3.3,1.6,5.5-1c0.7-0.9,1.4-1.9,2.1-3c-0.7-0.6-1.1-1.1-1.5-1.4c-6.4-4.4-12.8-8.8-19.2-13.3
			c-1.7-1.2-3.4-2.4-4.8-3.9c-2.5-2.6-5.5-2.9-8.7-2c-3.6,0.9-6.4,3.1-8.9,5.6c-3.6,3.5-6.9,7.2-10.4,10.7c-2.2,2.2-4.6,4.3-7,6.3
			c-1.7,1.4-3.5,2.6-5.1,4.1c-6.8,6.3-15.1,9-24.1,10.2c-3.3,0.4-6.1,0.1-9.1-1.4c-1.8-0.9-4.2-0.7-6.4-0.5c-1.9,0.1-3.2-0.3-3.8-2
			c-0.7-2,0.7-3,2.1-3.7c3.4-1.6,6.9-3,10.4-4.4c4.1-1.7,7.7-4.1,11.1-7c2-1.8,4.3-3.2,6.3-5c2.5-2.1,4.9-4.4,7.2-6.7
			c3.5-3.5,6.9-7.2,10.5-10.7c3-2.9,6.6-5.1,10.6-6.3c1.5-0.5,3.1-0.9,4.6-0.8c7,0.5,14.1,0.5,20.9,2.6c6.4,2,11.4,5.8,16.4,10
			c3.2,2.7,6.5,5.1,9.7,7.7c0.7,0.5,1.4,0.9,2.2,1.3c2.8,1.2,3.4,1.1,5.1-1.5c1.4-2.1,2.7-4.3,4.1-6.6c-2.8-1.6-5.3-2.8-7.6-4.4
			c-6.5-4.7-13-9.5-19.4-14.3c-1.6-1.2-3.2-2.7-4.4-4.3c-6.3-7.9-14.9-8.8-24.5-5.8c-8.1,2.5-14.3,7.7-19.4,14.3
			c-5.5,7.2-11.8,13.6-19,19.1c-2.9,2.2-6,4.1-9.1,6.2c-0.4,0.3-0.8,0.6-1.3,0.7c-5.6,1.6-11.1,3.4-16.8,4.8
			c-5.3,1.3-10.5,0.1-15.1-2.4c-1.9-1-3.3-3-5.1-4.8c4.5-1.5,9.1-2.4,13.1-4.4c4.2-2.1,8-5,11.8-7.9c3.6-2.8,7.4-5.5,9.8-9.9
			c-2.8-1.8-5.3-3.6-7.8-5.1c-0.6-0.3-1.7-0.1-2.4,0.2c-1.9,1.2-4.1,2.3-5.6,4c-4.8,5.7-10.8,9.4-17.4,12.4
			c-3.6,1.6-7.2,0.8-10.6-0.5c-2.6-1-2.6-3.1-0.4-4.7c2-1.4,4-2.8,6.1-4c4.6-2.7,7-7.3,10.6-10.9c-0.2-0.2-0.4-0.5-0.6-0.7
			c-1.5,1-2.9,2.2-4.4,3.1c-1.7,0.9-3.5,1.8-5.3,2.2c-2,0.5-4.1,0.7-6.1,0.8c-1.9,0.1-3.9,0.2-5.8-0.1c-1.9-0.2-3.8-0.9-5.7-1.2
			c-2-0.3-3.6-1.4-5.3-3.2c1-0.6,1.7-1.3,2.4-1.4c6.8-0.8,11.2-5.1,15.1-10.1c3.8-4.8,7.2-9.8,10.8-14.8c4.5-6.3,10.3-9.9,18.2-9.6
			c5.5,0.2,11,0.1,16.4,0.8c6.5,0.9,12.5,3.2,16.5,8.9c0.3,0.5,0.8,0.9,1.2,1.3c2.3,2.3,2.4,2.4,5.3,0.8c1.9-1.1,3.7-2.3,5.8-3.5
			c1.5,1.6,3,3.1,4.4,4.7c1.7,1.8,2.5,1.9,4.3,0.5c1.6-1.3,3-2.7,4.7-4.3c-0.6-0.5-0.9-0.9-1.3-1c-6.8-1.8-12.5-5.9-18.4-9.6
			c-5.6-3.5-11.1-6.9-17.1-9.7c-8.9-4.1-17.2-3-25.5,1.6c-9.4,5.2-16.2,15.4-26.5,18.8c-5.3,1.8-11.5,1.5-16.3-1.4
			c-0.8-0.5-1.7-1.4-1.4-2.3c0.2-0.7,0.9-1,1.6-1.4c7.1-3.5,11.2-10.6,16.5-16.3c5.6-6.1,12.7-9.3,20.5-11.6
			c7.3-2.2,12.2-4.3,16.7-10.5c5.6-7.5,13-13.6,19.9-19.8c3.7-3.3,7.5-6.8,11.7-9.3c10.8-6.4,22.5-9.7,35.2-9
			c5.1,0.3,10.2,1.3,14.6,4c1.7,1,3,0.8,4.3-0.4c1.7-1.6,3.3-3.2,4.8-5c2.6-3.1,4.9-6.4,7.5-9.5c1.6-1.8,3.2-3.7,5.2-5
			c3.1-2.1,6.4-4.2,9.9-5.5c7.3-2.6,14.2-1.2,20.4,3.2c5,3.5,8.7,8.1,12.3,12.9c0.9,1.1,1.8,2.2,2.9,3.6c1.2-0.7,2.3-1.2,3.2-1.9
			c8.4-6,17.8-9.6,27.9-10.8c3.4-0.4,7.1,0.1,10.5,0.7c5.7,1,11.4,2.3,17.1,3.7c1.8,0.5,3.6,1.5,5.1,2.6c3.2,2.4,6.2,5.1,9.4,7.5
			c2.2,1.7,4.6,3,6.9,4.7c1.2,0.8,2.2,1.9,3.2,3c2.5,2.5,2.8,2.6,6,1.1c0.9-0.4,1.8-0.7,3.1-1.3c1.1,1.9,2.3,3.7,3.3,5.6
			c1.3,2.3,2.3,2.9,4.9,2.6c1-0.1,1.9-0.2,2.9-0.5c5.8-1.4,11.3,0.2,16.9,1.1c9.3,1.5,16.2,6.8,22.6,13.1
			c5.9,5.8,11.8,11.7,17.7,17.4c1.3,1.3,2.9,2.2,4.2,3.5c1.7,1.7,3.5,1.9,5.7,1.2c5.2-1.7,11.7-2.3,16.2,0.6
			c8.8,5.7,13.9,14.7,23,20.3c1.2,0.8,2.7,1.8,2.6,3.2c0,0.5-0.2,1-0.5,1.5c-1.8,3.1-5.9,4.1-9.5,4.1c-10.2,0.1-14.8-8.7-21-15.6
			c-5-5.5-5.3-4.8-11.9-1.9c-6,2.6-9.7,7.5-13.7,12.2c-0.7,0.8-1.5,1.5-2.3,2.3c-0.3,0.2-0.7,0.4-0.8,0.7
			c-1.7,6.6-6.5,10.9-11.1,15.4c-1.9,1.8-4.2,3.3-6.4,5c-1.8-1.7-3.3-1.3-4.7,0.4c0.3,2.5,2.3,3.9,4.1,5.3c1.2,0.9,2.4,0,3.2-0.8
			c2.7-2.7,5.4-5.2,7.9-8.1c5-5.7,10.6-10.8,16.9-14.9c7.9-5.1,11.4-4.7,17.9,1.9c5.3,5.4,13.4,9.6,20.5,12.2
			c1.8,0.7,4.1,1.7,4.1,3.6c0,1.1-0.7,2-1.5,2.8c-7.3,7.5-15.9,7.1-24,2C894.2,488.7,892,485.9,889.6,483.6c0.3-0.5,0.6-1,1-1.5
			c-0.2-0.1-0.4-0.2-0.5-0.3C889.9,482.5,889.7,483.1,889.6,483.6z M639,472.1c3.3,1.1,5.9,1.8,8.4,2.7c4.1,1.4,4.3,1.5,7.2-1.8
			c2.8-3.3,5.5-6.8,8.1-10.4c4.7-6.4,10.8-10.8,18.4-13.2c9-2.8,18.2-3.6,27.5-2.6c7.1,0.7,14.2,2.6,20,7.3c2,1.6,3.9,3.3,5.6,5.2
			c2,2.1,3.7,4.5,5.6,6.7c0.9,1,1.9,1.9,2.9,2.7c1.1,0.9,2,0.5,2.8-0.5c0.8-1,0.3-1.8-0.6-2.5c-2.9-2.3-6-4.3-8.5-6.8
			c-5.1-5.2-9.9-10.7-14.9-16.1c-2.5-2.7-4.9-5.5-8.4-6.9c-5.9-2.3-11.9-3.3-18.2-1.7c-2,0.5-4,0.9-6.1,1.2
			c-8.7,1.4-15.9,5.7-22.7,10.9c-2.8,2.1-5.4,4.6-7.9,7c-5,4.8-9.9,9.8-14.8,14.6C642.1,469.3,640.8,470.4,639,472.1z M801.4,447.6
			c1.8,0.7,3,1.2,4.3,1.6c11.3,3.3,20.9,9,28.1,18.6c2.6,3.4,5.1,6.8,7.7,10.2c1.6,2,2.6,2.1,4.4,0.3c0.3-0.3,0.7-0.7,0.9-1.1
			c2.2-3.4,4.4-6.7,6.4-10.2c1.5-2.6,1.2-3.3-1.6-4.4c-5.4-2-10-5.3-14.6-8.9c-5.7-4.5-9.8-10.5-14.7-15.6c-4.1-4.3-4.2-4.5-9.8-1.1
			c-0.3,0.2-0.6,0.4-0.9,0.7c-2.6,2.3-5.3,4.6-7.9,7C803,445.5,802.4,446.4,801.4,447.6z M781.8,447.6c2,1,3.1,0.3,3.9-0.8
			c1.2-1.7,2.4-3.4,3.7-5c4.7-6.2,10.2-11.6,17.5-14.4c5.6-2.2,11.5-3.3,17.5-2.7c5.2,0.5,10.1,2.2,14.1,5.5
			c3.8,3.2,7.4,6.7,10.6,10.5c2.9,3.5,6.1,6.6,9.7,9.3c4,3,4.5,3,8.2-0.6c0.5-0.5,0.9-1.1,1.5-2c-1.2-0.7-2.2-1.3-3.3-1.8
			c-4.4-2.2-8.5-4.8-12-8.2c-5.7-5.6-11.2-11.5-16.9-17.2c-1.9-1.9-4-3.6-6-5.4c-1.9-1.7-4.1-1.9-6.5-1.5
			c-11.4,1.7-21.1,6.5-28.8,15.1c-1,1.2-2.1,2.3-3.3,3.4C787.2,436.2,784.6,441.8,781.8,447.6z M734,479.7c-0.3-0.4-0.5-0.8-0.7-1
			c-1-0.7-1.9-1.5-3-2.1c-6.5-3.7-11.7-8.8-16.5-14.3c-0.6-0.6-1.2-1.2-1.7-1.9c-2.7-3.3-6.3-3.9-10.2-3
			c-8.9,1.9-16.2,6.5-21.8,13.7c-3.3,4.2-6.9,8.2-11.7,10.8c-1,0.6-2,1.3-3.2,2.1c0.7,0.9,1.3,1.7,2,2.3c2.2,2.1,3.1,2,5-0.5
			c1-1.4,1.9-2.8,3-4.2c2.3-2.9,4.7-5.7,8.1-7.1c7.8-3.4,16.1-3.3,24.4-2.9c0.8,0,1.7,0.2,2.5,0.6c5.9,2.8,12.3,4.6,17,9.6
			c2.4,2.6,3.3,2.5,5.6-0.1C733.2,481.1,733.6,480.3,734,479.7z M660.6,428c-1.5-1.2-3-2.4-4.4-3.7c-3-2.8-6.2-5.5-8.8-8.6
			c-3.1-3.7-5.8-7.8-8.7-11.7c-1.2-1.6-2.6-3.2-4.1-4.7c-2.4-2.4-5.4-3.1-8.4-1.9c-5,2-10.4,3.7-14.5,7.3c-8,7-16.3,13.8-23.4,22
			c-1.9,2.2-4.2,4-6.4,6c-0.7,0.7-1.4,1.4-2.2,2.3c3.9,1.8,4.6,1.7,6.8-0.6c1.7-1.9,3.6-3.7,5-5.8c7.1-10.6,16.8-17.1,29.4-19
			c4.1-0.6,8.2-0.8,12.3-0.8c3.4,0,6.5,1.2,8.7,3.9c2.5,3,5.1,5.8,6.5,9.6c0.6,1.7,1.5,3.3,2.4,4.9
			C652.8,430.8,657.2,431.4,660.6,428z M549.8,490.5c0.1,0.2,0.3,0.4,0.4,0.6c0.8-0.4,1.6-0.9,2.5-1.3c1.7-0.7,3.3-1.9,5-2
			c7.9-0.4,16.1-1.9,23.2,3.3c1.2,0.9,2.5,1,3.6-0.1c2.2-2.2,4.3-4.5,6.7-6.9c-1.1-0.9-1.7-1.6-2.6-2c-5.6-2.8-10-7.2-14.8-11.1
			c-3.3-2.7-4.2-2.9-7.7-0.7c-1.2,0.8-2.5,1.7-3.3,2.8C558.4,478.8,554.1,484.7,549.8,490.5z M707.1,395.7c-1-0.9-1.7-1.6-2.5-2.1
			c-4.2-2.3-7.1-6-9.4-10c-1.8-3.1-4.4-5.4-7.1-7.5c-3.1-2.4-4.6-1.9-6.9,1.1c-3.6,4.6-7.2,9.2-11,13.5c-1.9,2.1-4.5,3.6-6.7,5.6
			c-1.9,1.6-1.8,3.7,0,5.3c1.4,1.3,2.3,1.1,4.3-0.8c6.3-6.1,13.3-10.3,22.5-9.9c2.6,0.1,4.7,0.6,6.6,2.1c1.6,1.3,3,2.8,4.5,4.2
			c0.7,0.7,1.3,1.4,2.3,2.4C704.8,398.4,705.9,397.1,707.1,395.7z M729.4,429.7c3.9,3.9,4.8,4,7.8,0.3c1.9-2.2,3.6-4.6,5.4-6.9
			c2.5-3.3,5.4-6.1,9.7-6.4c3.7-0.3,7.5-0.3,11.3-0.1c3.3,0.1,6.4,1,9.3,2.7c3.4,2,4.2,1.7,6.7-2c-0.3-0.3-0.6-0.8-1-0.9
			c-6-2.7-10.5-7.3-15.2-11.8c-3.7-3.6-5.4-3.7-9,0.1c-0.7,0.8-1.4,1.7-2.1,2.5c-2.7,3.4-5.3,6.9-8.2,10.3c-1.2,1.4-2.8,2.7-4.5,3.6
			C735.8,423.2,732.8,426.5,729.4,429.7z M792.6,405c-7.8-6.7-15.2-13.1-22.6-19.4c-1-0.9-2.2-1.7-3.4-2c-2.1-0.5-4.5-1.3-6.3-0.7
			c-5.5,1.7-10.9,4-16.3,6.2c-0.8,0.3-1.3,1.2-2.3,2.1c1.4,0.2,2.1,0.5,2.7,0.4c7.6-0.4,15,1.2,22.4,2.3c3.8,0.6,7.2,2,9.9,4.9
			c2.2,2.4,4.4,4.8,6.7,7.1c0.6,0.6,1.6,1.4,2.4,1.3C788,407.1,790.3,406.9,792.6,405z M642.1,442c-0.3-0.4-0.5-0.8-0.7-1
			c-0.6-0.4-1.3-0.6-1.9-0.9c-6.9-2.9-12.3-7.3-15-14.5c-0.3-0.7-0.5-1.4-0.9-2c-0.5-0.8-1-1.6-1.5-2.2c-4.5,0.4-7.2,3.2-9.9,6.1
			c-1.4,1.5-2.9,2.9-4.3,4.4c-3,3.2-6,6.5-9.1,9.9c1.8,0.8,2.6,0.1,3.4-0.6c2.2-1.7,4.4-3.4,6.7-5c2.1-1.4,4.3-2.1,6.9-1.6
			c1.6,0.3,3.1,0.4,4.7,0.5c3.2,0.3,5.7,1.7,7.9,4c1.5,1.6,3,3.3,4.9,4.4C637.3,445.7,640.2,445.7,642.1,442z M710.8,487.8
			c-1.8-1.9-3.2-3.4-4.6-4.9c-3.3-3.7-6-2.7-8.5-0.3c-2.4,2.2-4.6,4.7-6.6,7.2c-2.4,3-5,5.6-8.6,7.1c-0.8,0.3-1.4,1.1-2.4,2
			c2.2,1.5,4,2.7,5.8,3.9c3.5,2.2,3.9,2.1,6.6-1.2c4.1-5.1,9.3-8.9,15-11.9C708.6,489.1,709.6,488.4,710.8,487.8z M769.9,428.7
			c-4.8-3.7-5.8-3.7-9.9,0c-1.1,1-2,2.1-3,3.2c-3.3,3.4-6.5,6.9-9.9,10.2c-1.1,1.1-1.4,2-0.5,3.1c1.8,2.1,3.6,4.2,5.5,6.3
			c1,1.1,2.2,1.1,3.2,0c1.7-1.9,3.5-3.7,4.8-5.9c2.8-4.5,5.3-9.2,8-13.9C768.7,430.7,769.3,429.7,769.9,428.7z M670.5,409.9
			c3,4.2,5.9,7.8,9.4,10.8c2.2,1.9,3.1,1.9,5.4-0.1c2.5-2.2,4.8-4.4,7.2-6.7c0.6-0.5,0.9-1.3,1.3-1.9c-3-3-5.9-5.8-8.7-8.6
			c-1.2-1.2-2.3-1.5-3.9-0.6c-2.5,1.5-5.2,2.6-7.7,4.1C672.4,407.5,671.7,408.7,670.5,409.9z M626.1,452c-0.1-0.2,0-0.5-0.2-0.7
			c-3.6-3-7.2-6.1-10.8-9.1c-1.4-1.1-2.9-1.4-4.3-0.4c-1.3,1-2.4,2.3-3.6,3.5c0.6,0.7,0.9,1.1,1.3,1.3c3.9,2.3,7.7,4.6,11.6,6.8
			C622.3,454.7,623.6,454.3,626.1,452z M890.5,507.7c0.1-0.3,0.2-0.6,0.3-0.9c-2.9-1.8-5.7-3.6-8.6-5.2c-1.7-1-2.1-0.7-3.3,2.1
			C882.7,505.2,886.1,508,890.5,507.7z M709.4,423.3c3.7,0.1,6.1-1.7,7.9-6.2C714.5,419.3,712.2,421.1,709.4,423.3z M663.9,470.8
			c-0.3-0.3-0.4-0.4-0.6-0.6c-0.2,0.2-0.4,0.4-0.6,0.7c0,0,0.4,0.4,0.5,0.4C663.4,471.3,663.6,471,663.9,470.8z M824.7,438.3
			c-0.2-0.1-0.3-0.2-0.5-0.3c-0.1,0.1-0.2,0.3-0.1,0.3c0.1,0.1,0.3,0.2,0.5,0.3C824.6,438.5,824.7,438.4,824.7,438.3z M668.3,478.2
			c0,0.1-0.1,0.2-0.1,0.3c0.2,0,0.4,0,0.5,0c0-0.1,0-0.3-0.1-0.3C668.6,478.2,668.4,478.2,668.3,478.2z M658.7,393.9
			c0,0.2,0,0.3,0,0.5c0.1,0,0.3,0,0.3,0c0-0.2,0-0.3,0-0.5C658.9,393.9,658.8,393.9,658.7,393.9z"/>
		<path class="st23" d="M775.8,558c2.3,1.2,4.9,2.1,7.7,2.6c4.3,0.8,8.6,0.8,13,1c0.7,0,1.6,0.2,1.8,0.8c0.2,0.7-0.4,1.4-0.9,1.8
			c-4.3,3.4-14,7.6-19.6,5.7c-1.2-0.4-2.6-0.6-4.4-1c2.4,8.5-10.3,9.2-16.3,9.3c-1.9,0-3.7,0-5.5-0.5c-4.1-1.3-8.8-5.9-11.6-8.9
			c-2.7-2.9-3.5-3-5.9,0.2c-4.4,6.1-10.4,9.3-17.5,11c-1.7,0.4-3.2,1.1-4.9,1.5c-3.6,1-7,0.1-10.2-1.4c-0.8-0.4-1.2-1.3-1.8-2
			c0.7-0.6,1.3-1.3,2.1-1.6c3.7-1.4,7.3-2.8,10.2-5.5c1.6-1.5,3.1-3.1,4.5-4.7c2.1-2.4,3.9-5,6.1-7.2c3.6-3.6,8-5.4,13.3-4.2
			c1.6,0.3,3.5,0.4,5-0.1c1.9-0.6,3.4-0.3,4.8,0.8c4.2,3.3,8.5,6.4,11,11.5c2.5,5,7.5,4.8,10.9-0.4c-6.3-4.2-11.7-9.3-16.7-15
			c-4.9-5.6-7.4-12.7-10.7-19.2c-2.3,0.4-3.1,1.7-4,3.1c-4.5,6.6-9,13.3-13.6,19.9c-2,2.8-4.4,5.2-6.7,7.7c-0.6,0.6-1.3,1.2-2,1.5
			c-17.1,7-36,15-54.7,10.9c-3.4-0.8-7-1.9-9.2-4.6c-0.6-0.7-1-1.8-0.3-2.4c0.3-0.2,0.7-0.3,1.1-0.3c5.5-0.2,11.5,0.2,16.9-0.7
			c4.5-0.8,9-2.9,13.5-3.9c4.3-1,8.3-2.8,12.1-4.9c1.1-0.6,2.2-1.5,3.1-2.5c4.5-4.8,8.6-9.9,12.1-15.5c2.6-4.1,5.9-7.8,9-11.5
			c3.7-4.3,8.5-6.3,14.1-6.5c2.3-0.1,4.6-0.4,6.9-0.7c4.2-0.4,7.8,0.8,11.2,3.4c5,3.8,8.3,8.7,10.7,14.4
			C763.8,547.7,768.6,554.3,775.8,558z"/>
	</g>
	<g>
		<g>
			<g>
			</g>
		</g>
	</g>
	<g id="Brush_2_">
		<path id="brush-lines" class="st20" d="M1365.8,726.3c-5.7-6.2-32.9,4.9-39.1,6.4c-15.8,3.7-109.7,33.5-141.3,43.4
			c-49.1,15.4-98.4,29.9-147.8,44.1c-12.9,3.7-25.8,7.4-38.7,11c-12.1,3.4-24.2,6.7-36.3,9.9c-8.3,2.2-16.7,4.3-23.8,7.6
			c-4.4,2-8.3,4.5-10.8,7.4c-1.4-1.4-3.5-2.5-6.4-3.3c-2.2-0.6-4.6-0.5-6.9-0.3c-7.9,0.7-15.9,3.1-22.4,7.7
			c-6.2,4.3-10.9,10.4-16.7,15.2c-5.9,4.7-13.8,8.1-20.8,5.5c4.7,4.9,11.4,7.7,18.2,7.7c3.9,0,8.1-0.9,11.7,0.7
			c-1.3,2.2-4.3,4.7-6,2.8c1.4,2.4,5,2.3,7.7,1.4c2.7-0.9,5.5-2.4,8.2-1.6c1.1,0.3,2.2,1,3.3,1.3c1.7,0.4,3.4-0.3,5-1
			c6.6-2.9,12.9-6.4,18.2-11.4c2.8-2.7,5.8-6.6,7.6-10.7c1.9,1.7,4.6,3,8,3.3c7.9,0.7,21.8-4.1,29.1-5.8
			c20.9-4.9,41.4-10.4,61.5-16.4c35-10.4,69.3-23.2,104-34.7c25.3-8.4,180.1-63.2,200.9-71C1344.3,740.9,1371.5,732.5,1365.8,726.3z
			"/>
		<g id="Brush">
			<path id="brush-fill" class="st21" d="M1309.9,749.5c0.5-0.1,1-0.3,1.5-0.4c9.1-2.6,18.3-5.2,26.4-10.1c6.8-4.1-6.9-3.1-9-2.4
				c0,0,0,0-0.1,0c-6.7,2.1-13.3,4.1-20,6.2c-26.3,8.1-52.6,16.3-78.9,24.4c-17.9,5.5-35.8,11.1-53.7,16.6
				c-36.6,11.3-73.2,22.6-109.4,35c-22.8,7.8-45.5,15.9-68.8,22c-10.3,2.7-20.6,5.2-30.9,7.6c-9.6,2.3-19.6,3.3-28.3,8.3
				c-0.9,0.5-1.8,1.1-2.4,2c-1.8,2.5-0.1,6.2,2.7,7.5c4.4,2,11.7-0.9,16.2-1.8c6.7-1.4,13.2-3.7,19.7-5.5
				c32.5-9,64.4-20.1,96.6-29.5c23.7-6.9,47.3-14.5,70.6-22.8c41.1-14.7,82.5-28.2,123.3-43.6C1279.9,757.5,1295,753.7,1309.9,749.5
				z"/>
		</g>
	</g>
	<g>
		<path id="palette-fill" class="st23" d="M430.2,729.1c-7.7-10.1-6.1-17.1-17.2-23.1c-16.3-8.9-30.4-24-48-30
			c-28.9-9.9-57-19.2-87-25c-42.3-8.2-102.1-5.5-144.8-11.1c-20.1-2.6-43.9-8.1-64.1-6.1c-16.3,1.7-34.5,12.4-49.3,19.6
			C13,656.7,6.4,660.2,0,664v302h236.3c34.9-26.9,52.3-61.3,76.2-101.2c7.7-12.9,14.7-26.5,24.4-37.9c11-13,25.5-23.1,41.5-28.8
			c11-3.9,31.8-5.7,42.7-10.1s12.3-11.9,16.5-23C441.9,753,437.9,739.2,430.2,729.1z M351.5,754.4c-2.6,6.7-8.4,11.6-14.9,14.5
			c-6.5,2.8-13.6,3.7-20.7,4.1c-5.1,0.3-10.3,0.3-15.4,0.1c-5.2-0.2-10.6-0.8-15.2-3.4c-6.4-3.6-10.3-10.5-12.9-17.5
			c-1.4-3.8-2.6-8-1.9-12c0.9-4.8,4.3-8.8,8.5-11.3c4.2-2.4,9-3.5,13.8-4.1C309.3,722.7,362.7,725.6,351.5,754.4z"/>
		<path id="paletteblob04" class="st21" d="M228.5,818.9c-2.5,2.6-4.1,6.3-3.4,9.8c0.6,2.9,2.5,5.3,3.9,7.9
			c2.1,4.1,2.6,8.8,3.9,13.3s3.5,9,7.6,11.1c3.2,1.6,7,1.3,10.5,0.9c5.2-0.7,10.4-1.7,15.6-3c3.6-1,7.4-2.2,9.9-5.1
			c4.7-5.5,2.5-14.2,4.8-21.1c0.8-2.4,2.2-4.6,2.4-7.2c0.2-3.5-1.9-6.6-4.1-9.3c-7.7-8.9-14.6-4.5-24.5-5.1
			C245.7,810.5,235.3,811.8,228.5,818.9z"/>
		<path id="paletteblob03" class="st24" d="M150,875.7c-3.3,0.4-6.9,1.2-8.8,3.9c-3.2,4.7,0.4,10.8,1.9,16.3
			c1.7,6.2,0.4,12.7,0.3,19.1s1.4,13.6,6.7,17.1c4.6,3,10.5,2.3,15.8,1.2c8.6-1.8,17-4.4,25.1-7.7c1.5-0.6,3-1.3,4.3-2.3
			c2.3-2,3.3-5,4.9-7.5c2.1-3.3,5.2-6,7.2-9.4c3.5-6.1,2.8-13.8,0.8-20.6c-2.2-7.6-7.1-15.8-14.9-16.6c-7.8-0.8-13,5.9-20.1,7.2
			C166.1,877.7,157.6,874.8,150,875.7z"/>
		<path id="paletteblob02" class="st25" d="M204.7,681.9c-3.8,0.8-7.4,2.7-10.5,5.9c-2.9,3-4.3,7.7-2.6,11.5
			c0.8,1.9,2.3,3.4,3.4,5.2c2.8,4.7,2.4,10.6,3.2,16c2.1,14,25.5,24.2,37.6,18.7c5.9-2.7,9.8-8.7,12.4-14.7
			c3.8-8.7,5.6-19.7-0.3-27.1c-2.7-3.4-6.6-5.5-10.4-7.5C228.5,685.2,215.6,679.6,204.7,681.9z"/>
		<path id="paletteblob01" class="st26" d="M70.9,681.8c-3.5,1.8-6.8,4.1-10.1,6.1c-6.9,4.2-9.2,11.9-11.4,19.5
			c-0.6,1.9-1.1,3.9-0.7,5.9c0.9,3.9,5,5.9,8.7,7.4c6.5,2.6,13,5.2,19.4,7.8c3.7,1.5,7.8,2.9,11.5,1.4c8.6-3.5,5.4-13.3,6.5-20.1
			c1.4-8.7,15-8.6,16.1-18c0.2-1.3,0-2.8-1-3.7c-0.6-0.6-1.3-0.9-2-1.2c-4.1-1.8-8.3-3.6-12.4-5.3c-3.2-1.4-6.4-2.8-9.9-3.2
			C80.3,677.7,75.5,679.4,70.9,681.8z"/>
		<g id="paintpalette-lines">
			<path class="st20" d="M353.8,731c-3.7-3.9-9.2-5.2-14.4-6.3c-20.3-4.3-55.6-19.1-67.7,6.3c-4.3,9.1-3.4,20.3,1.6,29
				c5,8.7,13.8,14.9,23.4,17.5c6.2,1.7,12.8,1.9,19.2,1.7c7.2-0.3,14.4-1.2,20.9-4.2c10.4-4.7,18.3-14.7,20.6-26
				C358.8,742.7,358.2,735.6,353.8,731z M346.9,750.9c-0.5,4.8-4.7,8.1-8.7,10.7c-10.4,6.6-22.7,11.4-34.9,9.7
				c-12.2-1.7-23.9-11.3-24.9-23.7c-2.5-30.1,43.5-17.3,57.2-10.9C341.4,739.5,347.7,744.4,346.9,750.9z"/>
			<path class="st20" d="M442,732c-11.3-22.3-41.9-39.8-64-51c-59.2-30-107.6-41.3-173.3-49.3c-25.2-3.1-50.4-5.2-75.8-5.6
				c-38.8-0.6-92,9.2-128.9,26v22.7c7.3-4.2,15-7.7,23-10.4c20-6.8,46-17.4,93-18.4c101.9-2.2,150.5,6.7,247,40
				c29,10,51.7,30.7,59.8,43.9c11.8,19.1,2.1,48.1-18.7,56c-14,5.3-30.1,1.9-44.1,7.1c-15,5.6-24.9,19.8-33.9,33.2
				C292.4,876.4,272.5,924.8,225,962c-1.7,1.3-3.6,2.7-5.7,4h31.5c16.2-14.6,29.3-32.5,41.2-54c10.5-19,28.4-52.1,39-71
				s25.9-26.3,46.6-32.1c19.4-5.4,31.9-0.8,49.4-10.9C448.5,785.6,453.3,754.3,442,732z"/>
		</g>
	</g>
</g>
<g id="Topping-Mood">
	<g id="PorkBelly">
		<path id="porkbelly-fill" class="st106" d="M750.1,397.5c-2.4-9.7-4.9-19.6-10.5-27.8c-4.4-6.5-11.7-12.7-19.7-13.7
			c-7.9-1-17.8,6.5-24.7,10.1c-6.3,3.3-12.6,6.7-18.8,10.2c-5.5-4.6-11.6-8.4-16.6-13.6c-3.9-4.1-6.9-9.1-11.1-13
			c-6.6-6.3-13.3-7.6-20.3-1.9c-8,6.6-16,13.3-24,19.9c-16.3,13.5-32.6,27.1-49,40.6c-6,5-12.1,10.1-16.3,16.7
			c-3.7,5.8-5.6,12.6-7.5,19.2c-0.6,1.9-1.1,4-0.7,6c0.6,3.2,3.5,5.5,6.1,7.5c6.2,4.9,11.8,10.5,16.7,16.6c8.3,10.2,16,23,28.9,25.5
			c9.4,1.9,19.2-2.5,26.3-9c3.4-3.1,6.3-6.6,9-10.4c2.5,3,5.1,6,7.7,9c1.9,2.2,4,4.5,6.6,5.7c3.2,1.4,6.9,1.1,10.4,0.5
			c15.4-2.5,30.2-8.8,42.8-18.1c7.7-5.7,14.6-12.7,23.1-17.2c5.3-2.8,11.2-4.6,17-6.1c3-0.8,6-1.5,8.6-3.2c2-1.4,3.6-3.2,5.1-5.1
			c5.4-6.4,10.9-13.2,13-21.3C754.4,415.9,752.3,406.5,750.1,397.5z"/>
		<g id="porkbelly-lines">
			<path class="st20" d="M591,462.1C591,462.1,591,462.1,591,462.1C591,462,591,462,591,462.1z"/>
			<path class="st20" d="M553.4,420.9C553.6,421,553.6,421,553.4,420.9L553.4,420.9z"/>
			<path class="st20" d="M553.4,421.2C553.4,421.2,553.4,421.2,553.4,421.2C553.4,421.2,553.4,421.2,553.4,421.2z"/>
			<path class="st20" d="M579.8,421.2C579.9,420.7,579.8,420.9,579.8,421.2L579.8,421.2z"/>
			<path class="st20" d="M623.1,344.6C623.1,344.6,623.1,344.6,623.1,344.6C623.2,344.6,623.2,344.6,623.1,344.6z"/>
			<path class="st20" d="M577.4,448.2c-0.4,0.5-0.9,0.9-1.4,1.5C576.7,449.7,576.8,449.4,577.4,448.2z"/>
			<g>
				<path class="st20" d="M631.4,372.9c9,14,21.1-3.6,17-9c0.3,0.2,0.4,0.3,0.6,0.5C636.1,347,629.2,374.2,631.4,372.9z
					 M643.8,364.7c-0.3,3.1-4.4,8.9-7.2,8C637.8,369,640.4,364.7,643.8,364.7z"/>
				<path class="st20" d="M757.5,406.1c-3.3-26.4-21.2-52.6-39.3-55.3c-12,1.5-18.6,10.6-28.8,15.1c-5,3.1-9.5,5.3-13.8,6.9
					c-6.2-6-12.8-11.6-17.5-16.5c-12.9-16.5-18.8-23.2-33.4-12.9c-0.6,0.4-1.1,0.7-1.7,1.1c0.1,0,0.1,0,0,0c0,0-0.1,0.1-0.1,0.1
					c0.2,0.4,0,0.2,0,0C589.5,367,507,440.5,529.7,454.5c21.1,11.5,24.4,32.8,34.1,42.4c21.9,28.3,41.9,17.4,57.2-2.5
					c2.1,3.1,4.5,6.1,7.2,8.7c32.6,26.5,56.9-35.1,83.4-41.6c38.5-3.7,40.2-6,40.3-14.2C755.8,413.5,761.2,416.3,757.5,406.1z
					 M740.5,384.7c-16.1,8.7-35.1,6.6-50,12.9C697.9,394.3,752.1,361.2,740.5,384.7z M535.8,454.3c-7-2.3,1.5-13.6,3.6-14.6
					c0.4,4.4,11.1-16.1,14-18.5c0-0.1,0-0.2,0-0.3c0.2,0.1,0.2,0.1,0,0c0,0.1,0,0.2,0,0.3c0.6-0.5,0.9-0.2,0.7,1.2
					c7.4-6.4,12.7-10.4,13.2-18c24-20.9,26.2-20.6,34.5-29.2c-2.6,1.8-3,1.8-2.3,1.2c48-47.8,45-21,64.8-5.6c1.7,0.4-1.5,3.5-5.4,7
					c-6.2,1.6-12.1,3.3-18.4,7.1c-7.1,3.9-14.7,9.7-21.9,16.4c2.5-3.7,4.1-7.3,3.5-10c-10.1-17.8-30.7,21.9-57.9,32.9
					C555.2,428.8,546.4,448.9,535.8,454.3z M591.4,450.1c0,0.1,0,0.3,0.1,0.4c-0.3,0.5-0.5,0.9-0.8,1.4c0.3-0.4,0.5-0.8,0.8-1.2
					c0.2,1,0.4,1.9,0.7,2.8c-2.2,3.3-4.3,6.7-6.7,10.6c-10.7,16.4-7.6,2.6-6.6,2.3C588,456.1,590.7,450.8,591.4,450.1z M579.8,421.2
					C579.8,420.9,579.9,420.7,579.8,421.2C580.6,421.1,579.7,421.3,579.8,421.2z M577.6,422.8c-0.1,0.1-0.2,0.2-0.4,0.3
					C577.4,422.5,577.4,422.7,577.6,422.8z M557.6,437.2c8.8-9.7,21.3-14.6,26.5-18c5.3-3.4,23.5-27.3,32.4-28.6
					c10,7.8-18.9,14.5-60.8,79.1C541.4,453.1,534.3,462.8,557.6,437.2z M578.2,488.6c-23.1-15-20-13.5-4.5-36.5
					c8.7-10.8,19.4-20.6,26.7-32.8c1.5-1,3.3-2.5,5.4-4.2c-6.8,8.6-12,17.7-13.9,25.9c-14.9,20.5-24.2,39.4-10,31.1
					c1.1-0.3,8.5-9.5,9-10.1c0.6-2.3,1.7-4.7,3.2-7.2c2.7,2,5.1,4.4,7.2,7c-7.9,9.5-15.6,19.8-19.4,24.5
					C579.4,489.2,579.2,489.3,578.2,488.6z M604.6,466.3c0.7,1.1,1.4,2.2,2.1,3.3c-4.8,6.8-9.6,13.4-13.5,20.5
					C578.8,500,592.4,481,604.6,466.3z M604.2,486.5c-2.1,0.2,0.8-5.3,5.1-12.3c0.8,1.4,1.5,2.7,2.3,4.1
					C609.3,481.8,606.9,484.7,604.2,486.5z M608.1,462.4c19.3-3.9,24.2-34.5,68.3-34.1c20.3-0.7,33.3-11.2,26.3-0.4
					c-4.7,6.3-12.2,7.9-16.2,9.3C631.3,444.2,633.3,493.1,608.1,462.4z M743.9,438.9c-2.9,4.8-2.9,5.9-6.5,6.5
					c-80.7-0.4-76.8,57.3-108.3,38.3c-5-3.9,13.4-5.8,17.2-11.5c43.5-40.6,56.8-18.4,63.7-47.4c-3.3-15-26.1-0.9-35.8-2.5
					c-52.5-0.4-61.7,38.6-73.2,34c-19-7.1,27.1-51,33.6-53.9c-0.3,0.6-0.6,1.2-0.8,1.7c18.8-15.6,34.5-13.4,63.4-27.8
					c21.1-12,27.7-22.9,37.5-8.8c0.2,0.5,0,1-0.7,1.7c-11.4,9.5-51.5,21.3-61.9,35.5c-6.7,8.8,26.2-10.7,54-9.6
					c4.9,0.1,9-3,15.7-5.8c3.8-2.8,4.6,4.8,4.6,7.3c0.9,10.7-41.4,9.4-26.5,23c1.8,3,9.8-1.6,13.6,0
					C724.1,443.4,749.9,425.7,743.9,438.9z M736.4,428.9c6.1-12,10.7-14.4-6.8-13.8c-17.6,1.9,19.4-10,18.8-10.8
					C748.5,438.5,745,428.2,736.4,428.9z"/>
			</g>
			<path class="st20" d="M623.1,344.6c0,0-0.1,0-0.2-0.1C623,344.6,623,344.6,623.1,344.6C623.1,344.6,623.1,344.6,623.1,344.6z"/>
			<path class="st20" d="M622.9,344.5c0,0,0,0.1,0,0.2c0,0,0,0,0,0C622.9,344.6,622.9,344.6,622.9,344.5z"/>
			<path class="st106" d="M678.1,399c0,0.1,0,0.1,0,0.2c0.1,0,0.2,0,0.3,0C678.4,399.1,678.4,399.1,678.1,399z"/>
			<path class="st106" d="M627.6,408.8c-0.2,0.1-0.3,0.2-0.3,0.2c0,0,0,0,0,0c0,0,0,0,0,0C627.3,408.9,627.2,408.7,627.6,408.8z"/>
			<path class="st106" d="M627.3,409C627.3,409,627.3,409,627.3,409C627.3,409,627.3,409,627.3,409z"/>
			<path class="st106" d="M627.6,408.8c-0.5-0.1-0.3,0.2-0.3,0.2C627.4,409,627.5,408.9,627.6,408.8z"/>
			<path class="st106" d="M678.4,399.2c-0.1,0-0.2,0-0.3,0C678.1,399.2,678.2,399.2,678.4,399.2
				C678.4,399.2,678.4,399.2,678.4,399.2z"/>
		</g>
	</g>
	<g id="BokChoy">
		<path id="bokchoy-fill" class="st43" d="M732.7,438.1c-8.4,5.3-16.7,11.6-21.3,20.4c-4.7,8.8-4.8,20.7,2.1,27.8
			c4,4.2,9.8,6.2,15.5,7.3c6.2,1.1,12.7,1.2,18.5-1.2c4.2-1.7,7.8-4.6,11.2-7.7c14.3-13,25-29.7,31-48c1.7-5,8.3-20.8,0.7-23.5
			c-6-2.2-21.7,6.5-27.3,9C752.4,426.6,742.3,432,732.7,438.1z"/>
		<path id="bokchoy-leaves" class="st25" d="M803,337.8c2.2-1.5,4.3-2.6,6-4.2c0.9-0.8,1.2-2.4,1.6-3.7c1.4-5.2,4.1-9.5,8.4-12.8
			c3.8-2.9,7.7-3.4,12-0.9c3.7,2.1,3.7,2,6.9-0.8c1.8-1.6,3.6-3.2,5.6-4.6c4-2.7,8.3-3.7,13-2.2c1.2,0.4,2.4,0.8,3.6,1.2
			c8.4,3.4,10.7,7.8,9.5,17.5c-0.7,5.4-2.8,10.5-5.8,15.2c-2.8,4.4-2.8,5.6,0.5,9.9c3.6,4.5,3.2,9.4,1.8,14.4
			c-0.2,0.9-1,1.7-1.7,2.4c-5.7,5.4-11.4,10.8-17.2,16c-3.2,2.9-6.5,5.6-9.8,8.4c-3.2,2.7-5.8,5.9-8.5,9c0.2,0.3,0.3,0.5,0.5,0.8
			c0.9-0.5,1.8-0.9,2.7-1.4c3.6-2.1,7.1-4.5,10.9-6.1c3.2-1.4,6.8-2,10.2-2.6c4.1-0.7,8.1,0,11.3,3.1c1.7,1.6,3.7,1.8,6,1.5
			c3.5-0.4,7.1-0.8,10.6-0.4c4.6,0.4,8.5,2.4,10.3,7.2c0.8,2.2,0.8,4.3,0.1,6.6c-1.5,5.2-4.3,8.7-9.9,9.7c-1.2,0.2-2.4,0.9-3.5,1.5
			c-2.9,1.8-5.5,3.7-6.3,7.6c-1,5.3-4.8,8.4-9.9,9.3c-5.5,1-11.1,2.5-16.9,1c-4-1-8.1-0.2-11.9,1.2c-6.8,2.6-11.2,1.1-17.8,0.5
			c-7.5-0.7-16.1,1.3-23.5,2c-0.4,0-0.8,0.1-1.2-0.2c-0.4-0.3-0.5-0.8-0.6-1.2c-0.9-4.9-1.8-9.9-2.6-14.8c-0.4-2.5-1-5.2-3.1-6.8
			c0.1-1.7,0.3-3.5,0.4-5.2c-6.6,1.7-13.2,3.3-19.9,5c-1.4,0.3-3.3,0.4-3.8-0.9c-0.2-0.6-0.1-1.2,0.1-1.8c2.1-8,8.8-22.6,3.2-30.3
			c-3.3-4.6-5-9.9-5.7-15.5c-0.6-4.1,0.3-7.8,2.9-11c0.7-0.9,1.4-1.8,2.1-2.7c1.8-2.7,2.7-5.6,1.9-9c-1.5-6.1,0-11.5,4.6-16
			c1.6-1.6,3.4-2.6,5.6-2.9c5.1-0.5,10.1-0.5,14.6,2.5c1,0.6,2.4,1,3.6,0.8c3.2-0.4,5.7,0.6,7.8,3
			C802.1,337.4,802.5,337.5,803,337.8z"/>
		<path id="bokchoy-lines" class="st20" d="M803,337.8c2.2-1.5,4.3-2.6,6-4.2c0.9-0.8,1.2-2.4,1.6-3.7c1.4-5.2,4.1-9.5,8.4-12.8
			c3.8-2.9,7.7-3.4,12-0.9c3.7,2.1,3.7,2,6.9-0.8c1.8-1.6,3.6-3.2,5.6-4.6c4-2.7,8.3-3.7,13-2.2c1.2,0.4,2.4,0.8,3.6,1.2
			c8.4,3.4,10.7,7.8,9.5,17.5c-0.7,5.4-2.8,10.5-5.8,15.2c-2.8,4.4-2.8,5.6,0.5,9.9c3.6,4.5,3.2,9.4,1.8,14.4
			c-0.2,0.9-1,1.7-1.7,2.4c-5.7,5.4-11.4,10.8-17.2,16c-3.2,2.9-6.5,5.6-9.8,8.4c-3.2,2.7-5.8,5.9-8.5,9c0.2,0.3,0.3,0.5,0.5,0.8
			c0.9-0.5,1.8-0.9,2.7-1.4c3.6-2.1,7.1-4.5,10.9-6.1c3.2-1.4,6.8-2,10.2-2.6c4.1-0.7,8.1,0,11.3,3.1c1.7,1.6,3.7,1.8,6,1.5
			c3.5-0.4,7.1-0.8,10.6-0.4c4.6,0.4,8.5,2.4,10.3,7.2c0.8,2.2,0.8,4.3,0.1,6.6c-1.5,5.2-4.3,8.7-9.9,9.7c-1.2,0.2-2.4,0.9-3.5,1.5
			c-2.9,1.8-5.5,3.7-6.3,7.6c-1,5.3-4.8,8.4-9.9,9.3c-5.5,1-11.1,2.5-16.9,1c-4-1-8.1-0.2-11.9,1.2c-4.3,1.6-8.7,2.5-13.4,1.9
			c-4.1-0.5-8.4,2.1-11.9,3.9c-3.9,2-7.5,4.5-10.8,7.4c-6.4,5.6-11.8,12.2-17.6,18.5c-4.3,4.6-8.4,9.4-13,13.7
			c-5.9,5.5-12.7,8.8-20.2,10.6c-5.6,1.3-11.5,1.6-17.3,2c-3.9,0.3-7.8,1-11.6-0.9c-0.6-0.3-1.5,0.1-2.2,0.1c-2.3,0.1-4.2-1-5.5-2.8
			c-2.2-3.1-4-6.4-6.1-9.5c-5.2-8-5-16.4-1.3-24.7c5.5-12.4,14.7-21.3,26.8-27.4c7.8-3.9,15.6-7.9,23.1-12.4
			c4.5-2.7,7.4-7.3,9.3-12.2c1.5-3.8,2.9-7.6,4.3-11.4c1.4-3.7,1.2-7-1.3-10.4c-3.3-4.6-5-9.9-5.7-15.5c-0.6-4.1,0.3-7.8,2.9-11
			c0.7-0.9,1.4-1.8,2.1-2.7c1.8-2.7,2.7-5.6,1.9-9c-1.5-6.1,0-11.5,4.6-16c1.6-1.6,3.4-2.6,5.6-2.9c5.1-0.5,10.1-0.5,14.6,2.5
			c1,0.6,2.4,1,3.6,0.8c3.2-0.4,5.7,0.6,7.8,3C802.1,337.4,802.5,337.5,803,337.8z M777.2,426c2.4-1.5,4.8-2.8,7.1-4.4
			c2.6-1.8,4.9-4.1,7.6-5.7c2-1.2,3.8-2.6,5.5-4.1c1.6-1.4,2.9-3.2,4.6-4.5c3.4-2.7,6.1-6.4,8.6-10c3.5-5.1,6.4-10.5,8.6-16.2
			c1.6-4.1,2.8-7.8,2.9-12.2c0.1-4.5-1.2-9.2-1.9-13.6c-0.2-1.2-0.4-2.3-0.4-3.5c1.3,0.8,1.9,2.3,2.4,3.7c0.9,2.2,2,4.4,3.3,6.5
			c-0.3-0.4,1.1-3.3,1.3-3.9c0.5-1.5,1-3,1.6-4.5c1.1-3,2.4-5.9,3.9-8.7c2.9-5.4,6.8-9.7,11.4-13.7c0.5-0.4,1.3-0.6,2.7-1.2
			c-1,1.8-1.5,3-2.3,3.9c-1.1,1.3-1.8,2.9-2.8,4.3c-1.4,1.8-2.7,3.6-3.7,5.7c-1.2,2.7-3,5-3.8,7.8c-1.1,3.6-2.2,7.2-3.2,10.8
			c-0.1,0.2-0.1,0.5,0,0.7c0.1,0.1,0.2,0.2,0.4,0.2c1,0.3,2-0.3,2.9-0.7c2.2-1.1,4.4-1.9,6.8-2.4c1.2-0.2,2.3-0.5,3.5-0.5
			c0.7,0,2.3,0.8,2.8,0.7c-4.4,0.9-8.6,2.7-12.2,5.3c-2,1.4-3.9,3-5.2,5c-2.2,3.3-3.5,7.6-5,11.3c-2.3,5.4-4.1,11.5-7.4,16.4
			c-3,4.4-5.9,8.9-9.3,12.9c-3.9,4.6-8.4,8.7-12.5,13.2c-1.6,1.8-2.7,4-3.3,6.3c-0.3,1.2-0.5,2.4-0.7,3.6c-0.1,0.5-0.7,2.7-0.2,3.1
			c0.2,0.1,0.5,0.1,0.6-0.1c1.5-1.2,2.6-3.4,3.7-5c3.7-5.1,7.6-10.1,11-15.5c2.6-4.1,5.1-8.1,8.5-11.6c3.8-3.8,7.5-7.6,11.2-11.3
			c6.4-6.5,12.6-13.1,19.3-19.3c3.4-3.2,6-6.8,8.6-10.5c1.3-1.9,1.6-3.9,1.5-6.1c-0.1-2.6-1.3-4.6-2.7-6.5
			c-3.6-4.8-3.1-9.7-0.6-14.7c0.9-1.7,2-3.2,2.8-4.9c1.7-3.6,3-7.3,2.7-11.3c-0.4-4.8-3.7-6.4-7.6-3.7c-3.5,2.5-6.8,5.2-10.3,7.7
			c-3.4,2.5-7.1,2.5-10.6,0.3c-5.1-3.3-6.3-2.9-8.6,2.6c-0.2,0.6-0.6,1.2-0.6,1.8c-0.6,5.3-3.9,8.3-8.6,10.1
			c-1.4,0.5-2.2,1.4-2.9,2.8c-0.9,2.2-1.5,4.2-0.8,6.6c0.4,1.6,0.7,3.2,0.9,4.8c0.8,6.1,1.9,12.3,2.3,18.4c0.2,3.7,0.2,7.2,0.9,10.9
			c0.4,2.1-0.1,4.6-0.8,6.6c-0.8,2.2-2.2,4.3-3.7,6.2c-3.3,4.1-6.9,8-10.3,12.1c-4.4,5.4-9.8,9.5-15.6,13.1
			c-2.5,1.5-4.9,1.9-7.4,3.3c-1.6,0.3-3.5,1.3-5,1.7c-3.8,1.2-7.6,2.6-11.4,4c-1.9,0.7-3.8,1.3-5.7,2.1c-4.8,2.3-9.5,4.7-14.4,6.9
			c-8.8,4-15.5,10.4-21,18.1c-6.4,9-6,18.2-0.1,27.3c1.3,2.1,2.5,2.3,4.2,0.5c0.8-0.9,1.5-1.9,2.4-3.2c-3.8-1.6-4.8-4.5-5.3-7.9
			c-0.6-3.8,0.2-7.3,1.8-10.6c2.7-5.7,7.4-9.7,12.2-13.3c5.4-3.9,11.3-7.2,17.2-10.4c7.1-3.9,14.4-7.4,21.7-10.9
			C772.4,427.8,775.8,426.8,777.2,426z M769.7,411.9c-0.5,1-0.9,1.9-0.8,1.9c3.2,0.3,6.2-1.5,8.5-3.8c3-3.1,4.9-7.2,5.4-11.4
			c0.3-2.9-0.1-5.8-0.5-8.7c-0.5-4.1-1.1-8.2-2.3-12.1c-0.2-0.6-2.2-4.7-2-5c0.9-1,3,2.3,3.3,2.7c1.1,1.6,2.3,3.1,3.2,4.7
			c0.9,1.6,1.5,3.3,2.4,5.5c3.1-4.7,2.5-11.5,2-16.9c-0.3-3-0.6-6-1.1-9c-0.3-2-1.8-6.2-0.8-8c0.3-0.6,2.2,2.3,2.3,2.6
			c0.7,1.4,1.4,2.8,2,4.3c1.2,3,2.2,6.1,2.8,9.3c1.3,6.3,1.4,12.8,0.2,19.1c0,0.1,2.2-0.6,2.4-0.7c0.8-0.4,1.4-0.9,2-1.6
			c1.4-1.6,2.6-3.5,3.9-5.2c0.7-0.9-0.1-2.9-0.2-4.3c0-0.4-0.1-0.8,0-1.1c1.1-9.7-2.1-18.8-4.4-27.9c-0.5-2.1-1.7-4.6-4.3-4.9
			c-3.2-0.3-5.7-1.7-8.3-3.4c-1.6-1.1-3.2-2-4.9-2.9c-2.8-1.5-4.8-0.7-6,2.2c-0.2,0.6-0.4,1.2-0.7,1.7c-3.2,4.1-2.8,8.7-1.7,13.4
			c1.1,4.7,0.1,9-3.2,12.7c-1.1,1.2-2,2.6-2.7,4.1c-2,4.6-0.2,8.7,1.9,12.6c1.3,2.6,3.3,4.8,4.7,7.4c2.6,4.8,3.4,9.6,0.6,14.8
			c-1,1.8-1.8,3.7-2.6,5.7C770.8,409.6,770.2,410.8,769.7,411.9z M844.2,422.1c1.1,1,2.9,1.6,4.2,2.3c1.2,0.6,2.7,0.9,4.1,1.3
			c1.6,0.5,3.1,0.9,4.7,1.4c0.1,0,0.1,0,0.2,0.1c0.2,0.1,0.1,0.4,0,0.5c-0.1,0.1-0.4,0.2-0.5,0.2c-4.1,0.5-7.8-0.6-11.8-1.6
			c-4.3-1.1-9.3-2.3-13.5-0.4c-5.4,2.4-10.7,5.2-16,7.8c-1,0.5-2.3,1.3-2.9,2.2c-0.1,0.1,1.5-0.1,1.6-0.1c0.6,0,1,0.2,1.6,0.3
			c1.4,0.2,2.9,0.2,4.4,0.3c2.9,0.1,5.9,0.1,8.7-0.9c4.5-1.5,9.1-2.8,13.8-1.8c3.7,0.8,7.3,0,10.9,0.1c4,0.1,6.5-2.8,10-3.5
			c1-0.2,1.4-1.5,0.9-2.9c-1.3-4-0.5-5.7,3-7.8c2.3-1.4,4.7-2.5,6.8-4.1c2.5-2,4-4.7,4-7.9c0-1.5-0.2-2.4-1.9-2.3
			c-1.2,0.1-2.3,0.5-3.4,0.7c-4.7,1-9.1,0.5-13.2-1.9c-1.1-0.6-2.3-1-3.4-1.6c-2.2-1.3-4.4-1.4-6.5-0.1c-5.1,3.2-10.2,6.5-15.3,9.9
			c-3,2-5.8,4.6-8.9,6.4c-3.8,2.3-7.9,4-11.8,6.1c-1.4,0.8-2.8,1.7-3.9,2.9c-0.5,0.5-2.8,3.2-2.2,4c0.1,0.1,0.3,0.1,0.4,0
			c1.1-0.6,2.3-1.2,3.4-1.8c6.5-3.7,12.7-7.9,19.9-10.2c2.4-0.8,5.1-2.3,7.1-3.8c4-3,6.6-7.6,11.1-9.8c0.1-0.1,0.3-0.1,0.4-0.1
			c0.3,0.1,0.1,0.6-0.1,0.8c-1,1.2-1.8,2.5-2.5,3.9c-0.3,0.7-0.5,1.5-0.8,2.2c-0.2,0.4-0.7,0.8-0.2,1.2c0.3,0.3,0.8,0.2,1.2,0.2
			c0.6-0.1,1.2-0.2,1.8-0.2c2.5-0.4,5-1.1,7.5-1.8c2.4-0.7,5-1.2,7.5-1.8c0.2,0,0.3-0.1,0.5,0c0.2,0,0.3,0.1,0.3,0.3
			c0.1,0.2-0.2,0.4-0.4,0.6c-1.3,0.9-2.6,1.6-4.1,2.3c-5.4,2.3-10.8,4.7-16.3,7c-0.2,0.1-0.5,0.2-0.7,0.4
			C843.6,421.2,843.8,421.7,844.2,422.1C844.2,422.1,844.2,422.1,844.2,422.1z M738.8,481.6c1.1,0.3,2.3,0.7,3.4,0.7
			c6.7-0.4,13.1-1.9,18.5-6.1c5.4-4.2,10.4-8.8,14.1-14.7c1.8-2.9,3.3-6,5.2-8.8c2.6-3.7,3.7-8,5.1-12.2c0.5-1.4,0.2-3.1,0.4-5.4
			c-2.6,1.7-4.2,3-5.3,5.1c-1.6,3.3-3.5,6.4-5.2,9.7c-1.7,3.3-3.4,6.5-4.6,9.9c-2.4,6.9-6.7,11.6-13.4,14.5c-4.7,2-10,3.7-15.2,3.3
			c-0.3,0-0.5,0-0.8,0c-0.3,0.1-0.6,0.3-0.8,0.5c-0.9,0.8-1.9,1.5-2.5,2.5c0,0.1-0.1,0.1-0.1,0.2c0,0.2,0.2,0.3,0.4,0.4
			C738.2,481.4,738.5,481.5,738.8,481.6z M772,436.9c0.5-0.5,1-1.1,1.4-1.6c-1.2-0.1-2.2,1-3.2,1.5c-1.3,0.6-2.7,1.3-4,1.9
			c-2.6,1.3-5.3,2.5-7.9,3.7c-7,3.2-13.7,6.9-20,11.5c-3.5,2.5-6.7,5.4-8.8,9.3c-0.9,1.8-1.3,3.9-1.1,5.9c0.2,1.8,0.6,3.9,1.6,5.4
			c0.1,0.2,0.3,0.4,0.5,0.5c0.8,0.5,1.6-0.7,2-1.3c0.3-0.4,0.9-1,1-1.5c0-0.2,0-0.4,0-0.6c-0.1-0.4,0-0.9,0.1-1.3
			c0.3-1.8,0.6-3.8,1.5-5.3c3-5.1,6.7-9.5,12.1-12.2c5-2.5,10-4.8,15-7.3c1.1-0.5,2.3-1,3.2-1.9C767.7,441.5,769.9,439.2,772,436.9z
			 M752.4,486.9c0.2-0.2,0.8-1.1,1-1.1c-1.6,0.3-3.1,0.7-4.7,0.8c-5.3,0.2-10.8,0.8-16.1-0.2c-0.2,0-0.3-0.1-0.5,0
			c-0.2,0-0.4,0.2-0.5,0.3c-0.6,0.5-1.3,1-1.9,1.5c-0.7,0.6-1.5,1.3-1.8,2.2c0,0.1,0,0.2,0,0.3c0,0.1,0.1,0.1,0.2,0.1
			c2.2,1.1,4.9,0.9,7.3,0.9c2.5,0,5.1-0.1,7.5-0.6c2-0.4,3.9-1,5.7-1.8c0.9-0.4,1.9-0.9,2.7-1.5C751.7,487.5,752,487.3,752.4,486.9
			C752.3,486.9,752.3,486.9,752.4,486.9z M749.7,471c-0.4,0.2-0.7,0.5-1,0.8c0.4,0.3,0.8,0.2,1.3,0.1c3.3-0.8,6.8-1.7,9.2-4.3
			c2.6-2.7,4.6-6,6.6-9.1c0.6-0.9,0.9-1.8,1.3-2.8c0.3-0.8,0.8-1.6,0.6-2.5c0-0.1,0-0.2-0.1-0.2c-0.1-0.1-0.2,0-0.3,0.1
			c-0.9,0.9-2.1,1.5-3,2.4c-2.7,2.8-5.3,5.7-7.9,8.5c-1.3,1.4-2.6,2.9-3.9,4.3c-0.6,0.7-1.3,1.4-1.9,2.1
			C750.2,470.7,749.9,470.9,749.7,471z M803.8,384.3c-5.5,6-12,11.4-13.2,20.2C796.3,398.7,801.3,392.4,803.8,384.3z M740.6,466.4
			c5.2-2.2,12.2-9.2,12.4-12.2C747.7,456.8,743.2,460.1,740.6,466.4z"/>
	</g>
	<g id="Shiitake">
		<path id="shiitake-fill" class="st21" d="M912,494.2c-1.9-3.1-5-5.8-7.1-8.4c-2.4-3.1-5.1-5.8-8.3-8.3c-1.5-1.2-3.1-2.3-4.3-3.9
			c-1.6-2.2-2-5-1.7-7.7c0.7-6.2,4.7-11.1,5.8-17.1c0.3-1.6,0.4-3.2,0.1-4.8c-0.8-4.2-4.2-7.6-8.1-9.4c-3.9-1.8-8.3-2.2-12.6-2.4
			c-3.9-0.2-7.9-0.2-11.5,1.3c-6.2,2.5-10.6,9.2-17.2,9.7c-3.5,0.3-4.6-5.6-7.3-6.9c-0.2-0.1-8.5-4.3-8.5-4.3l-7.5-2.8l-7.9-1
			c0,0-1.3-0.7-4.1,0.5c-2.8,1.1-6.1,2.9-6.1,2.9l-3.1,2.6c0,0-2.6,4.4-2.6,4.4c-0.5,2.3-1,4.5-1.6,6.8c-0.3,1.5-0.8,3.3-0.5,4.8
			c0.4,1.7,1.4,2.9,1.4,4.7c0,0.7-0.1,1.4-0.4,2c-0.4,0.8-1.3,1.3-2.1,1.7c-1.9,1-4,1.5-5.6,2.9c-1.8,1.6-3.5,3.2-5.3,4.8
			c-4.5,3.9-9.4,8.5-9.9,14.8c-0.6,7.2,1.9,14.6,6.5,20.3c3.6,4.4,7.9,7,12.9,9.2c11,5,22.3,9.1,34.5,9c2.9,0,5.8-0.1,8.7-0.7
			c3.2-0.6,5.4-2.2,8.3-3.3c5.5-2.2,10.2-5,13.5-10.3c2.9-4.6,3-10.3,6.8-14.5c0.9-1,2.1-1.7,3.3-2.4c1.8-1,2.9-1.9,5-1.9
			c2.1-0.1,4.2-0.1,6.2,0.2c5.9,1,8,5.9,11.3,10.4c1.4,1.9,3,3.5,4.5,5.2c1.5,1.8,2.7,3.3,5,4.1c4,1.4,8.7,0.2,10.3-3.9
			c0.3-0.8,0.5-1.6,0.6-2.5C913.7,497.9,913.1,496,912,494.2z"/>
		<path id="shiitake-lines" class="st20" d="M916.8,496.8c-10.6-18.8-30.6-23.4-23.5-32.2c21.5-38.4-29.9-45.4-46.4-24
			c-7.4-10.6-37-25.4-51.3-4.3c-2.6,3.8-5.2,9.3-0.8,20.8c0.1,0.2,0.2,0.5,0.2,0.7c-24.8,5.2-29,36.8-16.3,50.6
			c8.6,9.4,23.7,14.4,36.9,17.1c3.5,0.7,14.4,0.7,18.6,0c14.9-2.4,34.1-11.4,34.2-25.7c3.6-2.2,7.3-5.4,11-9.6
			c6.8,3,15.8,20,23.7,20.6C911.3,512.8,918.2,505.4,916.8,496.8z M854.4,445.2c1.1-3.8,9.1-6.4,6.3-6.4c6.1,0,7-6.1,13.6-3.2
			c1.8-0.4,3.5,9.9,5.2,4.5c1.9-0.8-0.2-6.4,1.8-5.2c13.6,2.8,17.5,9.6,11,23.5c-9.7,17.9,6.7-14.6-5.3-14.2
			c-3.1-15.4-0.5,9.8-10.6-1c-1.7,1.5,0.9,10.8-4.7,3c-5.5-2.8,4,4.2-1.4,8.3c-3.1,2.1-3,3.8-5.4,5.7
			C858,451.1,851.7,454.3,854.4,445.2z M851.8,456.6c5.6,2.6,13.6,6.4,6,11.2c-2.3-1.6-9.7-2-3.8,2.6c0.5,0.8,1.2,2.2,0.2,3.9
			c-0.6,0.9-1.2,1.6-1.8,2.2c-5.2-3.3-10.2-5.3-12.5-5.9c-0.6-0.2,6.1-4.8,6.5-5.1C850.6,462.7,852.1,459.5,851.8,456.6z
			 M827.9,477.3c-3.6,2.3-15.8-4.8-9-5.9c5.8-1.7-4.6-9.1,6.9-4.8c-8.2-7.4-1.1-8.4,5.3-4.3c-5.2-5.3-5-4.7-0.4-7.8
			c2.1,2.3,8.4,6.3,12.7,6.7c2.8-0.4-6.7,3.9-10.7,8.9C825.9,477,831.8,474.4,827.9,477.3z M828.1,449.7c-2.5,2.3-4.4,4.2-5.7,5.6
			c-4-1.1-6.5-1.8-9.7-5.6c-9.9-11.7,5.5-15.4,4-11.6C815.4,445.9,822.4,449.3,828.1,449.7z M846.6,459.6c-3-1.3-16.8-5-9.7-10.2
			C840,448.4,852.4,455.6,846.6,459.6z M842.2,446.4c-0.1,0.1-0.1,0.3-0.2,0.4c-2.3-0.7-4.7-1-7.1-0.6c-0.6-1.5-3.1-3.4-8.2-5.6
			c-1.5-0.6-3.5,3.6-1.1,3.8c2.2,0.5,0.4-3,7,2.3c-0.7,0.2-1.3,0.5-1.9,0.9c-5.8-0.2-20.5-10.8-3.8-8.8c0.7,0.1,6.4,3.2,3.8,0
			c0.1,0.1-1.9-1.4-0.2-1.2C839.9,441.1,841.3,444.5,842.2,446.4z M813.1,430.9c4.6-0.5,8.2,0,11.6,0.8c11.8,2.8,17.8,11.3,13.1,7.3
			c-8.8-5.5-16.9-6.4-23.7-4.5c-4.7,1.3-5.8,1.7-6,2.2C807.8,434.2,808.9,431.3,813.1,430.9z M806.3,461.1c2.6,0.3,4.4,1,6.7,2.1
			c1.1,0.5-2.9,0.9-6.1,1.2c-1.8,0.2-5.2-2.3-6.9-2.4C802.3,460.9,803.7,460.7,806.3,461.1z M861.1,499.9c-2,4.6-3.1,6.2-3.1,6.2
			c-0.5-2.2-1.6-4-3.7-5.1c-2.1-1.2-3.8-1.5-3.4-0.8c2.1,3.1,2.6,5.2,2.8,8.7c0,0.2-3.7,1.5-3.9,1.6c-8.8,3.5-4.6,4-7.6-1.9
			c-3.1-5.9-5.7-9.4-5.4-4.1c0.3,0.8,1.7,10.8-1,11.3c-0.2-0.7-3-10.9-4.7-7.1c0.5,1.3,2.1,13.1-8.8,4.9c-0.7,1.5,2.1,5.3-1.5,4.6
			c-10.4,0.5-5-5.7-9.9-6.6c-1,3.7-5.4,2.8-5.7,0.1c-0.6-4.6,1.6-10.8-0.3-9.8c-2.2,1.2-3.3,4.1-4.2,6c-0.4,0.9-1,2.6-1.8,2.1
			c-5.5-3.6-18.6-12.3-20.4-19.8c-3.2-10.8,6.8-6.5,8.2-10.4c-1.5-2-9,0.3-7.3-1.1c0.3-1.8,6.5-5,4.4-4.9c-7.3,2.6,2.9-9.4,13.6-4.2
			c2.2-3.8-6.5-4.5-6.1-5.3c4.4-2.4,14,2,10.6,4.3c-11.4,7.4-6.2,15.3-10.5,15.8c-5.8,0.6-11.9,4.9-0.9,3.8c3.5-0.3,4.4,2.2,8.6,4
			c-0.4-0.2-4.2,9.3-2.6,7.8c3.3-3,3.7-5.9,7.9-4.9c1.5,0.4,7.3,2.3,6.5,11.6c2.8-3.1,5-5.2,5.6-6.4c0.9-1.8-2.5-0.1,13.1-1.6
			c13.6-2.5,1.9-9.7,18.4-1.5c0.2-3.6-9-5.2-5.5-8.3c0.9-2.5-1.4-4.3-2.2-5.9c-4.1-8,4.6-1.3,9.8,1.9
			C856.4,488.5,862.9,495.1,861.1,499.9z M911.2,500.1c-4.3,7.1-12.8,5.9-10,0.2c3.4-3.5,8-7.5,0.5-5.4c-5.1,10.4-4.7-4.8-29.7-17.5
			c16.7-20.2,7.4,2.2,16.5,6.8c6.6,3.9-1.9-4.1-1.8-6.9c-4.6-8.7,15.2,6.1,9.3,4.9c-3,0-4.8-3.1-7-3.5
			C888,482.1,915.6,494.2,911.2,500.1z"/>
	</g>
	<g id="Cloud">
		<g id="raindrops">
			<path class="st21" d="M740.1,270.4c2.8-2.8,5.2-5.9,7-9.5c1.7-3.6,2-6.9,0.3-10.4c-0.7-1.5-1.3-3.2-3.1-4.2
				c-6.2,8.2-13.3,15.2-21.9,21.9c0.8,0.4,1.4,0.6,1.8,0.9c1.8,1.4,3.5,3.1,5.4,4.4c3.2,2.1,5.1,2.6,7.9-0.1
				C738.4,272.4,739.1,271.3,740.1,270.4z"/>
			<path class="st21" d="M724.5,306.7c-5.6,4.8-11,10-17.7,14c0.3,0.3,0.4,0.6,0.7,0.8c2,1.5,3.9,3.1,5.9,4.6c2.4,1.8,6.5,3.2,9.2,0
				c0.5-0.6,1.4-1,2-1.6c2.2-2.3,4.5-4.6,4.5-8.1c0-0.9-0.2-1.8-0.1-2.7C728.9,311,726.9,307.9,724.5,306.7z"/>
			<path class="st21" d="M822.9,260.5c0.1-2.5-1.9-5.7-4.4-6.8c-5.6,4.8-11,10-17.7,14c0.3,0.3,0.4,0.6,0.7,0.8
				c2,1.5,3.9,3.1,5.9,4.6c2.4,1.8,6.5,3.2,9.2,0c0.5-0.6,1.4-1,2-1.6c2.2-2.3,4.5-4.6,4.5-8.1C823,262.4,822.8,261.4,822.9,260.5z"
				/>
			<path class="st21" d="M645.3,265.1c1.4-2.5,3.5-4.7,4-7.7c0.4-2.5,1.3-4.9,1-7.5c-0.2-1.1-0.5-2.2-0.3-3.2c0.3-1.4-0.2-2-1.4-2.7
				c-6.6,5.2-12.5,11.2-19.1,16.9c3,2,5.8,4.1,8.8,5.7C641.1,268.4,643.9,267.8,645.3,265.1z"/>
			<path class="st21" d="M695.2,257.4c-0.3-2.8-1.8-5-3.9-6.8c-5.9,5.1-11.7,10-17.7,15.2c0.4,0.4,0.7,0.7,1,1
				c2.1,1.4,4.3,2.8,6.5,4.1c2.4,1.4,4.1,1.2,6.4-0.7c0.9-0.8,1.6-1.7,2.6-2.4C693.5,265.1,695.8,261.9,695.2,257.4z"/>
			<path class="st21" d="M772.4,306.5c-5.9,5.1-11.7,10-17.7,15.2c0.4,0.4,0.7,0.7,1,1c2.1,1.4,4.3,2.8,6.5,4.1
				c2.4,1.4,4.1,1.2,6.4-0.7c0.9-0.8,1.6-1.7,2.6-2.4c3.4-2.6,5.7-5.7,5.1-10.3C775.9,310.6,774.4,308.4,772.4,306.5z"/>
			<path class="st21" d="M680.8,307.1c-5.5,4.5-9.6,10.4-16.3,13.6c1.1,0.9,1.7,1.5,2.5,2c2.2,1.4,4.1,3.3,6.6,4.3
				c1.4,0.5,2.6,0.5,3.7-0.4c1.9-1.5,3.6-3.2,5.5-4.7c1.2-1,1.4-2.2,1.4-3.5c0.1-3.3-0.8-6.5-2-9.5
				C681.9,308.1,681.3,307.7,680.8,307.1z"/>
			<path class="st21" d="M712,286.3c0-0.9-0.2-1.8-0.1-2.7c0.1-2.5-1.9-5.7-4.4-6.8c-5.6,4.8-11,10-17.7,14c0.3,0.3,0.4,0.6,0.7,0.8
				c2,1.5,3.9,3.1,5.9,4.6c2.4,1.8,6.5,3.2,9.2,0c0.5-0.6,1.4-1,2-1.6C709.7,292.1,712,289.8,712,286.3z"/>
			<path class="st21" d="M793.5,282.7c-5.6,4.8-11,10-17.7,14c0.3,0.3,0.4,0.6,0.7,0.8c2,1.5,3.9,3.1,5.9,4.6c2.4,1.8,6.5,3.2,9.2,0
				c0.5-0.6,1.4-1,2-1.6c2.2-2.3,4.5-4.6,4.5-8.1c0-0.9-0.2-1.8-0.1-2.7C797.9,287,795.9,283.9,793.5,282.7z"/>
			<path class="st21" d="M756.4,288.6c-0.5-1-1.1-2-1.5-3.1c-0.4-1.1-1.2-1.6-2.2-1.9c-5.7,3.9-10.2,9.4-16.9,12.4
				c1.3,1,2.3,1.9,3.3,2.7c1.9,1.5,3.8,3,5.8,4.4c2.1,1.4,4.7,1.1,6.3-0.8c2.5-2.7,4.5-5.8,5-9.6C756.3,291.4,757,290,756.4,288.6z"
				/>
			<path class="st21" d="M770.8,274.1c2.1,1.4,4.7,1.1,6.3-0.8c2.5-2.7,4.5-5.8,5-9.6c0.2-1.3,0.9-2.7,0.3-4.1c-0.5-1-1.1-2-1.5-3.1
				c-0.4-1.1-1.2-1.6-2.2-1.9c-5.7,3.9-10.2,9.4-16.9,12.4c1.3,1,2.3,1.9,3.3,2.7C766.9,271.3,768.8,272.8,770.8,274.1z"/>
			<path class="st21" d="M660.8,275.1c-5.5,4.5-9.6,10.4-16.3,13.6c1.1,0.9,1.7,1.5,2.5,2c2.2,1.4,4.1,3.3,6.6,4.3
				c1.4,0.5,2.6,0.5,3.7-0.4c1.9-1.5,3.6-3.2,5.5-4.7c1.2-1,1.4-2.2,1.4-3.5c0.1-3.3-0.8-6.5-2-9.5
				C661.9,276.1,661.3,275.7,660.8,275.1z"/>
		</g>
		<path id="cloud-fill" class="st108" d="M753.4,143.7c8.3-0.9,15.3,0.9,20.7,7c1.3,1.5,1.4,1.5,3.2,0.8c5.3-2.3,10.8-2.6,16.5-2
			c4.2,0.4,8.1,1.7,11.8,3.2c2.1,0.9,3.9,2.2,5.8,3.5c6.3,4.3,11.4,9.7,14.9,16.5c2.5,4.9,4.3,10.1,4.6,15.6
			c0.1,1.1-0.2,2.2-0.5,3.2c-0.3,1.2-0.1,1.8,1.2,2.3c3,1,5.5,2.9,7.6,4.9c3.8-0.8,7.4-1.6,11-2.2c11.1-1.7,20.3,1.9,27.6,10.2
			c2.5,2.9,3.8,6.5,4.5,10.4c0.7,3.9,0.2,7.6-2.5,10.4c-1.6,1.7-3.2,3.6-5.7,4.5c-1.7,0.6-3.3,1.7-5.1,2c-2.3,0.5-4.4,0-6.5-0.7
			c-0.4-0.1-0.7-0.5-1-0.5c-1.4,0-2.7-0.1-4-0.7c-1.2-0.6-2.6-0.9-3.9-1.3c-0.5,1.4-0.8,2.9-1.4,4.2c-1,2.5-3.3,3.5-5.7,3.8
			c-4.5,0.5-8.7-0.4-11.9-3.9c-1.1-1.2-2.2-2.4-3.3-3.6c-0.2,0.2-0.5,0.2-0.6,0.4c-0.7,2.2-2.8,3-4.3,4.3c-0.6,0.5-1.5,0.8-2.2,1.2
			c-0.2,0.1-0.5,0.1-0.7,0.2c-4.7,3.2-10.3,2.6-15.4,3.5c-2.5,0.4-5.2-0.4-7.8-0.9c-6.4-1.1-11.4-4.7-15.8-9.3
			c-0.4-0.4-0.7-1-1.1-1.5c-0.3-0.5-0.7-1-1.2-1.6c-0.6,0.5-1.1,0.9-1.5,1.3c-1,1.1-1.8,2.3-2.8,3.4c-1.6,1.8-3.7,2.8-6,3.4
			c-6.4,1.7-13,2.8-19.6,2.5c-2.3-0.1-4.6-0.7-6.9-1.1c-1.9-0.3-3.8-0.9-5.7-1.1c-7-0.9-12.8-4.1-18-8.7c-1.6-1.4-3.1-3-4.7-4.6
			c-0.9,3.6-3.7,5.4-6.6,7.2c-2.1,1.2-4.5,1.6-6.9,2c-6.2,1.1-12.4,1.5-18.6,1.2c-5.7-0.3-11.4-0.6-16.8-2.5
			c-4.4-1.5-8.5-3.9-11.7-7.5c-1-1.1-2.1-2-3.2-3.1c-0.3,0.3-0.5,0.5-0.6,0.7c-2.1,4.3-5.8,5.6-10.2,5.7c-2.6,0.1-5.1-0.2-7.7-0.3
			c-4.7-0.2-8.7-1.9-12.2-5.1c-1.9-1.7-3.7-3.5-5.6-5.4c-0.6,0.8-1.2,1.5-1.8,2.3c-1.7,2.4-4,2.8-6.6,2.2c-3.7-0.9-6.8-2.9-9.7-5.3
			c-1.9-1.6-3-3.5-3.9-5.7c-1-2.4-2-4.7-2.2-7.3c-0.3-3.8,0.5-7.2,3.1-10c2.1-2.4,4.2-4.8,7.3-6.1c2-0.8,4-1.1,6.2-0.8
			c1.7,0.2,3.4,0.5,5,0.7c0.2-2.4,0.1-4.8,0.6-7c1.1-6.1,3.8-11.4,9-15.1c1.9-1.3,4-2.5,6.2-3.1c6-1.6,12.2-1.7,18.3-0.1
			c0.1,0,0.3,0,0.5,0c0.1-0.1,0.3-0.3,0.2-0.4c-0.9-6.9,1.6-13,4.4-19.1c1.4-2.9,2.8-5.9,4.7-8.6c2-2.8,4.3-5.5,7-7.7
			c5.9-4.9,12.6-8.3,19.8-10.5c5.1-1.6,10.3-2.3,15.7-2.1c6.6,0.2,13.2,1.1,19.6,2.7c4.5,1.2,8.3,3.4,12.3,5.5
			c5.8,3,10.3,7.6,14.7,12.3c2.4,2.6,4.2,5.8,5.5,9.2C752.9,142.5,753.2,143.2,753.4,143.7z"/>
		<g id="cloud-lines">
			<path class="st20" d="M882.3,217c-0.7-3.9-1.9-7.5-4.5-10.4c-7.3-8.3-16.6-11.9-27.6-10.2c-3.6,0.5-7.2,1.4-11,2.2
				c-2.1-2-4.6-3.8-7.6-4.9c-1.3-0.5-1.5-1.1-1.2-2.3c0.2-1.1,0.5-2.1,0.5-3.2c-0.3-5.5-2.1-10.7-4.6-15.6
				c-3.5-6.8-8.6-12.2-14.9-16.5c-1.9-1.3-3.7-2.6-5.8-3.5c-3.8-1.6-7.7-2.8-11.8-3.2c-5.7-0.6-11.2-0.3-16.5,2
				c-1.7,0.7-1.8,0.7-3.2-0.8c-5.5-6.1-12.4-7.9-20.7-7c-0.2-0.6-0.5-1.3-0.8-2c-1.3-3.4-3-6.6-5.5-9.2c-4.4-4.7-8.8-9.3-14.7-12.3
				c-4-2.1-7.9-4.4-12.3-5.5c-6.5-1.7-13-2.5-19.6-2.7c-5.4-0.2-10.6,0.5-15.7,2.1c-7.3,2.2-13.9,5.7-19.8,10.5
				c-2.7,2.2-5,4.9-7,7.7c-1.8,2.7-3.3,5.6-4.7,8.6c-2.9,6-5.4,12.1-4.4,19.1c0,0.1-0.2,0.2-0.2,0.4c-0.2,0-0.3,0.1-0.5,0
				c-6.1-1.6-12.2-1.5-18.3,0.1c-2.2,0.6-4.4,1.8-6.2,3.1c-5.2,3.7-7.9,9-9,15.1c-0.4,2.3-0.4,4.6-0.6,7c-1.7-0.2-3.3-0.5-5-0.7
				c-2.1-0.3-4.1,0-6.2,0.8c-3.1,1.3-5.1,3.7-7.3,6.1c-2.6,2.8-3.4,6.2-3.1,10c0.2,2.6,1.2,5,2.2,7.3c0.9,2.2,2.1,4.1,3.9,5.7
				c2.9,2.4,6,4.5,9.7,5.3c2.6,0.6,5,0.2,6.6-2.2c0.6-0.8,1.2-1.6,1.8-2.3c2,1.9,3.8,3.7,5.6,5.4c3.4,3.1,7.5,4.9,12.2,5.1
				c2.6,0.1,5.1,0.3,7.7,0.3c4.4-0.1,8.1-1.4,10.2-5.7c0.1-0.2,0.3-0.4,0.6-0.7c1.1,1,2.2,2,3.2,3.1c3.2,3.6,7.3,6,11.7,7.5
				c5.4,1.8,11.2,2.1,16.8,2.5c6.2,0.4,12.4,0,18.6-1.2c2.4-0.4,4.8-0.7,6.9-2c2.9-1.7,5.7-3.6,6.6-7.2c1.6,1.6,3.1,3.2,4.7,4.6
				c5.2,4.6,11.1,7.8,18,8.7c1.9,0.2,3.8,0.8,5.7,1.1c2.3,0.4,4.6,1,6.9,1.1c6.7,0.3,13.2-0.8,19.6-2.5c2.3-0.6,4.4-1.6,6-3.4
				c1-1.1,1.9-2.3,2.8-3.4c0.4-0.4,0.9-0.8,1.5-1.3c0.5,0.6,0.8,1.1,1.2,1.6c0.4,0.5,0.6,1.1,1.1,1.5c4.4,4.6,9.4,8.2,15.8,9.3
				c2.6,0.5,5.4,1.3,7.8,0.9c5.2-0.9,10.8-0.3,15.4-3.5c0.2-0.1,0.5-0.1,0.7-0.2c0.8-0.4,1.6-0.7,2.2-1.2c1.5-1.3,3.6-2.1,4.3-4.3
				c0-0.2,0.3-0.3,0.6-0.4c1.1,1.2,2.2,2.4,3.3,3.6c3.2,3.6,7.4,4.4,11.9,3.9c2.4-0.3,4.7-1.3,5.7-3.8c0.6-1.4,0.9-2.8,1.4-4.2
				c1.3,0.4,2.7,0.7,3.9,1.3c1.3,0.6,2.7,0.7,4,0.7c0.3,0,0.7,0.4,1,0.5c2.1,0.8,4.2,1.2,6.5,0.7c1.9-0.4,3.4-1.4,5.1-2
				c2.5-0.9,4.1-2.8,5.7-4.5C882.6,224.6,883,221,882.3,217z M870,215.1c-1.2,3.9-3.7,7-7.3,9.1c-1.7,0.9-3.4,1.5-5.4,1.4
				c-0.5,0-0.9,0-1.4,0c-1.3,0-2.6,0.3-3.7-0.1c-1-0.4-1.6-1.5-2.6-2.5c-1.1,1-2.3,2-3.3,3.2c-2.3,2.5-5.2,3.2-8.4,3.1
				c-1.4,0-2.5-0.5-3.1-2c-0.9-2.3-2.2-4.6-3.3-6.9c-0.5,0.3-1.1,0.6-1.7,0.9c-0.6-0.3-1.2-0.6-2-1c0.1,1.6-0.6,2.3-1.9,2.8
				c-2.4,1-4.5,2.6-6.9,3.4c-3.3,1.2-6.7,2.3-10.1,2.8c-4.1,0.6-8.4,1-12.6,0.1c-0.5-0.1-0.9-0.2-1.4-0.3c-3.5-0.4-6.1-2.2-7.8-5.3
				c-0.2-0.3-0.4-0.7-0.7-0.9c-2.8-2.3-3.9-5.2-3.1-8.8c0-0.1-0.1-0.3-0.1-0.4c0-0.1-0.1-0.1-0.3-0.2c-0.7,0.4-1.5,0.9-2.4,1.2
				c-0.7,0.2-1.6,0.2-2.6,0.3c-0.2,1.6-1.7,2.2-3.1,3.1c-3.2,1.9-6.2,3.9-9.8,5c-2.5,0.7-5.1,1.5-7.7,1.9c-3.8,0.6-7.6,1-11.4,1.1
				c-5.1,0.1-10.1-0.6-14.9-2.3c-0.3-0.1-0.8,0-1.1-0.1c-2.2-0.3-4.2-1-5.9-2.5c-1.7-1.5-3.8-2.7-5.6-4.1c-0.7-0.5-1.2-1.2-1.7-1.9
				c-0.4-0.5-0.6-1-0.9-1.4c-1.3,0.2-2.4,0.5-3.5,0.7c-0.5,0.4-1,1.1-1.7,1.4c-4.1,1.3-8.1,2.7-12.3,3.7c-3.6,0.8-7.2,1.2-10.9,1.4
				c-4.6,0.2-9.2,0.2-13.8,0c-3.3-0.1-6.7-0.5-10-1c-1.4-0.2-2.7-1.1-3.9-1.9c-2.3-1.5-4.3-3.3-6.6-4.8c-1.4-0.9-2.2-2.2-3-3.5
				c-0.7-1.1-1.3-1.3-2.5-0.6c-2.9,1.6-5.7,3.2-8.7,4.6c-1.9,0.9-3.9,1.8-5.9,2.1c-2.6,0.4-5.3,0.2-8,0.2c-1.2,0-2.2-0.5-3.1-1.5
				c-0.8-1-1.8-1.9-2.7-2.9c-0.4-0.5-0.7-1-0.9-1.6c-0.4-0.7-0.7-1.4-1-2c-3.1,0.7-6.1,1.4-9,2c-0.3,0.1-0.6,0.2-0.9,0.2
				c-2.4,0.3-2.7,0-2.7-2.4c0-1-0.3-1.9-0.4-2.9c0-0.3-0.1-0.7,0-0.9c0.7-1.8,1.4-3.6,2.2-5.4c1.3-2.7,4-4.4,6.3-6.1
				c2-1.5,4.6-1.8,7.1-0.4c0.6,0.4,1.4,0.5,2.1,0.8c0.6,0.3,1.4,0.5,1.6-0.2c0.3-0.6,0.2-1.5,0.1-2.2c-0.2-0.6-0.7-1.2-1.1-1.7
				c-0.8-1.1-0.8-2.2-0.1-3.3c2.3-3.2,3.9-6.8,5.9-10.2c0.6-1.1,1.4-1.8,2.5-2.3c2.3-1.2,4.5-2.4,6.8-3.6c2.5-1.3,5.3-0.8,8-1.1
				c0.5-0.1,1.1,0.1,1.6-0.1c1.2-0.4,1.9,0.2,2.6,1.1c1.3,1.8,3,2.7,5.2,2.4c1.2-0.2,2.7,0.7,3.5-0.8c0.3-0.5,0.6-1.2,0.4-1.7
				c-0.3-1-0.9-2-1.5-2.8c-1.4-1.7-1.6-3.1-0.6-5c0.4-0.8,0.5-1.7,0.8-2.6c0.1-0.5,0.1-1.1,0.4-1.6c2.2-4,3.9-8.3,6.7-12
				c0.7-0.9,1.5-1.8,2.2-2.7c1.5-1.7,3.2-3.1,4.7-4.8c2.1-2.6,4.7-4.7,7.7-6.4c1.3-0.7,2.4-1.8,3.8-2.3c3.2-1.2,6.4-2.3,9.7-3.3
				c1.6-0.5,3.3-0.9,4.9-1.3c8.8-2.1,17.6-1.4,26.1,1.2c6.7,2,12.7,5.6,17.4,11c1.8,2.1,2.2,4.8,2.6,7.4c0.3,2.2,0.5,4.5,0.6,6.8
				c0.1,1.6,0.9,2.7,2.2,3.3c2.6,1.3,5.3,1.6,8.2,1.3c0.3,0,0.6-0.1,0.9-0.3c3-1.8,6.5-2.5,10-2c0.7,1.1,0.3,2.2,0.1,3.3
				c-0.2,0.8-0.5,1.6-0.7,2.5c-0.2,0.9-0.4,1.7,0.9,2.2c-0.3,0.4-0.6,0.7-0.8,1.1c-0.9,1.5-0.7,2.2,1.1,2.7c3,0.9,5.9,1.8,8.9,2.6
				c1.1,0.3,2.1-0.3,2.7-1.1c1-1.5,2.6-1.9,4-2.6c1.4-0.7,2.8-1.3,4.3-1.7c2.5-0.7,5.1-1.8,7.7-1.9c3.1-0.1,6.2,0.6,9.2,1.1
				c5.1,0.8,8.8,4.1,12.1,7.8c2.1,2.4,2.9,5.5,3.4,8.6c0.6,4.7-0.2,9.3-2.5,13.6c-0.5,0.8-1.2,1.5-1.9,2.3c-0.5,0.5-1,1-1.6,1.4
				c-0.8,0.6-1.2,1.3-0.9,2.4c0.2,0.6,0,1.4-0.1,1.9c2.3,0.4,4.5,0.7,6.7,1.3c2.4,0.6,4.7,0.5,7.1-0.1c0.6-0.2,1.2-0.3,1.8-0.3
				c2.6-0.1,2.5-0.1,3.3,2.5c0.8,2.7,2.3,4.7,5.2,5.5c1.6,0.4,3.1,1.2,4.6,1.6c1.5,0.4,3.1,0.5,4.3-0.9c0.4-0.4,1.2-0.6,1.9-0.7
				c1.9-0.3,3.9-0.6,5.8-0.7c4.3-0.3,8.6-0.8,12.8-0.1C870.2,207.8,871.7,209.8,870,215.1z"/>
			<path class="st20" d="M705.8,181.3c-1.1-1.8-2.7-3.1-4.5-4.7c-2.7,1.8-5.3,3.6-8,5.2c-1.7,1-3.6,2.1-5.5,2.6
				c-3.5,0.9-7.1,1.8-10.8,0.9c-0.2,0.7-0.1,1.2,0.5,1.6c0.5,0.3,0.9,0.8,1.4,1.1c0.8,0.5,1.5,1.2,2.4,1.4c2.4,0.5,4.8,0.8,7.2,0.9
				c2,0.1,4.1-0.2,6.1-0.3c0.4,0,0.8-0.1,1.2-0.2c3.6-1.1,6.7-2.9,9.6-5.3C706.4,183.7,706.6,182.5,705.8,181.3z"/>
			<path class="st20" d="M756.6,189.6c-3-1.2-6.1-2.3-9.2-3.4c-3.2-1.2-6.4-2.3-8.7-5c-0.7-0.9-1.9-1.5-2.9-2c-1.8-1-3.2,0.8-3,2.5
				c0.2,2,1.9,5,3.3,6.4c4.9,5,9.7,6.2,15.3,8c1.2,0.4,2.4,0.5,3.5,0.7c0.9-0.1,1.6-0.2,2.3-0.3c1-0.2,1.6-1,1.5-1.9
				c-0.1-1.4-0.1-2.8-1-4C757.4,190.1,757,189.8,756.6,189.6z"/>
			<path class="st20" d="M728.8,203.9c-3.2-1.9-6.7-4-10.6-3.9c-4.2,0.1-8.4,0.7-12.3,2.5c-1.4,0.7-6.5,3.3-4.9,5.5
				c1.1,1.6,2.3,1.3,3.9,1c2.2-0.3,4.4-0.3,6.6-0.2c4.5,0.2,8.9,1.1,13.2,2.4c3.9,1.1,8.7,3,12.7,1.3c-0.3-0.8-0.4-1.6-0.8-2.2
				C734.5,207.2,731.9,205.7,728.8,203.9z"/>
		</g>
	</g>
</g>
<g id="Text__x2F__Quiz_Questions" class="st40">
</g>
<g id="NOTES">
	<rect x="57.4" y="48.6" class="st133" width="827.4" height="273.4"/>
	<text transform="matrix(1 0 0 1 57.4478 71.3779)"><tspan x="0" y="0" class="st151 st152 st153">mood: TROUBLED</tspan><tspan x="0" y="38.4" class="st151 st152 st153">Style: CLASSY</tspan><tspan x="0" y="76.8" class="st151 st152 st153">Personality: ARTIST </tspan></text>
</g>
<g id="ColorPalette">
</g>
</svg>
