<?xml version="1.0" encoding="utf-8"?>
<!-- Generator: Adobe Illustrator 24.0.1, SVG Export Plug-In . SVG Version: 6.00 Build 0)  -->
<svg version="1.1" xmlns="http://www.w3.org/2000/svg" xmlns:xlink="http://www.w3.org/1999/xlink" x="0px" y="0px"
	 viewBox="0 0 1442 966" style="enable-background:new 0 0 1442 966;" xml:space="preserve">
<style type="text/css">
	.st0{fill:#EAD53F;}
	.st1{fill:#FDEB51;}
	.st2{fill:#ECE1CC;}
	.st3{fill:#F27171;}
	.st4{fill:#753624;}
	.st5{fill:#FFFFFF;}
	.st6{fill:#F68B1F;}
	.st7{fill:#F79E1E;}
	.st8{opacity:0.3;}
	.st9{fill:#895B24;}
	.st10{fill:#FFCE07;}
	.st11{fill:#FAA635;}
	.st12{fill:#F2D6B7;}
	.st13{fill:none;}
	.st14{fill:#FEDB45;}
	.st15{fill:#8DB542;}
	.st16{fill:#BCD266;}
</style>
<g id="BG">
	<rect y="0" class="st0" width="1442" height="966"/>
	<rect x="0" y="570.2" class="st1" width="1442" height="395.8"/>
</g>
<g id="Bowl">
	<g>
		<path class="st2" d="M439.8,508.6c-0.6-1.8-1.3-3.7-1.9-5.5c-7.8-23-17.7-50.2-2.3-72.2c3.9-5.6,8.2-10.9,12.2-16.4
			c8.8-12.3,20.7-21.5,31.7-31.6c3.9-3.6,7.8-7.2,11.7-10.9c3.2-3,6.3-6.1,9.6-8.9c0.8-0.7,2.1-0.9,3.2-1.2c1.4-0.4,3-0.5,4.2-1.2
			c10.1-5.5,20.1-11.3,30.3-16.6c16.8-8.7,34.4-15.6,52.6-20.7c18-5.1,36-10.4,54.3-14.2c24.9-5.2,50.2-7.7,75.7-7.6
			c17.7,0.1,35.3,2,52.7,5c11.7,2,23.6,3.4,35.3,5.7c23.3,4.6,46.6,9.6,69.9,14.6c6,1.3,11.9,2.8,17.8,4.7
			c8.2,2.6,16.1,5.9,24.3,8.4c10,3,18.8,8.4,27.9,13c12.5,6.3,23,15.3,33,24.9c5.2,5,10.4,9.9,15.1,15.3c7.8,8.8,12.8,19.1,16,30.3
			c1.3,4.4,3.1,8.7,4.7,13c0.3,0.8,0.8,1.7,0.8,2.5c-0.1,5.7-0.1,11.3-0.5,17c-0.3,4.9-0.8,9.8-1.5,14.6c-0.5,3.6-0.9,7.3-2.1,10.7
			c-3.7,10-8.1,19.7-11.7,29.7c-2,5.3-2.9,11-4.6,16.5c-0.8,2.7-2,5.2-3.1,7.8c-4.4,9.9-8.8,19.8-13.1,29.8c-0.9,2.2-1.2,4.7-1.9,7
			c-1,3.5-2,7.1-3.3,10.5c-1.7,4.2-3.9,8.3-5.5,12.5c-2.4,6.2-4.8,12.3-6.6,18.7c-3.9,14.4-11.7,26.8-18.4,39.8
			c-4.3,8.2-8.4,16.5-13.2,24.4c-4.5,7.3-9.6,14.2-14.8,21c-5.7,7.3-11.6,14.5-17.8,21.4c-6.9,7.7-14.2,15-21.3,22.5
			c-0.7,0.7-1.6,1.5-2.5,1.9c-6.1,2.4-10.3,7.2-15,11.3c-1.6,1.4-3.2,2.7-4.7,4.2c-8.4,8.2-19,12.3-29.4,17
			c-1.6,0.7-3.1,1.5-4.9,2.4c2.6,13.9,8.4,26.3,14.7,38.5c-8.8,7.3-18,12.1-28.9,14c-23.7,4.1-47.4,7.6-71.6,6.8
			c-12.2-0.5-24.4-2.1-36.6-3.3c-8.2-0.7-16.5-1-24.6-2.3c-9.6-1.6-19.2-3.9-28.6-6.4c-3.2-0.9-6-3.5-8.9-5.4
			c-2.2-1.4-4.3-2.8-6.3-4.4c-1.8-1.4-2.3-3.3-1.2-5.6c2.8-5.4,5.2-11.1,8.3-16.4c4.2-7.3,3.8-8.7-4.2-10.7
			c-1.9-0.5-3.5-0.6-3.9-3.1c-0.1-0.9-2.1-1.7-3.4-2.2c-14.2-6.6-26.5-16.2-39.3-25.1c-10.8-7.6-19.7-17.1-28.8-26.5
			c-0.4-0.4-0.7-1.1-1-1.1c-4,0.1-5.2-3.4-7.3-5.6c-2.2-2.4-4-5.3-5.9-7.9c-1.7-2.4-3.2-5-5-7.3c-12.9-16-22.9-33.9-33.3-51.5
			c-6.6-11.1-12.4-22.7-18.7-34c-2-3.6-4.5-7-6.7-10.5c-1.1-1.9-2.1-4-2.9-6.1c-2.6-7.1-7.6-12.8-10.5-20
			c-3.6-8.8-7.2-17.6-10.7-26.5C451.3,540.8,445.4,524.8,439.8,508.6z"/>
		<g>
			<path class="st3" d="M843.6,652.2c0.2,2.3,0.4,4.6,1.5,6.9c1.1,2.3,1.3,4.9,2.1,7.3c1.2,3.8,2,4.3,5.8,2.9
				c5.2-1.9,10.3-4.2,15.5-6.2c1.7-0.7,2.7-1.8,2.7-3.6c0.1-1.9-0.1-3.8-0.1-6.3c-4.6,2.2-8.6,4.1-12.6,5.9c-1.8-1-3.6-2-5.2-2.9
				c0.1-1.8,1.4-2,2.4-2.5c4.6-2.4,9.1-5,13.8-7.2c2.3-1.1,4.8-1.8,7.3-2c2.7-0.3,4.6,1.6,5.7,3.8c1.8,4,2.3,8.3,1.8,12.6
				c-0.2,2.2-1.5,3.9-3.6,4.8c-2.4,1.1-4.9,2.1-7.3,3.1c-4,1.6-7.9,3.3-11.9,4.9c-1.6,0.6-3.3,1-5,1.4c-3.6,0.8-7.3,1.4-10.9,2.2
				c-1.4,0.3-2.3-0.2-3.5-0.6c-3.6-1.1-4.7-4-6.1-6.9c-2.5-5-3.3-10.3-4.2-15.7c-0.3-2,1.2-4.4,3.1-4.7c5.9-1,10.4-5,15.5-7.4
				c5.1-2.4,10.3-4.8,15.4-7.1c4.3-1.9,8.7-3.8,13.1-5.5c1.5-0.6,3.1-1.1,4.6-1.4c3.7-0.5,6.8,0.7,9,3.9c1,1.4,2,2.9,2.9,4.3
				c2.4,3.5,4.9,7,7.5,10.8c1.7-0.7,3.4-1.3,5.1-2c5.3-2.4,10.6-4.8,15.8-7.2c3.7-1.7,4-3.1,1.3-6.7c-3.3,1.8-6.6,3.6-9.9,5.5
				c-1.5,0.9-3,1.8-4.8,1c-0.6-0.2-1.4-0.1-2.1-0.1c-5.3,0-8.1-2-9.6-6.9c-0.5-1.5-1.3-3-1.6-4.6c-0.3-1.6-0.2-3.2-0.3-5
				c4.3-3.2,9.2-5.2,14.2-6.9c4.6-1.5,9.3-2.8,13.9-4.4c2.1-0.7,3.7-0.3,5.6,0.7c2.2,1.1,3,2.8,3.7,4.9c1.5,4.7,3.1,9.4,5.4,13.9
				c1.2,2.3,1.3,5.3,1.6,8.1c0.2,1.6-1.1,2.5-2.4,3.1c-6.3,2.9-12.7,5.6-19,8.5c-4.2,1.9-8.4,3.9-12.5,6.1c-1.9,1-3.8,1.7-5.9,1.1
				c-0.4-0.1-1-0.4-1.3-0.2c-3.2,1.4-5.5-0.9-8-2.1c-0.8-0.4-1.4-1.5-1.9-2.3c-2.9-4.3-5.7-8.7-8.5-13.1c-0.8-1.3-1.8-1.5-3.3-1
				c-5.7,2.1-11.5,4.2-17,7.1C855.8,647.2,849.9,649.4,843.6,652.2z M923.4,626.4c-0.6-2-1.2-4-1.9-5.9c-0.5-1.4-1.6-1.7-2.8-1.2
				c-2.1,0.9-4.2,1.9-6.2,3c-1.2,0.7-1.4,2.1-0.8,4c0.5,1.3,1.3,1.9,2.6,1.5c2.4-0.8,4.9-1.1,7.4-0.8
				C922.2,627,922.6,626.7,923.4,626.4z"/>
			<path class="st3" d="M767,675.9c-1.5,2.3-1.3,4.4,0.9,6.7c1.2,1.2,1.9,3.1,2.4,4.9c1,4.1-1.1,6.8-5.3,6.8c-6,0.1-12,0.7-17.9,1.9
				c-3.7,0.7-7.5,1.3-11.3,1.9c-4.3,0.6-7.8-1-10.5-4.1c-1.8-2.1-1.7-4.9-1.1-7.3c0.8-3.9,0.4-7.6-0.1-11.4
				c-0.2-1.9-0.2-3.9-0.1-5.9c0.2-2.7,0.3-2.5,3.2-3.2c2-0.5,3.8-1.6,5.8-2.1c4.6-1,9.3-1.8,14-2.8c4.3-0.9,8.5-2.4,12.8-3
				c3.7-0.6,7.6-0.7,11.4-0.5c3.9,0.2,6.5,2.1,7.9,6.2c1.7,5.4,4.1,10.6,6.1,15.9c0.5,1.3,1.1,2.1,2.8,1.9
				c7.8-1.3,15.6-2.4,23.3-3.7c5-0.9,5.1-1.4,3.8-6.2c-0.8-2.9-1.5-5.8-2.1-8.8c-0.3-1.6-1.3-2.1-2.7-2c-2,0.2-3.9,0.3-5.9,0.5
				c-3,0.2-3.5,0.7-3.6,3.8c0,0.5,0.1,1.1,0.3,1.8c4.5-0.5,8.8-0.5,11.4,4.3c-1,2-3.1,2.2-5,2.7c-2.2,0.6-4.5,1-6.7,1.6
				c-1.3,0.3-2.7,0.8-4,1c-1.5,0.3-2.7,0.1-4-1.3c-1.4-1.6-3.4-2.5-5.2-3.9c-0.1-4.1-0.4-8.2,1.6-12.1c1-2,2.5-3.2,4.6-3.8
				c6.1-1.6,12.3-2.2,18.6-2.3c2.2,0,4.4,0.1,6.6,0.1c3.3,0.1,5.3,2,5.9,5.2c0.8,4.3,1.2,8.6,3.4,12.6c1.1,2,1,4.8,1,7.2
				c0,1.7-1.4,2.8-2.9,3.7c-5.5,3-11.5,4.4-17.6,5c-6.9,0.7-13.8,1.8-20.5,3.2c-1.5,0.3-3,0.5-4.5,0.6c-0.7,0-1.4-0.1-2-0.4
				c-2.1-1.2-4.2-2.4-6.1-3.9c-0.9-0.7-1.2-2.1-1.6-3.3c-2-6-3.1-12.4-6.1-18.1c-0.1-0.2-0.3-0.4-0.7-1c-1.6,0.2-3.4,0.4-5.2,0.8
				c-6.3,1.4-12.6,2.9-19,4.1c-3.4,0.6-6.8,0.6-10.2,0.9c-0.8,0.1-1.6,0.3-2.6,0.4c0.2,3.4,0.5,6.6,0.7,9.8c0.2,3.2,0.3,6.4,0.5,10
				c2.1-0.3,3.9-0.6,5.7-0.8c5.7-0.8,11.4-1.7,17.2-2.4c3.2-0.4,3.5-0.5,3.3-3.9c-0.1-1-0.2-2.1-0.3-3.2c-2.3-0.9-4.3,0.2-6.4,0.6
				c-1.6,0.3-3.1,1-4.7,1.3c-1.9,0.3-3.9,0.7-5.3-1.4c-0.4-0.6-1.6-0.6-2.4-0.9c-0.7-0.3-1.8-0.6-1.9-1.1c-0.1-0.8,0.4-1.7,0.9-2.4
				c0.3-0.4,1-0.6,1.5-0.8c6-2.1,12.2-3.5,18.6-4.1C761.5,670.8,765.1,671.2,767,675.9z"/>
			<path class="st3" d="M701.9,679.8c-0.5,0.8-0.8,1.3-0.9,1.8c-0.5,1.4-1.4,1.9-2.9,1.9c-3.7,0-7.4,0.3-11.1,0.5
				c-3.4,0.1-7.1-2.2-8.1-5.3c-0.3-0.9-0.1-2.1,0.3-3c1.1-2.8,2.5-5.4,1.9-8.7c-0.1-0.6,0.7-1.7,1.4-2.1c1-0.5,2.2-0.8,3.3-0.8
				c3.7,0,7.4,0.3,11.1,0.4c2.4,0.1,4.9,0,7.3,0.1c1.4,0,2.8,0.1,4.1,0.4c2.1,0.5,2.8,1.4,2.9,3.6c0.1,2.2,0,4.4-0.1,6.6
				c-0.3,3.9,0.4,7.6,1.3,11.3c0.6,2.8,1.2,5.6-0.4,8.4c-1,1.7-2,2.7-4.1,2.3c-2.4-0.4-4.8-0.9-7.2-0.9c-7.2,0-14.3,0.3-21.5,0.5
				c-3.5,0.1-6.9,0.1-10.4,0.1c-0.2,0-0.6,0-0.7-0.1c-1.9-2-3.9-3.9-5.7-6c-0.6-0.8-0.7-2.2-0.7-3.3c0-6.1,0.1-12.3,0.1-18.4
				c0-3.1-0.5-3.6-3.5-4c-3.4-0.4-6.9-0.5-10.4-1.1c-6-1.1-12-2.5-18.4-3.8c-1.6,6.4-3.3,13.2-5.1,20.6c7.2,1.1,13.9,3,21.2,3.9
				c0.9-3,1.7-5.7,2.6-8.8c-2.2-0.7-4.1-1.2-5.9-1.8c-2.5-0.8-5.1-1.4-7.5-2.5c-1.1-0.5-1.8-2.1-3.2-3.6c3.7-1.2,6.6-1.7,9.7-0.9
				c4.4,1.1,8.7,2.3,13.1,3.5c2.4,0.6,2.8,1.3,1.9,3.4c-1.9,4.7-3.1,9.4-1.3,14.4c0.3,0.9,0.1,2.1-0.1,3.1c-0.8,3.3-2.1,3.9-5.3,3
				c-7.4-2.1-14.9-3.4-22.4-4.5c-2.8-0.4-5.6-1.3-8.4-2.1c-2.9-0.8-3.8-3.5-5.1-5.8c-0.3-0.5-0.1-1.6,0.2-2.3
				c2.8-6.9,5-13.9,6.6-21.2c0.3-1.1,2.2-2.2,3.6-2.7c2.4-0.9,4.9-1.4,7.3-1.9c0.9-0.2,1.8-0.2,2.7,0.1c7.1,1.9,14.4,2,21.6,3.1
				c3.8,0.5,7.4,1.8,11.1,2.8c4.9,1.2,6.6,4.8,6.8,9.3c0.2,3.8-0.2,7.6-0.3,11.5c0,1.4-0.2,2.8-0.2,4.2c0.1,2.9,0.7,3.5,3.6,3.4
				c5.4-0.1,10.9-0.3,16.3-0.4c2.6-0.1,5.1-0.1,7.7-0.1c1.5,0,2.3-0.7,2.3-2C703.4,683.8,703.1,681.9,701.9,679.8z M702.5,678
				c0.8-2.3,1.4-4.4-0.1-6.6c-3.4-0.2-6.7-0.5-10.1-0.7c-2.6-0.1-3,0.3-3.5,2.8c-0.2,0.7-0.1,1.5-0.2,2.5c1.7,0,3.2,0.1,4.6,0
				c2.7-0.2,5.3-0.6,7.5,1.6C701,677.9,701.8,677.9,702.5,678z"/>
			<path class="st3" d="M563,665.9c1.4,0.4,2.3,0.7,3.2,0.9c3.6,0.9,7.2,1.7,10.8,2.7c2.1,0.6,4.2,1.2,6.3,1.9c3.1,1,6.2,2,9.2,3.2
				c3.5,1.4,4.3,1,5.2-2.4c0.8-3.5,1.7-7,2.5-10.5c0.3-1.4,0.4-2.9,0.6-4.7c-2.5-0.3-4.6-0.4-6.8-0.9c-2.1-0.5-4.2-1.1-6.2-2
				c-2.1-0.9-2.5-1-3.7,0.9c-0.8,1.2-1.3,2.6-2.1,4.3c2.2,0.5,3.8,0.8,5.5,1.1c1.3,0.2,2.5,0.2,3.8,0.5c2.8,0.7,3.2,1.4,2.9,3.8
				c-0.2,1.5-2.1,3.1-3.8,2.9c-3-0.3-6.1-0.4-8.9-1.3c-2.7-0.9-5.5-2.3-7.2-5c-0.7-1.1-0.7-2.1-0.1-3.2c1.4-2.5,2.3-5.4,4.1-7.5
				c1.7-1.9,4.2-3.2,6.5-4.5c1.6-0.9,3.1,0,4.7,0.6c0.2,0.1,0.5,0.1,0.7,0.2c4.5,3.3,9.8,3.8,15.1,4.5c2.9,0.4,4.8,2.8,4.8,5.8
				c0,1.3-0.2,2.5-0.4,3.8c-0.6,3-1.2,5.9-1.8,8.8c0,0.2-0.1,0.5-0.1,0.7c-1.3,4.1-2.6,8.1-4,12.2c-0.5,1.6-1.8,2.2-3.4,2.7
				c-3.4,1.1-6.4-0.4-9.5-1c-1.5-0.3-3.1-0.6-4.3-1.3c-5.7-3.5-12.7-3.6-18.6-6.6c-1.6-0.8-3.6-1-5.4-1.5c-2.2-0.6-4.4-1-6.1-2.9
				c-0.9-1-2.5-1.4-4.4-2.4c5-2.2,3.7-6.7,5.2-10c1.1-2.3,1.8-4.8,2.6-7.2c0.7-2.3,1.4-4.6,2.1-7c-3.2-1.8-5.7-4.4-9.4-5.2
				c-3.4-0.7-6.6-2.8-9.8-4.3c-3-1.4-6.1-2.8-9.3-4.3c-4.9,5.3-7.7,11.6-10,18.2c6.3,1.5,12.3,2.9,18.4,4.3c1.7-1.7,2-3.7,2.3-5.9
				c-3.6-2-7.1-4-10.7-6c-1.1-0.6-2.4-0.9-2.1-2.7c0.3-1.6,1.5-1.7,2.8-2.1c5-1.5,8.6,1.2,12.3,3.7c0.8,0.6,1.5,1.5,2.4,1.9
				c2.9,1,3.4,3.4,3.3,5.9c-0.1,3.7-0.5,7.4-1.1,11c-0.4,2.4-1.5,4.8-2.3,7c-4.3,1.1-7.6-0.2-10.6-2.7c-3-2.6-6.8-3.6-10.5-4.3
				c-4.5-0.8-8.3-2.4-11.6-5.6c-1.1-1.1-1.5-1.9-0.5-3.2c0.4-0.5,0.8-1.2,1-1.8c2.5-7.1,6.7-13.2,10.3-19.7c1.4-2.4,3.8-3.5,6.3-3.8
				c3.1-0.3,6.1,0.1,9.1,1.8c2.5,1.4,5.3,2.1,8,3.2c1.4,0.5,2.8,1.1,4.2,1.7c2.1,0.8,4.3,1.6,6.4,2.4c0.6,0.2,1.4,0.3,1.9,0.7
				c2.5,1.8,5.1,3.6,7.4,5.6c1.3,1.1,1.6,2.8,1,4.5c-1.5,4.1-3,8.2-4.6,12.3C565.4,660.6,564.3,662.9,563,665.9z"/>
		</g>
		<path class="st4" d="M429.8,511.9c-2-5.5-3.7-11.1-5.2-16.8c-2-8.1-1.1-16.3-0.2-24.5c0.2-1.4,0.7-2.8,0.5-4.1
			c-0.5-3.6,0.2-6.9,1.2-10.3c2.5-8.7,4.3-17.7,9.6-25.3c3.9-5.6,8.2-10.9,12.2-16.4c8.8-12.3,20.7-21.5,31.7-31.6
			c3.9-3.6,7.8-7.2,11.7-10.9c3.2-3,6.3-6.1,9.6-8.9c0.8-0.7,2.1-0.9,3.2-1.2c1.4-0.4,3-0.5,4.2-1.2c10.1-5.5,20.1-11.3,30.3-16.6
			c16.8-8.7,34.4-15.6,52.6-20.7c18-5.1,36-10.4,54.3-14.2c24.9-5.2,50.2-7.7,75.7-7.6c17.7,0.1,35.3,2,52.7,5
			c11.7,2,23.6,3.4,35.3,5.7c23.3,4.6,46.6,9.6,69.9,14.6c6,1.3,11.9,2.8,17.8,4.7c8.2,2.6,16.1,5.9,24.3,8.4c10,3,18.8,8.4,27.9,13
			c12.5,6.3,23,15.3,33,24.9c5.2,5,10.4,9.9,15.1,15.3c7.8,8.8,12.8,19.1,16,30.3c1.3,4.4,3.1,8.7,4.7,13c0.3,0.8,0.8,1.7,0.8,2.5
			c-0.1,5.7-0.1,11.3-0.5,17c-0.3,4.9-0.8,9.8-1.5,14.6c-0.5,3.6-0.9,7.3-2.1,10.7c-3.7,10-8.1,19.7-11.7,29.7
			c-2,5.3-2.9,11-4.6,16.5c-0.8,2.7-2,5.2-3.1,7.8c-4.4,9.9-8.8,19.8-13.1,29.8c-0.9,2.2-1.2,4.7-1.9,7c-1,3.5-2,7.1-3.3,10.5
			c-1.7,4.2-3.9,8.3-5.5,12.5c-2.4,6.2-4.8,12.3-6.6,18.7c-3.9,14.4-11.7,26.8-18.4,39.8c-4.3,8.2-8.4,16.5-13.2,24.4
			c-4.5,7.3-9.6,14.2-14.8,21c-5.7,7.3-11.6,14.5-17.8,21.4c-6.9,7.7-14.2,15-21.3,22.5c-0.7,0.7-1.6,1.5-2.5,1.9
			c-6.1,2.4-10.3,7.2-15,11.3c-1.6,1.4-3.2,2.7-4.7,4.2c-8.4,8.2-19,12.3-29.4,17c-1.6,0.7-3.1,1.5-4.9,2.4
			c2.6,13.9,8.4,26.3,14.7,38.5c-8.8,7.3-18,12.1-28.9,14c-23.7,4.1-47.4,7.6-71.6,6.8c-12.2-0.5-24.4-2.1-36.6-3.3
			c-8.2-0.7-16.5-1-24.6-2.3c-9.6-1.6-19.2-3.9-28.6-6.4c-3.2-0.9-6-3.5-8.9-5.4c-2.2-1.4-4.3-2.8-6.3-4.4c-1.8-1.4-2.3-3.3-1.2-5.6
			c2.8-5.4,5.2-11.1,8.3-16.4c4.2-7.3,3.8-8.7-4.2-10.7c-1.9-0.5-3.5-0.6-3.9-3.1c-0.1-0.9-2.1-1.7-3.4-2.2
			c-14.2-6.6-26.5-16.2-39.3-25.1c-10.8-7.6-19.7-17.1-28.8-26.5c-0.4-0.4-0.7-1.1-1-1.1c-4,0.1-5.2-3.4-7.3-5.6
			c-2.2-2.4-4-5.3-5.9-7.9c-1.7-2.4-3.2-5-5-7.3c-12.9-16-22.9-33.9-33.3-51.5c-6.6-11.1-12.4-22.7-18.7-34c-2-3.6-4.5-7-6.7-10.5
			c-1.1-1.9-2.1-4-2.9-6.1c-1.4-3.8-3.3-7.3-6.4-10c-1.6-1.4-3.6-2.2-1.8-5.1c0.5-0.7-1.5-3.4-2.8-4.7c-4.1-3.9-7.8-8.4-10.3-13.4
			C447.8,550.8,437.1,532.1,429.8,511.9z M741.3,323.7c0,0.2-0.1,0.3-0.1,0.5c-4.5,0.3-9.1,0.6-13.6,0.8c-9.8,0.6-19.6,0.7-29.4,1.7
			c-26.4,2.6-52.2,8.2-77.9,14.1c-15.3,3.5-30.5,8-45,14.2c-10.1,4.3-20.3,8.7-29.9,14c-8.3,4.5-16,10.1-23.6,15.7
			c-9.6,7-19.3,14.1-28.2,21.9c-9.5,8.3-18.2,17.4-27.1,26.2c-5.6,5.6-10.6,11.6-12.9,19.4c-1.3,4.5-3.8,8.6-5.5,13
			c-1.6,4.2-3.4,8.6-2.2,13.3c3.5,13,3.9,22,13.4,31.9c32.2,33.8,69.4,49.1,111.2,68.4c17.8,8.2,39.5,11.2,58.5,16.1
			c39.3,10.2,80.6,8.3,121,5c29.6-2.4,57.1-5.6,85.4-13.9c4.1-1.2,8-2.4,10.9-5.8c1-1.1,2.6-1.8,4-2.5c11.6-6.2,23.5-11.6,34.5-18.8
			c17.3-11.3,34.4-22.9,48.7-38.1c2.3-2.4,4.8-4.7,7.4-6.7c22.2-17.9,38.6-40.4,50.8-66c3.4-7.1,5.6-14.7,6.5-22.6
			c0.4-4,0.2-7.7-2.3-11c-2.7-3.7-5-7.7-8.1-11c-12.5-13.3-25.9-25.5-42.8-33.3c-12.2-5.7-24-12.4-37.1-15.8
			c-15.7-4.1-31.2-8.8-47.4-11.3c-16.9-2.5-33.7-6.5-50.5-9.6c-8.9-1.7-17.9-3.1-26.9-4.3C769.1,327,755.2,325.4,741.3,323.7z
			 M890.1,677.5c10.4-14.6,20.4-29.7,29.2-45.1c16.1-28,26.6-58.1,40.8-86.8c0.6-1.3,0.9-2.8,1.6-5.1c-8.3,4.9-15.6,9.4-21.6,15.7
			c-9.7,10.2-20.7,18.8-33.4,25c-5.6,2.8-11.4,5.2-16.8,8.5c-7.3,4.4-14.9,8.3-23,11.1c-3.6,1.3-7.3,1.9-11,2.7
			c-5.9,1.3-11.5,3.9-17.2,6c-1,0.3-2.2,1.2-2.9,0.8c-3.6-1.7-6.9,0.2-10.2,0.8c-2.9,0.5-5.9,1.8-8.7,1.7
			c-8.4-0.5-16.5,1.9-24.7,2.8c-7.4,0.8-14.5,3.7-21.8,5.5c-6.1,1.5-12.2,2.8-18.4,4.1c-3.3,0.7-6.5,1.2-9.8,1.7
			c-5.7,0.9-11.4,1.9-17.1,2.7c-2.4,0.4-4.9,0.4-7.3,0.7c-10.1,1.1-20.2,2-30.3,3.4c-7.5,1.1-14.9-1.3-22.3,0.1
			c-0.8,0.2-2.2-0.5-2.7-1.2c-1.4-1.8-3.1-2.1-5.1-2c-8.2,0.2-16.5,0.3-24.7,0.5c-3.1,0.1-6.4,0.9-9.4,0.4c-6-0.8-11.8,0.4-17.7,0.4
			c-1.3,0-2.7-0.2-4-0.5c-0.4-0.1-0.6-0.8-1-1.3c0.8-1.1,1.5-2.1,2.5-3.5c-1.5-0.5-2.6-1-3.8-1.3c-7.6-2-15.3-3.4-22.7-6
			c-12.5-4.3-24.9-9.1-37.2-14.2C528,600.3,516.6,595,505,590c-1.4-0.6-2.8-2.2-5-0.7c3.9,6.6,7.9,12.9,11.7,19.4
			c5.7,9.6,11.2,19.3,17,28.9c0.9,1.5,2.5,2.5,4,3.8c-0.8,2.1,0.2,5.3,3.6,9.3c0.5,0.6,1.9,0.3,3.2,0.5c-1.8,2.6-0.3,4.8,1,7.1
			c2,3.6,4.5,7,6.9,10.2c2.5,3.2,3.3,7.1,5.7,10.3c3,4,5.4,8.6,8.5,12.6c5.4,7.1,10.9,14.1,16.5,21.1c7.6,9.5,15.6,18.6,24.8,26.4
			c12.6,10.7,26.3,19.6,41.1,27.1c12.2,6.2,25.1,9.6,38.7,10.2c9.4,0.5,18.9,0.7,28.4,1c14.4,0.5,28.7-0.1,42.8-3.1
			c11.5-2.4,22.8-5.2,34.2-8.1c5-1.3,10.1-2.9,14.9-5c12.7-5.4,23.9-13.6,33.7-23c10.9-10.4,22.8-19.7,32.1-31.7
			C875.8,697,883,687.4,890.1,677.5z M666.1,791.1c-4,7.3-5.9,15.7-12.4,21.9c1.3,0.9,2,1.8,2.9,2c2.9,0.8,5.8,1.7,8.7,2
			c12,1.2,24,2.5,36.1,3.2c11,0.6,22,0.8,33.1,0.6c17.2-0.3,34.1-3.3,50.9-6.3c9.4-1.7,18.6-4.6,27.8-7.1c0.8-0.2,1.4-0.9,2.2-1.4
			c0.5-0.3-8-22-10.3-22.9c-4.5-1.7-20.1,5.8-25.3,6.7c-19.7,3.7-40,3.6-59.9,4.5c-0.5,0-1,0-1.6-0.1c-9-1.1-18.2-0.4-27-3.2
			c-0.3-0.1-0.7-0.1-1-0.1C682.3,791.1,674.4,791.1,666.1,791.1z"/>
	</g>
	<g>
		<path class="st5" d="M862.5,802.5c8.2-3.6,16.2-5.1,24.1-7.2c5.3-1.4,10.5-3.3,15.7-5.1c7.3-2.4,14.7-4.7,21.9-7.4
			c9.6-3.7,19.5-6.5,29.4-9.6c9.7-3,19.6-5.7,29.4-8.6c7.2-2.1,14.3-4.3,21.4-6.5c12.5-3.8,25.1-7.6,37.6-11.3
			c7.3-2.1,14.7-3.9,22-5.9c14.4-3.8,28.8-7.6,43.3-11.4c11.9-3.1,23.8-6.2,35.7-9.4c11.5-3.1,23-6.2,34.4-9.5
			c8.2-2.3,16.2-5.1,24.4-7.4c6.2-1.7,12.6-2.7,18.8-4.2c11.7-2.9,23.3-6.1,35-9c10.7-2.7,21.5-4.7,32-7.8c9.8-2.9,20-3.8,29.9-6.4
			c5.4-1.4,10.9-2.9,16.3-4.2c3.2-0.8,6.5-1.2,9.6-1.9c2.7-0.6,5.6-1,7.8-2.5c2.7-1.7,5-0.9,7.2,0.1c2.5,1.2,4.5,3.3,4.6,6.4
			c0,1.8,1.1,3.1,1.9,4.6c2.3,4.1,4.2,8.4,5.9,12.7c2.1,5.2,3.8,10.6,5.6,15.9c1.7,4.8,3,9.8,5,14.4c2.8,6.5,6.2,12.7,9.3,19
			c1.8,3.8,3.6,7.6,5.2,11.5c1.1,2.6-0.2,4.2-2.9,4.7c-1.8,0.4-3.5,1-5.1,1.7c-4.6,1.8-9.3,3.7-13.8,5.6c-4.8,2.1-9.4,4.6-14.3,6.4
			c-10,3.6-20.1,6.8-30.2,10.3c-5.4,1.8-10.7,4-16.2,5.6c-3.2,0.9-6.8,0.6-10.1,1.4c-9,2.2-17.9,4.7-26.9,7.2
			c-5.8,1.6-11.4,3.5-17,5.6c-4.5,1.7-9.4,2.3-14.1,3.5c-8.1,2-16.3,4-24.4,6.1c-14.6,3.8-29.1,7.7-43.7,11.6
			c-5.6,1.5-11.1,3.1-16.6,4.7c-13.4,3.9-26.8,7.9-40.3,11.6c-4.3,1.2-8.7,1.9-13.1,2.2c-3.1,0.2-5.7,1.6-8.5,2.6
			c-2.9,1-5.3,2.3-8.8,2.1c-4-0.3-8.2,1.3-12.3,2.2c-11.2,2.6-22.4,5.2-33.6,7.8c-8.8,2.1-17.6,4-26.4,6.4
			c-13.6,3.8-27.2,7.8-40.8,11.8c-7.7,2.2-15.4,4.3-22.9,7c-9.1,3.2-18.4,4.9-27.7,7.2c-6.3,1.6-12.6,3.7-18.7,6
			c-2.2,0.8-3.9,3-6,4.5c-2.9,2.1-5.9,3.5-9.4,1.4c-0.3-0.2-0.8-0.2-1.1-0.5c-3.5-3.8-7.4-7.3-9.1-12.5c-1.2-4-3.6-7.6-4.6-11.6
			c-1.9-7.1-3.4-14.3-4.9-21.5c-2.2-10.6-4.3-21.3-6.6-31.9c-0.3-1.3,0-3.4-2.3-3.6c0.2-1,0.1-2.1,0.5-2.9c1.1-2,1.4-6,0.3-8
			C863.8,805.2,863.2,804,862.5,802.5z"/>
		<path class="st5" d="M1191.5,727.5c-3-1.5-6-3.1-9.3-3.9c-4.6-1.1-9.4-0.7-14.1-0.2c-14.7,1.4-29.5,2.7-43.7,6.7
			c-13.5,3.8-26.2,9.8-39.2,15.1c-64.3,26.2-135.4,33.7-198,63.7c-3.4,1.6-6.9,3.5-8.5,6.9c-1.2,2.6-1,5.6-0.8,8.4
			c1.6,18.2,5.2,36.2,10.8,53.5c0.4,1.4,0.9,2.8,2,3.8c1.9,1.7,4.8,1.5,7.3,1.2c26.4-3.6,53-7.2,78.4-15.5c19-6.2,37-14.9,56-20.9
			c53.1-16.8,111.9-12.1,163-34.2c15.5-6.7,30-15.8,46-21.1c17.2-5.7,34.6-5.1,52-8.2c0.7-6.4-13.6-10.4-18-12.6
			c-9.3-4.7-18.7-9.5-28-14.2C1228.9,746.5,1210.2,737,1191.5,727.5z"/>
		<path class="st6" d="M1265.1,760.5c3-0.1,5.9-0.6,8.9-0.7c3.7-0.2,6.7,1.1,10.5,0.5c8.6-1.3,16.4-5.6,24.5-8.7
			c8.8-3.3,18.1-5.1,26.4-9.6c1.1-0.6,2.2-1.3,2.8-2.3c0.5-1,0.5-2.1,0.5-3.2c0-3.9-0.2-7.8-0.5-11.8c-0.5-5.7-2.1-12.3-7.3-14.7
			c-3.4-1.5-7.3-0.8-10.9,0c-18.7,4.2-36.8,10.5-55.3,15.8c-9.2,2.6-18.6,5-28,6.7c-2.9,0.5-10.1,0.2-11.5,3.5
			c-2,4.5,7.1,10,10,11.9c5.2,3.5,11,6.3,16.7,9c2.8,1.3,5.7,2.7,8.7,3.3C1262,760.4,1263.6,760.5,1265.1,760.5z"/>
		<path class="st4" d="M862.5,802.5c8.2-3.6,16.2-5.1,24.1-7.2c5.3-1.4,10.5-3.3,15.7-5.1c7.3-2.4,14.7-4.7,21.9-7.4
			c9.6-3.7,19.5-6.5,29.4-9.6c9.7-3,19.6-5.7,29.4-8.6c7.2-2.1,14.3-4.3,21.4-6.5c12.5-3.8,25.1-7.6,37.6-11.3
			c7.3-2.1,14.7-3.9,22-5.9c14.4-3.8,28.8-7.6,43.3-11.4c11.9-3.1,23.8-6.2,35.7-9.4c11.5-3.1,23-6.2,34.4-9.5
			c8.2-2.3,16.2-5.1,24.4-7.4c6.2-1.7,12.6-2.7,18.8-4.2c11.7-2.9,23.3-6.1,35-9c10.7-2.7,21.5-4.7,32-7.8c9.8-2.9,20-3.8,29.9-6.4
			c5.4-1.4,10.9-2.9,16.3-4.2c3.2-0.8,6.5-1.2,9.6-1.9c2.7-0.6,5.6-1,7.8-2.5c2.7-1.7,5-0.9,7.2,0.1c2.5,1.2,4.5,3.3,4.6,6.4
			c0,1.8,1.1,3.1,1.9,4.6c2.3,4.1,4.2,8.4,5.9,12.7c2.1,5.2,3.8,10.6,5.6,15.9c1.7,4.8,3,9.8,5,14.4c2.8,6.5,6.2,12.7,9.3,19
			c1.8,3.8,3.6,7.6,5.2,11.5c1.1,2.6-0.2,4.2-2.9,4.7c-1.8,0.4-3.5,1-5.1,1.7c-4.6,1.8-9.3,3.7-13.8,5.6c-4.8,2.1-9.4,4.6-14.3,6.4
			c-10,3.6-20.1,6.8-30.2,10.3c-5.4,1.8-10.7,4-16.2,5.6c-3.2,0.9-6.8,0.6-10.1,1.4c-9,2.2-17.9,4.7-26.9,7.2
			c-5.8,1.6-11.4,3.5-17,5.6c-4.5,1.7-9.4,2.3-14.1,3.5c-8.1,2-16.3,4-24.4,6.1c-14.6,3.8-29.1,7.7-43.7,11.6
			c-5.6,1.5-11.1,3.1-16.6,4.7c-13.4,3.9-26.8,7.9-40.3,11.6c-4.3,1.2-8.7,1.9-13.1,2.2c-3.1,0.2-5.7,1.6-8.5,2.6
			c-2.9,1-5.3,2.3-8.8,2.1c-4-0.3-8.2,1.3-12.3,2.2c-11.2,2.6-22.4,5.2-33.6,7.8c-8.8,2.1-17.6,4-26.4,6.4
			c-13.6,3.8-27.2,7.8-40.8,11.8c-7.7,2.2-15.4,4.3-22.9,7c-9.1,3.2-18.4,4.9-27.7,7.2c-6.3,1.6-12.6,3.7-18.7,6
			c-2.2,0.8-3.9,3-6,4.5c-2.9,2.1-5.9,3.5-9.4,1.4c-0.3-0.2-0.8-0.2-1.1-0.5c-3.5-3.8-7.4-7.3-9.1-12.5c-1.2-4-3.6-7.6-4.6-11.6
			c-1.9-7.1-3.4-14.3-4.9-21.5c-2.2-10.6-4.3-21.3-6.6-31.9c-0.3-1.3,0-3.4-2.3-3.6c0.2-1,0.1-2.1,0.5-2.9c1.1-2,1.4-6,0.3-8
			C863.8,805.2,863.2,804,862.5,802.5z M899.3,875.8c9-2.2,17.7-4.2,26.2-6.6c11.6-3.3,23.1-6.9,34.6-10.4c9.9-3,19.8-6.2,29.8-8.8
			c15.7-4.1,31.6-7.8,47.4-11.6c13.6-3.2,27.3-6.3,40.9-9.5c7.8-1.8,15.7-3.2,23.4-5.4c4.8-1.4,9.9-2.3,14.2-5.4
			c0.9-0.7,2.8-1.5,3.1-1.2c2,2,3.1-0.8,4.7-0.7c-0.4-1.5,0.9-1.5,1.5-1.3c3,1.1,5.6-0.3,8.2-1c11.7-3.1,23.4-6.4,35.1-9.6
			c11.6-3.2,23.3-6.3,34.9-9.6c10.2-2.8,20.3-6.1,30.6-8.6c9.9-2.4,19.9-4,29.9-6c4-0.8,8-1.8,13-2.9c-2-1.1-3.2-1.8-4.4-2.4
			c-4.2-2.1-8.5-4-12.7-6.2c-6.5-3.3-12.9-6.9-19.4-10.2c-3.8-2-7.8-3.6-11.8-5.4c-6.9-3.1-13.8-6.2-20.9-9.1
			c-5.1-2.1-10.3-3.8-14.8-7.1c-1.2-0.9-2.8-1.3-4.2-2c-2.2-1.1-4.8-1.9-6.4-3.6c-2.3-2.3-4.4-2.8-7.4-2c-6.8,1.8-13.7,3.3-20.6,4.9
			c-5.9,1.4-11.8,2.5-17.6,4c-7.8,2-15.6,4.4-23.4,6.4c-9.3,2.5-18.7,4.9-28.1,7.2c-2.7,0.7-5.4,1.1-8,1.9
			c-6.3,1.9-12.5,3.8-18.8,5.8c-0.6,0.2-1.2,0.4-1.8,0.7c-4.3,1.9-8.4,4.2-12.9,5.6c-12.5,3.9-25.2,7.3-37.7,11
			c-13.5,3.9-26.9,7.7-40.3,11.8c-13.7,4.2-27.4,8.8-41.1,13.2c-2,0.6-4,1.3-5.9,2c-5.1,1.8-10.3,3.8-15.4,5.5
			c-4.3,1.5-8.7,2.8-13.1,4c-1.6,0.5-2.1,1.2-1.8,2.8c0.3,1.4,0.7,2.9,0.5,4.3c-0.6,5.6,1.1,10.9,2.1,16.2
			c1.9,9.8,4.3,19.5,6.4,29.2C897.8,869.2,898.5,872.5,899.3,875.8z M1195,724.9c0,0.3,0,0.6,0.1,0.9c0.7,0.3,1.4,0.6,2.1,0.9
			c4.4,1.6,8.9,3.1,13.2,4.9c1.9,0.8,3.7,1.2,5.7,0.7c2-0.5,4.1-0.9,6.1-1.4c6.3-1.6,12.7-3.1,19-4.7c1.9-0.5,3.8-0.8,5.7-1.3
			c3.5-0.9,7-2.1,10.5-2.9c3.5-0.8,7.2-1,10.7-1.9c11.1-3.1,22.1-6.4,33.1-9.6c2.4-0.7,4.8-1.4,7.1-2c6.1-1.8,12.3-3.4,18.4-5.3
			c3.3-1,6.4-1.1,9.6,0.2c2.9,1.1,5.4,2.6,6.9,5.5c1.5,2.8,4.2,4.9,4.9,8.4c1.2,6,2.6,11.9,3.9,17.9c0.4,2.2,0.6,4.4,0.7,6.6
			c0,0.9-0.2,2.3-0.9,2.8c-1.6,1.3-3.4,2.4-5.3,3.2c-2.4,1-5.1,1.4-7.5,2.3c-6.8,2.4-13.5,4.9-20.2,7.3c-1.8,0.7-3.8,1.7-5.6,1.6
			c-5.4-0.2-10.4,1.4-15.5,2.4c-4.3,0.9-8.7,1.7-13,2.6c-1.2,0.2-2.3,0.7-3.4,1.1c0,0.3-0.1,0.6-0.1,0.8c4.9,2.2,9.7,4.5,14.7,6.5
			c1.1,0.4,2.6,0.1,3.9-0.2c5.7-1.3,11.4-2.7,16.9-4.8c8.3-3.3,16.9-5.5,25.3-8.3c5.6-1.9,11.1-4,16.6-6.1c4-1.6,7.9-3.3,11.9-5.1
			c1.1-0.5,2-1.1,3.2-1.8c-0.4-1-0.7-1.9-1.1-2.7c-3-5.4-5.2-11.1-7-17c-1.5-4.9-2.6-9.9-4.3-14.7c-2.1-6.2-4.5-12.3-6.7-18.4
			c-0.6-1.7-1.1-3.4-1.7-5.2c-3.9,0.9-7.5,1.8-11,2.6c-6.5,1.5-13,3.1-19.5,4.4c-6.2,1.3-12.4,2.1-18.5,3.5
			c-7.9,1.8-15.6,4.4-23.6,5.9c-11.4,2.1-22.4,6-34,7.4c-7.2,0.9-14.2,3.4-21.2,5.4c-4,1.2-8.1,0.9-12.1,2.5
			c-4.6,1.9-9.6,2.6-14.3,3.9C1197.4,723.9,1196.2,724.4,1195,724.9z M1333.4,730.1c-4.4,0.9-8.3,1.5-12.3,2.4
			c-5.5,1.2-10.9,2.6-16.4,3.9c-4.7,1.2-9.3,2.5-14.1,3.5c-4.1,0.8-7.9,2.5-12.3,2.6c-2.7,0.1-5.4,1.6-8.1,2.6
			c-4.7,1.8-9.3,4.2-14.4,4.9c-1.3,0.2-2.8-0.5-4.3,0.9c2.9,1.6,5.5,3.2,8.2,4.5c1.2,0.6,2.7,0.8,4.1,0.7c9.2-0.4,17.8-3.9,26.8-5.6
			c7-1.3,13.9-3.6,20.7-6c7.5-2.6,15.1-5.1,23.3-6.7C1334.3,735.4,1333.9,732.7,1333.4,730.1z M1330.2,714.6c-1.8,0.5-3,0.8-4.2,1.1
			c-8.2,2.2-16.4,4.1-24.5,6.6c-9.4,2.9-18.9,5.2-28.6,6.7c-3.9,0.6-7.9,0.9-11.6,2.1c-8,2.6-16.2,4.1-24.4,5.8
			c-2.9,0.6-5.9,1.1-8.8,1.6c2.1,1.6,4.4,2.3,6.3,3.6c2.1,1.4,4.2,1.4,6.4,0.9c4.1-0.9,8.1-2.1,12.1-3.2c4-1.1,8-2.4,12.1-3.3
			c11.2-2.5,22.5-4.7,33.7-7.3c5.7-1.3,11.4-3.1,17.1-4.5c3.8-0.9,7.7-1.4,11.5-2.2c1.4-0.3,2.7-0.8,4.5-1.3
			C1331.3,719,1330.8,717,1330.2,714.6z"/>
	</g>
</g>
<g id="Broth__x26__Noodles_1">
	<g>
		<path d="M538.2,559.8c6.4,5,13.2,9.5,20.3,13.5c3.9,1.8,7.9,3.6,11.9,5.5c17.8,8.2,39.5,11.2,58.5,16.1c39.3,10.2,80.6,8.3,121,5
			c29.6-2.4,57.1-5.6,85.4-13.9c4.1-1.2,8-2.4,10.9-5.8c1-1.1,2.6-1.8,4-2.5c11.6-6.2,23.5-11.6,34.5-18.8
			c15-9.8,29.8-19.8,42.8-32.2c8.7-9.1,15-19,15.7-29.7c1.8-27.9-18.6-51-39.5-67.8c-6.7-5.4-13.7-10.4-20.7-15.5
			c-3.8-2.8-7.8-5.4-11.6-8.1c-1.3-0.9-2.6-1.8-3.9-2.6c-4.5-2.6-9-5.1-14.1-6.3c-1.7-0.4-3.1-1.1-4.6-2c-3.5-2.2-6.9-4.4-10.5-6.4
			c-8.9-4.8-18.7-7.2-28.3-10.3c-4.8-1.6-9.9-2.4-14.8-3.8c-7.6-2.1-15.2-3.9-23.1-4.5c-3.1-0.2-6.2-0.5-9.2-1
			c-11.9-2.2-24-3-36.2-3.2c-5.3-0.1-10.7,0-16,0c0-0.2,0-0.5,0-0.7c-3.7,0-7.5,0-11.2,0c-8.3-0.1-16.6,1-24.8,2
			c-7.2,0.9-14.4,1.5-21.5,2.5c-4,0.5-7.9,1.8-11.8,2.4c-8.4,1.2-16.7,3.3-24.8,5.7c-21.7,6.3-41.6,16.1-59.8,29.1
			c-2.9,2.1-5.8,4.2-8.2,6.8c-0.9,1-2.1,1.7-3.1,2.7c-2.6,2.5-5.4,4.9-7.8,7.7c-2.9,3.4-5.3,7.2-8.1,10.6c-3,3.6-6.5,6.9-9.5,10.6
			c-1.9,2.3-4.1,4.2-5.8,6.8c-4.7,7.2-10,14.1-13.2,22.2c-1.6,4.1-2.9,8.3-2.7,12.8C499.3,516.1,514.4,541.2,538.2,559.8z M733,384
			c-0.7-0.5-1.3-1-1.9-1.4C732.5,382.2,732.5,382.2,733,384z"/>
	</g>
	<g>
		<g>
			<g>
				<path class="st7" d="M654.4,452.6c1,0.3,1.8,0.5,2.5,0.7c1.6,0.5,3.3,0.9,4.9,1.5c2.8,1,5.6,2,8.2,3.4c1.7,0.8,3.7,0.9,5.2,2.5
					c0.7,0.8,2.4,0.7,3.6,1c0.7,0.2,1.8-0.6,2,0.9c0,0.1,1,0.1,1.6,0.1c0,1.2,0,2.3,0,3.5c0,1.8-1.2,2-2.6,2c-0.2,0-0.4,0.1-0.8,0.2
					c0.1,0.4,0.1,0.8,0.2,1.4c-0.7-0.2-1.2-0.3-1.7-0.5c-1.4-0.4-2.7-0.9-3.9,0.6c-0.2,0.3-0.7,0.4-1.1,0.4
					c-2.3-0.2-4.5-0.4-7.1-0.6c0.4-0.7,0.6-1.1,0.8-1.4c-0.2-0.1-0.2-0.2-0.3-0.2c-1,0.1-2.1,0-3,0.4c-2.9,1.3-5.7,0.5-8.5,0.1
					c-2.2-0.3-4.3-0.9-6.5-1.2c-0.8-0.1-1.6,0.4-2.4,0.4c-4.5,0.4-8.9,1-13,2.7c-1.6,0.7-3.1,1.7-4.6,2.6c0,0.2,0,0.4-0.1,0.6
					c1.7,0.4,3.4,0.9,5.1,1.2c7.7,1.6,15.6,1,23.4,1.4c6.3,0.3,12.7,0.5,19,0.6c3.4,0,6.8-0.5,10.2-0.6c7.8-0.2,15.6-0.3,23.4-0.2
					c2.6,0,5.1,0.9,7.6,1.6c3.8,1.1,7.5,2.1,11.2,3.5c3.9,1.5,6.4,4.7,9,7.8c1.4,1.7,3.1,3.1,4.4,4.8c1.5,1.9,3,3.9,4.1,6
					c2,3.7,2.9,7.8,2.8,11.9c-0.1,6.9-2.7,12.6-9.5,15.5c-3.2,1.4-6.3,3-9.6,3.9c-3.2,0.9-6.5,1.3-9.9,1.6c-4.3,0.5-8.7,1.1-13,1
					c-6.9-0.1-13.7-0.8-20.6-1.1c-3.7-0.2-7.5,0.1-11.2-0.2c-5.4-0.5-10.8-1.4-16.2-2.1c-4.7-0.6-9.4-1.2-14.1-1.9
					c-3.3-0.4-6.6-1.1-10-1.3c-4.5-0.3-9.1-0.8-13.5-0.2c-3.2,0.4-6.3,2.3-7.6,5.9c-0.7,1.8-0.5,2.4,1.3,3.2
					c3.6,1.8,7.4,2.4,11.3,2.9c3.1,0.4,6.2,1,9.3,1.2c3.5,0.3,7,0.5,10.6,0.5c5.3,0,10.7-0.3,16-0.4c6.3-0.1,12.6,0.3,18.9-0.4
					c8.8-0.9,17.5-0.9,26.3-0.9c4.1,0,8.3-0.3,12.4,0c6.2,0.5,11.7,2.5,15.6,7.8c3.5,4.6,7,9.2,10.4,13.9c2.6,3.6,4,7.8,4.6,12.1
					c0.2,1.5-0.9,3.4-1.8,4.8c-0.8,1.2-2.2,2-3.2,2.8c0,0.1-0.1-0.2-0.2-0.7c-1.3,0.8-2.4,1.8-3.6,2.3c-1.7,0.8-3.5,1.7-5.3,1.9
					c-2.4,0.2-4.8-0.3-7.3-0.5c-0.7-0.1-1.5-0.3-2.2-0.2c-3,0.3-5.7-0.7-8.4-1.7c-1.1-0.4-2-1.3-3.1-2c-0.2-0.2-0.6-0.4-0.7-0.3
					c-1.7,0.8-2.9-0.1-4.1-1.2c0.1-0.6,0.2-1.2,0.3-1.7c5.4-2.7,10.8-5.2,16.1-7.9c0.8-0.4,2.4-0.7,1.8-2.5c-0.1-0.2,0.9-0.7,1.4-1
					c-0.1-0.2-0.2-0.3-0.3-0.5c-1.3-0.1-2.6-0.2-4-0.3c-2.5-0.2-4.9-0.5-7.4-0.4c-3.2,0.1-6.5,0.6-9.7,0.7
					c-9.3,0.3-18.6,0.6-27.9,0.9c-4.9,0.1-9.9,0.4-14.8,0.4c-6.6,0-13.3,0.9-19.9-0.5c-4.5-0.9-9.2-1-13.7-2
					c-3.5-0.8-6.8-2.4-10.1-3.8c-2.2-1-4.3-2.1-6.2-3.5c-4.8-3.7-9.1-7.8-12.4-13c-2.2-3.5-3.6-7.3-4.9-11.1
					c-0.6-1.8-0.7-3.8-0.8-5.7c-0.4-4.8-0.3-9.7,1.6-14.2c0.8-2.1,2-4.1,3.5-5.7c2.2-2.4,5.2-3.7,8.3-4.8c5.7-1.9,11.3-0.7,16.9,0.3
					c5.5,1,11,1.5,16.5,2.4c4.2,0.7,8.4,1.8,12.7,2.4c5,0.7,10,1.3,15,1.7c5.5,0.5,11.1,0.7,16.7,1.1c1.2,0.1,2.4,0,4.1,0
					c-1.8-0.9-3.1-1.5-4.8-1c-0.7,0.2-1.6,0-2.3-0.4c6.4,0,12.8,0.2,19.2-0.1c6.5-0.3,13.1-0.7,19.4-2.8c1.8-0.6,3.6-1.5,5.3-2.3
					c0-0.2,0-0.3,0-0.5c-0.6-0.3-1.1-0.6-1.8-0.8c-4.3-1.4-8.7-2.4-13.3-2.3c-6.4,0.1-12.7,0-19.1,0.1c-5,0-10.1,0.3-15.1,0.2
					c-4.9-0.1-9.8-0.4-14.8-0.6c-1.5-0.1-2.9,0.1-4.4-0.1c-4.7-0.4-9.4-0.6-14-1.5c-3.8-0.7-7.5-2.2-11.2-3.4
					c-2.8-0.9-5.6-1.9-8.3-3c-2.2-0.9-4.7-1.8-6.4-3.4c-1.9-1.8-3-4.5-4.5-6.7c-1.9-2.8-2.2-6.2-3-9.4c-0.6-2.5,0.7-4.7,2.1-6.6
					c0.3-0.4,0.8-0.7,0.9-1.2c1.4-3.9,4.7-5.4,8.1-6.8c5.1-2.2,10.6-2.4,16-2.6c1.3,0,2.6,0.3,3.9,0.2c1.7-0.1,3.4-0.5,5.1-0.6
					c1.2-0.1,2.4,0.1,3.5,0C654,453.8,655.1,454.1,654.4,452.6z"/>
				<path class="st7" d="M791.5,523.9c3,0.9,5.6,2.2,8.2,2.4c3.9,0.4,7.8-0.1,11.7-0.1c3.8,0,7.5,0.1,11.3,0.3c6,0.4,12,0.9,18,1.4
					c1.3,0.1,2.7,0.4,4,0.8c3.4,1.1,6.9,2.1,9.4,4.6c1.7,1.7,3,3.8,4.4,5.7c0.8,1.1,1.5,2.2,2.2,3.4c0.3,0.5,0.6,1.1,0.7,1.7
					c0.1,2,0.3,4.1,0.2,6.1c-0.1,1.1-0.7,2.2-1.3,3.1c-1.5,2.2-3,4.4-4.6,6.6c-0.2,0.3-0.5,0.6-0.8,0.8c-2.9,1.9-5.7,3.7-9.5,3.6
					c-2.2-0.1-4.4,0.7-6.7,1.1c-2.5,0.4-4.9,0.8-7.4,1.2c-1.2,0.2-2.3,0.7-3.5,0.6c-3.3-0.2-6.5-0.5-9.7-0.8
					c-1.8-0.2-3.5-0.6-5.3-0.9c0.5-2.5-3.5-5-7.8-5.5c-0.7-1-1.1-1.8-1.7-2.3c-1.6-1.3-2.2-3-1.1-4.7c0.2-0.4,1-0.6,1.5-0.7
					c3.5-0.1,7-0.3,10.6-0.3c3.5,0.1,7,0.5,10.5,0.5c2.6,0,4.2-1.8,5.7-3.6c1.2-1.4,2.9-2.5,2.4-5c-0.8,0-1.6,0-2.4,0
					c-5.8-0.1-11.6-0.4-17.4-0.3c-3.3,0-6.5,0.1-9.8-0.3c-4.1-0.5-8.3-0.3-12.5-0.5c-2.3-0.1-4.5,0.3-6.8,0.5
					c-7.6,0.9-14.8-0.6-19.4-7.6c-1.5-2.3-2.4-5.1-3-7.8c-0.7-2.9-0.9-6-1.1-9.1c-0.3-4.8,4.5-10.5,8.9-10.1
					c2.1,0.2,3.6-0.5,5.3-1.2c6.9-2.7,14.1-4.2,21.6-4.1c3.5,0,7-0.3,10.5-0.2c4.8,0.2,9.5,0.7,14.2,1.2c4.3,0.4,8.7,1,13,1.5
					c7.6,0.7,15.1,1.5,22.7,1.9c3.8,0.2,7.7-0.2,11.6-0.6c4.7-0.5,9.3-1.3,14-2c3.2-0.5,6.3-1.5,8.9-3.6c0.8-0.6,1.4-1.4,2.4-2.3
					c-1-0.1-1.5-0.1-1.9-0.1c-4.8-0.4-9.6-0.8-14.3-1.2c-1.2-0.1-2.4-0.1-3.6,0c-3.2,0.3-6.4,0.8-9.6,1c-1.7,0.1-3.3,0-5-0.2
					c1.9-0.3,3.8-0.6,5.7-0.9c0-0.2,0-0.5-0.1-0.7c-2.3,0-4.6-0.1-6.9,0c-1.7,0.1-3.2,0-4.9-0.9c-1.5-0.8-3.5-0.6-5.3-0.9
					c-3.9-0.5-7.9-0.5-11.7-1.5c-4.3-1.1-8.4-3-11.6-6.1c-1-1-1.6-2.5-2.3-3.8c-0.4-0.7-0.6-1.5-1-2.1c-1.6-2.3-1.9-5-2.2-7.6
					c-0.1-0.9-0.3-1.7-0.5-2.5c-0.2-1.2-0.3-2.4-0.4-3.5c6.4-2.9,12.6-5.8,18.9-8.7c0-0.1,0-0.1,0-0.2c-1.6,0.1-3.3,0.2-4.9,0.3
					c-4.6,0.3-9.3,0.8-14,0.9c-4.3,0.1-8.6-0.6-12.6-2.4c-2-0.8-4.2-0.9-6.2-1.3c1.1-0.7,1.1-2.2-0.1-3.2c-0.6-0.5-1.1-1.3-1.5-2
					c-0.5-0.9-0.7-2.1-2.2-1.8c-0.2,0-0.6-0.3-0.6-0.5c-0.2-3-2.5-5.3-2.5-8.4c0-0.4-0.6-0.8-0.9-1.2c1.1-2.8,4.1-4.1,7.8-3.7
					c4.5,0.5,9,1.2,13.5,1.2c4.7,0,9.5-0.8,14.2-1.1c2.3-0.1,4.6-0.1,6.8,0c0.9,0.1,1.7,0.8,2.7,1.4c0.8-0.7,1.7-0.2,2.9,0.6
					c2.5,1.8,5.3,3.3,8,4.9c2.3,1.4,4.7,2.5,6.8,4.2c2.8,2.2,5.3,4.8,7.9,7.3c0.2,0.2,0.5,0.4,0.6,0.6c0.9,2.4,1.9,4.7,2.8,7.1
					c0.2,0.4,0,1,0,1.2c0.4,0.7,1.3,1.4,1.2,2c-0.1,1.7,0.4,3.5-1.2,4.9c-0.7,0.6-1,1.8-1.7,2.4c-0.9,0.7-2,1-3.1,1.5
					c-0.1-0.3-0.2-0.6-0.3-1c-0.3,0.1-0.5,0.2-0.5,0.3c-0.5,1.6-1.7,1.7-3.1,1.9c-3,0.5-5.9,1.4-8.9,2.1c0,0.3,0,0.6,0.1,0.8
					c1.7,0.1,3.4,0.3,5,0.2c4.6-0.3,9.2-0.6,13.8-1c3.1-0.2,6.2-0.8,9.3-0.7c2.7,0.1,5.3,1,8,1.5c1.1,0.2,2.2,0.1,3.2,0.4
					c3.9,0.9,7,3.3,10.3,5.3c1.6,1,3.3,1.8,4.9,2.6c1.7,0.8,3.6,1.3,5.2,2.3c1.3,0.7,2.3,2,3.4,2.9c0.7,0.6,1.1,1.6,2.5,1.3
					c0.4-0.1,1.2,1.5,1.8,2.3c0.7,1.1,1.5,2.2,2,3.5c0.7,1.7,1,3.6,1.5,5.4c0.7,2.3,0.8,4.8,0.2,7c-0.7,2.8-1.7,5.6-4.1,7.6
					c-6,5-13.3,6.1-20.6,7.2c-4.4,0.6-8.9,1.3-13.4,1.6c-3.8,0.2-7.6,0-11.4-0.4c-6.1-0.5-12.1-1.1-18.1-2c-3.5-0.5-7-1.4-10.5-2.1
					c-2.7-0.5-5.4-0.8-8-1.5c-4.7-1.2-9.4-1.9-14.3-1.9c-4,0-8.1-0.8-12.1-0.5c-4.4,0.4-8.6,1.8-12.9,2.8
					C792.7,522.8,792.3,523.2,791.5,523.9z"/>
				<path class="st7" d="M621.3,403c0.5,0.1,0.9,0.3,1.4,0.3c4.9,0.3,9.8,0.6,14.6,0.7c3.1,0.1,6.3-0.2,9.4-0.3c0.5,0,1,0.1,1.5,0.3
					c3,1.3,5.8,2.8,8.9,3.8c2.8,0.9,4.7,2.8,6.7,4.7c0.8,0.7,1.8,1.3,2.7,1.9c1.3,0.8,2.5,1.6,3.8,2.4c2.6,1.6,3.3,4.4,4.6,6.8
					c0.1,0.1-0.4,0.6-0.3,0.5c0.4,1,0.7,1.8,0.9,2.7c0.3,1.4,0.4,2.7,0.5,4.1c0,0.4-0.2,0.9-0.5,1.2c-2.3,2.3-4.7,4.4-8,5.2
					c-1.2,0.3-3,0.1-3.2,2.1c0,0.2-0.7,0.3-1,0.4c-2.2,0.6-4.5,1-6.5,1.9c-4.4,2-9.1,0.9-13.6,1.3c-4.3,0.4-8.6,0.5-12.9,0.8
					c-5.1,0.4-10.2,0.7-15.2,1.4c-2.9,0.4-6.1,0.2-8.6,2.1c-1.9,1.4-3.8,2.9-5.1,4.8c-0.7,1.1-0.3,3.1-0.2,4.6
					c0.1,1.3,0.5,2.6,0.5,3.8c0.1,3.8-1.4,6.6-4.8,8.5c-5,2.8-10.4,3.9-16.2,3.9c-4.7-0.1-9.4,0.1-14,0.6c-2.1,0.2-4.2,1.4-6,2.5
					c-3,1.8-5.9,3.8-8.5,6.3c-2.8,2.7-6.3,5.3-10.8,3.6c-0.3-0.1-0.7-0.2-1-0.1c-1.5,0.6-2.2-0.3-3-1.3c-0.5-0.7-1.3-1.1-2-1.7
					c-1.9-1.6-3.8-3.2-4.6-5.7c-0.3-0.8-0.9-1.4-1.3-2.2c-0.2-0.5-0.4-1.2-0.2-1.6c3.1-4.9,6.6-9.5,11.9-12.4
					c4.8-2.7,9.9-3.7,15.5-3.5c6,0.2,12,0,17.8-1.9c2.5-0.8,3-2.1,2.7-5.7c-0.3-2.8-1.2-5.9,0.7-8.4c2.5-3.3,4.9-6.8,9-8.4
					c4.1-1.6,8.1-3.2,12.3-4.2c2.9-0.7,6.1-0.5,9.1-0.8c4.3-0.4,8.5-1.1,12.8-1.4c3.7-0.3,7.4-0.2,11-0.5c3.4-0.2,6.9-0.6,10.3-0.9
					c1.8-0.1,3.6,0.1,5.3-0.1c1.2-0.1,2.3-0.7,3.5-1.1c0-0.2-0.1-0.4-0.1-0.6c-0.7,0-1.4,0-2.1,0c-4.2,0.1-8.3,0.2-12.5,0.3
					c-0.6,0-1.1,0.2-1.7,0.2c-0.7,0-1.4-0.1-2-0.3c-0.9,0.2-1.8,0.5-2.7,0.6c-3.9,0.3-7.7,0.5-11.6,0.7c-1.6,0-3.2-0.5-4.8-0.5
					c-3.1,0.1-6.2,0.4-9.3,0.5c-1.2,0-2.5,0-3.6-0.3c-3.9-1.3-8.3-1.6-11.4-4.8c-1.1-1.1-2.4-2-3.6-2.9c-2.6-2-2.4-5.2-3.2-8
					c-0.5-1.6-0.8-3.2-1.4-4.7c-0.4-1.1-1.5-1.9-0.8-3.3c0.1-0.1-0.2-0.5-0.3-0.7c-0.6-1.6-1.4-3.1-1.6-4.7c-0.3-2.5,0.9-4,3.9-4.9
					c2.7-0.8,5.5-1.3,8.2-2.1c3.3-1.1,6.6-2.5,9.9-3.6c1.8-0.6,3.6-1.1,5.4-1.4c2.8-0.5,5.7-0.8,8.6-1.1c1.8-0.2,3.6-0.4,5.4-0.2
					c5,0.4,10,0.7,15,1.4c2.4,0.3,4.6,1.9,5.4,4.2c1.1,3.2,2.4,6.6,0.5,10.1c-0.7,1.4-3.6,3-5.2,3C630.8,400.9,626,401.5,621.3,403z
					"/>
				<path class="st7" d="M674,375.1c0.5,0.1,0.9,0.2,1.6,0.3c-0.1-0.6-0.1-1.1-0.2-1.9c2.4-0.2,4.8-0.4,7.2-0.5
					c3.9-0.3,7.9-0.6,11.8-0.9c4.3-0.3,8.6-0.7,12.9-0.7c3.3,0,6.7,0.4,10,0.7c2.3,0.2,4.7,0.4,6.9,0.9c5.1,1.1,10.2,2.3,14.8,4.9
					c2.7,1.6,5.2,3.7,7.7,5.6c0.5,0.4,1,1,1.5,1.4c5.1,3.6,7.2,9.1,9.1,14.7c0.9,2.6,0.7,5.2-0.7,8.3c3.6-0.4,6.7-0.7,9.9-1.1
					c4.4-0.5,8.8-1.1,13.2-1.5c3.5-0.4,7.1-0.7,10.6-1c0.6,0,1.1,0.3,1.9,0.5c1.3-1.5,3.4-1,5.3-1.3c3.3-0.5,6.7-0.9,10-1.2
					c2.5-0.2,4.7,0.4,7,1.6c2.8,1.5,5.6,3.2,9.1,2.6c0.4-0.1,0.8,0.1,1.1,0.2c1.4,0.8,2.9,1.6,4.3,2.5c0.6,0.4,1.1,1.1,1.5,1.5
					c0.9,0.3,1.7,0.5,2.4,0.9c1.6,1,3.1,2.3,4.8,3.2c1.2,0.7,2.7,0.8,4,1.4c2.4,1,3.5,4.1,2.5,6.3c-0.7,1.6-2.4,1.2-3.6,1.7
					c-0.4,0.2-0.8,0.3-0.8,0.3c-1.9,0.3-3.5,0.2-4.9,0.8c-2.4,1.1-4.9,1.1-7.4,0.6c-0.5-0.1-0.9-0.6-1.3-1c-0.6-0.6-1-1.4-1.6-2
					c-0.9-0.9-2-0.8-2.5,0.4c-0.8,1.6-2.2,1.4-3.5,1.4c-5.1,0.2-10.1-0.3-15.2,0.7c-3,0.6-6.1,0.3-9.2,0.7
					c-4.9,0.6-9.7,1.5-14.6,2.1c-4.5,0.6-9,1.2-13.5,1.6c-6.5,0.6-13,1.2-19.5,1.5c-4.2,0.2-8.5-0.4-12.8-0.4
					c-2.6,0-5.2,0.3-7.8,0.5c-2.7,0.1-5.4,0.4-8.1,0.3c-4.6-0.2-9.1-0.9-13.7-0.8c-6.5,0.2-10-3.7-13-8.5c-1.9-3-3.7-6.2-3.4-10
					c0.4-4.8,1.4-9.4,5.6-12.8c0.1,0.7,0.2,1.3,0.3,1.8c0.2,0,0.4,0,0.6,0.1c0.1-0.7,0.2-1.4,0.3-2.1c1.5-0.3,1.3-0.5,2.9-2.1
					c1.3-1.3,3.1-2.1,4.7-3c0.6-0.4,1.3-0.5,2-1.2c-2.3-0.1-4.7-0.3-7-0.4c-4.1-0.2-8.3-0.2-12.4-0.4c-3.4-0.1-6.9-0.3-10.3-0.6
					c-1.6-0.1-3-0.5-3.8-2.3c-0.4-0.9-1.6-1.4-2.4-2.1c-2.6-2.3-3.2-6.3-2.7-9.8c0.4-2.9,2.3-3.9,4.1-5.4c1.3-1,3.8-0.6,4.6,0.7
					c0.3,0.5,0.1,1.4,0.2,2.1C674.4,375,674.2,375.1,674,375.1z"/>
				<path class="st7" d="M469.7,649.1c2.2-0.2,4.4-0.2,6.6-0.5c4.8-0.6,9.4-1.7,12.9-5.4c0.8-0.9,1.5-2,2.2-3c2-3.2,3.9-6.3,5.8-9.6
					c0.7-1.2,1.2-2.6,1.8-3.8c0.7-1.4,1.5-2.7,2.1-4.2c0.7-1.5,1.3-3.1,1.9-4.7c2.1-5.6,4.1-11.2,6.1-16.8c1.7-4.7,3.5-9.4,5.3-14
					c-0.4,1.5-0.8,3.1-1.3,4.7c1.5-0.9,6-16.5,5.8-20.4c-0.7,2.7-1.1,5-1.7,7.2c-0.7,2.2-1.6,4.2-2.5,6.3c0.4-1.6,0.9-3.2,1.2-4.8
					c1-4.7,2-9.5,3-14.3c0.7-3.2,1.3-6.3,2-9.5c0.9-4.3,1.5-8.7,2.8-12.9c2.3-8,5.4-15.6,10.7-22.1c2.9-3.6,5.8-7.2,10.4-8.9
					c2.3-0.8,4.6-1.1,7-0.7c4.8,0.7,9.7,1.1,14.5,1.9c3.8,0.7,7.4,1.8,11,3.5c3.8,1.8,6.4,4.6,9,7.6c1.8,2.1,2.3,4.7,2.7,7.3
					c0.1,0.8,0.1,1.6-0.1,2.2c-0.6,0.9-1.4,1.8-1.7,2.8c-0.5,2.1-0.6,4.2-1,6.3c-0.1,0.5-0.7,0.8-0.9,1.3c-0.5,1.1-0.8,2.3-1.2,3.5
					c-0.1,0.2,0,0.4,0,0.9c-0.5-0.7-0.7-1.1-1.1-1.7c-1,0.7-1.8,1.5-2.8,2c-0.6,0.3-1.5,0.2-2.2,0.4c-1.1,0.3-2.1,0.6-3.2,0.9
					c-0.4,0.1-0.8,0.3-1.2,0.5c-0.7,0.2-1.4,0.4-2.1,0.5c-1-0.3-2.1-0.8-3.2-0.9c-1.2-0.1-1.7-0.6-2-1.6c-1.5-5.6-2.8-11.2-3.1-17
					c0-0.1-0.1-0.2-0.4-0.6c-1.3,2-2.8,3.8-3.8,5.9c-2.8,5.4-4.9,11-5.8,17c-0.7,4.7-1.8,9.3-2.7,13.9c-0.9,5.1-1.6,10.3-2.8,15.4
					c-1.1,4.6-2.6,9.1-4.1,13.6c-1.1,3.4-2.3,6.7-3.4,10.1c-2.1,6.4-4.2,12.8-7.4,18.7c-2.4,4.4-4.6,8.9-7.1,13.3
					c-2.1,3.6-4.3,7.1-6.9,10.3c-3,3.7-7,6.2-11.5,7.4c-4.5,1.2-9.1,2.1-13.8,2.5c-3.6,0.3-7.4-0.1-10.7-2.3
					c-0.5-0.3-1.2-0.6-1.7-0.6c-2.5,0.1-5-1.2-6.4-2.6c-1.5-1.5-4.1-1.9-4.8-4.2C469.6,649.8,469.7,649.6,469.7,649.1z M525.2,540.9
					c0.2,0.1,0.4,0.1,0.5,0.2c0.6-1.8,1.2-3.6,1.7-5.4c-0.2-0.1-0.3-0.1-0.5-0.2C526.4,537.3,525.8,539.1,525.2,540.9z M519.1,570.4
					c0.2,0,0.4,0,0.5,0.1c0.3-1.8,0.5-3.6,0.8-5.4c-0.2,0-0.4-0.1-0.6-0.1C519.6,566.7,519.3,568.5,519.1,570.4z"/>
				<path class="st7" d="M778,472.3c4.4,0.1,8.7,0.2,13,0.4c2.5,0.1,5.1,0,7.4,0.7c3.4,0.9,6.7,2.3,8.1,6.1c0.4,1.2,1.4,2.2,1.9,3.5
					c0.3,0.8,0.1,1.8,0.1,2.8c0,0.1-0.1,0.1,0,0.2c1.3,1.3,1,2.8,1.1,4.4c0.1,1.4-0.5,2.7-1.8,2.8c-2.4,0.2-4.7-0.1-6-2.6
					c-0.6-1.1-1.5-0.6-2.2-0.1c-1.7,1.4-3.6,2.1-5.8,2.2c-1,0-2.1-0.1-3.1,0c-1.2,0.1-2.3,0.5-3.4,0.7c-2.1,0.3-4.3,0.6-6.4,0.7
					c-4.5,0-9-0.2-13.5-0.2c-1.2,0-2.4,0.5-3.5,0.8c-0.4,0.1-0.8,0.4-1.1,0.3c-3-0.3-6.2-0.2-8.9-1.7c-2.8-1.7-5.9-3-7.8-5.9
					c-2.6-4-3.6-8.4-1.9-13c0.8-2.4,2.2-4.5,3.3-6.8c0.9-1.9,2.7-2.2,4.5-2.6c0.7-0.1,1.2-0.7,1.9-1.1c-0.5-0.5-0.9-1.4-1.5-1.6
					c-1.9-0.5-3.9-0.7-5.9-1c-3.3-0.4-6.5-1-9.8-1.2c-3.1-0.2-6.2-0.2-9.3-0.1c-2.3,0.1-4.4-0.7-6.6-1c-3.3-0.4-6.7-0.4-10-0.7
					c-2.7-0.3-5.3-1-8-1.1c-3.6-0.2-5.3-3.3-8-4.9c-0.4-0.2-0.3-1-0.6-1.5c-0.9-1.6-1.7-3.3-2.8-4.8c-1.4-2-1.5-4.2-1.6-6.5
					c0-0.3,1.1-1,1.2-0.9c1.7,1.2,3.6,0.6,5.3,0.5c4.4-0.2,8.8-0.8,13.2-1.1c6.8-0.5,13.5-0.9,20.3-0.2c3.5,0.4,7.1,0.3,10.7,0.8
					c4,0.6,8.1,0.7,11.8,2.6c2.9,1.5,6.1,2.5,9,4c1.6,0.8,3.2,2,4.4,3.4c2.2,2.7,5.4,4.4,6.8,7.9c0.8,2,2.5,3.6,3.8,5.4
					c2,2.7,2.3,5.8,1.9,9.1C778,471.5,778,471.8,778,472.3z"/>
				<path class="st7" d="M475.2,603.8c-1.7-0.1-2.9,1.8-4.5,0.4c0.9-1.6,1.9-3.1,2.7-4.8c1.1-2.2,2.1-4.5,3.1-6.8
					c2.4-6,4.8-12.1,7.2-18.1c1.7-4.2,3.9-8.3,5.3-12.7c1.6-5.1,2.5-10.3,3.5-15.5c1.5-7.4,2.4-15,4.2-22.4
					c1.7-6.7,4.2-13.3,8.1-19.2c2.5-3.6,5.7-6.3,10-7.6c3.3-1,6.5-2.4,9.8-3.1c3.8-0.8,7.7-1,11.6-1.3c1.1-0.1,2.3,0.2,3.3,0.5
					c2.5,0.9,5,1.7,7.3,3c1.8,1,3.3,2.6,5,4c0.4,0.4,0.2,2.4,0,3c-0.2,0.6-0.1,1.2-0.9,1.7c-0.9,0.5-1.5,1.4-2.3,2.3
					c0,0,0.2,0.4,0.6,1.1c-0.7,0-1.3,0.1-1.8,0c-1.3-0.3-2.6-0.7-3.9-0.8c-0.4-0.1-0.8,0.4-1.1,0.6c-3-1.2-6.2-2.5-9.3-3.8
					c-1.2-0.5-2-0.2-2.8,0.8c-3.2,3.8-5.3,8.1-7.2,12.6c-2.4,5.8-2.8,12-3.8,18c-1.1,6.6-2,13.4-3.9,19.8c-2,7.2-4.8,14.2-10.2,19.7
					c-1.2,1.2-2,2.9-2.7,4.5c-2.5,5.8-5.5,11.3-8.9,16.6c-2.5,3.9-6,6.1-10.1,7.7c-0.5,0.2-1,0.1-1.5,0.1c-1.2,0.2-2.5,0.5-3.7,0.6
					C477.2,605.1,475.8,605.5,475.2,603.8z"/>
				<path class="st7" d="M785.8,579.4c-1.4-0.9-2.4-0.7-2.6,1.2c-1.5-1.1-2.4-0.4-3.3,0.6c-0.6,0.7-1.1,1.1-1.9,0.2
					c-0.2-0.2-1.2,0.3-1.8,0.8c-2.3,0.3-4.5,0.6-6.8,0.9c0.1-0.1,0.1-0.3,0.2-0.4c-1.1-0.6-2.1-1.4-3.2-1.8c-1.1-0.4-2-0.8-1.8-2.2
					c0-0.2,0-0.4-0.1-0.5c-2.9-3.3-1.2-6.7-0.3-10.1c0.7-2.6,1.4-5.1,0.9-7.8c-0.1-0.4-0.5-0.8-0.8-1.1c-3.6-2.6-7.3-5.2-11-7.7
					c-1-0.6-2.1-1-2.9-1.7c-0.7-1-1.2-2.2-2.1-3c-0.4-0.4-1.5-0.1-2.1-0.1c0-0.6,0.2-1.5-0.1-2.3c-0.3-0.8-1-1.5-1.7-2.4
					c0.7-2.2,1.9-2.4,4.4-1.6c2.3,0.7,4.7,1.8,7.3,0.6c0.2-0.1,0.3-0.3,0.4-0.2c2,0.9,4.3,0.1,6.4,1.4c2.7,1.6,5.6,2.9,8.5,4
					c4.1,1.5,7.5,4.1,11.1,6.6c2,1.4,4.1,2.6,6,4.2c3.3,2.7,4.7,6.4,5.3,10.5c0.1,0.5-0.4,1.1-0.7,1.7c-0.4,0.6-0.7,1.3-1.2,1.8
					c-0.7,0.8-1.3,1.8-2.2,2.3c-1.6,0.8-2.9,1.7-3.1,3.7C786.7,577.7,786.2,578.5,785.8,579.4z"/>
				<path class="st7" d="M609.4,487.6c0.3,0.9,0.5,1.9,1,2.7c1.2,2,0.6,3.8-1.7,4.8c-2.8,1.2-5.7,1.4-8.7,1.4
					c-2.6,0-4.6,1.4-6.5,2.9c-2.2,1.8-4.3,3.6-6.6,5.3c-1.5,1.1-2,2-1.5,3.8c0.6,2.3-0.9,4.3-3.3,4.5c-2.2,0.2-4.5,0-6.3-1.1
					c-3.3-2-6.4-4.3-8.4-7.8c-0.9-1.6-1.9-3.1-2.7-4.7c-1.2-2.5-0.5-5.1,0.7-7.3c3.4-6.2,8.4-10.2,15.7-11.2
					c4.3-0.6,8.5-0.1,12.7,0.7c0.7,0.1,1.4,0.1,2,0c1.7-0.1,3.4-0.1,4.7,1.3c0.5,0.6,1.5,0.7,2.3,1.1c1.3,0.7,2.5,1.5,3.7,2.3
					C607.4,486.7,608.4,487.1,609.4,487.6z"/>
				<path class="st7" d="M650.7,504.3c-3-0.5-6.1-1-9.1-1.5c3.1,0.2,6.3-0.7,9.1,1.3C650.7,504.2,650.7,504.3,650.7,504.3z"/>
			</g>
		</g>
		<g class="st8">
			<path class="st9" d="M744.6,580.5L744.6,580.5C744.6,580.5,744.6,580.5,744.6,580.5z"/>
			<path class="st9" d="M717.7,563.9c2.5-0.1,4.9,0.3,7.4,0.4c1.3,0.1,2.6,0.2,4,0.3c0.1,0.2,0.2,0.3,0.3,0.5
				c-0.5,0.3-1.5,0.9-1.4,1c0.6,1.7-0.9,2-1.8,2.5c-5.3,2.7-10.6,5.3-16.1,7.9c-0.1,0.5-0.2,1.1-0.3,1.7c1.2,1.1,2.4,2,4.1,1.2
				c0.2-0.1,0.5,0.2,0.7,0.3c1,0.7,1.9,1.6,3.1,2c2.7,1,5.4,2,8.4,1.7c0.7-0.1,1.5,0.1,2.2,0.2c2.4,0.2,4.9,0.7,7.3,0.5
				c1.8-0.2,3.6-1.1,5.3-1.9c1.3-0.6,2.3-1.5,3.6-2.3c0.1,0.3,0.2,0.6,0.2,0.7c1-0.8,2.4-1.6,3.2-2.8c0.9-1.4,2.1-3.3,1.8-4.8
				c-0.7-4.3-2-8.5-4.6-12.1c-3.4-4.7-7-9.2-10.4-13.9c-1.2-1.6-2.5-2.9-4-3.9c2.8,9.5-2.6,16.1-12.3,18.3
				c-5.3,1.2-10.9,1.1-16.3,1.9c-2.8,0.4-5.5,1.1-8.2,2c4.7-0.1,9.4-0.3,14.1-0.5C711.2,564.5,714.4,564,717.7,563.9z"/>
			<path class="st9" d="M624.7,471.9c2-2.2,4.9-3.5,7.1-5.5c2.2-2,3.7-5.5,1.9-8c-4.6,0-9.1,0.2-13.7,0.7c-1.5,1.1-2.8,2.4-3.5,4.5
				c-0.2,0.5-0.7,0.8-0.9,1.2c-1.4,2-2.7,4.2-2.1,6.6c0.7,3.2,1,6.6,3,9.4c1.5,2.2,2.6,4.9,4.5,6.7c0.4,0.4,0.9,0.8,1.5,1.1
				C621.4,482.8,620.8,476.3,624.7,471.9z"/>
			<path class="st9" d="M856.1,549.9c-1.1,0.9-2.5,1.4-3.9,1.7c-8,2-16.3,1-24.6,0.1c-0.9,0.6-1.8,1-3,0.9c-3.5,0-7-0.5-10.5-0.5
				c-3.5-0.1-7,0.1-10.6,0.3c-0.5,0-1.2,0.3-1.5,0.7c-1,1.7-0.5,3.4,1.1,4.7c0.6,0.5,1,1.3,1.7,2.3c4.2,0.4,8.3,3,7.8,5.5
				c1.8,0.3,3.5,0.7,5.3,0.9c3.2,0.4,6.5,0.7,9.7,0.8c1.2,0.1,2.3-0.4,3.5-0.6c2.5-0.4,4.9-0.8,7.4-1.2c2.2-0.4,4.5-1.2,6.7-1.1
				c3.7,0.1,6.6-1.7,9.5-3.6c0.3-0.2,0.6-0.5,0.8-0.8c1.5-2.2,3.1-4.3,4.6-6.6c0.6-0.9,1.3-2,1.3-3.1c0.2-2,0-4.1-0.2-6.1
				c0-0.6-0.3-1.2-0.7-1.7c-0.5-0.8-1-1.7-1.5-2.5c-0.2,0.1-0.4,0.1-0.5,0.2C858.8,543.7,858.8,547.7,856.1,549.9z"/>
			<path class="st9" d="M529.3,475.1c0.3,0.8,1,1.4,1.3,2.2c0.8,2.5,2.7,4.1,4.6,5.7c0.7,0.6,1.4,1,2,1.7c0.8,1,1.5,1.9,3,1.3
				c0.3-0.1,0.7,0,1,0.1c4.6,1.7,8-0.9,10.8-3.6c2.6-2.5,5.5-4.5,8.5-6.3c1.8-1.1,3.9-2.3,6-2.5c4.6-0.5,9.4-0.6,14-0.6
				c5.8,0.1,11.1-1.1,16.2-3.9c2.9-1.6,4.4-3.9,4.7-7c-5.7,1.5-11.3,3.3-16.7,5.5c-3.5,1.4-7,3-10.7,3.5c-3,0.4-6.1-0.1-9.1,0.1
				c-5.8,0.3-11.4,2.6-17.2,2.9c-5.6,0.3-12.1-2.3-13.6-7.6c-1.9,2.1-3.5,4.4-5,6.8C528.9,473.9,529.1,474.7,529.3,475.1z"/>
			<path class="st9" d="M568.1,550.8c1.1,0.1,2.2,0.6,3.2,0.9c0.7-0.2,1.4-0.3,2.1-0.5c0.4-0.1,0.8-0.3,1.2-0.5
				c1.1-0.3,2.1-0.6,3.2-0.9c0.7-0.2,1.6,0,2.2-0.4c1-0.5,1.8-1.3,2.8-2c0.3,0.5,0.6,1,1.1,1.7c0-0.5-0.1-0.7,0-0.9
				c0.4-1.2,0.7-2.4,1.2-3.5c0.2-0.5,0.8-0.8,0.9-1.3c0.4-2.1,0.5-4.3,1-6.3c0.2-1,1.1-1.9,1.7-2.8c0.3-0.6,0.3-1.4,0.1-2.2
				c-0.4-2.6-0.8-5.2-2.7-7.3c-0.6-0.8-1.3-1.5-2-2.2c0,3.7,0,7.4-1.1,11c-1.2,4.1-4,8-8.1,9.4c-1.6,0.6-3.2,0.7-4.9,0.7
				c-2.2,0-4.2-1.4-5.9-1.8c0.5,2.4,1.1,4.8,1.8,7.1C566.4,550.2,566.9,550.7,568.1,550.8z"/>
			<path class="st9" d="M764.6,578.1c0.1,0.1,0.1,0.3,0.1,0.5c-0.2,1.4,0.7,1.8,1.8,2.2c1.1,0.5,2.1,1.2,3.2,1.8
				c-0.1,0.1-0.1,0.3-0.2,0.4c2.3-0.3,4.5-0.6,6.8-0.9c0.6-0.5,1.6-1,1.8-0.8c0.9,0.9,1.3,0.5,1.9-0.2c0.8-1,1.8-1.6,3.3-0.6
				c0.2-1.9,1.2-2,2.6-1.2c0.4-0.9,0.9-1.7,1-2.6c0.3-2,1.5-2.8,3.1-3.7c0.9-0.5,1.5-1.5,2.2-2.3c0.5-0.6,0.8-1.2,1.2-1.8
				c0.3-0.5,0.8-1.2,0.7-1.7c-0.4-2.8-1.2-5.5-2.8-7.8c-0.5,1.2-0.7,2.6-0.6,4.2c0.4,2.9-1.2,5.7-3.5,7.5c-2.2,1.8-5.1,2.8-7.9,3.5
				c-2.7,0.7-5.5,1.2-8.2,0.7c-2.7-0.5-5.3-2.4-6-5c-0.3-1-0.3-2.1-0.6-3.1c0,0,0-0.1,0-0.1c-0.1,0.3-0.1,0.5-0.2,0.8
				C763.4,571.4,761.7,574.8,764.6,578.1z"/>
			<path class="st9" d="M581,499c-5.8-0.1-11.5-2.6-15.6-6.6c0,0-0.1-0.1-0.1-0.1c-1.1,2.2-1.7,4.6-0.6,7c0.8,1.6,1.8,3.1,2.7,4.7
				c2,3.5,5.1,5.8,8.4,7.8c1.9,1.1,4.1,1.3,6.3,1.1c2.4-0.2,4-2.2,3.3-4.5c-0.5-1.8,0-2.7,1.5-3.8c1.7-1.2,3.3-2.6,4.9-4
				C589.1,498.6,584.7,499.1,581,499z"/>
			<path class="st9" d="M610.4,490.3c-0.5-0.8-0.7-1.8-1-2.7c-1-0.5-1.9-0.9-2.9-1.4c-1.3-0.7-2.5-1.5-3.7-2.3
				c-0.7-0.4-1.7-0.5-2.3-1.1c-1.4-1.4-3-1.4-4.7-1.3c-0.7,0-1.4,0.1-2,0c-4.2-0.7-8.4-1.3-12.7-0.7c-0.1,0-0.2,0-0.3,0
				c2.1,0.1,4.1,0.4,6.2,0.7c4.4,0.7,8.9,1.5,12.6,4.1c3.4,2.3,5.9,6.5,5.4,10.5c1.3-0.2,2.5-0.5,3.7-1
				C610.9,494.1,611.6,492.3,610.4,490.3z"/>
			<path class="st9" d="M650.7,504.1c-2.8-2-6-1.1-9.1-1.3c3,0.5,6,1,9.1,1.5C650.7,504.3,650.7,504.2,650.7,504.1z"/>
		</g>
	</g>
	<g>
		<path class="st6" d="M538.2,559.8c6.4,5,13.2,9.5,20.3,13.5c3.9,1.8,7.9,3.6,11.9,5.5c17.8,8.2,39.5,11.2,58.5,16.1
			c39.3,10.2,80.6,8.3,121,5c29.6-2.4,57.1-5.6,85.4-13.9c4.1-1.2,8-2.4,10.9-5.8c1-1.1,2.6-1.8,4-2.5c11.6-6.2,23.5-11.6,34.5-18.8
			c15-9.8,29.8-19.8,42.8-32.2c8.7-9.1,15-19,15.7-29.7c1.8-27.9-18.6-51-39.5-67.8c-6.7-5.4-13.7-10.4-20.7-15.5
			c-3.8-2.8-7.8-5.4-11.6-8.1c-1.3-0.9-2.6-1.8-3.9-2.6c-4.5-2.6-9-5.1-14.1-6.3c-1.7-0.4-3.1-1.1-4.6-2c-3.5-2.2-6.9-4.4-10.5-6.4
			c-8.9-4.8-18.7-7.2-28.3-10.3c-4.8-1.6-9.9-2.4-14.8-3.8c-7.6-2.1-15.2-3.9-23.1-4.5c-3.1-0.2-6.2-0.5-9.2-1
			c-11.9-2.2-24-3-36.2-3.2c-5.3-0.1-10.7,0-16,0c0-0.2,0-0.5,0-0.7c-3.7,0-7.5,0-11.2,0c-8.3-0.1-16.6,1-24.8,2
			c-7.2,0.9-14.4,1.5-21.5,2.5c-4,0.5-7.9,1.8-11.8,2.4c-8.4,1.2-16.7,3.3-24.8,5.7c-21.7,6.3-41.6,16.1-59.8,29.1
			c-2.9,2.1-5.8,4.2-8.2,6.8c-0.9,1-2.1,1.7-3.1,2.7c-2.6,2.5-5.4,4.9-7.8,7.7c-2.9,3.4-5.3,7.2-8.1,10.6c-3,3.6-6.5,6.9-9.5,10.6
			c-1.9,2.3-4.1,4.2-5.8,6.8c-4.7,7.2-10,14.1-13.2,22.2c-1.6,4.1-2.9,8.3-2.7,12.8C499.3,516.1,514.4,541.2,538.2,559.8z M733,384
			c-0.7-0.5-1.3-1-1.9-1.4C732.5,382.2,732.5,382.2,733,384z"/>
	</g>
	<g>
		<g>
			<g>
				<path class="st10" d="M654.4,452.6c1,0.3,1.8,0.5,2.5,0.7c1.6,0.5,3.3,0.9,4.9,1.5c2.8,1,5.6,2,8.2,3.4c1.7,0.8,3.7,0.9,5.2,2.5
					c0.7,0.8,2.4,0.7,3.6,1c0.7,0.2,1.8-0.6,2,0.9c0,0.1,1,0.1,1.6,0.1c0,1.2,0,2.3,0,3.5c0,1.8-1.2,2-2.6,2c-0.2,0-0.4,0.1-0.8,0.2
					c0.1,0.4,0.1,0.8,0.2,1.4c-0.7-0.2-1.2-0.3-1.7-0.5c-1.4-0.4-2.7-0.9-3.9,0.6c-0.2,0.3-0.7,0.4-1.1,0.4
					c-2.3-0.2-4.5-0.4-7.1-0.6c0.4-0.7,0.6-1.1,0.8-1.4c-0.2-0.1-0.2-0.2-0.3-0.2c-1,0.1-2.1,0-3,0.4c-2.9,1.3-5.7,0.5-8.5,0.1
					c-2.2-0.3-4.3-0.9-6.5-1.2c-0.8-0.1-1.6,0.4-2.4,0.4c-4.5,0.4-8.9,1-13,2.7c-1.6,0.7-3.1,1.7-4.6,2.6c0,0.2,0,0.4-0.1,0.6
					c1.7,0.4,3.4,0.9,5.1,1.2c7.7,1.6,15.6,1,23.4,1.4c6.3,0.3,12.7,0.5,19,0.6c3.4,0,6.8-0.5,10.2-0.6c7.8-0.2,15.6-0.3,23.4-0.2
					c2.6,0,5.1,0.9,7.6,1.6c3.8,1.1,7.5,2.1,11.2,3.5c3.9,1.5,6.4,4.7,9,7.8c1.4,1.7,3.1,3.1,4.4,4.8c1.5,1.9,3,3.9,4.1,6
					c2,3.7,2.9,7.8,2.8,11.9c-0.1,6.9-2.7,12.6-9.5,15.5c-3.2,1.4-6.3,3-9.6,3.9c-3.2,0.9-6.5,1.3-9.9,1.6c-4.3,0.5-8.7,1.1-13,1
					c-6.9-0.1-13.7-0.8-20.6-1.1c-3.7-0.2-7.5,0.1-11.2-0.2c-5.4-0.5-10.8-1.4-16.2-2.1c-4.7-0.6-9.4-1.2-14.1-1.9
					c-3.3-0.4-6.6-1.1-10-1.3c-4.5-0.3-9.1-0.8-13.5-0.2c-3.2,0.4-6.3,2.3-7.6,5.9c-0.7,1.8-0.5,2.4,1.3,3.2
					c3.6,1.8,7.4,2.4,11.3,2.9c3.1,0.4,6.2,1,9.3,1.2c3.5,0.3,7,0.5,10.6,0.5c5.3,0,10.7-0.3,16-0.4c6.3-0.1,12.6,0.3,18.9-0.4
					c8.8-0.9,17.5-0.9,26.3-0.9c4.1,0,8.3-0.3,12.4,0c6.2,0.5,11.7,2.5,15.6,7.8c3.5,4.6,7,9.2,10.4,13.9c2.6,3.6,4,7.8,4.6,12.1
					c0.2,1.5-0.9,3.4-1.8,4.8c-0.8,1.2-2.2,2-3.2,2.8c0,0.1-0.1-0.2-0.2-0.7c-1.3,0.8-2.4,1.8-3.6,2.3c-1.7,0.8-3.5,1.7-5.3,1.9
					c-2.4,0.2-4.8-0.3-7.3-0.5c-0.7-0.1-1.5-0.3-2.2-0.2c-3,0.3-5.7-0.7-8.4-1.7c-1.1-0.4-2-1.3-3.1-2c-0.2-0.2-0.6-0.4-0.7-0.3
					c-1.7,0.8-2.9-0.1-4.1-1.2c0.1-0.6,0.2-1.2,0.3-1.7c5.4-2.7,10.8-5.2,16.1-7.9c0.8-0.4,2.4-0.7,1.8-2.5c-0.1-0.2,0.9-0.7,1.4-1
					c-0.1-0.2-0.2-0.3-0.3-0.5c-1.3-0.1-2.6-0.2-4-0.3c-2.5-0.2-4.9-0.5-7.4-0.4c-3.2,0.1-6.5,0.6-9.7,0.7
					c-9.3,0.3-18.6,0.6-27.9,0.9c-4.9,0.1-9.9,0.4-14.8,0.4c-6.6,0-13.3,0.9-19.9-0.5c-4.5-0.9-9.2-1-13.7-2
					c-3.5-0.8-6.8-2.4-10.1-3.8c-2.2-1-4.3-2.1-6.2-3.5c-4.8-3.7-9.1-7.8-12.4-13c-2.2-3.5-3.6-7.3-4.9-11.1
					c-0.6-1.8-0.7-3.8-0.8-5.7c-0.4-4.8-0.3-9.7,1.6-14.2c0.8-2.1,2-4.1,3.5-5.7c2.2-2.4,5.2-3.7,8.3-4.8c5.7-1.9,11.3-0.7,16.9,0.3
					c5.5,1,11,1.5,16.5,2.4c4.2,0.7,8.4,1.8,12.7,2.4c5,0.7,10,1.3,15,1.7c5.5,0.5,11.1,0.7,16.7,1.1c1.2,0.1,2.4,0,4.1,0
					c-1.8-0.9-3.1-1.5-4.8-1c-0.7,0.2-1.6,0-2.3-0.4c6.4,0,12.8,0.2,19.2-0.1c6.5-0.3,13.1-0.7,19.4-2.8c1.8-0.6,3.6-1.5,5.3-2.3
					c0-0.2,0-0.3,0-0.5c-0.6-0.3-1.1-0.6-1.8-0.8c-4.3-1.4-8.7-2.4-13.3-2.3c-6.4,0.1-12.7,0-19.1,0.1c-5,0-10.1,0.3-15.1,0.2
					c-4.9-0.1-9.8-0.4-14.8-0.6c-1.5-0.1-2.9,0.1-4.4-0.1c-4.7-0.4-9.4-0.6-14-1.5c-3.8-0.7-7.5-2.2-11.2-3.4
					c-2.8-0.9-5.6-1.9-8.3-3c-2.2-0.9-4.7-1.8-6.4-3.4c-1.9-1.8-3-4.5-4.5-6.7c-1.9-2.8-2.2-6.2-3-9.4c-0.6-2.5,0.7-4.7,2.1-6.6
					c0.3-0.4,0.8-0.7,0.9-1.2c1.4-3.9,4.7-5.4,8.1-6.8c5.1-2.2,10.6-2.4,16-2.6c1.3,0,2.6,0.3,3.9,0.2c1.7-0.1,3.4-0.5,5.1-0.6
					c1.2-0.1,2.4,0.1,3.5,0C654,453.8,655.1,454.1,654.4,452.6z"/>
				<path class="st10" d="M791.5,523.9c3,0.9,5.6,2.2,8.2,2.4c3.9,0.4,7.8-0.1,11.7-0.1c3.8,0,7.5,0.1,11.3,0.3c6,0.4,12,0.9,18,1.4
					c1.3,0.1,2.7,0.4,4,0.8c3.4,1.1,6.9,2.1,9.4,4.6c1.7,1.7,3,3.8,4.4,5.7c0.8,1.1,1.5,2.2,2.2,3.4c0.3,0.5,0.6,1.1,0.7,1.7
					c0.1,2,0.3,4.1,0.2,6.1c-0.1,1.1-0.7,2.2-1.3,3.1c-1.5,2.2-3,4.4-4.6,6.6c-0.2,0.3-0.5,0.6-0.8,0.8c-2.9,1.9-5.7,3.7-9.5,3.6
					c-2.2-0.1-4.4,0.7-6.7,1.1c-2.5,0.4-4.9,0.8-7.4,1.2c-1.2,0.2-2.3,0.7-3.5,0.6c-3.3-0.2-6.5-0.5-9.7-0.8
					c-1.8-0.2-3.5-0.6-5.3-0.9c0.5-2.5-3.5-5-7.8-5.5c-0.7-1-1.1-1.8-1.7-2.3c-1.6-1.3-2.2-3-1.1-4.7c0.2-0.4,1-0.6,1.5-0.7
					c3.5-0.1,7-0.3,10.6-0.3c3.5,0.1,7,0.5,10.5,0.5c2.6,0,4.2-1.8,5.7-3.6c1.2-1.4,2.9-2.5,2.4-5c-0.8,0-1.6,0-2.4,0
					c-5.8-0.1-11.6-0.4-17.4-0.3c-3.3,0-6.5,0.1-9.8-0.3c-4.1-0.5-8.3-0.3-12.5-0.5c-2.3-0.1-4.5,0.3-6.8,0.5
					c-7.6,0.9-14.8-0.6-19.4-7.6c-1.5-2.3-2.4-5.1-3-7.8c-0.7-2.9-0.9-6-1.1-9.1c-0.3-4.8,4.5-10.5,8.9-10.1
					c2.1,0.2,3.6-0.5,5.3-1.2c6.9-2.7,14.1-4.2,21.6-4.1c3.5,0,7-0.3,10.5-0.2c4.8,0.2,9.5,0.7,14.2,1.2c4.3,0.4,8.7,1,13,1.5
					c7.6,0.7,15.1,1.5,22.7,1.9c3.8,0.2,7.7-0.2,11.6-0.6c4.7-0.5,9.3-1.3,14-2c3.2-0.5,6.3-1.5,8.9-3.6c0.8-0.6,1.4-1.4,2.4-2.3
					c-1-0.1-1.5-0.1-1.9-0.1c-4.8-0.4-9.6-0.8-14.3-1.2c-1.2-0.1-2.4-0.1-3.6,0c-3.2,0.3-6.4,0.8-9.6,1c-1.7,0.1-3.3,0-5-0.2
					c1.9-0.3,3.8-0.6,5.7-0.9c0-0.2,0-0.5-0.1-0.7c-2.3,0-4.6-0.1-6.9,0c-1.7,0.1-3.2,0-4.9-0.9c-1.5-0.8-3.5-0.6-5.3-0.9
					c-3.9-0.5-7.9-0.5-11.7-1.5c-4.3-1.1-8.4-3-11.6-6.1c-1-1-1.6-2.5-2.3-3.8c-0.4-0.7-0.6-1.5-1-2.1c-1.6-2.3-1.9-5-2.2-7.6
					c-0.1-0.9-0.3-1.7-0.5-2.5c-0.2-1.2-0.3-2.4-0.4-3.5c6.4-2.9,12.6-5.8,18.9-8.7c0-0.1,0-0.1,0-0.2c-1.6,0.1-3.3,0.2-4.9,0.3
					c-4.6,0.3-9.3,0.8-14,0.9c-4.3,0.1-8.6-0.6-12.6-2.4c-2-0.8-4.2-0.9-6.2-1.3c1.1-0.7,1.1-2.2-0.1-3.2c-0.6-0.5-1.1-1.3-1.5-2
					c-0.5-0.9-0.7-2.1-2.2-1.8c-0.2,0-0.6-0.3-0.6-0.5c-0.2-3-2.5-5.3-2.5-8.4c0-0.4-0.6-0.8-0.9-1.2c1.1-2.8,4.1-4.1,7.8-3.7
					c4.5,0.5,9,1.2,13.5,1.2c4.7,0,9.5-0.8,14.2-1.1c2.3-0.1,4.6-0.1,6.8,0c0.9,0.1,1.7,0.8,2.7,1.4c0.8-0.7,1.7-0.2,2.9,0.6
					c2.5,1.8,5.3,3.3,8,4.9c2.3,1.4,4.7,2.5,6.8,4.2c2.8,2.2,5.3,4.8,7.9,7.3c0.2,0.2,0.5,0.4,0.6,0.6c0.9,2.4,1.9,4.7,2.8,7.1
					c0.2,0.4,0,1,0,1.2c0.4,0.7,1.3,1.4,1.2,2c-0.1,1.7,0.4,3.5-1.2,4.9c-0.7,0.6-1,1.8-1.7,2.4c-0.9,0.7-2,1-3.1,1.5
					c-0.1-0.3-0.2-0.6-0.3-1c-0.3,0.1-0.5,0.2-0.5,0.3c-0.5,1.6-1.7,1.7-3.1,1.9c-3,0.5-5.9,1.4-8.9,2.1c0,0.3,0,0.6,0.1,0.8
					c1.7,0.1,3.4,0.3,5,0.2c4.6-0.3,9.2-0.6,13.8-1c3.1-0.2,6.2-0.8,9.3-0.7c2.7,0.1,5.3,1,8,1.5c1.1,0.2,2.2,0.1,3.2,0.4
					c3.9,0.9,7,3.3,10.3,5.3c1.6,1,3.3,1.8,4.9,2.6c1.7,0.8,3.6,1.3,5.2,2.3c1.3,0.7,2.3,2,3.4,2.9c0.7,0.6,1.1,1.6,2.5,1.3
					c0.4-0.1,1.2,1.5,1.8,2.3c0.7,1.1,1.5,2.2,2,3.5c0.7,1.7,1,3.6,1.5,5.4c0.7,2.3,0.8,4.8,0.2,7c-0.7,2.8-1.7,5.6-4.1,7.6
					c-6,5-13.3,6.1-20.6,7.2c-4.4,0.6-8.9,1.3-13.4,1.6c-3.8,0.2-7.6,0-11.4-0.4c-6.1-0.5-12.1-1.1-18.1-2c-3.5-0.5-7-1.4-10.5-2.1
					c-2.7-0.5-5.4-0.8-8-1.5c-4.7-1.2-9.4-1.9-14.3-1.9c-4,0-8.1-0.8-12.1-0.5c-4.4,0.4-8.6,1.8-12.9,2.8
					C792.7,522.8,792.3,523.2,791.5,523.9z"/>
				<path class="st10" d="M621.3,403c0.5,0.1,0.9,0.3,1.4,0.3c4.9,0.3,9.8,0.6,14.6,0.7c3.1,0.1,6.3-0.2,9.4-0.3
					c0.5,0,1,0.1,1.5,0.3c3,1.3,5.8,2.8,8.9,3.8c2.8,0.9,4.7,2.8,6.7,4.7c0.8,0.7,1.8,1.3,2.7,1.9c1.3,0.8,2.5,1.6,3.8,2.4
					c2.6,1.6,3.3,4.4,4.6,6.8c0.1,0.1-0.4,0.6-0.3,0.5c0.4,1,0.7,1.8,0.9,2.7c0.3,1.4,0.4,2.7,0.5,4.1c0,0.4-0.2,0.9-0.5,1.2
					c-2.3,2.3-4.7,4.4-8,5.2c-1.2,0.3-3,0.1-3.2,2.1c0,0.2-0.7,0.3-1,0.4c-2.2,0.6-4.5,1-6.5,1.9c-4.4,2-9.1,0.9-13.6,1.3
					c-4.3,0.4-8.6,0.5-12.9,0.8c-5.1,0.4-10.2,0.7-15.2,1.4c-2.9,0.4-6.1,0.2-8.6,2.1c-1.9,1.4-3.8,2.9-5.1,4.8
					c-0.7,1.1-0.3,3.1-0.2,4.6c0.1,1.3,0.5,2.6,0.5,3.8c0.1,3.8-1.4,6.6-4.8,8.5c-5,2.8-10.4,3.9-16.2,3.9c-4.7-0.1-9.4,0.1-14,0.6
					c-2.1,0.2-4.2,1.4-6,2.5c-3,1.8-5.9,3.8-8.5,6.3c-2.8,2.7-6.3,5.3-10.8,3.6c-0.3-0.1-0.7-0.2-1-0.1c-1.5,0.6-2.2-0.3-3-1.3
					c-0.5-0.7-1.3-1.1-2-1.7c-1.9-1.6-3.8-3.2-4.6-5.7c-0.3-0.8-0.9-1.4-1.3-2.2c-0.2-0.5-0.4-1.2-0.2-1.6
					c3.1-4.9,6.6-9.5,11.9-12.4c4.8-2.7,9.9-3.7,15.5-3.5c6,0.2,12,0,17.8-1.9c2.5-0.8,3-2.1,2.7-5.7c-0.3-2.8-1.2-5.9,0.7-8.4
					c2.5-3.3,4.9-6.8,9-8.4c4.1-1.6,8.1-3.2,12.3-4.2c2.9-0.7,6.1-0.5,9.1-0.8c4.3-0.4,8.5-1.1,12.8-1.4c3.7-0.3,7.4-0.2,11-0.5
					c3.4-0.2,6.9-0.6,10.3-0.9c1.8-0.1,3.6,0.1,5.3-0.1c1.2-0.1,2.3-0.7,3.5-1.1c0-0.2-0.1-0.4-0.1-0.6c-0.7,0-1.4,0-2.1,0
					c-4.2,0.1-8.3,0.2-12.5,0.3c-0.6,0-1.1,0.2-1.7,0.2c-0.7,0-1.4-0.1-2-0.3c-0.9,0.2-1.8,0.5-2.7,0.6c-3.9,0.3-7.7,0.5-11.6,0.7
					c-1.6,0-3.2-0.5-4.8-0.5c-3.1,0.1-6.2,0.4-9.3,0.5c-1.2,0-2.5,0-3.6-0.3c-3.9-1.3-8.3-1.6-11.4-4.8c-1.1-1.1-2.4-2-3.6-2.9
					c-2.6-2-2.4-5.2-3.2-8c-0.5-1.6-0.8-3.2-1.4-4.7c-0.4-1.1-1.5-1.9-0.8-3.3c0.1-0.1-0.2-0.5-0.3-0.7c-0.6-1.6-1.4-3.1-1.6-4.7
					c-0.3-2.5,0.9-4,3.9-4.9c2.7-0.8,5.5-1.3,8.2-2.1c3.3-1.1,6.6-2.5,9.9-3.6c1.8-0.6,3.6-1.1,5.4-1.4c2.8-0.5,5.7-0.8,8.6-1.1
					c1.8-0.2,3.6-0.4,5.4-0.2c5,0.4,10,0.7,15,1.4c2.4,0.3,4.6,1.9,5.4,4.2c1.1,3.2,2.4,6.6,0.5,10.1c-0.7,1.4-3.6,3-5.2,3
					C630.8,400.9,626,401.5,621.3,403z"/>
				<path class="st10" d="M674,375.1c0.5,0.1,0.9,0.2,1.6,0.3c-0.1-0.6-0.1-1.1-0.2-1.9c2.4-0.2,4.8-0.4,7.2-0.5
					c3.9-0.3,7.9-0.6,11.8-0.9c4.3-0.3,8.6-0.7,12.9-0.7c3.3,0,6.7,0.4,10,0.7c2.3,0.2,4.7,0.4,6.9,0.9c5.1,1.1,10.2,2.3,14.8,4.9
					c2.7,1.6,5.2,3.7,7.7,5.6c0.5,0.4,1,1,1.5,1.4c5.1,3.6,7.2,9.1,9.1,14.7c0.9,2.6,0.7,5.2-0.7,8.3c3.6-0.4,6.7-0.7,9.9-1.1
					c4.4-0.5,8.8-1.1,13.2-1.5c3.5-0.4,7.1-0.7,10.6-1c0.6,0,1.1,0.3,1.9,0.5c1.3-1.5,3.4-1,5.3-1.3c3.3-0.5,6.7-0.9,10-1.2
					c2.5-0.2,4.7,0.4,7,1.6c2.8,1.5,5.6,3.2,9.1,2.6c0.4-0.1,0.8,0.1,1.1,0.2c1.4,0.8,2.9,1.6,4.3,2.5c0.6,0.4,1.1,1.1,1.5,1.5
					c0.9,0.3,1.7,0.5,2.4,0.9c1.6,1,3.1,2.3,4.8,3.2c1.2,0.7,2.7,0.8,4,1.4c2.4,1,3.5,4.1,2.5,6.3c-0.7,1.6-2.4,1.2-3.6,1.7
					c-0.4,0.2-0.8,0.3-0.8,0.3c-1.9,0.3-3.5,0.2-4.9,0.8c-2.4,1.1-4.9,1.1-7.4,0.6c-0.5-0.1-0.9-0.6-1.3-1c-0.6-0.6-1-1.4-1.6-2
					c-0.9-0.9-2-0.8-2.5,0.4c-0.8,1.6-2.2,1.4-3.5,1.4c-5.1,0.2-10.1-0.3-15.2,0.7c-3,0.6-6.1,0.3-9.2,0.7
					c-4.9,0.6-9.7,1.5-14.6,2.1c-4.5,0.6-9,1.2-13.5,1.6c-6.5,0.6-13,1.2-19.5,1.5c-4.2,0.2-8.5-0.4-12.8-0.4
					c-2.6,0-5.2,0.3-7.8,0.5c-2.7,0.1-5.4,0.4-8.1,0.3c-4.6-0.2-9.1-0.9-13.7-0.8c-6.5,0.2-10-3.7-13-8.5c-1.9-3-3.7-6.2-3.4-10
					c0.4-4.8,1.4-9.4,5.6-12.8c0.1,0.7,0.2,1.3,0.3,1.8c0.2,0,0.4,0,0.6,0.1c0.1-0.7,0.2-1.4,0.3-2.1c1.5-0.3,1.3-0.5,2.9-2.1
					c1.3-1.3,3.1-2.1,4.7-3c0.6-0.4,1.3-0.5,2-1.2c-2.3-0.1-4.7-0.3-7-0.4c-4.1-0.2-8.3-0.2-12.4-0.4c-3.4-0.1-6.9-0.3-10.3-0.6
					c-1.6-0.1-3-0.5-3.8-2.3c-0.4-0.9-1.6-1.4-2.4-2.1c-2.6-2.3-3.2-6.3-2.7-9.8c0.4-2.9,2.3-3.9,4.1-5.4c1.3-1,3.8-0.6,4.6,0.7
					c0.3,0.5,0.1,1.4,0.2,2.1C674.4,375,674.2,375.1,674,375.1z"/>
				<path class="st10" d="M469.7,649.1c2.2-0.2,4.4-0.2,6.6-0.5c4.8-0.6,9.4-1.7,12.9-5.4c0.8-0.9,1.5-2,2.2-3
					c2-3.2,3.9-6.3,5.8-9.6c0.7-1.2,1.2-2.6,1.8-3.8c0.7-1.4,1.5-2.7,2.1-4.2c0.7-1.5,1.3-3.1,1.9-4.7c2.1-5.6,4.1-11.2,6.1-16.8
					c1.7-4.7,3.5-9.4,5.3-14c-0.4,1.5-0.8,3.1-1.3,4.7c1.5-0.9,6-16.5,5.8-20.4c-0.7,2.7-1.1,5-1.7,7.2c-0.7,2.2-1.6,4.2-2.5,6.3
					c0.4-1.6,0.9-3.2,1.2-4.8c1-4.7,2-9.5,3-14.3c0.7-3.2,1.3-6.3,2-9.5c0.9-4.3,1.5-8.7,2.8-12.9c2.3-8,5.4-15.6,10.7-22.1
					c2.9-3.6,5.8-7.2,10.4-8.9c2.3-0.8,4.6-1.1,7-0.7c4.8,0.7,9.7,1.1,14.5,1.9c3.8,0.7,7.4,1.8,11,3.5c3.8,1.8,6.4,4.6,9,7.6
					c1.8,2.1,2.3,4.7,2.7,7.3c0.1,0.8,0.1,1.6-0.1,2.2c-0.6,0.9-1.4,1.8-1.7,2.8c-0.5,2.1-0.6,4.2-1,6.3c-0.1,0.5-0.7,0.8-0.9,1.3
					c-0.5,1.1-0.8,2.3-1.2,3.5c-0.1,0.2,0,0.4,0,0.9c-0.5-0.7-0.7-1.1-1.1-1.7c-1,0.7-1.8,1.5-2.8,2c-0.6,0.3-1.5,0.2-2.2,0.4
					c-1.1,0.3-2.1,0.6-3.2,0.9c-0.4,0.1-0.8,0.3-1.2,0.5c-0.7,0.2-1.4,0.4-2.1,0.5c-1-0.3-2.1-0.8-3.2-0.9c-1.2-0.1-1.7-0.6-2-1.6
					c-1.5-5.6-2.8-11.2-3.1-17c0-0.1-0.1-0.2-0.4-0.6c-1.3,2-2.8,3.8-3.8,5.9c-2.8,5.4-4.9,11-5.8,17c-0.7,4.7-1.8,9.3-2.7,13.9
					c-0.9,5.1-1.6,10.3-2.8,15.4c-1.1,4.6-2.6,9.1-4.1,13.6c-1.1,3.4-2.3,6.7-3.4,10.1c-2.1,6.4-4.2,12.8-7.4,18.7
					c-2.4,4.4-4.6,8.9-7.1,13.3c-2.1,3.6-4.3,7.1-6.9,10.3c-3,3.7-7,6.2-11.5,7.4c-4.5,1.2-9.1,2.1-13.8,2.5
					c-3.6,0.3-7.4-0.1-10.7-2.3c-0.5-0.3-1.2-0.6-1.7-0.6c-2.5,0.1-5-1.2-6.4-2.6c-1.5-1.5-4.1-1.9-4.8-4.2
					C469.6,649.8,469.7,649.6,469.7,649.1z M525.2,540.9c0.2,0.1,0.4,0.1,0.5,0.2c0.6-1.8,1.2-3.6,1.7-5.4c-0.2-0.1-0.3-0.1-0.5-0.2
					C526.4,537.3,525.8,539.1,525.2,540.9z M519.1,570.4c0.2,0,0.4,0,0.5,0.1c0.3-1.8,0.5-3.6,0.8-5.4c-0.2,0-0.4-0.1-0.6-0.1
					C519.6,566.7,519.3,568.5,519.1,570.4z"/>
				<path class="st10" d="M778,472.3c4.4,0.1,8.7,0.2,13,0.4c2.5,0.1,5.1,0,7.4,0.7c3.4,0.9,6.7,2.3,8.1,6.1
					c0.4,1.2,1.4,2.2,1.9,3.5c0.3,0.8,0.1,1.8,0.1,2.8c0,0.1-0.1,0.1,0,0.2c1.3,1.3,1,2.8,1.1,4.4c0.1,1.4-0.5,2.7-1.8,2.8
					c-2.4,0.2-4.7-0.1-6-2.6c-0.6-1.1-1.5-0.6-2.2-0.1c-1.7,1.4-3.6,2.1-5.8,2.2c-1,0-2.1-0.1-3.1,0c-1.2,0.1-2.3,0.5-3.4,0.7
					c-2.1,0.3-4.3,0.6-6.4,0.7c-4.5,0-9-0.2-13.5-0.2c-1.2,0-2.4,0.5-3.5,0.8c-0.4,0.1-0.8,0.4-1.1,0.3c-3-0.3-6.2-0.2-8.9-1.7
					c-2.8-1.7-5.9-3-7.8-5.9c-2.6-4-3.6-8.4-1.9-13c0.8-2.4,2.2-4.5,3.3-6.8c0.9-1.9,2.7-2.2,4.5-2.6c0.7-0.1,1.2-0.7,1.9-1.1
					c-0.5-0.5-0.9-1.4-1.5-1.6c-1.9-0.5-3.9-0.7-5.9-1c-3.3-0.4-6.5-1-9.8-1.2c-3.1-0.2-6.2-0.2-9.3-0.1c-2.3,0.1-4.4-0.7-6.6-1
					c-3.3-0.4-6.7-0.4-10-0.7c-2.7-0.3-5.3-1-8-1.1c-3.6-0.2-5.3-3.3-8-4.9c-0.4-0.2-0.3-1-0.6-1.5c-0.9-1.6-1.7-3.3-2.8-4.8
					c-1.4-2-1.5-4.2-1.6-6.5c0-0.3,1.1-1,1.2-0.9c1.7,1.2,3.6,0.6,5.3,0.5c4.4-0.2,8.8-0.8,13.2-1.1c6.8-0.5,13.5-0.9,20.3-0.2
					c3.5,0.4,7.1,0.3,10.7,0.8c4,0.6,8.1,0.7,11.8,2.6c2.9,1.5,6.1,2.5,9,4c1.6,0.8,3.2,2,4.4,3.4c2.2,2.7,5.4,4.4,6.8,7.9
					c0.8,2,2.5,3.6,3.8,5.4c2,2.7,2.3,5.8,1.9,9.1C778,471.5,778,471.8,778,472.3z"/>
				<path class="st10" d="M475.2,603.8c-1.7-0.1-2.9,1.8-4.5,0.4c0.9-1.6,1.9-3.1,2.7-4.8c1.1-2.2,2.1-4.5,3.1-6.8
					c2.4-6,4.8-12.1,7.2-18.1c1.7-4.2,3.9-8.3,5.3-12.7c1.6-5.1,2.5-10.3,3.5-15.5c1.5-7.4,2.4-15,4.2-22.4
					c1.7-6.7,4.2-13.3,8.1-19.2c2.5-3.6,5.7-6.3,10-7.6c3.3-1,6.5-2.4,9.8-3.1c3.8-0.8,7.7-1,11.6-1.3c1.1-0.1,2.3,0.2,3.3,0.5
					c2.5,0.9,5,1.7,7.3,3c1.8,1,3.3,2.6,5,4c0.4,0.4,0.2,2.4,0,3c-0.2,0.6-0.1,1.2-0.9,1.7c-0.9,0.5-1.5,1.4-2.3,2.3
					c0,0,0.2,0.4,0.6,1.1c-0.7,0-1.3,0.1-1.8,0c-1.3-0.3-2.6-0.7-3.9-0.8c-0.4-0.1-0.8,0.4-1.1,0.6c-3-1.2-6.2-2.5-9.3-3.8
					c-1.2-0.5-2-0.2-2.8,0.8c-3.2,3.8-5.3,8.1-7.2,12.6c-2.4,5.8-2.8,12-3.8,18c-1.1,6.6-2,13.4-3.9,19.8c-2,7.2-4.8,14.2-10.2,19.7
					c-1.2,1.2-2,2.9-2.7,4.5c-2.5,5.8-5.5,11.3-8.9,16.6c-2.5,3.9-6,6.1-10.1,7.7c-0.5,0.2-1,0.1-1.5,0.1c-1.2,0.2-2.5,0.5-3.7,0.6
					C477.2,605.1,475.8,605.5,475.2,603.8z"/>
				<path class="st10" d="M785.8,579.4c-1.4-0.9-2.4-0.7-2.6,1.2c-1.5-1.1-2.4-0.4-3.3,0.6c-0.6,0.7-1.1,1.1-1.9,0.2
					c-0.2-0.2-1.2,0.3-1.8,0.8c-2.3,0.3-4.5,0.6-6.8,0.9c0.1-0.1,0.1-0.3,0.2-0.4c-1.1-0.6-2.1-1.4-3.2-1.8c-1.1-0.4-2-0.8-1.8-2.2
					c0-0.2,0-0.4-0.1-0.5c-2.9-3.3-1.2-6.7-0.3-10.1c0.7-2.6,1.4-5.1,0.9-7.8c-0.1-0.4-0.5-0.8-0.8-1.1c-3.6-2.6-7.3-5.2-11-7.7
					c-1-0.6-2.1-1-2.9-1.7c-0.7-1-1.2-2.2-2.1-3c-0.4-0.4-1.5-0.1-2.1-0.1c0-0.6,0.2-1.5-0.1-2.3c-0.3-0.8-1-1.5-1.7-2.4
					c0.7-2.2,1.9-2.4,4.4-1.6c2.3,0.7,4.7,1.8,7.3,0.6c0.2-0.1,0.3-0.3,0.4-0.2c2,0.9,4.3,0.1,6.4,1.4c2.7,1.6,5.6,2.9,8.5,4
					c4.1,1.5,7.5,4.1,11.1,6.6c2,1.4,4.1,2.6,6,4.2c3.3,2.7,4.7,6.4,5.3,10.5c0.1,0.5-0.4,1.1-0.7,1.7c-0.4,0.6-0.7,1.3-1.2,1.8
					c-0.7,0.8-1.3,1.8-2.2,2.3c-1.6,0.8-2.9,1.7-3.1,3.7C786.7,577.7,786.2,578.5,785.8,579.4z"/>
				<path class="st10" d="M609.4,487.6c0.3,0.9,0.5,1.9,1,2.7c1.2,2,0.6,3.8-1.7,4.8c-2.8,1.2-5.7,1.4-8.7,1.4
					c-2.6,0-4.6,1.4-6.5,2.9c-2.2,1.8-4.3,3.6-6.6,5.3c-1.5,1.1-2,2-1.5,3.8c0.6,2.3-0.9,4.3-3.3,4.5c-2.2,0.2-4.5,0-6.3-1.1
					c-3.3-2-6.4-4.3-8.4-7.8c-0.9-1.6-1.9-3.1-2.7-4.7c-1.2-2.5-0.5-5.1,0.7-7.3c3.4-6.2,8.4-10.2,15.7-11.2
					c4.3-0.6,8.5-0.1,12.7,0.7c0.7,0.1,1.4,0.1,2,0c1.7-0.1,3.4-0.1,4.7,1.3c0.5,0.6,1.5,0.7,2.3,1.1c1.3,0.7,2.5,1.5,3.7,2.3
					C607.4,486.7,608.4,487.1,609.4,487.6z"/>
				<path class="st10" d="M650.7,504.3c-3-0.5-6.1-1-9.1-1.5c3.1,0.2,6.3-0.7,9.1,1.3C650.7,504.2,650.7,504.3,650.7,504.3z"/>
			</g>
		</g>
		<g>
			<path class="st11" d="M744.6,580.5L744.6,580.5C744.6,580.5,744.6,580.5,744.6,580.5z"/>
			<path class="st11" d="M717.7,563.9c2.5-0.1,4.9,0.3,7.4,0.4c1.3,0.1,2.6,0.2,4,0.3c0.1,0.2,0.2,0.3,0.3,0.5
				c-0.5,0.3-1.5,0.9-1.4,1c0.6,1.7-0.9,2-1.8,2.5c-5.3,2.7-10.6,5.3-16.1,7.9c-0.1,0.5-0.2,1.1-0.3,1.7c1.2,1.1,2.4,2,4.1,1.2
				c0.2-0.1,0.5,0.2,0.7,0.3c1,0.7,1.9,1.6,3.1,2c2.7,1,5.4,2,8.4,1.7c0.7-0.1,1.5,0.1,2.2,0.2c2.4,0.2,4.9,0.7,7.3,0.5
				c1.8-0.2,3.6-1.1,5.3-1.9c1.3-0.6,2.3-1.5,3.6-2.3c0.1,0.3,0.2,0.6,0.2,0.7c1-0.8,2.4-1.6,3.2-2.8c0.9-1.4,2.1-3.3,1.8-4.8
				c-0.7-4.3-2-8.5-4.6-12.1c-3.4-4.7-7-9.2-10.4-13.9c-1.2-1.6-2.5-2.9-4-3.9c2.8,9.5-2.6,16.1-12.3,18.3
				c-5.3,1.2-10.9,1.1-16.3,1.9c-2.8,0.4-5.5,1.1-8.2,2c4.7-0.1,9.4-0.3,14.1-0.5C711.2,564.5,714.4,564,717.7,563.9z"/>
			<path class="st11" d="M624.7,471.9c2-2.2,4.9-3.5,7.1-5.5c2.2-2,3.7-5.5,1.9-8c-4.6,0-9.1,0.2-13.7,0.7c-1.5,1.1-2.8,2.4-3.5,4.5
				c-0.2,0.5-0.7,0.8-0.9,1.2c-1.4,2-2.7,4.2-2.1,6.6c0.7,3.2,1,6.6,3,9.4c1.5,2.2,2.6,4.9,4.5,6.7c0.4,0.4,0.9,0.8,1.5,1.1
				C621.4,482.8,620.8,476.3,624.7,471.9z"/>
			<path class="st11" d="M856.1,549.9c-1.1,0.9-2.5,1.4-3.9,1.7c-8,2-16.3,1-24.6,0.1c-0.9,0.6-1.8,1-3,0.9c-3.5,0-7-0.5-10.5-0.5
				c-3.5-0.1-7,0.1-10.6,0.3c-0.5,0-1.2,0.3-1.5,0.7c-1,1.7-0.5,3.4,1.1,4.7c0.6,0.5,1,1.3,1.7,2.3c4.2,0.4,8.3,3,7.8,5.5
				c1.8,0.3,3.5,0.7,5.3,0.9c3.2,0.4,6.5,0.7,9.7,0.8c1.2,0.1,2.3-0.4,3.5-0.6c2.5-0.4,4.9-0.8,7.4-1.2c2.2-0.4,4.5-1.2,6.7-1.1
				c3.7,0.1,6.6-1.7,9.5-3.6c0.3-0.2,0.6-0.5,0.8-0.8c1.5-2.2,3.1-4.3,4.6-6.6c0.6-0.9,1.3-2,1.3-3.1c0.2-2,0-4.1-0.2-6.1
				c0-0.6-0.3-1.2-0.7-1.7c-0.5-0.8-1-1.7-1.5-2.5c-0.2,0.1-0.4,0.1-0.5,0.2C858.8,543.7,858.8,547.7,856.1,549.9z"/>
			<path class="st11" d="M529.3,475.1c0.3,0.8,1,1.4,1.3,2.2c0.8,2.5,2.7,4.1,4.6,5.7c0.7,0.6,1.4,1,2,1.7c0.8,1,1.5,1.9,3,1.3
				c0.3-0.1,0.7,0,1,0.1c4.6,1.7,8-0.9,10.8-3.6c2.6-2.5,5.5-4.5,8.5-6.3c1.8-1.1,3.9-2.3,6-2.5c4.6-0.5,9.4-0.6,14-0.6
				c5.8,0.1,11.1-1.1,16.2-3.9c2.9-1.6,4.4-3.9,4.7-7c-5.7,1.5-11.3,3.3-16.7,5.5c-3.5,1.4-7,3-10.7,3.5c-3,0.4-6.1-0.1-9.1,0.1
				c-5.8,0.3-11.4,2.6-17.2,2.9c-5.6,0.3-12.1-2.3-13.6-7.6c-1.9,2.1-3.5,4.4-5,6.8C528.9,473.9,529.1,474.7,529.3,475.1z"/>
			<path class="st11" d="M568.1,550.8c1.1,0.1,2.2,0.6,3.2,0.9c0.7-0.2,1.4-0.3,2.1-0.5c0.4-0.1,0.8-0.3,1.2-0.5
				c1.1-0.3,2.1-0.6,3.2-0.9c0.7-0.2,1.6,0,2.2-0.4c1-0.5,1.8-1.3,2.8-2c0.3,0.5,0.6,1,1.1,1.7c0-0.5-0.1-0.7,0-0.9
				c0.4-1.2,0.7-2.4,1.2-3.5c0.2-0.5,0.8-0.8,0.9-1.3c0.4-2.1,0.5-4.3,1-6.3c0.2-1,1.1-1.9,1.7-2.8c0.3-0.6,0.3-1.4,0.1-2.2
				c-0.4-2.6-0.8-5.2-2.7-7.3c-0.6-0.8-1.3-1.5-2-2.2c0,3.7,0,7.4-1.1,11c-1.2,4.1-4,8-8.1,9.4c-1.6,0.6-3.2,0.7-4.9,0.7
				c-2.2,0-4.2-1.4-5.9-1.8c0.5,2.4,1.1,4.8,1.8,7.1C566.4,550.2,566.9,550.7,568.1,550.8z"/>
			<path class="st11" d="M764.6,578.1c0.1,0.1,0.1,0.3,0.1,0.5c-0.2,1.4,0.7,1.8,1.8,2.2c1.1,0.5,2.1,1.2,3.2,1.8
				c-0.1,0.1-0.1,0.3-0.2,0.4c2.3-0.3,4.5-0.6,6.8-0.9c0.6-0.5,1.6-1,1.8-0.8c0.9,0.9,1.3,0.5,1.9-0.2c0.8-1,1.8-1.6,3.3-0.6
				c0.2-1.9,1.2-2,2.6-1.2c0.4-0.9,0.9-1.7,1-2.6c0.3-2,1.5-2.8,3.1-3.7c0.9-0.5,1.5-1.5,2.2-2.3c0.5-0.6,0.8-1.2,1.2-1.8
				c0.3-0.5,0.8-1.2,0.7-1.7c-0.4-2.8-1.2-5.5-2.8-7.8c-0.5,1.2-0.7,2.6-0.6,4.2c0.4,2.9-1.2,5.7-3.5,7.5c-2.2,1.8-5.1,2.8-7.9,3.5
				c-2.7,0.7-5.5,1.2-8.2,0.7c-2.7-0.5-5.3-2.4-6-5c-0.3-1-0.3-2.1-0.6-3.1c0,0,0-0.1,0-0.1c-0.1,0.3-0.1,0.5-0.2,0.8
				C763.4,571.4,761.7,574.8,764.6,578.1z"/>
			<path class="st11" d="M581,499c-5.8-0.1-11.5-2.6-15.6-6.6c0,0-0.1-0.1-0.1-0.1c-1.1,2.2-1.7,4.6-0.6,7c0.8,1.6,1.8,3.1,2.7,4.7
				c2,3.5,5.1,5.8,8.4,7.8c1.9,1.1,4.1,1.3,6.3,1.1c2.4-0.2,4-2.2,3.3-4.5c-0.5-1.8,0-2.7,1.5-3.8c1.7-1.2,3.3-2.6,4.9-4
				C589.1,498.6,584.7,499.1,581,499z"/>
			<path class="st11" d="M610.4,490.3c-0.5-0.8-0.7-1.8-1-2.7c-1-0.5-1.9-0.9-2.9-1.4c-1.3-0.7-2.5-1.5-3.7-2.3
				c-0.7-0.4-1.7-0.5-2.3-1.1c-1.4-1.4-3-1.4-4.7-1.3c-0.7,0-1.4,0.1-2,0c-4.2-0.7-8.4-1.3-12.7-0.7c-0.1,0-0.2,0-0.3,0
				c2.1,0.1,4.1,0.4,6.2,0.7c4.4,0.7,8.9,1.5,12.6,4.1c3.4,2.3,5.9,6.5,5.4,10.5c1.3-0.2,2.5-0.5,3.7-1
				C610.9,494.1,611.6,492.3,610.4,490.3z"/>
			<path class="st11" d="M650.7,504.1c-2.8-2-6-1.1-9.1-1.3c3,0.5,6,1,9.1,1.5C650.7,504.3,650.7,504.2,650.7,504.1z"/>
		</g>
	</g>
	<g>
		<path class="st12" d="M496.8,390c-0.3-2.1-0.9-4.2-1.7-6.2c-3-7.2-10.4-12.9-16.5-17.4c-0.5-0.4-1-0.9-1.6-1.2
			c-7.5-3.6-14.9-7.4-22.5-10.8c-9-4-18.2-7.5-27.2-11.6c-14-6.3-27.9-12.8-41.8-19.3c-4.4-2-8.9-3.7-13.1-6
			c-13.1-7.1-27.2-9.7-41.9-9.2c-8.3,0.3-16.4,3-22.9,7.3c-6.4,4.3-14.9,7.9-16.7,17.2c0,0.2-0.2,0.4-0.4,0.5
			c-12.4,16.8-20.2,35.9-28.4,54.8c-3.3,7.6-7,15.1-10.7,22.6c-5.1,10.2-10.6,20.2-15.3,30.6c-8.8,19.4-17.2,39-25.9,58.4
			c-1,2.1-3.3,4-5.4,5.2c-7.5,4.2-15,8.2-22.7,11.8c-10.3,4.9-20.8,9.3-31.2,14c-5.6,2.5-11.3,4.8-16.8,7.6
			c-4.2,2.1-7.3,5.5-9.3,9.9c-3.5,7.8-7.1,15.6-10.6,23.4c-3.2,7.2-6.3,14.5-9.7,21.6c-0.8,1.7-2.6,2.8-3.8,4
			c-0.6,2.3-0.9,4.9-1.8,7.2c-5.7,13.5-11.2,27.1-15.3,41.3c-8,27.8-16.3,55.6-31.1,80.8c-2.5,4.3-4.6,9-7.8,12.9
			c-11.8,14.2-23.6,28.4-36.1,41.9c-2.8,3-5.7,6-8.5,9V966h110.4c0.8-1.6,1.5-3.1,2.3-4.7c7.4-15.4,14.9-30.8,22.3-46.2
			c5.7-11.8,11.2-23.7,16.8-35.6c1.4-2.9,2.5-6,4.1-8.8c5.7-10.1,11.5-20.1,17.5-30.1c2.2-3.7,4.7-7.3,7.3-10.9
			c4.6-6.4,9.2-12.6,13.8-18.9c2.8-3.9,5.1-8.4,8.6-11.4c3.5-3,8.4-6.5,12.6-6.4c7.7,0.2,13.4-3.8,18.3-7.7
			c10-8,21.2-13.9,31.7-21.1c7.7-5.3,16-9.7,22.6-16.9c7.2-7.9,15.4-15,23-22.6c5.6-5.6,10.9-11.3,19.8-10.8
			c1.3,0.1,2.6-0.5,3.9-0.7c8.5-1.1,12.3-8.2,16.9-14c1.2-1.6,2.1-2.9,4-3.8c3.1-1.6,6.1-2.3,9.5-1.9c1.4,0.2,3.4,0.1,4.4-0.7
			c7.2-5.6,14.8-10.6,19.6-18.8c2.3-3.9,2.8-7,0.9-10.9c-2.2-4.2-1.8-6.7,2.1-8.8c7.6-4.1,11.7-11.1,15.5-18.3
			c2.9-5.5,3.6-11.4-0.2-16.8c-3.5-4.9-7.4-9.6-11.7-15c1.1-1.8,2.7-4.3,4-6.5c10.9-2.3,21.6-1.9,31.3-7.7
			c7.8-4.7,12.6-11.2,15.5-19.4c0.3-0.8,0.5-1.7,0.3-2.5c-2.2-9.3-6-17.5-15.9-21c-1.8-0.6-3.5-1.6-5.6-2.5c1.8-4.4,3-8.6,5-12.4
			c5.1-9.6,10.4-19.1,16-28.3c6.7-11.1,13.8-21.9,20.7-32.9c2.4-3.8,5.5-7.4,7.3-11.5c3-6.7,4.8-13.7,9.1-20.1
			c4.8-7.2,6.9-16.2,9.4-24.5C495.7,406.9,498.3,399,496.8,390z"/>
		<path class="st3" d="M292.8,342.3c-8.1,12.6-13,27-18.6,40.8c-14.3,35-33.7,67.6-49.8,101.8c-7.2,15.3-13.8,30.9-20.3,46.5
			c-8.8,20.9-17.5,41.8-26.3,62.6c36-6,72.2-10.8,108.5-14.4c3.9-0.4,8.6-0.4,10.9,2.7c2.2,3,1,7.2-0.7,10.5
			c-5,9.9-13.6,17.8-23.9,22.1c-6,2.5-12.5,3.7-18.5,6.2c-15.3,6.3-26.1,20.1-36.1,33.3c18.3,4.1,37.2,8.5,52.1,19.8
			c6.9,5.3,12.9,12,20.6,16.1c13.9,7.4,31.7,4.5,44.9-4.2c13.1-8.7,22.1-22.5,28.5-37c6.3-14.4,10.3-29.8,15.7-44.6
			c20.8-57.4,61.5-105.3,89.3-159.7c8.9-17.4,16.6-36.3,15.3-55.8c-0.2-2.6-0.6-5.3-2.1-7.4c-1.5-2-4-3.2-6.3-4.2
			c-28.1-12.4-56.1-24.9-84.2-37.3c-18.3-8.1-38.6-19.1-58.4-23C315.8,313.8,301.4,328.8,292.8,342.3z"/>
		<g>
			<path class="st4" d="M368,350.8c0-2.5,1-3.6,3.5-3.1c2.7,0.6,5.3,1.5,7.8,2.6c7.2,3.2,14.4,6.6,21.5,9.9c2.9,1.3,5.7,6.4,4.6,9.3
				c-0.5,1.2-2.2,2.5-3.4,2.5c-2.5,0-5.1-0.4-7.5-1.2c-4.5-1.7-8.8-3.6-13.1-5.8c-3.5-1.8-6.8-4.1-10.2-6.1
				C368.2,357.1,368.5,353.8,368,350.8z"/>
			<path class="st4" d="M420.7,375.9c-3.4,3.1-6.8,1.1-10.1,0c-2-0.7-3.2-4.8-2.5-6.7c0.9-2.3,3.1-3.4,5.7-3.1
				C419.6,366.8,421.7,369.8,420.7,375.9z"/>
		</g>
		<g>
			<path class="st13" d="M412.1,576c9.7-3.2,13.8-12.8,8.9-23.2C417.9,561.3,414.1,568.1,412.1,576z"/>
			<path class="st13" d="M366.7,663.9c-1.6,4.4-3.3,8.8-5,13.2c0.4,0.3,0.8,0.7,1.2,1c4.8-4.1,9.3-8.3,9-15.5
				C369.4,661.5,367.6,661.3,366.7,663.9z"/>
			<path class="st13" d="M71.7,966c4.6-9.8,9.2-19.6,14.2-29.2c10-19,21.1-37.5,31.4-56.4c6.4-11.8,12.1-23.9,18.4-35.7
				c10.6-20.1,23-38.9,40.4-54c1.5-1.3,2.3-3.4,3.2-4.7c2.7-0.4,5.4-0.2,7.6-1.3c15.7-7.7,31.5-15.4,45-27
				c11.3-9.7,23.4-18.5,34.9-28c4-3.3,7.3-7.6,10.9-11.5c4.6-4.9,8.1-8.8,13.6-12.6c1.2-0.8,1.8-2.6,2.1-3.9
				c-6.2,1.4-14.9-8-19.8-11.2c-6.9-4.5-14-8.6-21.9-11.1c-3.6-1.1-7.6,0-10.9-1.8c-5-2.7-9.9-5.5-16-4.2c-1.1,0.2-2.4-0.7-3.6-1.1
				c-2.2-0.8-4.4-1.7-6.7-2.5c-1.3,5.9-2.8,11.2-3.6,16.5c-2.1,14-9.4,25.4-18.3,35.7c-2.9,3.4-8,5-12.2,7.2
				c-3.3,1.7-6.7,4.1-10.1,4.3c-4.8,0.2-9.8,3.8-15.1-0.9c0.6-1.4,1.2-3.2,2.2-4.6c4.4-5.7,8.8-11.6,13.6-16.9
				c10.4-11.6,16.3-25.5,21.2-39.9c2.1-6.2,3.5-12.5,5.8-20.5c9.8-10.5,22.7-20.2,36.6-28.9c4.4-2.7,8.9-4.4,14-5.2
				c3.8-0.6,7.6-0.5,11.2-1c10.1-1.4,22.2-4.5,28.7-13c3.1-4,4.5-9.1,5.9-14c0.2-0.6,0.3-1.1,0.2-1.7c-0.3-1.9-2.8-2.4-4.7-2.4
				c-8.4-0.1-16.8-0.2-25.2-0.3c-6.9-0.1-9.1,1.7-14.9,4.2c-6.7,2.9-15.6,3.5-22.9,4.8c-8.1,1.5-16.3,2.8-24.4,4.2
				c-3.9,0.7-7.7,1.4-11.6,2.3c-1.5,0.3-3,0.9-4.3,1.7c-9.9,6.6-20.7,11.2-32,14.6c-1.6,0.5-3.1,1.6-4.6,2.5
				c-5.1,3.2-10,6.1-16.5,6.3c-3.8,0.1-6.2-1.2-9.5-3.5c1.1-1.5,1.9-3.1,3.1-4c9.6-7.2,19.2-14.4,28.9-21.5
				c3.9-2.8,7.8-5.6,11.9-8.2c3-1.9,5.9-3.9,7-7.5c3.9-12.9,11.4-24.2,17.2-36.2c1-2.1,2.1-4.2,2.4-7.2c-2.2,1.1-4.5,1.9-6.6,3.2
				c-10.9,6.7-22.7,11.4-34.6,15.6c-6,2.1-9.9,6.3-14.1,10.5c-0.9,0.9-1.6,2.3-1.7,3.5c-0.7,9.7-6.8,17.5-9.5,26.6
				c-4.3,14.4-9.9,28.4-14.9,42.6c-0.6,1.7-0.9,3.5-1.8,4.9c-0.5,0.8-1.9,1-3.1,1.6c-0.3,3.4-0.3,3.4,1.8,5.7
				c-2,2.2-4.3,3.7-4.7,7.6c-0.7,7.7-3.1,15.2-4.9,23.3c-1-0.3-1.8-0.6-3.2-1.1c-2.2,7.8-3.8,15.8-6.6,23.3
				c-5,13.1-11,25.7-16.2,38.7C69.4,755,61,764.8,53.2,775c-11.9,15.6-26.6,28.6-39.8,42.9c-3.4,3.6-7.4,6.7-10.8,10.3
				c-0.9,0.9-1.7,1.8-2.6,2.7v135H71.7z"/>
			<path class="st13" d="M389.8,615.3c-1.8,7.5-7.8,13.2-8.3,21.3c5.7-4.7,9.8-10.4,11.6-17.6C393.7,617.1,392.8,615.7,389.8,615.3z
				"/>
			<path class="st13" d="M470,382.8c-8.8-8.1-19.8-13.5-30.7-18.3c-20.8-9.2-41.6-18.3-62.8-26.5c-9.9-3.8-19.8-7.9-30.2-10.1
				c-7.5-1.6-23.6-4.3-30.3,1c-4.6,3.7-8.8,7.9-12.4,12.6c-7.2,9.4-12.6,19.6-16.6,30.8c-4.4,12.4-9.2,24.6-14.5,36.6
				c-5.6,12.9-11.5,25.2-16.2,38.6c-3.6,10.2-9.9,20.1-14.6,29.9c-3.4,7.1-7.2,14.1-9.9,21.6c-5,14-9.2,28.2-16.5,41.3
				c-4.3,7.7-8.7,15.3-13.1,22.8c-0.9,1.4-2.1,3-3.5,3.7c-5.4,2.9-6.7,8.5-10.6,14.3c13.1-2.7,26.1-3.9,39.4-5.4
				c3.8-0.4,7.5-0.8,11.2-1.6c12.9-2.8,24-5,37.3-4.5c4.6,0.2,9.2-0.3,13.7,0.1c7.4,0.6,19.6,1.6,20.3,10.5c0.8,9-2.1,18.9-6.7,26.6
				c-9,15.1-24.4,22.8-41.8,22.4c-5.4-0.1-11.3-0.4-15.9,2.9c-6.8,4.9-11.8,11.5-16.5,18c6.5,4.1,12.3,8.3,18.7,11.6
				c14.7,7.7,29.6,15.2,44.6,22.4c6.9,3.3,14.2,5.6,22.1,6.1c5.8,0.4,9.5-1.9,12.4-6.6c3.9-6.3,8.4-12.3,12.4-18.6
				c5.7-8.8,11.6-17.5,16.6-26.7c5.3-9.8,9.6-20.2,14.5-30.3c5.2-10.4,10.6-20.7,16.1-31c2.9-5.4,6-10.8,9-16.1
				c6.5-11.2,12.5-22.7,19.7-33.5c7-10.4,13.6-21,19.4-32c0.6-1.2,1.6-2.3,1.8-3.5c1.2-6.7,4.4-12.9,7.7-18.5
				c6.2-10.7,11.6-21.7,16.8-32.8c1.4-2.9,1.7-6.5,3.5-8.9c4.7-6.4,7.9-13.9,9.6-21.6c1.1-4.9,2.5-9.9,2.5-15
				C476.9,389,474.2,386.7,470,382.8z M437.5,370.8c0-0.1,0-0.2,0-0.2c0,0,0.1,0,0.1,0.1L437.5,370.8z"/>
			<path class="st4" d="M496.8,390c-0.3-2.1-0.9-4.2-1.7-6.2c-3-7.2-10.4-12.9-16.5-17.4c-0.5-0.4-1-0.9-1.6-1.2
				c-7.5-3.6-14.9-7.4-22.5-10.8c-9-4-18.2-7.5-27.2-11.6c-14-6.3-27.9-12.8-41.8-19.3c-4.4-2-8.9-3.7-13.1-6
				c-13.1-7.1-27.2-9.7-41.9-9.2c-8.3,0.3-16.4,3-22.9,7.3c-6.4,4.3-14.9,7.9-16.7,17.2c0,0.2-0.2,0.4-0.4,0.5
				c-12.4,16.8-20.2,35.9-28.4,54.8c-3.3,7.6-7,15.1-10.7,22.6c-5.1,10.2-10.6,20.2-15.3,30.6c-8.8,19.4-17.2,39-25.9,58.4
				c-1,2.1-3.3,4-5.4,5.2c-7.5,4.2-15,8.2-22.7,11.8c-10.3,4.9-20.8,9.3-31.2,14c-5.6,2.5-11.3,4.8-16.8,7.6
				c-4.2,2.1-7.3,5.5-9.3,9.9c-3.5,7.8-7.1,15.6-10.6,23.4c-3.2,7.2-6.3,14.5-9.7,21.6c-0.8,1.7-2.6,2.8-3.8,4
				c-0.6,2.3-0.9,4.9-1.8,7.2c-5.7,13.5-11.2,27.1-15.3,41.3c-8,27.8-16.3,55.6-31.1,80.8c-2.5,4.3-4.6,9-7.8,12.9
				c-11.8,14.2-23.6,28.4-36.1,41.9c-2.8,3-5.7,6-8.5,9V831c0.9-0.9,1.7-1.8,2.6-2.7c3.4-3.6,7.4-6.6,10.8-10.3
				c13.2-14.3,28-27.3,39.8-42.9c7.8-10.3,16.2-20,21.1-32.3c5.2-13,11.2-25.7,16.2-38.7c2.9-7.5,4.5-15.5,6.6-23.3
				c1.4,0.5,2.3,0.8,3.2,1.1c1.8-8.1,4.2-15.6,4.9-23.3c0.4-3.8,2.7-5.4,4.7-7.6c-2.1-2.3-2.1-2.3-1.8-5.7c1.2-0.6,2.6-0.8,3.1-1.6
				c0.9-1.5,1.2-3.3,1.8-4.9c5-14.2,10.6-28.2,14.9-42.6c2.7-9.1,8.8-16.8,9.5-26.6c0.1-1.2,0.8-2.6,1.7-3.5
				c4.2-4.2,8.1-8.4,14.1-10.5c12-4.2,23.7-8.9,34.6-15.6c2.1-1.3,4.4-2.2,6.6-3.2c-0.3,3-1.4,5.1-2.4,7.2
				c-5.8,12-13.3,23.3-17.2,36.2c-1.1,3.7-4,5.6-7,7.5c-4.1,2.6-8,5.3-11.9,8.2c-9.7,7.1-19.3,14.2-28.9,21.5c-1.2,0.9-2,2.5-3.1,4
				c3.3,2.3,5.7,3.7,9.5,3.5c6.5-0.2,11.4-3.1,16.5-6.3c1.5-0.9,2.9-2,4.6-2.5c11.3-3.4,22.1-8,32-14.6c1.2-0.8,2.8-1.4,4.3-1.7
				c3.8-0.9,7.7-1.6,11.6-2.3c8.1-1.5,16.3-2.8,24.4-4.2c7.2-1.3,16.1-1.9,22.9-4.8c5.8-2.5,8-4.3,14.9-4.2
				c8.4,0.1,16.8,0.2,25.2,0.3c1.9,0,4.4,0.5,4.7,2.4c0.1,0.6-0.1,1.2-0.2,1.7c-1.4,4.9-2.8,9.9-5.9,14c-6.5,8.6-18.6,11.6-28.7,13
				c-3.6,0.5-7.4,0.5-11.2,1c-5.1,0.8-9.6,2.5-14,5.2c-13.8,8.6-26.8,18.4-36.6,28.9c-2.2,8-3.7,14.4-5.8,20.5
				c-4.9,14.4-10.8,28.3-21.2,39.9c-4.8,5.4-9.2,11.2-13.6,16.9c-1.1,1.4-1.6,3.3-2.2,4.6c5.3,4.7,10.4,1.1,15.1,0.9
				c3.4-0.2,6.8-2.6,10.1-4.3c4.2-2.2,9.3-3.8,12.2-7.2c8.9-10.3,16.2-21.7,18.3-35.7c0.8-5.3,2.3-10.6,3.6-16.5
				c2.3,0.9,4.5,1.7,6.7,2.5c1.2,0.4,2.5,1.4,3.6,1.1c6.1-1.3,11,1.5,16,4.2c3.3,1.8,7.2,0.6,10.9,1.8c7.9,2.4,15,6.6,21.9,11.1
				c4.9,3.2,13.6,12.6,19.8,11.2c-0.3,1.3-0.9,3.1-2.1,3.9c-5.6,3.8-9.1,7.7-13.6,12.6c-3.6,3.9-6.8,8.1-10.9,11.5
				c-11.5,9.5-23.6,18.3-34.9,28c-13.5,11.6-29.3,19.3-45,27c-2.1,1-4.9,0.9-7.6,1.3c-0.9,1.3-1.7,3.4-3.2,4.7
				c-17.3,15.1-29.7,33.9-40.4,54c-6.3,11.8-12,24-18.4,35.7c-10.3,18.9-21.4,37.3-31.4,56.4c-5,9.6-9.7,19.4-14.2,29.2h38.8
				c0.8-1.6,1.5-3.1,2.3-4.7c7.4-15.4,14.9-30.8,22.3-46.2c5.7-11.8,11.2-23.7,16.8-35.6c1.4-2.9,2.5-6,4.1-8.8
				c5.7-10.1,11.5-20.1,17.5-30.1c2.2-3.7,4.7-7.3,7.3-10.9c4.6-6.4,9.2-12.6,13.8-18.9c2.8-3.9,5.1-8.4,8.6-11.4
				c3.5-3,8.4-6.5,12.6-6.4c7.7,0.2,13.4-3.8,18.3-7.7c10-8,21.2-13.9,31.7-21.1c7.7-5.3,16-9.7,22.6-16.9c7.2-7.9,15.4-15,23-22.6
				c5.6-5.6,10.9-11.3,19.8-10.8c1.3,0.1,2.6-0.5,3.9-0.7c8.5-1.1,12.3-8.2,16.9-14c1.2-1.6,2.1-2.9,4-3.8c3.1-1.6,6.1-2.3,9.5-1.9
				c1.4,0.2,3.4,0.1,4.4-0.7c7.2-5.6,14.8-10.6,19.6-18.8c2.3-3.9,2.8-7,0.9-10.9c-2.2-4.2-1.8-6.7,2.1-8.8
				c7.6-4.1,11.7-11.1,15.5-18.3c2.9-5.5,3.6-11.4-0.2-16.8c-3.5-4.9-7.4-9.6-11.7-15c1.1-1.8,2.7-4.3,4-6.5
				c10.9-2.3,21.6-1.9,31.3-7.7c7.8-4.7,12.6-11.2,15.5-19.4c0.3-0.8,0.5-1.7,0.3-2.5c-2.2-9.3-6-17.5-15.9-21
				c-1.8-0.6-3.5-1.6-5.6-2.5c1.8-4.4,3-8.6,5-12.4c5.1-9.6,10.4-19.1,16-28.3c6.7-11.1,13.8-21.9,20.7-32.9
				c2.4-3.8,5.5-7.4,7.3-11.5c3-6.7,4.8-13.7,9.1-20.1c4.8-7.2,6.9-16.2,9.4-24.5C495.7,406.9,498.3,399,496.8,390z M362.9,678.1
				c-0.4-0.3-0.8-0.7-1.2-1c1.7-4.4,3.3-8.8,5-13.2c1-2.6,2.7-2.3,5.2-1.3C372.1,669.8,367.7,674.1,362.9,678.1z M393.1,619.1
				c-1.8,7.1-6,12.8-11.6,17.6c0.5-8.1,6.5-13.8,8.3-21.3C392.8,615.7,393.7,617.1,393.1,619.1z M412.1,576c2-7.9,5.8-14.8,8.9-23.2
				C425.9,563.3,421.8,572.8,412.1,576z M474.3,409.8c-1.8,7.8-4.9,15.2-9.6,21.6c-1.8,2.5-2.2,6-3.5,8.9
				c-5.2,11.1-10.6,22.1-16.8,32.8c-3.3,5.6-6.5,11.8-7.7,18.5c-0.2,1.2-1.2,2.4-1.8,3.5c-5.8,11.1-12.4,21.6-19.4,32
				c-7.2,10.7-13.2,22.3-19.7,33.5c-3.1,5.3-6.2,10.6-9,16.1c-5.4,10.3-10.9,20.6-16.1,31c-5,10-9.2,20.4-14.5,30.3
				c-5,9.2-10.9,17.9-16.6,26.7c-4,6.3-8.5,12.3-12.4,18.6c-3,4.7-6.6,7-12.4,6.6c-7.9-0.5-15.2-2.8-22.1-6.1
				c-15-7.2-29.9-14.6-44.6-22.4c-6.3-3.3-12.2-7.5-18.7-11.6c4.7-6.5,9.7-13.1,16.5-18c4.6-3.3,10.5-3,15.9-2.9
				c17.4,0.4,32.7-7.2,41.8-22.4c4.6-7.7,7.5-17.5,6.7-26.6c-0.8-9-12.9-9.9-20.3-10.5c-4.6-0.4-9.2,0.1-13.7-0.1
				c-13.3-0.4-24.3,1.8-37.3,4.5c-3.7,0.8-7.4,1.2-11.2,1.6c-13.3,1.5-26.3,2.7-39.4,5.4c3.9-5.8,5.1-11.4,10.6-14.3
				c1.4-0.8,2.7-2.3,3.5-3.7c4.5-7.6,8.9-15.2,13.1-22.8c7.2-13.1,11.5-27.3,16.5-41.3c2.6-7.4,6.4-14.4,9.9-21.6
				c4.7-9.8,10.9-19.6,14.6-29.9c4.7-13.3,10.6-25.7,16.2-38.6c5.3-12,10.1-24.2,14.5-36.6c4-11.2,9.4-21.4,16.6-30.8
				c3.6-4.7,7.8-8.9,12.4-12.6c6.6-5.3,22.8-2.6,30.3-1c10.4,2.2,20.3,6.2,30.2,10.1c21.2,8.2,42,17.4,62.8,26.5
				c10.9,4.8,21.9,10.2,30.7,18.3c4.2,3.8,6.9,6.2,6.8,12C476.8,399.9,475.5,404.9,474.3,409.8z"/>
			<path d="M437.5,370.8l0.1-0.2c0,0-0.1,0-0.1-0.1C437.5,370.6,437.5,370.7,437.5,370.8z"/>
		</g>
	</g>
	<path class="st4" d="M363.7,375.3c-4-1.7-8-3.5-12-5.3c-9-4.1-18.5-8.7-28.3-7.6c-2.1,0.2-4.3,0.8-6,2c-1.8,1.3-2.9,3.4-3.9,5.3
		c-10.2,19.1-19.5,38.4-27.7,58.5c-11.5,28.4-25.2,56-40.9,82.4c-8,13.4-16.6,26.7-22,41.4c-3.9,10.6-7.2,23.3-17.7,27.6
		c8.3-0.8,16.7-1.2,24.9-2c8.3-0.8,16.3-3.5,24.6-4.5c9.9-1.2,20-0.2,30,0.9c4.2,0.5,8.6,1,11.9,3.6c4.4,3.5,5.5,9.8,4.3,15.2
		c-1.2,5.4-4.4,10.2-7.5,14.8c-1.4,2.1-2.9,4.3-5,5.9c-3,2.2-6.8,2.9-10.4,3.6c-9.4,1.9-29,5.1-35.3,11.2
		c16.8,7,34.3,12.5,51.1,19.7c5.7,2.5,11.5,5,17.6,5.9c6.2,0.9,12.9,0,17.7-3.9c10.6-8.6,16.3-20.7,22.4-32.7
		c14.7-27.4,29.4-54.9,44.4-82.1c3.8-6.9,8.5-13.7,11.6-20.9c2.2-5.1,3.3-9.8,6.1-14.7c1.4,0,7-12.3,7.9-13.9
		c2.6-4.7,5-9.4,7.4-14.2c4.7-9.2,7.5-19.3,11.1-29.1c2.2-6.1,6.7-15.3,4.6-21.9c-1.9-6.1-7.6-10.6-12.8-13.7
		c-7.2-4.4-14.7-8.2-22.3-11.9C394.4,387.8,378.9,381.8,363.7,375.3z"/>
</g>
<g id="Topping">
	<g>
		<path class="st5" d="M688.8,343.2c-8.2-0.4-16.5-0.9-24.7,0.4c-7.5,1.2-14.7,3.7-22.2,4.6c-8.4,1-17.1,0-25.1,2.6
			c-14.7,4.9-22.4,20.5-31.7,32.9c-10.9,14.5-25.7,26.1-34.2,42.1c-2.6,5-4.6,11.3-1.7,16.2c3,5.1,9.7,6.2,15.2,8.1
			c18.1,6.2,27.4,24.8,44.2,32.3c14.8,6.5,34,3.7,49.2,0.5c7.6-1.6,15-2.4,21.5-6.6c8.6-5.6,16.3-12.8,24.2-19.4
			c13.2-11.1,27-21.6,41.2-31.4c11.1-7.7,23-15.4,29.6-27.2c7.8-14,8.7-41-9.6-46.5C740.7,344.5,713.6,344.5,688.8,343.2z"/>
		<g>
			<g>
				<path class="st14" d="M651.6,389.3c-5.5,4.5-9.3,10.8-12.3,17.3c-3.2,7-5.4,14.5-5.1,22.2s3.6,15.4,9.7,20
					c7.8,5.8,18.8,5.5,27.9,2.2c7.9-2.8,15.2-7.9,19-15.3c2.2-4.3,3.2-9.2,3.6-14.1c0.7-8.2,0.1-16.7-3.6-24
					C683.4,382.9,664.2,378.9,651.6,389.3z"/>
				<path class="st4" d="M746.6,432.1c0.4-0.2,0.9-0.5,1.4-0.7c6.2-3.1,13.4-4.5,18.4-9.3c2.6-2.5,4.3-5.8,6-9.1
					c9.1-17.5,24.3-44,6.5-61.8c-7.9-8.5-16.7-10.3-27.9-11c-17.2-1.1-34.5-2.2-51.7-3.4c-10.9-0.7-22-1.4-32.5,1.6
					c-4.1,1.2-8.1,2.9-12.2,4.1c-10.3,2.9-21.2,2.3-31.8,2.7c-10.7,0.4-21.9,2.2-30.2,9c-11.8,9.7-14.1,25.9-21.5,38.5
					c-8,13.7-22.5,19.8-32.5,31.4c-6.2,7.3-8.7,19.5-1.6,25.8c6.4,5.6,16.1,3.4,24.4,4.8c19,3.2,29.4,24.6,47.1,32.3
					c8.2,3.6,17.4,3.9,26.4,3.8c28-0.4,61.7-10,82.1-30.1C726.8,451.2,734.5,438.7,746.6,432.1z M711,444.1
					c-17.7,13.3-35.5,33.9-59.3,33.6c-10.2-0.1-20.5-0.2-30.7-0.3c-4.5,0-9.1-0.1-13.2-2c-9-4.1-12.2-15.2-18.9-22.5
					c-4.7-5.2-11.4-8.5-18.4-9.1c-6.5-0.6-15.2-0.3-17-6.5c-1.7-5.6,4.2-10.1,9-13.5c12.1-8.6,21.5-21,26.3-35.1
					c4.4-12.6,6.9-21.2,18.6-28.3c11.3-6.9,21.4-7.5,34.6-6.8c13.8,0.7,22.5-6.6,35.9-8.5c6.6-0.9,13.4-0.1,20,0.7
					c17.6,2.2,38,3.1,54,11.6c6.4,3.4,12.2,8.5,14.6,15.4c2.5,7.1,0.9,15.1-2.2,22c-6.7,14.8-19.7,25.7-33.1,34.9
					C724.2,434.4,717.5,439.2,711,444.1z"/>
				<path class="st4" d="M697.4,401.4c-2.5-6.5-5.8-9.8-12-13c-2.1-1.1-4.3-1.9-6.7-2.3c-1.5-0.2-3.9-0.1-5.1,0.7
					c4,5.1,10.8,8.3,13.6,14.2c3,6.5,4.3,13.5,3.5,20.6c-0.3,2.3-1.2,4.8-2.6,6.6c-3.8,5-7.7,10-12.2,14.4
					c-7.2,7.1-16.1,8.9-25.4,5.2c-5.1-2-9.2-6.1-11.2-11.7c-0.8-2.1-1.9-4.1-2.7-6.1c-1.8-4.4-1.8-9.4-0.6-14
					c1.1-4,3.3-9.8,6.1-12.9c5-5.4,9.9-10.8,15.1-16c1.4-1.4,3.6-1.8,6.1-3.1c-3.3-1.1-5.8-0.8-8.3,0.2c-8.9,3.6-17,9.3-22.5,17.3
					c-2.4,3.4-5,7.3-7,10.9c-2.5,4.7-1.6,10.9-1,15.9c0.7,6.5,1.7,12.5,4.9,18.4c3.3,6.1,8.3,10.6,14.1,14.2c1.2,0.8,2.8,1,4.3,1.2
					c2.5,0.3,5.1,0,7.6,0.4c11.7,1.7,21.8-1.9,31.2-8.6c7-4.9,10.5-12,12.9-19.9c1-3.3,1.9-6.6,3.2-9.8c1-2.6,0.8-5-0.1-7.4
					C700.9,411.5,699.4,406.4,697.4,401.4z"/>
			</g>
			<path class="st4" d="M651,426c-1.8,1.6-2.4,4.3-1.4,6.5c0.4,0.9,1.3,1.7,2.2,1.4c0.5-0.2,0.7-0.6,1-1.1c1.1-1.9,2.3-3.8,3.4-5.7
				c0.5-0.8,1-1.8,0.6-2.6c-0.3-0.8-1.3-1.2-2.2-1.2c-0.9,0.1-1.7,0.5-2.5,0.9"/>
			<path class="st4" d="M680.2,411c-1.7-0.3-3.5-0.2-5.2,0.3c-0.9,0.3-1.9,0.8-2,1.7c-0.1,0.7,0.5,1.4,1.2,1.7
				c0.7,0.3,1.4,0.3,2.2,0.3c1.8,0,3.6-0.1,5.4-0.1c0.5,0,1,0,1.5-0.3c0.8-0.6,0.7-2-0.1-2.7s-1.9-0.9-2.9-1"/>
			<path class="st4" d="M671.2,434c-2,1.6-4.2,3.4-6.8,3.6c-1,0.1-1.9-0.1-2.8,0.3c-0.9,0.3-1.6,1.4-1.1,2.3
				c3.5,1.4,7.5-0.4,10.8-2.3c2.9-1.7,5.9-3.4,8.1-6c1.3-1.5,5.3-10.6,0.6-7.8c-1.2,0.7-2.6,4.2-3.6,5.4
				C674.8,431.1,673,432.6,671.2,434z"/>
		</g>
	</g>
	<g>
		<g>
			<path class="st15" d="M686.7,527c3-1.6,5.9-3.4,8.3-5.7c4-3.8,6.7-9.5,5.4-14.9c-0.5-2-1.4-3.8-2.3-5.5c-2.7-5.2-5.8-10.4-8-15.8
				c-3.1-7.5-6.5-19.9,0.7-26.2c1-0.9,2.2-1.5,3.4-2.1c2.8-1.4,5.7-2.7,8.8-3.2c3.8-0.7,7.7-1.2,11.4,0.5c3.2,1.5,6,0.9,8.6-1.3
				c2.9-2.4,5.8-4.9,9.1-6.8c4.7-2.8,9.7-2.8,14.7-0.4c2,0.9,3.9,1.8,6.2,0.5c2.3-1.3,4.9-2.1,7.3-3.1c1.8-0.8,3.6-0.9,5.6-0.7
				c2.5,0.2,4.9,0.4,7.3,1.1c2.3,0.6,4.3,1.7,5.4,4c0.5,1.1,1,2.2,1.6,3.2c0.7,1.1,0.5,2.2,0.2,3.2c-1,3.2-2.1,6.3-3.8,9.2
				c-0.8,1.4-2,2.6-2.4,4.2c-0.1,0.6-0.2,1.3-0.4,2.3c1.5,0.3,2.8,0.6,4.1,0.8c3.3,0.5,6.6,0.8,9.9,1.3c1.1,0.2,2,0.8,2.6,2
				c0.7,1.4,2,2.6,2.1,4.3c0.2,2.2,0.2,4.5-0.1,6.7c-0.1,1.3-0.9,2.5-1.4,3.8c-0.4,1.2-1.6,2.2-2.5,3.1c-0.5,0.5-1.3,0.8-1.9,1.1
				c-0.7,0.3-1.4,0.6-2.1,0.9c-1.4,0.7-1.6,1.3-0.8,2.7c0.7,1.2,1.4,2.4,1.7,3.9c0.8,3.7-0.6,6.5-3.1,9c-1.6,1.7-3.3,3.3-4.9,5
				c-2.9,3.2-5.4,2.3-9,1.5c-0.8-0.2-1.6-0.2-2.3,0.3c-0.7,0.5-1,1.4-0.9,2.3c0.1,0.9,0.4,1.7,0.7,2.5c0.3,0.9,0.4,1.9,0.5,2.9
				c0,0.6,0,1.2-0.2,1.7c-1.4,4.9-10.5,3.1-13.9,2.4c-2.6-0.5-5.3-1-8-1.6c-1.4-0.3-2.8-0.7-4.1-1.2c-3.6-1.1-7.3-1.4-11-1.5
				c-1,0-1.9,0.2-2.9,0.4c-3.3,0.5-6.4,0.4-9.7,1.5c-9.6,3.1-16.8,12.2-21.3,20.9c-0.2,0.4-0.4,0.8-0.8,1c-0.3,0.1-0.6,0.2-0.9,0.2
				c-4.8,0.1-10.1-1.2-13.1-5.2c-1.5-2.1-2.5-5.3-2.7-7.8c-0.1-0.9-0.1-1.8,0.4-2.6c0.5-0.9,1.5-1.4,2.5-1.9
				C682.8,528.9,684.8,528,686.7,527z"/>
		</g>
		<g>
			<path class="st4" d="M684.8,528.3c3.1-1.6,6.1-3.5,8.6-5.9c4.1-4,6.9-9.9,5.6-15.5c-0.5-2-1.4-3.9-2.4-5.8
				c-2.8-5.4-6-10.8-8.3-16.5c-3.2-7.8-6.7-20.7,0.7-27.3c1-0.9,2.3-1.6,3.5-2.2c2.9-1.5,5.9-2.8,9.1-3.4c4-0.7,8-1.3,11.8,0.5
				c3.3,1.6,6.2,0.9,9-1.3c3.1-2.5,6.1-5.1,9.4-7.1c4.9-2.9,10.1-2.9,15.3-0.4c2,1,4,1.8,6.5,0.5c2.4-1.4,5.1-2.2,7.6-3.3
				c1.9-0.8,3.8-0.9,5.8-0.8c2.6,0.2,5.1,0.4,7.6,1.1c2.4,0.7,4.4,1.8,5.6,4.2c0.5,1.1,1,2.3,1.7,3.3c0.8,1.1,0.5,2.3,0.2,3.4
				c-1,3.3-2.2,6.6-3.9,9.5c-0.9,1.4-2.1,2.7-2.4,4.4c-0.1,0.7-0.3,1.3-0.4,2.3c1.5,0.3,2.9,0.7,4.2,0.8c3.4,0.5,6.9,0.8,10.3,1.3
				c1.2,0.2,2,0.8,2.7,2c0.8,1.5,2.1,2.7,2.2,4.5c0.2,2.3,0.2,4.7-0.1,7c-0.1,1.4-1,2.6-1.4,4c-0.4,1.2-1.6,2.3-2.6,3.3
				c-0.5,0.5-1.3,0.8-2,1.2c-0.7,0.3-1.5,0.6-2.2,0.9c-1.5,0.8-1.7,1.4-0.8,2.9c0.7,1.3,1.4,2.5,1.8,4.1c0.8,3.8-0.6,6.8-3.2,9.4
				c-1.7,1.7-3.4,3.5-5.1,5.2c-3,3.3-5.6,2.4-9.4,1.6c-0.8-0.2-1.7-0.2-2.4,0.3c-0.7,0.5-1,1.5-0.9,2.4c0.1,0.9,0.4,1.7,0.7,2.6
				c0.3,1,0.5,2,0.5,3c0,0.6,0,1.2-0.2,1.8c-1.4,5-10.9,3.2-14.4,2.5c-2.8-0.6-5.5-1-8.3-1.6c-1.5-0.3-2.9-0.7-4.3-1.2
				c-3.7-1.2-7.5-1.5-11.4-1.6c-1,0-2,0.2-3,0.4c-3.4,0.6-6.7,0.5-10.1,1.6c-10,3.3-17.5,12.6-22.2,21.7c-0.2,0.4-0.4,0.8-0.8,1
				c-0.3,0.2-0.6,0.2-0.9,0.2c-4.9,0.1-10.5-1.2-13.6-5.4c-1.6-2.1-2.6-5.5-2.8-8.1c-0.1-0.9-0.1-1.9,0.4-2.7c0.5-1,1.6-1.5,2.6-2
				C680.8,530.3,682.8,529.3,684.8,528.3z M716.7,464.4c0.5-0.1,0.7,1.9,0.7,1.9c0.3,2.1,1,3.6,1.9,5.6c0.2,0.5,0.4,1.1,0.6,1.7
				c0.6,1.9,1,3.7,1.3,5.7c0.4,1.8,0.4,3.8,0.7,5.6c0.9,4,2.3,7.9,1.7,12.1c-0.1,0.6,0.1,1.3,0.1,1.9c0.2,0,0.4,0.1,0.6,0.1
				c2.6-3.1,5.4-6.1,7.8-9.4c1.8-2.4,3.1-5.1,4.4-7.8c1.1-2.2,2.1-4.4,2.7-6.8c1.4-5.4,2.1-10.8,1.8-16.4c0-1.1,0.1-2.3,0.1-3.4
				c0.6,0.7,0.8,1.4,1,2.2c0.5,1.6,0.9,3.3,1.5,4.9c0.7,2,1.1,4,0.7,6.2c-0.5,3-0.8,6-1.2,9c1.4-1.1,2.5-2.5,3.6-3.7
				c3.9-4.3,7.8-8.5,11.6-12.7c3.8-4.2,6.8-9,9.7-13.9c0.3-0.4,0.3-1,0.5-1.7c-0.9-0.1-1.6-0.3-2.2-0.2c-2.6,0.1-4.7,1.7-7,2.8
				c-1.3,0.6-2.4,1.6-3.7,2.1c-2.7,1.1-5.4,1.4-8.1-0.3c-1.5-1-3.2-1.7-4.9-2.3c-1.1-0.4-2.5-0.7-3.4-0.3c-2,0.9-4,2-5.6,3.4
				c-1.1,1.1-2.4,1.9-3.6,2.9c-1.1,0.9-1.8,2.1-2.9,3c-2,1.8-5.2,3.1-7.9,2.7c-2.7-0.4-5.5-1.3-8-2.4c-2.5-1.1-5-0.9-7.6-0.1
				c-2.7,0.8-4.8,2.7-7.3,3.8c-2.1,0.9-3.3,3.2-3.8,5.3c-0.2,0.9-0.4,1.8-0.6,2.7c-0.6,2.7,0.4,6.3,1.6,8.7c1.3,2.6,2.1,5.4,3.2,8.1
				c1.1,2.6,2.5,5.1,3.5,7.7c1.2,2.8,2.2,5.7,3.1,8.7c0.7,2.4,1.4,4.9,1.5,7.5c0.1,2.5-0.7,4.8-1.5,7.1c-1.6,4.8-4.2,9.3-7.9,12.7
				c-2.7,2.5-6,4.4-9.3,6.3c-1.3,0.7-2.6,1.5-3.9,2.2c-0.2,0.1-0.5,0.3-0.6,0.5c-0.2,0.3-0.2,0.8-0.1,1.2c0.4,1.5,1.9,2.6,3.5,2.7
				c1.6,0.1,3.1-0.5,4.4-1.4c1.3-0.9,2.3-2.2,3.3-3.4c4.4-5.5,8.6-11.1,12.7-16.8c3.8-5.3,8.1-10.3,10.3-16.5
				c1.4-4.4,2.5-9.1,2.3-13.8c-0.1-1.7-0.4-3.5-0.6-5.2c-0.2-1.8-0.3-3.5-0.4-5.3c-0.1-1.7-0.1-3.4-0.4-5.1
				c-0.2-1.5-0.4-3.2-0.7-4.8c-0.1-0.4-0.2-0.8-0.3-1.3c-0.1-0.6,0-1.2,0.1-1.8c0.1-0.6,0.2-1.2,0.2-1.8c0-0.1,0-0.2,0.1-0.2
				C716.6,464.5,716.7,464.4,716.7,464.4z M728.6,506.4c0.6,0.2,0.9,0.3,1.1,0.3c3.9-0.8,7.9-1.6,11.8-2.5c2.8-0.6,5.5-0.4,8.2,0.4
				c-0.4,0.6-0.9,0.9-1.4,1.2c-0.6,0.3-1.3,0.6-1.9,0.9c-2,1-3.9,2.1-5.9,2.8c-2,0.7-4.1,0.9-6.2,1.3c-2.9,0.5-5.8,0.7-8.6,1.4
				c-2,0.5-4.1,1.3-5.9,2.3c-1.9,1.1-3.4,2.8-4.5,4.8c0.7,0,1.3-0.2,1.9-0.3c1.3-0.4,2.7-1,4-1.3c4.9-1,9.8-0.4,14.6,0.4
				c4.1,0.7,8.2,1.7,12.2,2.6c1.8,0.4,3.6,0.8,5.2,1.5c2.1,0.9,4.3,1,6.5,0.7c6.7-0.8,1-8.1,5-10.6c1.6-1,3.6-0.5,5.4-0.6
				c3.4-0.1,6.6-2.1,8.4-5c2.4-4,1.6-7.9,0-11.9c-0.3-0.7-0.4-1.5-0.3-2.3c0.1-2.5,1.7-4.2,3.7-5.4c0.9-0.6,1.8-1.2,2.8-1.7
				c3.1-1.6,3.6-4.6,3.7-7.6c0.2-2.6-1.7-3.8-4.2-3c-2,0.6-3.9,1-6,0.2c-1.4-0.5-2.9-0.9-4.3-1.2c-2.7-0.5-4.9-2.8-5.4-5.6
				c-0.8-4.9,0.3-9.5,3.1-13.5c1.5-2.1,1.7-4.4,2-6.7c0.1-0.9-0.3-1.7-1.2-2.1c-1.2-0.6-1.9-0.2-2,1.2c-0.1,2.8-2.5,5.5-3.9,7.7
				c-1.9,2.9-3.8,5.9-5.8,8.8c-0.9,1.4-1.9,2.8-2.9,4.2c-1.2,1.6-2.4,3.1-3.6,4.6c-3.3,4-6.4,8.2-9.5,12.3c-1.2,1.5-2.3,3.1-3.2,4.8
				c-0.2,0.3-0.3,0.7-0.1,1c1.1,1.4,5.6,0,6.9-0.5c2.6-0.4,5.1-0.9,7.7-1.3c4-0.6,8-0.4,12,0.5c2.5,0.6,4.8,1.7,6.6,3.7
				c-2.4,0.2-4.7,0.2-7,0.1c-2-0.1-4.1-0.4-6.1-0.2c-4.1,0.3-8.1,0.7-12.2,1.2c-4.2,0.5-7.9,1.5-11.5,3.5
				C734.2,499.7,731.7,503.1,728.6,506.4z"/>
		</g>
	</g>
	<g>
		<g>
			<path class="st15" d="M828.6,367.3c0.1-0.2,0.3-0.4,0.4-0.6c0.5-0.7,0.9-1.7,0.5-2.4c-0.2-0.3-0.5-0.5-0.6-0.8
				c-0.1-0.3,0.1-0.6,0.2-0.9c2-3.7,6.5-5.5,10.8-5.4c4.2,0.1,8.2,1.9,11.9,3.9c4.8,2.6,9.4,5.7,13.8,8.8c4.1,3,7,9,9.2,13.4
				c2.1,4.2,3.7,8.5,4.7,13c0.4,2.1,1.2,4.1,1.4,6.1c0.2,2.2,0.1,4.4-0.4,6.5c-1.8,8-4.8,15.6-8.8,22.8c-2.2,3.9-4.9,7.2-8.2,10.1
				c-2.1,1.8-4.1,3.7-6.4,5.4c-4.5,3.4-9.5,5.8-14.7,7.9c-3.2,1.3-6.6,2.9-10,3.6c-3.7,0.8-7.5,1.2-11.3,1.8
				c-2.6,0.4-5.3,0.9-7.9,0.7c-3-0.2-6.2-1.1-9,0c-0.7,0.3-1.3,0.6-2,0.5c-0.7-0.1-1.2-0.7-1.6-1.2c-1.9-2.3-3.8-4.8-4.3-7.8
				c-0.5-3.4,1.2-7.5,2.2-10.6c1.9-5.7,4.1-11.2,6.2-16.8c0.7-1.9,1.4-3.7,1.7-5.7c0.3-1.9,1.3-3.6,2-5.4c1.7-4.6,3.3-9.2,4.9-13.8
				c2.2-6.1,4.3-12.2,6.4-18.3C821.7,376.7,825.4,372.1,828.6,367.3z"/>
		</g>
		<path class="st16" d="M836.5,432.2c2.6-1.7,4.9-3.8,7.4-5.6c2.1-1.5,4.3-2.8,6.2-4.5c1.7-1.5,3-3.4,4.3-5.3
			c3.4-5.2,6.6-11.1,5.7-17.3c-0.3-2.3-1.2-4.5-2.1-6.7c-0.9-2.1-1.8-4.3-3.2-6.1c-1.5-2-3.6-3.4-5.7-4.8c-2.6-1.8-5.3-3.5-8-5.1
			c-1.1-0.7-2.2-1.3-3.5-1.5c-2.5-0.3-4.9,1.4-6.7,3.3c-6.4,6.7-9.5,15.9-14,24c-4,7.4-9.5,14.6-10,23.1c-0.2,2.5,0.1,5.1,0.4,7.6
			c0.2,1.7,0.4,3.4,1.1,4.8c1.3,2.6,3,2.8,5.4,2c2.5-0.9,5.1-1.6,7.7-2.3C826.7,436.4,831.9,435.1,836.5,432.2z"/>
		<g>
			<path class="st4" d="M828.6,367.3c0.1-0.2,0.3-0.4,0.4-0.6c0.5-0.7,0.9-1.7,0.5-2.4c-0.2-0.3-0.5-0.5-0.6-0.8
				c-0.1-0.3,0.1-0.6,0.2-0.9c2-3.7,6.5-5.5,10.8-5.4c4.2,0.1,8.2,1.9,11.9,3.9c4.8,2.6,9.4,5.7,13.8,8.8c4.1,3,7,9,9.2,13.4
				c2.1,4.2,3.7,8.5,4.7,13c0.4,2.1,1.2,4.1,1.4,6.1c0.2,2.2,0.1,4.4-0.4,6.5c-1.8,8-4.8,15.6-8.8,22.8c-2.2,3.9-4.9,7.2-8.2,10.1
				c-2.1,1.8-4.1,3.7-6.4,5.4c-4.5,3.4-9.5,5.8-14.7,7.9c-3.2,1.3-6.6,2.9-10,3.6c-3.7,0.8-7.5,1.2-11.3,1.8
				c-2.6,0.4-5.3,0.9-7.9,0.7c-3-0.2-6.2-1.1-9,0c-0.7,0.3-1.3,0.6-2,0.5c-0.7-0.1-1.2-0.7-1.6-1.2c-1.9-2.3-3.8-4.8-4.3-7.8
				c-0.5-3.4,1.2-7.5,2.2-10.6c1.9-5.7,4.1-11.2,6.2-16.8c0.7-1.9,1.4-3.7,1.7-5.7c0.3-1.9,1.3-3.6,2-5.4c1.7-4.6,3.3-9.2,4.9-13.8
				c2.2-6.1,4.3-12.2,6.4-18.3C821.7,376.7,825.4,372.1,828.6,367.3z M806.4,454.6c1.1-0.5,1.9-1,2.8-1.2c3.7-0.8,7.2-2.2,10.7-3.6
				c6.3-2.6,13-3.9,19.2-7.1c5.1-2.6,10.5-4.7,15-8.3c4.6-3.7,8.7-7.7,11.4-13.1c2.3-4.5,4.3-9,5.6-13.8c0.9-3.2,1.1-6.5,0-9.7
				c-0.4-1-0.6-2.1-0.9-3.2c-0.9-3.5-2-7-4.3-9.9c-1.2-1.6-2.4-3.3-3.6-4.9c-4.1-5-8.8-9-15.5-10c-0.5-0.1-0.9-0.4-1.4-0.5
				c-2.3-0.5-4.4-1.8-6.9-1.3c-1.2,1.5-1.6,3.2-1.5,5.2c1.3,0.1,2.5,0.3,3.6,0.4c4.9,0.3,9.3,2,12.4,5.9c4.7,6,8.3,12.7,9.8,20.3
				c0.8,4.3,1.2,8.5-0.8,12.7c-1.1,2.3-2.2,4.5-3.3,6.8c-2.7,5.3-6.7,9.5-11.5,12.9c-6.5,4.5-13.9,7.2-21.3,9.9
				c-4.7,1.7-9.3,3.5-13.9,5.4C808.9,448.6,806.7,450.7,806.4,454.6z M825.6,403.5c0.1,0.2,0.3,0.4,0.4,0.5c0.6-0.2,1.2-0.4,1.7-0.7
				c0.4-0.2,0.7-0.8,1.2-0.9c4.9-0.8,9.6-2.5,14.7-2.3c1.8,0.1,3.7-0.1,5.5-0.4c2.1-0.3,4-0.2,5.9,0.6c0.7,0.3,1.5,0.4,2.8,0.7
				c-0.4-1.3-0.6-2-0.9-2.6c-1.2-2.8-2.5-5.5-3.7-8.3c-1.1-2.6-2.6-4.9-4.7-6.8c-1-1-2.3-1.8-3.5-2.4c-2.2-1-4.6-1.7-6.9-2.5
				c-0.9-0.3-1.9-0.6-3-0.9c-3,6.5-5.6,12.9-7.4,19.8c4.5-2.6,8.7-5.1,12.8-7.5c0.6-0.3,1.1-0.9,1.4-1.4c0.3-0.4,0.5-1.2,0.4-1.5
				c-0.2-0.4-0.9-0.7-1.5-0.8c-0.7-0.1-1.5,0.1-2.3,0.3c-1.2,0.2-2.3,0.5-3.5,0.6c-1,0.1-1.9-0.5-2.2-1.4c-0.2-0.6,0.2-1.5,0.6-2
				c1-1.3,2.4-2,4.3-2.1c-0.1,0.9-0.2,1.7-0.3,2.5c1.3,0,2.5-0.2,3.6,0c1.3,0.2,2.6,0.6,3.7,1.3c0.5,0.3,0.3,1.5,0.5,2.3
				c0,0.2,0.1,0.6,0.3,0.7c1.5,0.8,1.2,2.4,1.8,3.6c-1.5,1.6-2.1,2-3.5,2c-2.4-0.1-4.6,0.7-6.9,1.5c-2.8,1-5.6,1.8-8.3,2.9
				c-0.7,0.3-1.6,0.8-1.9,1.5C826.3,400.8,826,402.2,825.6,403.5z M856.7,405.6c-1-0.2-1.6-0.3-2.1-0.3c-1.7,0.1-3.4,0.2-5,0.3
				c-3,0.2-6,0.4-9,0.8c-3.1,0.3-6.1,0.8-9.2,1.2c-2,0.3-4,0.6-6,0.8c-2.4,0.3-2.3,2.4-3,3.9c-0.6,1.3,0.4,2.1,1.4,2.9
				c4.3,3.2,8.5,6.4,12.7,9.6c2.3,1.8,2.3,1.7,4.8,0.3c6.2-3.5,10.8-8.5,13.6-15.1C855.4,408.6,856,407.3,856.7,405.6z M833.4,428.5
				c-2.5-2-4.5-3.8-6.7-5.4c-2.1-1.5-3.6-3.8-6.2-5c-0.3,1.5,0.6,2,1.3,2.5c2.1,1.3,3.8,2.9,5.1,5.1c0.2,0.3,0.2,1,0,1.3
				c-0.1,0.2-0.8,0.3-1.1,0.2c-0.6-0.3-1.2-0.7-1.7-1.1c-1.6-1.1-3.2-2.3-4.9-3.4c-1.2,2.1-1.1,2,0.1,3.3c1.1,1.2,1.9,2.7,2,4.3
				c-2.1,1.8-3.2-0.5-4.8-1.1c-1.1,2.5-2.1,4.8-3.4,7.7C820.1,434.1,826.9,432.1,833.4,428.5z"/>
			<path class="st4" d="M830.1,411.1c0.8-0.3,1.6-0.6,2.4-0.9c0.9-0.3,1.8-0.6,2.5-1.1c3.4-2.3,7.4-2.4,10.8-0.2
				c1.2,0.8,2.4,1.4,3.5,2.6c-3.7-0.1-7.5-0.2-11.2-0.4c0,0.1,0,0.3,0,0.4c2.5,1.3,5.1,2.6,7.7,4c-0.7,0.7-1.7,0.9-2.5,0.7
				c-3.9-0.8-7.9-1.7-11.8-2.6C830.3,413.4,830.2,412.3,830.1,411.1z"/>
			<path class="st4" d="M842.6,420.4c-0.4,0.1-0.9,0.4-1.1,0.2c-2.7-1.3-5.3-2.6-7.9-4c-0.3-0.1-0.3-0.7-0.6-1.3
				c2.6,0.9,5,1.6,7.3,2.5C841.5,418.3,841.5,418.4,842.6,420.4z"/>
		</g>
	</g>
	<g>
		<path class="st4" d="M466.5,259.6c1.5-4.5,7.5-6,11.9-4.3c4.4,1.7,7.5,5.6,10.4,9.4c4.3,5.5,8.4,11.5,11.4,17.8
			c1.6,3.3,3.4,6.8,4.8,10.2c0.6,1.5,2.8,13.6,2.9,13.7c-11.2-7-20.2-14.3-28.5-24.7C476.1,277.6,464.6,265.6,466.5,259.6z"/>
		<path class="st4" d="M533.9,207.5c-1.3-5.1-1-9.2,2.5-10.5c18-6.5,19.6,11.7,24.1,23.3c4.1,10.7,18.5,45,8.1,53.4
			c-2.7-6-8.6-10.2-11.9-15.9c-4.2-7.4-7.5-15.2-10.7-23C543.8,229.7,536.2,216.9,533.9,207.5z"/>
		<path class="st4" d="M630.2,234c-2-5.7-4-12.2-1.1-17.6c0.5-0.8,1.1-1.7,2-1.9c1.9-0.5,3.4,1.5,4.3,3.2c3.3,6.3,6.7,12.8,7.7,19.8
			c0.6,4,2.9,16.5-4.2,15.1C633.8,251.5,631.7,238.1,630.2,234z"/>
		<path class="st4" d="M710.3,188.8c0-1.6,0-3.3,0.6-4.6c0.6-1.3,1.6-2,2.5-2.5c3.5-2.1,7.3-3.3,11.1-3.5c3-0.1,4.8,72.6-1.7,76.9
			C713.5,261.3,710.5,197.5,710.3,188.8z"/>
		<path class="st4" d="M788.7,210.7c0.2-1.9,0.4-4,1.9-5.3c2.3-2,6.3-0.3,7.7,2.5s0.9,6.1,0.3,9.2c-0.8,4.6-2.2,32.7-9.8,28.7
			C783.2,242.7,788.2,216.5,788.7,210.7z"/>
		<path class="st4" d="M859.4,247.2c6.3-10.5,12.5-21.1,18.8-31.6c1.4-2.4,3.1-5,5.8-5.7c2.3-0.6,4.6,0.3,6.8,1.2
			c1.4,0.6,3,1.2,3.8,2.5c1.6,2.4,0.1,5.6-1.4,8.1c-8,13.3-16.9,26-26.6,38.1c-2.3,2.9-12.2,17.8-16.1,13.6
			C847,269.5,857.2,250.9,859.4,247.2z"/>
		<path class="st4" d="M943.1,283.7c4.6-5.4,10.2-11.2,17.3-11.3c0.8,0,1.6,0.1,2.2,0.5c1.2,0.8,1.4,2.5,1.2,3.9
			c-0.8,5.6-5.3,9.9-9.7,13.5c-8.8,7.3-19.9,17.4-30.7,21C920.6,303.9,938.4,289.1,943.1,283.7z"/>
	</g>
</g>
</svg>
