<?xml version="1.0" encoding="utf-8"?>
<!-- Generator: Adobe Illustrator 24.0.1, SVG Export Plug-In . SVG Version: 6.00 Build 0)  -->
<svg version="1.1" xmlns="http://www.w3.org/2000/svg" xmlns:xlink="http://www.w3.org/1999/xlink" x="0px" y="0px"
	 viewBox="0 0 1442 966" style="enable-background:new 0 0 1442 966;" xml:space="preserve">
<style type="text/css">
	.st0{fill:#70C7B2;}
	.st1{fill:#E72527;}
	.st2{fill:#F79E1E;}
	.st3{opacity:0.3;}
	.st4{fill:#895B24;}
	.st5{fill:#EFD6B4;}
	.st6{fill:#727579;}
	.st7{fill:none;}
	.st8{fill:#122D25;}
	.st9{fill:#FFFFFF;}
	.st10{fill:#89C544;}
</style>
<g id="BG">
	<rect class="st0" width="1442" height="966"/>
</g>
<g id="Bowl">
	<g>
		<g>
			<path class="st1" d="M439.8,508.6c-0.6-1.8-1.3-3.7-1.9-5.5c-7.8-23-17.7-50.2-2.3-72.2c3.9-5.6,8.2-10.9,12.2-16.4
				c8.8-12.3,20.7-21.5,31.7-31.6c3.9-3.6,7.8-7.2,11.7-10.9c3.2-3,6.3-6.1,9.6-8.9c0.8-0.7,2.1-0.9,3.2-1.2c1.4-0.4,3-0.5,4.2-1.2
				c10.1-5.5,20.1-11.3,30.3-16.6c16.8-8.7,34.4-15.6,52.6-20.7c18-5.1,36-10.4,54.3-14.2c24.9-5.2,50.2-7.7,75.7-7.6
				c17.7,0.1,35.3,2,52.7,5c11.7,2,23.6,3.4,35.3,5.7c23.3,4.6,46.6,9.6,69.9,14.6c6,1.3,11.9,2.8,17.8,4.7
				c8.2,2.6,16.1,5.9,24.3,8.4c10,3,18.8,8.4,27.9,13c12.5,6.3,23,15.3,33,24.9c5.2,5,10.4,9.9,15.1,15.3c7.8,8.8,12.8,19.1,16,30.3
				c1.3,4.4,3.1,8.7,4.7,13c0.3,0.8,0.8,1.7,0.8,2.5c-0.1,5.7-0.1,11.3-0.5,17c-0.3,4.9-0.8,9.8-1.5,14.6c-0.5,3.6-0.9,7.3-2.1,10.7
				c-3.7,10-8.1,19.7-11.7,29.7c-2,5.3-2.9,11-4.6,16.5c-0.8,2.7-2,5.2-3.1,7.8c-4.4,9.9-8.8,19.8-13.1,29.8c-0.9,2.2-1.2,4.7-1.9,7
				c-1,3.5-2,7.1-3.3,10.5c-1.7,4.2-3.9,8.3-5.5,12.5c-2.4,6.2-4.8,12.3-6.6,18.7c-3.9,14.4-11.7,26.8-18.4,39.8
				c-4.3,8.2-8.4,16.5-13.2,24.4c-4.5,7.3-9.6,14.2-14.8,21c-5.7,7.3-11.6,14.5-17.8,21.4c-6.9,7.7-14.2,15-21.3,22.5
				c-0.7,0.7-1.6,1.5-2.5,1.9c-6.1,2.4-10.3,7.2-15,11.3c-1.6,1.4-3.2,2.7-4.7,4.2c-8.4,8.2-19,12.3-29.4,17
				c-1.6,0.7-3.1,1.5-4.9,2.4c2.6,13.9,8.4,26.3,14.7,38.5c-8.8,7.3-18,12.1-28.9,14c-23.7,4.1-47.4,7.6-71.6,6.8
				c-12.2-0.5-24.4-2.1-36.6-3.3c-8.2-0.7-16.5-1-24.6-2.3c-9.6-1.6-19.2-3.9-28.6-6.4c-3.2-0.9-6-3.5-8.9-5.4
				c-2.2-1.4-4.3-2.8-6.3-4.4c-1.8-1.4-2.3-3.3-1.2-5.6c2.8-5.4,5.2-11.1,8.3-16.4c4.2-7.3,3.8-8.7-4.2-10.7
				c-1.9-0.5-3.5-0.6-3.9-3.1c-0.1-0.9-2.1-1.7-3.4-2.2c-14.2-6.6-26.5-16.2-39.3-25.1c-10.8-7.6-19.7-17.1-28.8-26.5
				c-0.4-0.4-0.7-1.1-1-1.1c-4,0.1-5.2-3.4-7.3-5.6c-2.2-2.4-4-5.3-5.9-7.9c-1.7-2.4-3.2-5-5-7.3c-12.9-16-22.9-33.9-33.3-51.5
				c-6.6-11.1-12.4-22.7-18.7-34c-2-3.6-4.5-7-6.7-10.5c-1.1-1.9-2.1-4-2.9-6.1c-2.6-7.1-7.6-12.8-10.5-20
				c-3.6-8.8-7.2-17.6-10.7-26.5C451.3,540.8,445.4,524.8,439.8,508.6z"/>
			<g>
				<path d="M843.6,652.2c0.2,2.3,0.4,4.6,1.5,6.9c1.1,2.3,1.3,4.9,2.1,7.3c1.2,3.8,2,4.3,5.8,2.9c5.2-1.9,10.3-4.2,15.5-6.2
					c1.7-0.7,2.7-1.8,2.7-3.6c0.1-1.9-0.1-3.8-0.1-6.3c-4.6,2.2-8.6,4.1-12.6,5.9c-1.8-1-3.6-2-5.2-2.9c0.1-1.8,1.4-2,2.4-2.5
					c4.6-2.4,9.1-5,13.8-7.2c2.3-1.1,4.8-1.8,7.3-2c2.7-0.3,4.6,1.6,5.7,3.8c1.8,4,2.3,8.3,1.8,12.6c-0.2,2.2-1.5,3.9-3.6,4.8
					c-2.4,1.1-4.9,2.1-7.3,3.1c-4,1.6-7.9,3.3-11.9,4.9c-1.6,0.6-3.3,1-5,1.4c-3.6,0.8-7.3,1.4-10.9,2.2c-1.4,0.3-2.3-0.2-3.5-0.6
					c-3.6-1.1-4.7-4-6.1-6.9c-2.5-5-3.3-10.3-4.2-15.7c-0.3-2,1.2-4.4,3.1-4.7c5.9-1,10.4-5,15.5-7.4c5.1-2.4,10.3-4.8,15.4-7.1
					c4.3-1.9,8.7-3.8,13.1-5.5c1.5-0.6,3.1-1.1,4.6-1.4c3.7-0.5,6.8,0.7,9,3.9c1,1.4,2,2.9,2.9,4.3c2.4,3.5,4.9,7,7.5,10.8
					c1.7-0.7,3.4-1.3,5.1-2c5.3-2.4,10.6-4.8,15.8-7.2c3.7-1.7,4-3.1,1.3-6.7c-3.3,1.8-6.6,3.6-9.9,5.5c-1.5,0.9-3,1.8-4.8,1
					c-0.6-0.2-1.4-0.1-2.1-0.1c-5.3,0-8.1-2-9.6-6.9c-0.5-1.5-1.3-3-1.6-4.6c-0.3-1.6-0.2-3.2-0.3-5c4.3-3.2,9.2-5.2,14.2-6.9
					c4.6-1.5,9.3-2.8,13.9-4.4c2.1-0.7,3.7-0.3,5.6,0.7c2.2,1.1,3,2.8,3.7,4.9c1.5,4.7,3.1,9.4,5.4,13.9c1.2,2.3,1.3,5.3,1.6,8.1
					c0.2,1.6-1.1,2.5-2.4,3.1c-6.3,2.9-12.7,5.6-19,8.5c-4.2,1.9-8.4,3.9-12.5,6.1c-1.9,1-3.8,1.7-5.9,1.1c-0.4-0.1-1-0.4-1.3-0.2
					c-3.2,1.4-5.5-0.9-8-2.1c-0.8-0.4-1.4-1.5-1.9-2.3c-2.9-4.3-5.7-8.7-8.5-13.1c-0.8-1.3-1.8-1.5-3.3-1c-5.7,2.1-11.5,4.2-17,7.1
					C855.8,647.2,849.9,649.4,843.6,652.2z M923.4,626.4c-0.6-2-1.2-4-1.9-5.9c-0.5-1.4-1.6-1.7-2.8-1.2c-2.1,0.9-4.2,1.9-6.2,3
					c-1.2,0.7-1.4,2.1-0.8,4c0.5,1.3,1.3,1.9,2.6,1.5c2.4-0.8,4.9-1.1,7.4-0.8C922.2,627,922.6,626.7,923.4,626.4z"/>
				<path d="M767,675.9c-1.5,2.3-1.3,4.4,0.9,6.7c1.2,1.2,1.9,3.1,2.4,4.9c1,4.1-1.1,6.8-5.3,6.8c-6,0.1-12,0.7-17.9,1.9
					c-3.7,0.7-7.5,1.3-11.3,1.9c-4.3,0.6-7.8-1-10.5-4.1c-1.8-2.1-1.7-4.9-1.1-7.3c0.8-3.9,0.4-7.6-0.1-11.4
					c-0.2-1.9-0.2-3.9-0.1-5.9c0.2-2.7,0.3-2.5,3.2-3.2c2-0.5,3.8-1.6,5.8-2.1c4.6-1,9.3-1.8,14-2.8c4.3-0.9,8.5-2.4,12.8-3
					c3.7-0.6,7.6-0.7,11.4-0.5c3.9,0.2,6.5,2.1,7.9,6.2c1.7,5.4,4.1,10.6,6.1,15.9c0.5,1.3,1.1,2.1,2.8,1.9
					c7.8-1.3,15.6-2.4,23.3-3.7c5-0.9,5.1-1.4,3.8-6.2c-0.8-2.9-1.5-5.8-2.1-8.8c-0.3-1.6-1.3-2.1-2.7-2c-2,0.2-3.9,0.3-5.9,0.5
					c-3,0.2-3.5,0.7-3.6,3.8c0,0.5,0.1,1.1,0.3,1.8c4.5-0.5,8.8-0.5,11.4,4.3c-1,2-3.1,2.2-5,2.7c-2.2,0.6-4.5,1-6.7,1.6
					c-1.3,0.3-2.7,0.8-4,1c-1.5,0.3-2.7,0.1-4-1.3c-1.4-1.6-3.4-2.5-5.2-3.9c-0.1-4.1-0.4-8.2,1.6-12.1c1-2,2.5-3.2,4.6-3.8
					c6.1-1.6,12.3-2.2,18.6-2.3c2.2,0,4.4,0.1,6.6,0.1c3.3,0.1,5.3,2,5.9,5.2c0.8,4.3,1.2,8.6,3.4,12.6c1.1,2,1,4.8,1,7.2
					c0,1.7-1.4,2.8-2.9,3.7c-5.5,3-11.5,4.4-17.6,5c-6.9,0.7-13.8,1.8-20.5,3.2c-1.5,0.3-3,0.5-4.5,0.6c-0.7,0-1.4-0.1-2-0.4
					c-2.1-1.2-4.2-2.4-6.1-3.9c-0.9-0.7-1.2-2.1-1.6-3.3c-2-6-3.1-12.4-6.1-18.1c-0.1-0.2-0.3-0.4-0.7-1c-1.6,0.2-3.4,0.4-5.2,0.8
					c-6.3,1.4-12.6,2.9-19,4.1c-3.4,0.6-6.8,0.6-10.2,0.9c-0.8,0.1-1.6,0.3-2.6,0.4c0.2,3.4,0.5,6.6,0.7,9.8c0.2,3.2,0.3,6.4,0.5,10
					c2.1-0.3,3.9-0.6,5.7-0.8c5.7-0.8,11.4-1.7,17.2-2.4c3.2-0.4,3.5-0.5,3.3-3.9c-0.1-1-0.2-2.1-0.3-3.2c-2.3-0.9-4.3,0.2-6.4,0.6
					c-1.6,0.3-3.1,1-4.7,1.3c-1.9,0.3-3.9,0.7-5.3-1.4c-0.4-0.6-1.6-0.6-2.4-0.9c-0.7-0.3-1.8-0.6-1.9-1.1c-0.1-0.8,0.4-1.7,0.9-2.4
					c0.3-0.4,1-0.6,1.5-0.8c6-2.1,12.2-3.5,18.6-4.1C761.5,670.8,765.1,671.2,767,675.9z"/>
				<path d="M701.9,679.8c-0.5,0.8-0.8,1.3-0.9,1.8c-0.5,1.4-1.4,1.9-2.9,1.9c-3.7,0-7.4,0.3-11.1,0.5c-3.4,0.1-7.1-2.2-8.1-5.3
					c-0.3-0.9-0.1-2.1,0.3-3c1.1-2.8,2.5-5.4,1.9-8.7c-0.1-0.6,0.7-1.7,1.4-2.1c1-0.5,2.2-0.8,3.3-0.8c3.7,0,7.4,0.3,11.1,0.4
					c2.4,0.1,4.9,0,7.3,0.1c1.4,0,2.8,0.1,4.1,0.4c2.1,0.5,2.8,1.4,2.9,3.6c0.1,2.2,0,4.4-0.1,6.6c-0.3,3.9,0.4,7.6,1.3,11.3
					c0.6,2.8,1.2,5.6-0.4,8.4c-1,1.7-2,2.7-4.1,2.3c-2.4-0.4-4.8-0.9-7.2-0.9c-7.2,0-14.3,0.3-21.5,0.5c-3.5,0.1-6.9,0.1-10.4,0.1
					c-0.2,0-0.6,0-0.7-0.1c-1.9-2-3.9-3.9-5.7-6c-0.6-0.8-0.7-2.2-0.7-3.3c0-6.1,0.1-12.3,0.1-18.4c0-3.1-0.5-3.6-3.5-4
					c-3.4-0.4-6.9-0.5-10.4-1.1c-6-1.1-12-2.5-18.4-3.8c-1.6,6.4-3.3,13.2-5.1,20.6c7.2,1.1,13.9,3,21.2,3.9c0.9-3,1.7-5.7,2.6-8.8
					c-2.2-0.7-4.1-1.2-5.9-1.8c-2.5-0.8-5.1-1.4-7.5-2.5c-1.1-0.5-1.8-2.1-3.2-3.6c3.7-1.2,6.6-1.7,9.7-0.9
					c4.4,1.1,8.7,2.3,13.1,3.5c2.4,0.6,2.8,1.3,1.9,3.4c-1.9,4.7-3.1,9.4-1.3,14.4c0.3,0.9,0.1,2.1-0.1,3.1c-0.8,3.3-2.1,3.9-5.3,3
					c-7.4-2.1-14.9-3.4-22.4-4.5c-2.8-0.4-5.6-1.3-8.4-2.1c-2.9-0.8-3.8-3.5-5.1-5.8c-0.3-0.5-0.1-1.6,0.2-2.3
					c2.8-6.9,5-13.9,6.6-21.2c0.3-1.1,2.2-2.2,3.6-2.7c2.4-0.9,4.9-1.4,7.3-1.9c0.9-0.2,1.8-0.2,2.7,0.1c7.1,1.9,14.4,2,21.6,3.1
					c3.8,0.5,7.4,1.8,11.1,2.8c4.9,1.2,6.6,4.8,6.8,9.3c0.2,3.8-0.2,7.6-0.3,11.5c0,1.4-0.2,2.8-0.2,4.2c0.1,2.9,0.7,3.5,3.6,3.4
					c5.4-0.1,10.9-0.3,16.3-0.4c2.6-0.1,5.1-0.1,7.7-0.1c1.5,0,2.3-0.7,2.3-2C703.4,683.8,703.1,681.9,701.9,679.8z M702.5,678
					c0.8-2.3,1.4-4.4-0.1-6.6c-3.4-0.2-6.7-0.5-10.1-0.7c-2.6-0.1-3,0.3-3.5,2.8c-0.2,0.7-0.1,1.5-0.2,2.5c1.7,0,3.2,0.1,4.6,0
					c2.7-0.2,5.3-0.6,7.5,1.6C701,677.9,701.8,677.9,702.5,678z"/>
				<path d="M563,665.9c1.4,0.4,2.3,0.7,3.2,0.9c3.6,0.9,7.2,1.7,10.8,2.7c2.1,0.6,4.2,1.2,6.3,1.9c3.1,1,6.2,2,9.2,3.2
					c3.5,1.4,4.3,1,5.2-2.4c0.8-3.5,1.7-7,2.5-10.5c0.3-1.4,0.4-2.9,0.6-4.7c-2.5-0.3-4.6-0.4-6.8-0.9c-2.1-0.5-4.2-1.1-6.2-2
					c-2.1-0.9-2.5-1-3.7,0.9c-0.8,1.2-1.3,2.6-2.1,4.3c2.2,0.5,3.8,0.8,5.5,1.1c1.3,0.2,2.5,0.2,3.8,0.5c2.8,0.7,3.2,1.4,2.9,3.8
					c-0.2,1.5-2.1,3.1-3.8,2.9c-3-0.3-6.1-0.4-8.9-1.3c-2.7-0.9-5.5-2.3-7.2-5c-0.7-1.1-0.7-2.1-0.1-3.2c1.4-2.5,2.3-5.4,4.1-7.5
					c1.7-1.9,4.2-3.2,6.5-4.5c1.6-0.9,3.1,0,4.7,0.6c0.2,0.1,0.5,0.1,0.7,0.2c4.5,3.3,9.8,3.8,15.1,4.5c2.9,0.4,4.8,2.8,4.8,5.8
					c0,1.3-0.2,2.5-0.4,3.8c-0.6,3-1.2,5.9-1.8,8.8c0,0.2-0.1,0.5-0.1,0.7c-1.3,4.1-2.6,8.1-4,12.2c-0.5,1.6-1.8,2.2-3.4,2.7
					c-3.4,1.1-6.4-0.4-9.5-1c-1.5-0.3-3.1-0.6-4.3-1.3c-5.7-3.5-12.7-3.6-18.6-6.6c-1.6-0.8-3.6-1-5.4-1.5c-2.2-0.6-4.4-1-6.1-2.9
					c-0.9-1-2.5-1.4-4.4-2.4c5-2.2,3.7-6.7,5.2-10c1.1-2.3,1.8-4.8,2.6-7.2c0.7-2.3,1.4-4.6,2.1-7c-3.2-1.8-5.7-4.4-9.4-5.2
					c-3.4-0.7-6.6-2.8-9.8-4.3c-3-1.4-6.1-2.8-9.3-4.3c-4.9,5.3-7.7,11.6-10,18.2c6.3,1.5,12.3,2.9,18.4,4.3c1.7-1.7,2-3.7,2.3-5.9
					c-3.6-2-7.1-4-10.7-6c-1.1-0.6-2.4-0.9-2.1-2.7c0.3-1.6,1.5-1.7,2.8-2.1c5-1.5,8.6,1.2,12.3,3.7c0.8,0.6,1.5,1.5,2.4,1.9
					c2.9,1,3.4,3.4,3.3,5.9c-0.1,3.7-0.5,7.4-1.1,11c-0.4,2.4-1.5,4.8-2.3,7c-4.3,1.1-7.6-0.2-10.6-2.7c-3-2.6-6.8-3.6-10.5-4.3
					c-4.5-0.8-8.3-2.4-11.6-5.6c-1.1-1.1-1.5-1.9-0.5-3.2c0.4-0.5,0.8-1.2,1-1.8c2.5-7.1,6.7-13.2,10.3-19.7
					c1.4-2.4,3.8-3.5,6.3-3.8c3.1-0.3,6.1,0.1,9.1,1.8c2.5,1.4,5.3,2.1,8,3.2c1.4,0.5,2.8,1.1,4.2,1.7c2.1,0.8,4.3,1.6,6.4,2.4
					c0.6,0.2,1.4,0.3,1.9,0.7c2.5,1.8,5.1,3.6,7.4,5.6c1.3,1.1,1.6,2.8,1,4.5c-1.5,4.1-3,8.2-4.6,12.3
					C565.4,660.6,564.3,662.9,563,665.9z"/>
			</g>
			<path d="M429.8,511.9c-2-5.5-3.7-11.1-5.2-16.8c-2-8.1-1.1-16.3-0.2-24.5c0.2-1.4,0.7-2.8,0.5-4.1c-0.5-3.6,0.2-6.9,1.2-10.3
				c2.5-8.7,4.3-17.7,9.6-25.3c3.9-5.6,8.2-10.9,12.2-16.4c8.8-12.3,20.7-21.5,31.7-31.6c3.9-3.6,7.8-7.2,11.7-10.9
				c3.2-3,6.3-6.1,9.6-8.9c0.8-0.7,2.1-0.9,3.2-1.2c1.4-0.4,3-0.5,4.2-1.2c10.1-5.5,20.1-11.3,30.3-16.6
				c16.8-8.7,34.4-15.6,52.6-20.7c18-5.1,36-10.4,54.3-14.2c24.9-5.2,50.2-7.7,75.7-7.6c17.7,0.1,35.3,2,52.7,5
				c11.7,2,23.6,3.4,35.3,5.7c23.3,4.6,46.6,9.6,69.9,14.6c6,1.3,11.9,2.8,17.8,4.7c8.2,2.6,16.1,5.9,24.3,8.4
				c10,3,18.8,8.4,27.9,13c12.5,6.3,23,15.3,33,24.9c5.2,5,10.4,9.9,15.1,15.3c7.8,8.8,12.8,19.1,16,30.3c1.3,4.4,3.1,8.7,4.7,13
				c0.3,0.8,0.8,1.7,0.8,2.5c-0.1,5.7-0.1,11.3-0.5,17c-0.3,4.9-0.8,9.8-1.5,14.6c-0.5,3.6-0.9,7.3-2.1,10.7
				c-3.7,10-8.1,19.7-11.7,29.7c-2,5.3-2.9,11-4.6,16.5c-0.8,2.7-2,5.2-3.1,7.8c-4.4,9.9-8.8,19.8-13.1,29.8c-0.9,2.2-1.2,4.7-1.9,7
				c-1,3.5-2,7.1-3.3,10.5c-1.7,4.2-3.9,8.3-5.5,12.5c-2.4,6.2-4.8,12.3-6.6,18.7c-3.9,14.4-11.7,26.8-18.4,39.8
				c-4.3,8.2-8.4,16.5-13.2,24.4c-4.5,7.3-9.6,14.2-14.8,21c-5.7,7.3-11.6,14.5-17.8,21.4c-6.9,7.7-14.2,15-21.3,22.5
				c-0.7,0.7-1.6,1.5-2.5,1.9c-6.1,2.4-10.3,7.2-15,11.3c-1.6,1.4-3.2,2.7-4.7,4.2c-8.4,8.2-19,12.3-29.4,17
				c-1.6,0.7-3.1,1.5-4.9,2.4c2.6,13.9,8.4,26.3,14.7,38.5c-8.8,7.3-18,12.1-28.9,14c-23.7,4.1-47.4,7.6-71.6,6.8
				c-12.2-0.5-24.4-2.1-36.6-3.3c-8.2-0.7-16.5-1-24.6-2.3c-9.6-1.6-19.2-3.9-28.6-6.4c-3.2-0.9-6-3.5-8.9-5.4
				c-2.2-1.4-4.3-2.8-6.3-4.4c-1.8-1.4-2.3-3.3-1.2-5.6c2.8-5.4,5.2-11.1,8.3-16.4c4.2-7.3,3.8-8.7-4.2-10.7
				c-1.9-0.5-3.5-0.6-3.9-3.1c-0.1-0.9-2.1-1.7-3.4-2.2c-14.2-6.6-26.5-16.2-39.3-25.1c-10.8-7.6-19.7-17.1-28.8-26.5
				c-0.4-0.4-0.7-1.1-1-1.1c-4,0.1-5.2-3.4-7.3-5.6c-2.2-2.4-4-5.3-5.9-7.9c-1.7-2.4-3.2-5-5-7.3c-12.9-16-22.9-33.9-33.3-51.5
				c-6.6-11.1-12.4-22.7-18.7-34c-2-3.6-4.5-7-6.7-10.5c-1.1-1.9-2.1-4-2.9-6.1c-1.4-3.8-3.3-7.3-6.4-10c-1.6-1.4-3.6-2.2-1.8-5.1
				c0.5-0.7-1.5-3.4-2.8-4.7c-4.1-3.9-7.8-8.4-10.3-13.4C447.8,550.8,437.1,532.1,429.8,511.9z M741.3,323.7c0,0.2-0.1,0.3-0.1,0.5
				c-4.5,0.3-9.1,0.6-13.6,0.8c-9.8,0.6-19.6,0.7-29.4,1.7c-26.4,2.6-52.2,8.2-77.9,14.1c-15.3,3.5-30.5,8-45,14.2
				c-10.1,4.3-20.3,8.7-29.9,14c-8.3,4.5-16,10.1-23.6,15.7c-9.6,7-19.3,14.1-28.2,21.9c-9.5,8.3-18.2,17.4-27.1,26.2
				c-5.6,5.6-10.6,11.6-12.9,19.4c-1.3,4.5-3.8,8.6-5.5,13c-1.6,4.2-3.4,8.6-2.2,13.3c3.5,13,3.9,22,13.4,31.9
				c32.2,33.8,69.4,49.1,111.2,68.4c17.8,8.2,39.5,11.2,58.5,16.1c39.3,10.2,80.6,8.3,121,5c29.6-2.4,57.1-5.6,85.4-13.9
				c4.1-1.2,8-2.4,10.9-5.8c1-1.1,2.6-1.8,4-2.5c11.6-6.2,23.5-11.6,34.5-18.8c17.3-11.3,34.4-22.9,48.7-38.1
				c2.3-2.4,4.8-4.7,7.4-6.7c22.2-17.9,38.6-40.4,50.8-66c3.4-7.1,5.6-14.7,6.5-22.6c0.4-4,0.2-7.7-2.3-11c-2.7-3.7-5-7.7-8.1-11
				c-12.5-13.3-25.9-25.5-42.8-33.3c-12.2-5.7-24-12.4-37.1-15.8c-15.7-4.1-31.2-8.8-47.4-11.3c-16.9-2.5-33.7-6.5-50.5-9.6
				c-8.9-1.7-17.9-3.1-26.9-4.3C769.1,327,755.2,325.4,741.3,323.7z M890.1,677.5c10.4-14.6,20.4-29.7,29.2-45.1
				c16.1-28,26.6-58.1,40.8-86.8c0.6-1.3,0.9-2.8,1.6-5.1c-8.3,4.9-15.6,9.4-21.6,15.7c-9.7,10.2-20.7,18.8-33.4,25
				c-5.6,2.8-11.4,5.2-16.8,8.5c-7.3,4.4-14.9,8.3-23,11.1c-3.6,1.3-7.3,1.9-11,2.7c-5.9,1.3-11.5,3.9-17.2,6
				c-1,0.3-2.2,1.2-2.9,0.8c-3.6-1.7-6.9,0.2-10.2,0.8c-2.9,0.5-5.9,1.8-8.7,1.7c-8.4-0.5-16.5,1.9-24.7,2.8
				c-7.4,0.8-14.5,3.7-21.8,5.5c-6.1,1.5-12.2,2.8-18.4,4.1c-3.3,0.7-6.5,1.2-9.8,1.7c-5.7,0.9-11.4,1.9-17.1,2.7
				c-2.4,0.4-4.9,0.4-7.3,0.7c-10.1,1.1-20.2,2-30.3,3.4c-7.5,1.1-14.9-1.3-22.3,0.1c-0.8,0.2-2.2-0.5-2.7-1.2
				c-1.4-1.8-3.1-2.1-5.1-2c-8.2,0.2-16.5,0.3-24.7,0.5c-3.1,0.1-6.4,0.9-9.4,0.4c-6-0.8-11.8,0.4-17.7,0.4c-1.3,0-2.7-0.2-4-0.5
				c-0.4-0.1-0.6-0.8-1-1.3c0.8-1.1,1.5-2.1,2.5-3.5c-1.5-0.5-2.6-1-3.8-1.3c-7.6-2-15.3-3.4-22.7-6c-12.5-4.3-24.9-9.1-37.2-14.2
				C528,600.3,516.6,595,505,590c-1.4-0.6-2.8-2.2-5-0.7c3.9,6.6,7.9,12.9,11.7,19.4c5.7,9.6,11.2,19.3,17,28.9
				c0.9,1.5,2.5,2.5,4,3.8c-0.8,2.1,0.2,5.3,3.6,9.3c0.5,0.6,1.9,0.3,3.2,0.5c-1.8,2.6-0.3,4.8,1,7.1c2,3.6,4.5,7,6.9,10.2
				c2.5,3.2,3.3,7.1,5.7,10.3c3,4,5.4,8.6,8.5,12.6c5.4,7.1,10.9,14.1,16.5,21.1c7.6,9.5,15.6,18.6,24.8,26.4
				c12.6,10.7,26.3,19.6,41.1,27.1c12.2,6.2,25.1,9.6,38.7,10.2c9.4,0.5,18.9,0.7,28.4,1c14.4,0.5,28.7-0.1,42.8-3.1
				c11.5-2.4,22.8-5.2,34.2-8.1c5-1.3,10.1-2.9,14.9-5c12.7-5.4,23.9-13.6,33.7-23c10.9-10.4,22.8-19.7,32.1-31.7
				C875.8,697,883,687.4,890.1,677.5z M666.1,791.1c-4,7.3-5.9,15.7-12.4,21.9c1.3,0.9,2,1.8,2.9,2c2.9,0.8,5.8,1.7,8.7,2
				c12,1.2,24,2.5,36.1,3.2c11,0.6,22,0.8,33.1,0.6c17.2-0.3,34.1-3.3,50.9-6.3c9.4-1.7,18.6-4.6,27.8-7.1c0.8-0.2,1.4-0.9,2.2-1.4
				c0.5-0.3-8-22-10.3-22.9c-4.5-1.7-20.1,5.8-25.3,6.7c-19.7,3.7-40,3.6-59.9,4.5c-0.5,0-1,0-1.6-0.1c-9-1.1-18.2-0.4-27-3.2
				c-0.3-0.1-0.7-0.1-1-0.1C682.3,791.1,674.4,791.1,666.1,791.1z"/>
		</g>
		<g>
			<g>
				<g>
					<path class="st1" d="M1360.5,794.1c-1.6-7.3-3.5-12.7-12.2-12.2c-20.3,1.1-40.3,5.2-60.2,9.3c-47.8,9.8-89.8,19.5-137.6,29.3
						c-12.6,2.6-50.6,10.5-63.4,11.6c6.3-4.4,34-9.5,41.4-11.5c21.4-5.7,43.7-12,62.7-16.4c15-3.5,69.8-18.7,80.2-22.1
						c24.2-7.9,39.1-10.1,63.3-18.2c6.8-2.3,11.3-5.7,11.7-13.4c0.2-5.1-1-10.5-3.9-14.8c-2.4-3.5-4.8-7.9-9.4-8.6
						c-3.4-0.5-6.8,0.5-10.1,1.5c-29.6,9-58.7,18.4-88.3,27.2c-27,8-53.9,16.7-81.2,23.7c-14.9,3.8-113.8,35.6-125.6,38.7
						c-10.6,2.7-50.2,15.3-65.4,20.5c-30.4,10.3-85.3,23-115.8,33.1c-4.4,1.5-9,3.1-11.8,6.8c-2.2,2.9-2.5,7.5-0.1,10.4
						c2.4,2.9,6,1.2,5.2,5c-0.7,3.6-3.1,6.8-1,10.4c1.3,2.2,4.1,2.9,6.7,3.2c9.6,1.2,19.8-0.4,29.3-1.5c11-1.2,21.9-3.5,32.6-6.2
						c13.3-3.3,26.5-5.9,40.1-8.6c31.2-6.2,175.6-36.8,213-43.6c30.3-5.5,61-9.5,91.5-14.5c26.6-4.4,70.1-13.1,84.3-14.5
						c5.5-0.6,18.8-2.5,22.7-6.4C1363.8,807.7,1361.8,799.6,1360.5,794.1z"/>
				</g>
			</g>
			<g>
				<g>
					<path d="M1360.5,794.1c-1.6-7.3-3.5-12.7-12.2-12.2c-20.3,1.1-40.3,5.2-60.2,9.3c-47.8,9.8-89.8,19.5-137.6,29.3
						c-12.6,2.6-50.6,10.5-63.4,11.6c6.3-4.4,34-9.5,41.4-11.5c21.4-5.7,43.7-12,62.7-16.4c15-3.5,69.8-18.7,80.2-22.1
						c24.2-7.9,39.1-10.1,63.3-18.2c6.8-2.3,11.3-5.7,11.7-13.4c0.2-5.1-1-10.5-3.9-14.8c-2.4-3.5-4.8-7.9-9.4-8.6
						c-3.4-0.5-6.8,0.5-10.1,1.5c-29.6,9-58.7,18.4-88.3,27.2c-27,8-53.9,16.7-81.2,23.7c-14.9,3.8-113.8,35.6-125.6,38.7
						c-10.6,2.7-50.2,15.3-65.4,20.5c-30.4,10.3-85.3,23-115.8,33.1c-4.4,1.5-9,3.1-11.8,6.8c-2.2,2.9-2.5,7.5-0.1,10.4
						c2.4,2.9,6,1.2,5.2,5c-0.7,3.6-3.1,6.8-1,10.4c1.3,2.2,4.1,2.9,6.7,3.2c9.6,1.2,19.8-0.4,29.3-1.5c11-1.2,21.9-3.5,32.6-6.2
						c13.3-3.3,26.5-5.9,40.1-8.6c31.2-6.2,175.6-36.8,213-43.6c30.3-5.5,61-9.5,91.5-14.5c26.6-4.4,70.1-13.1,84.3-14.5
						c5.5-0.6,18.8-2.5,22.7-6.4C1363.8,807.7,1361.8,799.6,1360.5,794.1z M845.6,884.8c-1.6-0.6-2-1.6,1-3.4
						c20.7-12.8,45.8-15.5,69.4-21.5c9.7-2.5,98.3-27.6,116.9-34.3c41.9-15,62.3-19.5,93.9-27.6c12.2-3.1,163.3-49,174.4-52.3
						c6.7-2,15.4-5.5,22.5-5c0.5,0,1,0.1,1.4,0.4c0.4,0.3,0.6,0.8,0.7,1.2c0.6,1.4,1.1,2.9,1.7,4.3c0.5,1.3,1,2.6,0.8,4
						c-0.9,5-12.2,6.3-16.4,7.7c-7.1,2.3-14.2,4.6-21.3,6.9c-10.8,3.5-21.5,7.4-32.4,10.5c-4,1.1-8.1,2.1-12,3.3
						c-6.1,1.9-12,4.3-18.1,6.1c-5.4,1.6-11,2.7-16.5,4.2c-6,1.6-11.9,3.4-17.8,5.1c-7.2,2.1-14.5,4.1-21.7,6.2
						c-4.7,1.4-9.4,2.8-14.2,4.1c-8,2.2-16.1,4.3-24.1,6.5c-14.5,4-28.9,8.7-43.5,12.2c-13.6,3.3-59.5,15.8-69,18.4
						c-8,2.2-86.5,23.5-107.9,28.8c-10.6,2.6-21.2,5.2-31.7,7.8c-9.2,2.3-18.9,5.9-28.3,6.7C851.6,885.5,847.7,885.5,845.6,884.8z
						 M1337.9,805c-30.9,6-140.2,23.9-163.8,29c-10.8,2.3-143.9,29.3-156.4,32.5c-11.3,2.9-82.3,15.9-106,22.1
						c-11.9,3.1-23.7,6.1-35.8,8.4c-5.8,1.1-11.8,2.4-17.7,3c-3.8,0.4-8.9-2.5-2.9-4.6c9.6-3.3,19.4-5.4,29.2-8.2
						c7.9-2.3,15.8-5.1,23.8-6.7c8.5-1.7,39.6-8,46.4-10.3c7.9-2.6,16-4.6,24-6.5c14.9-3.5,29.8-6.9,44.7-10.3
						c48.4-11,96.9-20.6,145.7-29.5c23.6-4.3,78.9-15.1,100-18c12.3-1.7,24.5-3.6,36.8-5.6c11.8-2,23.6-5.4,35.4-5.4
						c0.4,0,0.8,0,1.1,0.1c0.4,0.1,0.8,0.3,1,0.6C1346.7,800.4,1342.5,804.1,1337.9,805z"/>
				</g>
			</g>
		</g>
	</g>
</g>
<g id="Broth__x26__Noodles">
	<g>
		<path d="M538.2,559.8c6.4,5,13.2,9.5,20.3,13.5c3.9,1.8,7.9,3.6,11.9,5.5c17.8,8.2,39.5,11.2,58.5,16.1c39.3,10.2,80.6,8.3,121,5
			c29.6-2.4,57.1-5.6,85.4-13.9c4.1-1.2,8-2.4,10.9-5.8c1-1.1,2.6-1.8,4-2.5c11.6-6.2,23.5-11.6,34.5-18.8
			c15-9.8,29.8-19.8,42.8-32.2c8.7-9.1,15-19,15.7-29.7c1.8-27.9-18.6-51-39.5-67.8c-6.7-5.4-13.7-10.4-20.7-15.5
			c-3.8-2.8-7.8-5.4-11.6-8.1c-1.3-0.9-2.6-1.8-3.9-2.6c-4.5-2.6-9-5.1-14.1-6.3c-1.7-0.4-3.1-1.1-4.6-2c-3.5-2.2-6.9-4.4-10.5-6.4
			c-8.9-4.8-18.7-7.2-28.3-10.3c-4.8-1.6-9.9-2.4-14.8-3.8c-7.6-2.1-15.2-3.9-23.1-4.5c-3.1-0.2-6.2-0.5-9.2-1
			c-11.9-2.2-24-3-36.2-3.2c-5.3-0.1-10.7,0-16,0c0-0.2,0-0.5,0-0.7c-3.7,0-7.5,0-11.2,0c-8.3-0.1-16.6,1-24.8,2
			c-7.2,0.9-14.4,1.5-21.5,2.5c-4,0.5-7.9,1.8-11.8,2.4c-8.4,1.2-16.7,3.3-24.8,5.7c-21.7,6.3-41.6,16.1-59.8,29.1
			c-2.9,2.1-5.8,4.2-8.2,6.8c-0.9,1-2.1,1.7-3.1,2.7c-2.6,2.5-5.4,4.9-7.8,7.7c-2.9,3.4-5.3,7.2-8.1,10.6c-3,3.6-6.5,6.9-9.5,10.6
			c-1.9,2.3-4.1,4.2-5.8,6.8c-4.7,7.2-10,14.1-13.2,22.2c-1.6,4.1-2.9,8.3-2.7,12.8C499.3,516.1,514.4,541.2,538.2,559.8z M733,384
			c-0.7-0.5-1.3-1-1.9-1.4C732.5,382.2,732.5,382.2,733,384z"/>
	</g>
	<g>
		<g>
			<g>
				<path class="st2" d="M654.4,452.6c1,0.3,1.8,0.5,2.5,0.7c1.6,0.5,3.3,0.9,4.9,1.5c2.8,1,5.6,2,8.2,3.4c1.7,0.8,3.7,0.9,5.2,2.5
					c0.7,0.8,2.4,0.7,3.6,1c0.7,0.2,1.8-0.6,2,0.9c0,0.1,1,0.1,1.6,0.1c0,1.2,0,2.3,0,3.5c0,1.8-1.2,2-2.6,2c-0.2,0-0.4,0.1-0.8,0.2
					c0.1,0.4,0.1,0.8,0.2,1.4c-0.7-0.2-1.2-0.3-1.7-0.5c-1.4-0.4-2.7-0.9-3.9,0.6c-0.2,0.3-0.7,0.4-1.1,0.4
					c-2.3-0.2-4.5-0.4-7.1-0.6c0.4-0.7,0.6-1.1,0.8-1.4c-0.2-0.1-0.2-0.2-0.3-0.2c-1,0.1-2.1,0-3,0.4c-2.9,1.3-5.7,0.5-8.5,0.1
					c-2.2-0.3-4.3-0.9-6.5-1.2c-0.8-0.1-1.6,0.4-2.4,0.4c-4.5,0.4-8.9,1-13,2.7c-1.6,0.7-3.1,1.7-4.6,2.6c0,0.2,0,0.4-0.1,0.6
					c1.7,0.4,3.4,0.9,5.1,1.2c7.7,1.6,15.6,1,23.4,1.4c6.3,0.3,12.7,0.5,19,0.6c3.4,0,6.8-0.5,10.2-0.6c7.8-0.2,15.6-0.3,23.4-0.2
					c2.6,0,5.1,0.9,7.6,1.6c3.8,1.1,7.5,2.1,11.2,3.5c3.9,1.5,6.4,4.7,9,7.8c1.4,1.7,3.1,3.1,4.4,4.8c1.5,1.9,3,3.9,4.1,6
					c2,3.7,2.9,7.8,2.8,11.9c-0.1,6.9-2.7,12.6-9.5,15.5c-3.2,1.4-6.3,3-9.6,3.9c-3.2,0.9-6.5,1.3-9.9,1.6c-4.3,0.5-8.7,1.1-13,1
					c-6.9-0.1-13.7-0.8-20.6-1.1c-3.7-0.2-7.5,0.1-11.2-0.2c-5.4-0.5-10.8-1.4-16.2-2.1c-4.7-0.6-9.4-1.2-14.1-1.9
					c-3.3-0.4-6.6-1.1-10-1.3c-4.5-0.3-9.1-0.8-13.5-0.2c-3.2,0.4-6.3,2.3-7.6,5.9c-0.7,1.8-0.5,2.4,1.3,3.2
					c3.6,1.8,7.4,2.4,11.3,2.9c3.1,0.4,6.2,1,9.3,1.2c3.5,0.3,7,0.5,10.6,0.5c5.3,0,10.7-0.3,16-0.4c6.3-0.1,12.6,0.3,18.9-0.4
					c8.8-0.9,17.5-0.9,26.3-0.9c4.1,0,8.3-0.3,12.4,0c6.2,0.5,11.7,2.5,15.6,7.8c3.5,4.6,7,9.2,10.4,13.9c2.6,3.6,4,7.8,4.6,12.1
					c0.2,1.5-0.9,3.4-1.8,4.8c-0.8,1.2-2.2,2-3.2,2.8c0,0.1-0.1-0.2-0.2-0.7c-1.3,0.8-2.4,1.8-3.6,2.3c-1.7,0.8-3.5,1.7-5.3,1.9
					c-2.4,0.2-4.8-0.3-7.3-0.5c-0.7-0.1-1.5-0.3-2.2-0.2c-3,0.3-5.7-0.7-8.4-1.7c-1.1-0.4-2-1.3-3.1-2c-0.2-0.2-0.6-0.4-0.7-0.3
					c-1.7,0.8-2.9-0.1-4.1-1.2c0.1-0.6,0.2-1.2,0.3-1.7c5.4-2.7,10.8-5.2,16.1-7.9c0.8-0.4,2.4-0.7,1.8-2.5c-0.1-0.2,0.9-0.7,1.4-1
					c-0.1-0.2-0.2-0.3-0.3-0.5c-1.3-0.1-2.6-0.2-4-0.3c-2.5-0.2-4.9-0.5-7.4-0.4c-3.2,0.1-6.5,0.6-9.7,0.7
					c-9.3,0.3-18.6,0.6-27.9,0.9c-4.9,0.1-9.9,0.4-14.8,0.4c-6.6,0-13.3,0.9-19.9-0.5c-4.5-0.9-9.2-1-13.7-2
					c-3.5-0.8-6.8-2.4-10.1-3.8c-2.2-1-4.3-2.1-6.2-3.5c-4.8-3.7-9.1-7.8-12.4-13c-2.2-3.5-3.6-7.3-4.9-11.1
					c-0.6-1.8-0.7-3.8-0.8-5.7c-0.4-4.8-0.3-9.7,1.6-14.2c0.8-2.1,2-4.1,3.5-5.7c2.2-2.4,5.2-3.7,8.3-4.8c5.7-1.9,11.3-0.7,16.9,0.3
					c5.5,1,11,1.5,16.5,2.4c4.2,0.7,8.4,1.8,12.7,2.4c5,0.7,10,1.3,15,1.7c5.5,0.5,11.1,0.7,16.7,1.1c1.2,0.1,2.4,0,4.1,0
					c-1.8-0.9-3.1-1.5-4.8-1c-0.7,0.2-1.6,0-2.3-0.4c6.4,0,12.8,0.2,19.2-0.1c6.5-0.3,13.1-0.7,19.4-2.8c1.8-0.6,3.6-1.5,5.3-2.3
					c0-0.2,0-0.3,0-0.5c-0.6-0.3-1.1-0.6-1.8-0.8c-4.3-1.4-8.7-2.4-13.3-2.3c-6.4,0.1-12.7,0-19.1,0.1c-5,0-10.1,0.3-15.1,0.2
					c-4.9-0.1-9.8-0.4-14.8-0.6c-1.5-0.1-2.9,0.1-4.4-0.1c-4.7-0.4-9.4-0.6-14-1.5c-3.8-0.7-7.5-2.2-11.2-3.4
					c-2.8-0.9-5.6-1.9-8.3-3c-2.2-0.9-4.7-1.8-6.4-3.4c-1.9-1.8-3-4.5-4.5-6.7c-1.9-2.8-2.2-6.2-3-9.4c-0.6-2.5,0.7-4.7,2.1-6.6
					c0.3-0.4,0.8-0.7,0.9-1.2c1.4-3.9,4.7-5.4,8.1-6.8c5.1-2.2,10.6-2.4,16-2.6c1.3,0,2.6,0.3,3.9,0.2c1.7-0.1,3.4-0.5,5.1-0.6
					c1.2-0.1,2.4,0.1,3.5,0C654,453.8,655.1,454.1,654.4,452.6z"/>
				<path class="st2" d="M791.5,523.9c3,0.9,5.6,2.2,8.2,2.4c3.9,0.4,7.8-0.1,11.7-0.1c3.8,0,7.5,0.1,11.3,0.3c6,0.4,12,0.9,18,1.4
					c1.3,0.1,2.7,0.4,4,0.8c3.4,1.1,6.9,2.1,9.4,4.6c1.7,1.7,3,3.8,4.4,5.7c0.8,1.1,1.5,2.2,2.2,3.4c0.3,0.5,0.6,1.1,0.7,1.7
					c0.1,2,0.3,4.1,0.2,6.1c-0.1,1.1-0.7,2.2-1.3,3.1c-1.5,2.2-3,4.4-4.6,6.6c-0.2,0.3-0.5,0.6-0.8,0.8c-2.9,1.9-5.7,3.7-9.5,3.6
					c-2.2-0.1-4.4,0.7-6.7,1.1c-2.5,0.4-4.9,0.8-7.4,1.2c-1.2,0.2-2.3,0.7-3.5,0.6c-3.3-0.2-6.5-0.5-9.7-0.8
					c-1.8-0.2-3.5-0.6-5.3-0.9c0.5-2.5-3.5-5-7.8-5.5c-0.7-1-1.1-1.8-1.7-2.3c-1.6-1.3-2.2-3-1.1-4.7c0.2-0.4,1-0.6,1.5-0.7
					c3.5-0.1,7-0.3,10.6-0.3c3.5,0.1,7,0.5,10.5,0.5c2.6,0,4.2-1.8,5.7-3.6c1.2-1.4,2.9-2.5,2.4-5c-0.8,0-1.6,0-2.4,0
					c-5.8-0.1-11.6-0.4-17.4-0.3c-3.3,0-6.5,0.1-9.8-0.3c-4.1-0.5-8.3-0.3-12.5-0.5c-2.3-0.1-4.5,0.3-6.8,0.5
					c-7.6,0.9-14.8-0.6-19.4-7.6c-1.5-2.3-2.4-5.1-3-7.8c-0.7-2.9-0.9-6-1.1-9.1c-0.3-4.8,4.5-10.5,8.9-10.1
					c2.1,0.2,3.6-0.5,5.3-1.2c6.9-2.7,14.1-4.2,21.6-4.1c3.5,0,7-0.3,10.5-0.2c4.8,0.2,9.5,0.7,14.2,1.2c4.3,0.4,8.7,1,13,1.5
					c7.6,0.7,15.1,1.5,22.7,1.9c3.8,0.2,7.7-0.2,11.6-0.6c4.7-0.5,9.3-1.3,14-2c3.2-0.5,6.3-1.5,8.9-3.6c0.8-0.6,1.4-1.4,2.4-2.3
					c-1-0.1-1.5-0.1-1.9-0.1c-4.8-0.4-9.6-0.8-14.3-1.2c-1.2-0.1-2.4-0.1-3.6,0c-3.2,0.3-6.4,0.8-9.6,1c-1.7,0.1-3.3,0-5-0.2
					c1.9-0.3,3.8-0.6,5.7-0.9c0-0.2,0-0.5-0.1-0.7c-2.3,0-4.6-0.1-6.9,0c-1.7,0.1-3.2,0-4.9-0.9c-1.5-0.8-3.5-0.6-5.3-0.9
					c-3.9-0.5-7.9-0.5-11.7-1.5c-4.3-1.1-8.4-3-11.6-6.1c-1-1-1.6-2.5-2.3-3.8c-0.4-0.7-0.6-1.5-1-2.1c-1.6-2.3-1.9-5-2.2-7.6
					c-0.1-0.9-0.3-1.7-0.5-2.5c-0.2-1.2-0.3-2.4-0.4-3.5c6.4-2.9,12.6-5.8,18.9-8.7c0-0.1,0-0.1,0-0.2c-1.6,0.1-3.3,0.2-4.9,0.3
					c-4.6,0.3-9.3,0.8-14,0.9c-4.3,0.1-8.6-0.6-12.6-2.4c-2-0.8-4.2-0.9-6.2-1.3c1.1-0.7,1.1-2.2-0.1-3.2c-0.6-0.5-1.1-1.3-1.5-2
					c-0.5-0.9-0.7-2.1-2.2-1.8c-0.2,0-0.6-0.3-0.6-0.5c-0.2-3-2.5-5.3-2.5-8.4c0-0.4-0.6-0.8-0.9-1.2c1.1-2.8,4.1-4.1,7.8-3.7
					c4.5,0.5,9,1.2,13.5,1.2c4.7,0,9.5-0.8,14.2-1.1c2.3-0.1,4.6-0.1,6.8,0c0.9,0.1,1.7,0.8,2.7,1.4c0.8-0.7,1.7-0.2,2.9,0.6
					c2.5,1.8,5.3,3.3,8,4.9c2.3,1.4,4.7,2.5,6.8,4.2c2.8,2.2,5.3,4.8,7.9,7.3c0.2,0.2,0.5,0.4,0.6,0.6c0.9,2.4,1.9,4.7,2.8,7.1
					c0.2,0.4,0,1,0,1.2c0.4,0.7,1.3,1.4,1.2,2c-0.1,1.7,0.4,3.5-1.2,4.9c-0.7,0.6-1,1.8-1.7,2.4c-0.9,0.7-2,1-3.1,1.5
					c-0.1-0.3-0.2-0.6-0.3-1c-0.3,0.1-0.5,0.2-0.5,0.3c-0.5,1.6-1.7,1.7-3.1,1.9c-3,0.5-5.9,1.4-8.9,2.1c0,0.3,0,0.6,0.1,0.8
					c1.7,0.1,3.4,0.3,5,0.2c4.6-0.3,9.2-0.6,13.8-1c3.1-0.2,6.2-0.8,9.3-0.7c2.7,0.1,5.3,1,8,1.5c1.1,0.2,2.2,0.1,3.2,0.4
					c3.9,0.9,7,3.3,10.3,5.3c1.6,1,3.3,1.8,4.9,2.6c1.7,0.8,3.6,1.3,5.2,2.3c1.3,0.7,2.3,2,3.4,2.9c0.7,0.6,1.1,1.6,2.5,1.3
					c0.4-0.1,1.2,1.5,1.8,2.3c0.7,1.1,1.5,2.2,2,3.5c0.7,1.7,1,3.6,1.5,5.4c0.7,2.3,0.8,4.8,0.2,7c-0.7,2.8-1.7,5.6-4.1,7.6
					c-6,5-13.3,6.1-20.6,7.2c-4.4,0.6-8.9,1.3-13.4,1.6c-3.8,0.2-7.6,0-11.4-0.4c-6.1-0.5-12.1-1.1-18.1-2c-3.5-0.5-7-1.4-10.5-2.1
					c-2.7-0.5-5.4-0.8-8-1.5c-4.7-1.2-9.4-1.9-14.3-1.9c-4,0-8.1-0.8-12.1-0.5c-4.4,0.4-8.6,1.8-12.9,2.8
					C792.7,522.8,792.3,523.2,791.5,523.9z"/>
				<path class="st2" d="M621.3,403c0.5,0.1,0.9,0.3,1.4,0.3c4.9,0.3,9.8,0.6,14.6,0.7c3.1,0.1,6.3-0.2,9.4-0.3c0.5,0,1,0.1,1.5,0.3
					c3,1.3,5.8,2.8,8.9,3.8c2.8,0.9,4.7,2.8,6.7,4.7c0.8,0.7,1.8,1.3,2.7,1.9c1.3,0.8,2.5,1.6,3.8,2.4c2.6,1.6,3.3,4.4,4.6,6.8
					c0.1,0.1-0.4,0.6-0.3,0.5c0.4,1,0.7,1.8,0.9,2.7c0.3,1.4,0.4,2.7,0.5,4.1c0,0.4-0.2,0.9-0.5,1.2c-2.3,2.3-4.7,4.4-8,5.2
					c-1.2,0.3-3,0.1-3.2,2.1c0,0.2-0.7,0.3-1,0.4c-2.2,0.6-4.5,1-6.5,1.9c-4.4,2-9.1,0.9-13.6,1.3c-4.3,0.4-8.6,0.5-12.9,0.8
					c-5.1,0.4-10.2,0.7-15.2,1.4c-2.9,0.4-6.1,0.2-8.6,2.1c-1.9,1.4-3.8,2.9-5.1,4.8c-0.7,1.1-0.3,3.1-0.2,4.6
					c0.1,1.3,0.5,2.6,0.5,3.8c0.1,3.8-1.4,6.6-4.8,8.5c-5,2.8-10.4,3.9-16.2,3.9c-4.7-0.1-9.4,0.1-14,0.6c-2.1,0.2-4.2,1.4-6,2.5
					c-3,1.8-5.9,3.8-8.5,6.3c-2.8,2.7-6.3,5.3-10.8,3.6c-0.3-0.1-0.7-0.2-1-0.1c-1.5,0.6-2.2-0.3-3-1.3c-0.5-0.7-1.3-1.1-2-1.7
					c-1.9-1.6-3.8-3.2-4.6-5.7c-0.3-0.8-0.9-1.4-1.3-2.2c-0.2-0.5-0.4-1.2-0.2-1.6c3.1-4.9,6.6-9.5,11.9-12.4
					c4.8-2.7,9.9-3.7,15.5-3.5c6,0.2,12,0,17.8-1.9c2.5-0.8,3-2.1,2.7-5.7c-0.3-2.8-1.2-5.9,0.7-8.4c2.5-3.3,4.9-6.8,9-8.4
					c4.1-1.6,8.1-3.2,12.3-4.2c2.9-0.7,6.1-0.5,9.1-0.8c4.3-0.4,8.5-1.1,12.8-1.4c3.7-0.3,7.4-0.2,11-0.5c3.4-0.2,6.9-0.6,10.3-0.9
					c1.8-0.1,3.6,0.1,5.3-0.1c1.2-0.1,2.3-0.7,3.5-1.1c0-0.2-0.1-0.4-0.1-0.6c-0.7,0-1.4,0-2.1,0c-4.2,0.1-8.3,0.2-12.5,0.3
					c-0.6,0-1.1,0.2-1.7,0.2c-0.7,0-1.4-0.1-2-0.3c-0.9,0.2-1.8,0.5-2.7,0.6c-3.9,0.3-7.7,0.5-11.6,0.7c-1.6,0-3.2-0.5-4.8-0.5
					c-3.1,0.1-6.2,0.4-9.3,0.5c-1.2,0-2.5,0-3.6-0.3c-3.9-1.3-8.3-1.6-11.4-4.8c-1.1-1.1-2.4-2-3.6-2.9c-2.6-2-2.4-5.2-3.2-8
					c-0.5-1.6-0.8-3.2-1.4-4.7c-0.4-1.1-1.5-1.9-0.8-3.3c0.1-0.1-0.2-0.5-0.3-0.7c-0.6-1.6-1.4-3.1-1.6-4.7c-0.3-2.5,0.9-4,3.9-4.9
					c2.7-0.8,5.5-1.3,8.2-2.1c3.3-1.1,6.6-2.5,9.9-3.6c1.8-0.6,3.6-1.1,5.4-1.4c2.8-0.5,5.7-0.8,8.6-1.1c1.8-0.2,3.6-0.4,5.4-0.2
					c5,0.4,10,0.7,15,1.4c2.4,0.3,4.6,1.9,5.4,4.2c1.1,3.2,2.4,6.6,0.5,10.1c-0.7,1.4-3.6,3-5.2,3C630.8,400.9,626,401.5,621.3,403z
					"/>
				<path class="st2" d="M674,375.1c0.5,0.1,0.9,0.2,1.6,0.3c-0.1-0.6-0.1-1.1-0.2-1.9c2.4-0.2,4.8-0.4,7.2-0.5
					c3.9-0.3,7.9-0.6,11.8-0.9c4.3-0.3,8.6-0.7,12.9-0.7c3.3,0,6.7,0.4,10,0.7c2.3,0.2,4.7,0.4,6.9,0.9c5.1,1.1,10.2,2.3,14.8,4.9
					c2.7,1.6,5.2,3.7,7.7,5.6c0.5,0.4,1,1,1.5,1.4c5.1,3.6,7.2,9.1,9.1,14.7c0.9,2.6,0.7,5.2-0.7,8.3c3.6-0.4,6.7-0.7,9.9-1.1
					c4.4-0.5,8.8-1.1,13.2-1.5c3.5-0.4,7.1-0.7,10.6-1c0.6,0,1.1,0.3,1.9,0.5c1.3-1.5,3.4-1,5.3-1.3c3.3-0.5,6.7-0.9,10-1.2
					c2.5-0.2,4.7,0.4,7,1.6c2.8,1.5,5.6,3.2,9.1,2.6c0.4-0.1,0.8,0.1,1.1,0.2c1.4,0.8,2.9,1.6,4.3,2.5c0.6,0.4,1.1,1.1,1.5,1.5
					c0.9,0.3,1.7,0.5,2.4,0.9c1.6,1,3.1,2.3,4.8,3.2c1.2,0.7,2.7,0.8,4,1.4c2.4,1,3.5,4.1,2.5,6.3c-0.7,1.6-2.4,1.2-3.6,1.7
					c-0.4,0.2-0.8,0.3-0.8,0.3c-1.9,0.3-3.5,0.2-4.9,0.8c-2.4,1.1-4.9,1.1-7.4,0.6c-0.5-0.1-0.9-0.6-1.3-1c-0.6-0.6-1-1.4-1.6-2
					c-0.9-0.9-2-0.8-2.5,0.4c-0.8,1.6-2.2,1.4-3.5,1.4c-5.1,0.2-10.1-0.3-15.2,0.7c-3,0.6-6.1,0.3-9.2,0.7
					c-4.9,0.6-9.7,1.5-14.6,2.1c-4.5,0.6-9,1.2-13.5,1.6c-6.5,0.6-13,1.2-19.5,1.5c-4.2,0.2-8.5-0.4-12.8-0.4
					c-2.6,0-5.2,0.3-7.8,0.5c-2.7,0.1-5.4,0.4-8.1,0.3c-4.6-0.2-9.1-0.9-13.7-0.8c-6.5,0.2-10-3.7-13-8.5c-1.9-3-3.7-6.2-3.4-10
					c0.4-4.8,1.4-9.4,5.6-12.8c0.1,0.7,0.2,1.3,0.3,1.8c0.2,0,0.4,0,0.6,0.1c0.1-0.7,0.2-1.4,0.3-2.1c1.5-0.3,1.3-0.5,2.9-2.1
					c1.3-1.3,3.1-2.1,4.7-3c0.6-0.4,1.3-0.5,2-1.2c-2.3-0.1-4.7-0.3-7-0.4c-4.1-0.2-8.3-0.2-12.4-0.4c-3.4-0.1-6.9-0.3-10.3-0.6
					c-1.6-0.1-3-0.5-3.8-2.3c-0.4-0.9-1.6-1.4-2.4-2.1c-2.6-2.3-3.2-6.3-2.7-9.8c0.4-2.9,2.3-3.9,4.1-5.4c1.3-1,3.8-0.6,4.6,0.7
					c0.3,0.5,0.1,1.4,0.2,2.1C674.4,375,674.2,375.1,674,375.1z"/>
				<path class="st2" d="M469.7,649.1c2.2-0.2,4.4-0.2,6.6-0.5c4.8-0.6,9.4-1.7,12.9-5.4c0.8-0.9,1.5-2,2.2-3c2-3.2,3.9-6.3,5.8-9.6
					c0.7-1.2,1.2-2.6,1.8-3.8c0.7-1.4,1.5-2.7,2.1-4.2c0.7-1.5,1.3-3.1,1.9-4.7c2.1-5.6,4.1-11.2,6.1-16.8c1.7-4.7,3.5-9.4,5.3-14
					c-0.4,1.5-0.8,3.1-1.3,4.7c1.5-0.9,6-16.5,5.8-20.4c-0.7,2.7-1.1,5-1.7,7.2c-0.7,2.2-1.6,4.2-2.5,6.3c0.4-1.6,0.9-3.2,1.2-4.8
					c1-4.7,2-9.5,3-14.3c0.7-3.2,1.3-6.3,2-9.5c0.9-4.3,1.5-8.7,2.8-12.9c2.3-8,5.4-15.6,10.7-22.1c2.9-3.6,5.8-7.2,10.4-8.9
					c2.3-0.8,4.6-1.1,7-0.7c4.8,0.7,9.7,1.1,14.5,1.9c3.8,0.7,7.4,1.8,11,3.5c3.8,1.8,6.4,4.6,9,7.6c1.8,2.1,2.3,4.7,2.7,7.3
					c0.1,0.8,0.1,1.6-0.1,2.2c-0.6,0.9-1.4,1.8-1.7,2.8c-0.5,2.1-0.6,4.2-1,6.3c-0.1,0.5-0.7,0.8-0.9,1.3c-0.5,1.1-0.8,2.3-1.2,3.5
					c-0.1,0.2,0,0.4,0,0.9c-0.5-0.7-0.7-1.1-1.1-1.7c-1,0.7-1.8,1.5-2.8,2c-0.6,0.3-1.5,0.2-2.2,0.4c-1.1,0.3-2.1,0.6-3.2,0.9
					c-0.4,0.1-0.8,0.3-1.2,0.5c-0.7,0.2-1.4,0.4-2.1,0.5c-1-0.3-2.1-0.8-3.2-0.9c-1.2-0.1-1.7-0.6-2-1.6c-1.5-5.6-2.8-11.2-3.1-17
					c0-0.1-0.1-0.2-0.4-0.6c-1.3,2-2.8,3.8-3.8,5.9c-2.8,5.4-4.9,11-5.8,17c-0.7,4.7-1.8,9.3-2.7,13.9c-0.9,5.1-1.6,10.3-2.8,15.4
					c-1.1,4.6-2.6,9.1-4.1,13.6c-1.1,3.4-2.3,6.7-3.4,10.1c-2.1,6.4-4.2,12.8-7.4,18.7c-2.4,4.4-4.6,8.9-7.1,13.3
					c-2.1,3.6-4.3,7.1-6.9,10.3c-3,3.7-7,6.2-11.5,7.4c-4.5,1.2-9.1,2.1-13.8,2.5c-3.6,0.3-7.4-0.1-10.7-2.3
					c-0.5-0.3-1.2-0.6-1.7-0.6c-2.5,0.1-5-1.2-6.4-2.6c-1.5-1.5-4.1-1.9-4.8-4.2C469.6,649.8,469.7,649.6,469.7,649.1z M525.2,540.9
					c0.2,0.1,0.4,0.1,0.5,0.2c0.6-1.8,1.2-3.6,1.7-5.4c-0.2-0.1-0.3-0.1-0.5-0.2C526.4,537.3,525.8,539.1,525.2,540.9z M519.1,570.4
					c0.2,0,0.4,0,0.5,0.1c0.3-1.8,0.5-3.6,0.8-5.4c-0.2,0-0.4-0.1-0.6-0.1C519.6,566.7,519.3,568.5,519.1,570.4z"/>
				<path class="st2" d="M778,472.3c4.4,0.1,8.7,0.2,13,0.4c2.5,0.1,5.1,0,7.4,0.7c3.4,0.9,6.7,2.3,8.1,6.1c0.4,1.2,1.4,2.2,1.9,3.5
					c0.3,0.8,0.1,1.8,0.1,2.8c0,0.1-0.1,0.1,0,0.2c1.3,1.3,1,2.8,1.1,4.4c0.1,1.4-0.5,2.7-1.8,2.8c-2.4,0.2-4.7-0.1-6-2.6
					c-0.6-1.1-1.5-0.6-2.2-0.1c-1.7,1.4-3.6,2.1-5.8,2.2c-1,0-2.1-0.1-3.1,0c-1.2,0.1-2.3,0.5-3.4,0.7c-2.1,0.3-4.3,0.6-6.4,0.7
					c-4.5,0-9-0.2-13.5-0.2c-1.2,0-2.4,0.5-3.5,0.8c-0.4,0.1-0.8,0.4-1.1,0.3c-3-0.3-6.2-0.2-8.9-1.7c-2.8-1.7-5.9-3-7.8-5.9
					c-2.6-4-3.6-8.4-1.9-13c0.8-2.4,2.2-4.5,3.3-6.8c0.9-1.9,2.7-2.2,4.5-2.6c0.7-0.1,1.2-0.7,1.9-1.1c-0.5-0.5-0.9-1.4-1.5-1.6
					c-1.9-0.5-3.9-0.7-5.9-1c-3.3-0.4-6.5-1-9.8-1.2c-3.1-0.2-6.2-0.2-9.3-0.1c-2.3,0.1-4.4-0.7-6.6-1c-3.3-0.4-6.7-0.4-10-0.7
					c-2.7-0.3-5.3-1-8-1.1c-3.6-0.2-5.3-3.3-8-4.9c-0.4-0.2-0.3-1-0.6-1.5c-0.9-1.6-1.7-3.3-2.8-4.8c-1.4-2-1.5-4.2-1.6-6.5
					c0-0.3,1.1-1,1.2-0.9c1.7,1.2,3.6,0.6,5.3,0.5c4.4-0.2,8.8-0.8,13.2-1.1c6.8-0.5,13.5-0.9,20.3-0.2c3.5,0.4,7.1,0.3,10.7,0.8
					c4,0.6,8.1,0.7,11.8,2.6c2.9,1.5,6.1,2.5,9,4c1.6,0.8,3.2,2,4.4,3.4c2.2,2.7,5.4,4.4,6.8,7.9c0.8,2,2.5,3.6,3.8,5.4
					c2,2.7,2.3,5.8,1.9,9.1C778,471.5,778,471.8,778,472.3z"/>
				<path class="st2" d="M475.2,603.8c-1.7-0.1-2.9,1.8-4.5,0.4c0.9-1.6,1.9-3.1,2.7-4.8c1.1-2.2,2.1-4.5,3.1-6.8
					c2.4-6,4.8-12.1,7.2-18.1c1.7-4.2,3.9-8.3,5.3-12.7c1.6-5.1,2.5-10.3,3.5-15.5c1.5-7.4,2.4-15,4.2-22.4
					c1.7-6.7,4.2-13.3,8.1-19.2c2.5-3.6,5.7-6.3,10-7.6c3.3-1,6.5-2.4,9.8-3.1c3.8-0.8,7.7-1,11.6-1.3c1.1-0.1,2.3,0.2,3.3,0.5
					c2.5,0.9,5,1.7,7.3,3c1.8,1,3.3,2.6,5,4c0.4,0.4,0.2,2.4,0,3c-0.2,0.6-0.1,1.2-0.9,1.7c-0.9,0.5-1.5,1.4-2.3,2.3
					c0,0,0.2,0.4,0.6,1.1c-0.7,0-1.3,0.1-1.8,0c-1.3-0.3-2.6-0.7-3.9-0.8c-0.4-0.1-0.8,0.4-1.1,0.6c-3-1.2-6.2-2.5-9.3-3.8
					c-1.2-0.5-2-0.2-2.8,0.8c-3.2,3.8-5.3,8.1-7.2,12.6c-2.4,5.8-2.8,12-3.8,18c-1.1,6.6-2,13.4-3.9,19.8c-2,7.2-4.8,14.2-10.2,19.7
					c-1.2,1.2-2,2.9-2.7,4.5c-2.5,5.8-5.5,11.3-8.9,16.6c-2.5,3.9-6,6.1-10.1,7.7c-0.5,0.2-1,0.1-1.5,0.1c-1.2,0.2-2.5,0.5-3.7,0.6
					C477.2,605.1,475.8,605.5,475.2,603.8z"/>
				<path class="st2" d="M785.8,579.4c-1.4-0.9-2.4-0.7-2.6,1.2c-1.5-1.1-2.4-0.4-3.3,0.6c-0.6,0.7-1.1,1.1-1.9,0.2
					c-0.2-0.2-1.2,0.3-1.8,0.8c-2.3,0.3-4.5,0.6-6.8,0.9c0.1-0.1,0.1-0.3,0.2-0.4c-1.1-0.6-2.1-1.4-3.2-1.8c-1.1-0.4-2-0.8-1.8-2.2
					c0-0.2,0-0.4-0.1-0.5c-2.9-3.3-1.2-6.7-0.3-10.1c0.7-2.6,1.4-5.1,0.9-7.8c-0.1-0.4-0.5-0.8-0.8-1.1c-3.6-2.6-7.3-5.2-11-7.7
					c-1-0.6-2.1-1-2.9-1.7c-0.7-1-1.2-2.2-2.1-3c-0.4-0.4-1.5-0.1-2.1-0.1c0-0.6,0.2-1.5-0.1-2.3c-0.3-0.8-1-1.5-1.7-2.4
					c0.7-2.2,1.9-2.4,4.4-1.6c2.3,0.7,4.7,1.8,7.3,0.6c0.2-0.1,0.3-0.3,0.4-0.2c2,0.9,4.3,0.1,6.4,1.4c2.7,1.6,5.6,2.9,8.5,4
					c4.1,1.5,7.5,4.1,11.1,6.6c2,1.4,4.1,2.6,6,4.2c3.3,2.7,4.7,6.4,5.3,10.5c0.1,0.5-0.4,1.1-0.7,1.7c-0.4,0.6-0.7,1.3-1.2,1.8
					c-0.7,0.8-1.3,1.8-2.2,2.3c-1.6,0.8-2.9,1.7-3.1,3.7C786.7,577.7,786.2,578.5,785.8,579.4z"/>
				<path class="st2" d="M609.4,487.6c0.3,0.9,0.5,1.9,1,2.7c1.2,2,0.6,3.8-1.7,4.8c-2.8,1.2-5.7,1.4-8.7,1.4
					c-2.6,0-4.6,1.4-6.5,2.9c-2.2,1.8-4.3,3.6-6.6,5.3c-1.5,1.1-2,2-1.5,3.8c0.6,2.3-0.9,4.3-3.3,4.5c-2.2,0.2-4.5,0-6.3-1.1
					c-3.3-2-6.4-4.3-8.4-7.8c-0.9-1.6-1.9-3.1-2.7-4.7c-1.2-2.5-0.5-5.1,0.7-7.3c3.4-6.2,8.4-10.2,15.7-11.2
					c4.3-0.6,8.5-0.1,12.7,0.7c0.7,0.1,1.4,0.1,2,0c1.7-0.1,3.4-0.1,4.7,1.3c0.5,0.6,1.5,0.7,2.3,1.1c1.3,0.7,2.5,1.5,3.7,2.3
					C607.4,486.7,608.4,487.1,609.4,487.6z"/>
				<path class="st2" d="M650.7,504.3c-3-0.5-6.1-1-9.1-1.5c3.1,0.2,6.3-0.7,9.1,1.3C650.7,504.2,650.7,504.3,650.7,504.3z"/>
			</g>
		</g>
		<g class="st3">
			<path class="st4" d="M744.6,580.5L744.6,580.5C744.6,580.5,744.6,580.5,744.6,580.5z"/>
			<path class="st4" d="M717.7,563.9c2.5-0.1,4.9,0.3,7.4,0.4c1.3,0.1,2.6,0.2,4,0.3c0.1,0.2,0.2,0.3,0.3,0.5
				c-0.5,0.3-1.5,0.9-1.4,1c0.6,1.7-0.9,2-1.8,2.5c-5.3,2.7-10.6,5.3-16.1,7.9c-0.1,0.5-0.2,1.1-0.3,1.7c1.2,1.1,2.4,2,4.1,1.2
				c0.2-0.1,0.5,0.2,0.7,0.3c1,0.7,1.9,1.6,3.1,2c2.7,1,5.4,2,8.4,1.7c0.7-0.1,1.5,0.1,2.2,0.2c2.4,0.2,4.9,0.7,7.3,0.5
				c1.8-0.2,3.6-1.1,5.3-1.9c1.3-0.6,2.3-1.5,3.6-2.3c0.1,0.3,0.2,0.6,0.2,0.7c1-0.8,2.4-1.6,3.2-2.8c0.9-1.4,2.1-3.3,1.8-4.8
				c-0.7-4.3-2-8.5-4.6-12.1c-3.4-4.7-7-9.2-10.4-13.9c-1.2-1.6-2.5-2.9-4-3.9c2.8,9.5-2.6,16.1-12.3,18.3
				c-5.3,1.2-10.9,1.1-16.3,1.9c-2.8,0.4-5.5,1.1-8.2,2c4.7-0.1,9.4-0.3,14.1-0.5C711.2,564.5,714.4,564,717.7,563.9z"/>
			<path class="st4" d="M624.7,471.9c2-2.2,4.9-3.5,7.1-5.5c2.2-2,3.7-5.5,1.9-8c-4.6,0-9.1,0.2-13.7,0.7c-1.5,1.1-2.8,2.4-3.5,4.5
				c-0.2,0.5-0.7,0.8-0.9,1.2c-1.4,2-2.7,4.2-2.1,6.6c0.7,3.2,1,6.6,3,9.4c1.5,2.2,2.6,4.9,4.5,6.7c0.4,0.4,0.9,0.8,1.5,1.1
				C621.4,482.8,620.8,476.3,624.7,471.9z"/>
			<path class="st4" d="M856.1,549.9c-1.1,0.9-2.5,1.4-3.9,1.7c-8,2-16.3,1-24.6,0.1c-0.9,0.6-1.8,1-3,0.9c-3.5,0-7-0.5-10.5-0.5
				c-3.5-0.1-7,0.1-10.6,0.3c-0.5,0-1.2,0.3-1.5,0.7c-1,1.7-0.5,3.4,1.1,4.7c0.6,0.5,1,1.3,1.7,2.3c4.2,0.4,8.3,3,7.8,5.5
				c1.8,0.3,3.5,0.7,5.3,0.9c3.2,0.4,6.5,0.7,9.7,0.8c1.2,0.1,2.3-0.4,3.5-0.6c2.5-0.4,4.9-0.8,7.4-1.2c2.2-0.4,4.5-1.2,6.7-1.1
				c3.7,0.1,6.6-1.7,9.5-3.6c0.3-0.2,0.6-0.5,0.8-0.8c1.5-2.2,3.1-4.3,4.6-6.6c0.6-0.9,1.3-2,1.3-3.1c0.2-2,0-4.1-0.2-6.1
				c0-0.6-0.3-1.2-0.7-1.7c-0.5-0.8-1-1.7-1.5-2.5c-0.2,0.1-0.4,0.1-0.5,0.2C858.8,543.7,858.8,547.7,856.1,549.9z"/>
			<path class="st4" d="M529.3,475.1c0.3,0.8,1,1.4,1.3,2.2c0.8,2.5,2.7,4.1,4.6,5.7c0.7,0.6,1.4,1,2,1.7c0.8,1,1.5,1.9,3,1.3
				c0.3-0.1,0.7,0,1,0.1c4.6,1.7,8-0.9,10.8-3.6c2.6-2.5,5.5-4.5,8.5-6.3c1.8-1.1,3.9-2.3,6-2.5c4.6-0.5,9.4-0.6,14-0.6
				c5.8,0.1,11.1-1.1,16.2-3.9c2.9-1.6,4.4-3.9,4.7-7c-5.7,1.5-11.3,3.3-16.7,5.5c-3.5,1.4-7,3-10.7,3.5c-3,0.4-6.1-0.1-9.1,0.1
				c-5.8,0.3-11.4,2.6-17.2,2.9c-5.6,0.3-12.1-2.3-13.6-7.6c-1.9,2.1-3.5,4.4-5,6.8C528.9,473.9,529.1,474.7,529.3,475.1z"/>
			<path class="st4" d="M568.1,550.8c1.1,0.1,2.2,0.6,3.2,0.9c0.7-0.2,1.4-0.3,2.1-0.5c0.4-0.1,0.8-0.3,1.2-0.5
				c1.1-0.3,2.1-0.6,3.2-0.9c0.7-0.2,1.6,0,2.2-0.4c1-0.5,1.8-1.3,2.8-2c0.3,0.5,0.6,1,1.1,1.7c0-0.5-0.1-0.7,0-0.9
				c0.4-1.2,0.7-2.4,1.2-3.5c0.2-0.5,0.8-0.8,0.9-1.3c0.4-2.1,0.5-4.3,1-6.3c0.2-1,1.1-1.9,1.7-2.8c0.3-0.6,0.3-1.4,0.1-2.2
				c-0.4-2.6-0.8-5.2-2.7-7.3c-0.6-0.8-1.3-1.5-2-2.2c0,3.7,0,7.4-1.1,11c-1.2,4.1-4,8-8.1,9.4c-1.6,0.6-3.2,0.7-4.9,0.7
				c-2.2,0-4.2-1.4-5.9-1.8c0.5,2.4,1.1,4.8,1.8,7.1C566.4,550.2,566.9,550.7,568.1,550.8z"/>
			<path class="st4" d="M764.6,578.1c0.1,0.1,0.1,0.3,0.1,0.5c-0.2,1.4,0.7,1.8,1.8,2.2c1.1,0.5,2.1,1.2,3.2,1.8
				c-0.1,0.1-0.1,0.3-0.2,0.4c2.3-0.3,4.5-0.6,6.8-0.9c0.6-0.5,1.6-1,1.8-0.8c0.9,0.9,1.3,0.5,1.9-0.2c0.8-1,1.8-1.6,3.3-0.6
				c0.2-1.9,1.2-2,2.6-1.2c0.4-0.9,0.9-1.7,1-2.6c0.3-2,1.5-2.8,3.1-3.7c0.9-0.5,1.5-1.5,2.2-2.3c0.5-0.6,0.8-1.2,1.2-1.8
				c0.3-0.5,0.8-1.2,0.7-1.7c-0.4-2.8-1.2-5.5-2.8-7.8c-0.5,1.2-0.7,2.6-0.6,4.2c0.4,2.9-1.2,5.7-3.5,7.5c-2.2,1.8-5.1,2.8-7.9,3.5
				c-2.7,0.7-5.5,1.2-8.2,0.7c-2.7-0.5-5.3-2.4-6-5c-0.3-1-0.3-2.1-0.6-3.1c0,0,0-0.1,0-0.1c-0.1,0.3-0.1,0.5-0.2,0.8
				C763.4,571.4,761.7,574.8,764.6,578.1z"/>
			<path class="st4" d="M581,499c-5.8-0.1-11.5-2.6-15.6-6.6c0,0-0.1-0.1-0.1-0.1c-1.1,2.2-1.7,4.6-0.6,7c0.8,1.6,1.8,3.1,2.7,4.7
				c2,3.5,5.1,5.8,8.4,7.8c1.9,1.1,4.1,1.3,6.3,1.1c2.4-0.2,4-2.2,3.3-4.5c-0.5-1.8,0-2.7,1.5-3.8c1.7-1.2,3.3-2.6,4.9-4
				C589.1,498.6,584.7,499.1,581,499z"/>
			<path class="st4" d="M610.4,490.3c-0.5-0.8-0.7-1.8-1-2.7c-1-0.5-1.9-0.9-2.9-1.4c-1.3-0.7-2.5-1.5-3.7-2.3
				c-0.7-0.4-1.7-0.5-2.3-1.1c-1.4-1.4-3-1.4-4.7-1.3c-0.7,0-1.4,0.1-2,0c-4.2-0.7-8.4-1.3-12.7-0.7c-0.1,0-0.2,0-0.3,0
				c2.1,0.1,4.1,0.4,6.2,0.7c4.4,0.7,8.9,1.5,12.6,4.1c3.4,2.3,5.9,6.5,5.4,10.5c1.3-0.2,2.5-0.5,3.7-1
				C610.9,494.1,611.6,492.3,610.4,490.3z"/>
			<path class="st4" d="M650.7,504.1c-2.8-2-6-1.1-9.1-1.3c3,0.5,6,1,9.1,1.5C650.7,504.3,650.7,504.2,650.7,504.1z"/>
		</g>
	</g>
	<g>
		<path d="M538.2,559.8c6.4,5,13.2,9.5,20.3,13.5c3.9,1.8,7.9,3.6,11.9,5.5c17.8,8.2,39.5,11.2,58.5,16.1c39.3,10.2,80.6,8.3,121,5
			c29.6-2.4,57.1-5.6,85.4-13.9c4.1-1.2,8-2.4,10.9-5.8c1-1.1,2.6-1.8,4-2.5c11.6-6.2,23.5-11.6,34.5-18.8
			c15-9.8,29.8-19.8,42.8-32.2c8.7-9.1,15-19,15.7-29.7c1.8-27.9-18.6-51-39.5-67.8c-6.7-5.4-13.7-10.4-20.7-15.5
			c-3.8-2.8-7.8-5.4-11.6-8.1c-1.3-0.9-2.6-1.8-3.9-2.6c-4.5-2.6-9-5.1-14.1-6.3c-1.7-0.4-3.1-1.1-4.6-2c-3.5-2.2-6.9-4.4-10.5-6.4
			c-8.9-4.8-18.7-7.2-28.3-10.3c-4.8-1.6-9.9-2.4-14.8-3.8c-7.6-2.1-15.2-3.9-23.1-4.5c-3.1-0.2-6.2-0.5-9.2-1
			c-11.9-2.2-24-3-36.2-3.2c-5.3-0.1-10.7,0-16,0c0-0.2,0-0.5,0-0.7c-3.7,0-7.5,0-11.2,0c-8.3-0.1-16.6,1-24.8,2
			c-7.2,0.9-14.4,1.5-21.5,2.5c-4,0.5-7.9,1.8-11.8,2.4c-8.4,1.2-16.7,3.3-24.8,5.7c-21.7,6.3-41.6,16.1-59.8,29.1
			c-2.9,2.1-5.8,4.2-8.2,6.8c-0.9,1-2.1,1.7-3.1,2.7c-2.6,2.5-5.4,4.9-7.8,7.7c-2.9,3.4-5.3,7.2-8.1,10.6c-3,3.6-6.5,6.9-9.5,10.6
			c-1.9,2.3-4.1,4.2-5.8,6.8c-4.7,7.2-10,14.1-13.2,22.2c-1.6,4.1-2.9,8.3-2.7,12.8C499.3,516.1,514.4,541.2,538.2,559.8z M733,384
			c-0.7-0.5-1.3-1-1.9-1.4C732.5,382.2,732.5,382.2,733,384z"/>
	</g>
	<g>
		<g>
			<g>
				<path class="st2" d="M654.4,452.6c1,0.3,1.8,0.5,2.5,0.7c1.6,0.5,3.3,0.9,4.9,1.5c2.8,1,5.6,2,8.2,3.4c1.7,0.8,3.7,0.9,5.2,2.5
					c0.7,0.8,2.4,0.7,3.6,1c0.7,0.2,1.8-0.6,2,0.9c0,0.1,1,0.1,1.6,0.1c0,1.2,0,2.3,0,3.5c0,1.8-1.2,2-2.6,2c-0.2,0-0.4,0.1-0.8,0.2
					c0.1,0.4,0.1,0.8,0.2,1.4c-0.7-0.2-1.2-0.3-1.7-0.5c-1.4-0.4-2.7-0.9-3.9,0.6c-0.2,0.3-0.7,0.4-1.1,0.4
					c-2.3-0.2-4.5-0.4-7.1-0.6c0.4-0.7,0.6-1.1,0.8-1.4c-0.2-0.1-0.2-0.2-0.3-0.2c-1,0.1-2.1,0-3,0.4c-2.9,1.3-5.7,0.5-8.5,0.1
					c-2.2-0.3-4.3-0.9-6.5-1.2c-0.8-0.1-1.6,0.4-2.4,0.4c-4.5,0.4-8.9,1-13,2.7c-1.6,0.7-3.1,1.7-4.6,2.6c0,0.2,0,0.4-0.1,0.6
					c1.7,0.4,3.4,0.9,5.1,1.2c7.7,1.6,15.6,1,23.4,1.4c6.3,0.3,12.7,0.5,19,0.6c3.4,0,6.8-0.5,10.2-0.6c7.8-0.2,15.6-0.3,23.4-0.2
					c2.6,0,5.1,0.9,7.6,1.6c3.8,1.1,7.5,2.1,11.2,3.5c3.9,1.5,6.4,4.7,9,7.8c1.4,1.7,3.1,3.1,4.4,4.8c1.5,1.9,3,3.9,4.1,6
					c2,3.7,2.9,7.8,2.8,11.9c-0.1,6.9-2.7,12.6-9.5,15.5c-3.2,1.4-6.3,3-9.6,3.9c-3.2,0.9-6.5,1.3-9.9,1.6c-4.3,0.5-8.7,1.1-13,1
					c-6.9-0.1-13.7-0.8-20.6-1.1c-3.7-0.2-7.5,0.1-11.2-0.2c-5.4-0.5-10.8-1.4-16.2-2.1c-4.7-0.6-9.4-1.2-14.1-1.9
					c-3.3-0.4-6.6-1.1-10-1.3c-4.5-0.3-9.1-0.8-13.5-0.2c-3.2,0.4-6.3,2.3-7.6,5.9c-0.7,1.8-0.5,2.4,1.3,3.2
					c3.6,1.8,7.4,2.4,11.3,2.9c3.1,0.4,6.2,1,9.3,1.2c3.5,0.3,7,0.5,10.6,0.5c5.3,0,10.7-0.3,16-0.4c6.3-0.1,12.6,0.3,18.9-0.4
					c8.8-0.9,17.5-0.9,26.3-0.9c4.1,0,8.3-0.3,12.4,0c6.2,0.5,11.7,2.5,15.6,7.8c3.5,4.6,7,9.2,10.4,13.9c2.6,3.6,4,7.8,4.6,12.1
					c0.2,1.5-0.9,3.4-1.8,4.8c-0.8,1.2-2.2,2-3.2,2.8c0,0.1-0.1-0.2-0.2-0.7c-1.3,0.8-2.4,1.8-3.6,2.3c-1.7,0.8-3.5,1.7-5.3,1.9
					c-2.4,0.2-4.8-0.3-7.3-0.5c-0.7-0.1-1.5-0.3-2.2-0.2c-3,0.3-5.7-0.7-8.4-1.7c-1.1-0.4-2-1.3-3.1-2c-0.2-0.2-0.6-0.4-0.7-0.3
					c-1.7,0.8-2.9-0.1-4.1-1.2c0.1-0.6,0.2-1.2,0.3-1.7c5.4-2.7,10.8-5.2,16.1-7.9c0.8-0.4,2.4-0.7,1.8-2.5c-0.1-0.2,0.9-0.7,1.4-1
					c-0.1-0.2-0.2-0.3-0.3-0.5c-1.3-0.1-2.6-0.2-4-0.3c-2.5-0.2-4.9-0.5-7.4-0.4c-3.2,0.1-6.5,0.6-9.7,0.7
					c-9.3,0.3-18.6,0.6-27.9,0.9c-4.9,0.1-9.9,0.4-14.8,0.4c-6.6,0-13.3,0.9-19.9-0.5c-4.5-0.9-9.2-1-13.7-2
					c-3.5-0.8-6.8-2.4-10.1-3.8c-2.2-1-4.3-2.1-6.2-3.5c-4.8-3.7-9.1-7.8-12.4-13c-2.2-3.5-3.6-7.3-4.9-11.1
					c-0.6-1.8-0.7-3.8-0.8-5.7c-0.4-4.8-0.3-9.7,1.6-14.2c0.8-2.1,2-4.1,3.5-5.7c2.2-2.4,5.2-3.7,8.3-4.8c5.7-1.9,11.3-0.7,16.9,0.3
					c5.5,1,11,1.5,16.5,2.4c4.2,0.7,8.4,1.8,12.7,2.4c5,0.7,10,1.3,15,1.7c5.5,0.5,11.1,0.7,16.7,1.1c1.2,0.1,2.4,0,4.1,0
					c-1.8-0.9-3.1-1.5-4.8-1c-0.7,0.2-1.6,0-2.3-0.4c6.4,0,12.8,0.2,19.2-0.1c6.5-0.3,13.1-0.7,19.4-2.8c1.8-0.6,3.6-1.5,5.3-2.3
					c0-0.2,0-0.3,0-0.5c-0.6-0.3-1.1-0.6-1.8-0.8c-4.3-1.4-8.7-2.4-13.3-2.3c-6.4,0.1-12.7,0-19.1,0.1c-5,0-10.1,0.3-15.1,0.2
					c-4.9-0.1-9.8-0.4-14.8-0.6c-1.5-0.1-2.9,0.1-4.4-0.1c-4.7-0.4-9.4-0.6-14-1.5c-3.8-0.7-7.5-2.2-11.2-3.4
					c-2.8-0.9-5.6-1.9-8.3-3c-2.2-0.9-4.7-1.8-6.4-3.4c-1.9-1.8-3-4.5-4.5-6.7c-1.9-2.8-2.2-6.2-3-9.4c-0.6-2.5,0.7-4.7,2.1-6.6
					c0.3-0.4,0.8-0.7,0.9-1.2c1.4-3.9,4.7-5.4,8.1-6.8c5.1-2.2,10.6-2.4,16-2.6c1.3,0,2.6,0.3,3.9,0.2c1.7-0.1,3.4-0.5,5.1-0.6
					c1.2-0.1,2.4,0.1,3.5,0C654,453.8,655.1,454.1,654.4,452.6z"/>
				<path class="st2" d="M791.5,523.9c3,0.9,5.6,2.2,8.2,2.4c3.9,0.4,7.8-0.1,11.7-0.1c3.8,0,7.5,0.1,11.3,0.3c6,0.4,12,0.9,18,1.4
					c1.3,0.1,2.7,0.4,4,0.8c3.4,1.1,6.9,2.1,9.4,4.6c1.7,1.7,3,3.8,4.4,5.7c0.8,1.1,1.5,2.2,2.2,3.4c0.3,0.5,0.6,1.1,0.7,1.7
					c0.1,2,0.3,4.1,0.2,6.1c-0.1,1.1-0.7,2.2-1.3,3.1c-1.5,2.2-3,4.4-4.6,6.6c-0.2,0.3-0.5,0.6-0.8,0.8c-2.9,1.9-5.7,3.7-9.5,3.6
					c-2.2-0.1-4.4,0.7-6.7,1.1c-2.5,0.4-4.9,0.8-7.4,1.2c-1.2,0.2-2.3,0.7-3.5,0.6c-3.3-0.2-6.5-0.5-9.7-0.8
					c-1.8-0.2-3.5-0.6-5.3-0.9c0.5-2.5-3.5-5-7.8-5.5c-0.7-1-1.1-1.8-1.7-2.3c-1.6-1.3-2.2-3-1.1-4.7c0.2-0.4,1-0.6,1.5-0.7
					c3.5-0.1,7-0.3,10.6-0.3c3.5,0.1,7,0.5,10.5,0.5c2.6,0,4.2-1.8,5.7-3.6c1.2-1.4,2.9-2.5,2.4-5c-0.8,0-1.6,0-2.4,0
					c-5.8-0.1-11.6-0.4-17.4-0.3c-3.3,0-6.5,0.1-9.8-0.3c-4.1-0.5-8.3-0.3-12.5-0.5c-2.3-0.1-4.5,0.3-6.8,0.5
					c-7.6,0.9-14.8-0.6-19.4-7.6c-1.5-2.3-2.4-5.1-3-7.8c-0.7-2.9-0.9-6-1.1-9.1c-0.3-4.8,4.5-10.5,8.9-10.1
					c2.1,0.2,3.6-0.5,5.3-1.2c6.9-2.7,14.1-4.2,21.6-4.1c3.5,0,7-0.3,10.5-0.2c4.8,0.2,9.5,0.7,14.2,1.2c4.3,0.4,8.7,1,13,1.5
					c7.6,0.7,15.1,1.5,22.7,1.9c3.8,0.2,7.7-0.2,11.6-0.6c4.7-0.5,9.3-1.3,14-2c3.2-0.5,6.3-1.5,8.9-3.6c0.8-0.6,1.4-1.4,2.4-2.3
					c-1-0.1-1.5-0.1-1.9-0.1c-4.8-0.4-9.6-0.8-14.3-1.2c-1.2-0.1-2.4-0.1-3.6,0c-3.2,0.3-6.4,0.8-9.6,1c-1.7,0.1-3.3,0-5-0.2
					c1.9-0.3,3.8-0.6,5.7-0.9c0-0.2,0-0.5-0.1-0.7c-2.3,0-4.6-0.1-6.9,0c-1.7,0.1-3.2,0-4.9-0.9c-1.5-0.8-3.5-0.6-5.3-0.9
					c-3.9-0.5-7.9-0.5-11.7-1.5c-4.3-1.1-8.4-3-11.6-6.1c-1-1-1.6-2.5-2.3-3.8c-0.4-0.7-0.6-1.5-1-2.1c-1.6-2.3-1.9-5-2.2-7.6
					c-0.1-0.9-0.3-1.7-0.5-2.5c-0.2-1.2-0.3-2.4-0.4-3.5c6.4-2.9,12.6-5.8,18.9-8.7c0-0.1,0-0.1,0-0.2c-1.6,0.1-3.3,0.2-4.9,0.3
					c-4.6,0.3-9.3,0.8-14,0.9c-4.3,0.1-8.6-0.6-12.6-2.4c-2-0.8-4.2-0.9-6.2-1.3c1.1-0.7,1.1-2.2-0.1-3.2c-0.6-0.5-1.1-1.3-1.5-2
					c-0.5-0.9-0.7-2.1-2.2-1.8c-0.2,0-0.6-0.3-0.6-0.5c-0.2-3-2.5-5.3-2.5-8.4c0-0.4-0.6-0.8-0.9-1.2c1.1-2.8,4.1-4.1,7.8-3.7
					c4.5,0.5,9,1.2,13.5,1.2c4.7,0,9.5-0.8,14.2-1.1c2.3-0.1,4.6-0.1,6.8,0c0.9,0.1,1.7,0.8,2.7,1.4c0.8-0.7,1.7-0.2,2.9,0.6
					c2.5,1.8,5.3,3.3,8,4.9c2.3,1.4,4.7,2.5,6.8,4.2c2.8,2.2,5.3,4.8,7.9,7.3c0.2,0.2,0.5,0.4,0.6,0.6c0.9,2.4,1.9,4.7,2.8,7.1
					c0.2,0.4,0,1,0,1.2c0.4,0.7,1.3,1.4,1.2,2c-0.1,1.7,0.4,3.5-1.2,4.9c-0.7,0.6-1,1.8-1.7,2.4c-0.9,0.7-2,1-3.1,1.5
					c-0.1-0.3-0.2-0.6-0.3-1c-0.3,0.1-0.5,0.2-0.5,0.3c-0.5,1.6-1.7,1.7-3.1,1.9c-3,0.5-5.9,1.4-8.9,2.1c0,0.3,0,0.6,0.1,0.8
					c1.7,0.1,3.4,0.3,5,0.2c4.6-0.3,9.2-0.6,13.8-1c3.1-0.2,6.2-0.8,9.3-0.7c2.7,0.1,5.3,1,8,1.5c1.1,0.2,2.2,0.1,3.2,0.4
					c3.9,0.9,7,3.3,10.3,5.3c1.6,1,3.3,1.8,4.9,2.6c1.7,0.8,3.6,1.3,5.2,2.3c1.3,0.7,2.3,2,3.4,2.9c0.7,0.6,1.1,1.6,2.5,1.3
					c0.4-0.1,1.2,1.5,1.8,2.3c0.7,1.1,1.5,2.2,2,3.5c0.7,1.7,1,3.6,1.5,5.4c0.7,2.3,0.8,4.8,0.2,7c-0.7,2.8-1.7,5.6-4.1,7.6
					c-6,5-13.3,6.1-20.6,7.2c-4.4,0.6-8.9,1.3-13.4,1.6c-3.8,0.2-7.6,0-11.4-0.4c-6.1-0.5-12.1-1.1-18.1-2c-3.5-0.5-7-1.4-10.5-2.1
					c-2.7-0.5-5.4-0.8-8-1.5c-4.7-1.2-9.4-1.9-14.3-1.9c-4,0-8.1-0.8-12.1-0.5c-4.4,0.4-8.6,1.8-12.9,2.8
					C792.7,522.8,792.3,523.2,791.5,523.9z"/>
				<path class="st2" d="M621.3,403c0.5,0.1,0.9,0.3,1.4,0.3c4.9,0.3,9.8,0.6,14.6,0.7c3.1,0.1,6.3-0.2,9.4-0.3c0.5,0,1,0.1,1.5,0.3
					c3,1.3,5.8,2.8,8.9,3.8c2.8,0.9,4.7,2.8,6.7,4.7c0.8,0.7,1.8,1.3,2.7,1.9c1.3,0.8,2.5,1.6,3.8,2.4c2.6,1.6,3.3,4.4,4.6,6.8
					c0.1,0.1-0.4,0.6-0.3,0.5c0.4,1,0.7,1.8,0.9,2.7c0.3,1.4,0.4,2.7,0.5,4.1c0,0.4-0.2,0.9-0.5,1.2c-2.3,2.3-4.7,4.4-8,5.2
					c-1.2,0.3-3,0.1-3.2,2.1c0,0.2-0.7,0.3-1,0.4c-2.2,0.6-4.5,1-6.5,1.9c-4.4,2-9.1,0.9-13.6,1.3c-4.3,0.4-8.6,0.5-12.9,0.8
					c-5.1,0.4-10.2,0.7-15.2,1.4c-2.9,0.4-6.1,0.2-8.6,2.1c-1.9,1.4-3.8,2.9-5.1,4.8c-0.7,1.1-0.3,3.1-0.2,4.6
					c0.1,1.3,0.5,2.6,0.5,3.8c0.1,3.8-1.4,6.6-4.8,8.5c-5,2.8-10.4,3.9-16.2,3.9c-4.7-0.1-9.4,0.1-14,0.6c-2.1,0.2-4.2,1.4-6,2.5
					c-3,1.8-5.9,3.8-8.5,6.3c-2.8,2.7-6.3,5.3-10.8,3.6c-0.3-0.1-0.7-0.2-1-0.1c-1.5,0.6-2.2-0.3-3-1.3c-0.5-0.7-1.3-1.1-2-1.7
					c-1.9-1.6-3.8-3.2-4.6-5.7c-0.3-0.8-0.9-1.4-1.3-2.2c-0.2-0.5-0.4-1.2-0.2-1.6c3.1-4.9,6.6-9.5,11.9-12.4
					c4.8-2.7,9.9-3.7,15.5-3.5c6,0.2,12,0,17.8-1.9c2.5-0.8,3-2.1,2.7-5.7c-0.3-2.8-1.2-5.9,0.7-8.4c2.5-3.3,4.9-6.8,9-8.4
					c4.1-1.6,8.1-3.2,12.3-4.2c2.9-0.7,6.1-0.5,9.1-0.8c4.3-0.4,8.5-1.1,12.8-1.4c3.7-0.3,7.4-0.2,11-0.5c3.4-0.2,6.9-0.6,10.3-0.9
					c1.8-0.1,3.6,0.1,5.3-0.1c1.2-0.1,2.3-0.7,3.5-1.1c0-0.2-0.1-0.4-0.1-0.6c-0.7,0-1.4,0-2.1,0c-4.2,0.1-8.3,0.2-12.5,0.3
					c-0.6,0-1.1,0.2-1.7,0.2c-0.7,0-1.4-0.1-2-0.3c-0.9,0.2-1.8,0.5-2.7,0.6c-3.9,0.3-7.7,0.5-11.6,0.7c-1.6,0-3.2-0.5-4.8-0.5
					c-3.1,0.1-6.2,0.4-9.3,0.5c-1.2,0-2.5,0-3.6-0.3c-3.9-1.3-8.3-1.6-11.4-4.8c-1.1-1.1-2.4-2-3.6-2.9c-2.6-2-2.4-5.2-3.2-8
					c-0.5-1.6-0.8-3.2-1.4-4.7c-0.4-1.1-1.5-1.9-0.8-3.3c0.1-0.1-0.2-0.5-0.3-0.7c-0.6-1.6-1.4-3.1-1.6-4.7c-0.3-2.5,0.9-4,3.9-4.9
					c2.7-0.8,5.5-1.3,8.2-2.1c3.3-1.1,6.6-2.5,9.9-3.6c1.8-0.6,3.6-1.1,5.4-1.4c2.8-0.5,5.7-0.8,8.6-1.1c1.8-0.2,3.6-0.4,5.4-0.2
					c5,0.4,10,0.7,15,1.4c2.4,0.3,4.6,1.9,5.4,4.2c1.1,3.2,2.4,6.6,0.5,10.1c-0.7,1.4-3.6,3-5.2,3C630.8,400.9,626,401.5,621.3,403z
					"/>
				<path class="st2" d="M674,375.1c0.5,0.1,0.9,0.2,1.6,0.3c-0.1-0.6-0.1-1.1-0.2-1.9c2.4-0.2,4.8-0.4,7.2-0.5
					c3.9-0.3,7.9-0.6,11.8-0.9c4.3-0.3,8.6-0.7,12.9-0.7c3.3,0,6.7,0.4,10,0.7c2.3,0.2,4.7,0.4,6.9,0.9c5.1,1.1,10.2,2.3,14.8,4.9
					c2.7,1.6,5.2,3.7,7.7,5.6c0.5,0.4,1,1,1.5,1.4c5.1,3.6,7.2,9.1,9.1,14.7c0.9,2.6,0.7,5.2-0.7,8.3c3.6-0.4,6.7-0.7,9.9-1.1
					c4.4-0.5,8.8-1.1,13.2-1.5c3.5-0.4,7.1-0.7,10.6-1c0.6,0,1.1,0.3,1.9,0.5c1.3-1.5,3.4-1,5.3-1.3c3.3-0.5,6.7-0.9,10-1.2
					c2.5-0.2,4.7,0.4,7,1.6c2.8,1.5,5.6,3.2,9.1,2.6c0.4-0.1,0.8,0.1,1.1,0.2c1.4,0.8,2.9,1.6,4.3,2.5c0.6,0.4,1.1,1.1,1.5,1.5
					c0.9,0.3,1.7,0.5,2.4,0.9c1.6,1,3.1,2.3,4.8,3.2c1.2,0.7,2.7,0.8,4,1.4c2.4,1,3.5,4.1,2.5,6.3c-0.7,1.6-2.4,1.2-3.6,1.7
					c-0.4,0.2-0.8,0.3-0.8,0.3c-1.9,0.3-3.5,0.2-4.9,0.8c-2.4,1.1-4.9,1.1-7.4,0.6c-0.5-0.1-0.9-0.6-1.3-1c-0.6-0.6-1-1.4-1.6-2
					c-0.9-0.9-2-0.8-2.5,0.4c-0.8,1.6-2.2,1.4-3.5,1.4c-5.1,0.2-10.1-0.3-15.2,0.7c-3,0.6-6.1,0.3-9.2,0.7
					c-4.9,0.6-9.7,1.5-14.6,2.1c-4.5,0.6-9,1.2-13.5,1.6c-6.5,0.6-13,1.2-19.5,1.5c-4.2,0.2-8.5-0.4-12.8-0.4
					c-2.6,0-5.2,0.3-7.8,0.5c-2.7,0.1-5.4,0.4-8.1,0.3c-4.6-0.2-9.1-0.9-13.7-0.8c-6.5,0.2-10-3.7-13-8.5c-1.9-3-3.7-6.2-3.4-10
					c0.4-4.8,1.4-9.4,5.6-12.8c0.1,0.7,0.2,1.3,0.3,1.8c0.2,0,0.4,0,0.6,0.1c0.1-0.7,0.2-1.4,0.3-2.1c1.5-0.3,1.3-0.5,2.9-2.1
					c1.3-1.3,3.1-2.1,4.7-3c0.6-0.4,1.3-0.5,2-1.2c-2.3-0.1-4.7-0.3-7-0.4c-4.1-0.2-8.3-0.2-12.4-0.4c-3.4-0.1-6.9-0.3-10.3-0.6
					c-1.6-0.1-3-0.5-3.8-2.3c-0.4-0.9-1.6-1.4-2.4-2.1c-2.6-2.3-3.2-6.3-2.7-9.8c0.4-2.9,2.3-3.9,4.1-5.4c1.3-1,3.8-0.6,4.6,0.7
					c0.3,0.5,0.1,1.4,0.2,2.1C674.4,375,674.2,375.1,674,375.1z"/>
				<path class="st2" d="M469.7,649.1c2.2-0.2,4.4-0.2,6.6-0.5c4.8-0.6,9.4-1.7,12.9-5.4c0.8-0.9,1.5-2,2.2-3c2-3.2,3.9-6.3,5.8-9.6
					c0.7-1.2,1.2-2.6,1.8-3.8c0.7-1.4,1.5-2.7,2.1-4.2c0.7-1.5,1.3-3.1,1.9-4.7c2.1-5.6,4.1-11.2,6.1-16.8c1.7-4.7,3.5-9.4,5.3-14
					c-0.4,1.5-0.8,3.1-1.3,4.7c1.5-0.9,6-16.5,5.8-20.4c-0.7,2.7-1.1,5-1.7,7.2c-0.7,2.2-1.6,4.2-2.5,6.3c0.4-1.6,0.9-3.2,1.2-4.8
					c1-4.7,2-9.5,3-14.3c0.7-3.2,1.3-6.3,2-9.5c0.9-4.3,1.5-8.7,2.8-12.9c2.3-8,5.4-15.6,10.7-22.1c2.9-3.6,5.8-7.2,10.4-8.9
					c2.3-0.8,4.6-1.1,7-0.7c4.8,0.7,9.7,1.1,14.5,1.9c3.8,0.7,7.4,1.8,11,3.5c3.8,1.8,6.4,4.6,9,7.6c1.8,2.1,2.3,4.7,2.7,7.3
					c0.1,0.8,0.1,1.6-0.1,2.2c-0.6,0.9-1.4,1.8-1.7,2.8c-0.5,2.1-0.6,4.2-1,6.3c-0.1,0.5-0.7,0.8-0.9,1.3c-0.5,1.1-0.8,2.3-1.2,3.5
					c-0.1,0.2,0,0.4,0,0.9c-0.5-0.7-0.7-1.1-1.1-1.7c-1,0.7-1.8,1.5-2.8,2c-0.6,0.3-1.5,0.2-2.2,0.4c-1.1,0.3-2.1,0.6-3.2,0.9
					c-0.4,0.1-0.8,0.3-1.2,0.5c-0.7,0.2-1.4,0.4-2.1,0.5c-1-0.3-2.1-0.8-3.2-0.9c-1.2-0.1-1.7-0.6-2-1.6c-1.5-5.6-2.8-11.2-3.1-17
					c0-0.1-0.1-0.2-0.4-0.6c-1.3,2-2.8,3.8-3.8,5.9c-2.8,5.4-4.9,11-5.8,17c-0.7,4.7-1.8,9.3-2.7,13.9c-0.9,5.1-1.6,10.3-2.8,15.4
					c-1.1,4.6-2.6,9.1-4.1,13.6c-1.1,3.4-2.3,6.7-3.4,10.1c-2.1,6.4-4.2,12.8-7.4,18.7c-2.4,4.4-4.6,8.9-7.1,13.3
					c-2.1,3.6-4.3,7.1-6.9,10.3c-3,3.7-7,6.2-11.5,7.4c-4.5,1.2-9.1,2.1-13.8,2.5c-3.6,0.3-7.4-0.1-10.7-2.3
					c-0.5-0.3-1.2-0.6-1.7-0.6c-2.5,0.1-5-1.2-6.4-2.6c-1.5-1.5-4.1-1.9-4.8-4.2C469.6,649.8,469.7,649.6,469.7,649.1z M525.2,540.9
					c0.2,0.1,0.4,0.1,0.5,0.2c0.6-1.8,1.2-3.6,1.7-5.4c-0.2-0.1-0.3-0.1-0.5-0.2C526.4,537.3,525.8,539.1,525.2,540.9z M519.1,570.4
					c0.2,0,0.4,0,0.5,0.1c0.3-1.8,0.5-3.6,0.8-5.4c-0.2,0-0.4-0.1-0.6-0.1C519.6,566.7,519.3,568.5,519.1,570.4z"/>
				<path class="st2" d="M778,472.3c4.4,0.1,8.7,0.2,13,0.4c2.5,0.1,5.1,0,7.4,0.7c3.4,0.9,6.7,2.3,8.1,6.1c0.4,1.2,1.4,2.2,1.9,3.5
					c0.3,0.8,0.1,1.8,0.1,2.8c0,0.1-0.1,0.1,0,0.2c1.3,1.3,1,2.8,1.1,4.4c0.1,1.4-0.5,2.7-1.8,2.8c-2.4,0.2-4.7-0.1-6-2.6
					c-0.6-1.1-1.5-0.6-2.2-0.1c-1.7,1.4-3.6,2.1-5.8,2.2c-1,0-2.1-0.1-3.1,0c-1.2,0.1-2.3,0.5-3.4,0.7c-2.1,0.3-4.3,0.6-6.4,0.7
					c-4.5,0-9-0.2-13.5-0.2c-1.2,0-2.4,0.5-3.5,0.8c-0.4,0.1-0.8,0.4-1.1,0.3c-3-0.3-6.2-0.2-8.9-1.7c-2.8-1.7-5.9-3-7.8-5.9
					c-2.6-4-3.6-8.4-1.9-13c0.8-2.4,2.2-4.5,3.3-6.8c0.9-1.9,2.7-2.2,4.5-2.6c0.7-0.1,1.2-0.7,1.9-1.1c-0.5-0.5-0.9-1.4-1.5-1.6
					c-1.9-0.5-3.9-0.7-5.9-1c-3.3-0.4-6.5-1-9.8-1.2c-3.1-0.2-6.2-0.2-9.3-0.1c-2.3,0.1-4.4-0.7-6.6-1c-3.3-0.4-6.7-0.4-10-0.7
					c-2.7-0.3-5.3-1-8-1.1c-3.6-0.2-5.3-3.3-8-4.9c-0.4-0.2-0.3-1-0.6-1.5c-0.9-1.6-1.7-3.3-2.8-4.8c-1.4-2-1.5-4.2-1.6-6.5
					c0-0.3,1.1-1,1.2-0.9c1.7,1.2,3.6,0.6,5.3,0.5c4.4-0.2,8.8-0.8,13.2-1.1c6.8-0.5,13.5-0.9,20.3-0.2c3.5,0.4,7.1,0.3,10.7,0.8
					c4,0.6,8.1,0.7,11.8,2.6c2.9,1.5,6.1,2.5,9,4c1.6,0.8,3.2,2,4.4,3.4c2.2,2.7,5.4,4.4,6.8,7.9c0.8,2,2.5,3.6,3.8,5.4
					c2,2.7,2.3,5.8,1.9,9.1C778,471.5,778,471.8,778,472.3z"/>
				<path class="st2" d="M475.2,603.8c-1.7-0.1-2.9,1.8-4.5,0.4c0.9-1.6,1.9-3.1,2.7-4.8c1.1-2.2,2.1-4.5,3.1-6.8
					c2.4-6,4.8-12.1,7.2-18.1c1.7-4.2,3.9-8.3,5.3-12.7c1.6-5.1,2.5-10.3,3.5-15.5c1.5-7.4,2.4-15,4.2-22.4
					c1.7-6.7,4.2-13.3,8.1-19.2c2.5-3.6,5.7-6.3,10-7.6c3.3-1,6.5-2.4,9.8-3.1c3.8-0.8,7.7-1,11.6-1.3c1.1-0.1,2.3,0.2,3.3,0.5
					c2.5,0.9,5,1.7,7.3,3c1.8,1,3.3,2.6,5,4c0.4,0.4,0.2,2.4,0,3c-0.2,0.6-0.1,1.2-0.9,1.7c-0.9,0.5-1.5,1.4-2.3,2.3
					c0,0,0.2,0.4,0.6,1.1c-0.7,0-1.3,0.1-1.8,0c-1.3-0.3-2.6-0.7-3.9-0.8c-0.4-0.1-0.8,0.4-1.1,0.6c-3-1.2-6.2-2.5-9.3-3.8
					c-1.2-0.5-2-0.2-2.8,0.8c-3.2,3.8-5.3,8.1-7.2,12.6c-2.4,5.8-2.8,12-3.8,18c-1.1,6.6-2,13.4-3.9,19.8c-2,7.2-4.8,14.2-10.2,19.7
					c-1.2,1.2-2,2.9-2.7,4.5c-2.5,5.8-5.5,11.3-8.9,16.6c-2.5,3.9-6,6.1-10.1,7.7c-0.5,0.2-1,0.1-1.5,0.1c-1.2,0.2-2.5,0.5-3.7,0.6
					C477.2,605.1,475.8,605.5,475.2,603.8z"/>
				<path class="st2" d="M785.8,579.4c-1.4-0.9-2.4-0.7-2.6,1.2c-1.5-1.1-2.4-0.4-3.3,0.6c-0.6,0.7-1.1,1.1-1.9,0.2
					c-0.2-0.2-1.2,0.3-1.8,0.8c-2.3,0.3-4.5,0.6-6.8,0.9c0.1-0.1,0.1-0.3,0.2-0.4c-1.1-0.6-2.1-1.4-3.2-1.8c-1.1-0.4-2-0.8-1.8-2.2
					c0-0.2,0-0.4-0.1-0.5c-2.9-3.3-1.2-6.7-0.3-10.1c0.7-2.6,1.4-5.1,0.9-7.8c-0.1-0.4-0.5-0.8-0.8-1.1c-3.6-2.6-7.3-5.2-11-7.7
					c-1-0.6-2.1-1-2.9-1.7c-0.7-1-1.2-2.2-2.1-3c-0.4-0.4-1.5-0.1-2.1-0.1c0-0.6,0.2-1.5-0.1-2.3c-0.3-0.8-1-1.5-1.7-2.4
					c0.7-2.2,1.9-2.4,4.4-1.6c2.3,0.7,4.7,1.8,7.3,0.6c0.2-0.1,0.3-0.3,0.4-0.2c2,0.9,4.3,0.1,6.4,1.4c2.7,1.6,5.6,2.9,8.5,4
					c4.1,1.5,7.5,4.1,11.1,6.6c2,1.4,4.1,2.6,6,4.2c3.3,2.7,4.7,6.4,5.3,10.5c0.1,0.5-0.4,1.1-0.7,1.7c-0.4,0.6-0.7,1.3-1.2,1.8
					c-0.7,0.8-1.3,1.8-2.2,2.3c-1.6,0.8-2.9,1.7-3.1,3.7C786.7,577.7,786.2,578.5,785.8,579.4z"/>
				<path class="st2" d="M609.4,487.6c0.3,0.9,0.5,1.9,1,2.7c1.2,2,0.6,3.8-1.7,4.8c-2.8,1.2-5.7,1.4-8.7,1.4
					c-2.6,0-4.6,1.4-6.5,2.9c-2.2,1.8-4.3,3.6-6.6,5.3c-1.5,1.1-2,2-1.5,3.8c0.6,2.3-0.9,4.3-3.3,4.5c-2.2,0.2-4.5,0-6.3-1.1
					c-3.3-2-6.4-4.3-8.4-7.8c-0.9-1.6-1.9-3.1-2.7-4.7c-1.2-2.5-0.5-5.1,0.7-7.3c3.4-6.2,8.4-10.2,15.7-11.2
					c4.3-0.6,8.5-0.1,12.7,0.7c0.7,0.1,1.4,0.1,2,0c1.7-0.1,3.4-0.1,4.7,1.3c0.5,0.6,1.5,0.7,2.3,1.1c1.3,0.7,2.5,1.5,3.7,2.3
					C607.4,486.7,608.4,487.1,609.4,487.6z"/>
				<path class="st2" d="M650.7,504.3c-3-0.5-6.1-1-9.1-1.5c3.1,0.2,6.3-0.7,9.1,1.3C650.7,504.2,650.7,504.3,650.7,504.3z"/>
			</g>
		</g>
		<g class="st3">
			<path class="st4" d="M744.6,580.5L744.6,580.5C744.6,580.5,744.6,580.5,744.6,580.5z"/>
			<path class="st4" d="M717.7,563.9c2.5-0.1,4.9,0.3,7.4,0.4c1.3,0.1,2.6,0.2,4,0.3c0.1,0.2,0.2,0.3,0.3,0.5
				c-0.5,0.3-1.5,0.9-1.4,1c0.6,1.7-0.9,2-1.8,2.5c-5.3,2.7-10.6,5.3-16.1,7.9c-0.1,0.5-0.2,1.1-0.3,1.7c1.2,1.1,2.4,2,4.1,1.2
				c0.2-0.1,0.5,0.2,0.7,0.3c1,0.7,1.9,1.6,3.1,2c2.7,1,5.4,2,8.4,1.7c0.7-0.1,1.5,0.1,2.2,0.2c2.4,0.2,4.9,0.7,7.3,0.5
				c1.8-0.2,3.6-1.1,5.3-1.9c1.3-0.6,2.3-1.5,3.6-2.3c0.1,0.3,0.2,0.6,0.2,0.7c1-0.8,2.4-1.6,3.2-2.8c0.9-1.4,2.1-3.3,1.8-4.8
				c-0.7-4.3-2-8.5-4.6-12.1c-3.4-4.7-7-9.2-10.4-13.9c-1.2-1.6-2.5-2.9-4-3.9c2.8,9.5-2.6,16.1-12.3,18.3
				c-5.3,1.2-10.9,1.1-16.3,1.9c-2.8,0.4-5.5,1.1-8.2,2c4.7-0.1,9.4-0.3,14.1-0.5C711.2,564.5,714.4,564,717.7,563.9z"/>
			<path class="st4" d="M624.7,471.9c2-2.2,4.9-3.5,7.1-5.5c2.2-2,3.7-5.5,1.9-8c-4.6,0-9.1,0.2-13.7,0.7c-1.5,1.1-2.8,2.4-3.5,4.5
				c-0.2,0.5-0.7,0.8-0.9,1.2c-1.4,2-2.7,4.2-2.1,6.6c0.7,3.2,1,6.6,3,9.4c1.5,2.2,2.6,4.9,4.5,6.7c0.4,0.4,0.9,0.8,1.5,1.1
				C621.4,482.8,620.8,476.3,624.7,471.9z"/>
			<path class="st4" d="M856.1,549.9c-1.1,0.9-2.5,1.4-3.9,1.7c-8,2-16.3,1-24.6,0.1c-0.9,0.6-1.8,1-3,0.9c-3.5,0-7-0.5-10.5-0.5
				c-3.5-0.1-7,0.1-10.6,0.3c-0.5,0-1.2,0.3-1.5,0.7c-1,1.7-0.5,3.4,1.1,4.7c0.6,0.5,1,1.3,1.7,2.3c4.2,0.4,8.3,3,7.8,5.5
				c1.8,0.3,3.5,0.7,5.3,0.9c3.2,0.4,6.5,0.7,9.7,0.8c1.2,0.1,2.3-0.4,3.5-0.6c2.5-0.4,4.9-0.8,7.4-1.2c2.2-0.4,4.5-1.2,6.7-1.1
				c3.7,0.1,6.6-1.7,9.5-3.6c0.3-0.2,0.6-0.5,0.8-0.8c1.5-2.2,3.1-4.3,4.6-6.6c0.6-0.9,1.3-2,1.3-3.1c0.2-2,0-4.1-0.2-6.1
				c0-0.6-0.3-1.2-0.7-1.7c-0.5-0.8-1-1.7-1.5-2.5c-0.2,0.1-0.4,0.1-0.5,0.2C858.8,543.7,858.8,547.7,856.1,549.9z"/>
			<path class="st4" d="M529.3,475.1c0.3,0.8,1,1.4,1.3,2.2c0.8,2.5,2.7,4.1,4.6,5.7c0.7,0.6,1.4,1,2,1.7c0.8,1,1.5,1.9,3,1.3
				c0.3-0.1,0.7,0,1,0.1c4.6,1.7,8-0.9,10.8-3.6c2.6-2.5,5.5-4.5,8.5-6.3c1.8-1.1,3.9-2.3,6-2.5c4.6-0.5,9.4-0.6,14-0.6
				c5.8,0.1,11.1-1.1,16.2-3.9c2.9-1.6,4.4-3.9,4.7-7c-5.7,1.5-11.3,3.3-16.7,5.5c-3.5,1.4-7,3-10.7,3.5c-3,0.4-6.1-0.1-9.1,0.1
				c-5.8,0.3-11.4,2.6-17.2,2.9c-5.6,0.3-12.1-2.3-13.6-7.6c-1.9,2.1-3.5,4.4-5,6.8C528.9,473.9,529.1,474.7,529.3,475.1z"/>
			<path class="st4" d="M568.1,550.8c1.1,0.1,2.2,0.6,3.2,0.9c0.7-0.2,1.4-0.3,2.1-0.5c0.4-0.1,0.8-0.3,1.2-0.5
				c1.1-0.3,2.1-0.6,3.2-0.9c0.7-0.2,1.6,0,2.2-0.4c1-0.5,1.8-1.3,2.8-2c0.3,0.5,0.6,1,1.1,1.7c0-0.5-0.1-0.7,0-0.9
				c0.4-1.2,0.7-2.4,1.2-3.5c0.2-0.5,0.8-0.8,0.9-1.3c0.4-2.1,0.5-4.3,1-6.3c0.2-1,1.1-1.9,1.7-2.8c0.3-0.6,0.3-1.4,0.1-2.2
				c-0.4-2.6-0.8-5.2-2.7-7.3c-0.6-0.8-1.3-1.5-2-2.2c0,3.7,0,7.4-1.1,11c-1.2,4.1-4,8-8.1,9.4c-1.6,0.6-3.2,0.7-4.9,0.7
				c-2.2,0-4.2-1.4-5.9-1.8c0.5,2.4,1.1,4.8,1.8,7.1C566.4,550.2,566.9,550.7,568.1,550.8z"/>
			<path class="st4" d="M764.6,578.1c0.1,0.1,0.1,0.3,0.1,0.5c-0.2,1.4,0.7,1.8,1.8,2.2c1.1,0.5,2.1,1.2,3.2,1.8
				c-0.1,0.1-0.1,0.3-0.2,0.4c2.3-0.3,4.5-0.6,6.8-0.9c0.6-0.5,1.6-1,1.8-0.8c0.9,0.9,1.3,0.5,1.9-0.2c0.8-1,1.8-1.6,3.3-0.6
				c0.2-1.9,1.2-2,2.6-1.2c0.4-0.9,0.9-1.7,1-2.6c0.3-2,1.5-2.8,3.1-3.7c0.9-0.5,1.5-1.5,2.2-2.3c0.5-0.6,0.8-1.2,1.2-1.8
				c0.3-0.5,0.8-1.2,0.7-1.7c-0.4-2.8-1.2-5.5-2.8-7.8c-0.5,1.2-0.7,2.6-0.6,4.2c0.4,2.9-1.2,5.7-3.5,7.5c-2.2,1.8-5.1,2.8-7.9,3.5
				c-2.7,0.7-5.5,1.2-8.2,0.7c-2.7-0.5-5.3-2.4-6-5c-0.3-1-0.3-2.1-0.6-3.1c0,0,0-0.1,0-0.1c-0.1,0.3-0.1,0.5-0.2,0.8
				C763.4,571.4,761.7,574.8,764.6,578.1z"/>
			<path class="st4" d="M581,499c-5.8-0.1-11.5-2.6-15.6-6.6c0,0-0.1-0.1-0.1-0.1c-1.1,2.2-1.7,4.6-0.6,7c0.8,1.6,1.8,3.1,2.7,4.7
				c2,3.5,5.1,5.8,8.4,7.8c1.9,1.1,4.1,1.3,6.3,1.1c2.4-0.2,4-2.2,3.3-4.5c-0.5-1.8,0-2.7,1.5-3.8c1.7-1.2,3.3-2.6,4.9-4
				C589.1,498.6,584.7,499.1,581,499z"/>
			<path class="st4" d="M610.4,490.3c-0.5-0.8-0.7-1.8-1-2.7c-1-0.5-1.9-0.9-2.9-1.4c-1.3-0.7-2.5-1.5-3.7-2.3
				c-0.7-0.4-1.7-0.5-2.3-1.1c-1.4-1.4-3-1.4-4.7-1.3c-0.7,0-1.4,0.1-2,0c-4.2-0.7-8.4-1.3-12.7-0.7c-0.1,0-0.2,0-0.3,0
				c2.1,0.1,4.1,0.4,6.2,0.7c4.4,0.7,8.9,1.5,12.6,4.1c3.4,2.3,5.9,6.5,5.4,10.5c1.3-0.2,2.5-0.5,3.7-1
				C610.9,494.1,611.6,492.3,610.4,490.3z"/>
			<path class="st4" d="M650.7,504.1c-2.8-2-6-1.1-9.1-1.3c3,0.5,6,1,9.1,1.5C650.7,504.3,650.7,504.2,650.7,504.1z"/>
		</g>
	</g>
	<g>
		<path class="st5" d="M496.8,390c-0.3-2.1-0.9-4.2-1.7-6.2c-3-7.2-10.4-12.9-16.5-17.4c-0.5-0.4-1-0.9-1.6-1.2
			c-7.5-3.6-14.9-7.4-22.5-10.8c-9-4-18.2-7.5-27.2-11.6c-14-6.3-27.9-12.8-41.8-19.3c-4.4-2-8.9-3.7-13.1-6
			c-13.1-7.1-27.2-9.7-41.9-9.2c-8.3,0.3-16.4,3-22.9,7.3c-6.4,4.3-14.9,7.9-16.7,17.2c0,0.2-0.2,0.4-0.4,0.5
			c-12.4,16.8-20.2,35.9-28.4,54.8c-3.3,7.6-7,15.1-10.7,22.6c-5.1,10.2-10.6,20.2-15.3,30.6c-8.8,19.4-17.2,39-25.9,58.4
			c-1,2.1-3.3,4-5.4,5.2c-7.5,4.2-15,8.2-22.7,11.8c-10.3,4.9-20.8,9.3-31.2,14c-5.6,2.5-11.3,4.8-16.8,7.6
			c-4.2,2.1-7.3,5.5-9.3,9.9c-3.5,7.8-7.1,15.6-10.6,23.4c-3.2,7.2-6.3,14.5-9.7,21.6c-0.8,1.7-2.6,2.8-3.8,4
			c-0.6,2.3-0.9,4.9-1.8,7.2c-5.7,13.5-11.2,27.1-15.3,41.3c-8,27.8-16.3,55.6-31.1,80.8c-2.5,4.3-4.6,9-7.8,12.9
			c-11.8,14.2-23.6,28.4-36.1,41.9c-2.8,3-5.7,6-8.5,9V966h110.4c0.8-1.6,1.5-3.1,2.3-4.7c7.4-15.4,14.9-30.8,22.3-46.2
			c5.7-11.8,11.2-23.7,16.8-35.6c1.4-2.9,2.5-6,4.1-8.8c5.7-10.1,11.5-20.1,17.5-30.1c2.2-3.7,4.7-7.3,7.3-10.9
			c4.6-6.4,9.2-12.6,13.8-18.9c2.8-3.9,5.1-8.4,8.6-11.4c3.5-3,8.4-6.5,12.6-6.4c7.7,0.2,13.4-3.8,18.3-7.7
			c10-8,21.2-13.9,31.7-21.1c7.7-5.3,16-9.7,22.6-16.9c7.2-7.9,15.4-15,23-22.6c5.6-5.6,10.9-11.3,19.8-10.8
			c1.3,0.1,2.6-0.5,3.9-0.7c8.5-1.1,12.3-8.2,16.9-14c1.2-1.6,2.1-2.9,4-3.8c3.1-1.6,6.1-2.3,9.5-1.9c1.4,0.2,3.4,0.1,4.4-0.7
			c7.2-5.6,14.8-10.6,19.6-18.8c2.3-3.9,2.8-7,0.9-10.9c-2.2-4.2-1.8-6.7,2.1-8.8c7.6-4.1,11.7-11.1,15.5-18.3
			c2.9-5.5,3.6-11.4-0.2-16.8c-3.5-4.9-7.4-9.6-11.7-15c1.1-1.8,2.7-4.3,4-6.5c10.9-2.3,21.6-1.9,31.3-7.7
			c7.8-4.7,12.6-11.2,15.5-19.4c0.3-0.8,0.5-1.7,0.3-2.5c-2.2-9.3-6-17.5-15.9-21c-1.8-0.6-3.5-1.6-5.6-2.5c1.8-4.4,3-8.6,5-12.4
			c5.1-9.6,10.4-19.1,16-28.3c6.7-11.1,13.8-21.9,20.7-32.9c2.4-3.8,5.5-7.4,7.3-11.5c3-6.7,4.8-13.7,9.1-20.1
			c4.8-7.2,6.9-16.2,9.4-24.5C495.7,406.9,498.3,399,496.8,390z"/>
		<path class="st6" d="M292.8,342.3c-8.1,12.6-13,27-18.6,40.8c-14.3,35-33.7,67.6-49.8,101.8c-7.2,15.3-13.8,30.9-20.3,46.5
			c-8.8,20.9-17.5,41.8-26.3,62.6c36-6,72.2-10.8,108.5-14.4c3.9-0.4,8.6-0.4,10.9,2.7c2.2,3,1,7.2-0.7,10.5
			c-5,9.9-13.6,17.8-23.9,22.1c-6,2.5-12.5,3.7-18.5,6.2c-15.3,6.3-26.1,20.1-36.1,33.3c18.3,4.1,37.2,8.5,52.1,19.8
			c6.9,5.3,12.9,12,20.6,16.1c13.9,7.4,31.7,4.5,44.9-4.2c13.1-8.7,22.1-22.5,28.5-37c6.3-14.4,10.3-29.8,15.7-44.6
			c20.8-57.4,61.5-105.3,89.3-159.7c8.9-17.4,16.6-36.3,15.3-55.8c-0.2-2.6-0.6-5.3-2.1-7.4c-1.5-2-4-3.2-6.3-4.2
			c-28.1-12.4-56.1-24.9-84.2-37.3c-18.3-8.1-38.6-19.1-58.4-23C315.8,313.8,301.4,328.8,292.8,342.3z"/>
		<g>
			<path d="M353.9,363.9c0-3.2,1.3-4.6,4.5-3.9c3.4,0.7,6.7,1.9,9.9,3.4c9.2,4.1,18.3,8.4,27.4,12.6c3.7,1.7,7.3,8.2,5.9,11.8
				c-0.6,1.5-2.8,3.2-4.3,3.2c-3.2,0.1-6.5-0.5-9.5-1.6c-5.7-2.1-11.3-4.6-16.7-7.4c-4.5-2.3-8.6-5.2-13-7.7
				C354.2,372,354.5,367.8,353.9,363.9z"/>
			<path d="M421.1,396c-4.3,3.9-8.7,1.5-12.9,0c-2.5-0.9-4.1-6.1-3.1-8.6c1.1-2.9,3.9-4.4,7.2-3.9
				C419.7,384.4,422.4,388.2,421.1,396z"/>
		</g>
		<g>
			<path class="st7" d="M412.1,576c9.7-3.2,13.8-12.8,8.9-23.2C417.9,561.3,414.1,568.1,412.1,576z"/>
			<path class="st7" d="M366.7,663.9c-1.6,4.4-3.3,8.8-5,13.2c0.4,0.3,0.8,0.7,1.2,1c4.8-4.1,9.3-8.3,9-15.5
				C369.4,661.5,367.6,661.3,366.7,663.9z"/>
			<path class="st7" d="M71.7,966c4.6-9.8,9.2-19.6,14.2-29.2c10-19,21.1-37.5,31.4-56.4c6.4-11.8,12.1-23.9,18.4-35.7
				c10.6-20.1,23-38.9,40.4-54c1.5-1.3,2.3-3.4,3.2-4.7c2.7-0.4,5.4-0.2,7.6-1.3c15.7-7.7,31.5-15.4,45-27
				c11.3-9.7,23.4-18.5,34.9-28c4-3.3,7.3-7.6,10.9-11.5c4.6-4.9,8.1-8.8,13.6-12.6c1.2-0.8,1.8-2.6,2.1-3.9
				c-6.2,1.4-14.9-8-19.8-11.2c-6.9-4.5-14-8.6-21.9-11.1c-3.6-1.1-7.6,0-10.9-1.8c-5-2.7-9.9-5.5-16-4.2c-1.1,0.2-2.4-0.7-3.6-1.1
				c-2.2-0.8-4.4-1.7-6.7-2.5c-1.3,5.9-2.8,11.2-3.6,16.5c-2.1,14-9.4,25.4-18.3,35.7c-2.9,3.4-8,5-12.2,7.2
				c-3.3,1.7-6.7,4.1-10.1,4.3c-4.8,0.2-9.8,3.8-15.1-0.9c0.6-1.4,1.2-3.2,2.2-4.6c4.4-5.7,8.8-11.6,13.6-16.9
				c10.4-11.6,16.3-25.5,21.2-39.9c2.1-6.2,3.5-12.5,5.8-20.5c9.8-10.5,22.7-20.2,36.6-28.9c4.4-2.7,8.9-4.4,14-5.2
				c3.8-0.6,7.6-0.5,11.2-1c10.1-1.4,22.2-4.5,28.7-13c3.1-4,4.5-9.1,5.9-14c0.2-0.6,0.3-1.1,0.2-1.7c-0.3-1.9-2.8-2.4-4.7-2.4
				c-8.4-0.1-16.8-0.2-25.2-0.3c-6.9-0.1-9.1,1.7-14.9,4.2c-6.7,2.9-15.6,3.5-22.9,4.8c-8.1,1.5-16.3,2.8-24.4,4.2
				c-3.9,0.7-7.7,1.4-11.6,2.3c-1.5,0.3-3,0.9-4.3,1.7c-9.9,6.6-20.7,11.2-32,14.6c-1.6,0.5-3.1,1.6-4.6,2.5
				c-5.1,3.2-10,6.1-16.5,6.3c-3.8,0.1-6.2-1.2-9.5-3.5c1.1-1.5,1.9-3.1,3.1-4c9.6-7.2,19.2-14.4,28.9-21.5
				c3.9-2.8,7.8-5.6,11.9-8.2c3-1.9,5.9-3.9,7-7.5c3.9-12.9,11.4-24.2,17.2-36.2c1-2.1,2.1-4.2,2.4-7.2c-2.2,1.1-4.5,1.9-6.6,3.2
				c-10.9,6.7-22.7,11.4-34.6,15.6c-6,2.1-9.9,6.3-14.1,10.5c-0.9,0.9-1.6,2.3-1.7,3.5c-0.7,9.7-6.8,17.5-9.5,26.6
				c-4.3,14.4-9.9,28.4-14.9,42.6c-0.6,1.7-0.9,3.5-1.8,4.9c-0.5,0.8-1.9,1-3.1,1.6c-0.3,3.4-0.3,3.4,1.8,5.7
				c-2,2.2-4.3,3.7-4.7,7.6c-0.7,7.7-3.1,15.2-4.9,23.3c-1-0.3-1.8-0.6-3.2-1.1c-2.2,7.8-3.8,15.8-6.6,23.3
				c-5,13.1-11,25.7-16.2,38.7C69.4,755,61,764.8,53.2,775c-11.9,15.6-26.6,28.6-39.8,42.9c-3.4,3.6-7.4,6.7-10.8,10.3
				c-0.9,0.9-1.7,1.8-2.6,2.7v135H71.7z"/>
			<path class="st7" d="M389.8,615.3c-1.8,7.5-7.8,13.2-8.3,21.3c5.7-4.7,9.8-10.4,11.6-17.6C393.7,617.1,392.8,615.7,389.8,615.3z"
				/>
			<path class="st7" d="M470,382.8c-8.8-8.1-19.8-13.5-30.7-18.3c-20.8-9.2-41.6-18.3-62.8-26.5c-9.9-3.8-19.8-7.9-30.2-10.1
				c-7.5-1.6-23.6-4.3-30.3,1c-4.6,3.7-8.8,7.9-12.4,12.6c-7.2,9.4-12.6,19.6-16.6,30.8c-4.4,12.4-9.2,24.6-14.5,36.6
				c-5.6,12.9-11.5,25.2-16.2,38.6c-3.6,10.2-9.9,20.1-14.6,29.9c-3.4,7.1-7.2,14.1-9.9,21.6c-5,14-9.2,28.2-16.5,41.3
				c-4.3,7.7-8.7,15.3-13.1,22.8c-0.9,1.4-2.1,3-3.5,3.7c-5.4,2.9-6.7,8.5-10.6,14.3c13.1-2.7,26.1-3.9,39.4-5.4
				c3.8-0.4,7.5-0.8,11.2-1.6c12.9-2.8,24-5,37.3-4.5c4.6,0.2,9.2-0.3,13.7,0.1c7.4,0.6,19.6,1.6,20.3,10.5c0.8,9-2.1,18.9-6.7,26.6
				c-9,15.1-24.4,22.8-41.8,22.4c-5.4-0.1-11.3-0.4-15.9,2.9c-6.8,4.9-11.8,11.5-16.5,18c6.5,4.1,12.3,8.3,18.7,11.6
				c14.7,7.7,29.6,15.2,44.6,22.4c6.9,3.3,14.2,5.6,22.1,6.1c5.8,0.4,9.5-1.9,12.4-6.6c3.9-6.3,8.4-12.3,12.4-18.6
				c5.7-8.8,11.6-17.5,16.6-26.7c5.3-9.8,9.6-20.2,14.5-30.3c5.2-10.4,10.6-20.7,16.1-31c2.9-5.4,6-10.8,9-16.1
				c6.5-11.2,12.5-22.7,19.7-33.5c7-10.4,13.6-21,19.4-32c0.6-1.2,1.6-2.3,1.8-3.5c1.2-6.7,4.4-12.9,7.7-18.5
				c6.2-10.7,11.6-21.7,16.8-32.8c1.4-2.9,1.7-6.5,3.5-8.9c4.7-6.4,7.9-13.9,9.6-21.6c1.1-4.9,2.5-9.9,2.5-15
				C476.9,389,474.2,386.7,470,382.8z M437.5,370.8c0-0.1,0-0.2,0-0.2c0,0,0.1,0,0.1,0.1L437.5,370.8z"/>
			<path d="M496.8,390c-0.3-2.1-0.9-4.2-1.7-6.2c-3-7.2-10.4-12.9-16.5-17.4c-0.5-0.4-1-0.9-1.6-1.2c-7.5-3.6-14.9-7.4-22.5-10.8
				c-9-4-18.2-7.5-27.2-11.6c-14-6.3-27.9-12.8-41.8-19.3c-4.4-2-8.9-3.7-13.1-6c-13.1-7.1-27.2-9.7-41.9-9.2
				c-8.3,0.3-16.4,3-22.9,7.3c-6.4,4.3-14.9,7.9-16.7,17.2c0,0.2-0.2,0.4-0.4,0.5c-12.4,16.8-20.2,35.9-28.4,54.8
				c-3.3,7.6-7,15.1-10.7,22.6c-5.1,10.2-10.6,20.2-15.3,30.6c-8.8,19.4-17.2,39-25.9,58.4c-1,2.1-3.3,4-5.4,5.2
				c-7.5,4.2-15,8.2-22.7,11.8c-10.3,4.9-20.8,9.3-31.2,14c-5.6,2.5-11.3,4.8-16.8,7.6c-4.2,2.1-7.3,5.5-9.3,9.9
				c-3.5,7.8-7.1,15.6-10.6,23.4c-3.2,7.2-6.3,14.5-9.7,21.6c-0.8,1.7-2.6,2.8-3.8,4c-0.6,2.3-0.9,4.9-1.8,7.2
				c-5.7,13.5-11.2,27.1-15.3,41.3c-8,27.8-16.3,55.6-31.1,80.8c-2.5,4.3-4.6,9-7.8,12.9c-11.8,14.2-23.6,28.4-36.1,41.9
				c-2.8,3-5.7,6-8.5,9V831c0.9-0.9,1.7-1.8,2.6-2.7c3.4-3.6,7.4-6.6,10.8-10.3c13.2-14.3,28-27.3,39.8-42.9
				c7.8-10.3,16.2-20,21.1-32.3c5.2-13,11.2-25.7,16.2-38.7c2.9-7.5,4.5-15.5,6.6-23.3c1.4,0.5,2.3,0.8,3.2,1.1
				c1.8-8.1,4.2-15.6,4.9-23.3c0.4-3.8,2.7-5.4,4.7-7.6c-2.1-2.3-2.1-2.3-1.8-5.7c1.2-0.6,2.6-0.8,3.1-1.6c0.9-1.5,1.2-3.3,1.8-4.9
				c5-14.2,10.6-28.2,14.9-42.6c2.7-9.1,8.8-16.8,9.5-26.6c0.1-1.2,0.8-2.6,1.7-3.5c4.2-4.2,8.1-8.4,14.1-10.5
				c12-4.2,23.7-8.9,34.6-15.6c2.1-1.3,4.4-2.2,6.6-3.2c-0.3,3-1.4,5.1-2.4,7.2c-5.8,12-13.3,23.3-17.2,36.2c-1.1,3.7-4,5.6-7,7.5
				c-4.1,2.6-8,5.3-11.9,8.2c-9.7,7.1-19.3,14.2-28.9,21.5c-1.2,0.9-2,2.5-3.1,4c3.3,2.3,5.7,3.7,9.5,3.5c6.5-0.2,11.4-3.1,16.5-6.3
				c1.5-0.9,2.9-2,4.6-2.5c11.3-3.4,22.1-8,32-14.6c1.2-0.8,2.8-1.4,4.3-1.7c3.8-0.9,7.7-1.6,11.6-2.3c8.1-1.5,16.3-2.8,24.4-4.2
				c7.2-1.3,16.1-1.9,22.9-4.8c5.8-2.5,8-4.3,14.9-4.2c8.4,0.1,16.8,0.2,25.2,0.3c1.9,0,4.4,0.5,4.7,2.4c0.1,0.6-0.1,1.2-0.2,1.7
				c-1.4,4.9-2.8,9.9-5.9,14c-6.5,8.6-18.6,11.6-28.7,13c-3.6,0.5-7.4,0.5-11.2,1c-5.1,0.8-9.6,2.5-14,5.2
				c-13.8,8.6-26.8,18.4-36.6,28.9c-2.2,8-3.7,14.4-5.8,20.5c-4.9,14.4-10.8,28.3-21.2,39.9c-4.8,5.4-9.2,11.2-13.6,16.9
				c-1.1,1.4-1.6,3.3-2.2,4.6c5.3,4.7,10.4,1.1,15.1,0.9c3.4-0.2,6.8-2.6,10.1-4.3c4.2-2.2,9.3-3.8,12.2-7.2
				c8.9-10.3,16.2-21.7,18.3-35.7c0.8-5.3,2.3-10.6,3.6-16.5c2.3,0.9,4.5,1.7,6.7,2.5c1.2,0.4,2.5,1.4,3.6,1.1
				c6.1-1.3,11,1.5,16,4.2c3.3,1.8,7.2,0.6,10.9,1.8c7.9,2.4,15,6.6,21.9,11.1c4.9,3.2,13.6,12.6,19.8,11.2
				c-0.3,1.3-0.9,3.1-2.1,3.9c-5.6,3.8-9.1,7.7-13.6,12.6c-3.6,3.9-6.8,8.1-10.9,11.5c-11.5,9.5-23.6,18.3-34.9,28
				c-13.5,11.6-29.3,19.3-45,27c-2.1,1-4.9,0.9-7.6,1.3c-0.9,1.3-1.7,3.4-3.2,4.7c-17.3,15.1-29.7,33.9-40.4,54
				c-6.3,11.8-12,24-18.4,35.7c-10.3,18.9-21.4,37.3-31.4,56.4c-5,9.6-9.7,19.4-14.2,29.2h38.8c0.8-1.6,1.5-3.1,2.3-4.7
				c7.4-15.4,14.9-30.8,22.3-46.2c5.7-11.8,11.2-23.7,16.8-35.6c1.4-2.9,2.5-6,4.1-8.8c5.7-10.1,11.5-20.1,17.5-30.1
				c2.2-3.7,4.7-7.3,7.3-10.9c4.6-6.4,9.2-12.6,13.8-18.9c2.8-3.9,5.1-8.4,8.6-11.4c3.5-3,8.4-6.5,12.6-6.4
				c7.7,0.2,13.4-3.8,18.3-7.7c10-8,21.2-13.9,31.7-21.1c7.7-5.3,16-9.7,22.6-16.9c7.2-7.9,15.4-15,23-22.6
				c5.6-5.6,10.9-11.3,19.8-10.8c1.3,0.1,2.6-0.5,3.9-0.7c8.5-1.1,12.3-8.2,16.9-14c1.2-1.6,2.1-2.9,4-3.8c3.1-1.6,6.1-2.3,9.5-1.9
				c1.4,0.2,3.4,0.1,4.4-0.7c7.2-5.6,14.8-10.6,19.6-18.8c2.3-3.9,2.8-7,0.9-10.9c-2.2-4.2-1.8-6.7,2.1-8.8
				c7.6-4.1,11.7-11.1,15.5-18.3c2.9-5.5,3.6-11.4-0.2-16.8c-3.5-4.9-7.4-9.6-11.7-15c1.1-1.8,2.7-4.3,4-6.5
				c10.9-2.3,21.6-1.9,31.3-7.7c7.8-4.7,12.6-11.2,15.5-19.4c0.3-0.8,0.5-1.7,0.3-2.5c-2.2-9.3-6-17.5-15.9-21
				c-1.8-0.6-3.5-1.6-5.6-2.5c1.8-4.4,3-8.6,5-12.4c5.1-9.6,10.4-19.1,16-28.3c6.7-11.1,13.8-21.9,20.7-32.9
				c2.4-3.8,5.5-7.4,7.3-11.5c3-6.7,4.8-13.7,9.1-20.1c4.8-7.2,6.9-16.2,9.4-24.5C495.7,406.9,498.3,399,496.8,390z M362.9,678.1
				c-0.4-0.3-0.8-0.7-1.2-1c1.7-4.4,3.3-8.8,5-13.2c1-2.6,2.7-2.3,5.2-1.3C372.1,669.8,367.7,674.1,362.9,678.1z M393.1,619.1
				c-1.8,7.1-6,12.8-11.6,17.6c0.5-8.1,6.5-13.8,8.3-21.3C392.8,615.7,393.7,617.1,393.1,619.1z M412.1,576c2-7.9,5.8-14.8,8.9-23.2
				C425.9,563.3,421.8,572.8,412.1,576z M474.3,409.8c-1.8,7.8-4.9,15.2-9.6,21.6c-1.8,2.5-2.2,6-3.5,8.9
				c-5.2,11.1-10.6,22.1-16.8,32.8c-3.3,5.6-6.5,11.8-7.7,18.5c-0.2,1.2-1.2,2.4-1.8,3.5c-5.8,11.1-12.4,21.6-19.4,32
				c-7.2,10.7-13.2,22.3-19.7,33.5c-3.1,5.3-6.2,10.6-9,16.1c-5.4,10.3-10.9,20.6-16.1,31c-5,10-9.2,20.4-14.5,30.3
				c-5,9.2-10.9,17.9-16.6,26.7c-4,6.3-8.5,12.3-12.4,18.6c-3,4.7-6.6,7-12.4,6.6c-7.9-0.5-15.2-2.8-22.1-6.1
				c-15-7.2-29.9-14.6-44.6-22.4c-6.3-3.3-12.2-7.5-18.7-11.6c4.7-6.5,9.7-13.1,16.5-18c4.6-3.3,10.5-3,15.9-2.9
				c17.4,0.4,32.7-7.2,41.8-22.4c4.6-7.7,7.5-17.5,6.7-26.6c-0.8-9-12.9-9.9-20.3-10.5c-4.6-0.4-9.2,0.1-13.7-0.1
				c-13.3-0.4-24.3,1.8-37.3,4.5c-3.7,0.8-7.4,1.2-11.2,1.6c-13.3,1.5-26.3,2.7-39.4,5.4c3.9-5.8,5.1-11.4,10.6-14.3
				c1.4-0.8,2.7-2.3,3.5-3.7c4.5-7.6,8.9-15.2,13.1-22.8c7.2-13.1,11.5-27.3,16.5-41.3c2.6-7.4,6.4-14.4,9.9-21.6
				c4.7-9.8,10.9-19.6,14.6-29.9c4.7-13.3,10.6-25.7,16.2-38.6c5.3-12,10.1-24.2,14.5-36.6c4-11.2,9.4-21.4,16.6-30.8
				c3.6-4.7,7.8-8.9,12.4-12.6c6.6-5.3,22.8-2.6,30.3-1c10.4,2.2,20.3,6.2,30.2,10.1c21.2,8.2,42,17.4,62.8,26.5
				c10.9,4.8,21.9,10.2,30.7,18.3c4.2,3.8,6.9,6.2,6.8,12C476.8,399.9,475.5,404.9,474.3,409.8z"/>
			<path d="M437.5,370.8l0.1-0.2c0,0-0.1,0-0.1-0.1C437.5,370.6,437.5,370.7,437.5,370.8z"/>
		</g>
	</g>
</g>
<g id="Topping">
	<g>
		<g>
			<g>
				<path class="st8" d="M841.1,477.3c-14.3-0.3-33-9.8-43.8-13.4c-18.2-6-36.3-12.3-54.2-19.1c-8.3-3.1-16.6-6.4-24.8-9.7
					c-2.9-1.2-17.5-4.2-18-6.4c-0.9-3.6,28.5-29.9,32.3-34c4.9-5.2,10.5-9.7,15.2-15c8-9,15.5-18.4,23.4-27.5
					c10.6-12.3,19.3-25.8,27.6-39.7c6.6-11.1,12.8-22.6,19.3-33.8c3.1-5.4,6.5-10.6,9.8-15.8c1.8-2.8,4.6-4.4,7.7-3.8
					c3,0.6,6,2,8.7,3.5c10.9,6.1,19,15.5,28.3,23.5c8,6.9,15.7,14.2,23.9,20.9c9.7,7.9,19.9,15.4,30.9,21.6
					c6.4,3.6,12.7,7.6,19,11.5c0.8,0.5,1.6,1,2.3,1.6c4.2,4,5.1,7.6,1.5,11.6c-3,3.3-4.9,7.6-7.6,11.1
					c-10.3,13.2-20.6,26.5-31.2,39.5c-6.2,7.6-13.1,14.5-19.5,21.9c-4.4,5.2-8.6,10.7-12.6,16.3c-6.2,8.4-12.2,17-18.2,25.6
					c-2.4,3.4-5.6,5.4-9.1,7.4C849,476.7,845.2,477.4,841.1,477.3z"/>
				<path d="M841.5,454.6c3.5-8.3,9.9-14.7,14.9-22c2.2-3.3,4.6-6.5,6.9-9.7c1.2-1.7,2.4-3.5,3.8-5.1c1.4-1.5,3.2-2.5,4.5-4
					c1.8-2.2,3.3-4.6,5.4-7.6c0.6-0.5,2.1-1.3,3.2-2.5c3.2-3.7,6.3-7.5,9.3-11.3c4.9-6.3,9.7-12.6,14.4-19c0.9-1.2,1.4-2.8,2.1-4.1
					c0.6-1.2,1-2.5,1.8-3.5c2.9-4.1,6-8.1,8.9-12.1c1.9-2.7,3.9-5.3,5.6-8.2c1.4-2.4,1.1-3.4-1.3-4.9c-2.8-1.8-5.7-3.3-8.5-5.2
					c-8.2-5.4-16.7-10.3-24.3-16.4c-13.6-10.9-26.7-22.6-39.9-33.9c-1-0.8-2.1-1.5-3.5-2.5c-2.6,4.2-5,7.9-7.3,11.8
					c-5.6,9.4-10.9,19.1-16.7,28.3c-4.9,7.7-10,15.3-15.7,22.4c-8.1,9.9-17,19.2-25.4,28.9c-5.5,6.3-12.2,11.3-18.4,16.8
					c-7,6.3-14,12.6-20.3,19.5c-5.3,5.7-11.7,9.9-17.7,14.6c-1.2,0.9-2.4,1.7-3.5,2.6c-5.3,4-11.3,3.9-17.5,2.8
					c-2.2-0.4-2.4-1.8-0.7-3.3c11.3-9.8,21-21.3,31.2-32.3c4.9-5.2,10.5-9.7,15.3-15.1c8-9,15.5-18.4,23.4-27.5
					c10.6-12.3,19.3-25.8,27.6-39.7c6.6-11.1,12.8-22.6,19.3-33.8c3.1-5.4,6.5-10.6,9.8-15.8c1.8-2.8,4.6-4.4,7.7-3.8
					c3,0.6,6,2,8.7,3.5c10.9,6.1,19,15.5,28.3,23.5c8,6.9,15.7,14.2,23.9,20.9c9.7,7.9,19.9,15.4,30.9,21.6
					c6.4,3.6,12.7,7.6,19,11.5c0.8,0.5,1.6,1,2.3,1.6c4.2,4,5.1,7.6,1.5,11.6c-3,3.3-4.9,7.6-7.6,11.1
					c-10.3,13.2-20.6,26.5-31.2,39.5c-6.2,7.6-13.1,14.5-19.5,21.9c-4.4,5.2-8.6,10.7-12.6,16.3c-6.2,8.4-12.2,17-18.2,25.6
					c-2.4,3.4-5.6,5.4-9.1,7.4c-5.6,3.3-11.4,2.5-17.3,1.7c-1.5-0.2-2.4-1.3-2.4-2.8c0-1.3,0-2.8,0.6-3.9c2.2-4.6,4.6-9.2,7-13.7
					c0,0.5,0.1,1,0.1,1.4c0.2,0,0.5,0.1,0.7,0.1C841,456.7,841.3,455.7,841.5,454.6z M923.1,366.6c0.1-0.2,0.4-0.3,0.4-0.5
					c0-0.2-0.2-0.4-0.3-0.6c-0.1,0.2-0.3,0.3-0.3,0.5C922.8,366.2,922.9,366.4,923.1,366.6z"/>
				<path d="M923.1,366.6c0.1-0.2,0.4-0.3,0.4-0.5c0-0.2-0.2-0.4-0.3-0.6c-0.1,0.2-0.3,0.3-0.3,0.5
					C922.8,366.2,922.9,366.4,923.1,366.6z"/>
			</g>
			<g>
				<path class="st9" d="M775.2,495.9c0.9,3.2,1.8,6.1,2.5,9.1c0.9,3.5-0.4,6.3-3,8.6c-5.5,4.7-11.9,6.8-19.2,5.8
					c-1.4-0.2-2.7-0.2-4.1-0.2c-1.6,0-2.5,0.9-2.8,2.5c-1.2,6.9-6.1,10.6-11.9,13.2c-5.4,2.5-11.2,2.6-16.9,1.6
					c-3.5-0.6-6.6-1.9-9.3-4.3c-2.5-2.2-5.2-4.2-7.6-6.5c-1.5-1.5-3.1-2.1-5.2-1.9c-3.8,0.5-7.6,0.3-11.3-0.8
					c-2.4-0.7-4.5-1.5-6.3-3.4c-0.8-0.9-1.9-1.7-3-2.2c-2.4-1-3.9-2.7-5.1-4.9c-1.4-2.7-3-5.4-4.1-8.3c-1.8-4.7-1.7-9.5,1.4-13.8
					c1.7-2.4,1.9-4.7-0.1-7.2c-1.4-1.8-2.2-4-3-6.2c-1.2-3.5-1.2-7.1,1.1-10.2c2.7-3.6,5.7-7,10.8-6.9c0.7,0,1.4-0.2,2-0.3
					c3.5-0.5,4.2-1.3,4.2-4.9c0-3,0-6-0.1-9c-0.1-4.1,1.8-6.6,5.5-8.2c4-1.7,7.8-2,12-0.4c4.1,1.6,8.5,2.6,12.9,3.8
					c2.2,0.6,3.2-0.1,4.2-2.3c2.8-5.9,6.1-9.7,14.8-8c3,0.6,6.2,0.3,9.2,0.9c8.3,1.5,16.1,4.1,20,12.7c1,2.3,2.1,4.6,3.1,6.9
					c1.2,2.5,1.5,2.6,4.2,2.3c3.4-0.3,6.8-0.5,10.3-0.4c1.2,0,2.4,0.7,3.5,1.2c2.2,1.1,4.3,2.3,6.4,3.4c6.9,3.7,8.2,13.4,2.4,18.6
					c-1.2,1.1-1.9,2.4-2.7,3.9c-1.3,2.4-2.9,4.7-4.8,6.6C782.2,490,778.7,492.8,775.2,495.9z M759.5,491.3c-0.1,0.3-0.3,0.6-0.4,0.9
					c0.2,0,0.4,0.2,0.5,0.1c0.2-0.1,0.3-0.4,0.3-0.6C759.9,491.6,759.7,491.5,759.5,491.3z"/>
				<path d="M775.2,495.9c0.9,3.2,1.8,6.1,2.5,9.1c0.9,3.5-0.4,6.3-3,8.6c-5.5,4.7-11.9,6.8-19.2,5.8c-1.4-0.2-2.7-0.2-4.1-0.2
					c-1.6,0-2.5,0.9-2.8,2.5c-1.2,6.9-6.1,10.6-11.9,13.2c-5.4,2.5-11.2,2.6-16.9,1.6c-3.5-0.6-6.6-1.9-9.3-4.3
					c-2.5-2.2-5.2-4.2-7.6-6.5c-1.5-1.5-3.1-2.1-5.2-1.9c-3.8,0.5-7.6,0.3-11.3-0.8c-2.4-0.7-4.5-1.5-6.3-3.4
					c-0.8-0.9-1.9-1.7-3-2.2c-2.4-1-3.9-2.7-5.1-4.9c-1.4-2.7-3-5.4-4.1-8.3c-1.8-4.7-1.7-9.5,1.4-13.8c1.7-2.4,1.9-4.7-0.1-7.2
					c-1.4-1.8-2.2-4-3-6.2c-1.2-3.5-1.2-7.1,1.1-10.2c2.7-3.6,5.7-7,10.8-6.9c0.7,0,1.4-0.2,2-0.3c3.5-0.5,4.2-1.3,4.2-4.9
					c0-3,0-6-0.1-9c-0.1-4.1,1.8-6.6,5.5-8.2c4-1.7,7.8-2,12-0.4c4.1,1.6,8.5,2.6,12.9,3.8c2.2,0.6,3.2-0.1,4.2-2.3
					c2.8-5.9,6.1-9.7,14.8-8c3,0.6,6.2,0.3,9.2,0.9c8.3,1.5,16.1,4.1,20,12.7c1,2.3,2.1,4.6,3.1,6.9c1.2,2.5,1.5,2.6,4.2,2.3
					c3.4-0.3,6.8-0.5,10.3-0.4c1.2,0,2.4,0.7,3.5,1.2c2.2,1.1,4.3,2.3,6.4,3.4c6.9,3.7,8.2,13.4,2.4,18.6c-1.2,1.1-1.9,2.4-2.7,3.9
					c-1.3,2.4-2.9,4.7-4.8,6.6C782.2,490,778.7,492.8,775.2,495.9z M742.7,508.9c0,0.2,0.1,0.5,0.1,0.7c2.7-0.4,5.5-0.6,8.1-1.4
					c4.9-1.5,6.6-4.1,6.7-9.1c0-0.7,0-1.4,0-2.1c0.1-4.2,1.3-7.8,4.7-10.6c2.6-2.2,4.9-4.8,7.4-7.2c2.4-2.4,3.3-5.5,3.7-8.7
					c0.4-3.2-0.2-3.7-3.3-4.4c-2.2-0.5-4.5-1-6.6-1.8c-2-0.7-3.9-1.8-5.9-2.8c-2.7-1.4-5.8-2.5-7.5-5.3c-1.8-3.1-3.5-6.4-5.3-9.6
					c-0.9-1.7-1.7-2-3.3-0.8c-1.4,1.1-2.6,2.5-3.9,3.8c-1.2,1.3-2,3.2-3.4,3.8c-4.4,2.1-9.1,3.2-13.9,1.1c-2.7-1.2-5.4-2.5-8.2-3.5
					c-3.8-1.3-7.2,0.6-8.8,4.3c-1,2.4-0.9,4.7-0.7,7.1c0.2,2,0.1,4.1-1.7,5.4c-1.9,1.4-3.6,3.6-6.6,2.9c-3.5-0.9-5.6,0.9-7.1,3.8
					c-0.5,1-1.3,1.9-2,2.8c-2,3-1.8,4.8,0.7,7.3c0.9,0.9,1.9,1.7,2.7,2.6c1.2,1.4,2.5,2.8,3.2,4.4c1.6,3.8,0.6,7.4-1.3,10.8
					c-0.9,1.6-1.9,3.2-2.4,4.9c-0.7,2.8,0.4,4.3,3.3,4.8c2.4,0.4,4.8,0.6,7.2,1c6.3,1.1,12.3,2.5,16.5,8.1c2,2.7,3.6,2.7,6.6,1
					c1-0.6,2-1.7,3-1.6c2.2,0.1,2.8-1.2,3.4-2.8c0.4-1.1,0.9-2.1,1.2-3.2c0.7-2.7,2.7-4,5.1-4.6C737.2,509.4,740,509.2,742.7,508.9z
					 M759.5,491.3c-0.1,0.3-0.3,0.6-0.4,0.9c0.2,0,0.4,0.2,0.5,0.1c0.2-0.1,0.3-0.4,0.3-0.6C759.9,491.6,759.7,491.5,759.5,491.3z"
					/>
				<path class="st1" d="M738.9,460c-0.6,0.4-1.2,0.9-1.9,1.3c-3.2,1.7-6.6,3-9.7,5c-2.5,1.6-4.6,4-6.8,6c-0.2,0.1-0.3,0.4-0.4,0.6
					c-0.3,3.3-2.2,5.7-4.5,7.9c-0.5,0.5-0.9,1.4-1.1,2.1c-0.6,3.4-1.3,6.8-1.4,10.2c-0.2,4.6,2.9,7.3,7.4,6.8c1-0.1,2.2-0.1,3-0.6
					c5.7-2.9,11.7-5.4,16.5-9.9c2.4-2.2,4.1-4.9,5.2-8.1c0.2-0.5,0.5-1.2,0.4-1.6c-0.2-0.9-0.5-2.2-1.2-2.6c-0.6-0.3-2,0.2-2.6,0.7
					c-2.4,2.3-4.6,4.7-6.9,7.1c-1.4,1.4-2.6,2.8-5,2.4c-0.9-0.2-2.1,0.7-3,1.3c-1.6,1.1-3,2.3-4.7,3.7c-0.4-0.8-0.8-1.2-0.7-1.5
					c1.1-3.6,2.4-7.1,3.6-10.7c0.1-0.3,0.5-0.6,0.4-0.9c-0.2-3.4,2.5-4.5,4.6-6.2c3.2-2.5,6.2-5.1,10-6.6c1.9-0.8,3.7-1.7,5.9-0.6
					c0.7,0.3,1.8,0,2.6-0.2c3.4-0.5,6.7-0.4,9.7,1.5c3.6,2.2,4.4,6,3.2,10.6c-2.3,8.8-8.2,14.7-15.3,19.7c-3.7,2.6-7.5,5.2-11.4,7.7
					c-5.9,3.8-12.3,4.7-19.2,3.8c-2.9-0.4-5.7-0.9-8.2-2.3c-2.5-1.4-4.6-3-5.9-5.6c-0.8-1.5-1.7-3-2.6-4.4
					c-2.8-4.4-2.4-10.3,1.1-14.8c1.9-2.5,4-5,6.1-7.4c5-5.6,11.4-9.1,18.2-12.1c4.1-1.9,8.4-3.1,12.9-3.3c0.5,0,1,0.2,1.5,0.2
					C738.8,459.5,738.8,459.7,738.9,460z"/>
				<path d="M727.6,515.7c-0.2,0.4-0.3,0.9-0.5,1.3c-0.1,0-0.2-0.1-0.4-0.1c0.2-0.4,0.4-0.9,0.5-1.3
					C727.4,515.6,727.5,515.7,727.6,515.7z"/>
			</g>
			<g>
				<path class="st9" d="M823.8,489.2c-7.7,8-15.1,17-17.8,27.8c-2.8,10.8,0.2,23.8,9.6,29.7c5.5,3.5,12.3,4.2,18.8,3.8
					c7-0.4,14.2-2.1,19.9-6.2c4.1-3,7.3-7.1,10.1-11.3c12.1-17.9,19.3-39,21-60.5c0.5-5.9,3.5-24.8-5.5-25.8
					c-7.1-0.7-21.9,12.9-27.4,17C842.3,471.5,832.6,480,823.8,489.2z"/>
				<path class="st10" d="M873.7,361.4c2-2.2,4-4,5.5-6.2c0.8-1.1,0.7-3,0.7-4.5c0.1-6,1.9-11.4,5.7-16.1c3.4-4.2,7.5-5.7,12.8-4.2
					c4.5,1.3,4.6,1.2,7.3-2.7c1.6-2.2,3.1-4.5,4.8-6.5c3.6-4,8.1-6.2,13.6-5.8c1.4,0.1,2.8,0.2,4.2,0.4c10.1,1.4,13.7,5.7,15,16.5
					c0.7,6.1-0.3,12.2-2.3,18c-1.9,5.6-1.6,6.9,3.2,10.6c5.1,4,5.9,9.4,5.8,15.2c0,1-0.7,2.2-1.2,3.1c-4.8,7.4-9.5,14.7-14.4,22
					c-2.7,4-5.6,7.8-8.5,11.7c-2.8,3.8-4.7,7.9-6.8,12c0.3,0.2,0.5,0.5,0.8,0.7c0.9-0.8,1.7-1.5,2.6-2.3c3.4-3.2,6.5-6.8,10.3-9.6
					c3.1-2.3,6.8-4,10.4-5.5c4.3-1.8,8.8-2.1,13.1,0.3c2.3,1.3,4.5,0.9,6.9,0c3.7-1.4,7.5-2.7,11.4-3.3c5.1-0.7,9.9,0.4,13.1,5.1
					c1.5,2.2,2,4.4,1.9,7.2c-0.3,6-2.4,10.6-8.2,13.2c-1.3,0.6-2.4,1.6-3.4,2.6c-2.7,2.7-5,5.4-4.8,9.9c0.3,6-3,10.4-8.3,12.8
					c-5.8,2.5-11.4,5.6-18.1,5.6c-4.6,0-8.9,1.9-12.7,4.5c-6.7,4.6-11.9,4.2-19.3,5.3c-8.3,1.2-17.1,5.7-25.1,8.4
					c-0.4,0.1-0.9,0.3-1.3,0.1c-0.5-0.2-0.7-0.7-0.9-1.2c-2.3-5.1-4.5-10.3-6.8-15.4c-1.1-2.6-2.5-5.4-5.1-6.5
					c-0.3-1.9-0.6-3.9-0.9-5.8c-6.8,3.6-13.5,7.2-20.3,10.7c-1.4,0.7-3.5,1.4-4.4,0c-0.4-0.6-0.4-1.3-0.4-2
					c0.2-9.3,3.6-26.9-4.6-33.9c-4.8-4.1-8-9.5-10.4-15.4c-1.7-4.3-1.8-8.5,0.3-12.8c0.6-1.2,1.1-2.3,1.5-3.5
					c1.2-3.5,1.4-6.8-0.3-10.3c-3.2-6.3-3-12.5,0.8-18.6c1.3-2.2,3-3.8,5.3-4.6c5.4-1.9,10.9-3.2,16.6-1.1c1.2,0.4,2.9,0.4,4.1-0.1
					c3.4-1.3,6.4-0.9,9.2,1.2C872.6,361.2,873.1,361.2,873.7,361.4z"/>
				<path d="M873.7,361.4c2-2.2,4-4,5.5-6.2c0.8-1.1,0.7-3,0.7-4.5c0.1-6,1.9-11.4,5.7-16.1c3.4-4.2,7.5-5.7,12.8-4.2
					c4.5,1.3,4.6,1.2,7.3-2.7c1.6-2.2,3.1-4.5,4.8-6.5c3.6-4,8.1-6.2,13.6-5.8c1.4,0.1,2.8,0.2,4.2,0.4c10.1,1.4,13.7,5.7,15,16.5
					c0.7,6.1-0.3,12.2-2.3,18c-1.9,5.6-1.6,6.9,3.2,10.6c5.1,4,5.9,9.4,5.8,15.2c0,1-0.7,2.2-1.2,3.1c-4.8,7.4-9.5,14.7-14.4,22
					c-2.7,4-5.6,7.8-8.5,11.7c-2.8,3.8-4.7,7.9-6.8,12c0.3,0.2,0.5,0.5,0.8,0.7c0.9-0.8,1.7-1.5,2.6-2.3c3.4-3.2,6.5-6.8,10.3-9.6
					c3.1-2.3,6.8-4,10.4-5.5c4.3-1.8,8.8-2.1,13.1,0.3c2.3,1.3,4.5,0.9,6.9,0c3.7-1.4,7.5-2.7,11.4-3.3c5.1-0.7,9.9,0.4,13.1,5.1
					c1.5,2.2,2,4.4,1.9,7.2c-0.3,6-2.4,10.6-8.2,13.2c-1.3,0.6-2.4,1.6-3.4,2.6c-2.7,2.7-5,5.4-4.8,9.9c0.3,6-3,10.4-8.3,12.8
					c-5.8,2.5-11.4,5.6-18.1,5.6c-4.6,0-8.9,1.9-12.7,4.5c-4.3,2.9-8.8,5-14.1,5.6c-4.6,0.5-8.5,4.5-12,7.4c-3.8,3.2-7,6.9-9.8,10.9
					c-5.5,7.8-9.6,16.5-14.2,24.8c-3.4,6.2-6.6,12.4-10.5,18.4c-5,7.6-11.5,12.9-19.2,16.9c-5.7,2.9-12.1,4.7-18.3,6.7
					c-4.1,1.3-8.3,3.2-12.9,2.1c-0.7-0.2-1.6,0.5-2.4,0.7c-2.5,0.7-4.9,0.1-6.7-1.6c-3.2-2.8-6.1-5.9-9.2-8.8
					c-7.8-7.3-9.8-16.5-8-26.5c2.7-14.9,10.4-27.1,21.9-36.9c7.5-6.3,14.9-12.7,21.8-19.6c4.2-4.1,6.1-9.9,6.9-15.7
					c0.6-4.5,1.1-9,1.7-13.5c0.6-4.4-0.6-7.9-4.1-11c-4.8-4.1-8-9.5-10.4-15.4c-1.7-4.3-1.8-8.5,0.3-12.8c0.6-1.2,1.1-2.3,1.5-3.5
					c1.2-3.5,1.4-6.8-0.3-10.3c-3.2-6.3-3-12.5,0.8-18.6c1.3-2.2,3-3.8,5.3-4.6c5.4-1.9,10.9-3.2,16.6-1.1c1.2,0.4,2.9,0.4,4.1-0.1
					c3.4-1.3,6.4-0.9,9.2,1.2C872.6,361.2,873.1,361.2,873.7,361.4z M869.1,464.2c2.2-2.2,4.5-4.4,6.5-6.7c2.3-2.7,4.3-5.7,6.8-8.2
					c1.8-1.8,3.5-3.8,4.9-5.9c1.3-2,2.3-4.3,3.8-6.1c3-3.8,5-8.6,6.7-13.1c2.4-6.4,4.1-13.2,5-20c0.7-4.9,1-9.3-0.1-14.1
					c-1.1-4.9-3.7-9.7-5.7-14.3c-0.5-1.2-1.1-2.4-1.4-3.7c1.6,0.5,2.7,2,3.6,3.3c1.6,2.2,3.4,4.3,5.3,6.2c-0.4-0.4,0.3-3.9,0.3-4.6
					c0.2-1.8,0.3-3.5,0.6-5.3c0.5-3.5,1.1-7,1.9-10.5c1.7-6.6,4.8-12.4,8.8-18c0.4-0.6,1.2-1,2.7-2c-0.7,2.3-0.8,3.7-1.4,4.9
					c-0.9,1.7-1.2,3.6-1.9,5.4c-1,2.3-2,4.7-2.5,7.2c-0.6,3.2-1.9,6.2-2.1,9.6c-0.3,4.2-0.4,8.4-0.7,12.6c0,0.3,0,0.6,0.2,0.8
					c0.1,0.1,0.3,0.1,0.5,0.2c1.1,0.1,2.1-0.8,3-1.6c2.1-1.8,4.3-3.3,6.8-4.4c1.2-0.6,2.3-1.2,3.6-1.5c0.8-0.2,2.8,0.3,3.2,0.1
					c-4.5,2.1-8.6,5.2-11.9,9c-1.8,2-3.4,4.3-4.3,6.9c-1.6,4.2-1.8,9.2-2.5,13.6c-1,6.5-1.4,13.6-3.7,19.8c-2.1,5.6-4,11.2-6.7,16.5
					c-3,6.1-6.9,11.7-10.2,17.6c-1.3,2.4-1.8,5.1-1.9,7.8c0,1.4,0.1,2.8,0.2,4.1c0.1,0.6-0.1,3.1,0.5,3.4c0.2,0.1,0.5,0,0.7-0.2
					c1.3-1.7,2-4.5,2.8-6.4c2.7-6.6,5.6-13.1,7.8-19.8c1.7-5.1,3.4-10.2,6.2-14.9c3.1-5.1,6.1-10.2,9.2-15.3
					c5.3-8.7,10.3-17.6,15.9-26.2c2.9-4.4,4.8-9,6.6-13.8c0.9-2.4,0.8-4.6,0.1-7.1c-0.8-2.8-2.6-4.7-4.7-6.4
					c-5.2-4.2-5.9-9.7-4.5-15.8c0.5-2.1,1.3-4.1,1.8-6.1c0.9-4.3,1.3-8.7-0.1-13c-1.7-5.1-5.8-6-9.2-2c-3.1,3.6-6,7.5-9.1,11.2
					c-3,3.6-7.1,4.6-11.4,3.1c-6.4-2.2-7.6-1.5-8.7,5.1c-0.1,0.7-0.3,1.4-0.2,2.1c0.8,6-2.1,10.1-6.7,13.3c-1.4,1-2.1,2.1-2.4,3.8
					c-0.4,2.6-0.5,5,0.9,7.4c0.9,1.6,1.6,3.3,2.3,5c2.5,6.5,5.4,12.8,7.4,19.5c1.2,3.9,2.1,7.8,3.9,11.6c1,2.2,1.1,5,0.9,7.4
					c-0.3,2.6-1.3,5.3-2.4,7.7c-2.5,5.4-5.4,10.6-8,16c-3.4,7-8.1,13-13.5,18.4c-2.3,2.3-4.8,3.3-7.2,5.5c-1.7,0.7-3.5,2.3-5,3.2
					c-3.9,2.3-7.6,4.9-11.4,7.3c-1.9,1.2-3.8,2.4-5.6,3.8c-4.6,3.7-9.1,7.7-13.8,11.4c-8.5,6.7-14.2,15.4-18.1,25.3
					c-4.5,11.5-1.7,21.4,7.1,29.8c2,1.9,3.4,1.8,4.7-0.5c0.7-1.2,1.1-2.5,1.8-4.1c-4.5-0.7-6.4-3.6-7.9-7.2c-1.7-4-1.7-8-0.8-12.1
					c1.5-6.9,5.4-12.6,9.8-17.7c4.8-5.7,10.4-10.9,15.9-15.9c6.7-6.1,13.7-11.9,20.7-17.6C864.3,467.5,867.8,465.5,869.1,464.2z
					 M857.1,450.9c-0.2,1.2-0.4,2.3-0.4,2.2c3.5-0.6,6.4-3.3,8.2-6.4c2.5-4.1,3.5-9.1,2.8-13.9c-0.4-3.2-1.6-6.3-2.8-9.4
					c-1.7-4.3-3.3-8.6-5.7-12.6c-0.4-0.6-3.7-4.6-3.5-5c0.7-1.4,3.9,1.6,4.3,2c1.6,1.4,3.3,2.7,4.7,4.3c1.4,1.5,2.5,3.2,4.1,5.3
					c2.1-6-0.4-13.2-2.3-18.9c-1.1-3.2-2.3-6.4-3.5-9.5c-0.8-2.1-3.6-6.2-3-8.5c0.2-0.7,3,1.9,3.2,2.2c1.1,1.4,2.3,2.7,3.3,4.1
					c2.1,2.9,4,6.1,5.5,9.4c3,6.5,4.9,13.6,5.3,20.8c0,0.1,2.2-1.2,2.4-1.4c0.8-0.7,1.3-1.3,1.8-2.3c1.1-2.1,1.9-4.5,2.9-6.7
					c0.5-1.1-0.9-3.1-1.4-4.7c-0.1-0.4-0.3-0.8-0.4-1.2c-1.4-10.8-7.2-19.9-12.2-29.3c-1.2-2.2-3.1-4.6-5.9-4.2
					c-3.6,0.5-6.7-0.4-9.9-1.6c-2-0.7-4-1.4-6.1-1.9c-3.5-0.9-5.4,0.5-5.9,4c-0.1,0.7-0.1,1.5-0.3,2.1c-2.4,5.4-0.8,10.2,1.7,15
					c2.4,4.8,2.5,9.7-0.1,14.6c-0.8,1.6-1.5,3.4-1.8,5.2c-0.9,5.5,2.1,9.5,5.4,13.3c2.1,2.4,4.8,4.4,7,6.8c4.1,4.5,6.3,9.6,4.5,15.9
					c-0.6,2.2-1,4.6-1.3,6.9C857.7,448.1,857.4,449.5,857.1,450.9z M941,442.2c1.5,0.8,3.6,1,5.2,1.4c1.5,0.4,3.2,0.2,4.8,0.3
					c1.8,0.1,3.7,0.2,5.5,0.2c0.1,0,0.2,0,0.2,0c0.2,0.1,0.2,0.4,0.1,0.6c-0.1,0.2-0.3,0.3-0.5,0.4c-4.4,1.7-8.7,1.5-13.3,1.4
					c-4.9,0-10.7,0-14.8,3.1c-5.3,4-10.3,8.5-15.4,12.8c-0.9,0.8-2.2,2-2.6,3.2c-0.1,0.2,1.6-0.5,1.7-0.5c0.6-0.2,1.2-0.1,1.8-0.1
					c1.6-0.1,3.3-0.6,4.8-0.9c3.2-0.6,6.4-1.5,9.3-3.3c4.5-2.8,9.1-5.4,14.5-5.6c4.2-0.1,8-2,11.9-2.8c4.4-0.9,6.4-4.7,9.9-6.5
					c1-0.5,1.1-2,0.3-3.4c-2.4-4-2.1-6.1,1.2-9.3c2.1-2.1,4.5-4,6.3-6.3c2.2-2.8,3.1-6.2,2.3-9.7c-0.4-1.7-0.8-2.6-2.7-2
					c-1.2,0.4-2.3,1.1-3.5,1.7c-4.8,2.3-9.7,2.9-14.9,1.4c-1.4-0.4-2.8-0.5-4.2-0.9c-2.7-0.8-5.1-0.4-7.1,1.6
					c-4.7,4.9-9.4,9.8-14,14.8c-2.8,3-5.1,6.5-8,9.4c-3.5,3.5-7.5,6.5-11.2,9.7c-1.4,1.2-2.6,2.6-3.5,4.2c-0.4,0.7-2.2,4.2-1.3,4.9
					c0.1,0.1,0.3,0,0.4-0.1c1.1-1,2.2-1.9,3.3-2.9c6.1-5.8,11.7-12,19-16.4c2.4-1.5,4.9-3.8,6.7-6c3.5-4.3,5.2-10.1,9.4-13.6
					c0.1-0.1,0.3-0.2,0.4-0.2c0.4,0,0.3,0.6,0.1,0.9c-0.8,1.6-1.3,3.2-1.7,4.9c-0.2,0.8-0.1,1.8-0.3,2.6c-0.1,0.4-0.6,1.1,0.1,1.4
					c0.4,0.2,0.9,0,1.3-0.1c0.6-0.2,1.3-0.5,1.9-0.8c2.7-1.1,5.2-2.5,7.6-4c2.5-1.5,5.1-2.7,7.6-3.9c0.2-0.1,0.3-0.2,0.5-0.2
					c0.2,0,0.4,0.1,0.5,0.2c0.1,0.2-0.1,0.5-0.3,0.7c-1.2,1.3-2.4,2.5-3.8,3.6c-5.3,4-10.6,8-15.8,12c-0.2,0.2-0.5,0.4-0.6,0.6
					C940.1,441.3,940.4,441.9,941,442.2C941,442.2,941,442.2,941,442.2z M842,535c1.3,0.1,2.7,0.2,3.9-0.2
					c7.2-2.2,13.8-5.5,18.5-11.5c4.7-6,9-12.4,11.5-19.8c1.2-3.6,1.9-7.4,3.3-11c1.8-4.7,1.9-9.7,2.4-14.6c0.2-1.7-0.6-3.5-1-6
					c-2.4,2.5-3.8,4.4-4.4,7c-0.9,4-2.2,7.9-3.1,11.9c-0.9,4-2,8-2.4,12.1c-0.8,8.1-4.2,14.5-10.8,19.4c-4.6,3.5-9.9,6.7-15.7,7.7
					c-0.3,0-0.6,0.1-0.8,0.2c-0.3,0.2-0.5,0.5-0.7,0.7c-0.8,1.1-1.6,2.2-2.1,3.4c0,0.1-0.1,0.1,0,0.2c0,0.2,0.3,0.3,0.5,0.3
					C841.3,534.9,841.6,535,842,535z M866.3,477.5c0.4-0.7,0.8-1.4,1.1-2.1c-1.3,0.2-2.1,1.6-3.1,2.4c-1.3,1.1-2.6,2.1-3.9,3.2
					c-2.5,2.1-5.1,4.2-7.6,6.2c-6.8,5.3-13.1,11.2-18.7,17.8c-3.1,3.7-5.9,7.6-7.1,12.5c-0.5,2.2-0.4,4.5,0.4,6.7
					c0.7,1.9,1.7,4.1,3.2,5.5c0.2,0.2,0.4,0.4,0.7,0.4c1.1,0.3,1.6-1.2,1.8-1.9c0.2-0.6,0.7-1.3,0.7-1.9c0-0.2-0.1-0.4-0.2-0.6
					c-0.2-0.5-0.2-1-0.3-1.5c-0.1-2-0.3-4.3,0.3-6.2c1.9-6.3,4.8-12.1,10-16.5c4.8-4,9.6-7.9,14.4-11.9c1.1-0.9,2.3-1.8,3-2.9
					C862.8,483.6,864.6,480.6,866.3,477.5z M858.2,537.1c0.2-0.3,0.6-1.4,0.7-1.4c-1.6,0.7-3.2,1.6-5,2.1
					c-5.7,1.6-11.6,3.7-17.5,4.1c-0.2,0-0.4,0-0.5,0.1c-0.2,0.1-0.4,0.3-0.5,0.5c-0.6,0.7-1.1,1.4-1.7,2.2c-0.6,0.8-1.3,1.8-1.3,2.8
					c0,0.1,0,0.2,0.1,0.3c0.1,0.1,0.1,0.1,0.2,0.1c2.6,0.6,5.6-0.4,8.2-0.9c2.8-0.6,5.5-1.5,8.1-2.6c2-0.9,4-2.1,5.7-3.5
					c0.9-0.7,1.8-1.5,2.6-2.4C857.6,538,857.9,537.6,858.2,537.1C858.2,537.2,858.2,537.2,858.2,537.1z M851,520.6
					c-0.3,0.4-0.7,0.7-0.9,1.2c0.5,0.2,1,0,1.4-0.2c3.4-1.8,7-3.7,8.9-7.1c2.1-3.6,3.4-7.7,4.8-11.7c0.4-1.1,0.4-2.2,0.6-3.4
					c0.2-1,0.4-2,0-2.9c0-0.1-0.1-0.2-0.2-0.2c-0.1,0-0.2,0.1-0.3,0.2c-0.8,1.2-1.9,2.2-2.6,3.4c-2.1,3.8-4.2,7.6-6.3,11.4
					c-1,1.9-2.1,3.8-3.1,5.7c-0.5,0.9-1,1.9-1.5,2.8C851.5,520,851.3,520.3,851,520.6z M886.9,411.8c-4.5,8-10,15.6-9,25.5
					C882.6,429.4,886.4,421.2,886.9,411.8z M840,518c5.1-3.7,10.9-13.2,10.3-16.5C845.1,505.6,841,510.4,840,518z"/>
			</g>
		</g>
		<g>
			<path class="st6" d="M757,74c10.7-1.1,19.6,1.1,26.6,9c1.7,1.9,1.9,2,4.1,1c6.8-2.9,13.9-3.3,21.2-2.6c5.3,0.5,10.3,2.1,15.2,4.2
				c2.6,1.1,5,2.9,7.4,4.5c8.1,5.5,14.7,12.4,19.2,21.2c3.2,6.3,5.5,12.9,5.9,20c0.1,1.4-0.3,2.8-0.6,4.1c-0.4,1.5-0.1,2.3,1.6,2.9
				c3.8,1.3,7.1,3.7,9.7,6.2c4.9-1,9.4-2.1,14.1-2.8c14.2-2.1,26.1,2.5,35.5,13.1c3.2,3.7,4.9,8.3,5.7,13.3
				c0.9,5.1,0.3,9.7-3.2,13.4c-2.1,2.2-4.2,4.6-7.3,5.8c-2.2,0.8-4.2,2.1-6.6,2.6c-2.9,0.6-5.6,0-8.3-0.9c-0.5-0.2-0.9-0.7-1.3-0.7
				c-1.8,0-3.5-0.1-5.2-0.9c-1.6-0.8-3.4-1.1-5.1-1.6c-0.6,1.8-1,3.7-1.8,5.4c-1.3,3.2-4.3,4.5-7.3,4.9c-5.8,0.6-11.2-0.5-15.3-5
				c-1.4-1.5-2.8-3.1-4.2-4.7c-0.3,0.2-0.7,0.3-0.7,0.5c-0.9,2.8-3.5,3.8-5.5,5.5c-0.8,0.7-1.9,1.1-2.9,1.6
				c-0.3,0.1-0.6,0.1-0.9,0.3c-6,4.1-13.2,3.3-19.8,4.5c-3.2,0.6-6.7-0.5-10.1-1.1c-8.2-1.5-14.7-6-20.3-12c-0.5-0.6-0.9-1.3-1.4-2
				c-0.4-0.6-0.9-1.2-1.5-2.1c-0.8,0.7-1.4,1.1-2,1.7c-1.2,1.4-2.4,3-3.6,4.4c-2.1,2.3-4.8,3.5-7.7,4.3c-8.3,2.2-16.6,3.5-25.2,3.2
				c-3-0.1-5.9-0.9-8.8-1.4c-2.4-0.4-4.9-1.1-7.3-1.4c-9-1.1-16.5-5.3-23.2-11.2c-2.1-1.8-3.9-3.9-6-5.9c-1.2,4.6-4.7,7-8.5,9.2
				c-2.7,1.6-5.8,2-8.9,2.5c-7.9,1.4-15.9,1.9-23.9,1.5c-7.3-0.4-14.7-0.8-21.6-3.1c-5.7-1.9-10.9-5-15-9.6
				c-1.2-1.4-2.7-2.6-4.1-3.9c-0.4,0.4-0.6,0.6-0.8,0.9c-2.6,5.5-7.5,7.2-13.1,7.3c-3.3,0.1-6.6-0.2-9.9-0.4
				c-6-0.2-11.2-2.5-15.7-6.5c-2.4-2.2-4.7-4.5-7.2-6.9c-0.8,1-1.6,2-2.3,3c-2.1,3.1-5.2,3.6-8.5,2.8c-4.8-1.1-8.7-3.7-12.5-6.8
				c-2.4-2-3.9-4.4-5.1-7.3c-1.3-3.1-2.5-6.1-2.8-9.4c-0.4-4.8,0.6-9.2,3.9-12.8c2.8-3,5.3-6.2,9.3-7.8c2.6-1.1,5.2-1.4,7.9-1
				c2.2,0.3,4.3,0.6,6.5,1c0.2-3.1,0.2-6.1,0.7-9c1.5-7.8,4.9-14.7,11.6-19.4c2.4-1.7,5.2-3.2,8-4c7.8-2,15.7-2.2,23.5-0.1
				c0.2,0,0.4,0,0.6,0c0.1-0.2,0.3-0.3,0.3-0.5c-1.2-8.9,2-16.8,5.7-24.5c1.8-3.8,3.6-7.6,6-11c2.5-3.7,5.5-7,9-9.9
				c7.6-6.3,16.1-10.7,25.5-13.5c6.6-2,13.3-2.9,20.2-2.7c8.5,0.3,16.9,1.4,25.2,3.5c5.7,1.5,10.7,4.4,15.8,7.1
				c7.5,3.9,13.2,9.7,18.8,15.8c3.1,3.4,5.4,7.4,7,11.8C756.3,72.4,756.7,73.3,757,74z"/>
			<path d="M757,74c10.7-1.1,19.6,1.1,26.6,9c1.7,1.9,1.9,2,4.1,1c6.8-2.9,13.9-3.3,21.2-2.6c5.3,0.5,10.3,2.1,15.2,4.2
				c2.6,1.1,5,2.9,7.4,4.5c8.1,5.5,14.7,12.4,19.2,21.2c3.2,6.3,5.5,12.9,5.9,20c0.1,1.4-0.3,2.8-0.6,4.1c-0.4,1.5-0.1,2.3,1.6,2.9
				c3.8,1.3,7.1,3.7,9.7,6.2c4.9-1,9.4-2.1,14.1-2.8c14.2-2.1,26.1,2.5,35.5,13.1c3.2,3.7,4.9,8.3,5.7,13.3
				c0.9,5.1,0.3,9.7-3.2,13.4c-2.1,2.2-4.2,4.6-7.3,5.8c-2.2,0.8-4.2,2.1-6.6,2.6c-2.9,0.6-5.6,0-8.3-0.9c-0.5-0.2-0.9-0.7-1.3-0.7
				c-1.8,0-3.5-0.1-5.2-0.9c-1.6-0.8-3.4-1.1-5.1-1.6c-0.6,1.8-1,3.7-1.8,5.4c-1.3,3.2-4.3,4.5-7.3,4.9c-5.8,0.6-11.2-0.5-15.3-5
				c-1.4-1.5-2.8-3.1-4.2-4.7c-0.3,0.2-0.7,0.3-0.7,0.5c-0.9,2.8-3.5,3.8-5.5,5.5c-0.8,0.7-1.9,1.1-2.9,1.6
				c-0.3,0.1-0.6,0.1-0.9,0.3c-6,4.1-13.2,3.3-19.8,4.5c-3.2,0.6-6.7-0.5-10.1-1.1c-8.2-1.5-14.7-6-20.3-12c-0.5-0.6-0.9-1.3-1.4-2
				c-0.4-0.6-0.9-1.2-1.5-2.1c-0.8,0.7-1.4,1.1-2,1.7c-1.2,1.4-2.4,3-3.6,4.4c-2.1,2.3-4.8,3.5-7.7,4.3c-8.3,2.2-16.6,3.5-25.2,3.2
				c-3-0.1-5.9-0.9-8.8-1.4c-2.4-0.4-4.9-1.1-7.3-1.4c-9-1.1-16.5-5.3-23.2-11.2c-2.1-1.8-3.9-3.9-6-5.9c-1.2,4.6-4.7,7-8.5,9.2
				c-2.7,1.6-5.8,2-8.9,2.5c-7.9,1.4-15.9,1.9-23.9,1.5c-7.3-0.4-14.7-0.8-21.6-3.1c-5.7-1.9-10.9-5-15-9.6
				c-1.2-1.4-2.7-2.6-4.1-3.9c-0.4,0.4-0.6,0.6-0.8,0.9c-2.6,5.5-7.5,7.2-13.1,7.3c-3.3,0.1-6.6-0.2-9.9-0.4
				c-6-0.2-11.2-2.5-15.7-6.5c-2.4-2.2-4.7-4.5-7.2-6.9c-0.8,1-1.6,2-2.3,3c-2.1,3.1-5.2,3.6-8.5,2.8c-4.8-1.1-8.7-3.7-12.5-6.8
				c-2.4-2-3.9-4.4-5.1-7.3c-1.3-3.1-2.5-6.1-2.8-9.4c-0.4-4.8,0.6-9.2,3.9-12.8c2.8-3,5.3-6.2,9.3-7.8c2.6-1.1,5.2-1.4,7.9-1
				c2.2,0.3,4.3,0.6,6.5,1c0.2-3.1,0.2-6.1,0.7-9c1.5-7.8,4.9-14.7,11.6-19.4c2.4-1.7,5.2-3.2,8-4c7.8-2,15.7-2.2,23.5-0.1
				c0.2,0,0.4,0,0.6,0c0.1-0.2,0.3-0.3,0.3-0.5c-1.2-8.9,2-16.8,5.7-24.5c1.8-3.8,3.6-7.6,6-11c2.5-3.7,5.5-7,9-9.9
				c7.6-6.3,16.1-10.7,25.5-13.5c6.6-2,13.3-2.9,20.2-2.7c8.5,0.3,16.9,1.4,25.2,3.5c5.7,1.5,10.7,4.4,15.8,7.1
				c7.5,3.9,13.2,9.7,18.8,15.8c3.1,3.4,5.4,7.4,7,11.8C756.3,72.4,756.7,73.3,757,74z M772.6,85.8c-4.5-0.7-9,0.2-12.8,2.5
				c-0.3,0.2-0.7,0.3-1.1,0.4c-3.6,0.3-7.2-0.1-10.5-1.7c-1.7-0.8-2.7-2.2-2.8-4.3c-0.1-2.9-0.3-5.8-0.7-8.7c-0.5-3.4-1-6.9-3.3-9.5
				c-6-6.9-13.7-11.6-22.3-14.2c-10.9-3.3-22.2-4.2-33.5-1.5c-2.1,0.5-4.3,1-6.4,1.7c-4.2,1.3-8.3,2.7-12.4,4.3
				c-1.7,0.7-3.2,2-4.8,2.9c-3.8,2.2-7.2,4.9-9.9,8.2c-1.8,2.3-4.1,4.1-6,6.2c-1,1.1-2,2.3-2.9,3.5c-3.6,4.7-5.7,10.3-8.6,15.5
				c-0.3,0.6-0.3,1.4-0.5,2c-0.3,1.1-0.5,2.3-1,3.3c-1.2,2.5-1,4.3,0.8,6.5c0.9,1.1,1.5,2.3,2,3.6c0.2,0.6-0.2,1.5-0.5,2.2
				c-1.1,2-3,0.9-4.5,1.1c-2.9,0.4-5.1-0.7-6.7-3.1c-0.8-1.1-1.8-1.9-3.3-1.4c-0.7,0.2-1.4,0-2.1,0.1c-3.4,0.4-7-0.2-10.3,1.5
				c-2.9,1.5-5.8,3.1-8.7,4.6c-1.4,0.7-2.4,1.6-3.2,3c-2.5,4.4-4.7,9-7.6,13.1c-0.9,1.3-0.9,2.8,0.1,4.2c0.5,0.7,1.2,1.4,1.5,2.2
				c0.2,0.9,0.3,2-0.1,2.8c-0.4,0.9-1.3,0.6-2.1,0.2c-0.9-0.4-1.9-0.6-2.7-1.1c-3.2-1.8-6.5-1.4-9.1,0.5c-2.9,2.2-6.3,4.3-8,7.8
				c-1.1,2.2-2,4.6-2.9,6.9c-0.1,0.4-0.1,0.8-0.1,1.2c0.2,1.2,0.5,2.5,0.5,3.7c0,3.1,0.4,3.5,3.4,3.1c0.4,0,0.8-0.2,1.2-0.3
				c3.8-0.8,7.6-1.7,11.6-2.6c0.4,0.8,0.8,1.7,1.2,2.5c0.4,0.7,0.7,1.4,1.2,2c1.1,1.3,2.4,2.5,3.5,3.8c1,1.3,2.4,1.9,3.9,1.9
				c3.4,0,6.9,0.2,10.2-0.2c2.6-0.4,5.2-1.5,7.6-2.6c3.8-1.8,7.5-3.8,11.2-5.9c1.5-0.8,2.3-0.6,3.2,0.8c1,1.7,2.1,3.3,3.8,4.5
				c2.9,1.9,5.6,4.2,8.5,6.2c1.5,1,3.3,2.2,5.1,2.5c4.2,0.7,8.5,1.1,12.8,1.3c5.9,0.2,11.9,0.3,17.8,0c4.7-0.2,9.4-0.8,14-1.8
				c5.4-1.2,10.6-3,15.8-4.7c0.8-0.3,1.5-1.2,2.2-1.7c1.4-0.3,2.8-0.5,4.4-0.8c0.3,0.5,0.6,1.2,1.1,1.8c0.7,0.9,1.3,1.8,2.2,2.4
				c2.4,1.8,4.9,3.3,7.2,5.3c2.2,1.9,4.8,2.8,7.6,3.2c0.5,0.1,1-0.1,1.5,0.1c6.2,2.2,12.6,3.1,19.2,3c4.9-0.1,9.8-0.7,14.6-1.4
				c3.3-0.5,6.6-1.5,9.9-2.4c4.6-1.3,8.5-4,12.6-6.4c1.8-1.1,3.7-1.9,4-3.9c1.3-0.1,2.4,0,3.3-0.3c1.1-0.4,2.1-1,3-1.5
				c0.3,0.2,0.4,0.2,0.4,0.3c0.1,0.2,0.2,0.4,0.2,0.6c-1,4.6,0.4,8.3,4,11.3c0.4,0.3,0.7,0.8,0.9,1.2c2.2,4,5.5,6.2,10,6.8
				c0.6,0.1,1.2,0.2,1.8,0.3c5.4,1.2,10.8,0.7,16.2-0.2c4.4-0.7,8.7-2.1,13-3.6c3.1-1.1,5.8-3.2,8.8-4.4c1.7-0.7,2.7-1.5,2.5-3.6
				c1.1,0.5,1.9,0.9,2.6,1.3c0.8-0.4,1.5-0.8,2.2-1.1c1.5,3,3,5.9,4.3,8.9c0.8,1.9,2.1,2.6,3.9,2.6c4.1,0.1,7.9-0.8,10.8-4
				c1.3-1.5,2.8-2.7,4.3-4.1c1.3,1.3,2.1,2.7,3.4,3.2c1.4,0.5,3.2,0.1,4.8,0.2c0.6,0,1.2,0,1.8,0c2.5,0.1,4.7-0.6,6.9-1.8
				c4.7-2.7,7.8-6.7,9.4-11.7c2.2-6.8,0.3-9.5-6.4-10.6c-5.4-0.9-11-0.2-16.5,0.2c-2.5,0.2-5,0.5-7.4,0.9c-0.9,0.1-2,0.3-2.4,0.9
				c-1.6,1.9-3.6,1.7-5.5,1.2c-2-0.5-3.9-1.5-5.9-2c-3.7-1-5.6-3.7-6.7-7.1c-1-3.2-0.9-3.3-4.3-3.2c-0.8,0-1.6,0.2-2.3,0.4
				c-3,0.8-6,1-9.1,0.2c-2.8-0.7-5.6-1.1-8.6-1.7c0-0.7,0.3-1.6,0.1-2.4c-0.4-1.4,0.2-2.3,1.2-3.1c0.7-0.6,1.4-1.2,2-1.8
				c0.9-0.9,1.9-1.8,2.4-2.9c2.9-5.4,4-11.3,3.2-17.4c-0.5-4-1.6-8-4.3-11.1c-4.2-4.7-8.9-9-15.5-10c-3.9-0.6-7.9-1.5-11.9-1.4
				c-3.3,0.1-6.6,1.4-9.9,2.4c-1.9,0.6-3.8,1.3-5.5,2.2c-1.8,0.9-3.8,1.5-5.1,3.4c-0.7,1.1-2,1.8-3.4,1.4c-3.8-1.1-7.7-2.1-11.5-3.3
				c-2.3-0.7-2.5-1.5-1.4-3.5c0.2-0.4,0.6-0.8,1-1.4c-1.6-0.6-1.4-1.7-1.1-2.8c0.3-1.1,0.7-2.1,0.9-3.2
				C773,88.7,773.5,87.2,772.6,85.8z"/>
			<path d="M769.4,210.8c2.4,1.3,3.1,3.5,4,5.4c2.3,4.5,1.8,8.8-0.3,13.4c-2.3,4.7-5.4,8.6-9,12.3c-1.2,1.2-2.2,2.6-3.4,3.8
				c-3.6,3.5-6.1,2.8-10.2,0.1c-2.5-1.6-4.6-3.8-7-5.6c-0.5-0.4-1.3-0.7-2.3-1.2C752.3,230.3,761.5,221.3,769.4,210.8z"/>
			<path d="M798.1,242.2c9.4-6.6,16.9-15,24.3-23.5c2.6,0.7,2.8,3.3,4.1,4.9c0.3,0.4,0.2,1,0.5,1.4c2.3,2.5,1.7,5.4,1.4,8.2
				c-0.4,2.8-1.6,5.2-3.6,7.3c-2.5,2.5-4.6,5.5-7,8.1c-1.9,2.1-3.6,4.6-7.1,4.3c-1.5-0.1-2.8-0.5-3.8-1.4c-2.9-2.6-5.6-5.4-8.4-8.1
				C798.3,243.1,798.3,242.7,798.1,242.2z"/>
			<path d="M575,269.7c1-0.8,1.8-1.4,2.5-2c0.1-0.1,0.2-0.5,0.3-0.4c3,0.4,4.8-2.2,7.1-3.3c2.3-1.1,4.3-2.8,6.5-4.2
				c4.2-2.6,8.3-5.1,12.5-7.6c2-1.2,3.4-0.9,4.6,0.9c1.4,2.2,3.3,4.3,2.8,7.3c-0.4,1.8-0.9,3.5-2,5.2c-3.4,5.3-8.7,8.3-13.5,12.1
				c-3.1,2.5-6.5,2.4-9.5,0.6c-3.8-2.2-7.1-5.1-10.6-7.7C575.3,270.3,575.1,269.9,575,269.7z"/>
			<path d="M703.4,275.7c8.5-5.2,15.5-11.8,22.7-18c3.2,1.4,5.7,5.5,5.7,8.7c0,1.2,0.2,2.3,0.2,3.5c0,4.6-2.9,7.5-5.8,10.5
				c-0.7,0.8-1.8,1.3-2.5,2.1c-3.5,4.2-8.7,2.4-11.8,0c-2.6-1.9-5.1-3.9-7.6-5.9C704,276.5,703.8,276.1,703.4,275.7z"/>
			<path d="M620.8,224.6c8.6-7.4,16.1-15.1,24.6-21.7c1.6,0.8,2.2,1.7,1.8,3.5c-0.3,1.3,0.1,2.7,0.3,4.1c0.5,3.3-0.7,6.4-1.2,9.6
				c-0.7,3.9-3.4,6.7-5.1,9.9c-1.9,3.4-5.4,4.1-9.1,2C628.2,229.9,624.7,227.2,620.8,224.6z"/>
			<path d="M685.3,233.3c7.7-6.6,15.1-12.9,22.7-19.5c2.7,2.4,4.5,5.2,5,8.8c0.7,5.8-2.2,9.9-6.6,13.2c-1.2,0.9-2.1,2.1-3.3,3.1
				c-2.9,2.4-5,2.7-8.2,0.9c-2.8-1.6-5.6-3.5-8.3-5.3C686.2,234.2,685.8,233.7,685.3,233.3z"/>
			<path d="M762.5,282.6c8.6-4,14.5-10.9,21.8-16c1.3,0.3,2.3,1,2.8,2.4c0.5,1.4,1.4,2.6,2,4c0.8,1.8-0.1,3.6-0.4,5.3
				c-0.6,4.8-3.2,8.7-6.4,12.3c-2.2,2.4-5.5,2.8-8.1,1c-2.6-1.7-5-3.7-7.4-5.6C765.4,285,764.1,284,762.5,282.6z"/>
			<path d="M653.3,255.6c0.7,0.8,1.4,1.4,1.8,2.1c1.6,3.9,2.7,7.9,2.6,12.2c0,1.7-0.3,3.3-1.8,4.5c-2.4,1.9-4.6,4.1-7,6.1
				c-1.4,1.2-3.1,1.2-4.8,0.5c-3.2-1.3-5.6-3.7-8.4-5.5c-1-0.6-1.8-1.5-3.2-2.5C641,268.9,646.2,261.3,653.3,255.6z"/>
			<path d="M695.4,116.8c3.1,2.7,5.9,4.9,7.8,8c1.2,2.1,1.1,4.1-0.8,5.6c-4.8,4.1-10.3,7.2-16.4,9.1c-0.7,0.2-1.4,0.3-2.1,0.3
				c-3.5,0.2-7,0.7-10.5,0.6c-4.2-0.2-8.3-0.8-12.4-1.6c-1.5-0.3-2.8-1.5-4.1-2.4c-0.8-0.5-1.5-1.3-2.3-1.9c-1-0.7-1.1-1.5-0.8-2.8
				c6.4,1.6,12.6,0,18.6-1.6c3.3-0.9,6.4-2.6,9.4-4.4C686.3,123,690.7,119.9,695.4,116.8z"/>
			<path d="M770.4,151c-1.7-0.3-3.7-0.5-5.6-1.1c-4.2-1.4-8.4-2.5-12.1-5.1c-4.1-2.9-8.4-5.7-12.4-8.7c-2.7-2.1-4.2-5-4.7-8.4
				c-0.1-0.8-0.2-1.6-0.1-2.4c0.3-2.3,2.4-3.5,4.5-2.3c1.6,0.9,3.5,1.9,4.6,3.3c3.7,4.3,8.7,6.2,13.8,8c4.9,1.8,9.8,3.6,14.6,5.4
				c0.7,0.3,1.3,0.9,1.7,1.5c1.3,1.9,1.4,4.1,1.5,6.3c0.1,1.5-0.8,2.7-2.4,3C773,150.8,771.9,150.8,770.4,151z"/>
			<path d="M742.9,162.4c-3.3,1.4-6,1.4-8.9,0.7c-3.1-0.8-6.3-1-9.4-1.5c-1.1-0.2-2.2-0.3-3.2-0.8c-4.2-1.9-8.6-2.4-13.1-1.7
				c-1.4,0.2-3,0.6-4.3-0.5c-0.3-0.2-0.9-0.1-1.3-0.1c-1.3,0.1-2.7,0.4-3.9,0.1c-1-0.3-2-1.2-2.7-2.1c-0.7-1-0.2-2.2,0.6-3
				c1.5-1.4,3.1-2.8,4.7-4.2c0.2-0.2,0.5-0.5,0.7-0.5c2.9,0.7,5.1-1.8,8-1.7c2.7,0,5.3-0.9,8-1c3.2-0.1,5.9,1.5,8.7,2.9
				c1.8,0.9,3.8,1.5,5.7,2.4c1.1,0.5,2,1.2,3,1.8c2.6,1.6,4.6,3.8,6.3,6.3C742.4,160.3,742.5,161.4,742.9,162.4z"/>
		</g>
	</g>
</g>
</svg>
