<?xml version="1.0" encoding="utf-8"?>
<!-- Generator: Adobe Illustrator 24.0.1, SVG Export Plug-In . SVG Version: 6.00 Build 0)  -->
<svg version="1.1" xmlns="http://www.w3.org/2000/svg" xmlns:xlink="http://www.w3.org/1999/xlink" x="0px" y="0px"
	 viewBox="0 0 1442 966" style="enable-background:new 0 0 1442 966;" xml:space="preserve">
<style type="text/css">
	.st0{fill:#7790A0;}
	.st1{fill:#829BAD;}
	.st2{fill:#D7DDDD;}
	.st3{fill:#171B2B;}
	.st4{fill:#294666;}
	.st5{fill:#396F91;}
	.st6{fill:#497F9B;}
	.st7{fill:none;}
	.st8{fill:#9376B2;}
	.st9{fill:#2A2D3F;}
	.st10{fill:#FFFFFF;}
</style>
<g id="BG">
	<rect class="st0" width="1442" height="966"/>
	<rect x="0" y="570.2" class="st1" width="1442" height="395.8"/>
</g>
<g id="Bowl">
	<g>
		<g>
			<g>
				<path class="st2" d="M1345.5,771.1c-1.6-7.3-3.5-12.7-12.2-12.2c-20.3,1.1-40.3,5.2-60.2,9.3c-47.8,9.8-89.8,19.5-137.6,29.3
					c-12.6,2.6-50.6,10.5-63.4,11.6c6.3-4.4,34-9.5,41.4-11.5c21.4-5.7,43.7-12,62.7-16.4c15-3.5,69.8-18.7,80.2-22.1
					c24.2-7.9,39.1-10.1,63.3-18.2c6.8-2.3,11.3-5.7,11.7-13.4c0.2-5.1-1-10.5-3.9-14.8c-2.4-3.5-4.8-7.9-9.4-8.6
					c-3.4-0.5-6.8,0.5-10.1,1.5c-29.6,9-58.7,18.4-88.3,27.2c-27,8-53.9,16.7-81.2,23.7c-14.9,3.8-113.8,35.6-125.6,38.7
					c-10.6,2.7-50.2,15.3-65.4,20.5c-30.4,10.3-85.3,23-115.8,33.1c-4.4,1.5-9,3.1-11.8,6.8c-2.2,2.9-2.5,7.5-0.1,10.4
					c2.4,2.9,6,1.2,5.2,5c-0.7,3.6-3.1,6.8-1,10.4c1.3,2.2,4.1,2.9,6.7,3.2c9.6,1.2,19.8-0.4,29.3-1.5c11-1.2,21.9-3.5,32.6-6.2
					c13.3-3.3,26.5-5.9,40.1-8.6c31.2-6.2,175.6-36.8,213-43.6c30.3-5.5,61-9.5,91.5-14.5c26.6-4.4,70.1-13.1,84.3-14.5
					c5.5-0.6,18.8-2.5,22.7-6.4C1348.7,784.7,1346.7,776.6,1345.5,771.1z"/>
			</g>
		</g>
		<g>
			<g>
				<path class="st3" d="M1345.5,771.1c-1.6-7.3-3.5-12.7-12.2-12.2c-20.3,1.1-40.3,5.2-60.2,9.3c-47.8,9.8-89.8,19.5-137.6,29.3
					c-12.6,2.6-50.6,10.5-63.4,11.6c6.3-4.4,34-9.5,41.4-11.5c21.4-5.7,43.7-12,62.7-16.4c15-3.5,69.8-18.7,80.2-22.1
					c24.2-7.9,39.1-10.1,63.3-18.2c6.8-2.3,11.3-5.7,11.7-13.4c0.2-5.1-1-10.5-3.9-14.8c-2.4-3.5-4.8-7.9-9.4-8.6
					c-3.4-0.5-6.8,0.5-10.1,1.5c-29.6,9-58.7,18.4-88.3,27.2c-27,8-53.9,16.7-81.2,23.7c-14.9,3.8-113.8,35.6-125.6,38.7
					c-10.6,2.7-50.2,15.3-65.4,20.5c-30.4,10.3-85.3,23-115.8,33.1c-4.4,1.5-9,3.1-11.8,6.8c-2.2,2.9-2.5,7.5-0.1,10.4
					c2.4,2.9,6,1.2,5.2,5c-0.7,3.6-3.1,6.8-1,10.4c1.3,2.2,4.1,2.9,6.7,3.2c9.6,1.2,19.8-0.4,29.3-1.5c11-1.2,21.9-3.5,32.6-6.2
					c13.3-3.3,26.5-5.9,40.1-8.6c31.2-6.2,175.6-36.8,213-43.6c30.3-5.5,61-9.5,91.5-14.5c26.6-4.4,70.1-13.1,84.3-14.5
					c5.5-0.6,18.8-2.5,22.7-6.4C1348.7,784.7,1346.7,776.6,1345.5,771.1z M830.6,861.9c-1.6-0.6-2-1.6,1-3.4
					c20.7-12.8,45.8-15.5,69.4-21.5c9.7-2.5,98.3-27.6,116.9-34.3c41.9-15,62.3-19.5,93.9-27.6c12.2-3.1,163.3-49,174.4-52.3
					c6.7-2,15.4-5.5,22.5-5c0.5,0,1,0.1,1.4,0.4c0.4,0.3,0.6,0.8,0.7,1.2c0.6,1.4,1.1,2.9,1.7,4.3c0.5,1.3,1,2.6,0.8,4
					c-0.9,5-12.2,6.3-16.4,7.7c-7.1,2.3-14.2,4.6-21.3,6.9c-10.8,3.5-21.5,7.4-32.4,10.5c-4,1.1-8.1,2.1-12,3.3
					c-6.1,1.9-12,4.3-18.1,6.1c-5.4,1.6-11,2.7-16.5,4.2c-6,1.6-11.9,3.4-17.8,5.1c-7.2,2.1-14.5,4.1-21.7,6.2
					c-4.7,1.4-9.4,2.8-14.2,4.1c-8,2.2-16.1,4.3-24.1,6.5c-14.5,4-28.9,8.7-43.5,12.2c-13.6,3.3-59.5,15.8-69,18.4
					c-8,2.2-86.5,23.5-107.9,28.8c-10.6,2.6-21.2,5.2-31.7,7.8c-9.2,2.3-18.9,5.9-28.3,6.7C836.6,862.6,832.6,862.6,830.6,861.9z
					 M1322.8,782c-30.9,6-140.2,23.9-163.8,29c-10.8,2.3-143.9,29.3-156.4,32.5c-11.3,2.9-82.3,15.9-106,22.1
					c-11.9,3.1-23.7,6.1-35.8,8.4c-5.8,1.1-11.8,2.4-17.7,3c-3.8,0.4-8.9-2.5-2.9-4.6c9.6-3.3,19.4-5.4,29.2-8.2
					c7.9-2.3,15.8-5.1,23.8-6.7c8.5-1.7,39.6-8,46.4-10.3c7.9-2.6,16-4.6,24-6.5c14.9-3.5,29.8-6.9,44.7-10.3
					c48.4-11,96.9-20.6,145.7-29.5c23.6-4.3,78.9-15.1,100-18c12.3-1.7,24.5-3.6,36.8-5.6c11.8-2,23.6-5.4,35.4-5.4
					c0.4,0,0.8,0,1.1,0.1c0.4,0.1,0.8,0.3,1,0.6C1331.6,777.5,1327.4,781.2,1322.8,782z"/>
			</g>
		</g>
	</g>
	<path class="st4" d="M988.1,468.8c1.7-7.2,1.5-14.4-2-20.8c-2.4-4.4-4.2-9-5.9-13.6c-4.7-12.5-9.4-25-16.4-36.5
		c-6.7-11.2-14.3-21.6-22.8-31.5c-2.5-2.9-4.7-5.9-7.5-8.5c-6-5.7-12.2-11.1-18.3-16.7c-6.5-6-13.7-11-21.7-14.8
		c-3.9-1.9-7.8-3.7-11.6-5.8c-8.4-4.7-17-8.8-25.9-12.3c-12.4-4.9-24.8-10.1-38-12.7c-12.9-2.6-25.7-4.9-38.9-5
		c-6.2-0.1-12.5,0.1-18.7-0.4c-19.8-1.6-39.7-3.1-59.6-3c-6.9,0-13.8,0.3-20.7,1.2c-17.7,2.3-35.2,5.7-52.5,10.2
		c-10.6,2.8-21,6.1-31.3,9.8c-17.7,6.3-35.1,13.4-51,23.5c-10.2,6.4-20.2,13.1-29.1,21.3c-9.7,8.9-18.1,19-25.3,30
		c-3.3,5.1-7.1,9.9-10.2,15.1c-4.5,7.6-8.2,15.5-11.3,23.8c-3.3,9-6.7,18-8.2,27.5c-0.6,4.3-1.6,8.6-1.5,12.8
		c0.1,5.2,1,10.4,1.8,15.6c1.6,10.4,3.2,20.8,5,31.2c1.1,6.3,2.6,12.4,3.8,18.7c1.2,6,1.9,12,3.3,17.9c3.1,12.9,6.4,25.7,9.8,38.5
		c3.1,11.7,5.2,23.7,9.9,34.9c4.1,9.8,8.1,19.8,13.4,29c9.6,16.8,20.7,32.7,33.1,47.5c11.9,14.2,26,26,40.7,37.1
		c19.5,14.8,40.4,27.1,64.2,33.8c4.4,1.3,8.8,2.5,13.3,3.5c5.2,1.2,10.5,2.2,15.5,3.2c0.2,0.7,0.3,1,0.3,1.2
		c-0.9,11.9,0.2,23.8,0.9,35.7c0.2,4.1,1,8,5.8,9.7c2.8,1,5.3,2.9,8,4.2c1.4,0.7,3.3,1.5,4.4,1c1.5-0.6,2.5-0.3,3.8,0
		c7.8,1.8,15.5,3.9,23.4,5.1c8.8,1.4,17.7,2.5,26.6,2.9c7.8,0.4,15.7,0,23.5-0.8c6.7-0.6,13.3-2.1,19.9-3.3c1.1-0.2,2.1-0.5,3.1-0.9
		c3.7-1.5,7.3-3.1,11-4.6c2.3-0.9,3.4-2.7,3.3-5.2c-0.1-2.6-0.2-5.1-0.1-7.7c0.1-2.9,0.4-5.9,0.6-8.8c0.2-3.1,0.1-6.2,0.6-9.2
		c0.8-4.2,1-8.2,0.5-12.4c-0.3-2.4-0.3-4.8-0.5-7.2c2.7-0.6,5.2-0.9,7.4-1.7c8.5-3.2,17-6.2,25.3-9.9c9.8-4.3,19.3-9.2,28.9-13.9
		c11.3-5.5,21.1-13,29.7-22.1c4.6-4.9,9-10.1,13.4-15.1c0.5-0.6,1.1-1.2,1.5-1.9c3.7-6.3,7.4-12.5,11.1-18.8
		c3.3-5.6,6.5-11.2,9.7-16.8c0.9-1.6,1.6-3.4,2.3-5.2c3.4-9.4,7-18.7,10.2-28.2c3.1-9,8.1-17.3,10.7-26.5c0.5-1.8,1.5-3.5,1.8-5.4
		c1.1-7,3.1-13.9,3.4-21.1c0.2-4.1,1.6-8.2,2.9-12.1c2-6,4.8-11.7,6.6-17.8c2.4-7.9,4.2-15.9,6.4-23.8c3.2-11.6,4.3-23.6,6.7-35.4
		c1.2-6,1.6-12,1.7-18.1c0.1-2.7,0.6-5.3-0.4-8C987.7,470.4,987.9,469.5,988.1,468.8z"/>
	<path class="st3" d="M955.6,470.5c-1.1,9.5-5,18.6-9.4,27c-1.6,3.1-3.3,6.1-5.2,9.1c-2.7,7.1-7.5,13.8-13.6,20.1
		c-2.8,2.7-5.8,5.3-8.8,7.8c-1.2,1.1-2.4,2.2-3.6,3.3c-8.6,7.6-18.1,13.8-28,19.6c-0.8,0.5-1.6,1-2.4,1.6c-11,7.2-23,12.6-34.5,18.8
		c-1.4,0.7-3,1.4-4,2.5c-2.9,3.4-6.8,4.6-10.9,5.8c-28.4,8.3-55.8,11.5-85.4,13.9c-19.5,1.6-39.2,2.8-58.9,2.6
		c-1.9,0.1-3.8,0.1-5.7,0.2c-1.4,0-2.9,0.1-4.3,0.1c1,2.3,3.9,3.2,6.4,3.7c33.6,6.8,65.3,5.3,98.8,1.8c28.6-3,58.1-4.7,84.3-17.5
		c11.9-5.8,24.5-9.1,36.2-15.8c12.7-7.3,24.4-16.3,36-25.2c5.5,4.6-1,18.3-2.4,23.9c-2.9,11.2-5.1,22.7-9.5,33.5
		c-2.1,5.2-4.5,10.4-6.6,15.7c-2,4.9-3.8,9.8-5.6,14.8c-2.5,6.8-4.9,13.7-7.4,20.6c-1.9,5.2-4.6,10-7.3,14.8
		c-4.2,7.3-7.6,14.9-11.4,22.4c-0.5,1-1.1,2.3-2,2.9c-7,4.3-12.3,10.5-17.6,16.6c-9.8,11.4-21.4,20.1-35.4,25.7
		c-6,2.4-11.6,5.9-17.5,8.5c-10,4.4-20.1,8.9-30.9,11c-6.1,1.2-12.3,1.8-18.5,2.2c-12.5,0.8-25.1,1.3-37.7,1.9
		c-4.7,0.2-9.4,0.6-14.2,0.7c-9.2,0.2-18.3-0.9-27.4-2.3c-9.9-1.5-19.6-3.6-29.2-6.3c-16.5-4.8-32.3-11.1-46.5-21.3
		c-12.7-9.1-24.7-18.9-35.7-29.9c-7.6-7.5-14.3-15.8-20.5-24.5c-6.3-8.9-12.5-17.9-18.4-27.1c-7.5-11.6-12.9-24.3-18.1-37.1
		c-3.7-8.9-6-18.1-8.3-27.4c-1.4-5.9-2.6-11.8-4-17.6c-1-3.9-2.2-7.7-3.3-11.5c0.2-0.1,0.5-0.2,0.7-0.4c0.5,0.5,1.1,0.9,1.6,1.5
		c12,13.6,27.6,22,44.9,27.3c8.4,2.6,17.1,4.3,25.9,5c8.9,0,17.7,0.7,26.7,1.5c2.7,0.3,6.5-0.2,6.8-2.9c-0.9-0.3-1.9-0.6-2.8-0.9
		c-13.9-3.1-28.2-6.2-40.5-11.9c-4-1.8-8-3.7-11.9-5.5c-7.1-4-13.9-8.5-20.3-13.5c-21.3-16.7-35.6-38.5-39-64.1
		c-5.7-14.7-8.8-30-7.3-44c0.1-1.2-0.7-2.4-0.8-3.7c-0.1-1.2-0.2-2.8,0.5-3.7c1.9-2.6,2.4-5.7,3.6-8.5c1.8-4.3,3.5-8.7,5.7-12.9
		c1.8-3.4,4.2-6.5,6.3-9.8c1.8-2.9,3.4-5.8,5.2-8.7c1.7-2.9,3.5-5.7,5.3-8.6c7.5-12,16.5-22.7,27.4-31.8c7.3-6,15.2-11.2,23.3-16.1
		c4.7-2.8,9-6.3,13.9-8.8c7.1-3.6,14.3-6.9,21.8-9.5c12.4-4.3,24.9-8.2,37.5-11.7c7.7-2.1,15.6-3.2,23.4-4.8
		c8.6-1.8,17.1-3.8,25.7-5.5c2.5-0.5,5.1-0.7,7.6-0.8c15.3-1.1,30.5-1.2,45.7,0.8c9.6,1.3,19.3,2.3,28.9,3.4
		c1.2,0.1,2.4,0.2,3.6,0.1c9-0.5,18,0.4,27,1.2c9.5,0.9,19,2.5,28.2,5.4c9.4,3,18.6,6.5,27.8,10c5.5,2.1,11,4.5,16.4,7
		c9.1,4.1,17.6,9.4,25.8,15.2c5.6,3.9,10,9,13.7,14.8c4.2,6.6,8.7,13,12.8,19.6c3.9,6.3,7.5,12.8,11,19.3
		c3.9,7.3,7.6,14.8,11.2,22.3c1,2.2,1.4,4.6,2,7c1.3,4.4,2.6,8.8,4,13.2C958.4,453.1,956.4,463.2,955.6,470.5z M988.1,468.8
		c1.7-7.2,1.5-14.4-2-20.8c-2.4-4.4-4.2-9-5.9-13.6c-4.7-12.5-9.4-25-16.4-36.5c-6.7-11.2-14.3-21.6-22.8-31.5
		c-2.5-2.9-4.7-5.9-7.5-8.5c-6-5.7-12.2-11.1-18.3-16.7c-6.5-6-13.7-11-21.7-14.8c-3.9-1.9-7.8-3.7-11.6-5.8
		c-8.4-4.7-17-8.8-25.9-12.3c-12.4-4.9-24.8-10.1-38-12.7c-12.9-2.6-25.7-4.9-38.9-5c-6.2-0.1-12.5,0.1-18.7-0.4
		c-19.8-1.6-39.7-3.1-59.6-3c-6.9,0-13.8,0.3-20.7,1.2c-17.7,2.3-35.2,5.7-52.5,10.2c-10.6,2.8-21,6.1-31.3,9.8
		c-17.7,6.3-35.1,13.4-51,23.5c-10.2,6.4-20.2,13.1-29.1,21.3c-9.7,8.9-18.1,19-25.3,30c-3.3,5.1-7.1,9.9-10.2,15.1
		c-4.5,7.6-8.2,15.5-11.3,23.8c-3.3,9-6.7,18-8.2,27.5c-0.6,4.3-1.6,8.6-1.5,12.8c0.1,5.2,1,10.4,1.8,15.6c1.6,10.4,3.2,20.8,5,31.2
		c1.1,6.3,2.6,12.4,3.8,18.7c1.2,6,1.9,12,3.3,17.9c3.1,12.9,6.4,25.7,9.8,38.5c3.1,11.7,5.2,23.7,9.9,34.9
		c4.1,9.8,8.1,19.8,13.4,29c9.6,16.8,20.7,32.7,33.1,47.5c11.9,14.2,26,26,40.7,37.1c19.5,14.8,40.4,27.1,64.2,33.8
		c4.4,1.3,8.8,2.5,13.3,3.5c5.2,1.2,10.5,2.2,15.5,3.2c0.2,0.7,0.3,1,0.3,1.2c-0.9,11.9,0.2,23.8,0.9,35.7c0.2,4.1,1,8,5.8,9.7
		c2.8,1,5.3,2.9,8,4.2c1.4,0.7,3.3,1.5,4.4,1c1.5-0.6,2.5-0.3,3.8,0c7.8,1.8,15.5,3.9,23.4,5.1c8.8,1.4,17.7,2.5,26.6,2.9
		c7.8,0.4,15.7,0,23.5-0.8c6.7-0.6,13.3-2.1,19.9-3.3c1.1-0.2,2.1-0.5,3.1-0.9c3.7-1.5,7.3-3.1,11-4.6c2.3-0.9,3.4-2.7,3.3-5.2
		c-0.1-2.6-0.2-5.1-0.1-7.7c0.1-2.9,0.4-5.9,0.6-8.8c0.2-3.1,0.1-6.2,0.6-9.2c0.8-4.2,1-8.2,0.5-12.4c-0.3-2.4-0.3-4.8-0.5-7.2
		c2.7-0.6,5.2-0.9,7.4-1.7c8.5-3.2,17-6.2,25.3-9.9c9.8-4.3,19.3-9.2,28.9-13.9c11.3-5.5,21.1-13,29.7-22.1
		c4.6-4.9,9-10.1,13.4-15.1c0.5-0.6,1.1-1.2,1.5-1.9c3.7-6.3,7.4-12.5,11.1-18.8c3.3-5.6,6.5-11.2,9.7-16.8c0.9-1.6,1.6-3.4,2.3-5.2
		c3.4-9.4,7-18.7,10.2-28.2c3.1-9,8.1-17.3,10.7-26.5c0.5-1.8,1.5-3.5,1.8-5.4c1.1-7,3.1-13.9,3.4-21.1c0.2-4.1,1.6-8.2,2.9-12.1
		c2-6,4.8-11.7,6.6-17.8c2.4-7.9,4.2-15.9,6.4-23.8c3.2-11.6,4.3-23.6,6.7-35.4c1.2-6,1.6-12,1.7-18.1c0.1-2.7,0.6-5.3-0.4-8
		C987.7,470.4,987.9,469.5,988.1,468.8z M762.7,813.3c-7.1,1-14.2,1.9-21.3,2.2c-8.8,0.4-17.6,0.5-26.3,0.3
		c-3.4-0.1-6.8-1.4-10.3-2.1c-1.6-0.3-2.2-1.1-2.4-2.7c-0.6-4.2-1.4-8.4-1.2-12.8c0.3-5.4-0.2-10.8-0.2-16.1c0-1.6,0.2-3.1,0.4-5
		c25.9,2.2,51.3-0.8,77-1.2c0.3,11.3,0.5,22.5,0.8,34.3C773.8,811.2,768.3,812.5,762.7,813.3z"/>
	<path class="st3" d="M536.8,667.2c7.7,13.8,16.8,24.7,34.2,23.2c2.1-0.2,4.3-0.5,6.2,0.3c2.3,0.9,3.6,3.2,5.2,5
		c5.8,6.3,15.3,6.7,23.8,6.3c10.8-0.6,21.6-1.9,32.3-3.9c6.7-1.3,13.5-2.9,20.3-2.7c9.1,0.3,17.7,3.7,26.5,6.1
		c17.9,4.9,36.9,5.4,55,1.6c3.9-0.8,8-1.9,11.9-1c2.6,0.6,4.9,1.9,7.4,2.8c17.3,6.6,35.3-7.1,53.7-10c9.1-1.5,18.6-0.2,27.6-2.4
		c10.7-2.6,19.7-9.8,29.9-14c10.1-4.1,21.1-5.2,31.2-9.2c15.5-6.1,26.2-17.4,30.7-33c2.4-8.4,14.6-34.2-1.4-37.1
		c-2-0.3-3.9,0.3-5.8,0.9c-12.7,4.1-25.5,8.2-37.2,14.5c-9.5,5.2-18.3,11.8-27.7,17c-13.6,7.5-28.5,12.3-43.2,17
		c-5.7,1.8-11.4,3.6-17.1,5.4c-7.8,2.5-15.6,4.9-23.6,6.5c-31.1,6.2-64.2-1.1-94.6,8c-11.7,3.5-23,9.4-35.2,9.7
		c-17.8,0.4-33.3-11.1-47.3-22c-2.8,5.5-10.9,5.5-16.4,2.7c-5.5-2.7-10.3-7.3-16.4-8.4c-3.2-0.6-7-0.4-9.3-2.7
		c-1.2-1.3-1.7-3.1-2.8-4.5c-4.3-5.6-13.7-1.8-19.9-5.2c-3.8-2.1-5.5-6.5-8.2-10s-7.8-6.1-11.1-3.3
		C518.5,639.9,529.4,653.9,536.8,667.2z"/>
	<g>
		<path class="st3" d="M1245.4,253.7c-8,0-16.7,0.6-22.6,5.9c-3,2.6-5,6.3-7.9,8.9c-8.8,7.7-22.4,3-31,9.7c-7.8,6.1,0.4,22,0.8,30.6
			c0,0.7,0.1,1.5,0.4,2.2c0.4,0.6,1,1,1.5,1.3c9.6,6,23.3,2.2,34.2,2.3c2.1,0,4.2,0.1,6.3,0.6c2.3,0.6,4.5,1.7,6.7,2.8
			c13.5,6.5,28.2,9.5,43.1,10.7c7,0.5,15.1,1.7,22,0.7c6-0.8,11-3,17.3-3.5c2.3-0.2,4.7-0.5,6.6-1.9c1.3-1,2.1-2.5,2.9-4
			c5.7-11.1,10.6-22.6,14.3-34.5c0.9-2.7,1.7-5.4,1.5-8.2c-1-13.7-33.7-19.3-44.1-20.9C1280.2,253.6,1262.7,253.7,1245.4,253.7z"/>
		<path class="st5" d="M1290.7,441.9c14.3,1.7,25.9,6.1,37.5,16c13.4,11.6,17.3,25.3,24.5,41.1c4.4,9.8,10.5,18.9,13.2,29.3
			c2.6,10.4,1.5,21.3,3.2,31.9c1.3,7.8,4,15.3,5.2,23.1c1.1,7.8,0.4,16.4-4.6,22.5c-2.4,3-5.6,5.1-9,7.1
			c-25,14.4-55.6,15.6-84.1,11.5c-28.5-4.1-56.2-13.1-84.7-17.6c-4.2-0.7-8.8-1.5-11.4-4.9c-1.1-1.4-1.7-3.2-2.1-5
			c-5.2-21.1,3.7-47.9,9.7-68c5.6-18.8,12.8-37.1,21.5-54.7c3.5-7.1,6.2-15.8,12.5-20.8c7.3-5.7,17-9,25.9-10.8
			c11.7-2.3,23.8-2.2,35.7-1.4C1286.1,441.4,1288.4,441.7,1290.7,441.9z"/>
		<path class="st6" d="M1290.7,441.9c6.3,0.4,42.3,7.9,36.1,18.6c-1.1,1.8-3,3-4.9,3.9c-14.2,7-30.6,7.7-46.4,7.4
			c-10-0.1-20.1-0.6-29.9-2.2c-7.7-1.2-18.6-2.6-24.7-8c-10.2-9.2,21.7-17.9,27.1-19c11.7-2.3,23.8-2.2,35.7-1.4
			C1286.1,441.4,1288.4,441.8,1290.7,441.9z"/>
		<path class="st3" d="M1229.1,368c-1.6,13.9-4.6,27.6-9.9,40.8c-12,29.9-26.8,58.7-37.9,89c-11.1,30.3-18.4,62.7-14.5,94.7
			c0.5,4,1.2,8.1,3.1,11.7c1.5,2.8,3.7,5.2,6,7.3c12.9,12.3,30,19.7,47.5,23.4c17.5,3.7,35.5,4.1,53.4,4c34.9-0.1,71.2-2,102-18.5
			c3.5-1.9,7.1-4.1,9.1-7.6c1.8-3.3,2-7.1,2-10.9c0.5-19.2,1-38.7-4.1-57.3c-6-22.1-19.3-41.3-30-61.5
			c-14.2-26.7-24.1-55.8-29.3-85.6c-2.4-13.7-5-25-3.3-38.8c1.9-16,4.5-32,7.7-47.8c0.8-5,2.1-9.1,1.9-14.1c0,0.2-17.8-0.7-19.3,0.6
			c-3.5,3-2.9,14.3-3.4,18.5c-2,16.4-3.3,33-3.7,49.5c-0.4,19.7-0.1,39.6,3.1,59.1c3.1,19,13.8,35.7,23.9,51.9
			c2.6,4.2,5.2,8.5,7.9,12.7c4.5,7.2,9,14.5,12.1,22.3c5.4,13.5,9.4,26.8,12.6,41c3,13.7,5.3,24.9,5.4,39.2c0,1,0,2.1-0.5,3.1
			c-0.4,0.7-0.9,1.2-1.5,1.6c-17.5,14.7-38.9,20-61.3,21c-42.7,1.9-87.5,1-124.9-19.4c5.3-18.7,21.7-32.5,39.8-39.7
			c18.1-7.1,37.8-8.5,57.2-9.8c1.5-3.7-3.5-6.6-7.5-7.4c-26.1-5-53.7-2.4-78.4,7.5c-1.9-18.1,3.9-36.1,11.8-52.5
			c7.9-16.4,17.8-31.8,24.9-48.5c10.5-24.7,14.4-51.6,15.7-78.2c0.7-14,0.8-28,0.6-41.9c-0.1-6.2-1.3-9.1-3.3-14.5
			c-2.9-7.9-2.8-7.5-11.6-8.3c-0.6-0.1-1.3-0.1-1.8,0.3c-0.7,0.5-0.7,1.5-0.6,2.3C1230.8,327.4,1231.4,348,1229.1,368z"/>
	</g>
</g>
<g id="Broth__x26__Noodles_1">
	<g>
		<path d="M538.2,559.8c6.4,5,13.2,9.5,20.3,13.5c3.9,1.8,7.9,3.6,11.9,5.5c17.8,8.2,39.5,11.2,58.5,16.1c39.3,10.2,80.6,8.3,121,5
			c29.6-2.4,57.1-5.6,85.4-13.9c4.1-1.2,8-2.4,10.9-5.8c1-1.1,2.6-1.8,4-2.5c11.6-6.2,23.5-11.6,34.5-18.8
			c15-9.8,29.8-19.8,42.8-32.2c8.7-9.1,15-19,15.7-29.7c1.8-27.9-18.6-51-39.5-67.8c-6.7-5.4-13.7-10.4-20.7-15.5
			c-3.8-2.8-7.8-5.4-11.6-8.1c-1.3-0.9-2.6-1.8-3.9-2.6c-4.5-2.6-9-5.1-14.1-6.3c-1.7-0.4-3.1-1.1-4.6-2c-3.5-2.2-6.9-4.4-10.5-6.4
			c-8.9-4.8-18.7-7.2-28.3-10.3c-4.8-1.6-9.9-2.4-14.8-3.8c-7.6-2.1-15.2-3.9-23.1-4.5c-3.1-0.2-6.2-0.5-9.2-1
			c-11.9-2.2-24-3-36.2-3.2c-5.3-0.1-10.7,0-16,0c0-0.2,0-0.5,0-0.7c-3.7,0-7.5,0-11.2,0c-8.3-0.1-16.6,1-24.8,2
			c-7.2,0.9-14.4,1.5-21.5,2.5c-4,0.5-7.9,1.8-11.8,2.4c-8.4,1.2-16.7,3.3-24.8,5.7c-21.7,6.3-41.6,16.1-59.8,29.1
			c-2.9,2.1-5.8,4.2-8.2,6.8c-0.9,1-2.1,1.7-3.1,2.7c-2.6,2.5-5.4,4.9-7.8,7.7c-2.9,3.4-5.3,7.2-8.1,10.6c-3,3.6-6.5,6.9-9.5,10.6
			c-1.9,2.3-4.1,4.2-5.8,6.8c-4.7,7.2-10,14.1-13.2,22.2c-1.6,4.1-2.9,8.3-2.7,12.8C499.3,516.1,514.4,541.2,538.2,559.8z M733,384
			c-0.7-0.5-1.3-1-1.9-1.4C732.5,382.2,732.5,382.2,733,384z"/>
	</g>
	<g>
		<g>
			<path class="st5" d="M538.2,559.8c6.4,5,13.2,9.5,20.3,13.5c3.9,1.8,7.9,3.6,11.9,5.5c17.8,8.2,39.5,11.2,58.5,16.1
				c39.3,10.2,80.6,8.3,121,5c29.6-2.4,57.1-5.6,85.4-13.9c4.1-1.2,8-2.4,10.9-5.8c1-1.1,2.6-1.8,4-2.5
				c11.6-6.2,23.5-11.6,34.5-18.8c15-9.8,29.8-19.8,42.8-32.2c8.7-9.1,15-19,15.7-29.7c1.8-27.9-18.6-51-39.5-67.8
				c-6.7-5.4-13.7-10.4-20.7-15.5c-3.8-2.8-7.8-5.4-11.6-8.1c-1.3-0.9-2.6-1.8-3.9-2.6c-4.5-2.6-9-5.1-14.1-6.3
				c-1.7-0.4-3.1-1.1-4.6-2c-3.5-2.2-6.9-4.4-10.5-6.4c-8.9-4.8-18.7-7.2-28.3-10.3c-4.8-1.6-9.9-2.4-14.8-3.8
				c-7.6-2.1-15.2-3.9-23.1-4.5c-3.1-0.2-6.2-0.5-9.2-1c-11.9-2.2-24-3-36.2-3.2c-5.3-0.1-10.7,0-16,0c0-0.2,0-0.5,0-0.7
				c-3.7,0-7.5,0-11.2,0c-8.3-0.1-16.6,1-24.8,2c-7.2,0.9-14.4,1.5-21.5,2.5c-4,0.5-7.9,1.8-11.8,2.4c-8.4,1.2-16.7,3.3-24.8,5.7
				c-21.7,6.3-41.6,16.1-59.8,29.1c-2.9,2.1-5.8,4.2-8.2,6.8c-0.9,1-2.1,1.7-3.1,2.7c-2.6,2.5-5.4,4.9-7.8,7.7
				c-2.9,3.4-5.3,7.2-8.1,10.6c-3,3.6-6.5,6.9-9.5,10.6c-1.9,2.3-4.1,4.2-5.8,6.8c-4.7,7.2-10,14.1-13.2,22.2
				c-1.6,4.1-2.9,8.3-2.7,12.8C499.3,516.1,514.4,541.2,538.2,559.8z M733,384c-0.7-0.5-1.3-1-1.9-1.4
				C732.5,382.2,732.5,382.2,733,384z"/>
		</g>
	</g>
	<path class="st2" d="M551,440.9c-0.2-1.1-0.2-2-0.5-2.8c-0.7-2.6-0.4-5.1,0-7.7c1-6.3,3.4-11.8,6.5-16.8c2.3-3.7,4.7-7.3,7.4-10.6
		c5.2-6.5,10.9-12.3,17.3-17.3c3.6-2.9,7.5-4.5,11.4-6.3c8.2-3.6,16.6-4.3,25.2-3.6c1.8,0.2,3.6,0.6,5.4,1.2
		c5.7,1.8,11.3,3.6,17,5.4c0.5,0.2,1.1,0.4,1.6,0.3c5-1.2,10,0.5,15-0.7c2.9-0.7,5.7-1.6,8.2-3.6c2.4-1.9,4.8-3.6,7.1-5.6
		c3.5-3,7.2-5.3,11-7.5c3.8-2.2,7.5-4.7,11.1-7.2c1.8-1.3,3.7-2.3,5.8-3c5-1.6,10-3.4,14.8-5.5c4.9-2.1,10-3.4,15.2-3.2
		c0.7,0,1.4,0.1,2.1,0c6.5-0.7,12.7,1,18.9,3.6c4,1.7,7.7,4.3,11.2,7c3.9,2.9,7.9,6,10.7,10.7c1.2,2.1,2.4,4.2,3.5,6.4
		c0.5,1,0.9,2.2,1.3,3.2c0.7,1.8,1.9,2.7,3.4,2.2c4.5-1.4,9.2-0.8,13.8-0.9c3.3-0.1,6.7,0.8,9.9,1.6c4.8,1.2,9.6,2.3,14.3,4.2
		c7.2,2.9,14.3,5.9,20.4,11.7c1.7,1.6,3.6,2.7,5.3,4.2c1.8,1.6,3.5,3.4,5.2,5.2c4.4,4.7,6.9,11.3,10.9,16.5c0,2.9,2.2,3.7,3.4,5.6
		c0.7,1.2,1.8,1.6,3,1.4c1.1-0.2,2.2-0.3,3.3-0.8c4.3-1.9,8.7-2.6,13.2-2.3c4.2,0.3,8.4-0.4,12.5,0.9c0.9,0.3,2,0.4,2.8,0.8
		c4,2,8.3,3,12.2,5.4c5,3.1,8.9,7.4,11.1,13.5c3.4,9.4,5.2,19.4,5,29.9c-0.1,6-1.2,11.7-3,17.2c-1.4,4.2-2.6,8.4-3.7,12.7
		c-1.4,5.4-3.8,9.6-7.6,12.6c-2,1.6-3.1,3.5-3.7,6.5c-0.8,4.3-3.2,7.7-5.4,11c-2,2.9-4.3,5.5-7.1,7.1c-1.3,0.7-2.4,1.9-3.5,2.9
		c-2.3,2.2-4.8,3.5-7.6,4.1c-4.4,1-8.7,2.4-13.1,3.5c-2.2,0.6-4.4,1.1-6.6,1.5c-2.1,0.4-4.1,0.3-6.2-0.5c-3.5-1.3-7.1-2.1-10.5-3.4
		c-5.2-2-10.4-4.1-15.5-6.5c-1.8-0.8-3.3-2.5-5-3.8c-1.6-1.2-2.4-1.1-3.6,0.7c-0.6,0.8-1,1.6-1.5,2.5c-3.4,6.2-7.8,11-13.3,14
		c-8.3,4.6-16.8,8.5-25.8,10.4c-3.5,0.7-6.9,1.9-10.4,1c-3.1-0.9-6.1-0.9-9.2-0.5c-5.1,0.6-10.3,1.4-15.4,2.2
		c-0.8,0.1-1.7,0.5-2.5,0.4c-4.6-0.6-9.2-0.1-13.8,0.3c-3.7,0.3-7.5-0.7-11.2-1.4c-4-0.7-7.9-1.8-11.9-2.8c-1.6-0.4-3.3-0.8-4.9-1.2
		c-2.7-0.7-5.5-1.2-8.2-1.9c-4.2-1.1-8.5-1.8-12.5-4c-1.6-0.9-3.5-1.4-5.3-1.4c-6.8-0.3-13.6-1.5-20.4-2.5
		c-3.6-0.5-7.2-1.2-10.8-0.5c-0.5,0.1-1.2,0.2-1.7-0.1c-2.8-1.4-5.5-0.5-8.2,0.4c-4.2,1.3-8.4,2.5-12.7,3.6
		c-1.4,0.3-2.8,0.3-4.2,0.4c-3.3,0.3-6.7,0.7-10,0.9c-1.8,0.1-3.6,0.1-5.4-0.3c-2.1-0.4-4.1-1.2-6.1-1.7c-4.5-1.1-7.6-0.6-11.2-4.3
		c-4.4-4.4-8.5-9.1-12.3-14.1c-0.4-0.5-0.8-1.1-1.4-1.4c-0.6-0.3-1.2-0.3-1.8-0.4c-7.8-0.9-12.3-7.3-13.7-14.6
		c-0.3-1.6-1.2-2.3-2.4-2.4c-1.4-0.1-2.8-0.1-4.2-0.1c-4.3-0.1-8.3-1.5-12-4.1c-1.7-1.2-3.6-2-5.3-3.2c-7.8-5.5-14.8-12-19.3-21.8
		c-4.3-9.6-4.7-19.5,0-29.2c2.2-4.6,5.9-7.4,9.3-10.4c0.3-0.3,0.8-0.5,1.2-0.6c2.8-0.1,5-2.1,7.3-3.8c3.9-2.8,8-5.1,12.3-6.6
		C548.3,442.2,549.6,441.6,551,440.9z M853,449.7c0.8,0.8,1.3,1.5,1.8,1.9c1.8,1.4,3.6,2.6,5.4,4c1.8,1.4,3.2,1.3,4.9-0.3
		c2.1-2,4.4-3.7,6.7-5.2c2.1-1.4,4.4-2.2,6.6-3.4c5-2.7,10-2.8,15.1-0.5c3.9,1.8,6.9,5.2,10.4,7.6c0.5,0.4,1,1.3,1.1,2.1
		c0.7,3.9,1.2,7.8,1.8,11.7c0.2,1.7-0.2,3.1-1.1,4.3c-2.2,3-4.6,5.5-7.9,6.5c-5.3,1.6-10.5,1.5-15.8,0.3c-3.3-0.8-6.4-2.3-9.7-3.2
		c-3.9-1-7.4-3-10.8-5.4c-2.6-1.9-5.4-3.5-8.1-5.5c-5.6-4.2-11.5-7.8-16.6-13c-1.1-1.1-2.3-2-3.4-3c-2.1-1.7-4.2-3.4-6.4-5
		c-1.4-1-2.9-2.3-4.5-2.6c-6.3-1.2-12.4-4.2-19-3.5c-0.7,0.1-1.4-0.1-2.1-0.3c-6.8-2-13.6-1.1-20.3,0.7c-3,0.8-6,1.8-8.8,3.2
		c-2.6,1.3-4.7,3.3-7.3,4.7c-2.6,1.3-5,2.9-7.3,4.7c-2.4,1.9-5.5,3.2-8.1,5c-0.4,0.3-0.7,1.2-0.7,1.8c0.3,3.6,4.2,5.9,6.7,3.9
		c3.7-3,7.5-6.1,11.1-9.3c4-3.6,8.3-6.4,13.2-7.4c4.5-0.9,9.1-2,13.6-2.8c3.7-0.7,7.3-0.2,10.7,1.6c4.4,2.2,8.7,4.6,13,7.1
		c1.4,0.8,2.7,2,3.8,3.2c1.9,2.1,4.1,3.6,6.5,4.5c2.5,0.9,4.7,2.4,6.5,4.5c2.1,2.4,4.4,4.3,7,5.6c0.9,0.5,1.8,1.1,2.5,1.9
		c3.6,4.1,7.7,7.2,12.4,9.4c4,1.9,7.9,4.4,11.7,6.9c4.2,2.8,8.7,4.6,13.3,6.3c4.9,1.9,9.9,2,14.9,1.9c4.6-0.2,8.4-2.4,11.3-6.9
		c0.3-0.4,0.5-0.8,0.8-1.2c2.6-3.9,4.3-8.5,6.3-12.9c1-2.1,0.8-4.3,0.5-6.6c-0.8-6.2-3.6-11.3-5.7-16.7c-0.3-0.9-1.1-1.5-1.7-2.2
		c-3.9-4.5-8.5-7.1-13.5-9c-7.9-2.9-15.7-2.8-23.4,0.8c-5,2.3-9.7,5.4-14.5,8.1C855.1,448.5,854.2,449,853,449.7z M612.8,471.8
		c0.1,0.3,0.1,0.6,0.2,1c0.5,0.1,1.1,0.2,1.6,0.2c4.2,0,8.3-0.2,12.5-0.9c6-0.9,11.8-2.7,17.4-5.5c2.4-1.2,4.3-3.1,5.7-5.8
		c2.1-4.1,4.4-8.1,6.7-12c3-5.1,3.9-10.7,2.8-16.8c-0.7-4.1-1.7-8.1-2.5-12.1c-0.5-2.6-1.7-4.7-3.1-6.7
		c-4.4-6.5-10.1-10.4-16.6-12.5c-4.1-1.3-8.3-1.2-12.3,1c-7.2,3.9-13.7,9.4-19.6,15.9c-0.5,0.6-1.1,1.2-1.4,1.9
		c-2.4,4.5-4.8,8.9-7.2,13.4c-1.7,3.2-2,6.8-2,10.5c0,2.1,0.6,3.7,1.9,4.9c4.5,4.1,8.9,8.4,13.6,12.2c3.4,2.8,7.2,2.5,10.8,0.5
		c1.7-0.9,3.3-1.9,5-2.7c2.7-1.4,5.4-2.9,7.5-5.6c3.1-3.9,4.3-8.6,3.3-13.9c-0.6-3.4-1.8-6.6-2.8-9.8c-0.8-2.7-2.5-4-4.8-4.4
		c-5.2-0.8-10,1.1-14.5,4c-3.3,2.1-2.9,5.5-1.8,8.8c0.9,2.6,3.5,2.4,5.7,3.3c3.9,1.4,7.5,1.5,10.3-2.8c0.4-0.6,1.5,0.1,1.5,1
		c0,0.7,0.1,1.5-0.2,2c-2.6,5.3-7.2,7.2-12.8,7c-0.8,0-1.6-0.1-2.4-0.3c-0.9-0.2-1.7-0.7-2.4-1.2c-2.6-1.7-5.1-3.1-4.8-6.5
		c0.2-1.6-0.5-2.7-1-3.9c-0.5-1.3-0.7-2.6,0-3.9c0.4-0.7,0.5-1.6,0.8-2.4c2.6-7.1,7.6-10.9,12.9-14.1c0.1-0.1,0.3-0.1,0.4-0.1
		c5.1-0.9,10.3-1.7,15.4,0c5.7,1.9,10.1,5.7,11.7,13.4c0.4,2,1,4,1.6,5.9c0.8,3.2,1.5,6.3,1.2,9.7c-0.1,1.6-0.6,2.8-1.7,3.9
		c-1.6,1.7-2.9,3.8-4.1,5.9c-2.6,4.5-5.4,8.4-9.9,9.9c-1.3,0.4-2.6,1.2-3.9,1.9c-5.6,2.7-11.4,4.7-17.5,5
		C613.7,471.3,613.3,471.6,612.8,471.8z M905.1,504.8c-1.5-0.7-2.9-0.1-4.2,0c-2.4,0.2-4.7,0.4-7.1,0.4c-2.7,0-5.3-0.4-7.9-0.6
		c-1.3-0.1-2.5-0.1-3.7-0.5c-8.7-3-17.7-5.3-25.6-11.2c-0.5-0.4-1-0.5-1.5-0.8c-2.4-1.4-4.8-2.9-7.1-4.3c-1.4-0.8-2.7-1.9-4.1-2.6
		c-3.4-1.6-6.5-4-9.3-7c-1.5-1.5-3.1-3-4.9-4c-2.3-1.4-4.4-2.9-6.2-5.2c-0.9-1.1-1.9-2.3-3-2.7c-4.9-1.8-9-5.4-13.2-8.8
		c-2.2-1.8-4.6-3.3-6.8-5.1c-1.1-0.9-2.2-1.5-3.5-1.3c-8.2,1.3-16.4,2.1-23.4,8.7c-3.7,3.5-7.6,6.5-11.4,9.8
		c-0.3,0.3-0.3,1.1-0.4,1.7c0.4,0.1,0.8,0.4,1.2,0.3c0.5-0.1,1-0.5,1.5-0.8c1.9-1.4,3.9-2.7,5.8-4.2c7.6-6,16-7.2,24.6-6.1
		c9.9,1.3,17.9,7.6,24.2,17.1c5.3,8.1,10.6,16.2,16.4,23.7c0.7,0.9,1.3,1.9,2.1,2.5c2.7,1.9,4.8,4.8,7,7.4c1.6,1.9,3.3,3.8,5.2,5.1
		c2.8,2,5.7,3.7,8.7,5.2c4.1,2.1,8.4,3.8,13,3.5c2.5-0.2,5-0.3,7.5-0.8c4.2-1,8.7-0.6,12.5-3.6c0.6-0.5,1.6-0.4,2.4-0.5
		c2.5-0.5,5-1.6,6.6-4.1c1.7-2.7,3-5.8,4.4-8.8C905.1,506.4,905,505.6,905.1,504.8z M728.4,516.6c2,1,3.6,0.3,5.1-0.5
		c4.6-2.4,9.3-4.7,13.9-7.4c5.7-3.3,11.6-4.9,17.8-5.6c5.1-0.6,12,3.1,14.4,10.2c0.8,2.4,1,4.7,0.2,7.1c-1.8,5.1-4.3,9.7-8,13.2
		c-1.9,1.8-3.6,3.9-5.5,5.6c-4.3,4-8.9,7.1-14.3,8.2c-2.6,0.5-5.3,0.8-7.9,1.3c-7.1,1.4-14.2,1.5-21.3,1.7c-1.1,0-2.2-0.2-3.3-0.4
		c-3.7-0.5-7.5-1-11.2-1.6c-4.6-0.7-9.2-1.1-13.7-2.3c-3.6-1-7.1-1.8-10.7-2.4c-2.4-0.4-4.7-0.5-7.1,0.3c-1.3,0.4-2.8,0.5-4.1,0.9
		c-1.4,0.5-3.1-0.2-4.3,1.3c0.8,2.6,2.9,1.2,4.3,2.1c0.7,0.5,1.6,0.7,2.4,1c1.8,0.6,3.5,1.3,5.3,1.6c7,1.5,14,3,21.1,4.4
		c0.8,0.2,1.6,0.5,2.4,0.8c7,2,14,3.1,21.2,2.9c5.3-0.2,10.6-0.4,15.9-0.6c0.7,0,1.4-0.1,2.1-0.2c5.1-0.7,10.3-1.5,15.4-2.1
		c3.8-0.5,7.5-1,11-2.9c2.8-1.5,5.7-2.9,8.4-4.6c5.4-3.4,10.6-6.9,14.4-13.2c2.2-3.7,3.7-7.8,5-12c0.5-1.5,0.4-3.5,0.2-5.1
		c-0.3-3.4-0.8-6.9-1.3-10.3c-0.9-6.6-4.9-11.1-10.2-11.6c-1.9-0.2-3.9-0.1-5.9-0.1c-10,0-19.8,1.6-28.6,8.1c-0.5,0.4-1,0.6-1.5,0.9
		c-5.4,2.7-10.9,5.3-16.3,8.1C731.9,514.3,730.2,515.5,728.4,516.6z M848.8,443.8c1.8-2.1,3.2-4,4.9-5.5c2.8-2.6,1.7-3.6-0.2-5.4
		c-0.4-0.4-1-0.6-1.4-1.1c-3.2-3.3-6.6-6.4-9.7-10c-1.9-2.2-3.4-5.1-5.2-7.5c-1.9-2.5-3.9-5-6-7.2c-2.2-2.3-4-5.5-7.2-5.7
		c-0.4,0-0.7-0.5-1-0.9c-2.1-2.4-4.7-3.7-7.4-4.8c-2.1-0.8-4.3-1.5-6.5-2.2c-4.9-1.5-9.7-3-14.6-4.5c-3.4-1.1-6.9-1.4-10.4-0.3
		c-1.3,0.4-2.8,0.4-4.1,0.4c-5.6-0.2-10.7,2.2-15.6,5.4c-0.9,0.6-1.1,1.7-0.8,2.7c0.5,1.4,1.1,2.8,1.9,4c2.4,3.9,4.5,8,5.5,12.8
		c0.4,2,1.4,3.3,2.9,4.5c1.6-2.1,3-4.3,4.6-6.1c1.3-1.5,2.7-3.2,4.3-4c4.3-2.1,8.8-3.4,13.3-4.4c0.5-0.1,1.1-0.2,1.7-0.1
		c3.3,0.7,6.6,0.9,9.7,2.8c2.8,1.8,5.5,4,8.7,4.7c1.1,0.3,2.2,1.5,3.1,2.6c3.9,4.4,7.8,8.9,11.7,13.4c0.6,0.7,1.3,1.4,1.9,2
		C838.1,434.2,843.3,438.9,848.8,443.8z M620.5,548.2c-1.8-1-3.6-0.6-5.4-0.7c-1.2-0.1-2.7,0-3.7-0.7c-4.3-3-7.3-7.4-9.2-13
		c-0.2-0.7-0.2-1.7-0.1-2.5c0.4-1.8,1-3.6,1.4-5.4c0.6-2.7,1.7-4.8,3.5-6.3c1.5-1.2,3.2-2.2,4.8-3.1c1.9-1.1,3.8-2.1,5.7-3.1
		c0.8-0.4,1.6-0.8,2.4-0.8c5.6,0.1,11.2-0.3,16.8,0.4c4.4,0.5,8.9,0.3,13.4,0.2c3.1-0.1,6.1-0.6,9.2-0.7c3.6-0.1,7.3,0,10.9,0
		c8.8,0,17.6,0.1,26.4,0c0.3,0,0.6-0.4,1.2-0.8c-6.9-2.5-13.6-2.4-20.2-2.6c-1.9-0.1-3.9-0.1-5.8-0.4c-4.8-0.9-9.6-2.4-14.5-2.2
		c-0.4,0-0.8,0-1.2-0.2c-3.8-1.3-7.7-1.8-11.6-2.2c-6-0.6-12-1.1-17.9-2.5c-0.3-0.1-0.6,0-0.8-0.1c-6.6-0.6-12.7,1.9-18.8,4.7
		c-0.6,0.3-1.2,0.8-1.8,1.4c-2.6,2.5-5.1,5.4-7.9,7.6c-3.7,3-5.5,7.8-8,11.9c-0.5,0.9-0.8,2.3-0.7,3.5c0.1,2.6,0.3,5.2,0.8,7.7
		c0.8,4.2,3,6.9,6.5,7.9c1.7,0.5,3.3,1,4.9,0.6c1.2-0.3,2.1,0,2.8,1.4c0.4,0.8,1.3,1.5,2,1.6C610.6,550.3,615.6,550.5,620.5,548.2z
		 M655.8,388.8c-0.1,0.4-0.1,0.7-0.2,1.1c3,1.7,6,3.5,9,5.1c0.9,0.5,1.9,0.6,2.9,0.5c4.4-0.8,8.8-1.5,13.2-2.9
		c4.8-1.5,8.9-4.9,12.8-8.7c6.9-6.6,13.8-12.9,22-16.8c8-3.8,16-7,24.8-5.3c3.2,0.6,5.9,2.1,8.3,4.6c1.7,1.8,3.2,3.8,4.7,5.9
		c3.1,4.3,4.3,9.3,3.4,15c-0.1,0.7-0.3,1.4-0.3,2c0,0.6,0.3,1.3,0.6,1.7c0.1,0.2,0.8-0.1,1.1-0.4c1.2-1.2,2.3-2.6,3.5-3.7
		c1.5-1.3,1.7-2.9,1.4-5c-1.1-7-4.4-12.3-8.8-16.5c-2.8-2.6-5.8-4.9-8.7-7.2c-3.5-2.8-7.3-4.3-11.5-3.9c-1.1,0.1-2.2,0.2-3.3,0.1
		c-4.3-0.6-8.3,0.8-12.3,2.5c-2.8,1.2-5.6,2.5-8.4,3c-3.2,0.5-5.8,2.1-8.6,3.8c-4.1,2.6-8.2,5.2-12.4,7.5c-3.3,1.8-6.4,4-9.5,6.5
		c-2.4,2-4.6,4.7-7.7,5c-0.4,0-0.7,0.5-1,0.8c-3.9,3.7-8.3,5.4-13.3,5C656.8,388.5,656.3,388.7,655.8,388.8z M645.9,476.3
		c1,0.7,1.6,1.3,2.4,1.6c2.5,1,5,0,7.4-0.9c4.7-1.7,9.3-3.7,14-5.3c5-1.7,10-3,15.1-4.5c6.7-2,13.3-3.9,20-5.9
		c4.6-1.4,9-1.1,13.6,0.4c5.6,1.8,9.7,5.8,13.2,11.2c1.6,2.5,3.1,4.9,4.4,7.6c1.6,3.2,4.1,5.1,6.6,7.1c1.3,1.1,2.7,1,3.9-0.3
		c1.3-1.5,2.6-3.1,4.1-4.9c-0.8-0.9-1.4-1.7-2.1-2.2c-1.9-1.5-3.7-3.1-5.7-4.3c-5.5-3.6-9.6-8.8-12.8-15.3c-1.3-2.6-3.2-4-5.3-4.8
		c-7.9-2.9-16-5.3-24.3-3.6c-0.8,0.2-1.7,0.1-2.5,0.2c-6.5,0.6-12.7,2.6-18.7,5.6c-3.1,1.5-6.2,3.2-9.2,4.9c-3.6,2-7.1,4.1-10.7,6.1
		c-2,1.1-4.1,2.2-6.2,3.1C650.6,473.1,648.2,474.1,645.9,476.3z M626,539.1c8.8,0.5,10.1,0.4,15.7-2.2c3.5-1.6,7-2.4,10.6-2.4
		c2.9,0,5.5-0.9,8-2.6c4.3-2.9,8.7-5.4,13.5-7.1c0.9-0.3,1.7-1.1,2.5-1.8c0.1-0.1,0-1.2-0.2-1.2c-0.8-0.3-1.6-0.5-2.4-0.5
		c-9.6,0.2-19.3-0.5-28.9,0.7c-1.8,0.2-3.6,0-5.4-0.1c-5.6-0.2-11.2-0.5-16.8-0.6c-3.7-0.1-7.2,1-10.5,3.2c-3.2,2.2-3.8,6-1.5,9.5
		c2.2,3.3,4.9,5.1,8.3,5.1C621.2,539.1,623.6,539.1,626,539.1z M532.6,488.1c1.3-6.5,2.2-13.4,6.5-18.5c2-2.4,4.3-4.5,6.7-6.2
		c4.5-3,9.4-5,14.5-4c3.8,0.7,7.6,2.2,11.2,4c5.6,2.7,11,5.8,16.6,8.7c2,1.1,4.2,1.8,5.9,3.7c0.4,0.4,1.1,0.8,1.5,0.7
		c0.7-0.2,1.4-0.8,2.1-1.3c-0.4-0.6-0.8-1.3-1.2-1.9c-0.2-0.2-0.5-0.3-0.7-0.5c-6.4-4.4-12.5-9.1-18.2-14.8
		c-9.6-9.6-20.3-9.7-31.2-4.2c-3.6,1.8-6.7,4.9-10.1,7.4c-1,0.7-1.8,1.8-2.8,2.3c-3.9,1.7-6.4,5.3-9,9c-2.7,3.8-3.4,7.9-1.7,12.5
		c0.5,1.4,1.1,2.7,1.9,3.9c0.8,1.4,1.8,2.6,2.7,3.9c1.5,2.2,3,4.6,4.7,6.7c0.7,0.9,1.8,1.4,2.7,2.1c1.2-1.5,0.1-2.9-0.1-4.3
		c-0.3-1.9-0.8-3.7-1.2-5.5C533.1,490.8,532.9,489.7,532.6,488.1z M707.1,537.2c7.8,2.7,15.3,5.9,23.2,3.7c1.2-0.3,2.5,0,3.8-0.1
		c3.7-0.4,7.5-0.7,11.2-1.5c7.1-1.6,13-5.9,18.2-12c2.2-2.6,2.9-5.8,3.6-9.2c0.2-0.7-0.1-1.8-0.4-2.5c-1.5-3.1-2.9-3.7-5.2-3
		c-5.5,1.5-10.7,4.2-15.7,7.2c-7.2,4.3-14.6,7.8-22.3,10.4c-5.1,1.7-10.2,3.7-15.1,6C708,536.4,707.5,536.8,707.1,537.2z
		 M741.6,425.2c-0.3-3.8-2.4-7-5.4-9.6c-0.5-0.4-1.4-0.4-2-0.3c-3.3,0.7-6.6,1.4-9.5,3.7c-4.1,3.2-8.4,6.1-13.2,7.7
		c-2.4,0.8-4.8,1.7-7.2,2.6c-2.7,1-5.3,2.3-8,2.9c-4.3,1-8.6,1-12.8-1c-1.7-0.8-3.5-1.2-5.3-1.6c-1.5-0.3-2.4,0.7-2.4,2.6
		c0,1,0,2.1,0.2,3.1c0.4,2.5,0.2,4.8-0.3,7.2c-0.2,1-0.4,2-0.5,3.1c-0.2,1.5,0.5,2.4,1.7,2.1c1.8-0.4,3.5-1,5.3-1.6
		c4.8-1.7,9.6-3.5,14.7-3.9c3.8-0.3,7.3-1.9,10.2-5.4c1.7-2.1,3.5-4,5.4-5.8c2.9-2.8,6-5,9.4-6.7c4.4-2.2,8.7,1.8,8.3,7.1
		c-0.1,1.9-0.2,3.8-1,5.5c-0.6,1.3-1.1,2.8-1.6,4.2c-0.4,1.1,0.2,2,1.3,1.9c1.9-0.2,3.5-1.1,5-2.5c1.6-1.6,3.2-3.4,4.7-5.1
		C740.8,433,741.5,429.8,741.6,425.2z M675.1,402.6c0.3,0.5,0.4,0.9,0.6,1c3.6,1.6,7.1,3.1,10.7,4.6c0.8,0.3,1.7,0.6,2.5,0.4
		c4.4-0.9,8.9-1.4,12.8-4.6c1.9-1.6,3.9-3.3,5.9-4.7c2.2-1.6,4.4-2.9,6.7-4.3c5.6-3.6,11.3-6.8,17.6-8.3c1.9-0.5,3.9-0.6,5.8-1.1
		c1.8-0.4,2.3-1.3,2.3-3.6c0-0.7-0.1-1.4-0.3-2.1c-0.9-3.4-2.7-6.1-5-8.2c-0.8-0.7-2.2-1-3.1-0.6c-5.9,2.2-11.6,4.9-16.6,9.6
		c-2,1.9-4,3.8-6.2,5.2c-3,1.8-6.1,3.3-8.1,6.9c-0.4,0.7-1,1.2-1.7,1.5c-2.7,1.4-5.3,3.1-8.1,4c-3.4,1.1-6.8,2.1-10.3,2.2
		C678.7,400.5,676.7,401,675.1,402.6z M609,386.7c-2,0.2-3.1,0.2-4.2,0.4c-8.7,1.3-16.5,5.5-23.4,11.9c-4.8,4.5-9.4,9.2-13.4,14.8
		c-1.7,2.3-3.2,4.9-5.1,6.9c-2.4,2.4-3.9,5.3-4.4,9.1c-0.2,1.4-0.4,2.7-0.8,4c-0.3,1.1-0.2,2.1,0.2,3.1c0.3,0.7,0.5,2.1,1.2,2.4
		c0.3,0.1,0.5,0.1,0.8,0.1c1.1,0,2.2,0.1,3.3,0.4c1.3,0.4,2.6,0.9,3.1-0.8c0.2-0.8,0.4-1.7,0.4-2.5c0.2-3,0.9-5.8,1.9-8.5
		c1-2.7,2.1-5.3,3.1-8c1.5-4.2,4-7,7-9.3c0.8-0.6,1.7-1.2,2.5-1.9c2-2.2,4.4-3.7,6.9-4.9c0.9-0.4,1.9-1,2.4-1.8
		c1.8-2.7,4.1-4.1,6.8-4.9c1.9-0.6,3.7-1.5,5.6-2c3.7-1,7.4-2.6,11.1-1.5c2.3,0.6,4.1,0,5.9-1.4c0.4-0.3,0.7-0.9,1.1-1.4
		c-0.4-0.4-0.7-1-1.2-1.2c-1.6-0.6-3.2-1.2-4.8-1.6C612.8,387.6,610.5,387.1,609,386.7z M576.6,523.3c0.1-2.1,0.1-4.2,0.4-6.2
		c0.3-1.8,0.8-3.8,1.7-5.2c1.6-2.6,3.4-5.1,5.4-7.2c5.3-5.2,11.2-9,17.4-12.2c0.5-0.3,1.1-0.5,1.6-0.6c8.6-2.6,17.3-3.3,26.2-2
		c2.6,0.4,5.2,1.8,7.7,0.5c0.8-0.4-0.2-1.2-7.1-4.2c-2.7-1.2-5.4-1.7-8.2-1.5c-5.3,0.3-10.6,0.8-15.9,1c-9.9,0.3-18.4,5.1-25.9,12.8
		c-2.4,2.4-4.4,5.3-6.8,7.8c-3.4,3.6-5.2,7.9-5.2,13.6c0,4.6,0.2,5.6,3.7,7.7C576.7,530.5,576.7,530.4,576.6,523.3z M858.9,544.9
		c0.9-0.2,2.3-0.3,3.7-0.7c4.2-1,8.4-2.2,12.7-3.1c2.7-0.6,4.9-2.4,7.2-4c0.2-0.1,0.4-0.8,0.3-0.9c-0.2-0.3-0.6-0.7-0.9-0.7
		c-3.6,0.3-7.2,0.8-10.8,1.1c-1.4,0.1-2.8,0-4.1-0.4c-5.1-1.7-10.2-3.6-15.2-5.5c-2.4-0.9-4.8-2-6.9-3.5c-3-2.2-5.7-4.9-8.6-7.4
		c-1.5-1.3-2.9-2.8-4.3-4.1c-0.3-0.2-0.8-0.2-1.1,0c-0.2,0.1-0.4,0.6-0.3,0.9c0.5,4.3,0.3,8.6-0.2,12.9c-0.2,1.7,0.5,3,1.8,3.8
		c0.7,0.5,1.6,0.8,2.3,1.1c2.6,1.1,5.3,2.1,7.4,4.6c5.2,2.4,10.3,5.1,15.9,6.1C857.9,544.9,858.1,544.9,858.9,544.9z M795.1,410.4
		c-3.3,0.4-6.8,0.5-9.4,3.3c-1.9,2-4.2,3.6-5.2,6.6c-0.2,0.5-0.8,1-1.3,1.2c-1.8,0.7-2.1,2.6-2.4,4.4c-0.3,1.6,0.5,2.7,1.9,2.5
		c3.5-0.4,6.9-0.7,10.4-1.2c3.4-0.4,20.8,1,24.1,2c1.7,0.5,3.3,1.9,5.2,0.9c0.2-3-2.1-4.2-3.1-6.3c-0.1-0.1-0.2-0.2-0.3-0.3
		c-2.5-2.5-4.9-5.2-7.5-7.5C803.7,412.8,799.9,409.9,795.1,410.4z M731.4,497.2c-0.8-2.3-2.3-2.9-3.4-3.8c-4.2-3.4-7.3-7.9-10.1-13
		c-1.5-2.7-3.3-5.2-5.1-7.5c-1.8-2.2-4-3.1-6.5-2.3c-1.9,0.6-3.8,1-5.7,1.5c-1.5,0.4-3,0.9-4.5,1.4c-0.3,0.1-0.9,0.8-0.8,1
		c0.2,0.5,0.6,1.2,1,1.4c2.5,1.2,4.9,2.4,7.5,3.3c3.8,1.4,6.1,4.6,8,8.6c1.4,3.1,1.9,6.1,0.4,9.3c-1,2-1.8,4.1-2.9,6.8
		c1.5-0.1,2.7,0.2,3.6-0.3c3.3-1.6,6.8-2,10.2-2.6C725.9,500.5,728.7,499.3,731.4,497.2z M806.4,545.7c0.3,0.3,0.5,0.5,0.8,0.8
		c3.8-3.4,7.9-6.3,10.5-11.5c0.4-0.7,0.7-1.5,1-2.3c0.7-1.7,1.3-3.5,2-5.2c1.3-3.3,1.5-6.6,0.8-10.1c-0.4-1.8-0.8-3.7-1.3-5.5
		c-1-4.1-2.9-7.6-5.1-10.6c-2.7-3.6-6.2-5.2-10.1-5.7c-0.2,0-0.6,0.2-0.7,0.5c-0.1,0.2-0.1,0.7,0,1c0.3,0.6,0.6,1.1,1,1.6
		c2.3,3.1,3.8,6.7,5,10.7c1.3,4.6,1.1,9.3,1.3,13.9c0.2,7.1-1,13.8-4.1,19.8C807.1,544,806.8,544.9,806.4,545.7z M574.3,439.6
		c0,2.3,0.6,3.9,2.2,4.9c1.8,1,3.5,2.2,5.2,3.3c4.2,2.7,4.1,2.7,4.8-2.8c0.5-4.1,0.7-8.3,2.1-12.2c0.8-2.2,1.2-4.6,2.1-6.8
		c0.9-2.3,1.8-4.9,3.4-6.4c2.3-2.3,4.3-5,6.3-7.6c0.6-0.8,1.2-1.8,1.5-2.9c0.2-0.7-1.3-0.6-2.9,0.6c-0.4,0.3-0.7,0.5-1.1,0.8
		c-2.9,2.8-6.1,4.8-9.4,6.7c-3.1,1.8-5.6,4.5-7.6,7.9c-1.5,2.5-2.9,5.1-4.5,7.5C575.1,434.7,574.5,437.2,574.3,439.6z M787.7,469
		c-1.3,0.3-2.7,0.5-4,1.1c-2.4,1-4.7,2.3-7.1,3.2c-3.9,1.3-6.8,4.6-10.1,7.3c-0.4,0.4-0.7,1-1,1.6c-0.7,1.3-0.2,2.5,1,2.5
		c3.1,0,6.1-0.5,9.1-1.5c2.1-0.7,4.3-1.6,6.5-1.7c6.3-0.3,12.5-0.8,18.8,0.6c0.9,0.2,1.9,0.2,2.9,0.2c0.4,0,0.9-0.4,1-0.7
		c0.1-0.4,0.1-1.1-0.2-1.4c-1.2-1.5-2.5-2.7-3.7-4.2C797.3,471,792.8,469.5,787.7,469z M555.1,506.4c2.6-0.5,5.2-0.9,7.8-1.7
		c1-0.3,1.8-1.5,2.6-2.4c1.9-2.3,3.7-4.7,5.6-7c2-2.3,1.7-3.4-0.7-4.9c-1.6-1-3.1-2.3-4.7-3.3c-1.1-0.7-2.2-1.6-3.4-2
		c-2.7-0.8-5.5-1.3-7.7,1.9c-2.3,3.5-4,7.5-5,11.8c-1,4.3,0,6.1,3.4,7.2C553.7,506.2,554.4,506.2,555.1,506.4z M566.1,476
		c2,0.6,3.9,1.5,5.6,2.2c2.9,1.2,5.6,2.7,8.2,4.4c0.3,0.2,0.6,0.4,0.9,0.4c0.3,0,0.6-0.2,0.8-0.3c0.8-0.6,1.6-1.3,2.3-2.1
		c-8.3-4.4-16.7-8.9-25.7-11.8c-2-0.7-3.9,0-5.9,0.4c-2.2,0.4-4.3,1.2-6.3,2.4c-8.7,5.6-10.8,18.5-4.3,27.7c0.4,0.5,1.2,0.4,1.4-0.3
		c0.4-1.5,0.5-3.1,1.1-4.4c2-4,4-8,6.3-11.7c2.7-4.5,6.9-7.6,12.2-7.4C563.9,475.4,565,475.7,566.1,476z M742.9,405.1
		c1.3,1.2,2.3,1.9,3.1,2.8c1.7,1.8,3.6,3.4,4.9,5.6c2,3.6,4.3,7.3,4.2,12.2c0,1.9-0.1,3.5-1.5,4.5c-1.4,1.1-2.1,2.7-2.5,4.6
		c-0.3,1.6-0.9,2.8-2.1,3.7c-2.5,1.9-4.9,4-7.4,5.9c-0.9,0.7-2.6,0.6-2.2,2.4c0.2,1,1.7,1.6,2.6,2.3c1.2,0.8,2.4,0.1,3.6-0.4
		c4-1.8,7.2-5.2,10.7-8.1c2.1-1.8,3-3.9,2.7-7c-0.5-5.2-0.8-10.4-1.8-15.4c-1-5.4-3-10.5-6.3-14.5c-1.9-2.3-3.3-2.6-5.6-1.1
		C744.7,403.3,744.1,404,742.9,405.1z M678.3,489c0.7,0.6,1.4,1.4,2.2,1.9c2.6,1.8,5,3.6,6.2,7.3c0.2,0.7,1,1.4,1.5,1.5
		c3.9,0.9,7.8,1,11.5-1c2.5-1.3,3.1-3.7,1.9-6.8c-1.3-3.1-3.4-5.1-6-6.1c-5.9-2.3-11.5-0.7-17,2.3
		C678.6,488.3,678.5,488.5,678.3,489z M888,469.8c1.3-0.1,2.5,0,3.7-0.3c0.8-0.2,1.6-0.8,2.1-1.5c1.2-1.8,1.3-5.6,0-7.3
		c-3.1-4-5.8-6.7-11.1-4.6c-2.8,1.1-5.5,2.5-8.2,3.8c-1.1,0.5-2.9,0.6-2.7,2.6c0.1,1,1.4,2,2.2,2.9c0.5,0.5,1.2,0.9,1.8,1.2
		C879.8,468,883.7,469.7,888,469.8z M711.7,438.5c0.2,0.5,0.2,0.7,0.3,0.8c3.6,2.2,6.5,1.7,9.1-1.5c0.6-0.7,1.2-1.5,1.7-2.3
		c0.5-1,1-2.1,1.3-3.2c0.2-0.7,0-1.7-0.4-2.3c-0.2-0.4-1-0.5-1.5-0.3c-0.8,0.2-1.6,0.6-2.3,1.2c-2.2,1.9-4.3,3.8-6.5,5.8
		C712.7,437.1,712.2,437.9,711.7,438.5z M722.4,404.6c-1,0.8-2,1.6-3,2.3c0.6,0.6,1.5,0.7,2.3,0.5c0.8-0.1,1.5-0.5,2.3-0.9
		c3.8-2,8.2-3.1,12.5-2.6c0.4,0,0.9,0,1.2-0.2c0.5-0.3,1-0.7,1.2-1.3c0.3-0.8,0.4-1.7,0.4-2.5c0-1.7-0.8-2.7-2-2.6
		c-0.8,0-1.7,0.2-2.5,0.4C730.4,398.8,726.2,401.7,722.4,404.6z M704.3,415.2C704.3,415.2,704.3,415.2,704.3,415.2
		c-5.9,0.9-12,1.8-17.8,0.6c-1.8-0.4-3.6-1-5.5-1.3c-0.8-0.1-3.2-0.8-3.9-0.2c-0.3,0.2-0.4,0.6-0.5,1c-0.3,1.2-0.4,2.4-0.4,3.6
		c0,0.3,0,0.6,0.2,0.9c0.1,0.2,0.4,0.3,0.6,0.4c5,2.6,10.9,2.8,16.2,1.5c2.8-0.6,5.4-1.6,7.9-3c0.8-0.4,2.1-1,2.7-1.7
		C704,417,704.5,415.4,704.3,415.2z M910.8,503.4c-0.8-0.5-1.2-1-1.6-1c-0.9,0-1.6,1-1.4,1.9c0.1,0.5,0.9,1.2,1,1.1
		C909.5,505,910,504.3,910.8,503.4z M666.2,483.9c-0.1-0.3-0.2-0.8-0.3-0.8c-0.8,0-1.6,0-2.3,0.2c-0.1,0-0.3,1-0.1,1.2
		C664.4,485.4,665.8,485,666.2,483.9z"/>
	<g>
		<g>
			<path class="st7" d="M249.3,633.3c12.2,1.7,24.5-3.1,34.9-9.7c4-2.5,8.2-5.9,8.7-10.7c0.7-6.5-5.5-11.4-11.4-14.2
				c-13.7-6.4-59.7-19.2-57.2,10.9C225.4,622,237.1,631.7,249.3,633.3z"/>
			<path class="st2" d="M6.8,550c3.3-2,6.6-4.3,10.1-6.1c4.6-2.4,9.4-4.1,14.8-3.4c3.4,0.4,6.7,1.8,9.9,3.2
				c4.1,1.8,8.3,3.6,12.4,5.3c0.7,0.3,1.5,0.6,2,1.2c0.9,0.9,1.1,2.4,1,3.7c-1.2,9.4-14.8,9.3-16.1,18c-1.1,6.8,2.1,16.6-6.5,20.1
				c-3.7,1.5-7.8,0-11.5-1.4c-6.5-2.6-13-5.2-19.4-7.8c-1.1-0.5-2.3-1-3.4-1.6v277.1c15.9,3.3,32.5,3.4,48.8,3.1
				c19.4-0.4,39-1.4,57.5-7.3c18-5.8,34.3-16.2,49.3-28c47.5-37.2,82.8-87.7,116.6-138c9-13.4,18.9-27.6,33.9-33.2
				c14-5.2,30.1-1.8,44.1-7.1c20.9-7.9,30.6-36.9,18.7-56c-8.2-13.2-23.3-20-37.6-25.6c-95.1-37.1-197.9-54.1-299.7-49.5
				c-10.5,0.5-21.1,1.2-31.5,2.6v37.9C1.6,554.4,3.8,551.8,6.8,550z M217.8,593c12.1-25.5,47.4-10.7,67.7-6.3
				c5.2,1.1,10.7,2.4,14.4,6.3c4.3,4.6,4.9,11.8,3.7,18c-2.3,11.3-10.2,21.3-20.6,26c-6.5,3-13.8,3.9-20.9,4.2
				c-6.4,0.3-13,0-19.2-1.7c-9.6-2.6-18.4-8.8-23.4-17.5C214.3,613.3,213.5,602.1,217.8,593z M225.4,678.2c2.3,2.6,4.4,5.8,4.1,9.3
				c-0.2,2.5-1.6,4.8-2.4,7.2c-2.4,6.9-0.1,15.5-4.8,21.1c-2.5,2.9-6.3,4.1-9.9,5.1c-5.1,1.4-10.3,2.4-15.6,3
				c-3.5,0.5-7.3,0.7-10.5-0.9c-4.1-2-6.4-6.6-7.6-11.1c-1.2-4.5-1.8-9.2-3.9-13.3c-1.3-2.6-3.3-5-3.9-7.9c-0.7-3.5,0.9-7.2,3.4-9.8
				c6.9-7.1,17.3-8.4,26.4-7.8C210.9,673.7,217.7,669.3,225.4,678.2z M140.2,549.8c3.1-3.2,6.6-5,10.5-5.9c10.9-2.3,23.8,3.3,32.8,8
				c3.8,2,7.7,4.1,10.4,7.5c5.9,7.4,4.1,18.4,0.3,27.1c-2.7,6-6.5,12-12.4,14.7c-12.1,5.5-35.6-4.7-37.6-18.7
				c-0.8-5.4-0.3-11.3-3.2-16c-1.1-1.8-2.6-3.3-3.4-5.2C135.9,557.5,137.3,552.8,140.2,549.8z M87.2,741.6c1.9-2.7,5.5-3.6,8.8-3.9
				c7.6-0.9,16.1,2,23.3,0.7c7.1-1.3,12.3-8.1,20.1-7.2c7.8,0.8,12.7,9,14.9,16.6c1.9,6.8,2.7,14.5-0.8,20.6c-2,3.4-5.1,6-7.2,9.4
				c-1.6,2.6-2.7,5.6-4.9,7.5c-1.2,1.1-2.8,1.7-4.3,2.3c-8.1,3.3-16.5,5.9-25.1,7.7c-5.3,1.1-11.2,1.8-15.8-1.2
				c-5.3-3.5-6.8-10.7-6.7-17.1c0.1-6.4,1.4-13-0.3-19.1C87.6,752.4,83.9,746.3,87.2,741.6z"/>
			<path class="st3" d="M396.8,594.2c-11.3-22.3-33.4-36.7-55.5-47.9c-59.2-30-124.9-44.6-190.6-52.5c-25.2-3.1-50.4-5.2-75.8-5.6
				c-25.5-0.4-50.7,0.2-74.9,5.2v6.2c5.1-1.8,10.1-3.1,15-3.6c20.3-2.1,44,3.4,64.1,6.1c42.7,5.6,85,13.8,127.2,22.1
				c30,5.8,60.1,11.7,89,21.7c17.6,6,34.6,13.6,51,22.5c11.1,6,22.1,12.9,29.8,23c7.7,10.1,11.7,23.9,7.2,35.8
				c-4.1,11.1-14.6,18.6-25.5,22.9c-10.9,4.4-22.6,6.3-33.6,10.2c-16,5.7-30.4,15.7-41.5,28.8c-9.7,11.5-16.7,25-24.4,37.9
				c-26.3,44-62.6,81.8-105.2,109.7c-12.5,8.2-25.6,15.5-39.7,20c-15,4.8-30.9,6.2-46.6,7.4c-22.3,1.6-44.7,2.6-67,0.9v11.3
				c6.4,0.9,12.9,1.4,19.2,1.7c44.3,2,89.3-3.3,130.3-20.3s77.7-46.4,99.3-85.6c10.5-19,17.3-39.9,27.9-58.8
				c10.6-18.9,26.1-36.5,46.8-42.3c19.4-5.4,41.6-0.1,59.1-10.2C404.2,648.3,408.1,616.5,396.8,594.2z"/>
			<path class="st3" d="M31.5,516.7c101.9-4.6,204.6,12.4,299.7,49.5c14.4,5.6,29.5,12.4,37.6,25.6c11.8,19.1,2.1,48.1-18.7,56
				c-14,5.3-30.1,1.9-44.1,7.1c-15,5.6-24.9,19.8-33.9,33.2c-33.8,50.3-69.1,100.8-116.6,138c-15,11.7-31.3,22.1-49.3,28
				c-18.5,6-38.1,6.9-57.5,7.3c-16.3,0.3-32.9,0.2-48.8-3.1v6.5c22.2,1.7,44.7,0.7,67-0.9c15.7-1.1,31.5-2.6,46.6-7.4
				c14.2-4.5,27.3-11.9,39.7-20c42.6-27.9,78.9-65.7,105.2-109.7c7.7-12.9,14.7-26.5,24.4-37.9c11-13,25.5-23.1,41.5-28.8
				c11-3.9,22.7-5.8,33.6-10.2c10.9-4.4,21.4-11.8,25.5-22.9c4.4-11.9,0.5-25.8-7.2-35.8c-7.7-10.1-18.7-17-29.8-23
				c-16.3-8.9-33.4-16.4-51-22.5c-28.9-9.9-59-15.8-89-21.7c-42.3-8.2-84.5-16.5-127.2-22.1c-20.1-2.6-43.9-8.1-64.1-6.1
				c-4.9,0.5-9.9,1.8-15,3.6v19.8C10.4,517.9,21,517.2,31.5,516.7z"/>
			<path class="st3" d="M231.4,631.6c4.6,2.6,10,3.1,15.2,3.4c5.1,0.2,10.3,0.2,15.4-0.1c7-0.4,14.2-1.3,20.7-4.1
				c6.5-2.8,12.3-7.8,14.9-14.5c11.2-28.8-42.2-31.7-58.6-29.6c-4.8,0.6-9.6,1.6-13.8,4.1c-4.2,2.4-7.7,6.5-8.5,11.3
				c-0.7,4,0.4,8.2,1.9,12C221.1,621.1,224.9,628.1,231.4,631.6z M281.5,598.7c5.9,2.7,12.1,7.7,11.4,14.2
				c-0.5,4.8-4.7,8.1-8.7,10.7c-10.4,6.6-22.7,11.4-34.9,9.7c-12.2-1.7-23.9-11.3-24.9-23.7C221.9,579.5,267.9,592.3,281.5,598.7z"
				/>
			<path class="st3" d="M242.7,639.5c6.2,1.7,12.8,1.9,19.2,1.7c7.2-0.3,14.4-1.2,20.9-4.2c10.4-4.7,18.3-14.7,20.6-26
				c1.3-6.2,0.7-13.4-3.7-18c-3.7-3.9-9.2-5.2-14.4-6.3c-20.3-4.3-55.6-19.1-67.7,6.3c-4.3,9.1-3.4,20.3,1.6,29
				C224.3,630.7,233.1,636.9,242.7,639.5z M216.6,602.1c0.9-4.8,4.3-8.8,8.5-11.3c4.2-2.4,9-3.5,13.8-4.1
				c16.4-2.1,69.8,0.8,58.6,29.6c-2.6,6.7-8.4,11.6-14.9,14.5c-6.5,2.8-13.6,3.7-20.7,4.1c-5.1,0.3-10.3,0.3-15.4,0.1
				c-5.2-0.2-10.6-0.8-15.2-3.4c-6.4-3.6-10.3-10.5-12.9-17.5C217,610.3,215.9,606.2,216.6,602.1z"/>
			<path class="st5" d="M174.5,680.9c-2.5,2.6-4.1,6.3-3.4,9.8c0.6,2.9,2.5,5.3,3.9,7.9c2.1,4.1,2.6,8.8,3.9,13.3
				c1.2,4.5,3.5,9,7.6,11.1c3.2,1.6,7,1.3,10.5,0.9c5.2-0.7,10.4-1.7,15.6-3c3.6-1,7.4-2.2,9.9-5.1c4.7-5.5,2.5-14.2,4.8-21.1
				c0.8-2.4,2.2-4.6,2.4-7.2c0.2-3.5-1.9-6.6-4.1-9.3c-7.7-8.9-14.6-4.5-24.5-5.1C191.7,672.5,181.3,673.8,174.5,680.9z"/>
			<path class="st4" d="M89.4,777c-0.1,6.4,1.4,13.6,6.7,17.1c4.6,3,10.5,2.3,15.8,1.2c8.6-1.8,17-4.4,25.1-7.7
				c1.5-0.6,3-1.3,4.3-2.3c2.3-2,3.3-5,4.9-7.5c2.1-3.3,5.2-6,7.2-9.4c3.5-6.1,2.8-13.8,0.8-20.6c-2.2-7.6-7.1-15.8-14.9-16.6
				c-7.8-0.8-13,5.9-20.1,7.2c-7.1,1.3-15.7-1.5-23.3-0.7c-3.3,0.4-6.9,1.2-8.8,3.9c-3.2,4.7,0.4,10.8,1.9,16.3
				C90.8,764.1,89.5,770.6,89.4,777z"/>
			<path class="st8" d="M141,566.6c2.8,4.7,2.4,10.6,3.2,16c2.1,14,25.5,24.2,37.6,18.7c5.9-2.7,9.8-8.7,12.4-14.7
				c3.8-8.7,5.6-19.7-0.3-27.1c-2.7-3.4-6.6-5.5-10.4-7.5c-9-4.8-22-10.4-32.8-8c-3.8,0.8-7.4,2.7-10.5,5.9c-2.9,3-4.3,7.7-2.6,11.5
				C138.4,563.3,139.9,564.8,141,566.6z"/>
			<path class="st9" d="M22.9,590.6c3.7,1.5,7.8,2.9,11.5,1.4c8.6-3.5,5.4-13.3,6.5-20.1c1.4-8.7,15-8.6,16.1-18
				c0.2-1.3,0-2.8-1-3.7c-0.6-0.6-1.3-0.9-2-1.2c-4.1-1.8-8.3-3.6-12.4-5.3c-3.2-1.4-6.4-2.8-9.9-3.2c-5.4-0.7-10.2,1-14.8,3.4
				c-3.5,1.8-6.8,4.1-10.1,6.1c-3,1.8-5.2,4.4-6.8,7.3v24c1.1,0.6,2.3,1.1,3.4,1.6C9.9,585.4,16.4,588,22.9,590.6z"/>
		</g>
		<g>
			<path class="st3" d="M195.2,483.6c-2.5-0.6-5.5-0.5-8.6,0.9c-7.3,3.1-17.3,14-22.9,18.9c-16.1,14.2-31.6,28.7-46.4,43.5
				c-25.9,25.8-50.1,53.2-75.3,79.7c-6.1,6.4-22.4,24.2-42,45.6v8.8c12.4-13.4,24.8-26.8,37.1-40.4c16.6-18.4,33.7-36.2,51.4-53.5
				c24-23.5,46.8-48.4,71.2-71.7c4.9-4.7,9.6-9.8,14.8-14.1c3.6-3,8.6-9,13.4-9.3c3-0.2,6.3,2.3,5.9,5.3c-0.1,1-0.7,2-1.2,2.9
				c-5.3,8.5-13.7,14.2-21,20.7c-8,7-15.8,14.1-23.7,21.3c-17.6,16.4-33.8,34.3-50.2,51.9c-26.1,28-53,55.3-79.9,82.5
				c-5.9,6-11.9,12-17.8,18v6.8c5.2-5.4,9.8-10,13.3-13.6c36-36.7,72.6-72.9,109.5-108.7c9.6-9.3,19.2-18.7,28.9-28
				c9-8.7,18.1-17.4,27.4-25.9c6.3-5.8,12.7-11.7,17.4-17.9c2.9-3.9,5.2-7.9,6.1-11.6C197.6,494.2,195.6,489.2,195.2,483.6z"/>
			<path class="st5" d="M17.8,676.6c26.9-27.3,53.8-54.5,79.9-82.5c16.4-17.6,32.6-35.5,50.2-51.9c7.8-7.3,15.7-14.3,23.7-21.3
				c7.4-6.5,15.7-12.2,21-20.7c0.6-0.9,1.1-1.8,1.2-2.9c0.4-3-2.9-5.5-5.9-5.3c-4.9,0.3-9.9,6.3-13.4,9.3
				c-5.2,4.4-9.9,9.4-14.8,14.1c-24.4,23.3-47.2,48.2-71.2,71.7c-17.7,17.3-34.8,35.1-51.4,53.5C24.8,654.1,12.4,667.5,0,681v13.7
				C5.9,688.6,11.9,682.6,17.8,676.6z"/>
			<path class="st3" d="M235.6,441c-3.5,1.9-6.7,4.6-10.6,4.9c0.1-2.6,1.5-6.1,4-5.3c-2.4-1.5-5.5,0.3-7.5,2.4
				c-1.9,2.1-3.7,4.7-6.5,5.3c-1.2,0.3-2.4,0.1-3.5,0.4c-1.7,0.5-2.9,1.9-4,3.3c-4.4,5.6-8.4,11.8-10.6,18.6c-1.2,3.7-2,8.6-1.7,13
				c3.8,0.9,6.5,3.3,7.3,5.7c0.6,1.9,0.6,4,0,6.3c1.9,0.6,4.3,0.6,7.2-0.1c2.2-0.6,4.3-1.7,6.2-3c6.7-4.4,12.5-10.2,16.1-17.4
				c3.4-6.7,4.6-14.3,7.6-21.3c2.9-6.9,8.3-13.6,15.7-14.7C248.8,437.1,241.5,437.8,235.6,441z"/>
			<path class="st3" d="M202.5,489.4c-0.8-2.4-3.5-4.8-7.3-5.7c0.4,5.6,2.4,10.6,7.3,12C203,493.4,203.1,491.2,202.5,489.4z"/>
		</g>
	</g>
</g>
<g id="Topping">
	<g>
		<path class="st4" d="M759.4,142.7c8.3-0.9,15.3,0.9,20.7,7c1.3,1.5,1.4,1.5,3.2,0.8c5.3-2.3,10.8-2.6,16.5-2
			c4.2,0.4,8.1,1.7,11.8,3.2c2.1,0.9,3.9,2.2,5.8,3.5c6.3,4.3,11.4,9.7,14.9,16.5c2.5,4.9,4.3,10.1,4.6,15.6
			c0.1,1.1-0.2,2.2-0.5,3.2c-0.3,1.2-0.1,1.8,1.2,2.3c3,1,5.5,2.9,7.6,4.9c3.8-0.8,7.4-1.6,11-2.2c11.1-1.7,20.3,1.9,27.6,10.2
			c2.5,2.9,3.8,6.5,4.5,10.4c0.7,3.9,0.2,7.6-2.5,10.4c-1.6,1.7-3.2,3.6-5.7,4.5c-1.7,0.6-3.3,1.7-5.1,2c-2.3,0.5-4.4,0-6.5-0.7
			c-0.4-0.1-0.7-0.5-1-0.5c-1.4,0-2.7-0.1-4-0.7c-1.2-0.6-2.6-0.9-3.9-1.3c-0.5,1.4-0.8,2.9-1.4,4.2c-1,2.5-3.3,3.5-5.7,3.8
			c-4.5,0.5-8.7-0.4-11.9-3.9c-1.1-1.2-2.2-2.4-3.3-3.6c-0.2,0.2-0.5,0.2-0.6,0.4c-0.7,2.2-2.8,3-4.3,4.3c-0.6,0.5-1.5,0.8-2.2,1.2
			c-0.2,0.1-0.5,0.1-0.7,0.2c-4.7,3.2-10.3,2.6-15.4,3.5c-2.5,0.4-5.2-0.4-7.8-0.9c-6.4-1.1-11.4-4.7-15.8-9.3
			c-0.4-0.4-0.7-1-1.1-1.5c-0.3-0.5-0.7-1-1.2-1.6c-0.6,0.5-1.1,0.9-1.5,1.3c-1,1.1-1.8,2.3-2.8,3.4c-1.6,1.8-3.7,2.8-6,3.4
			c-6.4,1.7-13,2.8-19.6,2.5c-2.3-0.1-4.6-0.7-6.9-1.1c-1.9-0.3-3.8-0.9-5.7-1.1c-7-0.9-12.8-4.1-18-8.7c-1.6-1.4-3.1-3-4.7-4.6
			c-0.9,3.6-3.7,5.4-6.6,7.2c-2.1,1.2-4.5,1.6-6.9,2c-6.2,1.1-12.4,1.5-18.6,1.2c-5.7-0.3-11.4-0.6-16.8-2.5
			c-4.4-1.5-8.5-3.9-11.7-7.5c-1-1.1-2.1-2-3.2-3.1c-0.3,0.3-0.5,0.5-0.6,0.7c-2.1,4.3-5.8,5.6-10.2,5.7c-2.6,0.1-5.1-0.2-7.7-0.3
			c-4.7-0.2-8.7-1.9-12.2-5.1c-1.9-1.7-3.7-3.5-5.6-5.4c-0.6,0.8-1.2,1.5-1.8,2.3c-1.7,2.4-4,2.8-6.6,2.2c-3.7-0.9-6.8-2.9-9.7-5.3
			c-1.9-1.6-3-3.5-3.9-5.7c-1-2.4-2-4.7-2.2-7.3c-0.3-3.8,0.5-7.2,3.1-10c2.1-2.4,4.2-4.8,7.3-6.1c2-0.8,4-1.1,6.2-0.8
			c1.7,0.2,3.4,0.5,5,0.7c0.2-2.4,0.1-4.8,0.6-7c1.1-6.1,3.8-11.4,9-15.1c1.9-1.3,4-2.5,6.2-3.1c6-1.6,12.2-1.7,18.3-0.1
			c0.1,0,0.3,0,0.5,0c0.1-0.1,0.3-0.3,0.2-0.4c-0.9-6.9,1.6-13,4.4-19.1c1.4-2.9,2.8-5.9,4.7-8.6c2-2.8,4.3-5.5,7-7.7
			c5.9-4.9,12.6-8.3,19.8-10.5c5.1-1.6,10.3-2.3,15.7-2.1c6.6,0.2,13.2,1.1,19.6,2.7c4.5,1.2,8.3,3.4,12.3,5.5
			c5.8,3,10.3,7.6,14.7,12.3c2.4,2.6,4.2,5.8,5.5,9.2C758.9,141.5,759.2,142.2,759.4,142.7z"/>
		<path class="st3" d="M759.4,142.7c8.3-0.9,15.3,0.9,20.7,7c1.3,1.5,1.4,1.5,3.2,0.8c5.3-2.3,10.8-2.6,16.5-2
			c4.2,0.4,8.1,1.7,11.8,3.2c2.1,0.9,3.9,2.2,5.8,3.5c6.3,4.3,11.4,9.7,14.9,16.5c2.5,4.9,4.3,10.1,4.6,15.6
			c0.1,1.1-0.2,2.2-0.5,3.2c-0.3,1.2-0.1,1.8,1.2,2.3c3,1,5.5,2.9,7.6,4.9c3.8-0.8,7.4-1.6,11-2.2c11.1-1.7,20.3,1.9,27.6,10.2
			c2.5,2.9,3.8,6.5,4.5,10.4c0.7,3.9,0.2,7.6-2.5,10.4c-1.6,1.7-3.2,3.6-5.7,4.5c-1.7,0.6-3.3,1.7-5.1,2c-2.3,0.5-4.4,0-6.5-0.7
			c-0.4-0.1-0.7-0.5-1-0.5c-1.4,0-2.7-0.1-4-0.7c-1.2-0.6-2.6-0.9-3.9-1.3c-0.5,1.4-0.8,2.9-1.4,4.2c-1,2.5-3.3,3.5-5.7,3.8
			c-4.5,0.5-8.7-0.4-11.9-3.9c-1.1-1.2-2.2-2.4-3.3-3.6c-0.2,0.2-0.5,0.2-0.6,0.4c-0.7,2.2-2.8,3-4.3,4.3c-0.6,0.5-1.5,0.8-2.2,1.2
			c-0.2,0.1-0.5,0.1-0.7,0.2c-4.7,3.2-10.3,2.6-15.4,3.5c-2.5,0.4-5.2-0.4-7.8-0.9c-6.4-1.1-11.4-4.7-15.8-9.3
			c-0.4-0.4-0.7-1-1.1-1.5c-0.3-0.5-0.7-1-1.2-1.6c-0.6,0.5-1.1,0.9-1.5,1.3c-1,1.1-1.8,2.3-2.8,3.4c-1.6,1.8-3.7,2.8-6,3.4
			c-6.4,1.7-13,2.8-19.6,2.5c-2.3-0.1-4.6-0.7-6.9-1.1c-1.9-0.3-3.8-0.9-5.7-1.1c-7-0.9-12.8-4.1-18-8.7c-1.6-1.4-3.1-3-4.7-4.6
			c-0.9,3.6-3.7,5.4-6.6,7.2c-2.1,1.2-4.5,1.6-6.9,2c-6.2,1.1-12.4,1.5-18.6,1.2c-5.7-0.3-11.4-0.6-16.8-2.5
			c-4.4-1.5-8.5-3.9-11.7-7.5c-1-1.1-2.1-2-3.2-3.1c-0.3,0.3-0.5,0.5-0.6,0.7c-2.1,4.3-5.8,5.6-10.2,5.7c-2.6,0.1-5.1-0.2-7.7-0.3
			c-4.7-0.2-8.7-1.9-12.2-5.1c-1.9-1.7-3.7-3.5-5.6-5.4c-0.6,0.8-1.2,1.5-1.8,2.3c-1.7,2.4-4,2.8-6.6,2.2c-3.7-0.9-6.8-2.9-9.7-5.3
			c-1.9-1.6-3-3.5-3.9-5.7c-1-2.4-2-4.7-2.2-7.3c-0.3-3.8,0.5-7.2,3.1-10c2.1-2.4,4.2-4.8,7.3-6.1c2-0.8,4-1.1,6.2-0.8
			c1.7,0.2,3.4,0.5,5,0.7c0.2-2.4,0.1-4.8,0.6-7c1.1-6.1,3.8-11.4,9-15.1c1.9-1.3,4-2.5,6.2-3.1c6-1.6,12.2-1.7,18.3-0.1
			c0.1,0,0.3,0,0.5,0c0.1-0.1,0.3-0.3,0.2-0.4c-0.9-6.9,1.6-13,4.4-19.1c1.4-2.9,2.8-5.9,4.7-8.6c2-2.8,4.3-5.5,7-7.7
			c5.9-4.9,12.6-8.3,19.8-10.5c5.1-1.6,10.3-2.3,15.7-2.1c6.6,0.2,13.2,1.1,19.6,2.7c4.5,1.2,8.3,3.4,12.3,5.5
			c5.8,3,10.3,7.6,14.7,12.3c2.4,2.6,4.2,5.8,5.5,9.2C758.9,141.5,759.2,142.2,759.4,142.7z M771.6,151.9c-3.5-0.5-7,0.2-10,2
			c-0.3,0.2-0.6,0.3-0.9,0.3c-2.8,0.3-5.6-0.1-8.2-1.3c-1.3-0.7-2.1-1.7-2.2-3.3c-0.1-2.3-0.2-4.5-0.6-6.8c-0.4-2.6-0.8-5.3-2.6-7.4
			c-4.7-5.4-10.7-9-17.4-11c-8.5-2.6-17.3-3.3-26.1-1.2c-1.7,0.4-3.3,0.8-4.9,1.3c-3.2,1-6.5,2.1-9.7,3.3c-1.3,0.5-2.5,1.6-3.8,2.3
			c-2.9,1.7-5.6,3.8-7.7,6.4c-1.4,1.8-3.2,3.2-4.7,4.8c-0.8,0.9-1.5,1.8-2.2,2.7c-2.8,3.7-4.5,8-6.7,12c-0.2,0.5-0.2,1.1-0.4,1.6
			c-0.2,0.9-0.4,1.8-0.8,2.6c-1,1.9-0.8,3.3,0.6,5c0.7,0.8,1.2,1.8,1.5,2.8c0.2,0.5-0.1,1.2-0.4,1.7c-0.8,1.6-2.3,0.7-3.5,0.8
			c-2.2,0.3-3.9-0.6-5.2-2.4c-0.6-0.9-1.4-1.5-2.6-1.1c-0.5,0.2-1.1,0-1.6,0.1c-2.7,0.3-5.5-0.2-8,1.1c-2.3,1.2-4.5,2.4-6.8,3.6
			c-1.1,0.5-1.9,1.3-2.5,2.3c-2,3.4-3.6,7-5.9,10.2c-0.7,1-0.7,2.2,0.1,3.3c0.4,0.6,1,1.1,1.1,1.7c0.2,0.7,0.2,1.5-0.1,2.2
			c-0.3,0.7-1,0.4-1.6,0.2c-0.7-0.3-1.5-0.4-2.1-0.8c-2.5-1.4-5.1-1.1-7.1,0.4c-2.3,1.7-4.9,3.3-6.3,6.1c-0.9,1.7-1.5,3.6-2.2,5.4
			c-0.1,0.3-0.1,0.6,0,0.9c0.1,1,0.4,1.9,0.4,2.9c0,2.4,0.3,2.7,2.7,2.4c0.3,0,0.6-0.1,0.9-0.2c2.9-0.7,5.9-1.3,9-2
			c0.3,0.6,0.6,1.3,1,2c0.3,0.5,0.5,1.1,0.9,1.6c0.9,1,1.8,1.9,2.7,2.9c0.8,1,1.8,1.5,3.1,1.5c2.7,0,5.4,0.2,8-0.2
			c2-0.3,4-1.2,5.9-2.1c3-1.4,5.8-3,8.7-4.6c1.1-0.6,1.8-0.5,2.5,0.6c0.8,1.3,1.6,2.6,3,3.5c2.3,1.5,4.4,3.3,6.6,4.8
			c1.2,0.8,2.6,1.7,3.9,1.9c3.3,0.5,6.6,0.9,10,1c4.6,0.2,9.2,0.2,13.8,0c3.6-0.2,7.3-0.6,10.9-1.4c4.2-0.9,8.2-2.4,12.3-3.7
			c0.7-0.2,1.2-0.9,1.7-1.4c1.1-0.2,2.2-0.4,3.5-0.7c0.2,0.4,0.5,1,0.9,1.4c0.5,0.7,1,1.4,1.7,1.9c1.8,1.4,3.8,2.6,5.6,4.1
			c1.7,1.5,3.7,2.2,5.9,2.5c0.4,0.1,0.8-0.1,1.1,0.1c4.8,1.7,9.8,2.4,14.9,2.3c3.8-0.1,7.6-0.6,11.4-1.1c2.6-0.4,5.2-1.1,7.7-1.9
			c3.6-1.1,6.6-3.1,9.8-5c1.4-0.8,2.9-1.5,3.1-3.1c1-0.1,1.9,0,2.6-0.3c0.9-0.3,1.6-0.8,2.4-1.2c0.2,0.1,0.3,0.2,0.3,0.2
			c0.1,0.1,0.2,0.3,0.1,0.4c-0.8,3.6,0.3,6.5,3.1,8.8c0.3,0.2,0.5,0.6,0.7,0.9c1.7,3.1,4.3,4.8,7.8,5.3c0.5,0.1,0.9,0.2,1.4,0.3
			c4.2,0.9,8.4,0.5,12.6-0.1c3.4-0.5,6.8-1.6,10.1-2.8c2.4-0.9,4.5-2.5,6.9-3.4c1.3-0.5,2.1-1.2,1.9-2.8c0.8,0.4,1.5,0.7,2,1
			c0.6-0.3,1.1-0.6,1.7-0.9c1.2,2.4,2.4,4.6,3.3,6.9c0.6,1.5,1.7,2,3.1,2c3.2,0.1,6.2-0.6,8.4-3.1c1-1.1,2.2-2.1,3.3-3.2
			c1,1,1.7,2.1,2.6,2.5c1.1,0.4,2.5,0.1,3.7,0.1c0.5,0,0.9,0,1.4,0c1.9,0.1,3.7-0.4,5.4-1.4c3.6-2.1,6.1-5.2,7.3-9.1
			c1.7-5.3,0.2-7.4-5-8.2c-4.2-0.7-8.5-0.2-12.8,0.1c-1.9,0.1-3.9,0.4-5.8,0.7c-0.7,0.1-1.5,0.2-1.9,0.7c-1.2,1.5-2.8,1.3-4.3,0.9
			c-1.6-0.4-3.1-1.2-4.6-1.6c-2.9-0.8-4.4-2.9-5.2-5.5c-0.8-2.5-0.7-2.6-3.3-2.5c-0.6,0-1.2,0.2-1.8,0.3c-2.3,0.6-4.7,0.8-7.1,0.1
			c-2.2-0.6-4.4-0.9-6.7-1.3c0-0.5,0.2-1.3,0.1-1.9c-0.3-1.1,0.1-1.8,0.9-2.4c0.5-0.4,1.1-0.9,1.6-1.4c0.7-0.7,1.5-1.4,1.9-2.3
			c2.3-4.2,3.1-8.8,2.5-13.6c-0.4-3.1-1.3-6.2-3.4-8.6c-3.2-3.7-6.9-7-12.1-7.8c-3.1-0.5-6.2-1.2-9.2-1.1c-2.6,0.1-5.1,1.1-7.7,1.9
			c-1.5,0.4-2.9,1-4.3,1.7c-1.4,0.7-3,1.2-4,2.6c-0.6,0.8-1.6,1.4-2.7,1.1c-3-0.8-6-1.7-8.9-2.6c-1.8-0.5-2-1.2-1.1-2.7
			c0.2-0.3,0.4-0.6,0.8-1.1c-1.2-0.4-1.1-1.3-0.9-2.2c0.2-0.8,0.5-1.6,0.7-2.5C771.9,154.2,772.3,153,771.6,151.9z"/>
		<path class="st3" d="M750.1,245.2c1.9,1,2.4,2.7,3.1,4.2c1.8,3.5,1.4,6.9-0.3,10.4c-1.8,3.7-4.2,6.7-7,9.5c-0.9,0.9-1.7,2-2.6,3
			c-2.8,2.8-4.7,2.2-7.9,0.1c-1.9-1.2-3.6-2.9-5.4-4.4c-0.4-0.3-1-0.5-1.8-0.9C736.8,260.4,743.9,253.4,750.1,245.2z"/>
		<path class="st3" d="M721.8,321.7c6.7-4,12.1-9.2,17.7-14c2.5,1.1,4.5,4.3,4.4,6.8c0,0.9,0.1,1.8,0.1,2.7c0,3.5-2.3,5.8-4.5,8.1
			c-0.6,0.6-1.4,1-2,1.6c-2.7,3.3-6.8,1.8-9.2,0c-2-1.5-3.9-3-5.9-4.6C722.2,322.3,722,322.1,721.8,321.7z"/>
		<path class="st3" d="M635.5,260c6.7-5.7,12.6-11.7,19.1-16.9c1.2,0.7,1.7,1.3,1.4,2.7c-0.2,1,0.1,2.1,0.3,3.2c0.4,2.6-0.5,5-1,7.5
			c-0.5,3-2.6,5.2-4,7.7c-1.5,2.6-4.2,3.2-7.1,1.6C641.3,264,638.5,262,635.5,260z"/>
		<path class="st3" d="M679.7,264.7c6-5.1,11.7-10.1,17.7-15.2c2.1,1.9,3.5,4,3.9,6.8c0.5,4.5-1.7,7.7-5.1,10.3
			c-0.9,0.7-1.7,1.6-2.6,2.4c-2.2,1.9-3.9,2.1-6.4,0.7c-2.2-1.3-4.3-2.7-6.5-4.1C680.3,265.4,680.1,265.1,679.7,264.7z"/>
		<path class="st3" d="M686.8,306.1c0.5,0.6,1.1,1.1,1.4,1.7c1.2,3,2.1,6.2,2,9.5c0,1.4-0.2,2.6-1.4,3.5c-1.9,1.5-3.6,3.2-5.5,4.7
			c-1.1,0.9-2.4,1-3.7,0.4c-2.5-1-4.4-2.9-6.6-4.3c-0.8-0.5-1.4-1.1-2.5-2C677.2,316.4,681.2,310.5,686.8,306.1z"/>
		<path class="st3" d="M695.8,289.7c6.7-4,12.1-9.2,17.7-14c2.5,1.1,4.5,4.3,4.4,6.8c0,0.9,0.1,1.8,0.1,2.7c0,3.5-2.3,5.8-4.5,8.1
			c-0.6,0.6-1.4,1-2,1.6c-2.7,3.3-6.8,1.8-9.2,0c-2-1.5-3.9-3-5.9-4.6C696.2,290.3,696,290.1,695.8,289.7z"/>
		<path class="st3" d="M741.7,295.1c6.7-3.1,11.3-8.5,16.9-12.4c1,0.3,1.8,0.8,2.2,1.9c0.4,1.1,1.1,2.1,1.5,3.1
			c0.7,1.4-0.1,2.8-0.3,4.1c-0.4,3.7-2.5,6.8-5,9.6c-1.7,1.9-4.3,2.2-6.3,0.8c-2-1.3-3.9-2.9-5.8-4.4C744,297,743,296.1,741.7,295.1
			z"/>
		<path class="st3" d="M767.7,266.1c6.7-3.1,11.3-8.5,16.9-12.4c1,0.3,1.8,0.8,2.2,1.9c0.4,1.1,1.1,2.1,1.5,3.1
			c0.7,1.4-0.1,2.8-0.3,4.1c-0.4,3.7-2.5,6.8-5,9.6c-1.7,1.9-4.3,2.2-6.3,0.8c-2-1.3-3.9-2.9-5.8-4.4C770,268,769,267.1,767.7,266.1
			z"/>
		<path class="st3" d="M666.8,274.1c0.5,0.6,1.1,1.1,1.4,1.7c1.2,3,2.1,6.2,2,9.5c0,1.4-0.2,2.6-1.4,3.5c-1.9,1.5-3.6,3.2-5.5,4.7
			c-1.1,0.9-2.4,1-3.7,0.4c-2.5-1-4.4-2.9-6.6-4.3c-0.8-0.5-1.4-1.1-2.5-2C657.2,284.4,661.2,278.5,666.8,274.1z"/>
		<path class="st3" d="M711.5,176c2.4,2.1,4.6,3.8,6,6.2c1,1.6,0.8,3.2-0.6,4.4c-3.8,3.2-8,5.6-12.8,7c-0.5,0.2-1.1,0.2-1.6,0.2
			c-2.7,0.2-5.4,0.6-8.1,0.4c-3.2-0.2-6.5-0.6-9.7-1.2c-1.1-0.2-2.2-1.2-3.2-1.8c-0.6-0.4-1.2-1-1.8-1.5c-0.8-0.5-0.9-1.2-0.6-2.1
			c5,1.2,9.8,0,14.5-1.2c2.6-0.7,5-2.1,7.3-3.4C704.4,180.9,707.9,178.4,711.5,176z"/>
		<path class="st3" d="M769.9,202.7c-1.3-0.2-2.9-0.4-4.3-0.8c-3.2-1.1-6.6-1.9-9.4-3.9c-3.2-2.3-6.5-4.4-9.7-6.8
			c-2.1-1.6-3.3-3.9-3.7-6.6c-0.1-0.6-0.1-1.3-0.1-1.9c0.2-1.8,1.9-2.7,3.5-1.8c1.3,0.7,2.7,1.5,3.6,2.5c2.9,3.4,6.8,4.8,10.8,6.3
			c3.8,1.4,7.6,2.8,11.4,4.2c0.5,0.2,1,0.7,1.4,1.1c1,1.5,1.1,3.2,1.2,4.9c0.1,1.2-0.6,2.1-1.9,2.4
			C771.9,202.5,771.1,202.5,769.9,202.7z"/>
		<path class="st3" d="M748.5,211.5c-2.5,1.1-4.7,1.1-6.9,0.6c-2.4-0.6-4.9-0.8-7.3-1.2c-0.8-0.1-1.7-0.3-2.5-0.6
			c-3.3-1.5-6.7-1.9-10.2-1.3c-1.1,0.2-2.3,0.4-3.4-0.4c-0.2-0.2-0.7-0.1-1-0.1c-1,0-2.1,0.3-3,0.1c-0.8-0.2-1.6-0.9-2.1-1.6
			c-0.5-0.8-0.2-1.7,0.5-2.3c1.2-1.1,2.4-2.2,3.7-3.3c0.2-0.2,0.4-0.4,0.6-0.4c2.3,0.6,4-1.4,6.2-1.3c2.1,0,4.2-0.7,6.2-0.7
			c2.5-0.1,4.6,1.2,6.8,2.3c1.4,0.7,3,1.2,4.5,1.9c0.8,0.4,1.6,0.9,2.3,1.4c2.1,1.2,3.6,3,4.9,4.9
			C748.1,209.9,748.2,210.7,748.5,211.5z"/>
	</g>
	<g>
		<g>
			<path class="st10" d="M541.6,389.4c-0.1-15.4,2.6-29.5,8.7-42.9c2.9-6.4,7.6-11.5,12.4-16.6c2.7-3,5.7-5.7,9.6-6.2
				c7.1-1,14.1-3.2,21.4-2.6c6.4,0.6,12.7,0.8,19.1,1.5c2.3,0.2,4.5,1.2,6.7,2.1c2.5,1.1,5,2.4,7.4,3.8c1.5,0.9,2.7,2.2,4.1,3.3
				c1.1,0.9,2.1,1.8,3.1,2.7c2.5,2,5,3.9,7.6,5.8c2.2,1.7,4.5,3.2,6.6,5c3.2,2.6,6.7,5,9.5,8c6.9,7.4,13.7,14.9,20.1,22.7
				c8.5,10.2,13.5,21.9,13.8,35.4c0.1,5.1,0.7,10.2-0.3,15.3c-1.6,7.7-5.2,14.5-10,20.4c-4.9,6-10.6,11.4-16.2,16.7
				c-6.6,6.3-15,9.5-23.6,11.7c-11.4,2.8-23.1,5-35,4.3c-1.9-0.1-3.9-0.2-5.8-0.6c-8.3-1.7-16.5-4.1-23.9-8.3
				c-6.1-3.4-11.8-7.4-16.2-13.3c-7.3-9.7-11.5-20.5-14.6-32C542.7,413.6,541,401.2,541.6,389.4z"/>
			<path class="st8" d="M616.2,390.7c-5.1,4.2-8.6,10-11.4,16c-2.9,6.5-5,13.5-4.7,20.6c0.3,7.1,3.3,14.3,9,18.5
				c7.2,5.4,17.4,5.1,25.8,2c7.3-2.6,14.1-7.3,17.6-14.2c2.1-4,2.9-8.5,3.3-13c0.7-7.6,0.1-15.5-3.4-22.3
				C645.6,384.8,627.8,381.1,616.2,390.7z"/>
			<path class="st3" d="M658.6,401.9c-2.3-5.9-6.2-10.5-12-13.3c-3.3-1.6-6.6-2.1-10-0.2c1,3.4,6.9,7.1,9.8,9.1
				c3.1,2.2,3.8,6,4.8,9.5c1.3,4.4,1.6,9,1.1,13.6c-0.2,2.1-1.1,4.4-2.4,6.1c-3.5,4.6-7.1,9.3-11.3,13.3c-6.6,6.6-14.9,8.2-23.5,4.8
				c-4.7-1.9-8.5-5.7-10.3-10.8c-0.7-1.9-1.7-3.8-2.5-5.7c-1.3-3.2-1.5-6-0.9-9.4c0.8-4.9,2.6-11.8,6.1-15.5c4.6-5,9.2-10,14-14.8
				c1.3-1.3,3.3-1.7,5.7-2.8c-3-1-5.4-0.8-7.7,0.2c-7.1,2.9-13.6,7.1-18.5,13c-5.7,6.8-9.6,16.5-9.9,25.4c0.1,0.6,0.1,1.2,0.2,1.8
				c0.2,6.2,1.6,12.1,4.6,17.6c3.1,5.6,7.7,9.8,13,13.2c1.1,0.7,2.6,0.9,3.9,1.1c2.3,0.2,4.7,0,7,0.3c10.8,1.5,20.2-1.8,28.9-8
				c6.5-4.6,9.7-11.1,11.9-18.4c0.9-3,1.8-6.1,2.9-9.1c1-2.4,0.7-4.6-0.1-6.9C661.8,411.3,660.4,406.5,658.6,401.9z"/>
			<path class="st3" d="M691.7,411.5c-0.4-13.5-5.4-25.2-13.8-35.4c-6.5-7.8-13.2-15.3-20.1-22.7c-2.8-3-6.3-5.4-9.5-8
				c-2.2-1.7-4.4-3.3-6.6-5c-2.5-1.9-5.1-3.8-7.6-5.8c-1.1-0.8-2.1-1.8-3.1-2.7c-1.3-1.1-2.6-2.4-4.1-3.3c-2.4-1.4-4.9-2.7-7.4-3.8
				c-2.1-0.9-4.4-1.9-6.7-2.1c-6.3-0.7-12.7-1-19.1-1.5c-7.3-0.7-14.3,1.6-21.4,2.6c-3.9,0.5-6.9,3.2-9.6,6.2
				c-4.7,5.1-9.4,10.2-12.4,16.6c-6.1,13.3-8.8,27.5-8.7,42.9c-0.6,11.8,1.1,24.2,4.4,36.3c3.1,11.5,7.3,22.3,14.6,32
				c4.4,5.9,10.1,9.9,16.2,13.3c7.4,4.2,15.6,6.5,23.9,8.3c1.9,0.4,3.8,0.4,5.8,0.6c11.9,0.7,23.6-1.4,35-4.3
				c8.6-2.1,17-5.3,23.6-11.7c5.6-5.4,11.3-10.7,16.2-16.7c4.8-5.9,8.4-12.6,10-20.4C692.4,421.7,691.8,416.6,691.7,411.5z M667,436
				c-4.6,10.8-12.8,18.6-21.7,25.8c-4.5,3.6-9.3,6.8-15.2,7.3c-5.9,0.5-12,1-17.8,0.2c-6-0.8-11.7-3.3-16.3-7.7
				c-1.7-1.6-3.5-3.1-5.1-4.9c-5.3-5.7-8.1-12.9-11.1-19.8c-1.9-4.3-2.9-8.9-4.7-13.1c-2-4.7-3.9-9.6-4.7-14.6
				c-1-6.3-1.8-12.6-2.5-19c-0.8-7.7-1.3-15.5-1.8-23.2c-0.5-7.6,0.5-15.1,3-22.2c2-5.4,5.3-10.3,11.9-11.7
				c4.1-0.8,8.1-1.9,12.3-1.4c2.6,0.3,5.3,0.5,7.9,0.5c5.6,0.1,10.7,1.6,15.2,4.9c4.6,3.4,9.6,6.3,13.8,10
				c8.2,7.2,14.3,16.2,20.1,25.7c0,0.1-0.1,0.1-0.1,0.2c5.5,6.1,9.3,13.7,12.8,21c3.7,7.8,5.8,16.3,6.8,24.8
				C670.5,424.9,669.3,430.6,667,436z"/>
			<path class="st3" d="M626.4,426.2c0.5-0.9,0.4-2.4,0.1-3.3c-0.3-0.7-1-1.3-1.8-1.2c-0.9,0.2-1.3,1.3-1.5,2.3
				c-0.4,1.9-3.4,5.9-2.9,7.7c0.1,0.3,0.6,0.4,0.9,0.4c0.7-0.2,1.2-0.7,1.7-1.1C624.2,429.5,625.4,427.9,626.4,426.2z"/>
			<path class="st3" d="M636.1,414c1.6,0.2,11.1-2.9,7-5.8c-1.8-1.3-6,3.3-7.3,4.3c-0.3,0.2-0.6,0.5-0.6,0.9
				C635.3,413.8,635.8,413.9,636.1,414z"/>
		</g>
		<path class="st3" d="M636.5,427.1c0.3-1.1,0.7-2.3,1.4-3.2c0.7-0.9,1.8-1.7,3-1.6c0.3,0,0.6,0.1,0.8,0.2c0.6,0.4,0.6,1.2,0.3,1.8
			c-0.3,0.6-0.9,1-1.4,1.5c-2.1,1.8-3.2,3.9-4.6,6.2C635.1,430.7,636,428.5,636.5,427.1z"/>
	</g>
	<g>
		<g>
			<path class="st9" d="M811.6,443.5c-11.2-0.2-25.8-7.7-34.3-10.5c-14.3-4.7-28.4-9.7-42.5-15c-6.5-2.5-13-5-19.4-7.6
				c-2.3-0.9-13.7-3.3-14.1-5c-0.7-2.9,22.4-23.5,25.3-26.7c3.8-4.1,8.2-7.6,11.9-11.8c6.3-7,12.2-14.4,18.3-21.6
				c8.3-9.6,15.1-20.3,21.6-31.1c5.2-8.7,10-17.7,15.1-26.5c2.4-4.2,5.1-8.3,7.7-12.4c1.4-2.2,3.6-3.4,6.1-3
				c2.4,0.4,4.7,1.6,6.8,2.8c8.5,4.8,14.9,12.1,22.2,18.4c6.3,5.4,12.3,11.1,18.7,16.4c7.6,6.2,15.6,12,24.2,16.9
				c5,2.9,9.9,6,14.9,9c0.6,0.4,1.3,0.7,1.8,1.2c3.3,3.2,4,5.9,1.2,9.1c-2.3,2.6-3.8,5.9-6,8.7c-8.1,10.4-16.1,20.8-24.5,30.9
				c-4.8,5.9-10.3,11.4-15.3,17.2c-3.5,4.1-6.7,8.4-9.9,12.8c-4.8,6.6-9.6,13.3-14.2,20c-1.8,2.6-4.4,4.3-7.1,5.8
				C817.7,443,814.8,443.6,811.6,443.5z"/>
			<path class="st3" d="M811.9,425.7c2.8-6.5,7.8-11.5,11.7-17.2c1.7-2.6,3.6-5.1,5.4-7.6c1-1.3,1.9-2.8,3-4c1.1-1.2,2.5-2,3.5-3.2
				c1.4-1.7,2.6-3.6,4.2-5.9c0.5-0.4,1.6-1,2.5-2c2.5-2.9,5-5.9,7.3-8.9c3.8-4.9,7.6-9.9,11.3-14.9c0.7-1,1.1-2.2,1.7-3.2
				c0.5-0.9,0.8-1.9,1.4-2.8c2.3-3.2,4.7-6.3,7-9.5c1.5-2.1,3.1-4.2,4.4-6.4c1.1-1.9,0.8-2.6-1-3.9c-2.2-1.4-4.5-2.6-6.6-4
				c-6.4-4.2-13.1-8.1-19.1-12.8c-10.7-8.6-20.9-17.7-31.3-26.6c-0.8-0.6-1.6-1.1-2.8-1.9c-2,3.3-3.9,6.2-5.7,9.2
				c-4.4,7.4-8.5,14.9-13.1,22.2c-3.8,6-7.8,12-12.3,17.5c-6.4,7.8-13.3,15.1-19.9,22.6c-4.3,5-9.6,8.8-14.4,13.2
				c-5.5,4.9-10.9,9.9-15.9,15.3c-4.1,4.5-9.1,7.8-13.9,11.4c-0.9,0.7-1.9,1.3-2.8,2c-4.2,3.2-8.9,3-13.7,2.2
				c-1.7-0.3-1.9-1.4-0.5-2.6c8.9-7.7,16.4-16.7,24.4-25.3c3.8-4.1,8.2-7.6,12-11.8c6.3-7,12.2-14.4,18.3-21.6
				c8.3-9.6,15.1-20.3,21.6-31.1c5.2-8.7,10-17.7,15.1-26.5c2.4-4.2,5.1-8.3,7.7-12.4c1.4-2.2,3.6-3.4,6.1-3
				c2.4,0.4,4.7,1.6,6.8,2.8c8.5,4.8,14.9,12.1,22.2,18.4c6.3,5.4,12.3,11.1,18.7,16.4c7.6,6.2,15.6,12,24.2,16.9
				c5,2.9,9.9,6,14.9,9c0.6,0.4,1.3,0.7,1.8,1.2c3.3,3.2,4,5.9,1.2,9.1c-2.3,2.6-3.8,5.9-6,8.7c-8.1,10.4-16.1,20.8-24.5,30.9
				c-4.8,5.9-10.3,11.4-15.3,17.2c-3.5,4.1-6.7,8.4-9.9,12.8c-4.8,6.6-9.6,13.3-14.2,20c-1.8,2.6-4.4,4.3-7.1,5.8
				c-4.4,2.6-9,1.9-13.6,1.3c-1.2-0.2-1.9-1-1.9-2.2c0-1,0-2.2,0.4-3c1.7-3.6,3.6-7.2,5.5-10.8c0,0.4,0.1,0.7,0.1,1.1
				c0.2,0,0.4,0.1,0.5,0.1C811.5,427.4,811.7,426.5,811.9,425.7z M875.8,356.7c0.1-0.1,0.3-0.3,0.3-0.4c0-0.1-0.2-0.3-0.2-0.4
				c-0.1,0.1-0.3,0.3-0.3,0.4C875.6,356.5,875.7,356.6,875.8,356.7z"/>
			<path d="M875.8,356.7c0.1-0.1,0.3-0.3,0.3-0.4c0-0.1-0.2-0.3-0.2-0.4c-0.1,0.1-0.3,0.3-0.3,0.4
				C875.6,356.5,875.7,356.6,875.8,356.7z"/>
		</g>
		<g>
			<path class="st10" d="M761.9,480.1c0.7,2.5,1.4,4.8,2,7.2c0.7,2.7-0.3,5-2.4,6.7c-4.3,3.7-9.3,5.4-15,4.6
				c-1.1-0.1-2.2-0.2-3.2-0.2c-1.3,0-2,0.7-2.2,2c-1,5.4-4.8,8.3-9.3,10.4c-4.2,1.9-8.7,2-13.3,1.3c-2.7-0.4-5.2-1.5-7.2-3.4
				c-1.9-1.7-4.1-3.3-5.9-5.1c-1.2-1.2-2.5-1.7-4.1-1.5c-3,0.4-5.9,0.2-8.8-0.6c-1.8-0.5-3.5-1.2-4.9-2.7c-0.7-0.7-1.5-1.3-2.4-1.7
				c-1.9-0.8-3.1-2.1-4-3.9c-1.1-2.2-2.4-4.2-3.2-6.5c-1.4-3.7-1.3-7.4,1.1-10.8c1.4-1.9,1.5-3.6,0-5.7c-1.1-1.4-1.7-3.2-2.3-4.9
				c-1-2.8-0.9-5.6,0.9-8c2.1-2.9,4.4-5.5,8.5-5.4c0.5,0,1.1-0.1,1.6-0.2c2.7-0.4,3.3-1,3.3-3.8c0-2.3,0-4.7-0.1-7
				c-0.1-3.2,1.4-5.2,4.3-6.4c3.1-1.3,6.1-1.6,9.4-0.3c3.3,1.3,6.7,2.1,10.1,3c1.7,0.5,2.5-0.1,3.3-1.8c2.2-4.6,4.8-7.6,11.6-6.3
				c2.4,0.5,4.8,0.3,7.2,0.7c6.5,1.2,12.6,3.2,15.7,9.9c0.8,1.8,1.6,3.6,2.5,5.4c0.9,2,1.2,2,3.3,1.8c2.7-0.3,5.4-0.4,8.1-0.3
				c0.9,0,1.8,0.5,2.7,0.9c1.7,0.8,3.3,1.8,5,2.7c5.4,2.9,6.4,10.5,1.9,14.6c-1,0.9-1.5,1.9-2.1,3c-1,1.9-2.3,3.7-3.8,5.2
				C767.5,475.4,764.7,477.6,761.9,480.1z M749.6,476.4c-0.1,0.2-0.2,0.5-0.3,0.7c0.1,0,0.3,0.2,0.4,0.1c0.1-0.1,0.2-0.3,0.2-0.4
				C750,476.7,749.8,476.6,749.6,476.4z"/>
			<path class="st3" d="M761.9,480.1c0.7,2.5,1.4,4.8,2,7.2c0.7,2.7-0.3,5-2.4,6.7c-4.3,3.7-9.3,5.4-15,4.6
				c-1.1-0.1-2.2-0.2-3.2-0.2c-1.3,0-2,0.7-2.2,2c-1,5.4-4.8,8.3-9.3,10.4c-4.2,1.9-8.7,2-13.3,1.3c-2.7-0.4-5.2-1.5-7.2-3.4
				c-1.9-1.7-4.1-3.3-5.9-5.1c-1.2-1.2-2.5-1.7-4.1-1.5c-3,0.4-5.9,0.2-8.8-0.6c-1.8-0.5-3.5-1.2-4.9-2.7c-0.7-0.7-1.5-1.3-2.4-1.7
				c-1.9-0.8-3.1-2.1-4-3.9c-1.1-2.2-2.4-4.2-3.2-6.5c-1.4-3.7-1.3-7.4,1.1-10.8c1.4-1.9,1.5-3.6,0-5.7c-1.1-1.4-1.7-3.2-2.3-4.9
				c-1-2.8-0.9-5.6,0.9-8c2.1-2.9,4.4-5.5,8.5-5.4c0.5,0,1.1-0.1,1.6-0.2c2.7-0.4,3.3-1,3.3-3.8c0-2.3,0-4.7-0.1-7
				c-0.1-3.2,1.4-5.2,4.3-6.4c3.1-1.3,6.1-1.6,9.4-0.3c3.3,1.3,6.7,2.1,10.1,3c1.7,0.5,2.5-0.1,3.3-1.8c2.2-4.6,4.8-7.6,11.6-6.3
				c2.4,0.5,4.8,0.3,7.2,0.7c6.5,1.2,12.6,3.2,15.7,9.9c0.8,1.8,1.6,3.6,2.5,5.4c0.9,2,1.2,2,3.3,1.8c2.7-0.3,5.4-0.4,8.1-0.3
				c0.9,0,1.8,0.5,2.7,0.9c1.7,0.8,3.3,1.8,5,2.7c5.4,2.9,6.4,10.5,1.9,14.6c-1,0.9-1.5,1.9-2.1,3c-1,1.9-2.3,3.7-3.8,5.2
				C767.5,475.4,764.7,477.6,761.9,480.1z M736.5,490.2c0,0.2,0.1,0.4,0.1,0.5c2.1-0.4,4.3-0.5,6.3-1.1c3.9-1.2,5.2-3.2,5.3-7.2
				c0-0.5,0-1.1,0-1.6c0.1-3.3,1.1-6.1,3.7-8.3c2.1-1.7,3.9-3.8,5.8-5.7c1.9-1.9,2.6-4.3,2.9-6.8c0.3-2.5-0.1-2.9-2.6-3.5
				c-1.7-0.4-3.5-0.8-5.2-1.4c-1.6-0.6-3.1-1.4-4.6-2.2c-2.1-1.1-4.5-1.9-5.8-4.2c-1.4-2.5-2.7-5-4.1-7.5c-0.7-1.3-1.3-1.6-2.6-0.6
				c-1.1,0.8-2.1,2-3,3c-0.9,1-1.5,2.5-2.6,3c-3.5,1.6-7.1,2.5-10.9,0.8c-2.1-0.9-4.3-2-6.5-2.7c-3-1-5.7,0.4-6.9,3.4
				c-0.8,1.8-0.7,3.7-0.5,5.6c0.1,1.6,0.1,3.2-1.3,4.2c-1.5,1.1-2.8,2.8-5.1,2.2c-2.8-0.7-4.4,0.7-5.6,3c-0.4,0.8-1,1.5-1.5,2.2
				c-1.6,2.4-1.4,3.8,0.6,5.7c0.7,0.7,1.5,1.3,2.2,2c0.9,1.1,2,2.2,2.5,3.4c1.3,3,0.5,5.8-1,8.5c-0.7,1.2-1.5,2.5-1.8,3.9
				c-0.6,2.2,0.3,3.4,2.6,3.8c1.9,0.3,3.7,0.5,5.6,0.8c4.9,0.9,9.7,2,13,6.4c1.6,2.1,2.8,2.1,5.2,0.8c0.8-0.4,1.6-1.3,2.3-1.3
				c1.7,0.1,2.2-1,2.6-2.2c0.3-0.8,0.7-1.7,1-2.5c0.6-2.1,2.1-3.2,4-3.6C732.2,490.7,734.3,490.5,736.5,490.2z M749.6,476.4
				c-0.1,0.2-0.2,0.5-0.3,0.7c0.1,0,0.3,0.2,0.4,0.1c0.1-0.1,0.2-0.3,0.2-0.4C750,476.7,749.8,476.6,749.6,476.4z"/>
			<path class="st8" d="M733.5,451.9c-0.5,0.3-1,0.7-1.5,1c-2.5,1.3-5.2,2.4-7.6,3.9c-2,1.3-3.6,3.1-5.4,4.7
				c-0.1,0.1-0.3,0.3-0.3,0.4c-0.2,2.6-1.7,4.4-3.5,6.2c-0.4,0.4-0.7,1.1-0.8,1.7c-0.4,2.7-1,5.3-1.1,8c-0.2,3.6,2.3,5.7,5.8,5.3
				c0.8-0.1,1.7-0.1,2.4-0.4c4.5-2.3,9.2-4.2,12.9-7.7c1.9-1.8,3.2-3.9,4-6.3c0.1-0.4,0.4-0.9,0.3-1.3c-0.2-0.7-0.4-1.7-1-2
				c-0.5-0.3-1.6,0.1-2.1,0.6c-1.9,1.8-3.6,3.7-5.4,5.5c-1.1,1.1-2,2.2-3.9,1.9c-0.7-0.1-1.7,0.5-2.4,1c-1.2,0.8-2.4,1.8-3.7,2.9
				c-0.3-0.6-0.6-1-0.6-1.2c0.9-2.8,1.9-5.6,2.8-8.4c0.1-0.3,0.4-0.5,0.3-0.7c-0.2-2.7,1.9-3.5,3.6-4.9c2.5-2,4.9-4,7.9-5.2
				c1.5-0.6,2.9-1.3,4.6-0.4c0.5,0.3,1.4,0,2.1-0.1c2.7-0.4,5.2-0.3,7.6,1.2c2.8,1.7,3.4,4.7,2.5,8.3c-1.8,6.9-6.4,11.5-12,15.5
				c-2.9,2.1-5.9,4.1-8.9,6c-4.6,3-9.7,3.7-15,3c-2.2-0.3-4.4-0.7-6.4-1.8c-1.9-1.1-3.6-2.4-4.6-4.4c-0.6-1.2-1.3-2.3-2.1-3.5
				c-2.2-3.5-1.9-8,0.8-11.6c1.5-2,3.1-3.9,4.8-5.8c3.9-4.4,8.9-7.1,14.2-9.5c3.2-1.5,6.6-2.4,10.1-2.6c0.4,0,0.8,0.1,1.2,0.2
				C733.4,451.5,733.4,451.7,733.5,451.9z"/>
			<path d="M724.7,495.6c-0.1,0.3-0.2,0.7-0.4,1c-0.1,0-0.2-0.1-0.3-0.1c0.1-0.3,0.3-0.7,0.4-1C724.5,495.5,724.6,495.6,724.7,495.6
				z"/>
		</g>
		<g>
			<path class="st10" d="M798,452.8c-6,6.3-11.8,13.3-14,21.8c-2.2,8.5,0.2,18.6,7.6,23.3c4.3,2.7,9.6,3.3,14.7,3
				c5.5-0.3,11.1-1.6,15.6-4.9c3.2-2.3,5.7-5.5,7.9-8.9c9.5-14,15.1-30.5,16.5-47.4c0.4-4.6,2.7-19.4-4.3-20.2
				c-5.6-0.6-17.1,10.1-21.5,13.3C812.5,439,804.9,445.6,798,452.8z"/>
			<path class="st8" d="M837.1,352.7c1.6-1.7,3.1-3.1,4.3-4.8c0.6-0.9,0.5-2.3,0.6-3.5c0.1-4.7,1.5-8.9,4.5-12.6
				c2.7-3.3,5.9-4.5,10-3.3c3.6,1,3.6,0.9,5.7-2.1c1.2-1.7,2.4-3.5,3.8-5.1c2.8-3.2,6.3-4.8,10.6-4.6c1.1,0.1,2.2,0.2,3.3,0.3
				c7.9,1.1,10.7,4.5,11.7,13c0.6,4.8-0.2,9.5-1.8,14.1c-1.5,4.4-1.3,5.4,2.5,8.3c4,3.1,4.7,7.4,4.5,11.9c0,0.8-0.5,1.7-1,2.4
				c-3.7,5.8-7.5,11.5-11.3,17.2c-2.1,3.1-4.4,6.1-6.6,9.2c-2.2,2.9-3.7,6.2-5.4,9.4c0.2,0.2,0.4,0.4,0.6,0.5c0.7-0.6,1.4-1.2,2-1.8
				c2.7-2.5,5.1-5.3,8-7.5c2.4-1.8,5.3-3.1,8.2-4.3c3.4-1.4,6.9-1.7,10.3,0.2c1.8,1,3.5,0.7,5.4,0c2.9-1.1,5.9-2.1,8.9-2.6
				c4-0.6,7.8,0.3,10.3,4c1.2,1.7,1.6,3.5,1.5,5.6c-0.2,4.7-1.9,8.3-6.4,10.3c-1,0.4-1.9,1.2-2.6,2c-2.1,2.1-3.9,4.3-3.8,7.8
				c0.3,4.7-2.3,8.2-6.5,10c-4.5,2-8.9,4.4-14.2,4.4c-3.6,0-6.9,1.5-9.9,3.5c-5.3,3.6-9.3,3.3-15.1,4.1c-6.5,1-13.4,4.5-19.7,6.6
				c-0.3,0.1-0.7,0.2-1,0.1c-0.4-0.1-0.6-0.5-0.7-0.9c-1.8-4-3.6-8.1-5.3-12.1c-0.9-2-2-4.3-4-5.1c-0.2-1.5-0.5-3-0.7-4.5
				c-5.3,2.8-10.6,5.6-15.9,8.4c-1.1,0.6-2.7,1.1-3.4,0c-0.3-0.4-0.3-1-0.3-1.5c0.1-7.3,2.8-21.1-3.6-26.5
				c-3.8-3.2-6.3-7.4-8.1-12.1c-1.4-3.4-1.4-6.7,0.2-10c0.4-0.9,0.9-1.8,1.2-2.8c1-2.7,1.1-5.3-0.3-8c-2.5-4.9-2.4-9.8,0.6-14.6
				c1.1-1.7,2.4-3,4.2-3.6c4.2-1.5,8.5-2.5,13-0.9c1,0.4,2.3,0.3,3.2-0.1c2.7-1,5-0.7,7.2,0.9C836.3,352.5,836.7,352.5,837.1,352.7z
				"/>
			<path class="st3" d="M837.1,352.7c1.6-1.7,3.1-3.1,4.3-4.8c0.6-0.9,0.5-2.3,0.6-3.5c0.1-4.7,1.5-8.9,4.5-12.6
				c2.7-3.3,5.9-4.5,10-3.3c3.6,1,3.6,0.9,5.7-2.1c1.2-1.7,2.4-3.5,3.8-5.1c2.8-3.2,6.3-4.8,10.6-4.6c1.1,0.1,2.2,0.2,3.3,0.3
				c7.9,1.1,10.7,4.5,11.7,13c0.6,4.8-0.2,9.5-1.8,14.1c-1.5,4.4-1.3,5.4,2.5,8.3c4,3.1,4.7,7.4,4.5,11.9c0,0.8-0.5,1.7-1,2.4
				c-3.7,5.8-7.5,11.5-11.3,17.2c-2.1,3.1-4.4,6.1-6.6,9.2c-2.2,2.9-3.7,6.2-5.4,9.4c0.2,0.2,0.4,0.4,0.6,0.5c0.7-0.6,1.4-1.2,2-1.8
				c2.7-2.5,5.1-5.3,8-7.5c2.4-1.8,5.3-3.1,8.2-4.3c3.4-1.4,6.9-1.7,10.3,0.2c1.8,1,3.5,0.7,5.4,0c2.9-1.1,5.9-2.1,8.9-2.6
				c4-0.6,7.8,0.3,10.3,4c1.2,1.7,1.6,3.5,1.5,5.6c-0.2,4.7-1.9,8.3-6.4,10.3c-1,0.4-1.9,1.2-2.6,2c-2.1,2.1-3.9,4.3-3.8,7.8
				c0.3,4.7-2.3,8.2-6.5,10c-4.5,2-8.9,4.4-14.2,4.4c-3.6,0-6.9,1.5-9.9,3.5c-3.4,2.3-6.9,4-11,4.4c-3.6,0.4-6.7,3.5-9.4,5.8
				c-2.9,2.5-5.5,5.4-7.7,8.6c-4.3,6.1-7.5,12.9-11.1,19.4c-2.7,4.8-5.2,9.7-8.2,14.4c-3.9,5.9-9,10.1-15.1,13.2
				c-4.5,2.3-9.5,3.7-14.3,5.3c-3.2,1-6.5,2.5-10.1,1.6c-0.5-0.1-1.2,0.4-1.9,0.6c-2,0.6-3.8,0-5.3-1.2c-2.5-2.2-4.8-4.6-7.2-6.9
				c-6.1-5.7-7.7-12.9-6.3-20.8c2.1-11.7,8.1-21.2,17.2-28.9c5.8-5,11.7-10,17.1-15.4c3.3-3.2,4.8-7.7,5.4-12.3
				c0.5-3.5,0.9-7.1,1.3-10.6c0.4-3.4-0.5-6.2-3.2-8.6c-3.8-3.2-6.3-7.4-8.1-12.1c-1.4-3.4-1.4-6.7,0.2-10c0.4-0.9,0.9-1.8,1.2-2.8
				c1-2.7,1.1-5.3-0.3-8c-2.5-4.9-2.4-9.8,0.6-14.6c1.1-1.7,2.4-3,4.2-3.6c4.2-1.5,8.5-2.5,13-0.9c1,0.4,2.3,0.3,3.2-0.1
				c2.7-1,5-0.7,7.2,0.9C836.3,352.5,836.7,352.5,837.1,352.7z M833.5,433.2c1.7-1.7,3.5-3.4,5.1-5.2c1.8-2.1,3.3-4.5,5.3-6.4
				c1.4-1.4,2.7-3,3.8-4.6c1.1-1.5,1.8-3.4,2.9-4.8c2.4-3,3.9-6.7,5.2-10.3c1.9-5,3.2-10.3,3.9-15.6c0.5-3.8,0.8-7.3-0.1-11
				c-0.9-3.8-2.9-7.6-4.4-11.2c-0.4-1-0.8-1.9-1.1-2.9c1.3,0.4,2.1,1.6,2.9,2.6c1.3,1.7,2.7,3.4,4.2,4.9c-0.3-0.3,0.2-3.1,0.3-3.6
				c0.1-1.4,0.3-2.8,0.4-4.1c0.4-2.8,0.8-5.5,1.5-8.2c1.3-5.2,3.8-9.7,6.9-14.1c0.3-0.5,1-0.7,2.1-1.6c-0.5,1.8-0.6,2.9-1.1,3.8
				c-0.7,1.4-0.9,2.8-1.5,4.2c-0.8,1.8-1.6,3.7-2,5.6c-0.5,2.5-1.5,4.9-1.6,7.5c-0.2,3.3-0.3,6.6-0.5,9.9c0,0.2,0,0.5,0.2,0.6
				c0.1,0.1,0.2,0.1,0.4,0.1c0.9,0,1.7-0.6,2.3-1.2c1.6-1.4,3.4-2.6,5.3-3.4c0.9-0.4,1.8-0.9,2.9-1.2c0.6-0.1,2.2,0.2,2.5,0
				c-3.5,1.7-6.7,4.1-9.3,7c-1.4,1.6-2.7,3.4-3.4,5.4c-1.2,3.3-1.4,7.2-1.9,10.7c-0.8,5.1-1.1,10.7-2.9,15.5
				c-1.6,4.4-3.2,8.8-5.2,13c-2.4,4.7-5.4,9.2-8,13.8c-1,1.9-1.4,4-1.5,6.1c0,1.1,0.1,2.2,0.2,3.2c0,0.5-0.1,2.4,0.4,2.7
				c0.2,0.1,0.4,0,0.5-0.2c1-1.3,1.5-3.5,2.2-5c2.1-5.2,4.4-10.2,6.1-15.5c1.4-4,2.6-8,4.9-11.7c2.4-4,4.8-8,7.2-12
				c4.1-6.9,8.1-13.8,12.5-20.5c2.2-3.4,3.7-7,5.2-10.8c0.7-1.9,0.6-3.6,0-5.5c-0.6-2.2-2-3.7-3.7-5c-4.1-3.3-4.7-7.6-3.5-12.4
				c0.4-1.6,1.1-3.2,1.4-4.8c0.7-3.4,1-6.9-0.1-10.2c-1.3-4-4.5-4.7-7.2-1.6c-2.5,2.8-4.7,5.9-7.1,8.7c-2.4,2.8-5.6,3.6-9,2.4
				c-5-1.8-6-1.2-6.8,4c-0.1,0.5-0.2,1.1-0.2,1.7c0.6,4.7-1.6,7.9-5.2,10.4c-1.1,0.8-1.6,1.7-1.9,3c-0.3,2-0.4,3.9,0.7,5.8
				c0.7,1.3,1.3,2.6,1.8,3.9c2,5.1,4.2,10.1,5.8,15.3c0.9,3.1,1.7,6.1,3.1,9.1c0.8,1.7,0.9,3.9,0.7,5.8c-0.2,2.1-1,4.1-1.9,6
				c-2,4.2-4.2,8.3-6.2,12.5c-2.6,5.5-6.4,10.2-10.6,14.5c-1.8,1.8-3.8,2.6-5.6,4.3c-1.3,0.6-2.7,1.8-3.9,2.5c-3,1.8-6,3.8-8.9,5.8
				c-1.5,1-3,1.9-4.4,3c-3.6,2.9-7.1,6-10.8,8.9c-6.7,5.2-11.1,12.1-14.2,19.8c-3.5,9-1.4,16.8,5.6,23.3c1.6,1.5,2.6,1.4,3.7-0.4
				c0.5-0.9,0.9-2,1.4-3.2c-3.5-0.6-5-2.8-6.2-5.6c-1.3-3.1-1.3-6.3-0.6-9.5c1.1-5.4,4.3-9.8,7.7-13.9c3.8-4.5,8.1-8.5,12.5-12.5
				c5.3-4.8,10.7-9.3,16.2-13.8C829.8,435.8,832.5,434.2,833.5,433.2z M824.1,422.8c-0.2,0.9-0.3,1.8-0.3,1.8c2.8-0.4,5-2.6,6.5-5
				c1.9-3.2,2.7-7.1,2.2-10.9c-0.4-2.5-1.3-5-2.2-7.4c-1.3-3.4-2.6-6.8-4.5-9.8c-0.3-0.5-2.9-3.6-2.7-3.9c0.6-1.1,3.1,1.3,3.4,1.6
				c1.2,1.1,2.6,2.1,3.7,3.4c1.1,1.2,2,2.5,3.2,4.2c1.7-4.7-0.3-10.4-1.8-14.8c-0.9-2.5-1.8-5-2.8-7.5c-0.7-1.7-2.8-4.9-2.4-6.6
				c0.1-0.6,2.3,1.5,2.5,1.7c0.9,1.1,1.8,2.1,2.6,3.2c1.7,2.3,3.1,4.8,4.3,7.4c2.4,5.1,3.8,10.6,4.2,16.3c0,0.1,1.7-1,1.9-1.1
				c0.6-0.5,1-1,1.4-1.8c0.9-1.7,1.5-3.5,2.3-5.2c0.4-0.9-0.7-2.4-1.1-3.6c-0.1-0.3-0.2-0.6-0.3-1c-1.1-8.5-5.7-15.6-9.5-22.9
				c-0.9-1.7-2.4-3.6-4.7-3.3c-2.8,0.4-5.3-0.3-7.8-1.2c-1.6-0.6-3.2-1.1-4.8-1.5c-2.7-0.7-4.2,0.4-4.7,3.1
				c-0.1,0.5-0.1,1.1-0.3,1.6c-1.9,4.2-0.6,8,1.3,11.8c1.9,3.8,1.9,7.6-0.1,11.5c-0.7,1.3-1.2,2.7-1.4,4c-0.7,4.3,1.7,7.4,4.3,10.4
				c1.7,1.9,3.8,3.4,5.5,5.3c3.2,3.5,4.9,7.5,3.5,12.5c-0.5,1.8-0.8,3.6-1,5.4C824.6,420.6,824.3,421.7,824.1,422.8z M889.8,416
				c1.1,0.6,2.8,0.8,4,1.1c1.2,0.3,2.5,0.2,3.7,0.2c1.4,0.1,2.9,0.1,4.3,0.2c0.1,0,0.1,0,0.2,0c0.2,0.1,0.2,0.3,0.1,0.4
				c-0.1,0.1-0.3,0.2-0.4,0.3c-3.4,1.3-6.8,1.2-10.4,1.1c-3.9,0-8.4,0-11.6,2.4c-4.2,3.2-8.1,6.6-12,10c-0.7,0.6-1.7,1.6-2,2.5
				c0,0.1,1.3-0.4,1.3-0.4c0.5-0.1,0.9-0.1,1.4-0.1c1.2-0.1,2.6-0.4,3.8-0.7c2.5-0.5,5.1-1.2,7.3-2.6c3.5-2.2,7.1-4.2,11.4-4.4
				c3.3-0.1,6.2-1.5,9.3-2.2c3.4-0.7,5-3.7,7.8-5.1c0.8-0.4,0.9-1.5,0.2-2.6c-1.9-3.2-1.6-4.7,1-7.3c1.7-1.6,3.5-3.1,5-4.9
				c1.7-2.2,2.5-4.9,1.8-7.6c-0.3-1.3-0.7-2-2.1-1.6c-1,0.3-1.8,0.9-2.7,1.3c-3.8,1.8-7.6,2.3-11.7,1.1c-1.1-0.3-2.2-0.4-3.3-0.7
				c-2.1-0.6-4-0.3-5.6,1.2c-3.7,3.8-7.4,7.7-11,11.6c-2.2,2.4-4,5.1-6.3,7.3c-2.8,2.7-5.9,5.1-8.8,7.6c-1.1,0.9-2,2-2.7,3.3
				c-0.3,0.5-1.7,3.3-1,3.8c0.1,0.1,0.3,0,0.4-0.1c0.8-0.8,1.7-1.5,2.6-2.3c4.8-4.5,9.2-9.4,14.9-12.8c1.9-1.2,3.9-3,5.3-4.7
				c2.8-3.4,4-7.9,7.4-10.7c0.1-0.1,0.2-0.2,0.3-0.1c0.3,0,0.2,0.5,0.1,0.7c-0.6,1.2-1,2.5-1.3,3.8c-0.1,0.7-0.1,1.4-0.3,2
				c-0.1,0.3-0.4,0.8,0.1,1.1c0.3,0.1,0.7,0,1-0.1c0.5-0.2,1-0.4,1.5-0.6c2.1-0.9,4-2,6-3.1c1.9-1.1,4-2.1,6-3.1
				c0.1-0.1,0.3-0.1,0.4-0.1c0.1,0,0.3,0,0.4,0.2c0.1,0.2-0.1,0.4-0.2,0.6c-1,1-1.9,1.9-3,2.8c-4.1,3.1-8.3,6.3-12.4,9.4
				c-0.2,0.1-0.4,0.3-0.5,0.5C889.1,415.3,889.4,415.8,889.8,416C889.8,416,889.8,416,889.8,416z M812.3,488.7c1,0.1,2.1,0.2,3-0.1
				c5.6-1.7,10.8-4.3,14.5-9c3.7-4.7,7.1-9.7,9-15.5c1-2.8,1.5-5.8,2.6-8.6c1.4-3.7,1.5-7.6,1.9-11.4c0.1-1.3-0.4-2.7-0.8-4.7
				c-1.9,1.9-3,3.5-3.5,5.5c-0.7,3.1-1.7,6.2-2.4,9.3c-0.7,3.1-1.6,6.3-1.9,9.5c-0.6,6.4-3.3,11.3-8.4,15.2c-3.6,2.7-7.8,5.3-12.3,6
				c-0.2,0-0.5,0.1-0.6,0.2c-0.2,0.1-0.4,0.4-0.6,0.6c-0.6,0.8-1.3,1.7-1.6,2.7c0,0.1,0,0.1,0,0.2c0,0.2,0.2,0.2,0.4,0.2
				C811.7,488.7,812,488.7,812.3,488.7z M831.3,443.6c0.3-0.6,0.6-1.1,0.9-1.7c-1,0.2-1.6,1.3-2.4,1.9c-1,0.8-2,1.7-3,2.5
				c-2,1.6-4,3.3-6,4.8c-5.3,4.2-10.3,8.8-14.7,13.9c-2.4,2.9-4.6,6-5.5,9.8c-0.4,1.8-0.3,3.6,0.3,5.3c0.5,1.5,1.3,3.2,2.5,4.3
				c0.2,0.1,0.3,0.3,0.5,0.4c0.8,0.3,1.2-0.9,1.4-1.5c0.1-0.4,0.5-1,0.6-1.5c0-0.2-0.1-0.3-0.2-0.5c-0.2-0.4-0.2-0.8-0.2-1.2
				c-0.1-1.6-0.2-3.3,0.2-4.9c1.5-4.9,3.8-9.5,7.8-12.9c3.7-3.2,7.5-6.2,11.3-9.3c0.8-0.7,1.8-1.4,2.3-2.3
				C828.6,448.5,830,446,831.3,443.6z M825,490.4c0.1-0.2,0.5-1.1,0.6-1.1c-1.3,0.6-2.5,1.3-3.9,1.7c-4.5,1.2-9.1,2.9-13.7,3.2
				c-0.1,0-0.3,0-0.4,0.1c-0.2,0.1-0.3,0.2-0.4,0.4c-0.4,0.6-0.9,1.1-1.3,1.7c-0.5,0.7-1,1.4-1.1,2.2c0,0.1,0,0.2,0.1,0.2
				c0,0,0.1,0.1,0.2,0.1c2.1,0.4,4.4-0.3,6.4-0.7c2.2-0.5,4.3-1.1,6.3-2.1c1.6-0.7,3.1-1.6,4.5-2.7c0.7-0.6,1.4-1.2,2-1.9
				C824.5,491.1,824.7,490.8,825,490.4C824.9,490.4,824.9,490.4,825,490.4z M819.4,477.4c-0.3,0.3-0.5,0.6-0.7,0.9
				c0.4,0.1,0.8,0,1.1-0.1c2.6-1.4,5.4-2.9,7-5.6c1.6-2.9,2.6-6.1,3.7-9.2c0.3-0.9,0.3-1.7,0.5-2.6c0.1-0.8,0.4-1.6,0-2.3
				c0-0.1-0.1-0.2-0.2-0.2c-0.1,0-0.2,0.1-0.3,0.2c-0.6,0.9-1.5,1.7-2,2.7c-1.7,3-3.3,5.9-5,8.9c-0.8,1.5-1.6,3-2.5,4.5
				c-0.4,0.7-0.8,1.5-1.2,2.2C819.7,477,819.5,477.2,819.4,477.4z M847.5,392.2c-3.5,6.2-7.8,12.2-7.1,20
				C844.1,406,847.1,399.6,847.5,392.2z M810.7,475.4c4-2.9,8.5-10.4,8.1-13C814.7,465.7,811.5,469.4,810.7,475.4z"/>
		</g>
	</g>
</g>
</svg>
