<svg version="1.1" xmlns="http://www.w3.org/2000/svg" xmlns:xlink="http://www.w3.org/1999/xlink" x="0px" y="0px"
	 viewBox="0 0 1600 1600" style="enable-background:new 0 0 1600 1600;" xml:space="preserve">
<style type="text/css">
	.st0{fill:#FFFFFF;}
	.st1{fill:#C6C6C5;}
	.st2{fill:#FFECB6;}
	.st3{fill:#093D41;}
	.st4{fill:#E54033;}
	.st5{fill:#EADBAD;}
	.st6{fill:#71C4BA;}
	.st7{fill:none;}
	.st8{fill:#78B542;}
	.st9{fill:#C6C6C6;}
	.st10{fill:#E0E0DE;}
	.st11{fill:#7F7F7F;}
	.st12{fill:#2D2D2D;}
	.st13{fill:#919191;}
	.st14{fill:#383838;}
	.st15{fill:#D8D8D8;}
	.st16{fill:#653C16;}
	.st17{fill:#F79E1E;}
	.st18{fill:none;stroke:#00AEEF;stroke-miterlimit:10;}
	.st19{fill:#E72527;}
	.st20{fill:#E12327;}
	.st21{fill:#EDB7B6;}
	.st22{fill:#1C4650;}
	.st23{fill:#122D25;}
	.st24{opacity:0.5;fill:#653C16;}
	.st25{fill:url(#SVGID_1_);}
	.st26{fill:#89C544;}
	.st27{fill:#FFE0B6;}
	.st28{fill:#BABABA;}
	.st29{fill:#EA7750;}
	.st30{opacity:0.3;fill:#E72527;}
	.st31{opacity:0.3;fill:#653C16;}
	.st32{fill:#2A5861;}
	.st33{fill:#F26F79;}
	.st34{fill:#EAB557;}
	.st35{fill:#80C48D;}
	.st36{fill:#264720;}
	.st37{fill:#52AA82;}
	.st38{opacity:0.3;}
	.st39{fill:#895B24;}
	.st40{filter:url(#Adobe_OpacityMaskFilter);}
	.st41{mask:url(#SVGID_2_);}
	.st42{opacity:0.3;fill:#895B24;}
	.st43{fill:#EE7928;}
	.st44{fill:#CAAB82;}
	.st45{fill:#E5E5E5;}
	.st46{fill:#F69FA1;}
	.st47{clip-path:url(#SVGID_4_);fill:#FCB017;}
	.st48{fill:#727579;}
	.st49{fill:#1D2036;}
	.st50{fill:#C2C4C4;}
	.st51{fill:#6C7D7F;}
	.st52{fill:#E9D1B3;}
	.st53{fill:#B8D3C7;}
	.st54{fill:#ABB2B2;}
	.st55{fill:#EA3056;}
	.st56{fill:#478689;}
	.st57{fill:#E2C588;}
	.st58{fill:#757576;}
</style>
<g id="BG">
</g>
<g id="Noodles">
	<g>
		<path class="st5" d="M1280.4,499.1c-2.1-14.1-4.7-28.1-8.6-41.8c-3.3-11.4-6.4-22.9-12.1-33.4c-3.5-6.3-7.3-12.3-11.3-18.3
			c-3.1-4.6-6.6-8.9-10-13.4c-3.3-4.4-6.6-8.9-10.1-13.2c-3.2-3.9-6.8-7.6-10.3-11.3c-5.2-5.6-10.2-11.4-15.8-16.6
			c-11.5-10.8-24.9-19-38.4-27c-14.6-8.7-30.4-14.6-46.7-19c-17.6-4.8-35.6-7.6-53.9-8.3c-6.3-0.2-12.6-0.9-18.9-0.8
			c-10.6,0.3-21.1,1.1-31.7,1.7c-1.1,0.1-2.7,0.3-3.2,1.1c-1.2,1.8-2.9,1.6-4.3,1.4c-2.7-0.3-5.2,0.5-7.7,1.2
			c-2.8,0.7-5.7,1.1-8.6,1.6l0,0c0,0,0-0.1,0-0.1c-1.9,0.6-3.8,1.1-5.7,1.7c-2.3-3.3-3.6-0.9-5.1,0.9c-0.3,0.4-1,0.6-1.5,0.8
			c-5,1.6-10.2,2.8-15.1,4.7c-5,1.9-10.2,2.9-15,5.3c-3.5,1.8-7.4,2.9-11,4.4c-5,2.1-9.9,4.3-14.6,6.3c-0.9-0.8-1.4-1.3-2.7-2.4
			c0.3,3.2-1.3,3.8-3.2,4.6c-6.7,2.9-13.3,5.8-19.9,9c-7.9,3.8-15.6,7.8-23.4,11.6c-0.6,0.3-1.3,0.3-2,0.4c0.1-0.8,0.2-1.4,0.4-2.8
			c-1.5,1.4-3.3,2.2-3.5,3.2c-0.4,2.1-1.9,2.4-3.2,3.2c-3.8,2.2-7.6,4.5-11.4,6.7c-5.1,2.9-10.1,5.8-15.2,8.7
			c-1.1,0.6-2.3,0.9-3.7,1.5c0.3-0.9,0.5-1.5,1-3c-3.1,2-6.5,3.1-7.7,5.3c-1.4,2.7-3.4,3.8-5.6,5c-2.9,1.7-5.9,3.2-8.9,4.8
			c-4.3,2.4-8.6,4.9-13,7.1c-1.7,0.9-4.4,0.7-5.3,2c-2.6,3.6-6.6,4.7-10,7c-1.3,0.9-2.6,0.8-3.4-0.5c-1,1.5-1.6,3-2.7,3.8
			c-2.3,1.7-4.9,3.1-7.5,4.5c-0.9,0.5-2.2,0.9-3.2,0.8c-3.1-0.6-4.8,1.4-6.5,3.3c-1.3,1.5-2.4,3.3-4,4.4c-3,2.1-6.3,3.6-9.4,5.6
			c-6.9,4.4-13.6,9.1-20.6,13.5c-8.5,5.4-17.2,10.6-25.9,15.7c-2.9,1.7-5.4,4.6-9.4,4.2c-0.4,0-1.3,0.8-1.4,1.4
			c-0.6,2-2.5,3.7-3.7,3.1c-2.5-1.2-1.9,2.8-4.1,1.8c-0.9-0.4-2.7,0.8-3.8,1.6c-0.7,0.6-0.7,2-1.3,2.8c-0.6,0.8-2.1-0.5-2.8,1.2
			c-0.2,0.7-2.4,0.5-2.8,1.2c-1.9,2.8-5.4,3.2-7.5,5.7c-0.4,0.5-1.6,0.7-2.4,0.6c-3.2-0.1-5.1,1.5-5.9,4.5c-2.1-0.9-3.9-0.5-4.3,1.5
			c-0.4,2-1.6,2.7-2.8,3.5c-1.8,1.2-3.7,2.2-5.6,3.3c-0.7,0.4-1.5,0.8-2.3,0.8c-2.4-0.2-3.7,1.2-4.9,2.9c-0.9,1.3-1.9,2.7-3.2,3.3
			c-2.6,1.1-4.8,2.6-6.9,4.4c-0.7,0.6-2,0.4-3.3,0.6c0.1,2.4-1.9,2.5-3.7,3.5c-2,1.1-3.8,2.1-6,2.9c-2,0.7-3.6,2.7-5.4,4.1
			c-0.6,0.4-1.5,1.2-1.8,1.1c-1.8-0.9-2.1,0.6-2.9,1.5c-0.8,0.8-2,1.2-2.9,2c-3.2,3.1-8.5,2.3-11.3,6.1c-0.1,0.2-0.6,0.2-0.8,0.1
			c-1.6-0.6-2.3,0.1-2.9,1.6c-0.3,0.8-1.6,1.9-2.3,1.8c-4.1-0.7-6.6,2.6-9.9,3.8c-1.7,0.6-2.2,1.9-2.4,3.2c-1.7,0.1-3.3-0.3-4.4,0.3
			c-5.4,2.6-10.7,5.5-16.1,8.2c-14.6,7.6-29.9,13.6-45.3,19.2c-5.8,2.1-11.7,3.9-17.6,5.6c-9,2.5-18.1,4.9-27.3,7
			c-4.5,1-9.3,1.9-13.9,1.8c-7.8-0.2-15.5-1.6-23.3-2c-9.7-0.5-14.9-5.8-17.1-14.8c-0.2-0.7-0.4-1.4-0.6-2.1
			c-1.7-6-1.9-12.2-1.4-18.4c1.1-15.3,6.5-28.4,18.4-38.7c7-6,14.7-10.6,22.6-15.2c11.5-6.7,23.9-11.1,36.5-14.8
			c13.3-4,26.9-6.9,40.4-10.2c7-1.7,14.1-2.9,21-4.9c14.3-4,28.5-8.2,42.6-12.5c12.5-3.8,24.8-7.9,37.2-11.9c2-0.6,3.8-1.4,5.8-2
			c5.9-1.6,11.9-2.9,17.8-4.9c8-2.7,15.8-5.8,23.8-8.7c4.1-1.5,8.4-2.7,12.3-4.6c6.7-3.2,13.3-6.7,19.9-10.4
			c9.5-5.3,18.2-11.8,26.2-19.3c6.1-5.8,11.2-12.4,16.6-18.7c7.4-8.6,13.8-17.8,19.7-27.4c3.3-5.3,6-11.1,8.3-17
			c3.5-9,6.6-18.2,9.7-27.3c1.1-3,2.1-6.1,2.8-9.2c3.2-13.7,6.5-27.4,9.4-41.2c2.7-12.9,5.1-25.9,7.1-38.9
			c1.5-10.1,9.3-96.5,4.6-197.5H782c5,70.3-0.3,133.1-3.9,179.3c-1,13.5-4.7,26.6-7.6,39.8c-2.9,13.2-5.7,26.4-8.8,39.5
			c-1.3,5.5-3.3,11-5.1,16.4c-6.3,19-15.8,36.2-27.8,52.1c-4.8,6.3-9.3,12.8-14.6,18.7c-3.4,3.8-6.8,7.7-10.6,11.1
			c-3.1,2.8-6.9,5-10.4,7.4c-2.6,1.8-5.3,3.6-8,5.3c-1.6,1-3.2,1.9-4.9,2.9c-0.2,0.1-0.7,0-0.8,0.2c-2,3.6-5.8,3.4-9.1,4.3
			c-1.1,0.3-1.9,1.3-2.9,2c-1.3,1-2.2,2.4-4.5,2c-1.4-0.2-3.1,1.6-4.7,2.3c-1.6,0.7-3.3,1.2-4.9,1.7c-0.7,0.2-1.6,0.2-2.1,0.6
			c-3.3,2.4-7.1,3.6-11,4.6c-2.4,0.6-4.6,1.7-6.9,2.4c-3.3,1-6.2,3-10,2.4c-1.8-0.3-4,1-5.7,2c-2.3,1.3-4.7,1.7-7.2,2.1
			c-0.7,0.1-1.5,0.2-2,0.6c-3.7,2.6-7.4,4.8-12.2,4.2c-0.6-0.1-1.5,0.4-1.8,0.9c-0.8,1.2-1.7,1.2-3,1.2c-1,0-2,0.8-3,1.2
			c-0.6,0.3-1.2,0.7-1.9,0.6c-1.8,0-3.2,0.7-4.8,1.6c-2.2,1.1-5,1.3-8,2c-0.5,2.3-2.2,3.3-5,2.4c-0.3-0.1-1,0-1.2,0.2
			c-1.9,2.6-4.9,2.2-7.6,2.8c-3.4,0.8-6.7,2.1-10,3c-5.2,1.4-10.8,2-15.5,4.4c-4.3,2.2-9.2,1.7-13.3,4.4c-1.7,1.1-4.1,1-6.2,1.5
			c-6,1.3-12,2.5-18,4c-2.2,0.5-4.3,1.7-6.4,2.5c-4.3,1.6-9.2,1.1-13.4,3.3c-0.9,0.5-2.4,0.4-3.5,0c-2.7-1-4.4,0.5-6.4,1.7
			c-1.2,0.7-2.3,1.7-3.6,2.1c-5.9,1.9-11.9,3.3-17.7,5.4c-2.8,1-6,1.1-8.2,3.7c-0.8,1-2.6,1.8-3.9,1.7c-2.5-0.3-4.3,1.4-5.7,2.6
			c-1.8,1.5-3.7,2.1-5.6,3.2c-0.7,0.4-1.6,0.7-2.2,1.2c-1.7,1.6-3.8,2.5-5.8,3.6c-1.5,0.9-3.6,1.5-5,3.3c-1.6,2.1-4.6,3.1-6.9,4.8
			c-4.2,2.9-8,6.3-10.4,10.9c-0.2,0.4-0.8,0.7-1.1,1.1c-0.8,0.9-1.7,1.6-2.2,2.6c-3.6,6.7-6.8,13.5-8.3,21c-0.9,4.7-2,9.5-2.5,14.3
			c-1,11.3,0.1,22.3,6.2,32.3c1.4,2.2,2.3,4.8,3.7,7c5.9,8.9,13.8,15.2,23.7,19.6c16.3,7.2,33.4,8.9,50.9,8.2
			c7.6-0.3,15.2-1.5,22.7-3c8-1.6,16-3.6,23.6-6.4c5.3-1.9,10.7-3.6,16.1-5.2c10.7-3.3,21.2-7.5,31.7-11.3c0.8-0.3,1.6-0.8,2.3-1.3
			c5.4-3.3,11.3-5.4,17.1-7.7c0.7-0.3,1.4-0.5,2-1c4.7-4.2,10.7-6.3,16-9.6c2.2-1.4,4.9-1.9,7.2-3.2c2.4-1.3,4.6-3,7-4.5
			c5.1-3.3,10.2-6.6,15.9-8.9c2.8-1.1,5.5-1.9,7.6-4.8c1.4-1.9,4.8-2.4,7.4-3.5c0.9-0.4,2.1-0.7,2.6-1.5c2.3-3.1,5.9-4.2,9-6
			c4.4-2.5,8.6-5.5,12.8-8.2c0.4-0.2,0.7-0.6,1-0.8c6.6-4.1,13.2-8.1,19.7-12.3c4.4-2.8,8.5-5.9,12.8-8.8c1.1-0.7,2.2-1.6,3.4-1.9
			c2.9-0.7,5.3-2.3,7.6-4.1c3.8-3,7.5-5.9,12.2-7.6c2.6-1,4.9-3.1,7.3-4.7c5.8-3.9,11.3-8.1,17.7-11c3.6-1.6,6.7-4.1,10.1-6.3
			c6-3.8,11.9-7.9,18-11.5c9-5.3,18.3-10.2,27.2-15.7c4.7-2.9,9.9-5,14.3-8.2c8.7-6.2,18.9-9.9,28-15.3c4.1-2.5,8.2-5.1,12.4-7.4
			c9-4.9,18.2-9.4,27.1-14.4c5.5-3.1,11.2-5.7,16.9-8.3c9.1-4.2,18.2-8.2,27.3-12.2c7.6-3.4,15.3-6.7,23-9.9
			c13.5-5.7,27.1-11.2,41.4-14.6c10.7-2.6,21.4-5,32.2-7.3c2.8-0.6,5.8-0.7,8.7-0.8c13.8-0.4,27.6-1.3,41.4-0.9
			c15.1,0.4,30.1,2.2,45,5.5c13.8,3.1,27.2,7.1,40.1,13c17.8,8.1,33.4,19.1,46.1,34c6.6,7.7,13.4,15.3,19.6,23.3
			c7.3,9.4,14.9,18.6,19.8,29.5c4.5,10.1,7.6,20.6,9.7,31.5c1.2,6.3,2.7,12.6,3.9,19c2.7,14.8,3.8,29.8,3,44.8
			c-0.6,10.7-1.9,21.3-4,31.9c-3.6,18.5-10.2,35.9-18.8,52.5c-5.2,10-11.4,19.4-17.9,28.7c-5.9,8.4-12.3,16.5-19.1,24.2
			c-6.2,7-12.6,13.8-19.4,20.2c-8,7.5-16.4,14.6-24.8,21.7c-5,4.3-10.7,7.8-16.1,11.7c-4,2.9-7.8,6.1-11.7,9.2
			c-0.7,0.5-1.6,0.8-2.3,1.2c-1.7,1.1-3.3,2.2-4.9,3.2c-1.3,0.9-2.6,1.7-3.9,2.6c-5.3,3.4-10.5,6.8-15.8,10.1
			c-0.7,0.4-1.6,0.6-2.4,0.8c-0.7,0.2-1.8,0.1-2.1,0.6c-3,4.7-9.3,4.5-12.8,8.5c-1.2,1.3-3.7,1.4-5.4,2.3c-1.9,1-3.5,2.5-5.3,3.6
			c-1.6,0.9-3.3,1.6-5.7,2.8c-1.1-6.9-2-13.2-3-19.8c4.1-1.8,7.5-4.2,11.2-6.2c9.1-5,17.7-10.9,26.4-16.6
			c5.7-3.7,11.4-7.3,16.8-11.4c9.6-7.2,19.1-14.7,28.6-22.1c11.8-9.1,22-20,32-31c9.5-10.4,17.6-21.9,24.2-34.5
			c5.1-9.6,9.6-19.5,13.5-29.6c3.6-9.3,5.3-19.1,6.6-29c1.7-12.3,1.7-24.5,0.9-36.9c-0.6-9.8-2.8-19.2-5.2-28.7
			c-0.4-1.5-1.1-3-1.7-4.5c-5.4-12.8-11-25.6-18.8-37.1c-4.7-6.9-10-13.4-15.2-19.9c-4.3-5.3-8.9-10.5-13.6-15.6
			c-11.7-12.5-24.8-23.3-39-32.8c-6.1-4.1-13.1-7.1-19.8-10.3c-3-1.5-6.1-2.7-9.3-3.6c-6.3-1.7-12.7-3.1-19.1-4.4
			c-4.2-0.8-8.5-1-12.6-1.9c-8.7-1.9-17.6-1.5-26.4-1.7c-8.1-0.2-16.2-0.2-24.3,0.2c-6.7,0.3-13.4,1.4-20.1,2.2
			c-3.5,0.4-7,0.6-10.5,1.1c-4.3,0.7-8.7,1.4-12.9,2.4c-8.8,2.1-17.5,4.5-26.3,6.4c-4.6,1-8.8,2.7-13.2,4.2
			c-5.1,1.8-10.3,3.2-15.3,5c-5.2,1.9-10.2,4.1-15.4,6.2c-2.3,0.9-4.7,1.7-7,2.6c-7.1,2.7-14,5.9-20.9,9.2
			c-7,3.3-13.9,6.6-20.7,10.2c-5.8,3.1-11.3,6.6-17,9.8c-1.9,1.1-3.9,1.9-5.9,2.8c-4,2-8.1,3.9-12,6.1c-3.5,2-6.7,4.5-10.1,6.7
			c-3.8,2.4-7.7,4.6-11.5,6.9c-1.3,0.8-2.5,1.8-3.9,2.6c-8.5,5.2-17,10.4-25.5,15.7c-0.8,0.5-1.4,1.5-2.2,2.1
			c-2,1.6-3.6,3.7-6.6,3.8c-1,0-2.1,0.9-2.8,1.7c-2.2,2.4-4.5,4.4-7.8,5.4c-2,0.6-3.6,2.4-5.4,3.6c-4.3,3-8.5,6.1-12.9,8.9
			c-4.9,3.1-10,5.8-14.9,9c-3.8,2.5-7.2,5.7-11,8.3c-4.3,3-8.9,5.6-13.3,8.5c-2.9,1.9-5.7,4-8.6,5.9c-2.5,1.7-5.1,3.4-7.7,5.1
			c-1.8,1.2-3.8,2.1-5.5,3.3c-4.5,3-8.6,7-13.4,9c-5.3,2.3-9.4,6.1-14.4,8.8c-7.3,3.9-14.6,7.8-21.9,11.7c-8.1,4.4-16.1,9-24.2,13.3
			c-6.1,3.2-12.4,5.9-18.7,8.9c-2.1,1-4.2,2.1-6.3,3.1c-0.7,0.3-1.3,1-1.9,1c-3-0.1-5.3,1.1-7.8,2.7c-3.1,2-6.7,3.1-10.2,4.5
			c-2.7,1-5.5,1.7-8.3,2.7c-3.6,1.2-7.1,2.7-10.6,3.8c-8.4,2.6-16.8,5-25.2,7.4c-9.7,2.8-19.7,4.4-29.7,5.6c-8,1-16.1,1.3-24.2,1.3
			c-6.7,0-13.4-0.8-20.1-1.4c-8.9-0.8-17.8-1.6-26.7-2.8c-13.5-1.8-26.7-5.2-38.2-12.7c-12.8-8.5-22.7-19.6-28.4-34.4
			c-4.9-12.7-5.9-25.7-6.6-38.9c-0.3-5.1,1.5-9.8,1.9-14.7c0.9-10.1,5.6-18.8,9.9-27.6c1.3-2.6,3.7-4.5,5.6-6.8
			c6.5-7.8,14.3-14,22.9-19.4c6.3-4,12.9-7.5,19.3-11.2c4.8-2.8,10.1-4.5,15.2-6.7c0.8-0.3,1.8-0.4,2.5-0.8c5-3.4,11.1-3.7,16.4-6.1
			c8.7-4,18.1-5.6,27.3-8.1c7.9-2.1,16-3.7,24.1-5.2c12.2-2.3,24.5-4.7,36.8-6.5c9.9-1.5,19.8-2.2,29.7-3.2
			c10.1-1,20.1-2.1,30.2-3.1c5.4-0.5,10.9-0.6,16.2-1.4c7.6-1.3,15.2-3.1,22.8-4.7c0.6-0.1,1.1-0.4,1.7-0.4
			c5.5-0.1,10.4-2.1,15.2-4.7c2.5-1.4,5.3-2.3,7.9-3.4c7.2-2.9,12.9-7.9,18.8-12.7c4.9-3.9,10-7.8,13.9-12.7
			c6.4-8.2,14-15.4,19.5-24.4c3.1-5.1,7.2-9.6,10.2-14.7c2.9-4.9,4.9-10.2,7.4-15.3c2.3-4.7,4.8-9.4,7.1-14.1
			c0.9-1.8,1.2-3.9,2.1-5.7c13.7-31.2,19.3-64,24-97.6c5.7-40.9,9.2-81.6,9.8-122.7c0.3-19.3-2.6-43-1-64.1h-23
			c-0.3,13.3,1.9,27.7,1.8,40c-0.6,40.4-0.2,88-6.2,134c-4.4,33.5-10.8,57.4-23.8,88.1c-2.9,6.7-6.1,13.3-9.3,19.9
			c-2.2,4.6-4.1,9.4-6.7,13.8c-3,5-6.2,9.9-10,14.3c-6.9,8.1-13.1,16.9-20.6,24.6c-7.1,7.2-14.6,13.7-23.3,18.5
			c-7.1,3.9-14.6,7.2-22.1,10.4c-2.9,1.2-6.8,0.6-9.3,2.2c-3.1,2-6.2,0.6-9.1,1.6c-1.3,0.5-2.9,0.2-4.4,0.4c-8.3,1.4-16.7,3-25,4.1
			c-6.9,1-14,1.6-21,2c-5.1,0.2-9.7,2.5-14.9,2.5c-5.5-0.1-11,1.2-16.5,1.9c-2.9,0.3-5.8,0.5-8.6,1c-2.3,0.3-4.5,1-6.8,1.4
			c-5.5,1-11.1,1.5-16.4,3.2c-2.6,0.8-5.6,0.5-7.4,1.8c-2.5,1.7-5.1,0.9-7.5,1.7c-1.7,0.6-3.7,0.6-5.4,1.1
			c-4.2,1.1-8.2,2.8-12.7,3.2c-4.2,0.4-8.5,1.1-12.6,3c-4.3,2.1-8.9,3.7-13.4,5.3c-4.5,1.6-9.2,2.6-13.6,4.4
			c-5.8,2.3-11.6,4.7-17.1,7.7c-7,4-14.8,6.5-21.3,11.7c-6.2,5-13.4,9-20.1,13.4c-0.6,0.4-0.9,1.1-1.4,1.6c-0.7,0.9-1.3,1.9-2.1,2.7
			c-2.8,2.7-5.9,5.1-8.3,8.1c-3.9,4.8-7.1,10.3-9.6,16c-2.1,4.7-3.3,9.7-4.6,14.6c-1.8,6.6-3,13.2-3.4,19.9
			c-0.2,4.1-0.6,8.2-0.4,12.3c0.3,7.3,0.4,14.7,1.7,21.9c1.8,9.7,5.2,19,9.8,27.8c6.7,13,15,24.7,26.9,33.4
			c10.2,7.5,21,13.9,32.7,18.8c12.3,5.1,25,8.6,38,10.9c6.2,1.1,12.5,1.6,18.8,2.2c7.1,0.6,14.3,1.3,21.4,1.4
			c8.9,0.1,17.9-0.1,26.8-0.6c8.6-0.4,17.3-1,25.8-2.6c13.9-2.6,27.4-6.3,40.5-11.2c14.4-5.4,28.4-11.8,42.5-17.9
			c4.3-1.8,8.3-4.2,12.5-6.3c3.2-1.6,6.3-3.8,9.7-4.8c6-1.8,11.1-5.3,16.5-8.2c3.8-2.1,7.2-5.2,11.2-6.7c5.8-2.2,11-5.5,16.1-8.9
			c7.6-5,15.7-9.3,22.8-15.2c3.9-3.2,8.6-5.6,13.1-7.9c6.4-3.2,12-7.6,17.7-11.9c2.3-1.7,4.7-3.5,7.1-5.1c1.7-1.1,3.7-1.7,5.4-2.9
			c4.8-3.3,9.4-6.8,14.1-10.1c4.3-3,8.6-6,12.9-8.8c2.3-1.5,4.9-2.7,7.2-4.2c2.4-1.5,4.2-3.7,6.8-4.9c2.9-1.3,5.7-2.8,8.4-4.5
			c6.9-4.4,13.6-9.1,20.4-13.6c6-3.9,12-7.7,18-11.5c4.7-3,9.3-6.1,14.1-8.9c10.4-6.2,20.9-12.3,31.4-18.4c1.1-0.7,2.4-1,3.6-1.5
			c1.2-0.5,2.5-0.9,3.6-1.5c6-3.1,11.9-6.2,17.9-9.3c2.6-1.3,5.2-2.9,7.9-3.7c6.2-1.8,11.6-5.3,17.6-7.5c9.9-3.6,19.2-8.8,29.6-11.2
			c5.5-1.2,10.8-3.3,16.2-5.2c13.4-4.7,27.2-6.9,41.1-9.1c4.9-0.8,9.9-1.5,14.8-2.1c5.8-0.6,11.6-1.1,17.4-1.3
			c4.8-0.1,9.7,0.3,14.5,0.4c6.5,0.2,13,0.1,19.5,0.4c5.1,0.3,10.3,0.7,15.3,1.5c8.2,1.5,16.4,2.8,24.2,6c4.7,2,9.6,3.5,14.3,5.5
			c7.1,3.1,13.6,7.4,19.5,12.3c5.2,4.4,10.4,8.7,15.1,13.5c9.1,9.2,16.9,19.5,24.3,30.1c6,8.6,11.2,17.6,15.3,27.2
			c2.6,6.2,4,12.8,5.8,19.3c2,7.5,1.9,15.1,2.7,22.6c1,9.7-1.2,19.3-2.3,28.9c-0.2,2.2-0.3,4.4-0.9,6.5c-3,10.3-6.1,20.4-10.7,30.2
			c-4.2,8.8-9,17.1-14.4,25.2c-10.7,15.8-23.8,29.5-37.9,42.2c-9.4,8.4-19.5,16-29.3,23.9c-2.4,1.9-4.7,3.9-7.2,5.6
			c-4.7,3.2-9.5,6.3-14.2,9.5c-1.3,0.9-2.1,3-3.4,3.1c-5.9,0.7-8.4,7.2-14.2,7.8c-0.2,0-0.5,0.4-0.6,0.6c-0.6,2.2-2.3,2.3-4.1,2.5
			c-0.7,0.1-1.6,0.7-2,1.4c-1.5,2.5-3.9,3.4-6.5,3.9c-1.1,0.2-2.2,0.4-3.6,0.7c-0.7-1.4-1.6-2.8-2.2-4.3c-3.4-8.7-8-16.7-13.5-24.1
			c-3.5-4.7-7.4-9.1-11.2-13.5c-3.3-3.8-6.5-7.6-10.1-11c-5.8-5.6-11.8-11-17.9-16.2c-6.2-5.3-12.5-10.7-19.1-15.5
			c-6.5-4.8-13.3-9.3-20.2-13.4c-11.8-6.9-23.6-13.7-35.8-20c-7.4-3.8-15.3-6.8-23.1-9.9c-9.3-3.7-18.6-7.3-28-10.5
			c-8.6-2.9-17.3-5.6-26.2-7.7c-9.4-2.2-19-4-28.7-4.4c-5.8-0.2-11.6-0.8-17.4-0.8c-9-0.1-18-1-27-1.2c-3.9-0.1-7.9,0.6-11.8,1
			c-4,0.4-8.3-1.2-12.2,1c-0.3,0.2-0.8-0.3-1.2-0.3c-1.4-0.1-2.9-0.3-4.3-0.1c-2.1,0.3-4.2,1.1-6.3,1.4c-4.2,0.7-8.7-0.5-12.6,2.4
			c-0.4,0.3-1.2,0-1.7,0.2c-3.5,0.8-7,1.6-10.6,2.4c-3.3,0.8-6.6,1.3-9.7,2.5c-3,1.2-6.6,0.8-9.1,3.3c-0.1,0.1-0.3,0.1-0.4,0.1
			c-2.5-0.6-4.4,1.1-6.5,1.9c-0.8,0.3-1.6,0.6-2.4,0.8c-0.9,0.2-4.9,0.7-5,0.9c-1.4,2.8-4.1-0.3-5.8,1.2c-0.6,0.6-1.7,0.8-2.1,1.5
			c-1.8,2.6-4.6,3.5-7.3,4.7c-4.8,2.2-9.5,4.4-14.3,6.7c-3,1.4-6.1,2.9-9,4.6c-5.4,3.2-11,6.2-16,9.9c-7.1,5.3-13.8,11.2-20.9,17
			c-0.3-0.1-0.8-0.4-2.5-1.2c1.8,3.2,0,4.6-1.2,6.4c-4,5.8-8,11.6-11.7,17.5c-1.8,2.9-3.5,6.1-4.5,9.4c-0.8,2.6-3.1,4.6-3,7.5
			c0,0.2-0.9,0.5-1,0.6c0.3,3,0.7,5.8,0.9,8.5c0.2,2.4-0.2,4.8,0.4,7.1c2.9,10.6,4.5,21.5,8.5,31.8c3,7.8,5.7,15.8,10.6,22.7
			c3.2,4.5,6.8,8.8,10.2,13.3c7,9.1,15.3,17.1,24.1,24.5c13.2,11.1,27.9,20,43.2,27.8c11.2,5.8,23.2,10,35.2,13.8
			c8.9,2.9,18,5.3,27.1,7.4c11.7,2.7,23.4,5.3,35.3,7.4c9.5,1.7,19.2,2.6,28.8,3.7c12.2,1.3,24.5,2.6,36.8,3.7
			c6.7,0.6,13.5,0.8,20.2,1c6.7,0.2,13.4,0.2,20.1,0.3c0.8,0,1.5,0,2.3,0c0.1,0.3,0.2,0.6,0.3,0.9c-1.1,0.8-2.4,2.4-3.3,2.2
			c-2.6-0.6-4.4,1-6.4,1.7c-6.8,2.6-14.2,2.6-21,4.7c-1.4,0.4-2.6,1.7-4,2c-4.2,0.9-8.5,0.5-12.7,1.9c-2.5,0.8-5.6,0.2-8,1.2
			c-2.3,1-3.8,0.5-5.2-0.8c-1.9,0.7-3.5,1.6-5.1,1.9c-3.7,0.6-7.4,0.9-11,1.3c-2.6,0.3-5.2,0.6-7.8,0.7c-4.5,0.2-8.9-0.5-13.5,0.3
			c-5.9,1.1-12.2,1.2-18.2,1.1c-4.6-0.1-9.3,1.1-13.9-0.4c-0.5-0.2-1.2,0-1.8,0c-2.6,0.1-5.2,0.2-7.8,0.2c-0.7,0-1.6-0.2-2.2,0
			c-3.3,1.5-6.7,0.3-10,0.6c-2.3,0.2-4.4-0.3-6.6-0.1c-2,0.2-4,0.3-6,0.4c-1.7,0.1-3.4,0.1-5.2,0c-2.2,0-4.3-0.1-6.5-0.1
			c-3.3-0.1-6.8-0.7-10-0.1c-5.2,1-10.3,0.8-15.5,0.7c-1.1,0-2.3-0.8-3.2-0.5c-3.2,1-6.5,0.3-9.3-0.2c-2.9-0.5-4.6,0.1-6.5,1.6
			c-0.4-0.4-0.8-1.1-0.9-1c-2.1,1.2-4,0.4-6-0.2c-1.3-0.4-3,0.3-4.1-0.3c-2.2-1.2-3.8-0.9-4.6,0.6c-2.6-0.1-4.7-0.3-6.8-0.3
			c-2,0-4.2,0.9-6.1,0.4c-2.7-0.7-5.1-0.3-7.7,0.2c-2.9,0.5-6,0.1-8.9,0.7c-4.8,0.9-9.8-0.2-14.6,0.8c-1.2,0.3-2.9-0.8-4.7-0.5
			c-4,0.8-8,1.4-12.1,1.8c-1.8,0.2-3.6-0.3-5.5-0.4c-0.5,0-1.3,0-1.5,0.3c-1.6,2.3-4.2,1.6-6,1.3c-4-0.5-7.6,0.6-11.3,1.2
			c-2.8,0.4-5.6,1.1-8.4,1.5c-2.7,0.5-5.4,0.9-8.1,1.3c-2.4,0.4-4.5,3.2-7.2,1c-0.1-0.1-0.5,0.2-0.8,0.3c-3.1,1.2-6.3,1.8-9.7,2.2
			c-3.8,0.6-7.8,0.6-11.6,2.6c-2.3,1.2-5.3,1.5-7.9,2.4c-0.7,0.2-1.5,0.2-2.2,0.2c-3.4-0.2-6.4,0.8-9.2,2.6
			c-0.6,0.4-1.1,1.1-1.6,1.2c-5.5,0.7-11,1-16.4,2.4c-2.4,0.6-4.9,0.4-6.8,2.5c-0.8,0.8-2.4,0.9-3.7,1.2c-2.6,0.7-5.2,1.4-8.1,2.2
			c0.7,1,1,1.5,1.9,2.8c-4.3-1-7.7-0.2-11.2,1.1c-5.8,2.2-11.6,4.3-17.1,7.5c-1.7,1-2.9,2.9-5.4,1.9c-0.5-0.2-1.5,0.8-2.2,1.3
			c-3.3,2.1-6.5,4.2-9.9,6.2c-3,1.8-6.4,2.9-8.8,5.8c-0.9,1.1-2.3,1.8-3.5,2.5c-2.5,1.5-5.1,3-7.6,4.5c-0.3,0.2-0.3,0.8-0.6,1.1
			c-0.5,0.6-0.9,1.4-1.5,1.6c-6,2.3-9.9,7.3-14.6,11.2c-3.5,2.9-6.1,6.8-9.5,9.9c-6.1,5.7-10.3,12.8-14.3,19.8
			c-3.2,5.6-6.8,11.2-7.9,17.9c-1.4,7.8-3.9,15.4-4.7,23.3c-0.9,8.4-0.8,17-0.6,25.5c0.4,18.5,5,35.8,14.6,51.9
			c7.9,13.3,17.7,24.8,29.5,34.7c9.8,8.2,20.3,15.5,31.6,21.6c13.7,7.4,27.8,14,42.3,19.5c11,4.1,22.1,7.8,33.8,9.6
			c5.3,0.9,10.6,2.3,16,2.9c9.3,1,18.7,1.9,28,2c10.7,0.2,21.4-0.1,32.1-0.9c10.5-0.8,21-2.3,31.4-3.8c7.2-1,14.5-2.3,21.6-3.9
			c9.1-2.1,18.1-4.6,27.2-7.1c7.5-2.1,14.9-4.4,22.3-6.7c3.6-1.1,7.3-2.1,10.9-3.4c10.6-3.7,21.2-7.5,31.8-11.3
			c9.8-3.5,19.5-7,29.2-10.8c7.6-3,15.1-6.5,22.6-9.6c10-4.1,20-8.1,30-12.1c7.6-3,15.2-6,22.8-9c5.9-2.3,11.9-4.1,17.6-6.8
			c6-2.9,12.2-4.9,18.4-7c2.5-0.9,4.8-2,7.2-3c4-1.6,8.1-3.2,12.1-4.8c2.4-1,4.9-1.8,7.3-2.8c1-0.4,1.9-0.8,2.8-1.2
			c7.1-2.5,14.3-5,21.5-7.6c4.1-1.5,8.2-2.9,12.4-4.4c3.9-1.3,7.8-2.5,11.6-3.9c8.8-3.1,17.7-5.8,26.7-8.2
			c5.4-1.4,10.8-2.6,16.2-4.1c8.9-2.5,17.8-4.7,27-6.1c12.5-1.9,24.9-4.1,37.5-5.7c12.1-1.5,24.3-2.2,36.5-2.1
			c17.6,0.1,34.9,2,51.8,7.3c15.5,4.9,29.6,12.2,41.1,24c3.2,3.4,5.3,7.3,6.4,11.8c3.8,15.4,0.7,29.8-6.2,43.5
			c-3.6,7.1-7.9,14.1-14.1,19.5c-4.1,3.6-8.2,7-12,10.8c-2.5,2.6-5.3,4.7-8.5,6.4c-5.2,2.7-10.4,5.5-15.5,8.3
			c-1,0.6-1.8,1.5-2.8,2.2c-1,0.7-2.2,1.2-3.3,1.7c-2.5,1.3-5.6,1.3-7.9,3.4c-1.8,1.6-4.1,2.5-6.3,3.5c-2.1,0.9-4.6,1.1-6.3,2.4
			c-2,1.5-4.6,1-6.3,2.8c-3.7-0.8-6.7,1.4-9.9,2.3c-4.4,1.2-8.6,3.3-12.7,5.3c-6.9,3.3-14.7,3.5-21.8,6.2c-4.5,1.7-9.6,1.7-14.5,2.6
			c-3.5,0.7-6.9,1.4-10.4,1.9c-5.8,0.7-11.5,2.7-17.3,3.8c-5.5,1-11,1.7-16.5,2.4c-11.6,1.6-23.2,3.4-34.8,4.6
			c-10.5,1.1-21.1,1.6-31.6,2.4c-5.5,0.4-11.1,0.8-16.6,1.2c-4.9,0.4-9.9,0.8-14.8,1.3c-5.7,0.6-11.3,1.3-17,1.9
			c-10.1,1.1-20.2,1.9-30.2,3.1c-9.6,1.2-19.3,2.5-28.9,4c-5.2,0.8-10.2,2.2-15.4,3.3c-3.1,0.6-6,2.1-9.3,1.5
			c-0.7-0.1-1.4,0.2-2.1,0.5c-5.1,1.9-10.3,3.8-15.4,5.7c-7.2,2.7-14.5,5.3-21.7,7.9c-2.1,0.7-4.7,0.8-6.1,2.1
			c-3.5,3.2-8.1,4.3-12,6.8c-7.4,4.7-14.9,9-21.5,14.8c-4.6,4.1-8.8,8.5-12.7,13.3c-3.2,4-6.2,8.1-9.2,12.2
			c-3.9,5.2-7.1,10.8-9.9,16.5c-4.1,8.2-7.6,16.8-10.8,25.5c-2,5.3-3,11-4.3,16.6c-0.7,2.7-1.2,5.4-1.7,8.1
			c-0.7,3.5-1.5,6.9-1.9,10.4c-0.8,7.4-1.6,14.9-2.1,22.3c-0.6,8.8-1.1,17.6-1.3,26.3c-0.1,4.8,0.4,9.7,0.4,14.5
			c-0.1,46.2,2,94,2.6,140.9c0.2,12.1,0.7,24.3,1.4,36.5h24c-1.7-10.9-3.1-21.8-3.1-32.7c0.4-49.4-1.3-98.7-2.3-148.1
			c-0.1-4.6-0.9-9.3-0.8-13.9c0.2-8.1,1.3-16.2,1.1-24.2c-0.2-6.8,0.9-13.4,1.9-20.1c2-13,6.1-25.3,10.3-37.8
			c5.5-16.5,15.8-29.7,26.7-42.7c2.5-3,5.8-5.3,8.9-7.7c7.8-6,16-11.4,24.9-15.6c14.1-6.7,28.6-12.2,43.8-15.7
			c13.3-3.1,26.8-5.5,40.2-7.6c14.1-2.1,28.3-3.5,42.4-5c8.8-0.9,17.6-1.5,26.4-2.2c15.5-1.3,31-2.5,46.5-4c12-1.1,24-2.5,35.9-4
			c9-1.1,18-2.7,27-4.1c7.4-1.2,14.8-2.2,22.2-3.6c12.7-2.5,25.3-5.3,37.4-10.1c5.4-2.1,11.2-3.2,16.6-5.3
			c11.1-4.1,22.3-7.6,32.8-13.2c3.5-1.8,7.2-3.2,10.5-5.3c6.7-4.4,14.6-6.8,20.7-12.2c2.5-2.2,5.5-3.7,8.1-5.8
			c2.3-1.8,4.3-4,6.3-6.1c4.4-4.7,8.9-9.4,13.2-14.2c2.9-3.3,5.2-6.8,6.7-11.2c1.6-4.7,4.8-8.9,6.9-13.5c1.4-3,2.2-6.3,2.9-9.6
			c1.5-7.7,1.8-15.4,1.1-23.2c-1.2-13-6.2-24.3-15-34c-5.9-6.6-13.2-11.6-20.4-16.7c-3.9-2.8-8.6-4.4-13-6.4
			c-6.4-3-12.7-6.2-19.2-8.8c-5.9-2.3-11.9-4.2-18.1-5.6c-5.5-1.2-11.3-1.5-16.9-2.2c-0.7-0.1-1.5-0.1-2.2-0.3
			c-10-2.3-20.1-1.7-30.2-1.5c-10.3,0.3-20.5,1.4-30.8,1.5c-5.8,0.1-11.2,1.6-16.8,2.5c-8.3,1.3-16.7,2.4-25,3.9
			c-7.5,1.4-14.9,3.3-22.3,5.1c-2.3,0.5-4.6,1.1-6.8,1.7c-6.8,1.8-13.6,3.5-20.3,5.6c-10,3-20.1,6.2-30,9.5
			c-8.2,2.7-16.3,5.5-24.4,8.6c-14,5.3-27.9,10.7-41.8,16.1c-7.9,3.1-15.5,7-23.6,9.5c-4.9,1.5-9.3,4-14.1,5.7
			c-9.6,3.4-19.2,6.9-28.7,10.5c-5,1.9-9.8,4.7-14.9,6.2c-4,1.1-7.7,2.5-11.1,4.8c-0.6,0.4-1.6,0.1-2.4,0.1c-0.5,0-1.2-0.1-1.6,0.2
			c-4.1,3.9-9.8,4.5-14.5,7.1c-2.4,1.3-5,2.4-7.6,3.3c-1.9,0.7-3.9,1.1-5.8,1.6c-0.6,0.2-1.1,0.3-1.6,0.6
			c-12.1,6.9-25.3,10.8-38.6,14.1c-1.9,0.5-3.7,1.1-5.6,2.1c-2.2,1.2-4.9,1.4-7.4,2.2c-7.5,2.4-15,5-22.6,7.2
			c-8.6,2.4-17.3,4.5-26,6.7c-18.5,4.7-37.3,8.1-56.3,9.9c-13.5,1.2-27,1.4-40.5,0.6c-14.7-0.8-29.3-2.7-43.4-6.7
			c-24-6.9-46.3-17.6-66.5-32.6c-7.2-5.4-14.2-11-20.3-17.6c-8.8-9.4-16.6-19.5-20.6-31.9c-2.8-8.7-4.4-17.6-4.4-26.8
			c0-2.2-0.4-4.4-0.4-6.5c0.2-7.2,0.2-14.4,0.9-21.5c0.4-4.5,2-8.8,2.8-13.3c0.8-4.2,2.1-8.2,4.7-11.7c1.2-1.6,1.2-3.9,2.2-5.7
			c4-7.4,8.1-14.7,14.4-20.4c7.2-6.5,14.5-12.9,21.7-19.3c0.7-0.6,1.3-1.3,2.1-1.5c4.4-1.2,7.4-4.7,11.1-7
			c5.7-3.7,11.7-7.1,17.9-9.9c5.6-2.6,11.4-4.6,17-7.3c7.2-3.5,15.1-4.8,22.4-7.9c8.3-3.6,17.2-4.8,25.8-7.2
			c9.3-2.6,18.8-4.5,28.2-6.7c5.1-1.2,10.2-2.6,15.4-3.4c7.9-1.3,15.9-2.3,23.9-3.3c7.1-0.9,14.3-1.6,21.5-2.2
			c8.6-0.6,17.3-1.1,26-1.4c10.4-0.5,20.9-1,31.3-1.2c7.9-0.2,15.8,0,23.8,0c10.6,0,21.2,0,31.7,0c7.2,0,14.3,0.1,21.5-0.1
			c13.8-0.4,27.6-1,41.4-1.5c7.3-0.2,14.7,0,22-0.5c10.5-0.6,21.1-1.8,31.6-2.5c21.4-1.4,42.1-6.2,62.4-12.7
			c17.7-5.7,35-12.7,51.2-22.2c10.2-6,20.1-12.6,29.5-19.8c1.6-1.2,3.6-2,5.5-2.7c6.3-2.4,12.6-4.8,18.9-6.9c4-1.3,8.2-2,12.1-3.4
			c6.6-2.2,13.1-4.8,19.6-7.2c0.8-0.3,1.6-0.5,3.1-1c-0.6,1.4-0.7,2.4-1.3,3.1c-6.9,9.5-13.5,19.2-21.9,27.5
			c-11.7,11.6-23.3,23.2-37.2,32.3c-7,4.5-14.1,8.7-21.2,13.1c-1.5,0.9-3.1,1.7-4.4,2.9c-0.8,0.7-1.4,1.1-2.5,1.1
			c-1.2,0-2.5,0.8-3.5,1.5c-5.5,4.2-11.8,7-18.1,9.5c-4.7,1.9-9.7,2.9-14.4,4.9c-2.2,1-4.4,1.9-6.8,2.6c-6,1.7-11.9,3.6-17.9,5.3
			c-0.8,0.2-1.8-0.4-2.1-0.5c-2.2,0.9-3.9,1.9-5.8,2.4c-2.8,0.9-5.7,1.5-8.5,2.2c-1.6,0.4-3.2,1.1-5-0.3c-1-0.8-3-0.8-3.6,1.5
			c-0.1,0.5-1,1-1.5,1.1c-9.8,1.6-19.6,2.9-29.4,4.8c-7.7,1.5-15.6,2.1-23.4,2.9c-6.1,0.6-12.2,0.6-18.4,0.9c-0.6,0-1.2,0.1-1.7,0.2
			c-6.5,1.5-13.1,1.1-19.7,1.1c-5.9,0-11.7,0.5-17.6,0.2c-7.1-0.4-14.2,0.5-21.3-0.7c-1.7-0.3-3.5-0.2-5.3-0.1
			c-2.9,0.1-5.7,0.2-8.6-0.8c-2.4-0.8-5.2-0.3-7.8-0.5c-9.6-0.7-19.2-1.5-28.8-2.2c-1.3-0.1-2.5-0.1-3.8-0.1
			c-12-0.1-23.9,0-35.9-0.2c-5.5-0.1-11-0.4-16.5-0.5c-2.5,0-4.9,0.2-7.4,0.5c-0.7,0.1-1.3,0.9-1.9,1.3c-1-0.5-2.2-1.6-3.3-1.5
			c-6.4,0.2-12.9,0.5-19.3,0.9c-1.6,0.1-3.7-0.1-4.6,0.8c-1.3,1.3-2.1,1.3-3.3,0.5c-2.3-1.5-4.5-1.8-6.7,0.2
			c-0.2,0.2-0.8,0.3-1.1,0.2c-4.6-1.7-9.3,0.3-13.9-0.2c-4.7-0.6-9.1,1.1-13.7,1.4c-5.7,0.4-11.4,1.9-17.1,3
			c-4.4,0.9-8.9,1.7-13.3,2.8c-7.6,1.9-15.2,4-22.8,6c-1.4,0.4-2.7,1.2-4,1.8c-0.9,0.4-1.8,1-2.8,1.2c-1.3,0.2-2.7-0.2-3.9,0.3
			c-1,0.4-1.7,1.8-2.7,2.3c-2.7,1.3-5.6,2.2-8.4,3.4c-3.9,1.7-7.9,3.1-11.5,5.2c-9.6,5.6-19.3,11.1-27.6,18.7
			c-0.4,0.4-0.9,0.8-1.5,0.9c-3.3,0.8-4.8,3.8-7,5.9c-1.4,1.4-2.1,3.3-4.4,4c-1.2,0.4-2.1,2-2.9,3.2c-8.5,14.2-13.1,29.3-10,46.1
			c0.3,1.6,0.6,3.2,1.2,4.7c3.5,9.8,6.4,19.9,12.3,28.6c8.8,13,18.7,24.9,32.5,33c8,4.7,16.6,8.1,25.4,10.9
			c15.4,4.9,31.2,7.1,47.2,8.1c8.8,0.5,17.6,1.1,26.4,1.1c14.4,0,28.8-1.3,43.1-2.6c14.8-1.4,29.4-4,43.8-7.5
			c14.1-3.4,28-7.5,42-11.3c3.4-0.9,6.9-1.5,10.3-2.4c9.4-2.7,18.9-5.4,28.2-8.4c9.3-3,18.5-6.5,27.7-9.8c9.1-3.2,18.2-6.4,27.3-9.8
			c10.6-4,21.1-8.1,31.6-12.2c14.1-5.5,28.1-11.1,42.1-16.6c12.7-4.9,25.4-9.8,38.1-14.6c3.7-1.4,7.5-2.3,11.3-3.6
			c2.9-1,5.7-2.4,8.6-3.3c9.2-3,18.4-5.9,27.6-8.7c9-2.7,17.9-5.5,27-7.9c12-3.2,24.2-5.8,36.2-9c15.3-4.1,31-6.8,46.6-9.1
			c10-1.5,20.2-2,30.3-2.6c6.9-0.4,13.8-0.6,20.6-0.5c10.1,0.1,20.3,0.5,30.4,1.1c8.9,0.5,17.9,0.9,26.7,2.2
			c9.9,1.4,19.7,3.5,29.4,5.6c6,1.3,12,3.1,17.8,5.1c9.6,3.3,16.8,10,23.1,17.8c5.8,7.2,10.9,15,14.7,23.5c4.2,9.2,6.9,19,8.7,29
			c2,11.2,3.2,22.4,3.1,33.8c-0.1,12.1-2.1,24-4.6,35.8c-3.4,15.5-9.4,29.9-16.8,43.8c-3.7,7.1-9,13-14.3,18.9
			c-10.9,12.1-24.4,20.6-38.6,28.1c-1.1,0.6-2,2.2-2.9,2.1c-1.5-0.1-1.9,0.2-2.4,1.5c-0.2,0.5-1.3,1-1.9,0.9c-3.3-0.4-6,1.6-8.9,2.5
			c-2.7,0.8-5.4,1.9-8.1,2.9c-1.2,0.5-2.6,0.8-3.6,1.4c-2.2,1.4-4.3,2.1-7,2c-1.8,0-3.6,1.2-6.2,2.2c-0.1-0.1-1.1-0.6-2.3-1.4
			c-0.3,0.6-0.6,1.2-1,1.9c-1.9-1.1-3.8-0.5-5.7,0.7c-0.9,0.6-1.9,1.2-2.9,1.2c-1.9,0-4.1-1.3-5.2,1.5c-0.1,0.1-0.6,0.3-0.8,0.2
			c-3.1-1.6-5.9,1.1-8.9,0.9c-0.6-0.1-1.5,0.4-1.8,0.9c-1.8,2.4-4.1,2.4-6.8,2.1c-2.2-0.2-5.3-2.8-6.4,1.7c-0.1,0.3-1.4,0.5-2,0.4
			c-1.6-0.1-3.2-0.5-4.8-0.7c-0.4,0.5-0.7,1.5-1.2,1.6c-5.1,1-10.3,1.9-15.5,2.8c-2.7,0.5-5.5,0.9-8.3,1.3c-2.7,0.4-5.4,1.1-8.2,0.1
			c-0.6-0.2-1.7-0.3-2.1,0.1c-2.1,2.1-4.8,1.3-7.3,1.9c-4.2,1-8.5,1.6-12.7,1.9c-1.6,0.1-3.2-0.2-4.4-0.2c-2.5,0.6-4.5,1.3-6.6,1.6
			c-8.1,1.1-16.3,2-24.4,3c-8.6,1-17.2,2.5-25.9,3c-5.8,0.4-11.4,2.1-17.1,2.3c-3.5,0.1-7,1.9-10.5-0.4c-0.9-0.6-2.9,0.1-4.1,0.6
			c-2.9,1.3-5.7,2-9,2.2c-6.2,0.4-12.4,1.5-18.5,2.4c-5.6,0.8-11.2,1.9-16.8,2.7c-1.5,0.2-3.9-0.8-4.4-0.2c-1.7,2.1-2.8,0.3-4.2,0
			c-0.3-0.1-0.7-0.2-0.9,0c-3.4,2.5-7.3,1.8-11.1,1.6c-1.8,2.5-4.6,0.6-6.9,1.5c-2.3,0.9-4.9,0.9-7.3,1.3c-2.6,0.4-5.1,0.9-7.7,1.3
			c-0.3,0-0.6,0.2-0.8,0.2c-6.5-0.6-12.3,2.9-18.5,3.2c-8.3,0.4-15.8,4.5-24.2,4c-2-0.1-4.1,2-6.1,2c-4.1,0-7.8,1.5-11.7,2.2
			c-2.2,0.4-4.2,1.8-6.3,2.9c-2,1-4.5,0.8-5.9,3.3c-0.4,0.6-2.5,2.6-4.6,1.2c-0.2-0.2-0.8,0-1.2,0.2c-3.4,2-7.4,3.5-10,6.2
			c-1.8,1.8-4,2-5.8,3.4c-5.9,4.6-9.2,10.9-12.8,17.2c-5.9,10.3-10.1,21.4-14.8,32.3c-5.8,13.3-8.6,27.4-9.6,41.8
			c-0.7,9.7-2,19.3-3.3,28.9c-5.8,41.6-5.3,84.9-4.1,126.8c0.5,17.5,1.8,35,3.6,52.4h27.2c-0.3-4.4-0.5-8.8-0.7-13.2
			c-1.5-44.7-4.9-89.5-1.9-134.2c1.2-17,3-34,4.3-51c1-12.8,3.4-25.2,8.5-37.1c3.3-7.7,5.8-15.7,9.2-23.3
			c3.2-7.2,6.8-14.5,13.6-19.2c6.9-4.8,14.1-9.1,22-11.8c9.4-3.2,18.9-6.2,28.6-8.5c11.1-2.7,22.4-4.5,33.5-6.8
			c2.6-0.5,5.1-1.4,7.7-1.7c10.6-1.5,21.3-2.8,31.9-4.3c8.7-1.2,17.5-2.6,26.2-3.7c12.7-1.6,25.4-3,38.1-4.5
			c9.2-1.1,18.4-2.3,27.5-3.5c5.2-0.7,10.4-1.7,15.7-2.3c9.4-1.2,18.9-2.3,28.3-3.4c2.6-0.3,5.3-0.2,7.9-0.6
			c9.8-1.4,19.7-2.9,29.5-4.4c12.5-1.9,24.9-3.7,37.3-6c7.9-1.5,15.8-2.9,23.5-5.5c6.2-2.1,12.9-2.5,19.2-4.4c9.8-3,19.5-6.3,29-10
			c7.3-2.9,13.3-8.4,20.4-11.8c1.8-0.8,3.3-2.3,4.8-3.7c3.9-3.6,8.9-5.5,12.5-10c6.1-7.5,13.7-13.7,20.1-21
			c3.7-4.2,6.5-9.2,9.3-14.1c1.9-3.3,3.2-7.1,4.8-10.6c1.4-3,3.1-5.9,4.4-8.9c3.9-9.2,6.7-18.8,8.9-28.5c1.1-5.2,2.7-10.3,3.3-15.5
			c1.4-12.1,1.6-24.2,0.2-36.4c-2-17.9-6.4-35-13.8-51.3c-3.3-7.5-7.2-14.7-11.3-21.8c-5.1-8.9-11.4-16.8-19.3-23.3
			c-7.2-6-15.4-10.7-23.7-15.2c-8.7-4.7-17.6-8.7-27.3-10.9c-21.2-4.8-42.7-8.1-64.5-8.9c-7.2-0.3-14.4-0.4-21.6-0.7
			c-8.5-0.4-16.9,0.5-25.4,1.2c-3.3,0.3-6.7,0.7-10,1c-1.7,0.2-3.4,0.3-5.1,0.4c-2.9,0.2-5.8,2.6-8.9-0.3c-1.5,2.4-3.7,2.7-6.2,2.5
			c-2-0.1-4.5-0.7-6,0.2c-2.4,1.5-4.4,0.7-6.1,0.3c-1.6,0.9-2.8,2-4.1,2.1c-1.7,0.1-3.5-1.2-5.1-0.9c-1.9,0.3-3.5,2-5.4,2.6
			c-2.3,0.7-4.7,0.9-7.1,1.4c-5.7,1.3-11.5,2.4-17.1,4c-3.7,1-7.2,2-11.2,1.5c-1.6-0.2-3.6,0.4-4.9,1.3c-2.9,1.9-2.8,2-6.4,1.6
			c-0.4,0-1,0-1.1,0.3c-2.4,3.2-5.7,2.6-8.5,2.4c-0.9,0.9-1.7,2.1-2.3,2.1c-2.6-0.2-4.6,1.3-6.9,1.9c-5,1.5-10.1,2.7-15.3,3.9
			c-1,0.2-2.7-0.7-3.2-0.2c-0.7,0.7-0.7,2.1-2.3,1.4c-0.9-0.4-1.9-0.5-1.9-0.5c-2.3,1.6-3.8,3-5.5,3.8c-2.1,0.9-4.4,1.2-6.6,1.9
			c-4.4,1.4-8.8,2.9-13.3,4.2c-3.6,1-7,3.1-11,2.5c-0.4,0-0.9,0.1-1.1,0.3c-2.2,3.6-6.9,2.6-9.6,5.4c-5.4-0.3-9.5,3.4-14.4,4.7
			c-5.2,1.5-10.1,4.3-15.2,6.3c-6.2,2.4-12.5,4.5-18.7,6.8c-5,1.9-10,4-15,5.9c-10.6,4.2-21.3,8.2-31.9,12.6
			c-2.7,1.1-5.1,2.7-8.2,2.9c-0.5,0-1,0.5-1.6,0.7c-6.1,2.5-12.1,5.1-18.2,7.4c-6,2.3-12,4.5-18.1,6.6c-1.8,0.6-3.9,0.6-5.9,1
			c-0.4,0.4-0.8,1.3-1.5,1.5c-3.7,1.3-7.4,2.5-11.2,3.6c-0.9,0.3-2.1-0.4-2.9,0c-4,1.8-8.4,2.3-12.1,5c-1.4,1-3.6,0.7-5.3,1.3
			c-2.5,0.8-5.8-0.8-7.5,2.5c-0.2,0.4-1.4,0.4-2.1,0.5c-1.2,0.1-2.7-0.2-3.6,0.4c-0.9,0.5-1.3,2.2-2.7,1.3c-2.2-1.5-1,1.6-2.5,1.6
			c-2-0.1-4,0.5-6,0.9c-1.5,0.3-3.4,0.2-4.4,1c-1.1,1-1.6,1.3-2.9,0.7c-0.7-0.3-1.7-0.2-2.5-0.1c-3.1,0.7-6.3,1.4-9.3,2.4
			c-2.3,0.7-4.3,2-6.4,3.2c-1.9,1.2-5.1,0.3-7.6,0.7c-3.2,0.6-6.2,2-9.3,2.6c-14,2.8-27.9,6.6-42.2,7.8c-12.8,1.1-25.7,2.2-38.6,2.7
			c-19.5,0.9-38.7-2.3-58-4.3c-2.5-0.3-5-0.7-7.3-1.5c-5.1-1.8-10.1-3.7-15-6c-3.5-1.7-7-3.6-9.8-6.5c-5.8-5.9-10.8-12.4-15.1-19.5
			c-4.1-6.8-7.2-14-8.1-22.1c-1.3-11.8,2.6-22.3,7.6-32.6c0.2-0.5,0.7-0.9,1.1-1.3c5.1-4.6,10.2-9.3,15.5-13.7
			c9.6-7.8,19.7-14.8,31.2-19.6c16.4-6.9,33-12.8,50.6-16.2c15.2-2.9,30.4-5.4,45.8-6.2c18.9-1,37.9-1.1,56.9-1.4
			c10.6-0.2,21.1,0,31.7,0.1c5.6,0.1,11.2,0.3,16.8,0.6c12.9,0.9,25.7,1.9,38.6,2.8c5.8,0.4,11.7,0.6,17.5,0.7
			c7.6,0.2,15.2,0.2,22.8,0.2c5.8,0,11.7,0,17.5-0.1c5.2-0.1,10.4-0.4,15.5-0.7c2.8-0.1,5.5-0.4,8.3-0.6c4.2-0.3,8.4-0.7,12.6-1
			c2.2-0.2,4.3-0.8,6.5-0.7c6.6,0.5,13.1-0.9,19.5-1.9c11.1-1.7,22.1-4.1,33-6.9c2.6-0.7,5.1-0.1,7.6-1c4.8-1.7,9.7-3.5,14.7-4.5
			c13.7-2.9,26.5-8.4,39.5-13.2c16.3-6,31.3-14.7,45.9-24c3.8-2.4,7.3-5.4,10.9-8.1c4.9-3.7,10.1-7.1,14.6-11.2
			c8.7-8.1,16.9-16.8,25.3-25.2c7-7,12.7-15.1,18.4-23c5.5-7.6,9.5-16.2,12.9-25c1.3-3.4,2.4-6.9,3.7-10.3c0.7-1.9,1.7-3.5,3.9-4.5
			c4.4-1.9,8.8-4.1,13-6.5c14.3-8.1,28.7-16.2,42.8-24.7c10.4-6.3,20.8-12.8,30.6-20c12.8-9.5,25.2-19.7,37.4-29.9
			c4.7-3.9,8.9-8.4,12.9-13c7.3-8.2,15.7-15.5,21.8-24.7c2.7-4,6.6-7.2,9.1-11.3c6.4-10.3,13.9-20,19.2-31c2.1-4.5,5.1-8.5,7.1-13.1
			c3.1-6.8,6.1-13.7,8.3-20.8c2.4-7.7,4.2-15.6,5.7-23.5c1.2-6,1.6-12.2,2.3-18.3C1282.1,530.7,1282.7,514.9,1280.4,499.1z
			 M989.4,744.7c-2.5-0.4-3.9,0.3-5.7,2.1c-1.9,1.9-5.5,2-8.3,2.8c-0.5,0.1-1.5-0.3-1.6-0.2c-1.7,3.1-5.3,1.9-7.7,3.7
			c-1.3,1-3.2,1.2-5,1.5c-2.2,0.4-4.7-0.2-6.2,2.2c-0.2,0.3-0.8,0.4-1.2,0.4c-5.4,0.6-10.1,3.5-15.4,4.6c-0.3,0.1-0.6,0.3-0.8,0.3
			c-6.7,0.1-12.6,3.8-19.1,4.7c-1.9,0.3-3.8,1.4-5.9-0.1c-0.5-0.3-1.9,0.5-2.8,0.9c-0.9,0.4-1.6,1.4-2.4,1.4
			c-4.9,0-9.4,2.1-14.2,2.4c-5,0.3-9.9,1.7-14.8,1.6c-4-0.1-7.8,1.3-11.7,1.4c-4.2,0.1-8.4,0.7-12.7,0.9c-1.6,0.1-3.2,0-4.8,0
			c-8.4,0-16.8,0.4-25.2,0.2c-7.1-0.1-14.1-1.2-21.2-1.9c-1.3-0.1-2.6,0-3.9,0c-1.2,0-2.6,0.3-3.5-0.3c-4.6-2.6-9.8-0.9-14.6-2.1
			c-0.7-0.2-1.4-0.2-2-0.5c-1.9-1-5.6-1.7-7.7-1.5c-0.7,0-1.3-0.3-2-0.4c-3-0.8-6.1-1.5-9.1-2.3c-1.1-0.3-2.2-0.8-3.2-1.2
			c-2.1-0.9-4.2-2.2-6.4-2.7c-3.8-1-7.6-2-10.9-4.3c-0.1-0.1-0.3-0.2-0.4-0.2c-5.3,0.8-8.1-3.9-12.2-5.7c-3.4-1.5-6.4-3.7-10.1-4.6
			c-2-0.5-3.7-2.7-5.3-4.4c-1.8-2-4.6-3.2-6.2-4.9c-3.5-3.8-8-7-9.5-12.4c-2.4-8.8-3.3-17.7-0.8-26.5c5.2-18.5,16.1-32.8,32.2-43.1
			c5.4-3.5,10.6-7.3,16.6-9.5c5.9-2.2,11.9-4.2,17.9-6c7.3-2.2,14.7-3.9,22.4-4.7c7.6-0.8,15.1-2.2,22.6-3c5-0.5,10-0.3,15-0.6
			c11.7-0.9,23.5-0.2,35.2,0.5c11.6,0.7,23.1,2.3,34.4,5.1c15.4,3.8,29.8,9.8,43.5,17.6c7.2,4.1,13.9,9.3,20.5,14.4
			c10.4,8,19.5,17.4,26,29c5.5,9.7,8.9,20,9.1,31.3C990.4,735,991.1,739.6,989.4,744.7z M994.6,697.2c-3.3-5.5-6.7-10.9-10.5-16
			c-2.3-3.2-5.1-6.1-7.9-8.9c-9.2-9.3-19.5-17.5-30.1-25c-10.1-7.2-20.8-13.8-32.4-18.5c-5-2-9.8-4.6-14.8-6.5
			c-3.9-1.5-8.1-2.3-12.2-3.4c-0.8-0.2-1.8-0.3-2.5-0.7c-3.5-1.9-7.1-2-11-1.7c-1.6,0.1-3.2-0.3-4.7-0.9c-3.4-1.2-6.9-1.6-10.5-2
			c-5.1-0.6-10.4,0.2-15.3-1.9c-1.2-0.5-2.9-0.3-4.3-0.2c-3.2,0.2-6.4,0.6-10.6,0.9c-2.4-2.3-6.6-1.2-10.4-1.1
			c-7.4,0.2-14.8,1-22.3,1.7c-7.4,0.6-14.9,0.9-22.2,2.3c-3.8,0.7-7.7,1.1-11.6,2.1c-10.7,2.7-21.4,5.3-31.6,9.5
			c-10.1,4.2-19.4,9.5-27.9,16.6c-6.8,5.7-12.8,12-17.8,19.3c-1.7,2.5-4.4,4.3-4.9,7.5c-0.2,1.3-2.5-0.3-2.6,2.1
			c-0.1,1.9-1.2,3.8-0.6,5.9c0.3,1.2,0.3,2.9-0.3,3.9c-1.7,2.9-0.9,5.5-0.4,8.5c1.1,5.3,1.7,10.7,2.6,16c1.5,9.6,4.4,18.9,8.6,27.7
			c3.2,6.8,7.8,12.7,12.6,18.5c11.7,14.2,27.1,22.8,44,28.9c9,3.2,18,6.4,27.3,8.5c12,2.7,24.2,4.7,36.4,6.4
			c8,1.1,16.1,1.1,24.2,1.3c7.9,0.2,15.9-0.1,23.8-0.2c1.8,0,3.5-0.3,5.3-0.5c6.1-0.4,12.2-0.8,18.3-1.3c15.7-1.2,31.2-3.4,46.4-7.3
			c13.8-3.5,27.6-7,41.3-10.6c4.9-1.3,9.7-3.2,14.9-4.9c0,1,0.4,2.2-0.1,2.9c-2.9,5.2-5.6,10.5-10.5,14.3c-1.7,1.3-3.1,3.1-4.6,4.7
			c-3.3,3.4-7.8,4.7-12.1,5.8c-8.6,2.3-17.3,4.6-26.1,5.8c-6.9,0.9-13.5,3.5-20.3,3.7c-6.5,0.2-12.8,2.3-19.3,1.9
			c-1.9-0.1-3.7,0.4-5.6,0.1c-2.4-0.3-4.9,0.3-7.4,0.5c-2.3,0.2-4.7,0.6-6.9,0.2c-2.4-0.4-4.8-0.9-7.2-0.8c-2.1,0-4.3,1.6-6.3-0.9
			c-0.6-0.8-3.1-0.4-4.7-0.1c-3,0.6-6,1.3-9-0.2c-0.5-0.2-1.2-0.3-1.7-0.1c-3.8,1.2-7.5,0.8-11.2-0.5c-1.2-0.4-2.8-0.8-3.9-0.4
			c-1.9,0.7-3.7-0.3-5.6,0.3c-1.5,0.4-3.8,0.7-5.3-1.2c-0.5-0.7-2.2-0.7-3.3-0.6c-5.6,0.6-5.6,0.6-11-0.8c-0.6-0.2-1.3,0.2-2,0.3
			c-2.7,0.8-6-0.1-8.4-2.4c-2.6,1.2-5.4,1.5-8.2-0.2c-0.6-0.4-1.7-0.2-2.5-0.1c-1.8,0.1-3.5,0.4-4.7-1.5c-0.3-0.5-1.3-0.7-2-0.7
			c-1.4,0.1-3,0.8-4.2,0.4c-1.2-0.4-1.7-1.8-3.5-0.8c-1.2,0.6-2.3-2.3-4.3-1.2c-2.4,1.3-4.6-0.1-6.8-0.7c-1.3-0.4-2.6-1.1-3.9-1.5
			c-2.8-0.9-5.7-1.7-8.5-2.5c-1.1,0.2-2.1,0.3-3.2,0.5c-1.7-0.6-3.9-0.1-4.8-2.5c-0.2-0.5-1.5-0.8-2.4-0.9c-2.7-0.1-5-1.8-8-0.8
			c-1.4,0.5-3.6-1-5.2-2c-3.2-2.1-6.7-3.2-10.5-3.5c-1.7-0.2-3.6-1-5-2.1c-1.7-1.4-3.7-1.5-5.6-2.2c-5-1.9-10-3.9-15-6
			c-1.6-0.7-3-1.8-4.5-2.6c-4.1-2.3-8.2-4.5-12.4-6.8c-1.2-0.7-2.7-0.9-3.8-1.7c-3.2-2.1-6.2-4.5-9.3-6.7
			c-9.1-6.3-18.3-12.7-25.7-20.9c-6.5-7.2-10.9-15.9-13.6-25.4c-2.6-9.4-3.5-18.8-2.5-28.4c0.8-8.4,2.1-16.8,6.3-24.1
			c5.8-10.2,12.2-19.9,20.8-28.2c11.7-11.4,25.7-18.9,40.1-26.1c5.4-2.7,11.2-4.4,16.5-7.2c6.3-3.4,13.2-5.2,19.9-7.7
			c5.7-2.1,11.8-3.5,17.7-4.9c6.9-1.5,13.8-3,20.7-3.9c9.3-1.2,18.6-2.2,28-2.8c7.6-0.5,15.3-0.6,22.9-0.3
			c9.8,0.4,19.6,1.2,29.4,2.1c7.7,0.7,15.5,1.7,23.1,3.1c6.2,1.1,12.4,2.8,18.3,4.7c13.2,4.4,26.5,8.8,39.5,13.9
			c16.5,6.5,32.5,14.1,47.8,23.3c12.1,7.3,23.4,15.7,34,25c13.7,12.1,26.7,24.8,37.3,39.8c5.7,8,9.1,17.1,11.9,26.4
			c0.3,1.1,0.2,2.3,0.2,3.7c-3.5,0.8-5.6,5.1-9.1,3.3c-1.9,1.5-3.1,2.8-4.6,3.5c-3,1.3-6.2,2.1-9,4c-3.7,2.4-8,3.2-12.7,3
			c-0.5-2.7-1.1-5.5-1.6-8.4C1003.9,716.4,1000.2,706.5,994.6,697.2z M1046.1,762.1c-0.4,4-1.7,7.4-6.8,7.1
			c-2.7,2.9-7.1,2.5-10.2,5.1c-2.6,2.2-6.6,2.8-10.1,3.9c-1.9,0.6-3.7,1-5.3,2.6c-1,1-2.9,1.3-4.5,1.5c-2,0.2-4,0.1-5.5,1.8
			c-0.2,0.2-1.1-0.1-2-0.2c0.2-1.3,0.3-2.4,0.5-3.5c0.9-4,2.1-7.9,2.9-11.9c0.7-3.6,2.8-6,6.2-7.4c6.6-2.8,13.2-5.6,19.8-8.4
			c4.4-1.9,8.7-4,13.1-5.9c0.5-0.2,1.1-0.2,1.8-0.3C1048,751.7,1046.7,757,1046.1,762.1z"/>
		<path class="st5" d="M988.7,302.9C988.7,303,988.7,303,988.7,302.9c0.1,0,0.1,0,0.1,0C988.8,302.9,988.8,302.9,988.7,302.9z"/>
		<polygon class="st5" points="988.7,303.1 988.9,302.9 988.7,303.1 		"/>
		<path class="st5" d="M985.8,302.5c0,0.2,0.1,0.3,0.1,0.5c0.9,0,1.9,0,2.8,0c-0.1-0.4-0.1-0.9-0.2-1.3
			C987.6,301.9,986.7,302.2,985.8,302.5z"/>
		<path class="st5" d="M988.9,302.9c0,0-0.1,0-0.1,0c0,0,0,0.1,0,0.1L988.9,302.9z"/>
		<path class="st5" d="M735.7,794.8c0.5,1.4,0.7,1.9,0.8,2.5c1.1-0.2,2.1-0.3,3.2-0.5C738.6,796.3,737.5,795.7,735.7,794.8z"/>
	</g>
</g>
<g id="Text__x2F__Quiz_Questions">
</g>
</svg>
