<svg xmlns="http://www.w3.org/2000/svg" viewBox="0 0 755.94 2326.95"><defs><style>.cls-1{fill:#e1c487;}.cls-2{fill:#fff;}.cls-3{fill:#231f20;}.cls-4{fill:#f16f79;}.cls-5{fill:#f79d1d;}</style></defs><title>transition-2</title><g id="Layer_2" data-name="Layer 2"><g id="Layer_1-2" data-name="Layer 1"><path class="cls-1" d="M438.17,4h20.2c7.82,0,13.79,101,14.57,109.85,2.08,23.36,8.71,45.76,9.43,68.91,1,32.28,1.64,64.79,1.64,97.09.43,27,.84,54.1-2.3,80.81-7.16,60.69-32.5,116.11-64.7,162.71-32.86,47.53-74.6,79.81-111.17,122.51-31.15,36.38-76.49,94.72-40.12,147,5.13,7.36,11.45,13.29,19.71,13.76a174,174,0,0,0,25.72-.66c7-.64,14-2.32,21-3.72,14.29-2.87,28.54-6,42.85-8.74,13-2.47,26-4.78,39.09-6.64,89.34-12.73,176.07-2.54,257.46,45.94,33.14,19.73,52.81,45.88,70,84.57,18.23,41,19.94,93.57.23,133.59-15.47,31.44-41.41,51.67-66.63,70.37-26.85,19.91-52.44,40.42-76.28,65.42-35.41,37.16-63.67,87-84.67,137.33-28,67.14-30.24,138.5-31.29,211.44-.11,7.24.4,14.5.79,21.74.59,11.14,1.31,22.28,2,33.42.25,4.19,1,8.42.74,12.57-.52,8.48.75,16.78,1.18,25.16.64,12.45,1.67,24.88,2.29,37.33.54,10.64.71,21.3,1.09,32,.36,10,.85,20,1.15,30.09.35,11.64.53,23.3.85,34.94.19,6.8.53,13.59.76,20.39,0,1.45,0,2.91-.13,4.37-.15,2.57-.49,5.14-.48,7.72,0,6.48-.05,13,.45,19.44s-2.25,12.81.27,19.12a2.25,2.25,0,0,1,0,1c-.92,8-1.27,16.08.53,24a6.21,6.21,0,0,1-.14,1.9c-.52,4.51-.86,9,.9,13.27a3.16,3.16,0,0,1,.17,1.89c-1.37,4.65-.35,9.29-.07,13.94.16,2.58,0,5.19.12,7.78.2,6.76.4,13.51.67,20.27.24,5.66,1.07,11.37.71,17-.27,4.17-.15,365,1,368.87a17.47,17.47,0,0,1,.29,3.86q.38,9.2.74,18.39H474.52a28.83,28.83,0,0,0,.18-4.81c-.44-3.71-1.29-7.35-1.64-11.07-.73-7.85-1.3-372.73-1.84-380.61-.56-8-1-16.09-1.48-24.13-.22-3.81-.29-7.64-.55-11.44-.28-4.18-.77-8.34-1-12.52-.4-6.91-.67-13.82-1-20.73-.16-3.37-.37-6.74-.47-10.11-.17-5.79-.28-11.58-.39-17.37-.08-4.12-.05-8.24-.2-12.36-.12-3.38-.65-6.74-.62-10.11.08-6.86.53-13.7-.5-20.53-.27-1.84.17-3.84.27-5.77s.29-3.84.24-5.76c-.09-3.7-.39-7.39-.5-11.09-2-67.87-6.43-136.32-8.91-204.52-.54-15-1-30.06-1-45.08a420.36,420.36,0,0,1,2.49-46.91c.73-6.32.92-12.81,1.64-19.2.51-4.49.52-9.07,1.23-13.5.85-5.38,2.26-10.63,3.32-16,.71-3.54,2.11-7,1.26-10.82,2.37-9.77,4.7-19.55,7.13-29.29,1.74-7,3.45-13.93,5.51-20.76q4-13.21,8.5-26.2c22-63.55,55.55-129.52,98.29-175.38,30-32.23,57.73-64.39,89.4-93.81,14.44-13.42,28.74-28.24,36.89-47.92,15.81-38.19,4.1-86.25-19-118.57C622.3,802.48,507,792.84,409.06,807.77c-7.85,1.2-15.64,3-23.46,4.53-5.17,1-10.34,2-15.5,3.1q-15.64,3.23-31.28,6.51c-2.82.59-5.64,1.2-8.46,1.81,6.22.18,12.35-.57,18.5-.81,7.11-.27,14.24.06,21.36-.11,70.29-1.69,143.42,19.48,198.62,73.88,14.15,13.94,27.23,30,35.89,49.39,21.43,48-.12,104-23.36,144.69-27.79,48.58-71.38,80.43-102.7,125.29-24.25,34.74-32,76.68-39.37,120.08-1.07,6.32-2.1,12.68-2.73,19.09-1,10.42-1.78,20.89-2.54,31.35-.54,7.54-1.87,14.93-2.15,22.55-.68,18.64-5.05,36.1-5,54.55.11,34.49.34,68.18,1,102.48,0,2.9.21,5.8.36,8.69.59,11.79,1.21,23.58,1.78,35.38.33,6.79.6,13.58.87,20.37.52,12.94,1.09,25.88,1.5,38.83.27,8.43.23,16.88.44,25.31.36,15.22.8,30.43,1.22,45.65.08,2.76.22,5.51.3,8.27.19,6.79.42,13.58.53,20.37.14,7.9,0,15.8.3,23.69.23,7.27,1,14.51,1.17,21.77.25,10,0,20,.24,30.06.26,12.3.69,24.6,1.18,36.9.31,7.58.8,15.15,1.34,22.72.38,5.25,1.08,10.47,1.48,15.73.51,6.7-.18,13.48,1.26,20.17.9,4.18,1,365.61,1.41,369.94.48,5.31.9,10.62,1.34,15.93H421.2c-.49-3.49-.91-7-1.47-10.48-1.81-11.2-3-379.51-4.09-390.84-1.28-13-3.1-25.9-3.93-38.92-1.13-17.55-1.51-35.18-2.26-52.77-.51-12.2-1.15-24.4-1.64-36.6-.43-11-.75-22-1.09-33s-.7-22-.92-33c-.23-11.8-.15-23.62-.48-35.42-.51-17.83-1.2-35.65-1.92-53.47-.7-17.66-1.69-35.3-2.26-53-.52-15.72-.85-31.46-.88-47.19,0-20.44.24-40.87.5-61.3.17-13.31.41-26.61.87-39.91.41-12,1.08-23.94,1.8-35.9.37-6.26,1.08-12.49,1.66-18.74,1.38-14.63,2.2-29.39,4.29-43.87,4.17-28.89,8-60.24,18.64-86.69,11-27.36,26.85-51.5,43.65-74,44.26-59.24,101.73-115.28,96.78-203.34-1.81-32.3-15.81-59.32-37.66-78-13.54-11.57-27.47-22-43.4-28.1q-25.29-9.63-50.63-19.14a133.75,133.75,0,0,0-47.92-8.81c-9.93.05-19.87.23-29.79.68-13.25.6-26.5,1.45-39.74,2.32-13.68.89-27.35,2-41,2.93-11.52.83-23,1.9-34.58,2.42-16.42.75-31.26-1.51-47.19-4.16-17.93-3-35.25-1.44-52.54-9.59s-33.1-25.58-36.1-47.87c-3.74-27.87,12.45-53.4,28-74.48C200.31,628.5,271.26,551,328.05,455.54a254.16,254.16,0,0,0,16.59-33.81c5.22-12.77,10.18-25.69,15.25-38.55,6.86-17.38,13.8-34.72,20.57-52.15a191.88,191.88,0,0,0,9.59-32.47c2.6-13.24,5.19-26.49,7.18-39.87a199,199,0,0,0,1.68-24.22c.3-11,.44-22.08.09-33.09-.31-9.38-1.49-18.7-2.15-28.07-.82-11.63-1.47-23.28-2.25-34.91-.66-9.85-1.17-19.73-2.2-29.52-1-10-2.74-19.81-4-29.74-.74-5.93-1.05-11.93-1.72-17.87-1.09-9.63-2.33-19.24-3.46-28.87C382.14,23,381.08,13.48,380,4h19.39c.58,6.58,1,13.18,1.76,19.74,1.7,15.24,3.53,30.46,5.33,45.69,1.07,9,2.67,17.9,3.17,26.91.56,10.39,2.42,20.45,3.77,30.65q1.81,13.65,2.81,27.46c.88,12.26,1.28,24.58,2.06,36.86.89,14.05,2.3,28.07,2.9,42.14a258,258,0,0,1-1.32,42.69c-.9,7.31-1.77,14.62-2.77,21.9-.6,4.31-1.36,8.59-2.2,12.85-1.4,7.07-2.78,14.17-4.44,21.16-1.07,4.46-2.57,8.77-4,13.09-1.35,4.06-3,8-4.28,12.05C400,364.11,398,371,394.89,377.54c-4,8.38-7.29,17.26-10.81,26s-7,17.46-10.42,26.24c-1.65,4.24-2.81,8.8-4.73,12.84-3.66,7.71-5.7,16.37-10.05,23.69-2.64,4.44-4.44,9.59-7,14.11-21.49,37.83-50.19,76.1-77.7,108.09-48.37,56.24-122.21,120.7-114.29,213,.52,6,1.49,12.21,4.58,16.94,8.68,13.29,34.43,13.35,47,12.86,11.4-.45,22.81-.54,34.21-.86,2.82-.08,5.62-.51,8.44-.65,5.08-.26,10.18-.32,15.26-.66,8-.53,16-1.17,24.05-1.85,3.47-.29,6.93-.82,10.4-1.23a9.21,9.21,0,0,0-4.42-1.24c-8.8-.92-17.54-2.44-25.54-7.14a113.87,113.87,0,0,1-16.32-11.11c-10-8.48-17.17-19.85-22.49-32.59-21.17-50.62,17.58-98.11,43.41-131.75,41.79-54.42,87.92-106,119.73-169.47q8.55-17,17-34.11a262.61,262.61,0,0,0,19-50.85c4.55-17.28,8.87-34.66,11.51-52.55,1-6.69,2.13-13.38,2.66-20.13.91-11.61,1.48-23.25,2-34.9.79-16.35,1.69-32.7,2.07-49.07.4-17,.31-34.08.27-51.13q0-14.1-.66-28.19c-.44-9.87-1.12-19.72-1.89-29.56-.7-8.87-1.7-17.71-2.53-26.57-1.08-11.43-2.05-22.88-3.2-34.3-.9-8.84-2.06-17.64-3-26.47C440.29,24.6,439.25,14.31,438.17,4Z"/><path class="cls-1" d="M345.09,5.08c3.36,6,1.61,15.57,2.84,22.68a166.91,166.91,0,0,1,2.3,21.12c.32,7.1.42,14.21.85,21.3.57,9.43,1.37,18.84,2.05,28.25.14,1.88.22,3.77.25,5.66.45,28.07,1,56.15,1.3,84.23.11,9.23-.11,18.49-.47,27.72-.42,11-1,22-1.82,32.92-.83,10.47-2.14,20.89-3.24,31.34-.54,5.12-.71,10.34-1.72,15.35-2.34,11.67-5.17,23.21-7.64,34.85a123.14,123.14,0,0,1-6.72,20.91c-15.8,39-44.3,74.38-68.45,107.85C237.37,497,208.07,533,175.58,565.2c-17.45,17.28-35.79,33.45-52.33,51.81-15.88,17.62-30,37.12-44,56.58C50.32,713.6,22.53,766.16,47.9,817c8.58,17.19,21.59,31.3,36.3,42.07,33.62,24.61,67.72,24.52,106,24,5.36-.08,10.72-.38,16.06-.84a1183.16,1183.16,0,0,1,138.43-3.51c58.25,1.82,126.34,17.71,167.48,68.81,19.58,24.31,28.33,62.69,12.63,90.31-18.77,33-45.81,58-72.23,83-7.92,7.49-15.39,15.57-23,23.44a29.22,29.22,0,0,0-1.77,2.74c-1.3,1.7-2.69,3.3-4,5a42,42,0,0,0-3.33,4.4c-4.34,7.23-8.81,14.37-12.81,21.82-3.13,5.81-5.67,12-8.43,18.06-3,6.59-6.16,13.1-8.83,19.85-2.49,6.32-4.47,12.89-6.61,19.38-1.76,5.3-3.43,10.64-5.14,16-3.45,10.72-4.91,22-6.55,33.11q-2.14,14.61-3.54,29.36c-1.8,19.33-3.6,38.67-3.82,58.13-.1,9.08-.84,18.16-.74,27.23.09,8.21-.79,16.44.58,24.66.52,3.09-.31,6.43-.25,9.65.19,11,.53,22,.77,32.94.09,4.51-.23,9,.14,13.52.85,10.36-.27,20.66-.45,31-.13,7.62-.76,15.29-.21,22.85.41,5.75-.34,11.29-.51,16.93a33.67,33.67,0,0,0-.09,4.37,88.08,88.08,0,0,1-.72,22.23c-.8,5.53-.17,11.32-.26,17-.09,5-.36,10-.42,15.07-.12,11.13-.15,22.27-.22,33.4-.09,13.61-.11,27.21-.31,40.81-.16,11.8-.22,23.63-.88,35.4-.83,15,.18,29.82.57,44.72.16,6,.48,11.94.81,17.91a29.27,29.27,0,0,0,.75,3.75,14.66,14.66,0,0,1,.5,3.32c-.69,13.32,1.53,26.42,2.41,39.63q.75,11.37,1.53,22.76c.94,13.41,1.93,26.82,2.84,40.23.27,4,.4,8.1.5,12.15.27,10.2.44,20.4.75,30.6.09,2.73.68,362.44.85,365.18.36,5.81.56,11.65.91,17.47.18,3,.55,6.09.84,9.13,0-.26-40.56,1.29-44.44,1-2.25-.19-4.7-.48-6.32-2.37s-1.92-4.76-2.16-7.42c-16.36-181.57-19.94-721.81-10.69-904.11,3.95-77.91,11.21-159.17,46.62-224.5,24.78-45.72,60.29-83.6,97.24-114.42,19.77-16.48,43.33-33.94,51.48-62,6.19-21.33-2.67-45.24-16.89-61s-33-25.1-51.37-34.08c-30.46-14.91-50-21.77-83.29-22.49-4.55-.1-9.11.26-13.66.58-2.84.19-5.65.81-8.49,1-7.61.59-15.25.85-22.85,1.64-6.23.65-12.39,2.11-18.62,2.77-4.86.52-9.77.34-14.66.49-1.15,0-2.5-.27-3.43.28-3.69,2.15-7.58,1.48-11.45,1.58-5,.14-10,.45-15,.78-5.46.37-10.93.82-16.39,1.29-27.56,2.33-54.47-1.41-82.12-4-29.36-2.8-59.52-9.35-84.14-28.52C28.78,845.2-8.23,791,1.61,737.91,6,714.1,17,692.83,29.33,673.47c44.93-70.75,110.61-109,165.86-166,35.9-37,65.58-81,91.22-128.93,6.9-12.9,13.51-26.17,17.89-40.58,7.83-25.74,15.21-75.57,15.51-103,.89-80.95-5.23-140.35-12.68-220.8-.32-3.42-.51-7.36,1.49-9.81C310.32,2.33,313,2.11,315.4,2c6.66,0,21.3-4.55,27.13,0A9.92,9.92,0,0,1,345.09,5.08Z"/><path class="cls-1" d="M417.9,1117.28c-.25.6-.5,1.2-.76,1.8-1-.78-1.53-1.7-.34-2.8C416.9,1116.19,417.53,1116.92,417.9,1117.28Z"/><path class="cls-1" d="M309.73,600.39,308,601.65c.78-3.39.78-3.39,2.52-2Z"/><path class="cls-2" d="M582.71,344c1.7,6.12,3.43,11.83,4.87,17.62,1.68,6.72-.79,12.23-5.86,16.53-10.68,9-22.91,13.21-37,11.29a51.46,51.46,0,0,0-8-.39c-3.09.05-4.86,1.79-5.4,4.84-2.37,13.24-11.82,20.47-22.95,25.56-10.35,4.73-21.55,4.95-32.68,3.13a34.29,34.29,0,0,1-17.87-8.3c-4.78-4.29-10-8.13-14.6-12.58-3-2.88-6.06-4.14-10.14-3.66a55.76,55.76,0,0,1-21.77-1.48c-4.55-1.26-8.74-3-12.09-6.57a17.75,17.75,0,0,0-5.88-4.21,19.27,19.27,0,0,1-9.77-9.55c-2.71-5.3-5.85-10.45-7.93-16-3.43-9.16-3.26-18.29,2.71-26.65,3.36-4.69,3.62-9-.11-13.94-2.61-3.46-4.22-7.81-5.7-12-2.41-6.82-2.23-13.78,2.13-19.74,5.14-7,11-13.5,20.88-13.35a24.55,24.55,0,0,0,4-.56c6.75-1,8.14-2.48,8.2-9.4,0-5.76-.08-11.53-.25-17.29-.23-7.86,3.44-12.73,10.68-15.74,7.74-3.21,15.05-3.91,23.12-.77s16.49,5.09,24.82,7.32c4.29,1.15,6.13-.17,8.19-4.5,5.41-11.32,11.83-18.64,28.53-15.43,5.81,1.12,11.93.63,17.76,1.71,16.07,3,31.13,7.86,38.64,24.49,2,4.44,4.06,8.87,6.07,13.31,2.24,4.92,2.91,5,8.09,4.5a193.34,193.34,0,0,1,19.84-.82c2.23,0,4.56,1.28,6.67,2.32,4.17,2.06,8.22,4.35,12.32,6.56,13.31,7.21,15.76,25.8,4.61,36-2.35,2.16-3.67,4.68-5.15,7.45a53.76,53.76,0,0,1-9.29,12.74C596.3,332.53,589.55,338,582.71,344Zm-30.41-9c-.24.58-.48,1.14-.72,1.7.34.09.83.37,1,.24a1.62,1.62,0,0,0,.58-1.09C553.18,335.63,552.69,335.37,552.3,335Z"/><path class="cls-3" d="M582.71,344c1.7,6.12,3.43,11.83,4.87,17.62,1.68,6.72-.79,12.23-5.86,16.53-10.68,9-22.91,13.21-37,11.29a51.46,51.46,0,0,0-8-.39c-3.09.05-4.86,1.79-5.4,4.84-2.37,13.24-11.82,20.47-22.95,25.56-10.35,4.73-21.55,4.95-32.68,3.13a34.29,34.29,0,0,1-17.87-8.3c-4.78-4.29-10-8.13-14.6-12.58-3-2.88-6.06-4.14-10.14-3.66a55.76,55.76,0,0,1-21.77-1.48c-4.55-1.26-8.74-3-12.09-6.57a17.75,17.75,0,0,0-5.88-4.21,19.27,19.27,0,0,1-9.77-9.55c-2.71-5.3-5.85-10.45-7.93-16-3.43-9.16-3.26-18.29,2.71-26.65,3.36-4.69,3.62-9-.11-13.94-2.61-3.46-4.22-7.81-5.7-12-2.41-6.82-2.23-13.78,2.13-19.74,5.14-7,11-13.5,20.88-13.35a24.55,24.55,0,0,0,4-.56c6.75-1,8.14-2.48,8.2-9.4,0-5.76-.08-11.53-.25-17.29-.23-7.86,3.44-12.73,10.68-15.74,7.74-3.21,15.05-3.91,23.12-.77s16.49,5.09,24.82,7.32c4.29,1.15,6.13-.17,8.19-4.5,5.41-11.32,11.83-18.64,28.53-15.43,5.81,1.12,11.93.63,17.76,1.71,16.07,3,31.13,7.86,38.64,24.49,2,4.44,4.06,8.87,6.07,13.31,2.24,4.92,2.91,5,8.09,4.5a193.34,193.34,0,0,1,19.84-.82c2.23,0,4.56,1.28,6.67,2.32,4.17,2.06,8.22,4.35,12.32,6.56,13.31,7.21,15.76,25.8,4.61,36-2.35,2.16-3.67,4.68-5.15,7.45a53.76,53.76,0,0,1-9.29,12.74C596.3,332.53,589.55,338,582.71,344Zm-62.78,25,.21,1.34c5.21-.86,10.6-1.16,15.6-2.71,9.52-3,12.77-7.85,13-17.66,0-1.33,0-2.66,0-4,.13-8.13,2.59-15.06,9.09-20.54,5.07-4.28,9.52-9.28,14.27-13.94s6.34-10.58,7.09-16.83-.34-7.23-6.38-8.51a73.14,73.14,0,0,1-24.09-8.78c-5.28-2.73-11.18-4.77-14.41-10.27-3.55-6.05-6.76-12.3-10.16-18.44-1.79-3.24-3.29-3.85-6.38-1.59-2.8,2-5.1,4.82-7.47,7.4s-3.81,6.09-6.53,7.35c-8.56,4-17.58,6.16-26.93,2.09-5.28-2.31-10.48-4.87-15.91-6.74-7.42-2.55-14,1.08-17,8.35-1.9,4.54-1.68,9.08-1.31,13.73.32,3.89.15,7.89-3.19,10.34-3.73,2.74-7,7-12.68,5.51-6.8-1.75-10.86,1.68-13.76,7.41-1,2-2.57,3.61-3.79,5.46-3.89,5.86-3.54,9.26,1.43,14,1.75,1.7,3.73,3.2,5.3,5.05,2.25,2.68,4.83,5.34,6.19,8.47,3.15,7.28,1.22,14.23-2.56,20.87-1.74,3.06-3.65,6.18-4.54,9.52-1.42,5.38.79,8.32,6.35,9.29,4.58.8,9.24,1.18,13.82,2,12.14,2.11,23.82,4.91,31.93,15.67,3.9,5.16,7,5.12,12.78,1.93,1.93-1.08,3.86-3.25,5.7-3.17,4.19.18,5.34-2.36,6.51-5.31A57,57,0,0,0,494.4,380c1.36-5.14,5.14-7.78,9.82-8.85C509.36,370,514.68,369.65,519.93,368.94ZM552.3,335c-.24.58-.48,1.14-.72,1.7.34.09.83.37,1,.24a1.62,1.62,0,0,0,.58-1.09C553.18,335.63,552.69,335.37,552.3,335Z"/><path class="cls-4" d="M509.64,282.22a32.25,32.25,0,0,1-3,2c-5.21,2.7-10.72,4.92-15.6,8.12-4.07,2.66-7.41,6.43-11.06,9.73a1.69,1.69,0,0,0-.59.92c-.46,5.35-3.59,9.15-7.2,12.74a6.64,6.64,0,0,0-1.72,3.43c-.91,5.48-2,11-2.31,16.49-.36,7.37,4.73,11.76,12,11a14.6,14.6,0,0,0,4.9-.92c9.24-4.68,18.9-8.73,26.61-15.94a31.3,31.3,0,0,0,8.32-13c.3-.87.85-1.86.65-2.64-.38-1.53-.84-3.6-2-4.22-1-.53-3.26.25-4.26,1.19-3.89,3.64-7.51,7.57-11.22,11.4-2.19,2.26-4.16,4.57-8,3.94-1.49-.24-3.42,1.12-4.88,2.12-2.53,1.74-4.86,3.77-7.62,5.95-.62-1.25-1.31-2-1.16-2.45,1.85-5.78,3.82-11.52,5.77-17.26.18-.52.75-1,.72-1.48-.36-5.52,4-7.3,7.46-10.05,5.1-4.05,10.06-8.18,16.2-10.64,3.14-1.26,6-2.69,9.54-.91,1.1.55,2.85-.08,4.28-.31,5.47-.88,10.77-.57,15.61,2.39,5.73,3.51,7.07,9.62,5.1,17.12-3.74,14.23-13.24,23.77-24.68,31.87q-9.06,6.42-18.37,12.48c-9.47,6.16-19.92,7.58-31,6.1-4.63-.61-9.13-1.42-13.28-3.72-4-2.21-7.36-4.91-9.49-9.07-1.26-2.46-2.79-4.8-4.27-7.14-4.51-7.14-3.93-16.58,1.75-24q4.73-6.17,9.92-11.94c8.11-9,18.44-14.7,29.36-19.62a57.22,57.22,0,0,1,20.82-5.35,11.66,11.66,0,0,1,2.44.38C509.46,281.38,509.55,281.8,509.64,282.22Z"/><path class="cls-3" d="M490.86,382.18c-.31.84-.61,1.69-.91,2.53l-.7-.27L490.3,382Z"/><path class="cls-2" d="M202.12,1145.15c-.17-27.15,4.54-52,15.27-75.54,5.14-11.26,13.47-20.28,21.79-29.32,4.81-5.21,10-10,16.88-10.93,12.54-1.71,24.83-5.67,37.74-4.5,11.21,1,22.46,1.49,33.64,2.72,4,.44,8,2.1,11.73,3.71a107.69,107.69,0,0,1,13,6.71c2.63,1.58,4.82,3.9,7.2,5.9,1.86,1.55,3.65,3.19,5.55,4.68q6.62,5.16,13.31,10.21c3.89,3,7.91,5.72,11.71,8.77,5.69,4.56,11.81,8.78,16.75,14.08,12.17,13,24.12,26.33,35.51,40.06,14.93,18,23.74,38.58,24.39,62.36.24,9,1.29,18-.56,27-2.76,13.61-9.16,25.49-17.65,35.9s-18.65,20-28.52,29.49c-11.65,11.17-26.49,16.81-41.67,20.58-20.18,5-40.71,8.79-61.74,7.53a71.79,71.79,0,0,1-10.17-1c-14.68-3-29.07-7.26-42.17-14.57-10.84-6-20.76-13-28.6-23.49-12.83-17.09-20.24-36.17-25.7-56.38C204.08,1187.75,201.09,1166,202.12,1145.15Z"/><path class="cls-5" d="M333.51,1147.46c-9,7.39-15.22,17.57-20,28.15-5.17,11.4-8.86,23.74-8.3,36.24s5.86,25.17,15.89,32.64c12.73,9.47,30.61,9,45.53,3.59,12.81-4.61,24.82-12.94,31.06-25,3.64-7.06,5.16-15,5.88-23,1.22-13.35.2-27.31-5.94-39.23C385.38,1137.12,354,1130.53,333.51,1147.46Z"/><path class="cls-3" d="M202.12,1145.15c-.17-27.15,4.54-52,15.27-75.54,5.14-11.26,13.47-20.28,21.79-29.32,4.81-5.21,10-10,16.88-10.93,12.54-1.71,24.83-5.67,37.74-4.5,11.21,1,22.46,1.49,33.64,2.72,4,.44,8,2.1,11.73,3.71a107.69,107.69,0,0,1,13,6.71c2.63,1.58,4.82,3.9,7.2,5.9,1.86,1.55,3.65,3.19,5.55,4.68q6.62,5.16,13.31,10.21c3.89,3,7.91,5.72,11.71,8.77,5.69,4.56,11.81,8.78,16.75,14.08,12.17,13,24.12,26.33,35.51,40.06,14.93,18,23.74,38.58,24.39,62.36.24,9,1.29,18-.56,27-2.76,13.61-9.16,25.49-17.65,35.9s-18.65,20-28.52,29.49c-11.65,11.17-26.49,16.81-41.67,20.58-20.18,5-40.71,8.79-61.74,7.53a71.79,71.79,0,0,1-10.17-1c-14.68-3-29.07-7.26-42.17-14.57-10.84-6-20.76-13-28.6-23.49-12.83-17.09-20.24-36.17-25.7-56.38C204.08,1187.75,201.09,1166,202.12,1145.15Zm191.69-29.09c-10.22-16.73-21-32.51-35.4-45.27-7.46-6.62-16.22-11.76-24.31-17.68s-17-8.41-26.81-8.67c-4.65-.12-9.31-.38-13.92-.93-7.47-.89-14.51,1-21.72,2.48-11.64,2.35-17.56,11-21,20.59a96,96,0,0,0-5.36,39c.86,13.65,1.81,27.29,3.14,40.9q1.63,16.79,4.33,33.48c1,6.23,3.09,12.25,7.15,16.91,8.8-1.89,17.05-4,25.44-5.34,4.78-.75,6.89-2.83,8.58-7.37,8.14-22,24-36.45,45.45-45.1a18,18,0,0,1,13.51-.28c-4.16,2-7.8,2.8-10,5-8.47,8.46-16.53,17.33-24.63,26.15-4,4.31-5.76,9.5-5.39,16,10.85,1.72,21.75-3.62,32.95.07-1.16,4.5,0,8,2.74,11.53,3.35,4.35,2.37,7.45-2.4,11.18-3.07,2.41-6.15,4.83-9.39,7-3.94,2.63-8,5-13.39,8.27.24-3.06.05-4.67.54-6a27.27,27.27,0,0,1,2.46-4.46c-3.93-4-7.26-7.85-11.13-11.06a8.51,8.51,0,0,0-6.5-1.61c-1,.23-2,3.64-1.89,5.52.2,2.53,1.39,5,2.38,7.43,1.37,3.37,3.17,6.57,4.4,10A31.82,31.82,0,0,0,331.8,1243c15.09,6,29.67,3.08,41.39-8.48,7.27-7.18,13.64-15.35,19.87-23.5a23,23,0,0,0,4.22-10.81,60.81,60.81,0,0,0-6.6-35.43c-.66-1.29-1.15-2.68-1.72-4-4.38,3.1-4.18,5.65-3.1,7.9a56.83,56.83,0,0,0,5.29,8.61c2,2.71,2.18,5-1,6.67-5.18,2.67-10.41,5.3-15.8,7.51-2.37,1-5.39.46-5.58-2.83-.42-7.49-4.19-12.18-12-14.6,1.44-2.62,2.46-4.75,3.73-6.72,2.77-4.32,5.76-8.51,8.49-12.86,3.7-5.9,3.63-6,.47-10.92,3-1.66,7-2.62,8.92-5.11C383.86,1131.48,388.46,1124,393.81,1116.06Zm-132.69,88c.72,3.07,1.09,5.44,1.85,7.67,2,5.79,3.76,11.67,6.24,17.25,5.43,12.25,10.22,24.92,19.62,34.93,2.83,3,6.07,5.67,9.05,8.56a50.74,50.74,0,0,0,28.7,13.53c10.27,1.41,21,.44,31.42-.42s18.78-6.48,26.7-12.88c15.72-12.69,30.16-26.52,38.33-45.47,4.1-9.51,6.27-19.57,5.09-30.07a138.73,138.73,0,0,0-14.18-48.31c-2.52-4.92-5.13-9.83-9.29-13.69a8.44,8.44,0,0,0-2.21,1.24A28.2,28.2,0,0,0,400,1140c-3.57,6-3.22,5.8.47,11.58a88.85,88.85,0,0,1,7.85,15.62c3.18,8.18,5.7,16.61,8.51,24.94,1.36,4,1.81,7.9.11,12.12-2.09,5.2-3.54,10.66-5.18,16-3.91,12.81-9.6,24.34-21,32.4-15.35,10.86-31.91,16.71-51,14-4.06-.57-8.25-.2-12.34-.61a16.53,16.53,0,0,1-6.94-1.89c-9.41-5.93-17.5-13.28-22.94-23.18a66.78,66.78,0,0,1-8-31c-.07-2.56-.63-5.11-1-8.31Zm62.42-5.23c5.16,5.87,8.42,6.39,14.18,3.35,2.08-1.09,3.9-2.27,2.83-5a4,4,0,0,0-5.34-2.5C331.57,1195.78,328,1197.19,323.54,1198.81Zm53.92-25.3c-2,2.13-3.65,3.36-4.3,5-.25.63,2.37,3.34,2.84,3.14a12.14,12.14,0,0,0,4.62-3.74C380.88,1177.58,379,1175.63,377.46,1173.51Z"/><path class="cls-3" d="M360.42,1220.31c.77-3.82,1.31-7.7,2.35-11.44,1.48-5.32,5.44-8.24,10.06-7.9,4.23.31,9.82,5,10.31,9.22a6.29,6.29,0,0,1-1.41,4.52c-4.14,4.47-8.48,8.76-12.93,12.92-1.28,1.2-4,2.82-4.65,2.33-1.53-1.08-2.47-3.27-3.15-5.19-.47-1.3-.09-2.91-.09-4.37Zm10.37-12.1-1.7,7.27C375.56,1212.59,375.68,1212,370.79,1208.21Z"/></g></g></svg>