<svg xmlns="http://www.w3.org/2000/svg" viewBox="0 0 1030.98 2325"><defs><style>.cls-1{fill:#e1c487;}.cls-2{fill:#fff;}.cls-3{fill:#88c444;}.cls-4{fill:#231f20;}.cls-5{fill:#f16f79;}.cls-6{fill:#122d25;}</style></defs><title>transition-1</title><g id="Layer_2" data-name="Layer 2"><g id="Layer_1-2" data-name="Layer 1"><path class="cls-1" d="M226.45,1064.5c.76-1.82,1.21-3.84,2.31-5.43A68,68,0,0,1,251,1038.74a53,53,0,0,1,23.53-7.4,124.66,124.66,0,0,1,29.12,1.54c9.92,1.71,19.93,3.13,29.68,5.54a152.48,152.48,0,0,1,22.16,7.78c8.8,3.7,17.4,7.86,25.91,12.16,3.71,1.88,7.83,1.45,9.63-2.8.3-.69,1.17-1.15,1.8-1.7a1.14,1.14,0,0,1,.44-.14c3.06-.69,1.14-4.65,3.42-5.39s4.18-1.15,4.39-4.11c.07-1,1.52-2.12,2.6-2.79,1.85-1.15,3.44-2.26,4-4.6.24-1,1.47-1.89,2.33-2.75,1.61-1.62,3.42-3.06,4.88-4.8,6.56-7.81,13.22-15.55,19.46-23.61,4.51-5.82,10.59-10.5,13.39-17.57a.73.73,0,0,1,.19-.28c2.15-2,5-3.6,6.37-6a35.91,35.91,0,0,1,4.91-7c2.42-2.56,5.23-5.06,6.73-8.12,4.34-8.87,11.78-15.3,17.64-22.95,3.36-4.38,6.46-9,10-13.19,3.38-4,6-8.79,10.61-11.73.71-.45,1-1.55,1.53-2.26,2.42-2.94,3.87-6.74,7.79-8.35a3.39,3.39,0,0,0,1.33-1.25c1.88-2.8,3.7-5.64,5.76-8.81-22.42-16.86-45.24-33.72-67.73-51s-44.49-34.87-67.19-52.69c-2,3.35-4.08,6.57-6,9.87-7.81,13.66-17.6,25.8-28.15,37.54-6,6.69-13.77,11.19-19.76,17.73-.89,1-2.32,1.47-3.47,2.22-6.52,4.23-12.81,8.87-19.61,12.61-7.07,3.89-14.25,7.71-22.54,9-6.45,1-12.76,2.88-19.17,4.15a193.88,193.88,0,0,1-37.47,3.67c-9.29,0-18.61.5-27.87,0-28.41-1.55-55.88-6.9-81.21-20.41a98.21,98.21,0,0,1-21.66-15.57,63.12,63.12,0,0,1-16.85-25.91c-.34-1-.84-2-1.2-3q-2.47-6.87-4.9-13.74a3.62,3.62,0,0,1-.38-1.8c1.29-5.75-1.54-10.54-3.63-15.5a8.42,8.42,0,0,1-1-2.54c-.2-6.63.12-13.24,2.37-19.56A132.15,132.15,0,0,1,84.81,748a69.31,69.31,0,0,1,14-16.23c3.88-3.32,7.57-6.91,11.76-9.8,5.1-3.54,10.62-6.49,16-9.64.49-.29,1.42-.55,1.77-.31,3.11,2.19,3.93-.29,5.74-2.07s4.52-2.69,7-3.39c7.06-2,14.15-4,21.35-5.42s14.26-2.13,21.41-3.1c5.9-.79,11.81-2,17.73-2.12,11.11-.14,22.28-.71,33.27,2.06,12.37,3.13,24.66,6.44,36.38,11.48a301.71,301.71,0,0,1,35,17.27c9.68,5.74,19.65,11,29.35,16.72,5.1,3,9.91,6.49,14.83,9.78s10,6.75,15.52,10.48c15.75-30.51,29.93-60.75,44.59-91.82,18.77-39.8,30.49-88.84,33.48-132.5,1-13.88,2.43-27.73,3.26-41.62.75-12.51.95-462.5,1.4-475Q449,11.36,449.47,0H476c-1.84,9.74-3.24,19.49-2.16,29.47.33,3-.35,6.11-.38,9.16-.05,4.79.59,447.09,0,451.79-2.79,21.68,1.15,44.07-1.3,66.14a395,395,0,0,1-14.62,69.92c-13.17,43.83-33.25,86.74-52.43,127.29-2.43,5.13-4,10.66-6.27,15.86a84.32,84.32,0,0,1-5.49,9.68c-1.76,2.87-1.9,3.68.67,5.93,3.85,3.38,7.91,6.55,11.92,9.77q11.33,9.06,22.7,18.07c10.42,8.24,20.83,16.5,31.33,24.64q13.14,10.17,26.48,20.1c5.25,3.92,10.68,7.62,16,11.46,8.47,6.14,16.93,12.28,25.34,18.5,3.39,2.51,3.84,2.52,6-.92a6.54,6.54,0,0,1,1.09-1.46c3.34-2.94,6.82-5.74,10-8.81,1.74-1.66,2.85-4,4.59-5.62,2-2,3.68-4.52,6.75-5.26.39-.09.75-.59,1-1,3.8-6.07,9.24-10.76,14.61-15.26,2.88-2.41,7.07-3.29,8.39-7.45,3.17.61,3.19-2.54,4.74-3.87s3.32-2.6,4.9-4a29.1,29.1,0,0,1,5.73-3.58c2.13-1.14,4.77-2.16,6.36-4.32,2.36-3.21,5.65-5.27,9.14-7,2.06-1.05,5-1.45,6.07-3.07,1.21-1.84,3-2.59,4.29-4s3.1-.9,4.58-1.38a33,33,0,0,0,7.25-3.75c1.89-1.18,4.47-1.58,5.29-4.12a.94.94,0,0,1,.74-.5c4,.48,6-2.88,8.92-4.36a60.21,60.21,0,0,1,9.17-3.7,9.86,9.86,0,0,0,4.69-2.59c1.53-1.57,4.11-2.19,6.3-3.1s4.62-1.58,6.82-2.6,5.18-.25,6.45-3.12c.11-.24,1.17-.14,1.78-.11,1.15,0,1-.91,4.12-1.45,3.54-.61,6.27-2.64,9.59-3.45,9.31-2.28,18.52-4.93,27.86-7.07,5.94-1.37,12-2.25,18.08-3.09,7-1,14-1.73,21-2.41,2.47-.24,5,.08,7.49.06s5.3-.19,7.94-.22c4.68-.05,9.4-.49,14,0,12,1.35,24,3.12,35.42,7.16,4.41,1.55,8.6,3.71,13,5.43,1.16.46,2.56.32,4.34.51,3.59,3.32,7.68,6.73,13.34,8,2.3.53,4.33,2.42,6.35,3.86,2.54,1.82,4.73,4.22,7.46,5.65,7.5,3.93,13.44,9.68,19.33,15.44,7.12,7,14.41,13.82,20.74,21.44a127.09,127.09,0,0,1,16.09,24.43c3.8,7.63,7.73,15.22,9.59,23.6.83,3.75,1.46,7.55,1.91,11.35.48,4.13,1.17,8.34.81,12.43-.69,7.67-2.27,15.26-3.08,22.93A40.74,40.74,0,0,1,934,942.29c-2.18,4.18-4.93,8.32-6.29,12.65-1.6,5.11-5.28,7.76-8.72,11-4.89,4.58-9.49,9.53-14.8,13.58-8.4,6.4-18.3,10.21-28.17,13.88-5.69,2.11-11.49,4-17.3,5.77a56,56,0,0,1-6.9,1.1c-3.56.62-7.09,1.41-10.66,1.9-3.08.42-6.21.48-9.31.79s-6.15.8-9.24,1.12a210.28,210.28,0,0,1-34.77.65c-10.8-.67-21.61-1.15-32.4-2-4-.32-8-1.54-12-2.31-8.77-1.66-17.66-2.86-26.29-5a368.92,368.92,0,0,1-62.28-21.28c-15.28-6.92-30.63-13.72-45.74-21-16-7.68-31.16-16.77-46.11-26.23-4.75-3-9.45-6.08-14.16-9.14-2.75-1.78-3.16-1.62-5.43.78-3.84,4.07-8,7.85-11.72,12-8.56,9.63-17.16,19.25-25.32,29.2-7.78,9.49-15,19.4-22.52,29.12-8.15,10.57-16.28,21.16-24.5,31.68-4.22,5.4-8.3,11-13.08,15.84-3.86,3.93-7.62,8-11.12,12.19-4.52,5.49-9,11-13.67,16.4-2.3,2.64-4.94,5-7.29,7.59a17.73,17.73,0,0,0-1.93,3.5c29.48,20.09,56.58,42.7,84.17,64.76,2.83-1.58,5.75-2.65,7.89-4.55,2.74-2.43,6.23-4.25,7.82-7.84a3.87,3.87,0,0,1,1.52-1.73c1.65-1,3.31-2.45,5.12-2.69,2.45-.34.81-3.34,3.33-3.74,1.78-.28,3.21-2.33,4.94-3.37s3.12-3.21,5.78-2.29c.45.15,1.18-.35,1.73-.63,2.7-1.39,4.21-4.79,7.9-4.52a.3.3,0,0,0,.33-.31c-.06-3.92,3.35-3.74,5.76-4.88,2.68-1.26,5.11-3,7.78-4.27,1.53-.73,3.14-2.06,5.11-.47.35.28,1.71-.64,2.41-1.48h-2.14c2.25-2.81,5.6-2.59,8.31-3.72.07.47.13.93.2,1.4l2.46-1.06-.3-.67-2.07.68c.9-.82,1.66-2,2.72-2.39,11.12-3.81,22.17-7.86,33.47-11.08a129.65,129.65,0,0,1,34-4.52,33.46,33.46,0,0,1,9.62,1.82c2,.59,3.47.6,4.85-.83,3.65,2.62,7.21,5.2,12,5.2a4,4,0,0,1,1.82.47c8.54,4.38,17.3,8.29,24.59,14.82,5.92,5.3,12.46,9.87,17.58,16.07,7.68,9.32,13.28,19.31,14.45,31.6.85,8.86.62,17.49-2.12,26-1.25,3.85-2.22,7.9-5.44,11-1.28,1.21-1.76,3.22-2.74,4.78-2.8,4.43-7.13,7.26-11.27,10.28a9.43,9.43,0,0,0-1.86,1.42c-4,4.92-9.91,6.82-15.41,9.28s-10.74,4.92-16.39,6.36a108.78,108.78,0,0,1-18.56,2.65c-15.5,1.2-30.68-1.15-45.91-3.88-27.46-4.92-52.13-16-75.07-31.19-5.86-3.88-11.34-8.32-17-12.5-1.35-1-2.73-2-4.09-2.92-4,5.18-9.09,8.66-13.5,12.83a130.2,130.2,0,0,0-10.59,11.39c-4.84,5.85-10.09,11.36-15.21,17-6.67,7.33-13.43,14.59-20.06,22A124.55,124.55,0,0,1,438,1241.76c-2.41,2-4.45,4.49-6.75,6.67-8.27,7.85-16.48,15.76-24.89,23.45-10.45,9.55-21.08,18.9-32.18,28.82,44.32,22.73,85.5,49.87,125.24,79.48,7.75-5.25,15.2-10.47,22.84-15.4,4.9-3.16,10.23-5.68,15.29-8.59,2.18-1.26,4.41-2.42,6.7-3.46,3.8-1.73,7.67-3.32,11.53-4.92,2.29-1,4.63-1.8,7-2.67,2-.76,4.09-1.46,6.12-2.25,2.45-.94,4.85-2.06,7.33-2.9,5.19-1.77,10.39-3.51,15.64-5.07,8.65-2.57,17.28-5.25,26-7.39,9.22-2.25,18.56-4.06,27.9-5.78,7.84-1.44,15.77-2.45,23.65-3.71,7.11-1.14,14.17-2.67,21.31-3.5,11.52-1.33,23.08-2.25,34.63-3.28,4.82-.43,9.64-.84,14.47-1,3.42-.13,7,.68,10.26.08,6.6-1.18,13.08.37,19.62.12a171,171,0,0,1,17.67.54q11.86.77,23.7,1.83c3.74.33,9.82,1.15,13.53,1.77,6.23,1,12.49,1.91,18.68,3.17,7.81,1.6,15.51,3.74,23.26,5.59,6.33,1.52,12.63,3.16,18.87,5,4.34,1.28,8.79,2.55,12.44,5.57a16.14,16.14,0,0,0,5.46,2.7c7.77,2.39,14.65,6.39,21.41,10.71,5.13,3.28,10.59,6.08,15.6,9.52a171.73,171.73,0,0,1,14.77,11.4c7.93,6.82,16,13.57,23.28,21,5.3,5.42,9.53,11.88,14.07,18,6.52,8.79,10.44,18.9,15.12,28.64,4.08,8.49,7.06,17.23,7.59,26.57a74.68,74.68,0,0,1-.76,16.57c-1.09,6.5-3.21,12.85-4.93,19.25-.24.88-.46,2-1.1,2.49-2.07,1.43-3,3.48-3.85,5.64-4.36,11-13.82,17.56-22.81,24.41-4.45,3.38-9.06,6.79-14.1,9.15-9,4.24-17.63,9.35-27.38,12-5.58,1.55-10.87,4.15-16.49,5.53-9.58,2.37-19.32,4.14-29,6.17a176.06,176.06,0,0,1-32.22,3.36c-8.49.21-17,.62-25.46.31-7.22-.26-14.41-1.36-21.6-2.2-5.15-.59-10.36-1-15.41-2.12-13.22-2.79-26.42-5.69-39.53-8.92-23.17-5.71-44.83-15.27-66.17-25.57-10.17-4.9-20.4-9.72-30.29-15.14q-19.76-10.85-39-22.61c-18.34-11.17-35.46-24-52-37.67-8.8-7.26-17.54-14.61-26.45-21.75-7.52-6-15.26-11.8-22.9-17.68-3-2.28-6-4.54-8.89-6.86-2-1.55-3.8-1.26-5.51.29-5.64,5.11-11.29,10.22-16.86,15.41-2.16,2-4.11,4.26-6.17,6.39-.32.33-.82.54-1.05.92-4.45,7.28-9.25,14.38-13.21,21.91-5,9.47-7.86,19.77-11.31,29.88-4,11.71-5.15,23.7-7.22,35.66-1.88,10.89-1.29,21.84-1.88,32.76-.56,10.65-1.6,21.27-2.25,31.92q-.42,7-.14,14c.67,17.24,1.5,34.48,2.22,51.72.17,4.33,0,8.67.26,13,.5,8,1.21,16,1.85,24,.09,1.23.24,2.46.33,3.7.59,7.35,1.24,14.69,1.74,22,.76,11,1.38,21.9,2.12,32.86.3,4.47.87,8.92,1.07,13.4.52,11.59.73,23.19,1.41,34.77.56,9.73,1.57,19.44,2.45,29.15,1.44,15.87,3.26,31.71,4.31,47.6,1.24,18.83,1.88,37.7,2.71,56.56.48,10.8.84,21.61,1.21,32.41.46,13.29,1,26.57,1.24,39.85.13,6.62-.48,13.25-.45,19.88,0,7.87.46,15.74.6,23.62.14,7.42.18,14.84.18,22.26,0,13.3.11,26.59-.16,39.87-.19,9.12-1.15,18.23-1.41,27.35-.38,13.61-.38,27.23-.68,40.84-.17,7.72-.74,15.44-.93,23.16-.11,4.5.05,9,.35,13.48.91,13.6-.74,27.14-1,40.72-.09,5.38.06,71.36.09,76.75H440.43c.37-25.82.72-112.23,1.12-138.05.26-16.55.47-33.1.94-49.65.51-18.09,1.44-36.17,1.88-54.26.3-12,.06-24.1,0-36.15q0-16.25-.13-32.49c-.1-17.18.05-34.37-.41-51.54-.7-26.77-1.54-53.54-2.86-80.28-1-19.61-2.82-39.18-4.19-58.77-1.17-16.67-2.33-33.34-3.28-50-1.07-19-1.7-38-2.89-57-1.47-23.47-3.42-46.91-4.95-70.38-.55-8.33-.49-16.71-.68-25.07-.33-14.24-1-28.48-.85-42.71.1-10.5,1.07-21,2-31.49,1.51-17.72,2.78-35.47,5.08-53.09a150,150,0,0,1,11.42-42c4.36-9.75,8.9-19.47,14.17-28.75A100.91,100.91,0,0,1,476,1398.9c3.79-3.5,7-7.63,10.79-11.86-4.09-3.14-7.6-5.93-11.22-8.59-18.27-13.45-37.2-26-56.38-38.11-14.76-9.35-29.81-18.12-45.82-25.24-2.77-1.23-5.56-2.44-8.28-3.76-2.13-1-3.79-.61-5.68.79-15.15,11.28-30.33,22.52-46.48,32.43-16.92,10.39-34,20.53-52,29a415.89,415.89,0,0,1-52.73,21,234.22,234.22,0,0,1-23.07,5.9c-7.72,1.56-15.43,3.18-23.21,4.43a115.24,115.24,0,0,1-16.28,1.39c-10,.17-20.11.56-30.09-.13-18.78-1.28-37.21-4.73-54.3-12.85-6.71-3.19-12.57-8.07-19.1-11.68-7.62-4.21-13.13-10.55-18.65-16.84a153.81,153.81,0,0,1-10.78-14.56A60.28,60.28,0,0,1,5,1334.11c-.64-2-2.18-3.71-3.48-5.81,1.7-1.63,1.31-3.61.72-5.79A69.25,69.25,0,0,1,0,1311.87,14.34,14.34,0,0,1,1.18,1306c1.32-3.79,2.8-7.54,4.42-11.22.69-1.56,1.15-3.56,3.68-3.55.5,0,1.05-1.06,1.5-1.69,3.41-4.79,6.57-9.79,10.28-14.34,3.31-4,6.7-8.49,11.08-11.09,3.3-2,6.94-3.07,9.74-6.13,1-1.08,3.82-.56,3.73-3.36,0-.32,1-.73,1.51-1,4.21-2.08,8.29-4.5,12.67-6.15a156.26,156.26,0,0,1,33.15-8.58,291.42,291.42,0,0,1,50.33-2.55,346.29,346.29,0,0,1,73.28,10.16c14.5,3.65,28.85,7.88,43.23,12,25.55,7.27,50.69,15.88,75.4,25.56,3.14,1.23,6.3,2.43,9.39,3.76,2,.85,3.51.77,5.06-.88s4.21-2.65,4.88-5.42a3.71,3.71,0,0,1,2.35-2.06c4.07-1,6.67-3.66,8.69-7.09.45-.75,1.36-1.88,1.93-1.81,2.38.28,3.37-1.52,4.59-2.74,2.37-2.38,5.37-4,7.64-6.43,3.44-3.61,6.27-7.81,11-10.11-.35-3.16,3.76-2.26,4.24-4.35.65-2.85,3.34-3,5.07-4.36a16.66,16.66,0,0,0,3-2.93,24.71,24.71,0,0,1,8.51-7.81,3.32,3.32,0,0,0,1.12-1c3.68-5.89,10.21-9.3,13.81-15.32a9.83,9.83,0,0,1,4.27-3.8c3.52-1.54,4.9-4.75,7.06-7.4,2.78-3.41,5.75-6.67,8.74-9.91,3.61-3.94,7.36-7.75,11-11.68,4.57-5,8.83-10.2,13.65-14.9s8.89-10.37,13.67-15.26c3.15-3.23,2.89-3.7-.69-6.52-11.05-8.71-22-17.5-33.14-26.13s-22.26-17.16-33.49-25.6c-3.75-2.81-7.84-5.18-11.69-7.86-1.87-1.3-3.44-1.22-5,.3q-7.94,7.53-15.89,15c-2.57,2.44-4.89,5.2-7.7,7.32-6.82,5.14-13.82,10-20.81,14.94a117.88,117.88,0,0,1-29.66,15,115.46,115.46,0,0,1-43.17,6.24,52.56,52.56,0,0,1-28.14-9.57c-10-6.94-18.75-15.1-23.15-26.76-2.83-7.51-5.57-15-8.29-22.59-.22-.63-.15-1.93.19-2.09,1.7-.8.43-1.68.35-2.61a126,126,0,0,1-.66-13.3c0-1.35,1.82-2.66,2.8-4q-.9,2.85-1.79,5.71l1.3.4,6.69-14-.37-.23Q229.43,1060.33,226.45,1064.5ZM4,1302.81c1.09-1.3,2.63-2.45,1.41-5.36-.57,2.36-.94,3.92-1.29,5.5l-1.76,3.74.95.27Zm898.27-362.3c.24,1.74,1.23,1.76,2,.57,1.81-2.61,3.45-5.36,5.06-8.11.31-.52.21-1.29.4-2.75l-2.26,1.91,4.35-11.55.85.25-.86,5.35a2.28,2.28,0,0,0,1.47-1.34c.87-2.94,1.2-6.14,2.57-8.83,3.46-6.82,3.4-14.37,4.84-21.54,1.07-5.4,1.63-11.27.16-16.92-1.27-4.91-2.11-10-4-14.69a93,93,0,0,0-13.62-24.21,104.67,104.67,0,0,0-16.8-16.73c-10.24-8-21.9-13.89-34.13-18.55-7.47-2.84-14.83-6.2-22.55-8.13a239.94,239.94,0,0,0-28.27-4.89c-14.3-1.81-28.61-.5-42.85,1.1a194.6,194.6,0,0,0-19.41,2.95c-11.28,2.45-22.47,5.34-33.68,8.1a30.91,30.91,0,0,0-3.91,1.56c-1.57.61-3.16,1.2-4.74,1.8-1.85.7-3.74,1.31-5.54,2.11-2,.89-3.82,2.49-5.88,2.82-5.47.9-9.86,3.8-14.49,6.4-9.83,5.53-19.75,10.9-29.69,16.23-15,8-28.3,18.37-41.48,28.84a311.23,311.23,0,0,0-31.68,29.06c-4.49,4.71-9,9.44-13.72,14.43,1.7,1.2,3,2.25,4.47,3.14,2.38,1.49,4.8,2.93,7.25,4.3,10,5.57,19.84,11.32,30,16.6,6.93,3.61,14.31,6.37,21.34,9.79,21,10.21,42.34,19.77,64.9,26.27,10.39,3,20.89,5.68,31.43,8.11A270,270,0,0,0,753,979.89c14.11,1.13,28.19,2.3,42.39,1.79a238.53,238.53,0,0,0,48-6.18c10.46-2.55,20.5-5.87,29.91-11a55.53,55.53,0,0,1,6.49-2.59l-1,1.72c2.28.46,3.35-.25,3.71-2.84l-2.44,1C887.86,955,895.64,948.37,902.24,940.51ZM522.86,1397c1.94,1.54,3.26,2.6,4.59,3.64,10.8,8.46,21.65,16.85,32.38,25.39,11.59,9.23,23.07,18.58,34.57,27.91,14.92,12.11,31.25,22.27,47.73,32.07,13.57,8.08,27.83,15.08,42,22,27.57,13.47,56.27,24,86.54,29.83,12.63,2.45,25.4,4.31,38.15,6.07,15.78,2.17,31.66,1.83,47.53,1.07,1.09-.06,2.2.06,3.29,0,2.4-.17,5.16,2,7.17-1a.92.92,0,0,1,.9-.09c2.63,2,5.22-1.18,7.89,0a2.84,2.84,0,0,0,2.27-.33c3.79-2.43,8.34-2.15,12.45-3.41,1.44-.44,3.43-2,4.66.61,0,.06,1.49-.29,1.52-.53.35-3,2.28-2.19,4-1.58s2.85,1.12,3.82-1a3,3,0,0,1,2.65-1.13c2.47.76,4.62,0,6.86-.73,3.73-1.13,7.52-2.1,11.18-3.41,1.25-.45,2.68-.75,3.3-2.75s3.06-3,5.48-2.41c3.26.79,5.31-.71,7.2-3.11a14.07,14.07,0,0,1,3.9-3.07c3-1.82,6.19-3.46,9.26-5.23,2.45-1.42,4.71-3.24,7.29-4.33,3.58-1.5,5.45-2.63,7.43-5.59.27-.4.94-.56,1.45-.78.67-.28,1.9-.41,2-.77.46-2.49,2.86-2.82,4.27-4.2a76.6,76.6,0,0,0,11.76-15.07c3.9-6.44,5-13.93,6.36-21,2-10.55-1.13-20.81-4.85-30.73-.69-1.85-2.55-3.34-3-5.19-1.44-6.12-4.64-11.39-7.45-16.91-5.74-11.33-14.47-20.2-24.16-28-10.62-8.54-22.83-14.93-35.36-20.34-15.67-6.77-31.65-12.9-48.49-16.47-11.21-2.38-22.36-5.05-33.61-7.24a320.28,320.28,0,0,0-70.76-5.39c-10.54.3-21.1.33-31.62,1-11.92.74-23.82,1.86-35.69,3.16-7.66.84-15.24,2.29-22.86,3.46-20.21,3.1-40.26,6.93-59.78,13.1-2.82.89-5.88,1.08-8.69,2-8,2.7-15.81,6-23.93,8.33s-15.63,6.34-23.32,9.85a238,238,0,0,0-27.27,14.75C530.21,1391.71,526.76,1394.33,522.86,1397ZM231.27,716.2l-.09.49c-1.72,0-3.45,0-5.18,0a268.72,268.72,0,0,0-36.56,3.77c-14.44,2.42-28.81,4.91-41.79,12-7,3.87-14.24,7.27-20.22,13.09-6.54,6.35-12.58,12.94-17,20.76-3.89,6.87-8.71,13.47-9.42,21.74-.18,2.14-.21,4.49-1.16,6.31-2.1,4.05-2.46,8.23-2.13,12.59.32,4.14.57,8.29,1,12.42A74.73,74.73,0,0,0,103.89,841c.87,2,2.37,4.39,4.23,5.29,8,3.87,16.27,7.32,24.49,10.8a77.8,77.8,0,0,0,11.29,4.11c5.55,1.37,11.23,2.3,16.9,3.19,8.15,1.28,16.26,3.28,24.64,1.92a7.5,7.5,0,0,1,2.76.31,18.92,18.92,0,0,0,10.15-.1c2.16-.65,4.8-1.59,7.2.15a2.58,2.58,0,0,0,2.27.2c4.07-2.41,8.59-1,12.84-1.65,7.3-1.12,14.75-.2,22-2.21,7-1.94,14.25-3,21.28-5.18,10.58-3.22,20.9-7,30.1-13,14.32-9.25,27.93-19.41,39.25-32.34,9.57-10.93,18.45-22.25,25.51-34.92,1.12-2,1.15-3.4-.78-4.75-6-4.22-11.74-8.91-18.06-12.62-15.24-9-30.63-17.7-46.21-26.09a161.8,161.8,0,0,0-38.29-14.33C247.6,717.83,239.36,717.34,231.27,716.2Zm102.79,582.44c-1.46-.72-2.36-1.28-3.35-1.64-8-2.89-15.87-6-23.95-8.54-17.51-5.55-35.05-11-52.69-16.14-12.37-3.57-24.88-6.69-37.43-9.55-8.72-2-17.58-3.52-26.45-4.68a306.2,306.2,0,0,0-30.5-2.84c-11.78-.36-23.59.16-35.38.55-19.53.63-37.62,6.5-54.87,15.15-9.85,5-17.31,12.69-24.82,20.44a85.32,85.32,0,0,0-9.82,11.32c-6.29,9.31-9.16,19.91-9.43,31-.26,10.69,3.21,20.42,11.09,28.16,5.51,5.4,12.44,8.81,19.47,11.76,12.61,5.3,26,8,39.57,9.45,9.46,1,19,2.53,28.58,1.26.3,0,.63.08.94.06,7.53-.31,15.09-.27,22.58-1,12.35-1.22,24.36-4.25,36.39-7.21,14.69-3.61,28.64-9.19,42.63-14.67,3-1.19,6-2.67,9-4q4.22-2,8.4-4c3-1.43,6.52-2.3,8.7-4.49,2.48-2.48,5.73-2,8.36-3.69,5.73-3.64,11.92-6.58,17.82-10,6.8-3.92,13.58-7.89,20.2-12.1,6.36-4,12.5-8.41,18.73-12.64,1.37-.93,2.77-1.83,4.11-2.82C325.84,1304.81,329.75,1301.87,334.06,1298.64Zm368.19-150.59-1-.16c.59-4.32,1.19-8.65,1.77-13a2.35,2.35,0,0,0-.08-1c-.39-1.26-.86-2.51-1.21-3.79-1-3.55-1.11-7.57-3-10.57a31.89,31.89,0,0,0-15.32-12.91c-11-4.53-22.45-5.85-34.1-6.16-10.75-.29-21.19,2.19-31.57,4.56-4.2,1-8.14,3-12.27,4.34A268,268,0,0,0,549,1134.91a144,144,0,0,0-14,9.42c-5.56,4.3-10.77,9.05-16.4,13.82a36.36,36.36,0,0,0,2.91,3,130.16,130.16,0,0,0,33.11,19.38,212,212,0,0,0,49.33,13.61c13.56,1.9,27.07,3.27,40.76.3,10.82-2.35,21.27-5.31,30.86-10.92,12.14-7.1,21-16.63,24.23-30.49a18.88,18.88,0,0,1,1.35-3.11l.66.16v4.71l.7,0,2.67-15-1.21-.27C703.38,1142.38,702.81,1145.22,702.25,1148.05Zm-326.73-78.14c-1.7-.9-3-1.74-4.41-2.32-4.93-2-9.85-4.09-14.86-5.89-15-5.36-30.67-8-46.42-10-7.76-1-15.66-1.63-23.47,0-13.86,2.86-24.54,10.5-32.87,21.5-2.46,3.25-4.42,6.76-4.39,11,0,.84-.35,2.14-1,2.46-2.41,1.26-2.17,3.45-2.53,5.52-1.18,6.66.69,12.9,2.75,19.06a6.84,6.84,0,0,0,3.16,3.22,57.67,57.67,0,0,0,28,6.88c5.83,0,11.55-1.17,17.28-2.52,6-1.42,12.31-1.53,17.65-5.16a5.52,5.52,0,0,1,3.08-1c2.77.12,4.37-1.93,6.54-2.87,3.26-1.41,5.45-5.18,9.85-4.32.76.15,1.85-1.29,2.78-2,.61-.47,1.13-1.22,1.82-1.42,1.26-.37,2.39-.6,2.56-2.21a1.6,1.6,0,0,1,1.24-1c3.13.32,4.69-1.57,6-3.88.18-.31.48-.82.69-.8,3.25.24,4.08-2.34,5.42-4.36,1.46-2.22,3-4,6.09-4.54a5.3,5.3,0,0,0,4.44-5.72C368.55,1078.57,368.55,1078.57,375.52,1069.91ZM77.72,767.47c-3.34,7.13-4.57,14.7-5.41,22.35l.93.19Q75.48,778.75,77.72,767.47ZM701.2,1156.79a7.88,7.88,0,0,0-2.94,7.12C702,1162.25,700.71,1159.18,701.2,1156.79ZM88.75,746.33l1,.76,4.3-6.18-1-.64ZM99.81,734.8l-1-.73c-1.85.85-2.5,2.47-2.49,4.55Zm12.85-12.58.62.78,3.7-2.84-.54-.69Zm-9.5,8,.6.5,2.28-2.43-.94-.89ZM79,763.3l.94.27.75-2.61-.59-.19Z"/><path class="cls-1" d="M905.54,935.9c-.9,1.33-.63,3.53-2.92,3.84A4.52,4.52,0,0,1,905.54,935.9Z"/><path class="cls-2" d="M764.61,1500.06c-12.39,12.91-24.2,27.35-28.64,44.69s.39,38.16,15.49,47.76c8.8,5.58,19.73,6.7,30.13,6.09,11.27-.67,22.74-3.35,31.89-10,6.61-4.78,11.69-11.37,16.25-18.13a204,204,0,0,0,33.78-97.13c.77-9.47,5.61-39.85-8.82-41.35-11.44-1.2-35.1,20.68-44,27.31A373.91,373.91,0,0,0,764.61,1500.06Z"/><path class="cls-3" d="M844.78,1294.8c3.19-3.48,6.45-6.37,8.79-9.88,1.23-1.84,1.08-4.76,1.13-7.2a41.39,41.39,0,0,1,9.23-25.89c5.44-6.75,12.11-9.19,20.59-6.76,7.3,2.1,7.31,1.94,11.72-4.26a120,120,0,0,1,7.79-10.38c5.75-6.46,13-9.92,21.8-9.36,2.27.14,4.55.31,6.8.63,16.19,2.32,22,9.16,24,26.55,1.14,9.74-.4,19.53-3.62,29-3,9-2.57,11,5.16,17,8.24,6.36,9.54,15.08,9.32,24.43a10.43,10.43,0,0,1-2,4.94c-7.65,11.82-15.3,23.64-23.15,35.33-4.32,6.42-9,12.58-13.59,18.83-4.41,6-7.56,12.73-11,19.27l1.22,1.1c1.37-1.22,2.79-2.4,4.12-3.66,5.46-5.16,10.49-10.89,16.46-15.35,5-3.75,10.95-6.43,16.78-8.87,6.95-2.9,14.15-3.38,21.11.51,3.67,2,7.2,1.48,11.1,0,5.93-2.22,12-4.39,18.28-5.29,8.21-1.17,15.94.62,21.07,8.19a17.82,17.82,0,0,1,3,11.53c-.49,9.69-3.89,17-13.14,21.12a18.58,18.58,0,0,0-5.39,4.16c-4.3,4.41-8.09,8.74-7.69,15.9.52,9.61-4.76,16.71-13.32,20.48-9.28,4.08-18.3,9-29.09,9-7.37,0-14.23,3.07-20.36,7.25-10.81,7.39-19,6.74-30.93,8.49-13.36,2-27.5,9.18-40.28,13.56a2.37,2.37,0,0,1-3.62-1.65q-5.46-12.39-10.93-24.8c-1.84-4.18-4.05-8.72-8.26-10.5l-1.51-9.31-32.61,17.23c-2.27,1.21-5.56,2.19-7,.07a5.34,5.34,0,0,1-.59-3.14c.27-14.93,5.73-43.27-7.33-54.37-7.76-6.6-12.88-15.21-16.64-24.7-2.77-7-2.83-13.73.42-20.51a58.48,58.48,0,0,0,2.46-5.63c2-5.55,2.33-10.92-.55-16.49-5.2-10.08-4.84-20.07,1.2-29.92a16.38,16.38,0,0,1,8.59-7.38c8.69-3.06,17.43-5.22,26.67-1.84a10.21,10.21,0,0,0,6.64-.1,14.62,14.62,0,0,1,14.85,1.93A8.74,8.74,0,0,0,844.78,1294.8Z"/><path class="cls-4" d="M844.78,1294.8c3.19-3.48,6.45-6.37,8.79-9.88,1.23-1.84,1.08-4.76,1.13-7.2a41.39,41.39,0,0,1,9.23-25.89c5.44-6.75,12.11-9.19,20.59-6.76,7.3,2.1,7.31,1.94,11.72-4.26a120,120,0,0,1,7.79-10.38c5.75-6.46,13-9.92,21.8-9.36,2.27.14,4.55.31,6.8.63,16.19,2.32,22,9.16,24,26.55,1.14,9.74-.4,19.53-3.62,29-3,9-2.57,11,5.16,17,8.24,6.36,9.54,15.08,9.32,24.43a10.43,10.43,0,0,1-2,4.94c-7.65,11.82-15.3,23.64-23.15,35.33-4.32,6.42-9,12.58-13.59,18.83-4.41,6-7.56,12.73-11,19.27l1.22,1.1c1.37-1.22,2.79-2.4,4.12-3.66,5.46-5.16,10.49-10.89,16.46-15.35,5-3.75,10.95-6.43,16.78-8.87,6.95-2.9,14.15-3.38,21.11.51,3.67,2,7.2,1.48,11.1,0,5.93-2.22,12-4.39,18.28-5.29,8.21-1.17,15.94.62,21.07,8.19a17.82,17.82,0,0,1,3,11.53c-.49,9.69-3.89,17-13.14,21.12a18.58,18.58,0,0,0-5.39,4.16c-4.3,4.41-8.09,8.74-7.69,15.9.52,9.61-4.76,16.71-13.32,20.48-9.28,4.08-18.3,9-29.09,9-7.37,0-14.23,3.07-20.36,7.25-6.88,4.71-14.19,8.1-22.59,9.07-7.45.85-13.71,7.21-19.22,11.86a94.37,94.37,0,0,0-15.8,17.53c-8.89,12.48-15.45,26.41-22.84,39.79-5.47,9.92-10.62,19.92-16.88,29.47-8,12.17-18.53,20.77-30.88,27.12-9.2,4.72-19.4,7.62-29.33,10.77-6.63,2.11-13.25,5.09-20.63,3.32-1.13-.27-2.54.83-3.85,1.19a11.29,11.29,0,0,1-10.83-2.54c-5.11-4.48-9.79-9.43-14.77-14.06-12.56-11.7-15.79-26.46-12.86-42.54,4.37-24,16.63-43.5,35.18-59.29,12-10.19,24-20.45,35.06-31.54,6.67-6.66,9.77-15.83,11.12-25.27,1-7.22,1.8-14.47,2.71-21.71.89-7-1-12.75-6.65-17.59-7.77-6.59-12.89-15.21-16.65-24.7-2.77-7-2.83-13.73.42-20.51a58.48,58.48,0,0,0,2.46-5.63c2-5.55,2.33-10.92-.55-16.49-5.2-10.08-4.84-20.07,1.2-29.92a16.38,16.38,0,0,1,8.59-7.38c8.69-3.06,17.43-5.22,26.67-1.84a10.21,10.21,0,0,0,6.64-.1,14.62,14.62,0,0,1,14.85,1.93A8.74,8.74,0,0,0,844.78,1294.8Zm-7.48,165c3.48-3.58,7.16-7,10.47-10.73,3.76-4.26,6.85-9.17,10.86-13.16a65,65,0,0,0,7.89-9.53c2.15-3.16,3.65-6.89,6-9.87,4.88-6.11,8-13.73,10.71-21.06a145.43,145.43,0,0,0,8.08-32.07c1-7.84,1.57-14.86-.2-22.62s-6-15.54-9.1-23a38.45,38.45,0,0,1-2.18-5.94c2.57.79,4.25,3.19,5.84,5.37a86.06,86.06,0,0,0,8.53,10c-.64-.65.44-6.27.54-7.42q.36-4.24.9-8.48a142.57,142.57,0,0,1,3.12-16.79c2.69-10.65,7.74-19.92,14.07-28.85.69-1,2-1.53,4.27-3.24-1,3.61-1.33,5.89-2.32,7.8-1.44,2.77-1.87,5.8-3.08,8.62a58.9,58.9,0,0,0-4,11.57c-1,5.2-3,10-3.37,15.34-.43,6.74-.71,13.49-1.06,20.24a1.5,1.5,0,0,0,.31,1.23,1.16,1.16,0,0,0,.75.24c1.84.1,3.38-1.29,4.77-2.51a44.38,44.38,0,0,1,10.9-7.06,30.52,30.52,0,0,1,5.85-2.37c1.23-.29,4.45.45,5.21.09A59.59,59.59,0,0,0,912,1330a36.24,36.24,0,0,0-7,11c-2.53,6.71-2.83,14.8-4,21.87-1.67,10.45-2.18,21.83-5.91,31.72-3.37,8.93-6.46,18-10.71,26.55-4.86,9.74-11,18.8-16.3,28.34a26.33,26.33,0,0,0-3,12.49,54.44,54.44,0,0,0,.35,6.63c.1.94-.15,5,.87,5.44a1,1,0,0,0,1.11-.38c2-2.67,3.16-7.15,4.42-10.27,4.28-10.56,9-21,12.6-31.75,2.77-8.24,5.43-16.41,9.95-23.88,5-8.18,9.84-16.41,14.77-24.61,8.45-14,16.51-28.33,25.52-42,4.61-7,7.65-14.43,10.57-22.09,1.47-3.84,1.21-7.46.1-11.34-1.27-4.47-4.18-7.53-7.57-10.28-8.35-6.79-9.53-15.61-7.24-25.37.78-3.32,2.16-6.51,2.86-9.84,1.48-7,2.05-14-.19-21-2.68-8.25-9.25-9.69-14.83-3.23-5,5.83-9.66,12-14.64,17.91-4.84,5.73-11.42,7.4-18.34,5-10.26-3.58-12.22-2.43-13.94,8.22a11.9,11.9,0,0,0-.35,3.38c1.28,9.59-3.33,16.21-10.75,21.32a8.51,8.51,0,0,0-3.8,6.09c-.71,4.16-.78,8,1.38,11.86a64,64,0,0,1,3.69,8.08c4.06,10.38,8.61,20.63,11.82,31.28,1.9,6.3,3.44,12.58,6.29,18.62,1.64,3.47,1.84,8,1.41,11.94a40.74,40.74,0,0,1-3.83,12.34c-4,8.64-8.67,17-12.79,25.61-5.39,11.26-13,20.82-21.72,29.62-3.65,3.71-7.69,5.33-11.53,8.86-2.72,1.13-5.58,3.7-8.07,5.2-6.2,3.76-12.23,7.82-18.31,11.8a108.46,108.46,0,0,0-9,6.13c-7.46,6-14.64,12.33-22.16,18.23-13.68,10.72-22.74,24.73-29,40.63-7.27,18.45-2.77,34.33,11.4,47.79,3.19,3,5.43,2.89,7.61-.86a62.23,62.23,0,0,0,2.88-6.62c-7.26-1.15-10.29-5.8-12.71-11.57-2.7-6.45-2.72-12.85-1.33-19.4,2.35-11,8.71-20.16,15.71-28.43,7.75-9.18,16.65-17.45,25.56-25.55,10.76-9.79,21.94-19.13,33.22-28.32C829.71,1465.08,835.25,1461.94,837.3,1459.84Zm-19.18-21.4a22,22,0,0,0-.6,3.59c5.69-.9,10.28-5.27,13.24-10.21a34.6,34.6,0,0,0,4.53-22.28c-.72-5.21-2.63-10.18-4.52-15.09-2.66-6.9-5.35-13.86-9.23-20.18-.62-1-5.93-7.34-5.59-8,1.2-2.18,6.28,2.64,6.94,3.24,2.53,2.29,5.26,4.39,7.58,6.88s4,5.22,6.62,8.59c3.4-9.6-.59-21.24-3.75-30.38q-2.67-7.71-5.68-15.29c-1.36-3.41-5.78-10-4.85-13.6.3-1.17,4.81,3,5.19,3.5,1.81,2.21,3.65,4.35,5.33,6.66a92.41,92.41,0,0,1,17.41,48.42,31.22,31.22,0,0,0,3.83-2.2,10.87,10.87,0,0,0,2.82-3.61c1.81-3.45,3-7.18,4.62-10.73.8-1.79-1.41-4.94-2.23-7.47a10.45,10.45,0,0,1-.57-2c-2.29-17.41-11.6-31.94-19.54-47-1.86-3.53-5-7.38-9.54-6.72-5.75.82-10.77-.58-15.93-2.5a93,93,0,0,0-9.79-3c-5.59-1.41-8.68.75-9.53,6.43a13.25,13.25,0,0,1-.55,3.32c-3.86,8.61-1.29,16.36,2.67,24.16a24.35,24.35,0,0,1-.16,23.51,28.48,28.48,0,0,0-2.89,8.29c-1.48,8.8,3.41,15.26,8.72,21.28,3.45,3.91,7.75,7,11.28,10.89,6.66,7.23,10.14,15.39,7.26,25.56a87.23,87.23,0,0,0-2.09,11C819.06,1434,818.55,1436.32,818.12,1438.44Zm134.67-13.9c2.35,1.21,5.74,1.57,8.28,2.17s5.16.37,7.65.48l8.79.38a1,1,0,0,1,.36.07.64.64,0,0,1,.15.92,1.81,1.81,0,0,1-.88.56c-7,2.7-13.94,2.37-21.29,2.3-7.93-.07-17.24,0-23.83,5-8.52,6.46-16.53,13.59-24.68,20.52-1.47,1.25-3.46,3.23-4.1,5.06-.1.29,2.57-.79,2.67-.82a14,14,0,0,1,2.89-.2,68.4,68.4,0,0,0,7.75-1.39c5.19-1,10.35-2.42,14.88-5.23,7.23-4.47,14.65-8.69,23.35-9,6.79-.22,12.77-3.15,19.13-4.48,7-1.46,10.2-7.6,15.92-10.41,1.67-.82,1.8-3.16.44-5.39-3.91-6.48-3.32-9.72,2-14.92,3.42-3.34,7.22-6.39,10.17-10.1a17.66,17.66,0,0,0,3.63-15.56c-.67-2.66-1.34-4.13-4.26-3.25a38.88,38.88,0,0,0-5.61,2.66,32.46,32.46,0,0,1-23.92,2.29c-2.18-.63-4.51-.73-6.68-1.38-4.33-1.31-8.24-.67-11.38,2.56-7.6,7.82-15.15,15.69-22.51,23.73-4.46,4.86-8.18,10.43-12.86,15-5.65,5.56-12,10.39-18,15.62a25.32,25.32,0,0,0-5.61,6.72c-.59,1.08-3.52,6.79-2.14,7.89.21.16.52,0,.72-.19,1.74-1.54,3.53-3.08,5.23-4.69,9.74-9.25,18.85-19.2,30.5-26.27a46.38,46.38,0,0,0,10.82-9.63c5.67-6.87,8.29-16.18,15.17-21.85a.9.9,0,0,1,.66-.28c.58.08.47.94.21,1.47a32.25,32.25,0,0,0-2.66,7.88c-.27,1.34-.23,2.81-.56,4.12-.18.71-.89,1.73.19,2.21a2.88,2.88,0,0,0,2.14-.22c1-.39,2.06-.79,3.08-1.21a97.44,97.44,0,0,0,12.25-6.37c4-2.34,8.13-4.27,12.27-6.3a2.13,2.13,0,0,1,.8-.28.75.75,0,0,1,.73.36c.2.4-.13.84-.43,1.16a46.09,46.09,0,0,1-6.14,5.72l-25.43,19.23a2.7,2.7,0,0,0-1,1,1.86,1.86,0,0,0,1,2.18Zm-159,149a17.65,17.65,0,0,0,6.18-.26c11.52-3.55,22.18-8.84,29.75-18.47s14.49-19.91,18.47-31.72c1.95-5.81,3.12-11.9,5.31-17.61,2.92-7.61,3-15.59,3.8-23.46.27-2.71-.9-5.56-1.64-9.6-3.81,4-6.11,7.07-7.08,11.25-1.49,6.41-3.47,12.71-5,19.13s-3.25,12.84-3.86,19.36c-1.23,13-6.78,23.21-17.31,31.1-7.42,5.56-16,10.77-25.23,12.34a3.78,3.78,0,0,0-1.33.38,4.18,4.18,0,0,0-1.19,1.18,22.7,22.7,0,0,0-3.38,5.48.83.83,0,0,0-.07.34c0,.36.5.46.86.47Zm39-92.37c.62-1.15,1.22-2.3,1.82-3.45-2.08.37-3.37,2.64-4.9,3.9-2.07,1.69-4.14,3.4-6.2,5.1-4.06,3.34-8.13,6.68-12.28,9.91a202,202,0,0,0-30,28.57c-5,5.91-9.48,12.25-11.37,20a19,19,0,0,0,.58,10.78c1,3,2.74,6.6,5.07,8.8a3.05,3.05,0,0,0,1.05.71c1.71.56,2.5-1.93,2.88-3.1.29-.89,1.12-2.09,1.13-3a2.26,2.26,0,0,0-.31-1,7,7,0,0,1-.41-2.38c-.15-3.23-.51-6.83.43-10,3-10.13,7.74-19.5,16-26.5,7.64-6.46,15.46-12.7,23.16-19.09,1.72-1.43,3.66-2.83,4.81-4.67C827.29,1491.06,830.16,1486.12,832.84,1481.15Zm-13,95.81a14,14,0,0,1,1.2-2.29c-2.63,1.17-5.15,2.64-7.95,3.41-9.21,2.55-18.61,6-28.17,6.57a2.42,2.42,0,0,0-.85.16,2.36,2.36,0,0,0-.79.75l-2.65,3.49c-1,1.35-2.12,2.84-2.17,4.54a.63.63,0,0,0,.12.45.56.56,0,0,0,.33.15c4.23.92,9-.57,13.15-1.51a67.6,67.6,0,0,0,13-4.22,44,44,0,0,0,9.19-5.6,39.27,39.27,0,0,0,4.14-3.81,10.7,10.7,0,0,0,1.47-2Zm-11.48-26.57a9.58,9.58,0,0,0-1.48,1.9,2.74,2.74,0,0,0,2.27-.31c5.42-2.86,11.17-5.87,14.31-11.41,3.32-5.85,5.4-12.43,7.68-18.82a29.87,29.87,0,0,0,1-5.4c.25-1.55.72-3.19,0-4.71-.07-.15-.17-.31-.33-.34s-.39.17-.51.36c-1.26,1.93-3,3.47-4.15,5.46q-5.14,9.09-10.18,18.25l-5.06,9.15c-.81,1.48-1.58,3-2.45,4.45A8.7,8.7,0,0,1,808.34,1550.39ZM866,1375.69c-7.14,12.79-16.06,25-14.47,41C859,1404,865.17,1390.86,866,1375.69Zm-75.4,170.53c8.19-6,17.45-21.21,16.55-26.57C798.79,1526.37,792.31,1534,790.59,1546.22Z"/><path class="cls-2" d="M269.6,704.8c1.42,5.08,2.85,9.84,4,14.65,1.4,5.59-.65,10.17-4.87,13.74-8.88,7.52-19.06,11-30.77,9.39a43,43,0,0,0-6.62-.32c-2.56,0-4,1.49-4.49,4-2,11-9.82,17-19.08,21.26-8.61,3.93-17.92,4.11-27.18,2.6a28.6,28.6,0,0,1-14.85-6.9c-4-3.57-8.3-6.76-12.15-10.46a9.63,9.63,0,0,0-8.42-3,46.52,46.52,0,0,1-18.11-1.24c-3.78-1-7.27-2.48-10-5.46a14.78,14.78,0,0,0-4.9-3.5,16,16,0,0,1-8.11-7.94c-2.26-4.41-4.87-8.7-6.6-13.31-2.85-7.62-2.71-15.21,2.25-22.15,2.8-3.91,3-7.48-.09-11.6-2.16-2.88-3.51-6.49-4.73-9.95-2-5.66-1.86-11.45,1.76-16.41,4.28-5.84,9.12-11.22,17.36-11.1a20.67,20.67,0,0,0,3.29-.46c5.61-.82,6.77-2.06,6.81-7.82,0-4.79-.06-9.59-.2-14.38-.19-6.53,2.86-10.59,8.88-13.09,6.44-2.67,12.52-3.25,19.23-.64s13.71,4.23,20.64,6.09c3.56,1,5.09-.15,6.81-3.74,4.49-9.42,9.83-15.5,23.72-12.83,4.83.93,9.92.52,14.77,1.42,13.36,2.48,25.88,6.53,32.12,20.36,1.67,3.7,3.38,7.38,5.06,11.07,1.86,4.09,2.41,4.15,6.72,3.74a162.33,162.33,0,0,1,16.5-.68c1.86,0,3.79,1.07,5.54,1.93,3.47,1.71,6.84,3.62,10.25,5.46,11.07,6,13.1,21.45,3.84,29.92a21.35,21.35,0,0,0-4.28,6.2A45.08,45.08,0,0,1,286,690.22C280.91,695.28,275.29,699.79,269.6,704.8Zm-25.28-7.45-.61,1.41c.29.08.69.31.84.2a1.31,1.31,0,0,0,.48-.91C245,697.86,244.64,697.65,244.32,697.35Z"/><path class="cls-4" d="M269.6,704.8c1.42,5.08,2.85,9.84,4,14.65,1.4,5.59-.65,10.17-4.87,13.74-8.88,7.52-19.06,11-30.77,9.39a43,43,0,0,0-6.62-.32c-2.56,0-4,1.49-4.49,4-2,11-9.82,17-19.08,21.26-8.61,3.93-17.92,4.11-27.18,2.6a28.6,28.6,0,0,1-14.85-6.9c-4-3.57-8.3-6.76-12.15-10.46a9.63,9.63,0,0,0-8.42-3,46.52,46.52,0,0,1-18.11-1.24c-3.78-1-7.27-2.48-10-5.46a14.78,14.78,0,0,0-4.9-3.5,16,16,0,0,1-8.11-7.94c-2.26-4.41-4.87-8.7-6.6-13.31-2.85-7.62-2.71-15.21,2.25-22.15,2.8-3.91,3-7.48-.09-11.6-2.16-2.88-3.51-6.49-4.73-9.95-2-5.66-1.86-11.45,1.76-16.41,4.28-5.84,9.12-11.22,17.36-11.1a20.67,20.67,0,0,0,3.29-.46c5.61-.82,6.77-2.06,6.81-7.82,0-4.79-.06-9.59-.2-14.38-.19-6.53,2.86-10.59,8.88-13.09,6.44-2.67,12.52-3.25,19.23-.64s13.71,4.23,20.64,6.09c3.56,1,5.09-.15,6.81-3.74,4.49-9.42,9.83-15.5,23.72-12.83,4.83.93,9.92.52,14.77,1.42,13.36,2.48,25.88,6.53,32.12,20.36,1.67,3.7,3.38,7.38,5.06,11.07,1.86,4.09,2.41,4.15,6.72,3.74a162.33,162.33,0,0,1,16.5-.68c1.86,0,3.79,1.07,5.54,1.93,3.47,1.71,6.84,3.62,10.25,5.46,11.07,6,13.1,21.45,3.84,29.92a21.35,21.35,0,0,0-4.28,6.2A45.08,45.08,0,0,1,286,690.22C280.91,695.28,275.29,699.79,269.6,704.8Zm-52.21,20.76.18,1.12c4.33-.72,8.82-1,13-2.26,7.92-2.46,10.62-6.53,10.79-14.68,0-1.11,0-2.22,0-3.32.11-6.76,2.15-12.53,7.55-17.08,4.22-3.56,7.92-7.72,11.87-11.6s5.28-8.79,5.9-14-.28-6-5.31-7.08a78.69,78.69,0,0,1-10.61-2.86,81.55,81.55,0,0,1-9.42-4.43c-4.39-2.28-9.3-4-12-8.54-3-5-5.62-10.23-8.45-15.34-1.49-2.69-2.73-3.2-5.31-1.32a46.24,46.24,0,0,0-6.21,6.15c-1.86,2-3.16,5.07-5.43,6.12-7.11,3.3-14.62,5.12-22.39,1.73-4.39-1.92-8.71-4-13.23-5.6-6.16-2.13-11.62.89-14.16,6.94-1.59,3.78-1.4,7.55-1.09,11.42.26,3.23.11,6.56-2.66,8.6-3.1,2.27-5.81,5.79-10.54,4.58-5.66-1.46-9,1.4-11.45,6.16a47.24,47.24,0,0,1-3.15,4.54c-3.23,4.87-2.94,7.7,1.19,11.68a60.37,60.37,0,0,1,4.41,4.19c1.87,2.23,4,4.44,5.15,7,2.61,6,1,11.83-2.13,17.35a34.84,34.84,0,0,0-3.78,7.92c-1.18,4.47.66,6.91,5.28,7.72,3.81.67,7.68,1,11.5,1.65,10.09,1.75,19.8,4.08,26.55,13,3.24,4.29,5.84,4.26,10.63,1.6,1.6-.89,3.2-2.7,4.74-2.63,3.47.15,4.43-2,5.4-4.42a46.86,46.86,0,0,0,2-5.17c1.13-4.28,4.27-6.47,8.16-7.36C208.61,726.46,213,726.15,217.39,725.56Zm26.93-28.21-.61,1.41c.29.08.69.31.84.2a1.31,1.31,0,0,0,.48-.91C245,697.86,244.64,697.65,244.32,697.35Z"/><path class="cls-5" d="M211.3,647.1a33.34,33.34,0,0,1-3,2c-5.18,2.68-10.66,4.89-15.51,8.07-4,2.65-7.36,6.4-11,9.67a1.67,1.67,0,0,0-.58.92c-.46,5.32-3.57,9.09-7.16,12.67a6.63,6.63,0,0,0-1.71,3.41c-.91,5.44-2,10.9-2.29,16.39-.36,7.32,4.7,11.69,11.89,10.92a14.67,14.67,0,0,0,4.87-.91c9.19-4.66,18.79-8.68,26.46-15.85a31.29,31.29,0,0,0,8.27-12.93c.29-.86.84-1.85.65-2.63-.38-1.52-.85-3.58-1.95-4.19-.94-.52-3.23.25-4.24,1.19-3.86,3.61-7.45,7.52-11.14,11.33-2.18,2.24-4.14,4.54-8,3.91-1.48-.24-3.39,1.11-4.85,2.11-2.52,1.73-4.83,3.75-7.57,5.91-.62-1.24-1.31-2-1.16-2.44,1.84-5.74,3.8-11.44,5.74-17.15.18-.51.74-1,.71-1.48-.36-5.48,4-7.25,7.42-10,5.07-4,10-8.14,16.11-10.58,3.12-1.25,6-2.68,9.48-.91,1.09.56,2.83-.07,4.25-.3,5.44-.88,10.71-.57,15.52,2.37,5.7,3.5,7,9.57,5.07,17-3.72,14.14-13.17,23.62-24.53,31.68q-9,6.38-18.27,12.4c-9.41,6.13-19.8,7.53-30.77,6.07-4.61-.62-9.08-1.42-13.2-3.71-3.95-2.19-7.32-4.88-9.44-9-1.25-2.45-2.77-4.77-4.24-7.1-4.48-7.1-3.91-16.48,1.74-23.84,3.12-4.08,6.42-8,9.86-11.87,8.06-9,18.33-14.61,29.19-19.5a56.87,56.87,0,0,1,20.69-5.32,11.28,11.28,0,0,1,2.42.38Z"/><path class="cls-4" d="M193.22,736.57l-.75,2.1-.58-.22.87-2.06Z"/><path class="cls-6" d="M385.92,1902.66c-15.39-.32-35.52-10.59-47.19-14.41q-29.43-9.62-58.37-20.6-13.41-5.1-26.69-10.47c-3.12-1.26-18.83-4.57-19.37-6.91-.92-3.92,30.72-32.24,34.81-36.65,5.23-5.63,11.31-10.48,16.42-16.2,8.64-9.67,16.74-19.82,25.21-29.64,11.4-13.23,20.82-27.84,29.7-42.8,7.12-12,13.77-24.29,20.76-36.38,3.35-5.79,7-11.4,10.54-17.07,1.92-3,5-4.74,8.34-4.12a31.46,31.46,0,0,1,9.39,3.79c11.68,6.55,20.46,16.67,30.44,25.3,8.62,7.46,16.92,15.31,25.76,22.51a240.67,240.67,0,0,0,33.25,23.25c6.93,3.92,13.66,8.21,20.47,12.35a14.2,14.2,0,0,1,2.46,1.71c4.5,4.35,5.54,8.16,1.62,12.52-3.2,3.56-5.23,8.15-8.19,12-11.1,14.27-22.2,28.55-33.64,42.53-6.67,8.15-14.15,15.62-21,23.64-4.79,5.63-9.22,11.57-13.58,17.54q-10,13.63-19.59,27.52c-2.53,3.64-6,5.85-9.74,8A22.22,22.22,0,0,1,385.92,1902.66Z"/><path class="cls-4" d="M501.85,1756.32a14.2,14.2,0,0,0-2.46-1.71c-6.81-4.14-13.54-8.43-20.47-12.35A240.67,240.67,0,0,1,445.67,1719c-8.84-7.2-17.14-15-25.76-22.51-10-8.63-18.76-18.75-30.44-25.3a31.46,31.46,0,0,0-9.39-3.79c-3.36-.62-6.42,1.07-8.34,4.12-3.55,5.67-7.19,11.28-10.54,17.07-7,12.09-13.64,24.38-20.76,36.38-8.88,15-18.3,29.57-29.7,42.8-8.47,9.82-16.57,20-25.21,29.64-5.11,5.73-11.2,10.58-16.43,16.21-11,11.81-21.34,24.15-33.55,34.74-.94.82-1.34,1.62-1.22,2.26a10.46,10.46,0,0,0-3,7.53,11.29,11.29,0,0,0,11.06,11.07c11,.39,22.43,3.17,34.2,7.11s23.27,8.73,35,12.85A370.83,370.83,0,0,0,350.05,1900c14.15,3.32,28.37,7.44,43,5.07,3.38-.54,6-3.34,7.32-6.62a23.67,23.67,0,0,0,7.14-6.44q9.66-13.86,19.59-27.52c4.36-6,8.79-11.91,13.58-17.54,6.83-8,14.31-15.49,21-23.64,11.44-14,22.54-28.26,33.64-42.53,3-3.81,5-8.4,8.19-12C507.39,1764.48,506.35,1760.67,501.85,1756.32Zm-34.41,13.16c-3.16,4.39-6.45,8.68-9.59,13.08a28.71,28.71,0,0,0-1.91,3.8,29.31,29.31,0,0,1-2.3,4.46q-7.67,10.29-15.52,20.42-4.85,6.24-10.05,12.21a18.93,18.93,0,0,1-3.39,2.7c-2.26,3.19-3.88,5.82-5.84,8.15-1.38,1.64-3.36,2.76-4.82,4.35a59.86,59.86,0,0,0-4.12,5.45c-2.51,3.46-5.09,6.88-7.48,10.42-5.35,7.89-12.2,14.75-16,23.67l-.87,3.39-.75-.13-.11-1.54q-1,2-2.06,4c-1.33,0-2.67-.12-4-.28l-1-.16c-.86-.15-1.72-.31-2.57-.48-1.71-.33-3.41-.7-5.11-1.08q-9.54-2.13-19.06-4.41a343.66,343.66,0,0,1-36.78-10.84c-19.23-7-38.11-15.05-58.26-18.22,1-.73,2.07-1.43,3.07-2.2,6.54-5,13.4-9.51,19.09-15.69,6.84-7.44,14.34-14.29,21.87-21,6.68-6,13.92-11.32,19.86-18.12,9.09-10.41,18.64-20.43,27.37-31.12a243.72,243.72,0,0,0,16.94-24.1c6.32-10,12-20.35,18-30.52,2.45-4.14,5.06-8.18,7.84-12.67,1.56,1.08,2.76,1.76,3.8,2.64,14.32,12.21,28.35,24.77,43,36.53,8.18,6.57,17.39,11.86,26.19,17.66,3,2,6.15,3.61,9.12,5.57,2.58,1.7,2.95,2.7,1.43,5.32A104.35,104.35,0,0,1,467.44,1769.48Zm6.77,13.94c-.12-.21-.33-.41-.33-.61s.23-.36.37-.53c.12.2.33.4.33.6S474.34,1783.24,474.21,1783.42Z"/><path class="cls-4" d="M474.21,1783.42c.13-.18.37-.36.37-.54s-.21-.4-.33-.6c-.14.17-.37.35-.37.53S474.09,1783.21,474.21,1783.42Z"/></g></g></svg>