<svg version="1.1" xmlns="http://www.w3.org/2000/svg" xmlns:xlink="http://www.w3.org/1999/xlink" x="0px" y="0px"
	 viewBox="0 0 1600 1600" style="enable-background:new 0 0 1600 1600;" xml:space="preserve">
<style type="text/css">
	.st0{fill:#FFFFFF;}
	.st1{fill:#C6C6C5;}
	.st2{fill:#FFECB6;}
	.st3{fill:#093D41;}
	.st4{fill:#E54033;}
	.st5{fill:#EADBAD;}
	.st6{fill:#71C4BA;}
	.st7{fill:none;}
	.st8{fill:#78B542;}
	.st9{fill:#C6C6C6;}
	.st10{fill:#E0E0DE;}
	.st11{fill:#7F7F7F;}
	.st12{fill:#2D2D2D;}
	.st13{fill:#919191;}
	.st14{fill:#383838;}
	.st15{fill:#D8D8D8;}
	.st16{fill:#653C16;}
	.st17{fill:#F79E1E;}
	.st18{fill:none;stroke:#00AEEF;stroke-miterlimit:10;}
	.st19{fill:#E72527;}
	.st20{fill:#E12327;}
	.st21{fill:#EDB7B6;}
	.st22{fill:#1C4650;}
	.st23{fill:#122D25;}
	.st24{opacity:0.5;fill:#653C16;}
	.st25{fill:url(#SVGID_1_);}
	.st26{fill:#89C544;}
	.st27{fill:#FFE0B6;}
	.st28{fill:#BABABA;}
	.st29{fill:#EA7750;}
	.st30{opacity:0.3;fill:#E72527;}
	.st31{opacity:0.3;fill:#653C16;}
	.st32{fill:#2A5861;}
	.st33{fill:#F26F79;}
	.st34{fill:#EAB557;}
	.st35{fill:#80C48D;}
	.st36{fill:#264720;}
	.st37{fill:#52AA82;}
	.st38{opacity:0.3;}
	.st39{fill:#895B24;}
	.st40{filter:url(#Adobe_OpacityMaskFilter);}
	.st41{mask:url(#SVGID_2_);}
	.st42{opacity:0.3;fill:#895B24;}
	.st43{fill:#EE7928;}
	.st44{fill:#CAAB82;}
	.st45{fill:#E5E5E5;}
	.st46{fill:#F69FA1;}
	.st47{clip-path:url(#SVGID_4_);fill:#FCB017;}
	.st48{fill:#727579;}
	.st49{fill:#1D2036;}
	.st50{fill:#C2C4C4;}
	.st51{fill:#6C7D7F;}
	.st52{fill:#E9D1B3;}
	.st53{fill:#B8D3C7;}
	.st54{fill:#ABB2B2;}
	.st55{fill:#EA3056;}
	.st56{fill:#478689;}
	.st57{fill:#E2C588;}
	.st58{fill:#757576;}
</style>
<g id="BG">
</g>
<g id="Noodles">
	<g>
		<path class="st7" d="M839.3,1586.9c-0.1-6.7-0.2-13.4-0.2-20.1c0-3.2,0.1-6.3,0-9.5c-0.1-3.5-0.4-6.9-0.4-10.4
			c-0.1-5.7,0-11.5,0.1-17.2c0-2.8,0-5.6,0-8.4c0.1-4.8,0.3-9.6,0.5-14.4c0.1-3.4,0.4-6.8,0.4-10.2c0-2.8-0.3-5.6-0.1-8.4
			c0.4-5.7,1.2-11.3,0.5-17c-0.2-1.5,0.4-3.2,0.6-4.8c0.2-1.6,0.5-3.2,0.5-4.7c0.1-3.1,0-6.1,0.1-9.2c1.4-56.3,0.5-113.2,1.5-169.8
			c0.2-12.5,0.5-24.9,1.3-37.4c0.8-13,2.3-25.9,4.9-38.7c1-5.2,1.6-10.5,2.6-15.8c0.7-3.7,1-7.5,1.9-11.1c1.1-4.4,2.8-8.7,4.1-13
			c0.9-2.9,2.5-5.7,1.8-8.9c2.9-7.9,5.7-15.9,8.6-23.8c2.1-5.6,4.2-11.3,6.5-16.8c3.1-7.1,6.4-14.2,9.8-21.2
			c25.2-51.2,62-103.8,107-139.1c31.6-24.8,60.9-49.7,94-72.1c15.1-10.2,30.1-21.6,39.3-37.4c17.7-30.6,8.5-71.1-13-99.3
			c-64.4-84.6-178.9-99.6-277.5-93.3c-7.9,0.5-15.8,1.5-23.6,2.3c-5.2,0.5-10.4,1-15.6,1.6c-10.5,1.1-21,2.3-31.6,3.5
			c-2.8,0.3-5.7,0.7-8.5,1c6.2,0.5,12.4,0.3,18.5,0.5c7.1,0.2,14.2,0.9,21.3,1.2c70.2,2.9,142.2,24.9,194.5,73.3
			c13.4,12.4,25.7,26.5,33.3,43.1c19,41-5.4,86.1-30.7,118.3c-30.2,38.5-75.3,62.2-108.9,97.4c-26,27.3-35.9,61.5-45.4,96.9
			c-1.4,5.2-2.7,10.4-3.7,15.6c-1.6,8.6-2.8,17.2-4.1,25.8c-0.9,6.2-2.6,12.2-3.3,18.5c-1.6,15.4-6.9,29.6-7.8,44.8
			c-1.6,28.5-3.1,56.4-4.2,84.8c-0.1,2.4-0.1,4.8-0.1,7.2c0,9.8,0,19.6,0,29.4c0,5.6-0.1,11.3-0.2,16.9c-0.1,10.7-0.2,21.5-0.5,32.2
			c-0.2,7-0.6,14-0.9,21c-0.4,12.6-0.7,25.2-1.1,37.8c-0.1,2.3-0.1,4.6-0.1,6.9c-0.2,5.6-0.3,11.3-0.5,16.9
			c-0.3,6.5-0.8,13.1-0.9,19.6c-0.1,6,0.3,12.1,0.1,18.1c-0.3,8.3-1,16.6-1.3,24.9c-0.4,10.2-0.6,20.4-0.7,30.6
			c-0.1,6.3,0,12.6,0.2,18.9c0.1,4.4,0.5,8.7,0.7,13.1c0.2,5.6-0.9,11.1,0.2,16.8c0.4,2.2,0.5,4.4,0.6,6.7h29.6
			C839.5,1596,839.4,1591.4,839.3,1586.9z"/>
		<path class="st7" d="M812.8,6c0.9,5.9,1.3,11.7,1.2,17.6c0,5.9-0.3,11.8-0.2,17.7c0.1,7.8,0.4,15.6,0.6,23.4c0,1.6,0,3.2,0,4.8
			c-1,23.3-1.9,46.5-3,69.8c-0.4,7.6-1,15.3-1.9,22.9c-1,9.1-2.1,18.1-3.5,27.1c-1.4,8.6-3.2,17.2-4.8,25.7
			c-0.8,4.2-1.2,8.5-2.5,12.6c-2.9,9.5-6.3,18.9-9.4,28.4c-1.9,5.9-4.7,11.4-7.8,16.9c-17.8,31.3-48,58.8-73.8,85
			c-29.1,29.6-60.2,57.6-94.3,82.2c-18.3,13.2-37.4,25.5-54.9,39.7c-16.7,13.6-31.8,28.9-46.8,44.1c-30.9,31.3-61.3,73.1-38.5,116.7
			c7.7,14.7,20,27.2,34.1,37c32.7,22.7,67.1,24.5,105.9,26.4c5.6,0.3,11.3,0.2,16.9,0.2c45.1-0.4,91.1,1.7,136.2,5.6
			c58,5.1,125.2,22.4,163.7,67.2c18.3,21.3,25.1,53.6,8,75.5c-20.4,26.1-48.7,45.2-76.3,64.3c-8.3,5.7-16.1,11.9-24.2,18
			c-0.8,0.6-1.2,1.5-1.9,2.2c-1.4,1.3-2.9,2.6-4.3,3.9c-1.2,1.1-2.5,2.2-3.6,3.4c-4.7,5.7-9.5,11.3-13.9,17.3
			c-3.4,4.6-6.3,9.6-9.3,14.4c-3.3,5.3-6.8,10.5-9.8,15.9c-2.8,5.1-5.1,10.4-7.6,15.6c-2,4.3-4,8.6-5.9,12.9c-4,8.7-6,17.9-8.2,27
			c-1.9,8-3.6,16-5,24.1c-2.8,15.9-5.6,31.8-6.8,47.9c-0.6,7.5-1.8,15-2.1,22.5c-0.3,6.8-1.6,13.6-0.7,20.4c0.4,2.6-0.6,5.3-0.7,8
			c-0.4,9.1-0.6,18.2-0.9,27.3c-0.1,3.7-0.7,7.5-0.5,11.2c0.3,8.6-1.3,17.1-2,25.6c-0.5,6.3-1.5,12.6-1.4,18.9
			c0.1,4.8-0.9,9.3-1.4,14c-0.1,1.2-0.4,2.4-0.3,3.6c0.4,6.2-0.4,12.3-1.8,18.3c-1.1,4.5-0.7,9.4-1.1,14c-0.3,4.1-0.9,8.3-1.2,12.4
			c-0.7,9.2-1.3,18.4-1.9,27.6c-0.8,11.2-1.5,22.5-2.4,33.7c-0.8,9.8-1.4,19.5-2.7,29.2c-1.6,12.3-1.3,24.7-1.7,37
			c-0.1,5-0.1,9.9-0.1,14.9c0,1,0.4,2.1,0.6,3.1c0.1,0.9,0.5,1.9,0.3,2.8c-1.4,11,0.2,22,0.4,32.9c0.1,6.3,0.2,12.6,0.4,18.9
			c0.3,11.2,0.6,22.3,0.8,33.5c0.1,3.4,0,6.7-0.1,10.1c-0.3,8.5-0.6,16.9-0.8,25.4c-0.1,2.3,0.4,4.5,0.4,6.8c0,3,0,6,0,9h45.4
			c-0.7-7-1.1-14-1.5-21c-0.6-10.8-1.8-21.6-1.9-32.4c-0.2-14.6,0.3-29.2,0.4-43.8c0.1-10.1,0.1-20.3,0.2-30.4
			c0.1-9.1,0.4-18.2,0.6-27.4c0.2-9.1,0.4-18.2,0.8-27.3c0.4-9.8,1-19.5,1.3-29.3c0.4-14.8,0.6-29.6,0.8-44.4
			c0.2-14.7,0.1-29.3,0.4-44c0.3-13,0.7-26.1,1.5-39.1c1-16.9,2.3-33.8,3.6-50.7c0.8-11,1.8-22,2.9-33c1-9.9,2.3-19.7,3.6-29.6
			c0.7-5.2,1.7-10.3,2.6-15.4c2.1-12,3.7-24.2,6.5-36c5.6-23.6,11-49.4,23-70.6c12.4-22,29.4-41,47.3-58.5
			c47.2-46.3,107.4-89.1,106.9-162.3c-0.2-26.8-12.8-50-33.6-66.8c-12.9-10.4-26.3-19.9-41.9-25.9c-16.5-6.3-33-12.7-49.6-18.9
			c-15.3-5.8-31.1-9.3-47.4-10.2c-9.9-0.6-19.8-1-29.8-1.3c-13.3-0.3-26.5-0.4-39.8-0.5c-13.7-0.1-27.4-0.1-41.1-0.1
			c-11.5,0-23.1,0.2-34.6-0.1c-16.4-0.4-31.1-3.2-46.9-6.3c-17.7-3.6-35.1-3.3-52-11.2c-17-7.9-31.7-23.2-33.6-41.8
			c-2.3-23.3,15.1-43.4,31.7-59.9c68.7-68.2,143.5-128,205-203.5c6.9-8.4,12.9-17.5,18.3-27c5.9-10.2,11.5-20.6,17.2-31
			c7.7-14,15.5-27.9,23.2-41.9c4.6-8.4,8.5-17.1,11.2-26.3c3.3-10.8,6.5-21.6,9.2-32.5c1.6-6.5,2.3-13.3,2.9-19.9
			c0.9-9.1,1.6-18.2,1.8-27.4c0.2-7.8-0.5-15.6-0.7-23.3c-0.2-9.7-0.3-19.3-0.5-29c-0.2-8.2-0.2-16.4-0.7-24.6
			c-0.5-8.3-1.7-16.6-2.5-24.8c-0.4-4.9-0.4-9.9-0.8-14.9c-0.6-8-1.3-16.1-2-24.1c-0.3-4.2-0.6-8.3-1-12.5h-34.2
			C812.6,1.8,812.5,4,812.8,6z"/>
		<path class="st7" d="M866.1,5.9c0.9,12.7,2,25.4,3,38.1c0.6,7.5,1.8,15,1.8,22.5c0,8.6,1.4,17.1,2.2,25.6
			c0.7,7.6,1.2,15.2,1.4,22.9c0.3,10.2,0,20.4,0.2,30.6c0.2,11.7,0.9,23.4,0.8,35c-0.1,11.8-1,23.6-3.5,35.2c-1.3,6-2.5,12-3.9,18
			c-0.8,3.5-1.8,7-2.8,10.5c-1.8,5.8-3.5,11.6-5.5,17.2c-1.3,3.6-3,7.1-4.7,10.6c-1.6,3.3-3.4,6.4-4.9,9.7
			c-2.5,5.6-4.9,11.2-8.3,16.4c-4.4,6.7-8.1,13.8-12.1,20.8c-4,7-7.9,14-11.7,21.1c-1.9,3.4-3.2,7.1-5.4,10.3
			c-4,6.2-6.5,13.2-11.2,19c-2.9,3.5-4.9,7.7-7.7,11.2c-23.4,30-54,59.9-83.1,84.7c-51.1,43.6-128.1,92.4-124.9,169.2
			c0.2,5,0.9,10.2,3.7,14.3c8,11.5,33.7,13.2,46.2,13.5c11.4,0.3,22.8,0.9,34.2,1.4c2.8,0.1,5.6-0.1,8.4,0
			c5.1,0.1,10.2,0.4,15.3,0.4c8,0.1,16.1,0,24.1-0.1c3.5,0,7-0.3,10.4-0.4c-1.5-0.9-2.9-1.1-4.3-1.3c-8.7-1.3-17.4-3.1-25.1-7.5
			c-5.4-3.1-10.8-6.2-15.7-10.2c-9.5-7.6-16.1-17.5-20.8-28.3c-18.6-43.2,22.5-80.1,50-106.3c44.5-42.5,93.1-82.3,128.1-132.9
			c6.3-9,12.5-18.1,18.7-27.2c8.8-12.8,15.9-26.4,21.5-40.9c5.4-14,10.6-28.1,14.2-42.8c1.3-5.5,2.8-10.9,3.7-16.5
			c1.5-9.5,2.7-19.1,3.8-28.7c1.6-13.5,3.3-27,4.6-40.5c1.3-14.1,2-28.2,2.9-42.3c0.5-7.8,0.7-15.6,0.8-23.4
			c0.1-8.2-0.1-16.4-0.4-24.6c-0.2-7.4-0.8-14.8-1.2-22.1c-0.5-9.5-0.9-19.1-1.5-28.6c-0.4-7.4-1.2-14.7-1.7-22.1
			c-0.4-6-0.8-12.1-1.2-18.1h-38.8C865.9,1.6,866,3.8,866.1,5.9z M745.6,477.4c-0.5,0.3-1.1,0.5-1.8,0.9c0.9-2.8,0.9-2.8,2.6-1.5
			C746.1,477,745.9,477.2,745.6,477.4z"/>
		<path class="st5" d="M1160.5,766.1c-15.2-33.1-33.5-55.9-65.6-74.3c-78.8-45.1-164.8-58.8-254.6-53.8c-13.1,0.7-26.3,1.9-39.4,3.1
			c-14.4,1.4-28.8,3.1-43.2,4.6c-7,0.7-14.1,1.7-21.2,1.8c-8.6,0.1-17.2-0.1-25.7-1c-8.2-0.9-14.2-6.2-19-12.6
			c-33.6-45.5,14.6-91,47.5-119.1c38.7-33.1,82-57.2,117.2-94.5c34.5-36.6,62.6-80.9,72.8-130.6c4.5-21.9,5.5-44.4,6.4-66.7
			c1.6-26.7,2.7-53.7,3.3-80.4c0.5-19.2-5-38.1-5.9-57.6c-0.3-6.1-0.9-65.5-5.6-85.4h-23c0.4,6,0.8,12.1,1.2,18.1
			c0.5,7.4,1.2,14.7,1.7,22.1c0.6,9.5,1,19.1,1.5,28.6c0.4,7.4,0.9,14.8,1.2,22.1c0.3,8.2,0.4,16.4,0.4,24.6
			c-0.1,7.8-0.3,15.6-0.8,23.4c-0.8,14.1-1.6,28.2-2.9,42.3c-1.2,13.5-2.9,27-4.6,40.5c-1.1,9.6-2.3,19.2-3.8,28.7
			c-0.9,5.6-2.3,11-3.7,16.5c-3.5,14.6-8.7,28.8-14.2,42.8c-5.6,14.5-12.7,28.1-21.5,40.9c-6.3,9.1-12.5,18.1-18.7,27.2
			c-35,50.6-83.6,90.4-128.1,132.9c-27.5,26.2-68.6,63.2-50,106.3c4.7,10.9,11.2,20.7,20.8,28.3c4.9,3.9,10.3,7.1,15.7,10.2
			c7.7,4.4,16.4,6.2,25.1,7.5c1.4,0.2,2.9,0.4,4.3,1.3c-3.5,0.1-7,0.4-10.4,0.4c-8,0.1-16.1,0.1-24.1,0.1c-5.1,0-10.2-0.3-15.3-0.4
			c-2.8-0.1-5.6,0.1-8.4,0c-11.4-0.4-22.8-1.1-34.2-1.4c-12.5-0.4-38.2-2-46.2-13.5c-2.8-4.1-3.5-9.3-3.7-14.3
			c-3.2-76.9,73.8-125.7,124.9-169.2c29.1-24.8,59.7-54.7,83.1-84.7c2.8-3.6,4.8-7.7,7.7-11.2c4.7-5.8,7.2-12.8,11.2-19
			c2.1-3.2,3.5-6.9,5.4-10.3c3.9-7.1,7.8-14.1,11.7-21.1c4-7,7.7-14.1,12.1-20.8c3.4-5.2,5.8-10.8,8.3-16.4c1.5-3.3,3.3-6.4,4.9-9.7
			c1.7-3.5,3.4-7,4.7-10.6c2-5.7,3.8-11.5,5.5-17.2c1.1-3.5,2-7,2.8-10.5c1.4-6,2.6-12,3.9-18c2.5-11.6,3.4-23.4,3.5-35.2
			c0.1-11.7-0.6-23.4-0.8-35c-0.2-10.2,0.1-20.4-0.2-30.6c-0.2-7.6-0.7-15.3-1.4-22.9c-0.8-8.5-2.2-17-2.2-25.6
			c0-7.5-1.2-15-1.8-22.5c-1-12.7-2.1-25.4-3-38.1c-0.2-2.1-0.3-4.3-0.4-6.4h-18.9c0.3,4.2,0.6,8.3,1,12.5c0.6,8,1.4,16.1,2,24.1
			c0.4,5,0.4,9.9,0.8,14.9c0.7,8.3,1.9,16.5,2.5,24.8c0.5,8.2,0.5,16.4,0.7,24.6c0.2,9.7,0.2,19.4,0.5,29c0.2,7.8,0.9,15.6,0.7,23.3
			c-0.2,9.1-0.9,18.3-1.8,27.4c-0.6,6.7-1.3,13.4-2.9,19.9c-2.7,10.9-5.9,21.8-9.2,32.5c-2.8,9.2-6.7,17.9-11.2,26.3
			c-7.6,14-15.4,27.9-23.2,41.9c-5.7,10.3-11.3,20.7-17.2,31c-5.4,9.4-11.4,18.5-18.3,27c-61.5,75.5-136.3,135.3-205,203.5
			c-16.6,16.5-34.1,36.6-31.7,59.9c1.9,18.6,16.6,33.9,33.6,41.8c16.8,7.8,34.2,7.6,52,11.2c15.8,3.2,30.5,6,46.9,6.3
			c11.5,0.3,23.1,0.1,34.6,0.1c13.7,0,27.4,0,41.1,0.1c13.3,0.1,26.5,0.2,39.8,0.5c9.9,0.2,19.9,0.7,29.8,1.3
			c16.3,0.9,32.1,4.4,47.4,10.2c16.5,6.3,33.1,12.6,49.6,18.9c15.6,6,29,15.5,41.9,25.9c20.9,16.8,33.5,40,33.6,66.8
			c0.5,73.2-59.7,116-106.9,162.3c-17.9,17.6-34.9,36.6-47.3,58.5c-12,21.2-17.4,46.9-23,70.6c-2.8,11.9-4.4,24-6.5,36
			c-0.9,5.1-1.9,10.2-2.6,15.4c-1.3,9.8-2.6,19.7-3.6,29.6c-1.1,11-2,22-2.9,33c-1.3,16.9-2.6,33.8-3.6,50.7
			c-0.8,13-1.2,26.1-1.5,39.1c-0.3,14.6-0.2,29.3-0.4,44c-0.2,14.8-0.4,29.6-0.8,44.4c-0.3,9.8-0.9,19.6-1.3,29.3
			c-0.3,9.1-0.5,18.2-0.8,27.3c-0.2,9.1-0.5,18.2-0.6,27.4c-0.1,10.1-0.1,20.3-0.2,30.4c-0.2,14.6-0.7,29.2-0.4,43.8
			c0.2,10.8,1.3,21.6,1.9,32.4c0.4,7,0.8,14,1.5,21H810c-0.1-2.2-0.2-4.5-0.6-6.7c-1.1-5.6-0.1-11.2-0.2-16.8
			c-0.1-4.4-0.6-8.7-0.7-13.1c-0.2-6.3-0.3-12.6-0.2-18.9c0.1-10.2,0.3-20.4,0.7-30.6c0.3-8.3,1-16.6,1.3-24.9
			c0.2-6-0.2-12.1-0.1-18.1c0.1-6.5,0.6-13.1,0.9-19.6c0.2-5.6,0.3-11.3,0.5-16.9c0.1-2.3,0.1-4.6,0.1-6.9
			c0.4-12.6,0.7-25.2,1.1-37.8c0.2-7,0.7-14,0.9-21c0.2-10.7,0.3-21.5,0.5-32.2c0.1-5.6,0.2-11.3,0.2-16.9c0-9.8,0-19.6,0-29.4
			c0-2.4,0-4.8,0.1-7.2c1.1-28.4,2.5-56.3,4.2-84.8c0.9-15.3,6.1-29.5,7.8-44.8c0.7-6.3,2.4-12.3,3.3-18.5
			c1.3-8.6,2.6-17.2,4.1-25.8c1-5.3,2.3-10.5,3.7-15.6c9.5-35.5,19.4-69.7,45.4-96.9c33.5-35.2,78.7-58.9,108.9-97.4
			c25.3-32.2,49.6-77.2,30.7-118.3c-7.7-16.6-19.9-30.7-33.3-43.1C936.8,690,864.9,668,794.7,665.1c-7.1-0.3-14.2-1-21.3-1.2
			c-6.1-0.2-12.3,0.1-18.5-0.5c2.8-0.3,5.7-0.7,8.5-1c10.5-1.2,21-2.3,31.6-3.5c5.2-0.6,10.4-1.1,15.6-1.6
			c7.9-0.8,15.7-1.8,23.6-2.3c98.5-6.4,213.1,8.7,277.5,93.3c21.4,28.2,30.7,68.6,13,99.3c-9.1,15.8-24.2,27.2-39.3,37.4
			c-33.1,22.4-62.4,47.3-94,72.1c-45,35.3-81.8,87.9-107,139.1c-3.4,7-6.7,14-9.8,21.2c-2.4,5.5-4.5,11.2-6.5,16.8
			c-2.9,7.9-5.7,15.9-8.6,23.8c0.7,3.2-0.9,6-1.8,8.9c-1.3,4.4-3,8.6-4.1,13c-0.9,3.6-1.2,7.4-1.9,11.1c-1,5.2-1.6,10.6-2.6,15.8
			c-2.6,12.8-4,25.7-4.9,38.7c-0.8,12.4-1.1,24.9-1.3,37.4c-1,56.6-0.1,113.5-1.5,169.8c-0.1,3.1,0,6.1-0.1,9.2
			c0,1.6-0.3,3.2-0.5,4.7c-0.2,1.6-0.7,3.2-0.6,4.8c0.7,5.7-0.1,11.3-0.5,17c-0.2,2.8,0.2,5.6,0.1,8.4c-0.1,3.4-0.3,6.8-0.4,10.2
			c-0.2,4.8-0.4,9.6-0.5,14.4c-0.1,2.8,0,5.6,0,8.4c0,5.7-0.1,11.5-0.1,17.2c0,3.5,0.3,6.9,0.4,10.4c0.1,3.2-0.1,6.3,0,9.5
			c0.1,6.7,0.1,13.4,0.2,20.1c0.1,4.5,0.2,9.1,0.4,13.6h24.7c-0.4-2.5-0.3-5,0.1-7.6c0.6-4.6,0.1-9.4,0.2-14.1
			c0.1-5.6,0.2-11.2,0.4-16.8c0.1-2.1,0.3-4.3,0.3-6.4c0-3.9-0.8-7.8,0.8-11.5c0.2-0.4,0.1-1.1-0.1-1.6c-1.5-3.7-1-7.3-0.2-11
			c0.1-0.5,0.3-1.1,0.2-1.6c-1.4-6.7-0.6-13.3,0.7-19.9c0.1-0.3,0.2-0.6,0.1-0.8c-2.2-5.4,0.9-10.5,0.7-15.8
			c-0.2-5.4,0.3-10.7,0.5-16.1c0.1-2.1,0.6-4.2,0.9-6.4c0.2-1.2,0.3-2.4,0.4-3.6c0.1-5.6,0.1-11.3,0.3-16.9c0.3-9.7,0.7-19.3,0.9-29
			c0.2-8.3,0.2-16.6,0.4-25c0.2-8.8,0.5-17.7,0.5-26.5c0-10.3-0.4-20.7-0.4-31c0-7-0.8-13.9,0.1-20.9c0.5-3.4-0.1-7-0.1-10.4
			c-0.1-9.3-0.3-18.5-0.3-27.8c0-6-0.2-12.1,0.3-18c4.8-60.3,10.6-119.2,42-173c23.5-40.4,54.3-79.9,91.5-108.4
			c25.1-19.2,51.6-34.6,79.5-49.5c26.1-13.9,53-29.1,70.1-54.1C1175.7,844.7,1176.6,801.2,1160.5,766.1z"/>
		<path class="st5" d="M740.2,1591.5c0-2.3-0.5-4.6-0.4-6.8c0.2-8.5,0.6-16.9,0.8-25.4c0.1-3.4,0.2-6.7,0.1-10.1
			c-0.2-11.2-0.5-22.3-0.8-33.5c-0.1-6.3-0.3-12.6-0.4-18.9c-0.2-11-1.8-22-0.4-32.9c0.1-0.9-0.2-1.9-0.3-2.8
			c-0.2-1.1-0.6-2.1-0.6-3.1c0-5,0-9.9,0.1-14.9c0.4-12.4,0.1-24.7,1.7-37c1.3-9.7,1.9-19.5,2.7-29.2c0.9-11.2,1.6-22.5,2.4-33.7
			c0.6-9.2,1.2-18.4,1.9-27.6c0.3-4.2,0.8-8.3,1.2-12.4c0.4-4.7,0-9.5,1.1-14c1.5-6.1,2.3-12.1,1.8-18.3c-0.1-1.2,0.2-2.4,0.3-3.6
			c0.5-4.7,1.5-9.2,1.4-14c-0.2-6.3,0.9-12.6,1.4-18.9c0.7-8.5,2.3-17,2-25.6c-0.1-3.7,0.4-7.5,0.5-11.2c0.3-9.1,0.5-18.2,0.9-27.3
			c0.1-2.7,1.1-5.4,0.7-8c-1-6.9,0.3-13.6,0.7-20.4c0.4-7.5,1.6-15,2.1-22.5c1.2-16.1,4-32,6.8-47.9c1.4-8.1,3.1-16.1,5-24.1
			c2.2-9.1,4.2-18.3,8.2-27c2-4.3,3.9-8.6,5.9-12.9c2.5-5.2,4.8-10.6,7.6-15.6c3-5.4,6.5-10.6,9.8-15.9c3.1-4.8,5.9-9.8,9.3-14.4
			c4.4-5.9,9.2-11.6,13.9-17.3c1-1.3,2.3-2.3,3.6-3.4c1.4-1.3,2.9-2.5,4.3-3.9c0.7-0.7,1.1-1.6,1.9-2.2c8-6,15.9-12.3,24.2-18
			c27.6-19.1,55.9-38.1,76.3-64.3c17.1-21.9,10.3-54.2-8-75.5c-38.5-44.8-105.6-62.1-163.7-67.2c-45.2-3.9-91.1-6-136.2-5.6
			c-5.6,0-11.3,0.1-16.9-0.2c-38.7-1.9-73.2-3.7-105.9-26.4c-14.1-9.8-26.4-22.3-34.1-37c-22.7-43.6,7.7-85.4,38.5-116.7
			c15-15.2,30.1-30.5,46.8-44.1c17.4-14.2,36.6-26.4,54.9-39.7c34.1-24.6,65.1-52.6,94.3-82.2c25.8-26.2,56.1-53.7,73.8-85
			c3.1-5.5,5.9-11,7.8-16.9c3.1-9.5,6.5-18.9,9.4-28.4c1.3-4.1,1.7-8.4,2.5-12.6c1.6-8.6,3.5-17.1,4.8-25.7c1.4-9,2.5-18.1,3.5-27.1
			c0.8-7.6,1.5-15.3,1.9-22.9c1.1-23.2,2-46.5,3-69.8c0.1-1.6,0.1-3.2,0-4.8c-0.2-7.8-0.5-15.6-0.6-23.4c-0.1-5.9,0.2-11.8,0.2-17.7
			c0-5.9-0.4-11.7-1.2-17.6c-0.3-2-0.2-4.2-0.1-6.5h-39.5c3.2,63.4,5.9,111.7,1.1,176.2c-1.7,22.7-11.6,63.4-20.7,84.2
			c-5.1,11.7-12.4,22.2-19.9,32.5c-28,38.1-59.9,72.6-97.6,101.1c-58,43.8-125.5,71.4-174,127.1c-13.3,15.3-25.3,32.2-30.9,51.6
			c-12.5,43.3,21.7,90.4,55.1,115c23.6,17.4,53.4,24.6,82.5,28.8c27.5,3.9,54.1,8.6,81.8,8.4c5.5,0,11-0.1,16.4-0.1
			c5,0,10,0.1,15.1,0.3c3.9,0.2,7.7,0.9,11.5-0.6c1-0.4,2.3-0.1,3.4,0c4.9,0.2,9.8,0.6,14.7,0.5c6.3-0.2,12.5-1,18.7-1.2
			c7.6-0.2,15.3,0.1,22.9,0c2.8,0,5.7-0.3,8.5-0.3c4.6,0,9.1,0,13.7,0.4c33.1,2.6,52.3,9.5,82,23.7c17.9,8.6,36.1,17.4,49.5,31.3
			c13.4,13.9,21,34.3,13.8,51.5c-9.6,22.7-34,35.7-54.5,48.1c-38.4,23.2-75.8,52.4-102.9,88.7c-38.7,51.9-50,118.7-57.9,182.9
			c-18.4,149.4-24.1,300.4-17.2,450.7h52.1C740.2,1597.5,740.2,1594.5,740.2,1591.5z M826.3,910.8c0.1-0.1,0.7,0.6,1,0.9
			c-0.3,0.5-0.6,1-0.9,1.4C825.5,912.4,825,911.6,826.3,910.8z"/>
		<path class="st5" d="M826.4,913.1c0.3-0.5,0.6-1,0.9-1.4c-0.4-0.3-0.9-1-1-0.9C825,911.6,825.5,912.4,826.4,913.1z"/>
		<path class="st5" d="M743.8,478.3c0.8-0.4,1.3-0.7,1.8-0.9c0.3-0.2,0.5-0.4,0.8-0.6C744.7,475.6,744.7,475.6,743.8,478.3z"/>
	</g>
</g>
<g id="Text__x2F__Quiz_Questions">
</g>
</svg>
