<svg version="1.1" xmlns="http://www.w3.org/2000/svg" xmlns:xlink="http://www.w3.org/1999/xlink" x="0px" y="0px"
	 viewBox="0 0 1600 1600" style="enable-background:new 0 0 1600 1600;" xml:space="preserve">
<style type="text/css">
	.st0{fill:#FFFFFF;}
	.st1{fill:#C6C6C5;}
	.st2{fill:#FFECB6;}
	.st3{fill:#093D41;}
	.st4{fill:#E54033;}
	.st5{fill:#EADBAD;}
	.st6{fill:#71C4BA;}
	.st7{fill:none;}
	.st8{fill:#78B542;}
	.st9{fill:#C6C6C6;}
	.st10{fill:#E0E0DE;}
	.st11{fill:#7F7F7F;}
	.st12{fill:#2D2D2D;}
	.st13{fill:#919191;}
	.st14{fill:#383838;}
	.st15{fill:#D8D8D8;}
	.st16{fill:#653C16;}
	.st17{fill:#F79E1E;}
	.st18{fill:none;stroke:#00AEEF;stroke-miterlimit:10;}
	.st19{fill:#E72527;}
	.st20{fill:#E12327;}
	.st21{fill:#EDB7B6;}
	.st22{fill:#1C4650;}
	.st23{fill:#122D25;}
	.st24{opacity:0.5;fill:#653C16;}
	.st25{fill:url(#SVGID_1_);}
	.st26{fill:#89C544;}
	.st27{fill:#FFE0B6;}
	.st28{fill:#BABABA;}
	.st29{fill:#EA7750;}
	.st30{opacity:0.3;fill:#E72527;}
	.st31{opacity:0.3;fill:#653C16;}
	.st32{fill:#2A5861;}
	.st33{fill:#F26F79;}
	.st34{fill:#EAB557;}
	.st35{fill:#80C48D;}
	.st36{fill:#264720;}
	.st37{fill:#52AA82;}
	.st38{opacity:0.3;}
	.st39{fill:#895B24;}
	.st40{filter:url(#Adobe_OpacityMaskFilter);}
	.st41{mask:url(#SVGID_2_);}
	.st42{opacity:0.3;fill:#895B24;}
	.st43{fill:#EE7928;}
	.st44{fill:#CAAB82;}
	.st45{fill:#E5E5E5;}
	.st46{fill:#F69FA1;}
	.st47{clip-path:url(#SVGID_4_);fill:#FCB017;}
	.st48{fill:#727579;}
	.st49{fill:#1D2036;}
	.st50{fill:#C2C4C4;}
	.st51{fill:#6C7D7F;}
	.st52{fill:#E9D1B3;}
	.st53{fill:#B8D3C7;}
	.st54{fill:#ABB2B2;}
	.st55{fill:#EA3056;}
	.st56{fill:#478689;}
	.st57{fill:#E2C588;}
	.st58{fill:#757576;}
</style>
<g id="BG">
</g>
<g id="Noodles">
	<g>
		<path class="st5" d="M586.5,0c-1.8,4.4-2.4,8.9-2.1,13.6c0.1,1.6,0.9,2.8,1.7,4.2c3.9,6.7,10,11.2,15.2,16.6
			c4.1,4.3,7.3,9.2,7.3,15.3c0,5.7-1.2,11.3-3.5,16.5c-1,2.2-2,4.3-3.3,6.3c-2.2,3.2-4.9,6.2-6.9,9.5c-3,5.1-5.8,10.4-8.2,15.8
			c-1.6,3.6-1.2,7.4,0.6,11.1c2.4,4.8,5.9,8.7,9.6,12.5c5.2,5.3,9.8,11,13.5,17.5c3.3,5.7,4.3,11.9,3.8,18.3
			c-0.3,4-2.3,7.3-4.7,10.3c-2.8,3.3-5.5,6.6-9.2,9.2c-2.4,1.7-4.8,4-5.9,7.2c-0.4,1.1-1.2,2-2,2.9c-5.5,6.2-8.7,13.6-11,21.3
			c-1.6,5.3-0.1,10.4,4.1,14.5c1.6,1.5,2.8,3.5,4.5,4.9c4.2,3.6,8.5,7.1,12.7,10.7c4.4,3.6,7.2,8.4,9.3,13.6c1,2.5,1.3,5.1-0.1,8
			c-1.2,2.4-1.4,5.3-2.1,8c-1.5,5.3-3.4,10.4-6,15.4c-2.8,5.3-5.1,10.9-7.7,16.4c-0.4,0.8-0.9,1.7-1.6,2.1c-2.1,1.1-2.7,3.1-3.4,5.1
			c-0.7,1.8-1.2,3.7-2,5.5c-2.6,6.2-4,12.5-3.5,19.2c0.3,3.5,2.2,6.3,5.1,8.1c10.4,6.2,16.1,15.7,19.7,26.8
			c1.7,5.1,1.6,10.4,1.6,15.7c0.2,14.8-6.5,27-14.9,38.3c-5.4,7.4-10.1,15.1-13.1,23.7c-1.4,4.2-1.7,8.8-2,13.2
			c-0.3,3.9,2.8,5.7,5.6,7.4c4.9,3,10.1,5.7,14.8,9c3.6,2.6,6.5,5.9,7.6,10.7c1,4.1,3,7.9,4,11.9c1.6,6-0.3,11.7-2.5,17.3
			c-1.8,4.8-3.9,9.4-6.1,14c-2.2,4.5-5.2,8.4-8.9,11.9c-7,6.7-13,14.1-17.1,23.1c-2.2,4.9-3.2,10.2-3,15.4c0.3,5.5,2.6,10.6,7.6,14
			c4.7,3.2,9.1,6.7,13.8,9.9c9.3,6.3,12.7,15.8,13.1,26.2c0.2,4.7-0.2,10-3.4,14c-2.4,3-5.6,5.6-8.4,8.2
			c-4.7,4.4-10.3,7.8-13.9,13.3c-4.5,6.7-9.1,13.3-11,21.3c-1.5,6.5-2.8,13.3-1.4,19.9c0.8,4,3,7.8,5.2,11.3c3.1,5,7.9,8,13.1,10.6
			c5.4,2.7,10.7,5.6,15.8,9c8.6,5.6,12.7,13.8,12.2,24.1c-0.2,3.5-0.6,7.1-1.7,10.4c-2.5,7.3-6.3,13.9-11.4,19.7
			c-6.1,6.8-12.3,13.4-18.5,20.1c-5.4,5.8-9.2,12.6-10.8,20.4c-1.2,5.6,0,11,2.3,16.1c1.9,4.3,5,7.5,8.8,10.4
			c8.7,6.7,17,13.7,24.5,21.8c4.8,5.2,7.7,11,6.9,18.2c-0.4,3.9-1.4,7.6-3.1,11.3c-1.9,4-5,7.1-7.4,10.7
			c-6.1,9.1-12.7,17.9-18.5,27.1c-4.2,6.8-6.7,14.3-6.2,22.6c0.2,2.7-0.3,5.4,0.7,8.2c1.8,5.4,6.1,8.5,9.8,12.2
			c5,5,9.3,10.4,12.8,16.5c1.8,3.3,2.5,6.7,2.8,10.2c0.7,7.7,0,15.4-2.5,22.7c-1.7,5-5.1,9.1-8.6,13.1c-3,3.4-6.2,6.9-8.6,10.7
			c-2.7,4.5-4.5,9.6-5.2,14.8c-0.4,2.6-0.8,5.2-0.8,7.9c0.1,9.1,3.4,16.6,10.9,22.1c4.7,3.4,9.3,6.9,13.6,10.9
			c4.1,3.8,6.6,8.6,8.6,13.9c3.4,8.9,1.7,17.1-2.1,25.2c-2.9,6.2-5.5,12.5-10.2,17.7c-2.1,2.3-3.1,5.8-5.3,7.8
			c-3,2.6-4.4,6.1-6.2,9.3c-2.5,4.5-3.8,9.5-4.7,14.5c-0.2,1-0.2,2.1-0.5,3.1c-2.4,6.7,0.7,11.6,5.4,15.7c3.4,2.9,7.1,5.5,11,7.8
			c3.8,2.3,6.9,5.4,9.6,8.8c1.7,2.3,3.1,4.8,4.6,7.3c2.1,3.5,2.8,7.2,2,11.3c-0.5,2.6-0.5,5.3-0.9,7.9c-1.1,7.8-4.5,14.5-9.1,20.7
			c-5,6.8-9.4,14-14.5,20.8c-3.1,4.3-6.2,8.5-7.8,13.6c-1.5,4.7-2.4,9.4-2.4,14.3c-0.1,5.1,2.4,9.3,4.9,13.5
			c2.3,3.8,6.1,6.2,9.3,9.1c3.5,3.2,7.2,6.3,10.5,9.7c1.7,1.8,2.7,4.1,4,6.3c1.2,2,2.6,4,3.4,6.2c1.4,4.1,2.8,8.3,3.6,12.5
			c1.8,9.3,1.7,18.7-1.3,27.8c-0.8,2.5-2.1,4.8-3.5,7c-4.3,6.6-8.8,13.1-13.3,19.6c-0.2,0.3-0.4,0.7-0.7,0.9
			c-4,3.7-5.8,8.7-7.7,13.6c-2.7,6.8-4.2,13.9-3.4,21.2c0.4,3.2,2.2,5.9,4.8,7.9c3.7,2.8,7.4,5.4,11.2,8c1.9,1.3,4.2,2.3,6,3.8
			c5.6,4.6,10.1,10.2,13.8,16.5c1.2,2,2.3,4.2,3.7,6c2.5,3.3,1.8,6.9,1.4,10.5c0,0.4-0.5,0.7-0.5,1.1c-0.2,8.5-5.4,14.9-9.2,21.8
			c-5.3,9.6-11.5,18.6-17.2,27.9c-2.3,3.6-3.3,7.7-3.5,11.9c-5.8,0-11.6,0-17.5,0c0.7-4.5,0.8-9.2,3.1-13.4c1.8-3.4,3.3-7,5.4-10.1
			c7.3-10.3,13.6-21,18.7-32.5c2.9-6.6,2.9-12.7-0.7-18.9c-4.4-7.6-10-14.1-17-19.6c-5.3-4.2-10.4-8.5-15.3-13.1
			c-5.9-5.4-7.1-12.4-5.6-20c1.7-8.9,4.9-17.3,9.2-25.2c2.1-3.9,5.3-7.2,7.8-11c3.5-5.3,6.9-10.6,10-16.1c2.5-4.6,3.5-9.6,3.3-14.9
			c-0.4-10-2.1-19.6-7-28.5c-3.3-5.9-8.3-10.2-13.2-14.6c-4.1-3.8-8.5-7.1-11.5-11.9c-3.2-5-4.9-10.3-5-16.4
			c-0.2-7.8,1.2-15.3,4.4-22.3c1.6-3.4,3.9-6.6,6-9.7c4.2-6.2,8.6-12.3,12.8-18.6c2.5-3.7,5.2-7.4,7-11.5c1.7-3.8,2.7-8,3.3-12.1
			c1.1-9-2.6-16.2-9.3-22c-1.7-1.5-3.8-2.4-5.5-3.9c-4.2-3.7-8.8-7.2-12.3-11.6c-4.9-6.1-6.4-13.5-4.3-21.3c1.2-4.3,2-8.8,3.6-12.9
			c1.8-4.5,4.1-8.9,6.5-13c3.5-5.9,7.7-11.4,11-17.4c2.7-4.9,4.8-10.3,6.5-15.7c0.9-2.8,0.9-6.1,0.3-9c-0.8-3.7-2.4-7.2-3.9-10.7
			c-1.8-4.1-5.8-6-9-8.7c-1.6-1.3-3.4-2.5-4.8-4c-4-4.2-7.9-8.4-10.9-13.5c-4.7-7.9-5.5-16.3-4.5-25.2c0.9-8.4,4.2-16,7.8-23.5
			c0.9-1.9,2.3-3.5,3.7-5.1c1.8-2.2,4-4.2,5.7-6.5c5.4-7.3,6.6-15.6,5.8-24.4c-0.7-8-4.2-14.5-9.6-20.3c-4-4.2-7.6-8.7-11.2-13.3
			c-3.2-4.1-4.2-9-4.4-14.1c-0.5-12.8,3.4-24.2,10.7-34.5c5.8-8.3,11.7-16.6,17.3-25.1c2-3.1,3.7-6.4,5.2-9.8
			c2.6-6,0.5-13.8-4.6-18.4c-4.9-4.4-9.9-8.8-14.7-13.3c-3.9-3.7-7.9-7.4-11.4-11.5c-6.5-7.7-10.1-16.8-9.5-27
			c0.4-7,2.9-13.5,6.9-19.1c3.8-5.4,8.2-10.3,12.5-15.3c4.3-5,9-9.7,13.1-14.8c4.1-5.1,7-10.9,8.8-17.2c1.7-5.8,0.1-11.3-2.7-16.4
			c-1-1.8-3.3-3-5.2-4.1c-2.4-1.5-4.8-2.7-7.4-3.9c-5.5-2.5-10.3-5.9-14.3-10.4c-5.1-5.8-9.7-11.8-12.8-19c-3.3-7.6-3-15.4-2-23.4
			c0.3-2,0.7-3.9,1.1-5.8c2.5-11.6,8.6-21.4,15.8-30.6c2.5-3.2,6-5.6,9-8.4c1.7-1.6,3.4-3.4,5.3-4.8c4.4-3.2,4.4-7.9,4.1-12.5
			c-0.1-2-0.6-3.9-1.1-5.8c-1.1-4.3-2.5-8.1-6.9-10.4c-8.3-4.3-14.3-11.3-19.5-18.8c-4.2-6.2-5.2-13.4-4.5-20.9
			c1-10.9,6.1-20,12.6-28.5c2.6-3.5,5.6-6.6,8.6-9.8c8-8.6,12.5-18.7,13.6-30.5c0.5-5.7-0.7-11.1-3.4-16.1c-1-1.8-3.1-3.2-5.1-4.1
			c-7.1-3.3-12.9-8-17.3-14.6c-1.1-1.6-2.6-3.1-3.5-4.8c-2.1-3.6-2.1-7.6-1.8-11.6c0.8-11.2,5-21.2,10.9-30.6
			c3.7-5.9,7.6-11.7,11.4-17.6c7.5-11.6,8-24.1,4.6-36.9c-1.4-5.2-3.9-9.9-8.6-13.4c-5.1-3.8-8.9-9-12.4-14.3
			c-3.6-5.5-3.4-11.8-2.4-18c1.5-9,5-17.1,10.2-24.6c5.3-7.7,10-15.8,13.3-24.7c1.9-5.1,3.4-10.3,3.1-15.8c-0.2-4-1.5-7.2-5-9.8
			c-4-3-7.9-6.3-11.2-10c-4.1-4.8-7.7-10.1-11.3-15.3c-0.9-1.3-1.3-3.2-1.6-4.9c-1.3-9.3-0.1-18.1,4.6-26.4c4-7,9.3-13,14.8-19
			c3.7-4.1,7.1-8.5,10.4-12.9c0.9-1.2,1.5-2.9,1.5-4.4c0-6.5-1.1-12.5-5.9-17.5c-5.3-5.7-10.7-11.3-14.6-18.2
			c-1.3-2.3-2.7-4.5-4.1-6.8c-4.1-6.8-3.8-13.9-1.1-21c2.6-7,6.4-13.3,10.8-19.3c3.8-5.1,6.9-10.6,8.2-16.9c0.2-0.8,0.3-1.6,0.4-2.3
			c0.7-4.3-0.1-7.9-3.5-11.1c-6.6-6.1-11.4-13.5-15.1-21.6C565,6,563.7,3.2,564.3,0C571.7,0,579.1,0,586.5,0z"/>
		<path class="st5" d="M1014.3,1600c-0.4-2.6-0.9-5.2-1.1-7.8c-0.6-6.7-1.4-13.4,0.3-20c0.9-3.5,2.1-7,3.1-10.5
			c2.4-8.4,6.4-16.5,6.9-25.4c0.4-7.4,0.2-14.9-1.7-22c-1.7-6.3-4.4-12.4-7.2-18.4c-1.2-2.5-3.5-4.6-5.6-6.6
			c-4.2-4-8.8-7.6-11.6-12.8c-1.2-2.1-2.4-4.1-0.3-6.5c0.7-0.8,0.8-2.2,1.1-3.3c0.5-2.4,0.6-5,3-6.6c0.6-0.5,0.9-1.6,1.1-2.5
			c1.6-6.7,5.5-12.3,9.6-17.5c2.1-2.7,4.1-4.9,4.1-8.4c0-0.4,0.3-0.7,0.5-1.1c4.2-7,6.6-14.8,9.3-22.5c1.1-3.1,1.7-6.4,2.3-9.6
			c1.6-8.4,1.6-16.8,0.1-25.2c-1.1-6.1-3.6-11.5-8.2-15.9c-3.6-3.3-6.6-7.1-9.2-11.3c-4.2-6.7-5.8-13.7-4-21.5
			c1.1-4.7,2.6-9.1,4.7-13.4c2.8-5.7,5.2-11.6,7.5-17.4c1.1-2.8,3.3-4.9,3.8-8.1c0.7-4.1,2.2-8.1,3.3-12.1c1.6-6,2.2-12.2,2.3-18.4
			c0.1-5.4-0.4-10.8-0.8-16.2c-0.2-2.7-0.5-5.5-1.2-8.2c-1.7-6.1-5.5-11.1-9-16.2c-6-8.7-9.7-18.1-10.1-28.7
			c-0.2-4.3-0.2-8.7-0.1-13c0.3-7.1,2.5-13.8,6.1-19.8c7.1-11.9,11.4-24.5,12.5-38.4c0.5-5.9-0.2-11.6-0.6-17.3
			c-0.3-4.8-3-8.9-5.1-13.2c-3.4-7-6.9-13.9-9.7-21.2c-1.9-5-2.7-10.4-3.8-15.7c-0.5-2.6-0.5-5.3-1.1-7.8
			c-2.2-10.6-0.3-20.4,5.1-29.7c2.6-4.4,4.6-9.2,6.6-13.9c5.3-12.3,3.8-24-4.2-34.7c-7.8-10.5-11.4-22.2-10.7-35.2
			c0.3-6.8,2.1-13.3,5.4-19.3c3.3-5.9,7-11.5,10.3-17.4c4.1-7.3,6.6-15.2,7.3-23.6c1-11.2-3.5-20.4-10.6-28.5
			c-4.1-4.6-7.6-9.5-10.2-14.9c-3.6-7.5-6.2-15.4-7.6-23.6c-2.4-13.8,0.8-26.2,9.1-37.3c3.6-4.7,6.1-9.9,7.1-15.7
			c0.2-1.4,0.6-2.9,0.6-4.3c0-7.5-1.1-15-2.7-22.3c-2-9.1-5.7-17.5-10.3-25.5c-2.4-4.1-3.2-8.6-4-13.1c-2-11.3,0.3-21.7,5.7-32
			c4.9-9.4,8.8-19.5,12.3-29.5c2.2-6.3,2.6-13,2.7-19.8c0.1-8.4-3.4-15-7.8-21.5c-5.4-7.9-10.5-15.8-12.6-25.3
			c-1.6-7.1-2.9-14.3-0.8-21.5c1.1-3.8,3-7.4,5-10.9c3.9-7,8.3-13.8,12.1-20.8c3.3-6.1,4.8-12.8,5.3-19.7c0.5-6.7-1.8-12.9-4-19.2
			c-1.5-4.5-4.5-8-7.4-11.6c-1.4-1.8-2.7-3.6-4.2-5.3c-6.8-7.9-8.7-17.3-8.7-27.3c0-3.7-0.5-7.5,0.5-11c1.9-7.1,4.1-14.2,7.1-20.9
			c3.1-7.1,7.6-13.6,11-20.6c4.8-10.1,6.2-20.6,1.9-31.4c-2.3-5.8-5.4-11.1-8.6-16.4c-5-8.3-9.9-16.8-11-26.8
			c-0.4-3.3,0.3-6.3,1-9.4c1.9-8.4,6-15.7,10.7-22.8c5.8-8.9,10.7-18.2,12.7-28.8c0.8-4.1,0.5-8.4,0.2-12.6c-0.3-3.4-2.1-6.3-4.5-9
			c-5.6-6.3-10.8-13-15.9-19.7c-1.8-2.4-3.3-5.1-4.6-7.8c-2.6-5.5-3-11.1-1.1-16.9c2.5-7.6,6.3-14.5,10-21.5
			c4.1-8,6.2-16.5,4.6-25.5c-1.2-6.8-3.8-13.2-9-18c-6.8-6.3-12.4-13.7-17.2-21.5c-3.1-5.1-4.7-10.3-3.2-16.6
			c1.9-7.7,5.1-14.6,9.9-20.9c2.2-2.9,4.2-6.1,6-9.3c3.4-6.3,3.8-13.1,2.6-20.1c-0.3-2-1.3-3.3-2.9-4.5c-1.6-1.1-2.9-2.6-4.3-4
			c5.3,0,10.6,0,15.9,0c2.7,3.2,5.4,6.4,8.1,9.5c2.7,3.1,3.9,6.9,4.5,10.8c0.9,6.2,0.6,12.5-1.2,18.5c-1.3,4.4-3.1,8.7-6.4,12.3
			c-2.9,3.2-4.7,7.3-7.2,10.8c-2.1,3-3.3,6.2-4.3,9.6c-0.8,2.6-0.4,4.9,0.8,7.6c3,6.7,8.4,11.1,13.4,15.9c9.5,8.9,15,19.7,16.1,32.8
			c0.7,8.1,0.4,16.1-2.6,23.8c-1.2,3.2-3.2,6.1-5,9c-4,6.3-6,13.3-7.4,20.6c-0.5,2.3,0,4.4,1.6,6.3c2.9,3.6,5.7,7.2,8.7,10.7
			c3.7,4.3,7.6,8.3,11.2,12.7c4.2,5.1,6.9,10.8,7.4,17.5c0.3,4.6,0.2,9-1.3,13.3c-1.7,5.3-3.6,10.6-5.6,15.8c-0.6,1.7-1.9,3.1-3,4.6
			c-1.8,2.7-3.8,5.3-5.6,8.1c-2.2,3.4-4.5,6.8-6.2,10.4c-1.9,3.9-3.5,8-4.6,12.2c-1.8,7.6,1.1,14.2,5.1,20.5
			c2.5,3.9,4.8,7.8,7.2,11.7c1,1.6,1.9,3.1,3,4.6c3.4,4.9,5.9,10.5,7,16.2c1.9,10.4,2.1,21-3.7,30.7c-0.3,0.6-0.5,1.5-0.9,1.7
			c-3.3,1.7-3.4,5.4-5.3,8c-0.4,0.5-0.6,1.2-1,1.7c-6.2,7.9-9,17.2-11.5,26.6c-1.2,4.6-0.7,9.7-0.7,14.5c0,2.1,0.5,4.2,0.8,6.2
			c0.9,6.2,5,10.7,8.6,15.4c2.2,2.9,5,5.4,7.4,8.2c1.4,1.7,2.8,3.6,3.5,5.6c1.7,5,2.8,10.1,4.3,15.2c1.6,5.4,0.6,10.8-0.4,16.1
			c-1.9,10-6.5,18.8-12,27.3c-2.6,4-4.8,8.2-7.5,12.1c-4,5.9-4.4,12.3-3.1,19c0.3,1.5,0.4,3.1,0.6,4.7c0.1,0.8,0.1,1.6,0.4,2.3
			c2.7,5.8,4.5,12.1,8.7,17.2c5,5.9,8.6,12.6,11.3,19.8c0.2,0.6,0.5,1.3,0.5,1.9c0.2,6.3,2.2,12.5,0.4,18.8
			c-0.2,0.6-0.1,1.4-0.4,1.9c-2.8,5.1-3.5,10.9-5.3,16.3c-0.2,0.5-0.3,1-0.5,1.5c-1.4,2.7-3.2,5.2-4,8c-1.5,5-3.9,9.5-6.5,13.9
			c-4.5,7.7-6.2,15.8-5.2,24.6c0.8,7.1,3.2,13.5,7.7,19.2c1.4,1.8,2.4,4.1,3,6.3c1.8,6,3.7,12.1,4.9,18.2c1.2,6.1,2.2,12.3,2.2,18.4
			c0,6.7-1.2,13.4-5.3,19.2c-4,5.7-7.8,11.5-10.4,18c-1.5,3.6-2.1,7.2-2.1,11.1c0,13.1,4.4,24.8,10.7,36c1.9,3.4,4.6,6.5,7.4,9.3
			c2.6,2.6,4.1,5.8,6.1,8.7c3.2,4.5,3.4,9.8,4.5,14.9c1.1,5.1-0.2,9.9-0.3,14.9c0,1.5-0.9,3-1.4,4.4c-1.9,5.1-3.7,10.1-5.6,15.2
			c-0.2,0.6-0.6,1.2-1,1.7c-4.4,6-8.1,12.6-11.1,19.4c-1.5,3.3-1.9,7.1-2.7,10.7c-0.6,2.5-1,5.1-1.4,7.7c-0.1,0.8,0.1,1.6,0.2,2.3
			c1.3,7.2,3.4,14,7.9,20c2,2.8,3.8,5.8,5.6,8.6c6.3,9.7,6.1,20,2.9,30.5c-1.8,6-4.3,11.9-7.6,17.3c-2.2,3.6-4,7.4-5.4,11.4
			c-1.7,4.9-1.1,10.1-0.6,15.3c1.1,10.8,3.4,21.4,8.2,31.2c2.7,5.5,5.5,10.8,8.3,16.2c2.3,4.3,3.3,8.9,3.6,13.7
			c0.3,5.4,0.6,10.8,0.3,16.2c-0.4,7.2-2.3,14.2-4.4,21.2c-1.3,4.3-3.2,8.2-5.6,12c-3,4.7-5.4,9.8-7.6,14.9
			c-1.1,2.6-1.3,5.7-1.6,8.5c-0.5,6.2,0.1,12.4,1,18.6c1.1,7.2,4.3,13.4,8.5,19.3c4.4,6.2,8.5,12.8,10.5,20.3
			c0.7,2.5,1.1,5.2,1.1,7.8c0,9.5,0.7,19-1.2,28.3c-1,4.9-2,9.8-3.6,14.6c-1.9,5.7-3.6,11.7-6.6,16.8c-3.6,6.1-5.2,12.8-8.1,19.1
			c-4.6,10-3.5,19.8,4.2,28.3c1.6,1.8,3,3.7,4.8,5.2c5.8,4.6,8.1,11.2,10.2,17.9c1.2,3.7,1.4,7.5,0.8,11.3
			c-0.5,3.5-0.8,7.1-1.1,10.6c-0.3,3.8-0.5,7.5-2.3,11.1c-1.2,2.3-1,5.2-2,7.6c-2.2,5.8-4.9,11.3-7.1,17.1
			c-4.2,11.1-11.6,20.3-17,30.7c-2.2,4.3-3.3,9.1-5,13.7c-0.5,1.5-0.1,2.5,1.1,3.4c2.9,2.2,5.8,4.6,8.6,6.9
			c4.6,3.9,8.2,8.4,10.4,14.1c3.3,8.2,6.1,16.6,6.6,25.5c0.3,5.1-0.1,10.3-0.5,15.4c-0.6,8.6-4.1,16.5-7.1,24.5
			c-2.5,6.4-4.5,12.9-4.4,19.9c0.1,3.4,0.5,6.8,0.8,10.2c0.1,1.3,0.3,2.6,0.4,3.9C1024.9,1600,1019.6,1600,1014.3,1600z"/>
		<path class="st5" d="M681.7,0c-0.6,5,1.6,8.9,4.7,12.5c3.5,4,7,7.9,10.4,12c5.4,6.4,7.5,14.1,8.6,22.2c0.2,1.4,0,2.9-0.3,4.3
			c-2.1,8.4-5.8,16.1-11,23c-3.3,4.4-5.8,9.3-6.9,14.6c-1.6,7.8,0,15.3,5.3,21.5c2.9,3.4,6.1,6.6,9.2,9.9c4.2,4.4,8.3,8.9,9.9,15
			c1.1,4.2,2.4,8.3,3.7,12.5c1.9,6.6,0.1,12.7-2.3,18.8c-0.5,1.3-1.2,2.7-1.4,4.1c-0.6,3.4-2.5,5.9-4.6,8.5
			c-5.5,6.9-10.8,14-13,22.6c-0.8,3.1-0.2,6.5-0.1,9.8c0.1,1.4,0.6,2.8,1,4.2c0.6,2.3,1.2,4.5,2.8,6.4c2.8,3.3,5.3,6.9,7.7,10.5
			c3.3,4.8,6.6,9.5,7.2,15.6c0.2,1.5,1.5,2.8,1.9,4.3c1.2,4.9,1.6,9.7,1.4,14.8c-0.2,4.7-0.7,9.1-2.1,13.5
			c-2.5,7.9-6.8,15-11.5,21.8c-4.8,7-8.7,14.5-9.4,23.2c-0.1,1.5,0.1,2.8,1.1,4c3.9,4.5,7.6,9.1,11.4,13.6c3.4,4.1,7.1,7.9,10,12.3
			c4.9,7.3,6.3,15.7,5.9,24.4c-0.1,3-0.1,6.1-0.9,9c-2.4,8.7-4.9,17.4-10.1,25c-3.6,5.3-7,10.8-10.4,16.3c-2.7,4.4-4.6,9.3-5.3,14.4
			c-0.8,5.5,0.4,10.9,3.8,15.3c2.8,3.7,6.1,6.9,9.1,10.4c1.7,2,3.4,4.1,4.5,6.5c4.3,8.8,7.7,18,7.1,28.1c-0.2,3.6-0.5,7.5-1.9,10.8
			c-2.7,6.4-5.7,12.8-9.7,18.5c-2.7,3.9-5.6,7.6-7.7,11.9c-2.5,5.1-5.4,10-7.3,15.3c-2.5,6.7-3.7,13.7-2.7,20.9c0.3,2,1.4,4,2.3,5.9
			c3.5,7.4,8.5,13.9,13.4,20.4c4,5.3,7.2,10.9,9.6,17.1c3.1,7.8,5.1,15.8,5.6,24.2c0.3,5,0.7,9.9-0.3,14.8
			c-1.8,9.5-4.9,18.5-12.1,25.5c-2.6,2.5-4.8,5.4-6.3,8.9c-1.4,3.4-3.9,6.3-5.7,9.5c-3.9,7.1-3.1,12,2.4,17.5
			c3.9,3.9,8.3,7.3,12.3,11.1c3.6,3.5,6.2,7.8,8.6,12.2c2.7,4.8,4.2,10,5.3,15.2c2.3,10.4,2,20.7-4.8,29.8
			c-2.7,3.6-4.8,7.6-7.3,11.3c-1.6,2.3-3.5,4.3-5.2,6.4c-0.3,0.4-0.8,0.8-1,1.2c-1.5,4.3-3.2,8.6-4.4,13c-1.3,5.2,0.9,9.7,3.9,13.9
			c5.7,8.1,11.5,16.1,16.7,24.4c2.8,4.5,4.8,9.7,6.7,14.7c2.4,6.4,1.6,13.1,1.1,19.8c-0.5,6.6-4.2,11.4-8.1,16.2
			c-3.8,4.7-7.3,9.6-11,14.3c-3.7,4.6-6.3,9.7-8.4,15.1c-2.6,6.6-1.5,13.2,1.2,19.6c2.7,6.7,7.9,11.5,12.4,16.8
			c4,4.6,7.6,9.4,10.3,14.9c2.5,5.1,3.5,10.5,3.8,16.1c0.1,3.1-0.7,6.3-0.2,9.3c0.6,4-1.2,7-2.6,10.3c-0.1,0.2-0.2,0.5-0.2,0.8
			c-2.3,9.5-7.9,17.1-14.1,24.5c-7.4,8.8-10.1,18.9-8.6,30.3c0.6,4.9,3.5,8.8,6.4,12.5c5.8,7.4,11.6,14.8,15.5,23.4
			c4.2,9.3,5,19,3,29c-1.6,7.6-5,14.4-8.8,21c-4.2,7.3-8.6,14.5-12.2,22.1c-4.8,10.1-2.8,17,4.9,24.6c3.5,3.4,7.1,6.7,10.5,10.2
			c5.7,6.1,9.3,13.1,10.8,21.6c1.9,11.1,0.4,21.5-3.9,31.7c-1.2,2.8-2.4,5.7-5.1,7.8c-1.9,1.5-3,4-4.3,6.1c-4.5,7-9.1,14-10.1,22.5
			c-0.9,7.5,0.1,14.8,4.2,21.2c3.3,5.1,7.1,9.8,10.3,15c4.2,6.7,8.2,13.5,12.2,20.4c1,1.8,1.5,3.7,1.3,6c-0.2,2.7,0.4,5.5,1,8.1
			c1.1,4.9-0.9,9.4-2,13.9c-0.6,2.6-1.7,5.2-3,7.6c-3.3,6.1-7,12.1-10.4,18.2c-5.6,10-11,20.1-14.1,31.3c-1.6,5.9-0.6,11.1,2.8,16.1
			c6.1,9.1,12.9,17.8,17.4,27.8c2.1,4.7,4.3,9.4,5.9,14.2c2.4,6.9,2.1,14,0,21c-1.6,5.3-2.9,10.6-4.9,15.7c-1.9,4.6-4.4,8.9-7,13.1
			c-3.3,5.3-4.6,11.1-5.3,17.2c-0.5,4.5-0.7,8.9,0.6,13.3c-5.6,0-11.1,0-16.7,0c-0.3-1.1-0.5-2.3-0.8-3.4
			c-2.3-7.5-1.3-14.9,1.3-22.1c1.3-3.7,2.9-7.3,4.7-10.9c3.9-7.5,7.3-15.2,9.1-23.6c2.2-10.2,0.7-19.9-3.6-29.3
			c-4.9-10.8-11.2-20.7-17.9-30.3c-5.7-8.3-5.8-17-2.8-26.1c1.4-4.2,3.1-8.4,5-12.4c3.1-6.4,6.3-12.7,9.7-19
			c2.8-5.2,6.2-10.1,8.9-15.4c5.4-10.7,6.4-21.5,0.8-32.6c-4.8-9.4-10.6-18.2-16.8-26.8c-6.3-8.7-10-18.2-9.8-29.1
			c0.1-6.7,2.4-12.7,5.5-18.4c3.5-6.3,7.2-12.6,11.4-18.5c11.4-15.7,8.7-40-4.4-52.5c-3.5-3.4-6.9-7-10.1-10.6
			c-4.6-5.1-7.1-11.3-7.4-18c-0.2-5.2,1.4-10.5,3.8-15.2c4.4-8.4,8.9-16.8,13.8-24.9c6.5-10.5,8.5-21.5,4.9-33.4
			c-2.1-6.9-5.8-13-10-18.7c-3.6-4.9-7.3-9.7-10.6-14.8c-2.7-4.2-3.9-9-3.8-14c0.2-9.3,1.5-18.4,6.4-26.6c1.9-3.2,4.1-6.1,6.4-9.1
			c4.8-6.2,8.5-13,10.7-20.6c1.8-6.5,1.7-13,0.7-19.6c-1.6-10.3-7.3-18.2-13.8-25.8c-6.2-7.3-11.5-15.1-13.2-24.9
			c-1.4-7.9-0.8-15.3,3.2-22.6c4.4-7.9,9.5-15.2,15.4-22c3.8-4.4,6.7-9.2,8-14.8c1.8-7.7,1.7-15.4-1.5-22.9
			c-3.4-8.1-7.9-15.5-12.9-22.6c-3.8-5.4-7.2-11-10.4-16.8c-4.3-7.6-3.2-15.4,0.8-22.7c3.4-6.1,7.5-11.8,11.2-17.7
			c2.1-3.3,4.5-6.6,6.1-10.2c2.8-6.1,3.2-12.8,2.4-19.4c-0.9-7-3.2-13.6-7.1-19.6c-1.3-2-2.9-3.8-4.7-5.3
			c-5.5-4.5-10.3-9.5-14.2-15.3c-6.3-9.3-6.5-18.2-0.5-27.4c4-6.2,8.3-12.2,12.7-18.2c7.5-10.2,10-21.5,8.7-34
			c-1-9.5-3.5-18.5-7.5-27c-2.8-5.9-6.8-11.3-10.5-16.8c-3.1-4.6-6.2-9.1-8.6-14.2c-4.8-10-4.9-20.2-1.8-30.5
			c3.5-11.6,9.8-21.8,15.7-32.3c3.3-5.7,6.9-11.3,9-17.5c2-5.8,2.4-11.6,0.7-17.5c-0.6-2.2-1.2-4.3-1.8-6.5
			c-1.5-6-5.3-10.5-9.1-15.1c-3-3.7-6.1-7.4-8.4-11.5c-4.4-7.9-5.6-16.4-2.7-25.2c2.5-7.6,6.1-14.5,10.7-21.1
			c6.3-8.9,11.3-18.4,13.4-29.3c1.2-6.4,0.8-12.9-0.4-19.3c-1.1-5.6-4.4-9.9-8.4-13.6c-7.3-6.8-12.3-15.2-17.1-23.7
			c-1.5-2.7-1.6-5.6-1.2-8.5c1.2-8.5,4.4-16.2,9.1-23.4c3-4.5,5.9-9.1,8.3-13.9c5.6-10.9,5.7-22.3,2.5-33.9
			c-1.5-5.4-3.8-10.3-7.2-14.8c-3.1-4.2-5.8-8.9-8.1-13.6c-6.2-12.8-6.1-25.5,1.7-37.7c3.1-4.8,6.5-9.3,9.8-13.9
			c7-10.1,7.8-20.9,4.2-32.4c-1.5-4.9-4.8-8.4-8.2-11.9c-4.1-4.1-8.3-8.2-11-13.4c-3.1-6.1-6-12.3-6.9-19.3c-1.3-10.1,1.8-19,7-27.4
			c3.7-5.8,7.5-11.5,9.5-18.2c1.9-6.5,1-12.4-3.5-17.8c-3.2-3.9-6.2-7.9-9.1-12c-2-2.8-3.9-5.7-4-9.3C671.2,0,676.4,0,681.7,0z"/>
		<path class="st5" d="M811.1,1600c-3.6-9.7-3.2-19.3,0.5-29c2.7-6.9,5.3-13.8,7.1-20.9c4.4-16.7,0.2-31.8-9.5-45.6
			c-4.7-6.7-9.9-13-13.1-20.7c-3-7.3-5.5-14.9-5.4-23c0.1-8.6,2.3-16.8,6-24.4c5.4-10.9,10.7-21.8,15.1-33.1
			c3.9-9.9,4.6-20,0.6-30.1c-2.3-5.8-5.3-11.2-9.1-16.2c-2.3-3-4.1-6.4-5.8-9.9c-4-8-3.9-16.4-1.1-24.7c2.3-6.7,5.3-13.2,8.3-19.6
			c2.4-5.1,5.1-10.1,8-15c6.5-10.9,7-22.8,5.8-34.9c-0.3-2.8-0.9-5.5-1.3-8.2c-1.3-7.5-3.8-14.5-7.9-21c-3.2-5.1-6.1-10.5-9.3-15.6
			c-3.2-5-4.1-10.5-3.9-16.3c0.1-3.4,0.6-6.8,1-10.3c1-7.9,4.2-15,7.9-21.8c5.6-10.5,9.2-21.7,8.9-33.7c-0.2-7.8-2.3-15.4-4.6-22.8
			c-2.9-9.6-7.9-18.1-13.5-26.4c-2.5-3.7-3.5-7.6-3.8-11.9c-0.7-12,3.4-22.1,10.3-31.7c4.5-6.2,8.6-12.7,12-19.6
			c5.7-11.6,6.2-23.7-0.2-35.3c-2.4-4.3-6-8-9.2-11.9c-1.7-2.1-3.4-4-5.2-6c-7.6-8.5-8.4-18.6-5.9-29c1.9-8,5.6-15.4,10.2-22.2
			c6.1-9,7.4-18.7,6.2-29.4c-1.3-11.9-6.5-21.9-13.1-31.4c-1.6-2.3-3.2-4.5-4.7-6.8c-5.6-8.2-6.7-17.6-5-27
			c1.3-7.3,3.7-14.6,6.5-21.6c3.5-8.5,7.6-16.8,11.9-25c6.4-12,5.8-23.8-0.4-35.5c-2.9-5.5-6.4-10.6-9.5-16
			c-4.4-7.8-6.9-16-6.1-25.3c1-11.7,5.2-22.3,10.7-32.4c4.8-8.9,8.9-18.1,9.7-28.2c1.1-14.1-2.3-27-11.4-38.1c-3.3-4-6.5-8-9.4-12.2
			c-6.3-9.1-7.1-19-4.2-29.5c2.7-9.6,7.2-18.4,11.4-27.4c3.5-7.6,6.5-15.3,8.2-23.5c0.9-4.3,0.7-8.7-0.2-13
			c-1.7-8.7-5.3-16.5-10.4-23.8c-3-4.2-6-8.4-8.6-12.8c-5.5-9.4-6.8-19.5-5.1-30.2c1.1-7,3.4-13.6,6.1-20c1.7-4.1,3.9-8,6-12
			c5.2-9.9,6.2-20.4,3.9-31.2c-1.3-5.7-4.4-10.8-7.9-15.4c-4.6-6-7.1-12.6-7.7-20c-0.2-1.8,0.1-3.7,0.2-5.5
			c1.3-14.4,7.2-27.1,13.7-39.8c2.9-5.7,5.1-11.9,7.4-17.9c1.6-4.2,1.2-8.5-0.2-12.8c-3.6-10.6-8.5-20.4-14.6-29.8
			c-6.3-9.7-7.6-20.1-3.5-31c2.4-6.2,5.1-12.2,7.5-18.3c3.4-9,8.4-17.4,9.4-27.2c0.3-3.1,0.3-6.3,0-9.4c-0.4-4.1-2.3-7.3-5.5-10.1
			c-3-2.7-5.6-6-7.9-9.3c-3.3-4.6-7.3-8.7-9.5-14.1c-0.4-1.1-1.1-2.2-1.3-3.3c-1.4-7.6-3.8-15.1-3.2-23c0.2-2.6,0.4-5.3,1.3-7.8
			c2.1-5.8,4.6-11.5,8-16.7c2.6-3.9,5.4-7.8,6.6-12.5c2-7.9,0.1-14.8-4.7-21.2c-3-3.9-5.7-7.9-8.6-11.8c4.8,0,9.5,0,14.3,0
			c2.3,4.9,6.5,8.2,9.7,12.3c4.6,5.8,9.9,11.1,11.4,18.7c1.3,6.7,1.9,13.6-0.6,20.2c-0.6,1.5-0.8,3.5-3.2,3.5
			c-0.4,0-0.9,0.5-1.1,0.9c-4.2,7.5-8.8,14.7-11.4,22.9c-0.7,2.3-0.8,5-0.5,7.4c0.6,3.6,1.8,7.1,2.7,10.6c0.1,0.4,0.2,0.8,0.2,1.2
			c-0.4,8.3,5.2,13.5,10.2,18.8c3.9,4.1,8.6,7.5,11.6,12.4c0.6,1,1.1,2.1,1.6,3.2c0.9,1.9,2.1,3.7,2.5,5.7c0.6,3.1,1.1,6.3,0.6,9.4
			c-1.6,10.6-5.9,20.4-10.5,30c-2.3,4.8-3.8,10-5.6,15.1c-0.5,1.2-1,2.4-1.6,3.6c-4.1,9.3-4,18,2.4,26.5c4.1,5.5,7.8,11.2,9.8,18
			c0.9,3.1,3,5.8,4.3,8.8c0.9,2.2,1.5,4.5,2.2,6.7c1.6,4.7-0.2,9.1-1.2,13.5c-2,8.8-6.5,16.6-10.5,24.5c-2.8,5.5-5,11.3-7.2,17.1
			c-2.5,6.9-3.2,14-3.3,21.3c-0.1,2.8,0.5,5.3,1.9,7.5c3.3,5,6.5,9.9,10,14.8c2.9,4.1,4.8,8.4,4.9,13.5c0.1,2,0.6,3.9,0.7,5.9
			c0.5,8.9-2.3,17.2-5.6,25.2c-1.8,4.3-4.2,8.2-6.1,12.4c-3.6,7.7-6.4,15.7-6.7,24.3c-0.2,8.4,0.7,16.5,6.7,23.2
			c2.6,2.8,4.6,6.1,7,9.1c5.9,7.5,8.7,16.3,11.4,25.3c2.2,7.6,1.2,14.9-1.2,22.1c-2.1,6.1-4.3,12.2-6.8,18.2c-0.8,2-2.5,3.6-3.8,5.4
			c-0.4,0.5-0.8,1-1.1,1.6c-2.9,7-6,14-7.9,21.5c-0.8,3.3-1.9,6.5-1.5,10c0.5,4.8,2.7,8.8,5.4,12.6c2.6,3.8,6,7,8.9,10.6
			c6.2,7.7,10.6,16.1,12.1,26.2c1,6.8,1.6,13.7,0.2,20.3c-1.4,6.2-2.8,12.5-5.9,18.2c-2.3,4.4-4.2,9-6.7,13.3
			c-3.4,5.8-5.2,12.1-6.8,18.5c-1.6,6.2-1.5,12.6,0,18.8c0.7,3,2.1,6,3.9,8.5c6.4,8.7,11.7,17.9,14.6,28.3c0.7,2.6,0.9,5.5,0.8,8.2
			c-0.2,8.3-2.9,16-7,23.2c-2.9,5.2-5.8,10.4-8.5,15.6c-0.8,1.6-1.2,3.4-1.8,5.2c-2.4,7.2-5.2,14.3-6.5,21.9
			c-1.7,9.9,0.9,18.4,7.2,26.5c8,10.2,14.5,21.4,15.1,35c0.2,4.1,0.8,8.2,0.4,12.2c-0.5,4.7-1.7,9.3-2.9,13.9
			c-0.4,1.5-1.2,3-2.2,4.1c-3.2,3.7-4.9,8.3-7.7,12.3c-3.1,4.5-3.8,9.7-5.7,14.5c-0.8,2.2-0.2,4.9,0,7.4c0.2,2.5,0.6,5,1.1,7.4
			c0.1,0.7,0.4,1.5,0.9,2c2.3,2.5,4.9,4.8,7.1,7.4c4.3,5.4,8.4,11,12.7,16.4c2.6,3.2,3.7,6.7,3.8,10.8c0.1,4.2,1.2,8.4,0.7,12.5
			c-0.6,5.8-1.9,11.7-5.2,16.7c-0.4,0.5-0.6,1.2-0.9,1.8c-3,7.2-7.9,13.2-12,19.8c-3.1,5.1-6,10.7-7.4,16.4
			c-1.2,4.5-0.1,9.7,0.1,14.5c0,0.8,0.7,1.7,1.2,2.5c2.7,4.4,5.5,8.7,8.1,13.1c0.7,1.1,1.1,2.4,1.5,3.6c0.8,2.2,1.4,4.5,2.4,6.7
			c3.4,8,6.6,16.1,7.4,24.9c0.2,2.7,0.1,5.5,0,8.2c-0.5,7.8-2.6,15.3-4.7,22.7c-0.8,3-2.7,5.7-4,8.5c-1.8,3.7-3.6,7.3-5.3,11.1
			c-3.7,8.1-3.7,16.9-3.9,25.5c0,2.4,1.5,5,2.8,7.3c4.3,7.3,9,14.3,13.1,21.6c1.9,3.4,2.7,7.3,3.8,11.1c0.8,2.5,1.2,5.1,1.9,7.6
			c0.8,2.7,1.1,5.3,0.8,8.2c-0.3,2.4,0.4,4.9,0.6,7.4c0.7,8.5-0.7,16.6-4.6,24.2c-1.4,2.7-3.1,5.1-4.6,7.7c-0.9,1.6-2.1,3.2-2.6,4.9
			c-1.1,4.4-4,7.7-6,11.5c-3.7,7-7.3,14.1-8,22.1c-0.7,8.3,1.7,15.8,7.3,22.2c2,2.3,4.2,4.5,5.8,7c1.5,2.3,2.4,4.9,3.4,7.5
			c2.1,5.6,4.4,11.2,5,17.3c0.3,2.4-0.2,5-0.6,7.4c-0.5,3-1.2,5.9-1.8,8.9c-0.2,0.8-0.3,1.6-0.6,2.3c-4.2,9.1-8.5,18.1-12.7,27.2
			c-2.3,4.9-4.8,9.7-6.8,14.7c-4.4,11.1-4.1,22.3,0.9,33.1c3.3,7,7.1,13.6,12.1,19.6c4.2,5,7.3,10.9,10,17c2,4.4,2.3,9.1,3.7,13.6
			c2.6,8.3,0.2,16.2-2,24c-2.4,8.2-5.7,16.1-8.5,24.2c-0.7,2.1-1,4.3-1.3,6.6c-0.3,1.9-0.5,3.9-0.6,5.9c-0.1,1.3,0.1,2.6,0.3,3.9
			c0.1,1.3,0.3,2.6,0.5,3.9C821.2,1600,816.1,1600,811.1,1600z"/>
		<path class="st5" d="M901.6,0c1.3,1.5,2.6,3,3.9,4.4c5.6,6,10.4,12.4,13,20.4c3.1,9.4,0.2,17.6-3.5,26.2
			c-3.6,8.6-9.3,15.9-12.9,24.4c-2.9,6.8-3.4,13.7,0.9,20.1c1.9,2.8,4.4,5.3,6.9,7.6c6,5.5,10.8,12,14.6,19.1
			c4.9,9.2,6.5,19.1,4.1,29.5c-1.9,8.2-4.8,16.1-8.6,23.7c-2,3.9-3.8,7.8-5.4,11.9c-2.8,7.2-0.4,13.9,3.4,19.9
			c2.7,4.3,6.5,7.9,9.8,11.9c2,2.6,4,5.2,5.7,8c1.4,2.3,2.5,4.9,3.5,7.5c0.6,1.4,1,3.1,1,4.6c0,5.8,0,11.6-0.5,17.3
			c-0.4,4.2-1.5,8.3-2.4,12.4c-0.2,0.9-0.6,1.7-1,2.6c-1.5,3-3,6.1-4.6,9.1c-2.1,3.8-4.2,7.6-6.6,11.2c-5,7.5-7.3,15.7-6.6,24.7
			c0.2,3.2,1.6,5.9,3.4,8.3c5.1,6.8,8.9,14.4,11.3,22.5c1.3,4.2,1.9,8.7,2.7,13.1c0.6,3.2,0.8,6.5,1.2,9.7c0.1,0.5,0.1,1.1,0,1.6
			c-1.1,5.7-1.9,11.3-4.4,16.9c-2.5,5.5-5.6,10.3-9.6,14.5c-2.2,2.3-4.7,4.4-6.8,6.9c-3.5,4.2-5.2,9.3-5.6,14.4
			c-0.6,7.8,0.1,15.8,0.3,23.6c0,1.1,0.4,2.4,1,3.4c2.6,4.4,5.3,8.8,8.7,12.7c6,7,10.2,15.1,12.3,24.1c1.2,5.4-0.4,10.5-2.5,15.4
			c-3.4,7.9-6.8,15.8-10.7,23.4c-2.9,5.6-5.1,11.5-7,17.5c-0.8,2.5-0.5,4.6,0.9,6.7c1.3,2.1,2.3,4.4,3.5,6.6
			c0.5,0.9,1.2,1.7,1.9,2.5c2.6,2.7,5.2,5.5,7.1,8.8c0.3,0.5,0.8,1,1.3,1.4c4.3,3.4,6.7,8,8.9,12.8c2.8,6.1,3.4,12.7,3.8,19.2
			c0.3,3.6-0.7,7.3-0.5,10.9c0.1,2.5,0.4,4.9-0.1,7.4c-0.9,4.4-1.7,8.8-2.3,13.2c-0.6,3.8-1.7,7.3-3.6,10.7c-0.3,0.4-0.3,1-0.5,1.5
			c-1.5,5-4,9.6-6.4,14.2c-3.6,7-7,14.2-9.9,21.5c-3.2,8-1.4,15.5,3.5,22.4c0.9,1.3,1.9,2.6,2.6,3.9c3.3,6.2,6.9,12.2,9.7,18.6
			c3.8,8.8,6,18,6.1,27.6c0,2.8-0.6,5.8-1.6,8.4c-2.9,7.2-6,14.3-9.2,21.4c-1.5,3.2-3.7,6-5.4,9.2c-1,1.8-1.4,3.9-2.1,5.8
			c-0.8,2.6-1.6,5.3-2.5,7.9c-1.7,5.3-0.8,10.4,1.9,15.2c2.1,3.8,4.3,7.5,6.6,11.2c1.9,3,4.1,5.8,5.8,9c2.4,4.4,4.5,8.9,6.4,13.5
			c3.4,8.2,4.5,17,5.2,25.7c0.4,5.1-1,10.5-3.6,15.1c-3.7,6.5-7.7,12.8-11.4,19.3c-2.9,5-5.7,10-8.2,15.2c-1.9,4-3.6,8.1-4.6,12.3
			c-0.7,3.2,0.9,6.5,3,9.1c2.7,3.2,5.5,6.4,8.6,9.2c6.6,6.1,9.9,13.8,11.9,22.3c1,4,0.7,8,0.3,12.2c-0.8,7.8-2.5,15.4-5.1,22.7
			c-1.8,4.8-4.6,9.3-7,13.9c-0.7,1.4-1.6,2.7-2.2,4.2c-2.8,6.8-6.7,13.2-8.3,20.5c-1.6,7-3,13.9-2.2,21.1c0.3,2.1,0.7,4.2,1.2,6.2
			c0.1,0.5,0.4,1,0.7,1.4c3.8,4.2,7.6,8.4,11.5,12.4c6.4,6.5,11.1,14.1,13.5,22.9c2,7.3,0.8,14.5-2.3,21.2
			c-3.2,7.1-7.1,13.8-10.5,20.8c-1.9,3.9-3.4,8-4.9,12.1c-2.2,5.9-4.8,11.8-5.4,18.1c-0.7,7.8-0.9,15.6,2.7,22.9
			c1.6,3.2,3.6,6.1,5.7,9c3.7,5,7.4,10,9.7,15.8c0.8,2.2,2,4.2,3.2,6.2c1.8,3,1.5,6.3,1.9,9.6c0.8,8.5-2.7,15.9-5.4,23.5
			c-2.4,6.6-6.4,12.4-9.4,18.7c-4,8.6-7.9,17.2-10.3,26.5c-2,7.5-0.2,14.1,3.3,20.5c2.8,5.2,6.7,9.7,10.4,14.4
			c6.6,8.4,12.4,17.4,15.2,28c1.5,5.8,1.2,11.7,0,17.6c-1.7,8.5-6.4,15.6-10.3,23c-4.9,9.3-9.9,18.6-14.1,28.3
			c-3.7,8.6-4.3,17.3-1.6,26.2c0.6,2,1.9,4.1,3.4,5.6c3.5,3.6,7.3,6.8,10.9,10.3c1.4,1.4,2.8,2.9,3.6,4.7c2.2,5.1,4.2,10.2,5.9,15.5
			c1.7,5.5,0.9,11.3,0.6,16.9c-0.1,2.4-0.7,4.7-1,7.1c-0.9,6.7-4.3,12.4-7.7,18c-5,8.3-8.1,17.1-9.4,26.7c-0.1,0.7,0.1,1.4-0.2,1.9
			c-1.5,2.4-1,4.8,0.1,7.1c0.3,0.6,0.1,1.3,0.2,2c-5,0-10.1,0-15.1,0c-3.2-7-2.3-14.2-0.6-21.4c1.9-7.7,5.1-14.9,8.9-21.9
			c9.1-17.1,9.8-34.6,0.2-51.8c-2-3.5-5.1-6.3-7.8-9.4c-3.4-3.9-7-7.6-8-13c-2.1-10.7-1.8-21.2,2.5-31.4c3.6-8.4,7.5-16.5,12.1-24.4
			c3-5.1,5.4-10.6,7.9-16c4.4-9.4,3.5-18.9-0.4-28c-4.2-9.7-10.2-18.4-17.1-26.5c-5.8-6.8-8.8-15-10.3-23.7c-0.4-2.3,0.1-4.7,0.5-7
			c1.7-9.5,4.9-18.6,9.2-27.3c2.4-5,4.7-10,7.5-14.8c10-17.7,10-34.9-1.8-51.8c-2.6-3.7-4.9-7.5-7.3-11.3
			c-5.6-8.8-6.5-18.5-5.4-28.6c1.7-15.1,7.9-28.6,14.9-41.8c2.7-5,5.1-10.2,6.9-15.5c3.5-10,1.6-19.4-4.3-28.2c-3.4-5-8-8.7-12-13.1
			c-5.1-5.6-9.2-11.7-9.6-19.5c-0.4-7.8,0.5-15.5,3-23c2.7-8,5.9-15.8,9.8-23.3c5.5-10.5,9.6-21.4,10.7-33.3
			c0.9-9.1-0.2-17.7-5.1-25.5c-2.5-3.9-5.7-7.2-8.6-10.8c-1.7-2.1-3.5-4-4.9-6.2c-4.3-6.5-5.2-13.4-1.6-20.6c4.8-9.4,9.1-19,14.8-28
			c3-4.8,5.6-9.9,8.3-14.9c2.2-4,2.1-8.5,1.7-12.8c-1.1-12-4.4-23.3-10.2-33.9c-4.2-7.6-8.6-15.1-12.9-22.7c-2.2-3.9-3.5-8-2.1-12.5
			c0.2-0.7,0.1-1.6,0.2-2.4c0.6-3.1,0.9-6.3,2.1-9.2c3.1-7.4,6.8-14.6,10.1-21.9c1.8-4,3.5-8,5-12c2.5-6.7,1.7-13.5,0.5-20.3
			c-1.8-10.3-5.9-19.6-11.3-28.5c-2.3-3.8-4.3-7.8-6.6-11.8c-3.8-6.7-4.9-14.1-3.7-21.5c0.6-3.9,2.9-7.6,4.7-11.2
			c3.3-6.6,6.7-13.2,10.1-19.7c4.7-9.3,7.5-19.1,8.5-29.5c0.7-6.8,1.6-13.7,1.3-20.5c-0.3-6.1-1.5-12.3-3.3-18.2
			c-1-3.4-3.5-6.6-6-9.2c-5.7-6-10.5-12.6-15.1-19.3c-1.4-2-2.7-4.3-3.4-6.6c-0.5-1.6-0.3-3.7,0.1-5.4c2.4-9.2,6.1-17.9,10.6-26.3
			c3-5.6,5-11.6,7.3-17.5c2.9-7.4,1.7-14.6-2.1-21.3c-2.7-4.8-5.9-9.3-8.9-14c-2.4-3.8-4.8-7.6-7-11.5c-2.5-4.5-2.8-9.6-2.8-14.6
			c0-5.6,0-11.1,0.3-16.7c0.4-7.1,3.8-13.1,8-18.7c2.8-3.7,5.8-7.2,8.7-10.8c7.9-9.7,9.8-20.9,8.2-32.8c-1.5-11-5.4-21.2-11.2-30.6
			c-3.4-5.5-6.7-11.2-6.7-18c0-2.4-0.1-4.8,0.3-7.1c1.6-8.1,4.4-15.6,9-22.6c6.2-9.5,10.1-19.9,10.7-31.5c0.3-5.7,0.2-11.3-0.9-16.9
			c-0.9-4.5-3.5-7.9-6.5-11.1c-6.2-6.9-11.8-14.3-14.6-23.3c-2.3-7.4-2.3-14.6,1.1-21.9c3.7-7.9,7.1-15.9,10.1-24.1
			c4.2-11.7,3.1-23-3.2-33.9c-2.4-4.2-5.6-7.6-8.6-11.3c-3.1-3.7-6.4-7.3-9.1-11.3c-4.7-6.9-6-14.4-4.1-22.6
			c1.7-7.2,5.6-13.3,9.3-19.6c1.5-2.5,2.7-5.1,3.9-7.7c1.3-2.8,2.5-5.5,3.5-8.4c3.1-9.5,2.1-18.5-4.3-26.5c-1.6-2.1-3.1-4.2-4.6-6.4
			C892.1,0,896.8,0,901.6,0z"/>
	</g>
</g>
<g id="Text__x2F__Quiz_Questions">
</g>
</svg>
